G04 #@! TF.GenerationSoftware,KiCad,Pcbnew,9.0.1*
G04 #@! TF.CreationDate,2025-05-11T23:34:49+02:00*
G04 #@! TF.ProjectId,Labor Netzteil,4c61626f-7220-44e6-9574-7a7465696c2e,rev?*
G04 #@! TF.SameCoordinates,Original*
G04 #@! TF.FileFunction,Copper,L2,Bot*
G04 #@! TF.FilePolarity,Positive*
%FSLAX46Y46*%
G04 Gerber Fmt 4.6, Leading zero omitted, Abs format (unit mm)*
G04 Created by KiCad (PCBNEW 9.0.1) date 2025-05-11 23:34:49*
%MOMM*%
%LPD*%
G01*
G04 APERTURE LIST*
G04 Aperture macros list*
%AMRoundRect*
0 Rectangle with rounded corners*
0 $1 Rounding radius*
0 $2 $3 $4 $5 $6 $7 $8 $9 X,Y pos of 4 corners*
0 Add a 4 corners polygon primitive as box body*
4,1,4,$2,$3,$4,$5,$6,$7,$8,$9,$2,$3,0*
0 Add four circle primitives for the rounded corners*
1,1,$1+$1,$2,$3*
1,1,$1+$1,$4,$5*
1,1,$1+$1,$6,$7*
1,1,$1+$1,$8,$9*
0 Add four rect primitives between the rounded corners*
20,1,$1+$1,$2,$3,$4,$5,0*
20,1,$1+$1,$4,$5,$6,$7,0*
20,1,$1+$1,$6,$7,$8,$9,0*
20,1,$1+$1,$8,$9,$2,$3,0*%
G04 Aperture macros list end*
G04 #@! TA.AperFunction,ComponentPad*
%ADD10C,3.000000*%
G04 #@! TD*
G04 #@! TA.AperFunction,ComponentPad*
%ADD11RoundRect,0.250000X0.725000X-0.600000X0.725000X0.600000X-0.725000X0.600000X-0.725000X-0.600000X0*%
G04 #@! TD*
G04 #@! TA.AperFunction,ComponentPad*
%ADD12O,1.950000X1.700000*%
G04 #@! TD*
G04 #@! TA.AperFunction,ComponentPad*
%ADD13C,2.500000*%
G04 #@! TD*
G04 #@! TA.AperFunction,ComponentPad*
%ADD14C,1.600000*%
G04 #@! TD*
G04 #@! TA.AperFunction,ComponentPad*
%ADD15C,1.400000*%
G04 #@! TD*
G04 #@! TA.AperFunction,ComponentPad*
%ADD16O,1.400000X1.400000*%
G04 #@! TD*
G04 #@! TA.AperFunction,ComponentPad*
%ADD17R,1.050000X1.500000*%
G04 #@! TD*
G04 #@! TA.AperFunction,ComponentPad*
%ADD18O,1.050000X1.500000*%
G04 #@! TD*
G04 #@! TA.AperFunction,ComponentPad*
%ADD19R,0.850000X0.850000*%
G04 #@! TD*
G04 #@! TA.AperFunction,ComponentPad*
%ADD20R,1.600000X1.600000*%
G04 #@! TD*
G04 #@! TA.AperFunction,ComponentPad*
%ADD21C,0.800000*%
G04 #@! TD*
G04 #@! TA.AperFunction,ComponentPad*
%ADD22C,6.400000*%
G04 #@! TD*
G04 #@! TA.AperFunction,ComponentPad*
%ADD23RoundRect,0.250000X-0.600000X-0.725000X0.600000X-0.725000X0.600000X0.725000X-0.600000X0.725000X0*%
G04 #@! TD*
G04 #@! TA.AperFunction,ComponentPad*
%ADD24O,1.700000X1.950000*%
G04 #@! TD*
G04 #@! TA.AperFunction,ComponentPad*
%ADD25O,2.500000X1.300000*%
G04 #@! TD*
G04 #@! TA.AperFunction,ComponentPad*
%ADD26RoundRect,0.250000X-0.950000X-0.550000X0.950000X-0.550000X0.950000X0.550000X-0.950000X0.550000X0*%
G04 #@! TD*
G04 #@! TA.AperFunction,ComponentPad*
%ADD27O,2.400000X1.600000*%
G04 #@! TD*
G04 #@! TA.AperFunction,ViaPad*
%ADD28C,0.800000*%
G04 #@! TD*
G04 #@! TA.AperFunction,Conductor*
%ADD29C,0.200000*%
G04 #@! TD*
G04 #@! TA.AperFunction,Conductor*
%ADD30C,0.750000*%
G04 #@! TD*
G04 APERTURE END LIST*
D10*
X102000000Y-48500000D03*
X102000000Y-53500000D03*
X102000000Y-61000000D03*
X102000000Y-83500000D03*
X102000000Y-88500000D03*
X102000000Y-93500000D03*
X102000000Y-98500000D03*
X102000000Y-106000000D03*
D11*
X159475000Y-95800000D03*
D12*
X159475000Y-93300000D03*
X159475000Y-90800000D03*
D13*
X114500000Y-43800000D03*
X114500000Y-48800000D03*
X114500000Y-53800000D03*
X114500000Y-58800000D03*
X114500000Y-63800000D03*
X114500000Y-68800000D03*
D14*
X154100000Y-67276000D03*
X154100000Y-64736000D03*
X154144000Y-62196000D03*
X154144000Y-52744000D03*
X154144000Y-50204000D03*
X154144000Y-47664000D03*
X154144000Y-45124000D03*
D10*
X102000000Y-76000000D03*
X102000000Y-71000000D03*
D15*
X145080000Y-114800000D03*
D16*
X152700000Y-114800000D03*
D17*
X139960000Y-113600000D03*
D18*
X141230000Y-113600000D03*
X142500000Y-113600000D03*
D15*
X155800000Y-76800000D03*
D16*
X148180000Y-76800000D03*
D15*
X148180000Y-79000000D03*
D16*
X155800000Y-79000000D03*
D15*
X155800000Y-81200000D03*
D16*
X148180000Y-81200000D03*
D15*
X148180000Y-83400000D03*
D16*
X155800000Y-83400000D03*
D19*
X158100000Y-76800000D03*
X158100000Y-81200000D03*
D10*
X102000000Y-111000000D03*
X102000000Y-66000000D03*
D15*
X155720000Y-86100000D03*
D16*
X148100000Y-86100000D03*
D20*
X140600000Y-78447300D03*
D14*
X140600000Y-81947300D03*
D15*
X155520000Y-96400000D03*
D16*
X147900000Y-96400000D03*
D10*
X159100000Y-85300000D03*
X159500000Y-100900000D03*
D15*
X155520000Y-91400000D03*
D16*
X147900000Y-91400000D03*
D15*
X155520000Y-93900000D03*
D16*
X147900000Y-93900000D03*
D11*
X149800000Y-110700000D03*
D12*
X149800000Y-108200000D03*
X149800000Y-105700000D03*
X149800000Y-103200000D03*
D15*
X155520000Y-88900000D03*
D16*
X147900000Y-88900000D03*
D21*
X100600000Y-124300000D03*
X101302944Y-122602944D03*
X101302944Y-125997056D03*
X103000000Y-121900000D03*
D22*
X103000000Y-124300000D03*
D21*
X103000000Y-126700000D03*
X104697056Y-122602944D03*
X104697056Y-125997056D03*
X105400000Y-124300000D03*
D23*
X138900000Y-118800000D03*
D24*
X141400000Y-118800000D03*
X143900000Y-118800000D03*
X146400000Y-118800000D03*
X148900000Y-118800000D03*
X151400000Y-118800000D03*
X153900000Y-118800000D03*
D20*
X158500000Y-106797300D03*
D14*
X158500000Y-111797300D03*
D25*
X134000000Y-123200000D03*
X134000000Y-120660000D03*
X134000000Y-118120000D03*
X134000000Y-115580000D03*
X134000000Y-113040000D03*
X134000000Y-110500000D03*
X134000000Y-107960000D03*
X134000000Y-105420000D03*
X134000000Y-102880000D03*
X134000000Y-100340000D03*
X134000000Y-97800000D03*
X134000000Y-95260000D03*
X134000000Y-92720000D03*
X134000000Y-90180000D03*
X134000000Y-87640000D03*
X134000000Y-85100000D03*
X134000000Y-82560000D03*
X134000000Y-80020000D03*
X134000000Y-77480000D03*
X108600000Y-77480000D03*
X108600000Y-80020000D03*
X108600000Y-82560000D03*
X108600000Y-85100000D03*
X108600000Y-87640000D03*
X108600000Y-90180000D03*
X108600000Y-92720000D03*
X108600000Y-95260000D03*
X108600000Y-97800000D03*
X108600000Y-100340000D03*
X108600000Y-102880000D03*
X108600000Y-105420000D03*
X108600000Y-107960000D03*
X108600000Y-110500000D03*
X108600000Y-113040000D03*
X108600000Y-115580000D03*
X108600000Y-118120000D03*
X108600000Y-120660000D03*
X108600000Y-123200000D03*
D21*
X158500000Y-124200000D03*
X159202944Y-122502944D03*
X159202944Y-125897056D03*
X160900000Y-121800000D03*
D22*
X160900000Y-124200000D03*
D21*
X160900000Y-126600000D03*
X162597056Y-122502944D03*
X162597056Y-125897056D03*
X163300000Y-124200000D03*
D11*
X160800000Y-71100000D03*
D12*
X160800000Y-68600000D03*
X160800000Y-66100000D03*
X160800000Y-63600000D03*
X160800000Y-61100000D03*
X160800000Y-58600000D03*
X160800000Y-56100000D03*
X160800000Y-53600000D03*
D26*
X137480000Y-86240000D03*
D27*
X137480000Y-88780000D03*
X137480000Y-91320000D03*
X137480000Y-93860000D03*
X137480000Y-96400000D03*
X137480000Y-98940000D03*
X137480000Y-101480000D03*
X137480000Y-104020000D03*
X137480000Y-106560000D03*
X137480000Y-109100000D03*
X145100000Y-109100000D03*
X145100000Y-106560000D03*
X145100000Y-104020000D03*
X145100000Y-101480000D03*
X145100000Y-98940000D03*
X145100000Y-96400000D03*
X145100000Y-93860000D03*
X145100000Y-91320000D03*
X145100000Y-88780000D03*
X145100000Y-86240000D03*
D21*
X100600000Y-40000000D03*
X101302944Y-38302944D03*
X101302944Y-41697056D03*
X103000000Y-37600000D03*
D22*
X103000000Y-40000000D03*
D21*
X103000000Y-42400000D03*
X104697056Y-38302944D03*
X104697056Y-41697056D03*
X105400000Y-40000000D03*
X158500000Y-40000000D03*
X159202944Y-38302944D03*
X159202944Y-41697056D03*
X160900000Y-37600000D03*
D22*
X160900000Y-40000000D03*
D21*
X160900000Y-42400000D03*
X162597056Y-38302944D03*
X162597056Y-41697056D03*
X163300000Y-40000000D03*
D15*
X155520000Y-99000000D03*
D16*
X147900000Y-99000000D03*
D28*
X162122300Y-111962800D03*
X150418700Y-91825800D03*
X150930200Y-51100000D03*
X159516400Y-113816400D03*
X141900000Y-84112800D03*
X143100000Y-101500000D03*
X163704200Y-98100000D03*
X116423900Y-118774900D03*
X153763300Y-93123300D03*
X140700000Y-93800000D03*
X152321600Y-86872500D03*
D29*
X136719700Y-117513800D02*
X139729500Y-117513800D01*
X103702900Y-125997100D02*
X103000000Y-126700000D01*
X147483400Y-87898300D02*
X146601700Y-88780000D01*
X159202900Y-41697100D02*
X160197100Y-41697100D01*
X103000000Y-40000000D02*
X105400000Y-40000000D01*
X103000000Y-121900000D02*
X103702900Y-122602900D01*
X140952700Y-82300000D02*
X153698300Y-82300000D01*
X161602900Y-41697100D02*
X160900000Y-42400000D01*
X162597100Y-125897100D02*
X161602900Y-125897100D01*
X140600000Y-81947300D02*
X140952700Y-82300000D01*
X104697100Y-38302900D02*
X103702900Y-38302900D01*
X163300000Y-40000000D02*
X160900000Y-40000000D01*
X157420000Y-95800000D02*
X155520000Y-93900000D01*
X161602900Y-38302900D02*
X160900000Y-37600000D01*
X162597100Y-38302900D02*
X161602900Y-38302900D01*
X140581700Y-110700000D02*
X149800000Y-110700000D01*
X102297100Y-38302900D02*
X103000000Y-37600000D01*
X145100000Y-88780000D02*
X146601700Y-88780000D01*
X104697100Y-122602900D02*
X105425300Y-121874700D01*
X141400000Y-118800000D02*
X140248300Y-118800000D01*
X155800000Y-83400000D02*
X154798300Y-83400000D01*
X105425300Y-121874700D02*
X112126300Y-121874700D01*
X159475000Y-95800000D02*
X157420000Y-95800000D01*
X101302900Y-122602900D02*
X102297100Y-122602900D01*
X158500000Y-40000000D02*
X160900000Y-40000000D01*
X112126300Y-121874700D02*
X115948500Y-118052500D01*
X138981700Y-109100000D02*
X140581700Y-110700000D01*
X162597100Y-122502900D02*
X161602900Y-122502900D01*
X104697100Y-125997100D02*
X103702900Y-125997100D01*
X140248300Y-118032600D02*
X140248300Y-118800000D01*
X139729500Y-117513800D02*
X140248300Y-118032600D01*
X101302900Y-125997100D02*
X102297100Y-125997100D01*
X159202900Y-122502900D02*
X160197100Y-122502900D01*
X103702900Y-122602900D02*
X104697100Y-122602900D01*
X150897300Y-111797300D02*
X149800000Y-110700000D01*
X115948500Y-118052500D02*
X126616500Y-118052500D01*
X158500000Y-124200000D02*
X160900000Y-124200000D01*
X148314900Y-87898300D02*
X147483400Y-87898300D01*
X103702900Y-41697100D02*
X103000000Y-42400000D01*
X104697100Y-41697100D02*
X103702900Y-41697100D01*
X103702900Y-38302900D02*
X103000000Y-37600000D01*
X100600000Y-124300000D02*
X103000000Y-124300000D01*
X161602900Y-125897100D02*
X160900000Y-126600000D01*
X153698300Y-82300000D02*
X154798300Y-83400000D01*
X162597100Y-41697100D02*
X161602900Y-41697100D01*
X101302900Y-41697100D02*
X102297100Y-41697100D01*
X161602900Y-122502900D02*
X160900000Y-121800000D01*
X155520000Y-88900000D02*
X149316500Y-88900000D01*
X101302900Y-38302900D02*
X102297100Y-38302900D01*
X160197100Y-41697100D02*
X160900000Y-42400000D01*
X127642100Y-119078100D02*
X135155400Y-119078100D01*
X137480000Y-109100000D02*
X138981700Y-109100000D01*
X160197100Y-122502900D02*
X160900000Y-121800000D01*
X160900000Y-124200000D02*
X163300000Y-124200000D01*
X160197100Y-125897100D02*
X160900000Y-126600000D01*
X159202900Y-38302900D02*
X160197100Y-38302900D01*
X102297100Y-41697100D02*
X103000000Y-42400000D01*
X149316500Y-88900000D02*
X149316500Y-88899900D01*
X158500000Y-111797300D02*
X150897300Y-111797300D01*
X159202900Y-125897100D02*
X160197100Y-125897100D01*
X105400000Y-40000000D02*
X158500000Y-40000000D01*
X105400000Y-124300000D02*
X103000000Y-124300000D01*
X126616500Y-118052500D02*
X127642100Y-119078100D01*
X102297100Y-122602900D02*
X103000000Y-121900000D01*
X149316500Y-88899900D02*
X148314900Y-87898300D01*
X100600000Y-40000000D02*
X103000000Y-40000000D01*
X135155400Y-119078100D02*
X136719700Y-117513800D01*
X160197100Y-38302900D02*
X160900000Y-37600000D01*
X102297100Y-125997100D02*
X103000000Y-126700000D01*
D30*
X158598500Y-84798500D02*
X159100000Y-85300000D01*
X145100000Y-86240000D02*
X137480000Y-86240000D01*
X140600000Y-78447300D02*
X139223300Y-78447300D01*
X138256000Y-77480000D02*
X139223300Y-78447300D01*
X146541500Y-84798500D02*
X158598500Y-84798500D01*
X157123300Y-106797300D02*
X155720600Y-108200000D01*
X155720600Y-108200000D02*
X149800000Y-108200000D01*
X145100000Y-86240000D02*
X146541500Y-84798500D01*
X158500000Y-106797300D02*
X157123300Y-106797300D01*
X154100000Y-67276000D02*
X150394600Y-67276000D01*
X150394600Y-67276000D02*
X139223300Y-78447300D01*
X134000000Y-77480000D02*
X138256000Y-77480000D01*
D29*
X159268300Y-89648300D02*
X155720000Y-86100000D01*
X159475000Y-89648300D02*
X159268300Y-89648300D01*
X159475000Y-90800000D02*
X159475000Y-89648300D01*
D30*
X105636300Y-84863700D02*
X105636300Y-77663700D01*
X102000000Y-88500000D02*
X105636300Y-84863700D01*
X105636300Y-77663700D02*
X114500000Y-68800000D01*
D29*
X160800000Y-66100000D02*
X160800000Y-67251700D01*
X107048300Y-99936500D02*
X108056400Y-98928400D01*
X159648300Y-67251700D02*
X160800000Y-67251700D01*
X107048300Y-102880000D02*
X107048300Y-99936500D01*
X137180700Y-83581000D02*
X140330100Y-80431600D01*
X151550000Y-75350000D02*
X159648300Y-67251700D01*
X146781800Y-75350000D02*
X151550000Y-75350000D01*
X141700200Y-80431600D02*
X146781800Y-75350000D01*
X131601500Y-83581000D02*
X137180700Y-83581000D01*
X140330100Y-80431600D02*
X141700200Y-80431600D01*
X116254100Y-98928400D02*
X131601500Y-83581000D01*
X108600000Y-102880000D02*
X107048300Y-102880000D01*
X108056400Y-98928400D02*
X116254100Y-98928400D01*
X108600000Y-120660000D02*
X110151700Y-120660000D01*
X162122300Y-112202800D02*
X162122300Y-111962800D01*
X113963300Y-116848400D02*
X157476700Y-116848400D01*
X157476700Y-116848400D02*
X162122300Y-112202800D01*
X110151700Y-120660000D02*
X113963300Y-116848400D01*
X147696900Y-92650000D02*
X149594500Y-92650000D01*
X146601700Y-93745200D02*
X147696900Y-92650000D01*
X149594500Y-92650000D02*
X150418700Y-91825800D01*
X146601700Y-93860000D02*
X146601700Y-93745200D01*
X145100000Y-93860000D02*
X146601700Y-93860000D01*
X150930200Y-51100000D02*
X151759200Y-50204000D01*
X151759200Y-50204000D02*
X154144000Y-50204000D01*
D30*
X114500000Y-48800000D02*
X102300000Y-48800000D01*
X102300000Y-48800000D02*
X102000000Y-48500000D01*
D29*
X142500000Y-113600000D02*
X143326700Y-113600000D01*
X144526700Y-114800000D02*
X143326700Y-113600000D01*
X146138400Y-113741600D02*
X145080000Y-114800000D01*
X135551700Y-122148300D02*
X135551700Y-123200000D01*
X145080000Y-114800000D02*
X144526700Y-114800000D01*
X159441600Y-113741600D02*
X146138400Y-113741600D01*
X159516400Y-113816400D02*
X159441600Y-113741600D01*
X134000000Y-123200000D02*
X135551700Y-123200000D01*
X138900000Y-118800000D02*
X135551700Y-122148300D01*
X108600000Y-105420000D02*
X110151700Y-105420000D01*
X149800000Y-105700000D02*
X148523300Y-105700000D01*
X111103500Y-104468200D02*
X135352900Y-104468200D01*
X110151700Y-105420000D02*
X111103500Y-104468200D01*
X148113300Y-105290000D02*
X148523300Y-105700000D01*
X135352900Y-104468200D02*
X136174700Y-105290000D01*
X136174700Y-105290000D02*
X148113300Y-105290000D01*
X108600000Y-110500000D02*
X110151700Y-110500000D01*
X136585400Y-107971500D02*
X135008600Y-109548300D01*
X150370100Y-106950000D02*
X148052500Y-106950000D01*
X147031000Y-107971500D02*
X136585400Y-107971500D01*
X135008600Y-109548300D02*
X111103400Y-109548300D01*
X111103400Y-109548300D02*
X110151700Y-110500000D01*
X148052500Y-106950000D02*
X147031000Y-107971500D01*
X151081200Y-105201000D02*
X151081200Y-106238900D01*
X149800000Y-104351700D02*
X150231900Y-104351700D01*
X151081200Y-106238900D02*
X150370100Y-106950000D01*
X150231900Y-104351700D02*
X151081200Y-105201000D01*
X149800000Y-103200000D02*
X149800000Y-104351700D01*
X150694800Y-115803500D02*
X142381800Y-115803500D01*
X137228000Y-114687500D02*
X137133600Y-114593100D01*
X141230000Y-113600000D02*
X141230000Y-114550800D01*
X141230000Y-114550800D02*
X141230000Y-114650200D01*
X151698300Y-114800000D02*
X150694800Y-115803500D01*
X141192700Y-114687500D02*
X137228000Y-114687500D01*
X152700000Y-114800000D02*
X151698300Y-114800000D01*
X141230000Y-114650200D02*
X141230000Y-114651700D01*
X142381800Y-115803500D02*
X141230000Y-114651700D01*
X113678600Y-114593100D02*
X110151700Y-118120000D01*
X141230000Y-114650200D02*
X141192700Y-114687500D01*
X108600000Y-118120000D02*
X110151700Y-118120000D01*
X137133600Y-114593100D02*
X113678600Y-114593100D01*
X147467200Y-84112800D02*
X148180000Y-83400000D01*
X141900000Y-84112800D02*
X147467200Y-84112800D01*
X155800000Y-76800000D02*
X158100000Y-76800000D01*
X155800000Y-81200000D02*
X158100000Y-81200000D01*
X137480000Y-96400000D02*
X138981700Y-96400000D01*
X146898300Y-98749600D02*
X145818700Y-97670000D01*
X146898300Y-99000000D02*
X146898300Y-98749600D01*
X147900000Y-99000000D02*
X146898300Y-99000000D01*
X140251700Y-97670000D02*
X138981700Y-96400000D01*
X145818700Y-97670000D02*
X140251700Y-97670000D01*
X135978300Y-95882000D02*
X136636300Y-95224000D01*
X145929800Y-95224000D02*
X146898300Y-96192500D01*
X136636300Y-95224000D02*
X145929800Y-95224000D01*
X146898300Y-96192500D02*
X146898300Y-96400000D01*
X137480000Y-98940000D02*
X135978300Y-98940000D01*
X147900000Y-96400000D02*
X146898300Y-96400000D01*
X135978300Y-98940000D02*
X135978300Y-95882000D01*
X143100000Y-101500000D02*
X141063500Y-101480000D01*
X141063500Y-101480000D02*
X137480000Y-101480000D01*
X135551700Y-94286600D02*
X135551700Y-97800000D01*
X135978300Y-93860000D02*
X135551700Y-94286600D01*
X137480000Y-93860000D02*
X135978300Y-93860000D01*
X134000000Y-97800000D02*
X135551700Y-97800000D01*
X136865700Y-66006000D02*
X110151700Y-92720000D01*
X160800000Y-61100000D02*
X160800000Y-62251700D01*
X160800000Y-62251700D02*
X159648300Y-62251700D01*
X155894000Y-66006000D02*
X136865700Y-66006000D01*
X159648300Y-62251700D02*
X155894000Y-66006000D01*
X108600000Y-92720000D02*
X110151700Y-92720000D01*
X139191700Y-58600000D02*
X110151700Y-87640000D01*
X108600000Y-87640000D02*
X110151700Y-87640000D01*
X160800000Y-58600000D02*
X139191700Y-58600000D01*
X136040400Y-100075700D02*
X135346200Y-99381500D01*
X110151700Y-100340000D02*
X108600000Y-100340000D01*
X163704200Y-98100000D02*
X162917100Y-99083300D01*
X135346200Y-99381500D02*
X111110200Y-99381500D01*
X157303600Y-100075700D02*
X136040400Y-100075700D01*
X158296000Y-99083300D02*
X157303600Y-100075700D01*
X162917100Y-99083300D02*
X158296000Y-99083300D01*
X111110200Y-99381500D02*
X110151700Y-100340000D01*
X148020300Y-124164000D02*
X121813000Y-124164000D01*
X153900000Y-118800000D02*
X153384300Y-118800000D01*
X153384300Y-118800000D02*
X148020300Y-124164000D01*
X121813000Y-124164000D02*
X116423900Y-118774900D01*
X143102900Y-90195200D02*
X150835200Y-90195200D01*
X150835200Y-90195200D02*
X153763300Y-93123300D01*
X136543800Y-92716200D02*
X140581900Y-92716200D01*
X140581900Y-92716200D02*
X143102900Y-90195200D01*
X134000000Y-95260000D02*
X136543800Y-92716200D01*
X143973900Y-92448400D02*
X145953700Y-92448400D01*
X146898300Y-91503800D02*
X146898300Y-91400000D01*
X146898300Y-91400000D02*
X147900000Y-91400000D01*
X140700000Y-93800000D02*
X143973900Y-92448400D01*
X145953700Y-92448400D02*
X146898300Y-91503800D01*
X134000000Y-87640000D02*
X135551700Y-87640000D01*
X152321600Y-86872500D02*
X151697500Y-87496600D01*
X135695100Y-87496600D02*
X135551700Y-87640000D01*
X151697500Y-87496600D02*
X135695100Y-87496600D01*
G04 #@! TA.AperFunction,Conductor*
G36*
X141650000Y-120252230D02*
G01*
X141716126Y-120241757D01*
X141716129Y-120241757D01*
X141918217Y-120176095D01*
X142107557Y-120079620D01*
X142279459Y-119954727D01*
X142279464Y-119954723D01*
X142429723Y-119804464D01*
X142429727Y-119804459D01*
X142544428Y-119646587D01*
X142599757Y-119603921D01*
X142669371Y-119597942D01*
X142731166Y-119630547D01*
X142745064Y-119646586D01*
X142746445Y-119648487D01*
X142863794Y-119810004D01*
X143014996Y-119961206D01*
X143187991Y-120086894D01*
X143281438Y-120134507D01*
X143378516Y-120183972D01*
X143378519Y-120183973D01*
X143474890Y-120215285D01*
X143581884Y-120250049D01*
X143793084Y-120283500D01*
X143793085Y-120283500D01*
X144006915Y-120283500D01*
X144006916Y-120283500D01*
X144218116Y-120250049D01*
X144421483Y-120183972D01*
X144612009Y-120086894D01*
X144785004Y-119961206D01*
X144936206Y-119810004D01*
X145028190Y-119683399D01*
X145049682Y-119653818D01*
X145105012Y-119611152D01*
X145174625Y-119605173D01*
X145236420Y-119637779D01*
X145250318Y-119653818D01*
X145346577Y-119786307D01*
X145363794Y-119810004D01*
X145514996Y-119961206D01*
X145687991Y-120086894D01*
X145781438Y-120134507D01*
X145878516Y-120183972D01*
X145878519Y-120183973D01*
X145974890Y-120215285D01*
X146081884Y-120250049D01*
X146293084Y-120283500D01*
X146293085Y-120283500D01*
X146506915Y-120283500D01*
X146506916Y-120283500D01*
X146718116Y-120250049D01*
X146921483Y-120183972D01*
X147112009Y-120086894D01*
X147285004Y-119961206D01*
X147436206Y-119810004D01*
X147528190Y-119683399D01*
X147549682Y-119653818D01*
X147605012Y-119611152D01*
X147674625Y-119605173D01*
X147736420Y-119637779D01*
X147750318Y-119653818D01*
X147846577Y-119786307D01*
X147863794Y-119810004D01*
X148014996Y-119961206D01*
X148187991Y-120086894D01*
X148281438Y-120134507D01*
X148378516Y-120183972D01*
X148378519Y-120183973D01*
X148474890Y-120215285D01*
X148581884Y-120250049D01*
X148793084Y-120283500D01*
X148793085Y-120283500D01*
X149006915Y-120283500D01*
X149006916Y-120283500D01*
X149218116Y-120250049D01*
X149421483Y-120183972D01*
X149612009Y-120086894D01*
X149785004Y-119961206D01*
X149936206Y-119810004D01*
X150028190Y-119683399D01*
X150049682Y-119653818D01*
X150105012Y-119611152D01*
X150174625Y-119605173D01*
X150236420Y-119637779D01*
X150250318Y-119653818D01*
X150346577Y-119786307D01*
X150363794Y-119810004D01*
X150514996Y-119961206D01*
X150687991Y-120086894D01*
X150878517Y-120183972D01*
X150883253Y-120185510D01*
X150940931Y-120224943D01*
X150968134Y-120289300D01*
X150956224Y-120358147D01*
X150932624Y-120391125D01*
X147804570Y-123519181D01*
X147743247Y-123552666D01*
X147716889Y-123555500D01*
X136248009Y-123555500D01*
X136180970Y-123535815D01*
X136135215Y-123483011D01*
X136125271Y-123413853D01*
X136128230Y-123399422D01*
X136160200Y-123280111D01*
X136160200Y-122451710D01*
X136179885Y-122384671D01*
X136196514Y-122364034D01*
X138240730Y-120319817D01*
X138302053Y-120286333D01*
X138328411Y-120283499D01*
X139550537Y-120283499D01*
X139550544Y-120283499D01*
X139654426Y-120272887D01*
X139822738Y-120217115D01*
X139973652Y-120124030D01*
X140099030Y-119998652D01*
X140192115Y-119847738D01*
X140192116Y-119847733D01*
X140194262Y-119844255D01*
X140246210Y-119797530D01*
X140315172Y-119786307D01*
X140379254Y-119814150D01*
X140387482Y-119821670D01*
X140520535Y-119954723D01*
X140520540Y-119954727D01*
X140692442Y-120079620D01*
X140881782Y-120176095D01*
X141083871Y-120241757D01*
X141150000Y-120252231D01*
X141150000Y-119204145D01*
X141216657Y-119242630D01*
X141337465Y-119275000D01*
X141462535Y-119275000D01*
X141583343Y-119242630D01*
X141650000Y-119204145D01*
X141650000Y-120252230D01*
G37*
G04 #@! TD.AperFunction*
G04 #@! TA.AperFunction,Conductor*
G36*
X137634931Y-117476585D02*
G01*
X137680686Y-117529389D01*
X137690630Y-117598547D01*
X137673430Y-117645997D01*
X137607889Y-117752253D01*
X137607884Y-117752264D01*
X137552113Y-117920572D01*
X137541500Y-118024447D01*
X137541500Y-119246588D01*
X137521815Y-119313627D01*
X137505181Y-119334269D01*
X135966294Y-120873155D01*
X135904971Y-120906640D01*
X135835279Y-120901656D01*
X135779346Y-120859784D01*
X135754929Y-120794320D01*
X135756141Y-120766071D01*
X135758500Y-120751181D01*
X135758500Y-120568818D01*
X135729974Y-120388716D01*
X135695787Y-120283500D01*
X135673624Y-120215290D01*
X135673622Y-120215287D01*
X135673622Y-120215285D01*
X135629950Y-120129575D01*
X135590838Y-120052814D01*
X135483654Y-119905288D01*
X135354712Y-119776346D01*
X135207186Y-119669162D01*
X135177072Y-119653818D01*
X135044714Y-119586377D01*
X134871283Y-119530025D01*
X134760460Y-119512473D01*
X134697325Y-119482544D01*
X134660394Y-119423232D01*
X134661392Y-119353370D01*
X134700002Y-119295137D01*
X134760460Y-119267527D01*
X134871283Y-119249974D01*
X134881704Y-119246588D01*
X135044710Y-119193624D01*
X135207186Y-119110838D01*
X135354712Y-119003654D01*
X135483654Y-118874712D01*
X135590838Y-118727186D01*
X135673624Y-118564710D01*
X135729974Y-118391283D01*
X135740472Y-118325000D01*
X135758500Y-118211181D01*
X135758500Y-118028818D01*
X135729974Y-117848716D01*
X135673621Y-117675282D01*
X135654214Y-117637194D01*
X135641318Y-117568525D01*
X135667595Y-117503785D01*
X135724701Y-117463528D01*
X135764699Y-117456900D01*
X137567892Y-117456900D01*
X137634931Y-117476585D01*
G37*
G04 #@! TD.AperFunction*
G04 #@! TA.AperFunction,Conductor*
G36*
X143449551Y-88124785D02*
G01*
X143495306Y-88177589D01*
X143505250Y-88246747D01*
X143497079Y-88276540D01*
X143495243Y-88280973D01*
X143432009Y-88475586D01*
X143423391Y-88530000D01*
X144784314Y-88530000D01*
X144779920Y-88534394D01*
X144727259Y-88625606D01*
X144700000Y-88727339D01*
X144700000Y-88832661D01*
X144727259Y-88934394D01*
X144779920Y-89025606D01*
X144784314Y-89030000D01*
X143423391Y-89030000D01*
X143432009Y-89084413D01*
X143495244Y-89279029D01*
X143560145Y-89406405D01*
X143573041Y-89475075D01*
X143546765Y-89539815D01*
X143489658Y-89580072D01*
X143449660Y-89586700D01*
X143022789Y-89586700D01*
X142868027Y-89628168D01*
X142850815Y-89638106D01*
X142811520Y-89660793D01*
X142729275Y-89708277D01*
X142729269Y-89708281D01*
X140366170Y-92071381D01*
X140304847Y-92104866D01*
X140278489Y-92107700D01*
X139149560Y-92107700D01*
X139082521Y-92088015D01*
X139036766Y-92035211D01*
X139026822Y-91966053D01*
X139039075Y-91927405D01*
X139092632Y-91822294D01*
X139092633Y-91822292D01*
X139092634Y-91822290D01*
X139156280Y-91626408D01*
X139188500Y-91422981D01*
X139188500Y-91217019D01*
X139173153Y-91120121D01*
X139156280Y-91013591D01*
X139121618Y-90906915D01*
X139092634Y-90817710D01*
X139092632Y-90817707D01*
X139092632Y-90817705D01*
X139055927Y-90745669D01*
X138999129Y-90634197D01*
X138983661Y-90612908D01*
X138878073Y-90467576D01*
X138878069Y-90467571D01*
X138732428Y-90321930D01*
X138732423Y-90321926D01*
X138565806Y-90200873D01*
X138565805Y-90200872D01*
X138565803Y-90200871D01*
X138486540Y-90160484D01*
X138435745Y-90112510D01*
X138418950Y-90044689D01*
X138441487Y-89978554D01*
X138486541Y-89939515D01*
X138565803Y-89899129D01*
X138732430Y-89778068D01*
X138878068Y-89632430D01*
X138999129Y-89465803D01*
X139092634Y-89282290D01*
X139156280Y-89086408D01*
X139188500Y-88882981D01*
X139188500Y-88677019D01*
X139178995Y-88617008D01*
X139156280Y-88473591D01*
X139130651Y-88394714D01*
X139092634Y-88277710D01*
X139092631Y-88277704D01*
X139092157Y-88276559D01*
X139092106Y-88276087D01*
X139091128Y-88273077D01*
X139091760Y-88272871D01*
X139084684Y-88207090D01*
X139115955Y-88144609D01*
X139176042Y-88108954D01*
X139206715Y-88105100D01*
X143382512Y-88105100D01*
X143449551Y-88124785D01*
G37*
G04 #@! TD.AperFunction*
G04 #@! TA.AperFunction,Conductor*
G36*
X159451417Y-59228185D02*
G01*
X159494862Y-59276204D01*
X159513106Y-59312009D01*
X159638794Y-59485004D01*
X159789996Y-59636206D01*
X159892344Y-59710566D01*
X159946182Y-59749682D01*
X159988847Y-59805012D01*
X159994826Y-59874626D01*
X159962220Y-59936421D01*
X159946182Y-59950318D01*
X159877297Y-60000365D01*
X159789996Y-60063794D01*
X159789994Y-60063796D01*
X159789993Y-60063796D01*
X159638796Y-60214993D01*
X159513106Y-60387990D01*
X159416027Y-60578516D01*
X159416026Y-60578519D01*
X159349951Y-60781882D01*
X159316500Y-60993084D01*
X159316500Y-61206915D01*
X159349951Y-61418119D01*
X159401874Y-61577925D01*
X159403869Y-61647766D01*
X159367788Y-61707599D01*
X159345944Y-61723628D01*
X159274679Y-61764773D01*
X159274670Y-61764780D01*
X155678270Y-65361181D01*
X155651342Y-65375884D01*
X155625524Y-65392477D01*
X155619323Y-65393368D01*
X155616947Y-65394666D01*
X155590589Y-65397500D01*
X155431575Y-65397500D01*
X155364536Y-65377815D01*
X155318781Y-65325011D01*
X155308837Y-65255853D01*
X155313644Y-65235182D01*
X155376279Y-65042412D01*
X155376279Y-65042411D01*
X155376280Y-65042408D01*
X155408500Y-64838981D01*
X155408500Y-64633019D01*
X155385057Y-64485006D01*
X155376280Y-64429591D01*
X155312632Y-64233705D01*
X155255451Y-64121483D01*
X155219129Y-64050197D01*
X155176484Y-63991501D01*
X155098073Y-63883576D01*
X155098069Y-63883571D01*
X154952428Y-63737930D01*
X154952423Y-63737926D01*
X154785806Y-63616873D01*
X154785805Y-63616872D01*
X154785803Y-63616871D01*
X154719179Y-63582924D01*
X154668384Y-63534950D01*
X154651589Y-63467129D01*
X154674126Y-63400995D01*
X154719181Y-63361955D01*
X154825346Y-63307861D01*
X154825347Y-63307861D01*
X154869921Y-63275474D01*
X154190447Y-62596000D01*
X154196661Y-62596000D01*
X154298394Y-62568741D01*
X154389606Y-62516080D01*
X154464080Y-62441606D01*
X154516741Y-62350394D01*
X154544000Y-62248661D01*
X154544000Y-62242447D01*
X155223474Y-62921921D01*
X155255859Y-62877349D01*
X155348755Y-62695031D01*
X155411990Y-62500417D01*
X155444000Y-62298317D01*
X155444000Y-62093682D01*
X155411990Y-61891582D01*
X155348755Y-61696968D01*
X155255859Y-61514650D01*
X155223474Y-61470077D01*
X155223474Y-61470076D01*
X154544000Y-62149551D01*
X154544000Y-62143339D01*
X154516741Y-62041606D01*
X154464080Y-61950394D01*
X154389606Y-61875920D01*
X154298394Y-61823259D01*
X154196661Y-61796000D01*
X154190446Y-61796000D01*
X154869922Y-61116524D01*
X154869921Y-61116523D01*
X154825359Y-61084147D01*
X154825350Y-61084141D01*
X154643031Y-60991244D01*
X154448417Y-60928009D01*
X154246317Y-60896000D01*
X154041683Y-60896000D01*
X153839582Y-60928009D01*
X153644968Y-60991244D01*
X153462644Y-61084143D01*
X153418077Y-61116523D01*
X153418077Y-61116524D01*
X154097554Y-61796000D01*
X154091339Y-61796000D01*
X153989606Y-61823259D01*
X153898394Y-61875920D01*
X153823920Y-61950394D01*
X153771259Y-62041606D01*
X153744000Y-62143339D01*
X153744000Y-62149553D01*
X153064524Y-61470077D01*
X153064523Y-61470077D01*
X153032143Y-61514644D01*
X152939244Y-61696968D01*
X152876009Y-61891582D01*
X152844000Y-62093682D01*
X152844000Y-62298317D01*
X152876009Y-62500417D01*
X152939244Y-62695031D01*
X153032141Y-62877350D01*
X153032147Y-62877359D01*
X153064523Y-62921921D01*
X153064524Y-62921922D01*
X153744000Y-62242446D01*
X153744000Y-62248661D01*
X153771259Y-62350394D01*
X153823920Y-62441606D01*
X153898394Y-62516080D01*
X153989606Y-62568741D01*
X154091339Y-62596000D01*
X154097553Y-62596000D01*
X153418076Y-63275474D01*
X153462654Y-63307862D01*
X153524817Y-63339535D01*
X153575614Y-63387508D01*
X153592410Y-63455329D01*
X153569874Y-63521464D01*
X153524820Y-63560504D01*
X153414195Y-63616871D01*
X153247576Y-63737926D01*
X153247571Y-63737930D01*
X153101930Y-63883571D01*
X153101926Y-63883576D01*
X152980873Y-64050193D01*
X152887367Y-64233705D01*
X152823719Y-64429591D01*
X152791500Y-64633019D01*
X152791500Y-64838980D01*
X152823720Y-65042409D01*
X152823720Y-65042412D01*
X152886356Y-65235182D01*
X152888351Y-65305023D01*
X152852271Y-65364856D01*
X152789570Y-65395684D01*
X152768425Y-65397500D01*
X136785589Y-65397500D01*
X136708208Y-65418233D01*
X136708208Y-65418234D01*
X136630827Y-65438968D01*
X136630825Y-65438968D01*
X136630825Y-65438969D01*
X136492072Y-65519079D01*
X136492069Y-65519081D01*
X110152439Y-91858711D01*
X110091116Y-91892196D01*
X110021424Y-91887212D01*
X109977077Y-91858711D01*
X109954714Y-91836348D01*
X109954712Y-91836346D01*
X109807186Y-91729162D01*
X109797787Y-91724373D01*
X109644714Y-91646377D01*
X109471283Y-91590025D01*
X109360460Y-91572473D01*
X109297325Y-91542544D01*
X109260394Y-91483232D01*
X109261392Y-91413370D01*
X109300002Y-91355137D01*
X109360460Y-91327527D01*
X109471283Y-91309974D01*
X109486951Y-91304883D01*
X109644710Y-91253624D01*
X109807186Y-91170838D01*
X109954712Y-91063654D01*
X110083654Y-90934712D01*
X110190838Y-90787186D01*
X110273624Y-90624710D01*
X110329974Y-90451283D01*
X110342267Y-90373669D01*
X110358500Y-90271181D01*
X110358500Y-90088818D01*
X110329974Y-89908716D01*
X110282886Y-89763796D01*
X110273624Y-89735290D01*
X110273622Y-89735287D01*
X110273622Y-89735285D01*
X110190837Y-89572813D01*
X110083654Y-89425288D01*
X109954712Y-89296346D01*
X109807186Y-89189162D01*
X109789205Y-89180000D01*
X109644714Y-89106377D01*
X109471283Y-89050025D01*
X109360460Y-89032473D01*
X109297325Y-89002544D01*
X109260394Y-88943232D01*
X109261392Y-88873370D01*
X109300002Y-88815137D01*
X109360460Y-88787527D01*
X109471283Y-88769974D01*
X109486884Y-88764905D01*
X109644710Y-88713624D01*
X109807186Y-88630838D01*
X109954712Y-88523654D01*
X110083654Y-88394712D01*
X110154137Y-88297699D01*
X110209463Y-88255037D01*
X110224141Y-88251276D01*
X110223961Y-88250603D01*
X110231810Y-88248500D01*
X110231811Y-88248500D01*
X110341403Y-88219135D01*
X110386573Y-88207032D01*
X110525327Y-88126922D01*
X139407430Y-59244819D01*
X139468753Y-59211334D01*
X139495111Y-59208500D01*
X159384378Y-59208500D01*
X159451417Y-59228185D01*
G37*
G04 #@! TD.AperFunction*
G04 #@! TA.AperFunction,Conductor*
G36*
X147037415Y-76036539D02*
G01*
X147056927Y-76037935D01*
X147069808Y-76047578D01*
X147085038Y-76052768D01*
X147097202Y-76068085D01*
X147112860Y-76079807D01*
X147118482Y-76094881D01*
X147128490Y-76107483D01*
X147130442Y-76126946D01*
X147137277Y-76145271D01*
X147133934Y-76161766D01*
X147135463Y-76177004D01*
X147124078Y-76210411D01*
X147060041Y-76336089D01*
X147001256Y-76517008D01*
X146971500Y-76704883D01*
X146971500Y-76895116D01*
X147001256Y-77082991D01*
X147060040Y-77263907D01*
X147132441Y-77406000D01*
X147146398Y-77433392D01*
X147258208Y-77587285D01*
X147392715Y-77721792D01*
X147408830Y-77733500D01*
X147499921Y-77799682D01*
X147542586Y-77855013D01*
X147548565Y-77924626D01*
X147515959Y-77986421D01*
X147499921Y-78000318D01*
X147392713Y-78078209D01*
X147258210Y-78212712D01*
X147258210Y-78212713D01*
X147258208Y-78212715D01*
X147242225Y-78234714D01*
X147146398Y-78366607D01*
X147060040Y-78536092D01*
X147001256Y-78717008D01*
X146971500Y-78904883D01*
X146971500Y-79095116D01*
X147001256Y-79282991D01*
X147060040Y-79463907D01*
X147134765Y-79610561D01*
X147146398Y-79633392D01*
X147258208Y-79787285D01*
X147392715Y-79921792D01*
X147476982Y-79983016D01*
X147499921Y-79999682D01*
X147542586Y-80055013D01*
X147548565Y-80124626D01*
X147515959Y-80186421D01*
X147499921Y-80200318D01*
X147392713Y-80278209D01*
X147258210Y-80412712D01*
X147258210Y-80412713D01*
X147258208Y-80412715D01*
X147210189Y-80478806D01*
X147146398Y-80566607D01*
X147060040Y-80736092D01*
X147001256Y-80917008D01*
X146971500Y-81104883D01*
X146971500Y-81295116D01*
X147001256Y-81482991D01*
X147060040Y-81663907D01*
X147095858Y-81734202D01*
X147146398Y-81833392D01*
X147258208Y-81987285D01*
X147392715Y-82121792D01*
X147463007Y-82172862D01*
X147499921Y-82199682D01*
X147542586Y-82255013D01*
X147548565Y-82324626D01*
X147515959Y-82386421D01*
X147499921Y-82400318D01*
X147392713Y-82478209D01*
X147258210Y-82612712D01*
X147258210Y-82612713D01*
X147258208Y-82612715D01*
X147230261Y-82651181D01*
X147146398Y-82766607D01*
X147060040Y-82936092D01*
X147001256Y-83117008D01*
X146971500Y-83304883D01*
X146971500Y-83380300D01*
X146951815Y-83447339D01*
X146899011Y-83493094D01*
X146847500Y-83504300D01*
X142627675Y-83504300D01*
X142560636Y-83484615D01*
X142539998Y-83467985D01*
X142479135Y-83407122D01*
X142479134Y-83407121D01*
X142479133Y-83407120D01*
X142330342Y-83307701D01*
X142330332Y-83307696D01*
X142165000Y-83239213D01*
X142164992Y-83239211D01*
X141989483Y-83204300D01*
X141989479Y-83204300D01*
X141810521Y-83204300D01*
X141810516Y-83204300D01*
X141635007Y-83239211D01*
X141634999Y-83239213D01*
X141469667Y-83307696D01*
X141469657Y-83307701D01*
X141320865Y-83407121D01*
X141320861Y-83407124D01*
X141194324Y-83533661D01*
X141194321Y-83533665D01*
X141094901Y-83682457D01*
X141094896Y-83682467D01*
X141026413Y-83847799D01*
X141026411Y-83847807D01*
X140991500Y-84023316D01*
X140991500Y-84202283D01*
X141026411Y-84377792D01*
X141026413Y-84377800D01*
X141094896Y-84543132D01*
X141094901Y-84543142D01*
X141194321Y-84691934D01*
X141194324Y-84691938D01*
X141320861Y-84818475D01*
X141320865Y-84818478D01*
X141469657Y-84917898D01*
X141469661Y-84917900D01*
X141469664Y-84917902D01*
X141635000Y-84986387D01*
X141810516Y-85021299D01*
X141810520Y-85021300D01*
X141810521Y-85021300D01*
X141989480Y-85021300D01*
X141989481Y-85021299D01*
X142165000Y-84986387D01*
X142330336Y-84917902D01*
X142479135Y-84818478D01*
X142539995Y-84757617D01*
X142601316Y-84724134D01*
X142627675Y-84721300D01*
X144356777Y-84721300D01*
X144423816Y-84740985D01*
X144469571Y-84793789D01*
X144479515Y-84862947D01*
X144450490Y-84926503D01*
X144395096Y-84963231D01*
X144197705Y-85027367D01*
X144014193Y-85120873D01*
X143847576Y-85241926D01*
X143847571Y-85241930D01*
X143769321Y-85320181D01*
X143707998Y-85353666D01*
X143681640Y-85356500D01*
X139184683Y-85356500D01*
X139117644Y-85336815D01*
X139079146Y-85297600D01*
X139029030Y-85216348D01*
X138903652Y-85090970D01*
X138777749Y-85013312D01*
X138752740Y-84997886D01*
X138752735Y-84997884D01*
X138584427Y-84942113D01*
X138480545Y-84931500D01*
X136479462Y-84931500D01*
X136479446Y-84931501D01*
X136375572Y-84942113D01*
X136207264Y-84997884D01*
X136207259Y-84997886D01*
X136056346Y-85090971D01*
X135970181Y-85177137D01*
X135908858Y-85210622D01*
X135839166Y-85205638D01*
X135783233Y-85163766D01*
X135758816Y-85098302D01*
X135758500Y-85089456D01*
X135758500Y-85008818D01*
X135729974Y-84828716D01*
X135695072Y-84721300D01*
X135673624Y-84655290D01*
X135673622Y-84655287D01*
X135673622Y-84655285D01*
X135629950Y-84569575D01*
X135590838Y-84492814D01*
X135513512Y-84386384D01*
X135490033Y-84320579D01*
X135505858Y-84252525D01*
X135555964Y-84203830D01*
X135613831Y-84189500D01*
X137260809Y-84189500D01*
X137260810Y-84189500D01*
X137260811Y-84189500D01*
X137338191Y-84168766D01*
X137415573Y-84148032D01*
X137554327Y-84067922D01*
X139200533Y-82421715D01*
X139261852Y-82388233D01*
X139331543Y-82393217D01*
X139387477Y-82435088D01*
X139398695Y-82453104D01*
X139488141Y-82628650D01*
X139488147Y-82628659D01*
X139520523Y-82673221D01*
X139520524Y-82673222D01*
X140200000Y-81993746D01*
X140200000Y-81999961D01*
X140227259Y-82101694D01*
X140279920Y-82192906D01*
X140354394Y-82267380D01*
X140445606Y-82320041D01*
X140547339Y-82347300D01*
X140553553Y-82347300D01*
X139874076Y-83026774D01*
X139918650Y-83059159D01*
X140100968Y-83152055D01*
X140295582Y-83215290D01*
X140497683Y-83247300D01*
X140702317Y-83247300D01*
X140904417Y-83215290D01*
X141099031Y-83152055D01*
X141281349Y-83059159D01*
X141325921Y-83026774D01*
X140646447Y-82347300D01*
X140652661Y-82347300D01*
X140754394Y-82320041D01*
X140845606Y-82267380D01*
X140920080Y-82192906D01*
X140972741Y-82101694D01*
X141000000Y-81999961D01*
X141000000Y-81993747D01*
X141679474Y-82673221D01*
X141711859Y-82628649D01*
X141804755Y-82446331D01*
X141867990Y-82251717D01*
X141900000Y-82049617D01*
X141900000Y-81844982D01*
X141867990Y-81642882D01*
X141804755Y-81448268D01*
X141711859Y-81265950D01*
X141690580Y-81236662D01*
X141679723Y-81206235D01*
X141667534Y-81176324D01*
X141668054Y-81173531D01*
X141667100Y-81170856D01*
X141674415Y-81139397D01*
X141680334Y-81107636D01*
X141682281Y-81105567D01*
X141682925Y-81102802D01*
X141706080Y-81080298D01*
X141728237Y-81056773D01*
X141731405Y-81055686D01*
X141733031Y-81054107D01*
X141760922Y-81043454D01*
X141774384Y-81040100D01*
X141780310Y-81040100D01*
X141780311Y-81040100D01*
X141857691Y-81019366D01*
X141935073Y-80998632D01*
X142073827Y-80918522D01*
X146925914Y-76066434D01*
X146940032Y-76058725D01*
X146951082Y-76047026D01*
X146970069Y-76042323D01*
X146987235Y-76032951D01*
X147003284Y-76034098D01*
X147018903Y-76030231D01*
X147037415Y-76036539D01*
G37*
G04 #@! TD.AperFunction*
G04 #@! TA.AperFunction,Conductor*
G36*
X163004043Y-36025765D02*
G01*
X163249632Y-36041861D01*
X163265690Y-36043976D01*
X163469394Y-36084495D01*
X163503064Y-36091193D01*
X163518731Y-36095391D01*
X163687510Y-36152683D01*
X163747913Y-36173188D01*
X163762890Y-36179391D01*
X163970539Y-36281792D01*
X163979960Y-36286438D01*
X163994007Y-36294548D01*
X164033528Y-36320955D01*
X164195245Y-36429011D01*
X164208106Y-36438879D01*
X164291582Y-36512086D01*
X164390071Y-36598459D01*
X164401540Y-36609928D01*
X164561117Y-36791890D01*
X164570991Y-36804758D01*
X164705451Y-37005992D01*
X164713561Y-37020039D01*
X164820605Y-37237102D01*
X164826812Y-37252088D01*
X164904608Y-37481268D01*
X164908806Y-37496935D01*
X164956021Y-37734298D01*
X164958139Y-37750379D01*
X164974235Y-37995955D01*
X164974500Y-38004065D01*
X164974500Y-126195933D01*
X164974235Y-126204043D01*
X164958139Y-126449620D01*
X164956021Y-126465701D01*
X164908806Y-126703064D01*
X164904608Y-126718731D01*
X164826812Y-126947911D01*
X164820605Y-126962897D01*
X164713561Y-127179960D01*
X164705451Y-127194007D01*
X164570991Y-127395241D01*
X164561117Y-127408109D01*
X164401540Y-127590071D01*
X164390071Y-127601540D01*
X164208109Y-127761117D01*
X164195241Y-127770991D01*
X163994007Y-127905451D01*
X163979960Y-127913561D01*
X163762897Y-128020605D01*
X163747911Y-128026812D01*
X163518731Y-128104608D01*
X163503064Y-128108806D01*
X163265701Y-128156021D01*
X163249620Y-128158139D01*
X163004043Y-128174235D01*
X162995933Y-128174500D01*
X103746141Y-128174500D01*
X103679102Y-128154815D01*
X103633347Y-128102011D01*
X103623403Y-128032853D01*
X103652428Y-127969297D01*
X103711206Y-127931523D01*
X103721950Y-127928883D01*
X103900090Y-127893449D01*
X103900101Y-127893446D01*
X104247997Y-127787913D01*
X104583864Y-127648792D01*
X104583869Y-127648790D01*
X104904462Y-127477429D01*
X104904480Y-127477418D01*
X105206736Y-127275457D01*
X105206750Y-127275447D01*
X105434765Y-127088320D01*
X105434766Y-127088319D01*
X105373633Y-127027186D01*
X103940698Y-125594251D01*
X104042330Y-125520412D01*
X104220412Y-125342330D01*
X104294251Y-125240698D01*
X105788319Y-126734766D01*
X105788320Y-126734765D01*
X105975447Y-126506750D01*
X105975457Y-126506736D01*
X106177418Y-126204480D01*
X106177429Y-126204462D01*
X106348790Y-125883869D01*
X106348792Y-125883864D01*
X106487913Y-125547997D01*
X106593446Y-125200101D01*
X106593449Y-125200090D01*
X106664367Y-124843556D01*
X106700000Y-124481765D01*
X106700000Y-124118234D01*
X106664367Y-123756443D01*
X106593449Y-123399909D01*
X106593446Y-123399898D01*
X106487913Y-123052002D01*
X106348792Y-122716135D01*
X106348790Y-122716130D01*
X106177429Y-122395537D01*
X106177418Y-122395519D01*
X105975448Y-122093249D01*
X105788320Y-121865233D01*
X105788319Y-121865232D01*
X104294251Y-123359300D01*
X104220412Y-123257670D01*
X104042330Y-123079588D01*
X103940698Y-123005748D01*
X105434766Y-121511679D01*
X105434765Y-121511678D01*
X105206750Y-121324551D01*
X104904480Y-121122581D01*
X104904462Y-121122570D01*
X104583869Y-120951209D01*
X104583864Y-120951207D01*
X104247997Y-120812086D01*
X103900101Y-120706553D01*
X103900090Y-120706550D01*
X103543556Y-120635632D01*
X103181766Y-120600000D01*
X102818234Y-120600000D01*
X102456443Y-120635632D01*
X102099909Y-120706550D01*
X102099898Y-120706553D01*
X101752002Y-120812086D01*
X101416135Y-120951207D01*
X101416130Y-120951209D01*
X101095537Y-121122570D01*
X101095519Y-121122581D01*
X100793258Y-121324545D01*
X100793254Y-121324548D01*
X100565233Y-121511679D01*
X100565233Y-121511680D01*
X102059301Y-123005748D01*
X101957670Y-123079588D01*
X101779588Y-123257670D01*
X101705748Y-123359301D01*
X100211680Y-121865233D01*
X100211679Y-121865233D01*
X100024548Y-122093254D01*
X100024545Y-122093258D01*
X99822581Y-122395519D01*
X99822570Y-122395537D01*
X99651209Y-122716130D01*
X99651207Y-122716135D01*
X99512086Y-123052002D01*
X99406553Y-123399898D01*
X99406550Y-123399909D01*
X99335632Y-123756443D01*
X99300000Y-124118234D01*
X99300000Y-124481765D01*
X99335632Y-124843556D01*
X99406550Y-125200090D01*
X99406553Y-125200101D01*
X99512086Y-125547997D01*
X99651207Y-125883864D01*
X99651209Y-125883869D01*
X99822570Y-126204462D01*
X99822581Y-126204480D01*
X100024551Y-126506750D01*
X100211678Y-126734765D01*
X100211679Y-126734766D01*
X101705747Y-125240697D01*
X101779588Y-125342330D01*
X101957670Y-125520412D01*
X102059301Y-125594251D01*
X100565232Y-127088319D01*
X100565233Y-127088320D01*
X100793249Y-127275448D01*
X101095519Y-127477418D01*
X101095537Y-127477429D01*
X101416130Y-127648790D01*
X101416135Y-127648792D01*
X101752002Y-127787913D01*
X102099898Y-127893446D01*
X102099909Y-127893449D01*
X102278050Y-127928883D01*
X102339961Y-127961268D01*
X102374535Y-128021983D01*
X102370796Y-128091753D01*
X102329930Y-128148425D01*
X102264912Y-128174006D01*
X102253859Y-128174500D01*
X101004067Y-128174500D01*
X100995957Y-128174235D01*
X100750379Y-128158139D01*
X100734298Y-128156021D01*
X100496935Y-128108806D01*
X100481268Y-128104608D01*
X100252088Y-128026812D01*
X100237102Y-128020605D01*
X100236917Y-128020514D01*
X100133060Y-127969297D01*
X100020039Y-127913561D01*
X100005992Y-127905451D01*
X99804758Y-127770991D01*
X99791890Y-127761117D01*
X99609928Y-127601540D01*
X99598459Y-127590071D01*
X99438882Y-127408109D01*
X99429008Y-127395241D01*
X99417106Y-127377429D01*
X99294548Y-127194007D01*
X99286438Y-127179960D01*
X99211098Y-127027186D01*
X99179391Y-126962890D01*
X99173187Y-126947911D01*
X99095391Y-126718731D01*
X99091193Y-126703064D01*
X99069897Y-126596003D01*
X99043976Y-126465690D01*
X99041861Y-126449632D01*
X99025765Y-126204043D01*
X99025500Y-126195933D01*
X99025500Y-110868362D01*
X99991500Y-110868362D01*
X99991500Y-111131637D01*
X99991501Y-111131653D01*
X100025865Y-111392678D01*
X100094009Y-111646995D01*
X100194761Y-111890234D01*
X100194769Y-111890250D01*
X100326409Y-112118256D01*
X100486687Y-112327136D01*
X100486693Y-112327143D01*
X100672856Y-112513306D01*
X100672863Y-112513312D01*
X100881743Y-112673590D01*
X101109749Y-112805230D01*
X101109765Y-112805238D01*
X101261451Y-112868068D01*
X101353003Y-112905990D01*
X101607320Y-112974134D01*
X101868356Y-113008500D01*
X101868363Y-113008500D01*
X102131637Y-113008500D01*
X102131644Y-113008500D01*
X102392680Y-112974134D01*
X102646997Y-112905990D01*
X102858820Y-112818250D01*
X102890234Y-112805238D01*
X102890237Y-112805236D01*
X102890243Y-112805234D01*
X103118257Y-112673590D01*
X103327138Y-112513311D01*
X103513311Y-112327138D01*
X103673590Y-112118257D01*
X103805234Y-111890243D01*
X103808856Y-111881500D01*
X103865545Y-111744639D01*
X103905990Y-111646997D01*
X103974134Y-111392680D01*
X104008500Y-111131644D01*
X104008500Y-110868356D01*
X103974134Y-110607320D01*
X103905990Y-110353003D01*
X103852969Y-110225000D01*
X103805238Y-110109765D01*
X103805230Y-110109749D01*
X103673590Y-109881743D01*
X103513312Y-109672863D01*
X103513306Y-109672856D01*
X103327143Y-109486693D01*
X103327136Y-109486687D01*
X103118256Y-109326409D01*
X102890250Y-109194769D01*
X102890234Y-109194761D01*
X102646995Y-109094009D01*
X102392678Y-109025865D01*
X102131653Y-108991501D01*
X102131650Y-108991500D01*
X102131644Y-108991500D01*
X101868356Y-108991500D01*
X101868350Y-108991500D01*
X101868346Y-108991501D01*
X101607321Y-109025865D01*
X101353004Y-109094009D01*
X101109765Y-109194761D01*
X101109749Y-109194769D01*
X100881743Y-109326409D01*
X100672863Y-109486687D01*
X100672856Y-109486693D01*
X100486693Y-109672856D01*
X100486687Y-109672863D01*
X100326409Y-109881743D01*
X100194769Y-110109749D01*
X100194761Y-110109765D01*
X100094009Y-110353004D01*
X100025865Y-110607321D01*
X99991501Y-110868346D01*
X99991500Y-110868362D01*
X99025500Y-110868362D01*
X99025500Y-105868362D01*
X99991500Y-105868362D01*
X99991500Y-106131637D01*
X99991501Y-106131653D01*
X100025865Y-106392678D01*
X100094009Y-106646995D01*
X100194761Y-106890234D01*
X100194769Y-106890250D01*
X100326409Y-107118256D01*
X100486687Y-107327136D01*
X100486693Y-107327143D01*
X100672856Y-107513306D01*
X100672863Y-107513312D01*
X100881743Y-107673590D01*
X101109749Y-107805230D01*
X101109765Y-107805238D01*
X101261451Y-107868068D01*
X101353003Y-107905990D01*
X101607320Y-107974134D01*
X101868356Y-108008500D01*
X101868363Y-108008500D01*
X102131637Y-108008500D01*
X102131644Y-108008500D01*
X102392680Y-107974134D01*
X102646997Y-107905990D01*
X102838142Y-107826815D01*
X102890234Y-107805238D01*
X102890237Y-107805236D01*
X102890243Y-107805234D01*
X103118257Y-107673590D01*
X103327138Y-107513311D01*
X103513311Y-107327138D01*
X103673590Y-107118257D01*
X103805234Y-106890243D01*
X103806836Y-106886377D01*
X103874412Y-106723232D01*
X103905990Y-106646997D01*
X103974134Y-106392680D01*
X104008500Y-106131644D01*
X104008500Y-105868356D01*
X103974134Y-105607320D01*
X103905990Y-105353003D01*
X103850214Y-105218347D01*
X103805238Y-105109765D01*
X103805230Y-105109749D01*
X103673590Y-104881743D01*
X103513312Y-104672863D01*
X103513306Y-104672856D01*
X103327143Y-104486693D01*
X103327136Y-104486687D01*
X103118256Y-104326409D01*
X102890250Y-104194769D01*
X102890234Y-104194761D01*
X102646995Y-104094009D01*
X102392678Y-104025865D01*
X102131653Y-103991501D01*
X102131650Y-103991500D01*
X102131644Y-103991500D01*
X101868356Y-103991500D01*
X101868350Y-103991500D01*
X101868346Y-103991501D01*
X101607321Y-104025865D01*
X101353004Y-104094009D01*
X101109765Y-104194761D01*
X101109749Y-104194769D01*
X100881743Y-104326409D01*
X100672863Y-104486687D01*
X100672856Y-104486693D01*
X100486693Y-104672856D01*
X100486687Y-104672863D01*
X100326409Y-104881743D01*
X100194769Y-105109749D01*
X100194761Y-105109765D01*
X100094009Y-105353004D01*
X100025865Y-105607321D01*
X99991501Y-105868346D01*
X99991500Y-105868362D01*
X99025500Y-105868362D01*
X99025500Y-98368362D01*
X99991500Y-98368362D01*
X99991500Y-98631637D01*
X99991501Y-98631653D01*
X100025865Y-98892678D01*
X100094009Y-99146995D01*
X100194761Y-99390234D01*
X100194769Y-99390250D01*
X100326409Y-99618256D01*
X100486687Y-99827136D01*
X100486693Y-99827143D01*
X100672856Y-100013306D01*
X100672863Y-100013312D01*
X100881743Y-100173590D01*
X101109749Y-100305230D01*
X101109765Y-100305238D01*
X101261451Y-100368068D01*
X101353003Y-100405990D01*
X101607320Y-100474134D01*
X101868356Y-100508500D01*
X101868363Y-100508500D01*
X102131637Y-100508500D01*
X102131644Y-100508500D01*
X102392680Y-100474134D01*
X102646997Y-100405990D01*
X102830099Y-100330146D01*
X102890234Y-100305238D01*
X102890237Y-100305236D01*
X102890243Y-100305234D01*
X103118257Y-100173590D01*
X103327138Y-100013311D01*
X103513311Y-99827138D01*
X103673590Y-99618257D01*
X103805234Y-99390243D01*
X103905990Y-99146997D01*
X103974134Y-98892680D01*
X104008500Y-98631644D01*
X104008500Y-98368356D01*
X103974134Y-98107320D01*
X103905990Y-97853003D01*
X103846269Y-97708824D01*
X103805238Y-97609765D01*
X103805230Y-97609749D01*
X103673590Y-97381743D01*
X103513312Y-97172863D01*
X103513306Y-97172856D01*
X103327143Y-96986693D01*
X103327136Y-96986687D01*
X103118256Y-96826409D01*
X102890250Y-96694769D01*
X102890234Y-96694761D01*
X102646995Y-96594009D01*
X102392678Y-96525865D01*
X102131653Y-96491501D01*
X102131650Y-96491500D01*
X102131644Y-96491500D01*
X101868356Y-96491500D01*
X101868350Y-96491500D01*
X101868346Y-96491501D01*
X101607321Y-96525865D01*
X101353004Y-96594009D01*
X101109765Y-96694761D01*
X101109749Y-96694769D01*
X100881743Y-96826409D01*
X100672863Y-96986687D01*
X100672856Y-96986693D01*
X100486693Y-97172856D01*
X100486687Y-97172863D01*
X100326409Y-97381743D01*
X100194769Y-97609749D01*
X100194761Y-97609765D01*
X100094009Y-97853004D01*
X100025865Y-98107321D01*
X99991501Y-98368346D01*
X99991500Y-98368362D01*
X99025500Y-98368362D01*
X99025500Y-93368362D01*
X99991500Y-93368362D01*
X99991500Y-93631637D01*
X99991501Y-93631653D01*
X100025865Y-93892678D01*
X100094009Y-94146995D01*
X100194761Y-94390234D01*
X100194769Y-94390250D01*
X100326409Y-94618256D01*
X100486687Y-94827136D01*
X100486693Y-94827143D01*
X100672856Y-95013306D01*
X100672863Y-95013312D01*
X100881743Y-95173590D01*
X101109749Y-95305230D01*
X101109765Y-95305238D01*
X101235624Y-95357370D01*
X101353003Y-95405990D01*
X101607320Y-95474134D01*
X101868356Y-95508500D01*
X101868363Y-95508500D01*
X102131637Y-95508500D01*
X102131644Y-95508500D01*
X102392680Y-95474134D01*
X102646997Y-95405990D01*
X102842524Y-95325000D01*
X102890234Y-95305238D01*
X102890237Y-95305236D01*
X102890243Y-95305234D01*
X103118257Y-95173590D01*
X103327138Y-95013311D01*
X103513311Y-94827138D01*
X103673590Y-94618257D01*
X103797396Y-94403819D01*
X103805230Y-94390250D01*
X103805238Y-94390234D01*
X103855387Y-94269162D01*
X103905990Y-94146997D01*
X103974134Y-93892680D01*
X104008500Y-93631644D01*
X104008500Y-93368356D01*
X103974134Y-93107320D01*
X103905990Y-92853003D01*
X103854417Y-92728494D01*
X103805238Y-92609765D01*
X103805230Y-92609749D01*
X103673590Y-92381743D01*
X103513312Y-92172863D01*
X103513306Y-92172856D01*
X103327143Y-91986693D01*
X103327136Y-91986687D01*
X103118256Y-91826409D01*
X102890250Y-91694769D01*
X102890234Y-91694761D01*
X102646995Y-91594009D01*
X102392678Y-91525865D01*
X102131653Y-91491501D01*
X102131650Y-91491500D01*
X102131644Y-91491500D01*
X101868356Y-91491500D01*
X101868350Y-91491500D01*
X101868346Y-91491501D01*
X101607321Y-91525865D01*
X101353004Y-91594009D01*
X101109765Y-91694761D01*
X101109749Y-91694769D01*
X100881743Y-91826409D01*
X100672863Y-91986687D01*
X100672856Y-91986693D01*
X100486693Y-92172856D01*
X100486687Y-92172863D01*
X100326409Y-92381743D01*
X100194769Y-92609749D01*
X100194761Y-92609765D01*
X100094009Y-92853004D01*
X100025865Y-93107321D01*
X99991501Y-93368346D01*
X99991500Y-93368362D01*
X99025500Y-93368362D01*
X99025500Y-88368362D01*
X99991500Y-88368362D01*
X99991500Y-88631637D01*
X99991501Y-88631653D01*
X100025865Y-88892678D01*
X100094009Y-89146995D01*
X100194761Y-89390234D01*
X100194769Y-89390250D01*
X100326409Y-89618256D01*
X100486687Y-89827136D01*
X100486693Y-89827143D01*
X100672856Y-90013306D01*
X100672863Y-90013312D01*
X100881743Y-90173590D01*
X101109749Y-90305230D01*
X101109765Y-90305238D01*
X101261451Y-90368068D01*
X101353003Y-90405990D01*
X101607320Y-90474134D01*
X101868356Y-90508500D01*
X101868363Y-90508500D01*
X102131637Y-90508500D01*
X102131644Y-90508500D01*
X102392680Y-90474134D01*
X102646997Y-90405990D01*
X102849931Y-90321932D01*
X102890234Y-90305238D01*
X102890237Y-90305236D01*
X102890243Y-90305234D01*
X103118257Y-90173590D01*
X103327138Y-90013311D01*
X103513311Y-89827138D01*
X103673590Y-89618257D01*
X103805234Y-89390243D01*
X103816145Y-89363903D01*
X103849948Y-89282294D01*
X103905990Y-89146997D01*
X103974134Y-88892680D01*
X104008500Y-88631644D01*
X104008500Y-88368356D01*
X103974134Y-88107320D01*
X103922503Y-87914630D01*
X103924166Y-87844784D01*
X103954595Y-87794861D01*
X106322559Y-85426898D01*
X106419248Y-85282195D01*
X106485848Y-85121408D01*
X106519800Y-84950717D01*
X106519800Y-84776683D01*
X106519800Y-78081018D01*
X106539485Y-78013979D01*
X106556110Y-77993346D01*
X106709326Y-77840130D01*
X106770645Y-77806648D01*
X106840336Y-77811632D01*
X106896270Y-77853503D01*
X106914933Y-77889494D01*
X106926375Y-77924710D01*
X106969068Y-78008498D01*
X107009162Y-78087186D01*
X107116346Y-78234712D01*
X107245288Y-78363654D01*
X107392814Y-78470838D01*
X107469575Y-78509950D01*
X107555285Y-78553622D01*
X107555287Y-78553622D01*
X107555290Y-78553624D01*
X107648250Y-78583828D01*
X107728716Y-78609974D01*
X107839539Y-78627527D01*
X107902674Y-78657456D01*
X107939605Y-78716768D01*
X107938607Y-78786631D01*
X107899997Y-78844863D01*
X107839539Y-78872473D01*
X107728716Y-78890025D01*
X107555285Y-78946377D01*
X107392813Y-79029162D01*
X107308644Y-79090314D01*
X107245288Y-79136346D01*
X107245286Y-79136348D01*
X107245285Y-79136348D01*
X107116348Y-79265285D01*
X107116348Y-79265286D01*
X107116346Y-79265288D01*
X107093416Y-79296849D01*
X107009162Y-79412813D01*
X106926377Y-79575285D01*
X106870025Y-79748716D01*
X106841500Y-79928818D01*
X106841500Y-80111181D01*
X106870025Y-80291283D01*
X106926377Y-80464714D01*
X106990979Y-80591500D01*
X107009162Y-80627186D01*
X107116346Y-80774712D01*
X107245288Y-80903654D01*
X107392814Y-81010838D01*
X107450244Y-81040100D01*
X107555285Y-81093622D01*
X107555287Y-81093622D01*
X107555290Y-81093624D01*
X107648250Y-81123828D01*
X107728716Y-81149974D01*
X107839539Y-81167527D01*
X107902674Y-81197456D01*
X107939605Y-81256768D01*
X107938607Y-81326631D01*
X107899997Y-81384863D01*
X107839539Y-81412473D01*
X107728716Y-81430025D01*
X107555285Y-81486377D01*
X107392813Y-81569162D01*
X107312904Y-81627220D01*
X107245288Y-81676346D01*
X107245286Y-81676348D01*
X107245285Y-81676348D01*
X107116348Y-81805285D01*
X107116348Y-81805286D01*
X107116346Y-81805288D01*
X107070314Y-81868644D01*
X107009162Y-81952813D01*
X106926377Y-82115285D01*
X106870025Y-82288716D01*
X106841500Y-82468818D01*
X106841500Y-82651181D01*
X106870025Y-82831283D01*
X106926377Y-83004714D01*
X107000405Y-83150000D01*
X107009162Y-83167186D01*
X107116346Y-83314712D01*
X107245288Y-83443654D01*
X107392814Y-83550838D01*
X107469575Y-83589950D01*
X107555285Y-83633622D01*
X107555287Y-83633622D01*
X107555290Y-83633624D01*
X107648250Y-83663828D01*
X107728716Y-83689974D01*
X107839539Y-83707527D01*
X107902674Y-83737456D01*
X107939605Y-83796768D01*
X107938607Y-83866631D01*
X107899997Y-83924863D01*
X107839539Y-83952473D01*
X107728716Y-83970025D01*
X107555285Y-84026377D01*
X107392813Y-84109162D01*
X107339314Y-84148032D01*
X107245288Y-84216346D01*
X107245286Y-84216348D01*
X107245285Y-84216348D01*
X107116348Y-84345285D01*
X107116348Y-84345286D01*
X107116346Y-84345288D01*
X107092725Y-84377800D01*
X107009162Y-84492813D01*
X106926377Y-84655285D01*
X106870025Y-84828716D01*
X106841500Y-85008818D01*
X106841500Y-85191181D01*
X106870025Y-85371283D01*
X106926377Y-85544714D01*
X106974651Y-85639455D01*
X107009162Y-85707186D01*
X107116346Y-85854712D01*
X107245288Y-85983654D01*
X107392814Y-86090838D01*
X107469575Y-86129950D01*
X107555285Y-86173622D01*
X107555287Y-86173622D01*
X107555290Y-86173624D01*
X107648250Y-86203828D01*
X107728716Y-86229974D01*
X107839539Y-86247527D01*
X107902674Y-86277456D01*
X107939605Y-86336768D01*
X107938607Y-86406631D01*
X107899997Y-86464863D01*
X107839539Y-86492473D01*
X107728716Y-86510025D01*
X107555285Y-86566377D01*
X107392813Y-86649162D01*
X107330041Y-86694769D01*
X107245288Y-86756346D01*
X107245286Y-86756348D01*
X107245285Y-86756348D01*
X107116348Y-86885285D01*
X107116348Y-86885286D01*
X107116346Y-86885288D01*
X107099239Y-86908834D01*
X107009162Y-87032813D01*
X106926377Y-87195285D01*
X106870025Y-87368716D01*
X106841500Y-87548818D01*
X106841500Y-87731181D01*
X106870025Y-87911283D01*
X106926377Y-88084714D01*
X106973700Y-88177589D01*
X107009162Y-88247186D01*
X107116346Y-88394712D01*
X107245288Y-88523654D01*
X107392814Y-88630838D01*
X107394414Y-88631653D01*
X107555285Y-88713622D01*
X107555287Y-88713622D01*
X107555290Y-88713624D01*
X107648250Y-88743828D01*
X107728716Y-88769974D01*
X107839539Y-88787527D01*
X107902674Y-88817456D01*
X107939605Y-88876768D01*
X107938607Y-88946631D01*
X107899997Y-89004863D01*
X107839539Y-89032473D01*
X107728716Y-89050025D01*
X107555285Y-89106377D01*
X107392813Y-89189162D01*
X107341907Y-89226148D01*
X107245288Y-89296346D01*
X107245286Y-89296348D01*
X107245285Y-89296348D01*
X107116348Y-89425285D01*
X107116348Y-89425286D01*
X107116346Y-89425288D01*
X107101986Y-89445053D01*
X107009162Y-89572813D01*
X106926377Y-89735285D01*
X106870025Y-89908716D01*
X106841500Y-90088818D01*
X106841500Y-90271181D01*
X106870025Y-90451283D01*
X106926377Y-90624714D01*
X106961214Y-90693084D01*
X107009162Y-90787186D01*
X107116346Y-90934712D01*
X107245288Y-91063654D01*
X107392814Y-91170838D01*
X107420795Y-91185095D01*
X107555285Y-91253622D01*
X107555287Y-91253622D01*
X107555290Y-91253624D01*
X107648250Y-91283828D01*
X107728716Y-91309974D01*
X107839539Y-91327527D01*
X107902674Y-91357456D01*
X107939605Y-91416768D01*
X107938607Y-91486631D01*
X107899997Y-91544863D01*
X107839539Y-91572473D01*
X107728716Y-91590025D01*
X107555285Y-91646377D01*
X107392813Y-91729162D01*
X107322742Y-91780072D01*
X107245288Y-91836346D01*
X107245286Y-91836348D01*
X107245285Y-91836348D01*
X107116348Y-91965285D01*
X107116348Y-91965286D01*
X107116346Y-91965288D01*
X107087485Y-92005012D01*
X107009162Y-92112813D01*
X106926377Y-92275285D01*
X106870025Y-92448716D01*
X106841500Y-92628818D01*
X106841500Y-92811181D01*
X106870025Y-92991283D01*
X106926377Y-93164714D01*
X106988701Y-93287030D01*
X107009162Y-93327186D01*
X107116346Y-93474712D01*
X107245288Y-93603654D01*
X107392814Y-93710838D01*
X107417121Y-93723223D01*
X107555285Y-93793622D01*
X107555287Y-93793622D01*
X107555290Y-93793624D01*
X107592001Y-93805552D01*
X107728716Y-93849974D01*
X107839539Y-93867527D01*
X107902674Y-93897456D01*
X107939605Y-93956768D01*
X107938607Y-94026631D01*
X107899997Y-94084863D01*
X107839539Y-94112473D01*
X107728716Y-94130025D01*
X107555285Y-94186377D01*
X107392813Y-94269162D01*
X107318328Y-94323279D01*
X107245288Y-94376346D01*
X107245286Y-94376348D01*
X107245285Y-94376348D01*
X107116348Y-94505285D01*
X107116348Y-94505286D01*
X107116346Y-94505288D01*
X107094880Y-94534834D01*
X107009162Y-94652813D01*
X106926377Y-94815285D01*
X106870025Y-94988716D01*
X106841500Y-95168818D01*
X106841500Y-95351181D01*
X106870025Y-95531283D01*
X106926377Y-95704714D01*
X107004091Y-95857233D01*
X107009162Y-95867186D01*
X107116346Y-96014712D01*
X107245288Y-96143654D01*
X107392814Y-96250838D01*
X107469575Y-96289950D01*
X107555285Y-96333622D01*
X107555287Y-96333622D01*
X107555290Y-96333624D01*
X107617761Y-96353922D01*
X107728716Y-96389974D01*
X107839539Y-96407527D01*
X107902674Y-96437456D01*
X107939605Y-96496768D01*
X107938607Y-96566631D01*
X107899997Y-96624863D01*
X107839539Y-96652473D01*
X107728716Y-96670025D01*
X107555285Y-96726377D01*
X107392813Y-96809162D01*
X107317464Y-96863907D01*
X107245288Y-96916346D01*
X107245286Y-96916348D01*
X107245285Y-96916348D01*
X107116348Y-97045285D01*
X107116348Y-97045286D01*
X107116346Y-97045288D01*
X107087960Y-97084358D01*
X107009162Y-97192813D01*
X106926377Y-97355285D01*
X106870025Y-97528716D01*
X106841500Y-97708818D01*
X106841500Y-97891181D01*
X106870025Y-98071283D01*
X106926377Y-98244714D01*
X106954657Y-98300215D01*
X107009162Y-98407186D01*
X107116346Y-98554712D01*
X107245288Y-98683654D01*
X107245294Y-98683658D01*
X107248628Y-98686506D01*
X107286819Y-98745015D01*
X107287315Y-98814883D01*
X107255774Y-98868475D01*
X106561380Y-99562870D01*
X106561376Y-99562876D01*
X106481267Y-99701628D01*
X106481266Y-99701629D01*
X106462153Y-99772966D01*
X106462153Y-99772968D01*
X106439800Y-99856389D01*
X106439800Y-102799889D01*
X106439800Y-102960111D01*
X106456364Y-103021930D01*
X106481269Y-103114874D01*
X106481269Y-103114875D01*
X106561376Y-103253624D01*
X106561378Y-103253626D01*
X106561379Y-103253628D01*
X106674672Y-103366921D01*
X106813428Y-103447032D01*
X106968189Y-103488500D01*
X106968191Y-103488500D01*
X106976039Y-103490603D01*
X106975228Y-103493629D01*
X107025584Y-103515877D01*
X107045864Y-103537702D01*
X107116346Y-103634712D01*
X107245288Y-103763654D01*
X107392814Y-103870838D01*
X107419861Y-103884619D01*
X107555285Y-103953622D01*
X107555287Y-103953622D01*
X107555290Y-103953624D01*
X107640400Y-103981278D01*
X107728716Y-104009974D01*
X107839539Y-104027527D01*
X107902674Y-104057456D01*
X107939605Y-104116768D01*
X107938607Y-104186631D01*
X107899997Y-104244863D01*
X107839539Y-104272473D01*
X107728716Y-104290025D01*
X107555285Y-104346377D01*
X107392813Y-104429162D01*
X107330238Y-104474626D01*
X107245288Y-104536346D01*
X107245286Y-104536348D01*
X107245285Y-104536348D01*
X107116348Y-104665285D01*
X107116348Y-104665286D01*
X107116346Y-104665288D01*
X107089504Y-104702233D01*
X107009162Y-104812813D01*
X106926377Y-104975285D01*
X106870025Y-105148716D01*
X106841500Y-105328818D01*
X106841500Y-105511181D01*
X106870025Y-105691283D01*
X106926377Y-105864714D01*
X106994716Y-105998835D01*
X107009162Y-106027186D01*
X107116346Y-106174712D01*
X107245288Y-106303654D01*
X107392814Y-106410838D01*
X107469575Y-106449950D01*
X107555285Y-106493622D01*
X107555287Y-106493622D01*
X107555290Y-106493624D01*
X107648250Y-106523828D01*
X107728716Y-106549974D01*
X107839539Y-106567527D01*
X107902674Y-106597456D01*
X107939605Y-106656768D01*
X107938607Y-106726631D01*
X107899997Y-106784863D01*
X107839539Y-106812473D01*
X107728716Y-106830025D01*
X107555285Y-106886377D01*
X107392813Y-106969162D01*
X107308644Y-107030314D01*
X107245288Y-107076346D01*
X107245286Y-107076348D01*
X107245285Y-107076348D01*
X107116348Y-107205285D01*
X107116348Y-107205286D01*
X107116346Y-107205288D01*
X107104674Y-107221353D01*
X107009162Y-107352813D01*
X106926377Y-107515285D01*
X106870025Y-107688716D01*
X106841500Y-107868818D01*
X106841500Y-108051181D01*
X106870025Y-108231283D01*
X106926377Y-108404714D01*
X107005127Y-108559267D01*
X107009162Y-108567186D01*
X107116346Y-108714712D01*
X107245288Y-108843654D01*
X107392814Y-108950838D01*
X107438272Y-108974000D01*
X107555285Y-109033622D01*
X107555287Y-109033622D01*
X107555290Y-109033624D01*
X107640711Y-109061379D01*
X107728716Y-109089974D01*
X107839539Y-109107527D01*
X107902674Y-109137456D01*
X107939605Y-109196768D01*
X107938607Y-109266631D01*
X107899997Y-109324863D01*
X107839539Y-109352473D01*
X107728716Y-109370025D01*
X107555285Y-109426377D01*
X107392813Y-109509162D01*
X107370947Y-109525049D01*
X107245288Y-109616346D01*
X107245286Y-109616348D01*
X107245285Y-109616348D01*
X107116348Y-109745285D01*
X107116348Y-109745286D01*
X107116346Y-109745288D01*
X107086910Y-109785803D01*
X107009162Y-109892813D01*
X106926377Y-110055285D01*
X106870025Y-110228716D01*
X106841500Y-110408818D01*
X106841500Y-110591181D01*
X106870025Y-110771283D01*
X106926377Y-110944714D01*
X106982215Y-111054300D01*
X107009162Y-111107186D01*
X107116346Y-111254712D01*
X107245288Y-111383654D01*
X107392814Y-111490838D01*
X107396826Y-111492882D01*
X107555285Y-111573622D01*
X107555287Y-111573622D01*
X107555290Y-111573624D01*
X107648250Y-111603828D01*
X107728716Y-111629974D01*
X107839539Y-111647527D01*
X107902674Y-111677456D01*
X107939605Y-111736768D01*
X107938607Y-111806631D01*
X107899997Y-111864863D01*
X107839539Y-111892473D01*
X107728716Y-111910025D01*
X107555285Y-111966377D01*
X107392813Y-112049162D01*
X107320478Y-112101717D01*
X107245288Y-112156346D01*
X107245286Y-112156348D01*
X107245285Y-112156348D01*
X107116348Y-112285285D01*
X107116348Y-112285286D01*
X107116346Y-112285288D01*
X107108323Y-112296331D01*
X107009162Y-112432813D01*
X106926377Y-112595285D01*
X106870025Y-112768716D01*
X106841500Y-112948818D01*
X106841500Y-113131181D01*
X106870025Y-113311283D01*
X106926377Y-113484714D01*
X106995950Y-113621256D01*
X107009162Y-113647186D01*
X107116346Y-113794712D01*
X107245288Y-113923654D01*
X107392814Y-114030838D01*
X107465344Y-114067794D01*
X107555285Y-114113622D01*
X107555287Y-114113622D01*
X107555290Y-114113624D01*
X107648250Y-114143828D01*
X107728716Y-114169974D01*
X107839539Y-114187527D01*
X107902674Y-114217456D01*
X107939605Y-114276768D01*
X107938607Y-114346631D01*
X107899997Y-114404863D01*
X107839539Y-114432473D01*
X107728716Y-114450025D01*
X107555285Y-114506377D01*
X107392813Y-114589162D01*
X107339676Y-114627769D01*
X107245288Y-114696346D01*
X107245286Y-114696348D01*
X107245285Y-114696348D01*
X107116348Y-114825285D01*
X107116348Y-114825286D01*
X107116346Y-114825288D01*
X107070314Y-114888644D01*
X107009162Y-114972813D01*
X106926377Y-115135285D01*
X106870025Y-115308716D01*
X106841500Y-115488818D01*
X106841500Y-115671181D01*
X106870025Y-115851283D01*
X106926377Y-116024714D01*
X106991504Y-116152530D01*
X107009162Y-116187186D01*
X107116346Y-116334712D01*
X107245288Y-116463654D01*
X107392814Y-116570838D01*
X107469575Y-116609950D01*
X107555285Y-116653622D01*
X107555287Y-116653622D01*
X107555290Y-116653624D01*
X107648250Y-116683828D01*
X107728716Y-116709974D01*
X107839539Y-116727527D01*
X107902674Y-116757456D01*
X107939605Y-116816768D01*
X107938607Y-116886631D01*
X107899997Y-116944863D01*
X107839539Y-116972473D01*
X107728716Y-116990025D01*
X107555285Y-117046377D01*
X107392813Y-117129162D01*
X107308644Y-117190314D01*
X107245288Y-117236346D01*
X107245286Y-117236348D01*
X107245285Y-117236348D01*
X107116348Y-117365285D01*
X107116348Y-117365286D01*
X107116346Y-117365288D01*
X107079916Y-117415430D01*
X107009162Y-117512813D01*
X106926377Y-117675285D01*
X106870025Y-117848716D01*
X106841500Y-118028818D01*
X106841500Y-118211181D01*
X106870025Y-118391283D01*
X106926377Y-118564714D01*
X106988701Y-118687030D01*
X107009162Y-118727186D01*
X107116346Y-118874712D01*
X107245288Y-119003654D01*
X107392814Y-119110838D01*
X107469575Y-119149950D01*
X107555285Y-119193622D01*
X107555287Y-119193622D01*
X107555290Y-119193624D01*
X107648250Y-119223828D01*
X107728716Y-119249974D01*
X107839539Y-119267527D01*
X107902674Y-119297456D01*
X107939605Y-119356768D01*
X107938607Y-119426631D01*
X107899997Y-119484863D01*
X107839539Y-119512473D01*
X107728716Y-119530025D01*
X107555285Y-119586377D01*
X107392813Y-119669162D01*
X107346123Y-119703085D01*
X107245288Y-119776346D01*
X107245286Y-119776348D01*
X107245285Y-119776348D01*
X107116348Y-119905285D01*
X107116348Y-119905286D01*
X107116346Y-119905288D01*
X107075721Y-119961203D01*
X107009162Y-120052813D01*
X106926377Y-120215285D01*
X106870025Y-120388716D01*
X106841500Y-120568818D01*
X106841500Y-120751181D01*
X106870025Y-120931283D01*
X106926377Y-121104714D01*
X106987438Y-121224551D01*
X107009162Y-121267186D01*
X107116346Y-121414712D01*
X107245288Y-121543654D01*
X107392814Y-121650838D01*
X107469575Y-121689950D01*
X107555285Y-121733622D01*
X107555287Y-121733622D01*
X107555290Y-121733624D01*
X107648250Y-121763828D01*
X107728716Y-121789974D01*
X107839539Y-121807527D01*
X107902674Y-121837456D01*
X107939605Y-121896768D01*
X107938607Y-121966631D01*
X107899997Y-122024863D01*
X107839539Y-122052473D01*
X107728716Y-122070025D01*
X107555285Y-122126377D01*
X107392813Y-122209162D01*
X107308644Y-122270314D01*
X107245288Y-122316346D01*
X107245286Y-122316348D01*
X107245285Y-122316348D01*
X107116348Y-122445285D01*
X107116348Y-122445286D01*
X107116346Y-122445288D01*
X107070314Y-122508644D01*
X107009162Y-122592813D01*
X106926377Y-122755285D01*
X106870025Y-122928716D01*
X106841500Y-123108818D01*
X106841500Y-123291181D01*
X106870025Y-123471283D01*
X106926377Y-123644714D01*
X106983307Y-123756443D01*
X107009162Y-123807186D01*
X107116346Y-123954712D01*
X107245288Y-124083654D01*
X107392814Y-124190838D01*
X107469575Y-124229950D01*
X107555285Y-124273622D01*
X107555287Y-124273622D01*
X107555290Y-124273624D01*
X107636461Y-124299998D01*
X107728716Y-124329974D01*
X107908819Y-124358500D01*
X107908824Y-124358500D01*
X109291181Y-124358500D01*
X109471283Y-124329974D01*
X109483751Y-124325923D01*
X109644710Y-124273624D01*
X109807186Y-124190838D01*
X109954712Y-124083654D01*
X110083654Y-123954712D01*
X110190838Y-123807186D01*
X110273624Y-123644710D01*
X110329974Y-123471283D01*
X110339070Y-123413853D01*
X110358500Y-123291181D01*
X110358500Y-123108818D01*
X110329974Y-122928716D01*
X110273622Y-122755285D01*
X110214573Y-122639397D01*
X110190838Y-122592814D01*
X110083654Y-122445288D01*
X109954712Y-122316346D01*
X109807186Y-122209162D01*
X109644714Y-122126377D01*
X109471283Y-122070025D01*
X109360460Y-122052473D01*
X109297325Y-122022544D01*
X109260394Y-121963232D01*
X109261392Y-121893370D01*
X109300002Y-121835137D01*
X109360460Y-121807527D01*
X109471283Y-121789974D01*
X109644710Y-121733624D01*
X109807186Y-121650838D01*
X109954712Y-121543654D01*
X110083654Y-121414712D01*
X110154137Y-121317699D01*
X110209463Y-121275037D01*
X110224141Y-121271276D01*
X110223961Y-121270603D01*
X110231810Y-121268500D01*
X110231811Y-121268500D01*
X110341403Y-121239135D01*
X110386573Y-121227032D01*
X110525327Y-121146922D01*
X114179030Y-117493219D01*
X114240353Y-117459734D01*
X114266711Y-117456900D01*
X132235301Y-117456900D01*
X132302340Y-117476585D01*
X132348095Y-117529389D01*
X132358039Y-117598547D01*
X132345786Y-117637194D01*
X132326378Y-117675282D01*
X132270025Y-117848716D01*
X132241500Y-118028818D01*
X132241500Y-118211181D01*
X132270025Y-118391283D01*
X132326377Y-118564714D01*
X132388701Y-118687030D01*
X132409162Y-118727186D01*
X132516346Y-118874712D01*
X132645288Y-119003654D01*
X132792814Y-119110838D01*
X132869575Y-119149950D01*
X132955285Y-119193622D01*
X132955287Y-119193622D01*
X132955290Y-119193624D01*
X133048250Y-119223828D01*
X133128716Y-119249974D01*
X133239539Y-119267527D01*
X133302674Y-119297456D01*
X133339605Y-119356768D01*
X133338607Y-119426631D01*
X133299997Y-119484863D01*
X133239539Y-119512473D01*
X133128716Y-119530025D01*
X132955285Y-119586377D01*
X132792813Y-119669162D01*
X132746123Y-119703085D01*
X132645288Y-119776346D01*
X132645286Y-119776348D01*
X132645285Y-119776348D01*
X132516348Y-119905285D01*
X132516348Y-119905286D01*
X132516346Y-119905288D01*
X132475721Y-119961203D01*
X132409162Y-120052813D01*
X132326377Y-120215285D01*
X132270025Y-120388716D01*
X132241500Y-120568818D01*
X132241500Y-120751181D01*
X132270025Y-120931283D01*
X132326377Y-121104714D01*
X132387438Y-121224551D01*
X132409162Y-121267186D01*
X132516346Y-121414712D01*
X132645288Y-121543654D01*
X132792814Y-121650838D01*
X132869575Y-121689950D01*
X132955285Y-121733622D01*
X132955287Y-121733622D01*
X132955290Y-121733624D01*
X133048250Y-121763828D01*
X133128716Y-121789974D01*
X133239539Y-121807527D01*
X133302674Y-121837456D01*
X133339605Y-121896768D01*
X133338607Y-121966631D01*
X133299997Y-122024863D01*
X133239539Y-122052473D01*
X133128716Y-122070025D01*
X132955285Y-122126377D01*
X132792813Y-122209162D01*
X132708644Y-122270314D01*
X132645288Y-122316346D01*
X132645286Y-122316348D01*
X132645285Y-122316348D01*
X132516348Y-122445285D01*
X132516348Y-122445286D01*
X132516346Y-122445288D01*
X132470314Y-122508644D01*
X132409162Y-122592813D01*
X132326377Y-122755285D01*
X132270025Y-122928716D01*
X132241500Y-123108818D01*
X132241500Y-123291181D01*
X132260652Y-123412102D01*
X132251697Y-123481396D01*
X132206701Y-123534847D01*
X132139950Y-123555487D01*
X132138179Y-123555500D01*
X122116411Y-123555500D01*
X122049372Y-123535815D01*
X122028730Y-123519181D01*
X117368719Y-118859170D01*
X117335234Y-118797847D01*
X117332400Y-118771489D01*
X117332400Y-118685420D01*
X117332399Y-118685416D01*
X117297488Y-118509907D01*
X117297487Y-118509900D01*
X117229002Y-118344564D01*
X117229000Y-118344561D01*
X117228998Y-118344557D01*
X117129578Y-118195765D01*
X117129575Y-118195761D01*
X117003038Y-118069224D01*
X117003034Y-118069221D01*
X116854242Y-117969801D01*
X116854232Y-117969796D01*
X116688900Y-117901313D01*
X116688892Y-117901311D01*
X116513383Y-117866400D01*
X116513379Y-117866400D01*
X116334421Y-117866400D01*
X116334416Y-117866400D01*
X116158907Y-117901311D01*
X116158899Y-117901313D01*
X115993567Y-117969796D01*
X115993557Y-117969801D01*
X115844765Y-118069221D01*
X115844761Y-118069224D01*
X115718224Y-118195761D01*
X115718221Y-118195765D01*
X115618801Y-118344557D01*
X115618796Y-118344567D01*
X115550313Y-118509899D01*
X115550311Y-118509907D01*
X115515400Y-118685416D01*
X115515400Y-118864383D01*
X115550311Y-119039892D01*
X115550313Y-119039900D01*
X115618796Y-119205232D01*
X115618801Y-119205242D01*
X115718221Y-119354034D01*
X115718224Y-119354038D01*
X115844761Y-119480575D01*
X115844765Y-119480578D01*
X115993557Y-119579998D01*
X115993561Y-119580000D01*
X115993564Y-119580002D01*
X116158900Y-119648487D01*
X116314442Y-119679426D01*
X116334416Y-119683399D01*
X116334420Y-119683400D01*
X116334421Y-119683400D01*
X116420489Y-119683400D01*
X116487528Y-119703085D01*
X116508170Y-119719719D01*
X121439372Y-124650921D01*
X121578127Y-124731032D01*
X121655508Y-124751766D01*
X121732889Y-124772500D01*
X121732890Y-124772500D01*
X121732891Y-124772500D01*
X148100409Y-124772500D01*
X148100410Y-124772500D01*
X148100411Y-124772500D01*
X148177791Y-124751766D01*
X148255173Y-124731032D01*
X148393927Y-124650922D01*
X149026615Y-124018234D01*
X157200000Y-124018234D01*
X157200000Y-124381765D01*
X157235632Y-124743556D01*
X157306550Y-125100090D01*
X157306553Y-125100101D01*
X157412086Y-125447997D01*
X157551207Y-125783864D01*
X157551209Y-125783869D01*
X157722570Y-126104462D01*
X157722581Y-126104480D01*
X157924551Y-126406750D01*
X158111678Y-126634765D01*
X158111679Y-126634766D01*
X159605747Y-125140697D01*
X159679588Y-125242330D01*
X159857670Y-125420412D01*
X159959301Y-125494251D01*
X158465232Y-126988319D01*
X158465233Y-126988320D01*
X158693249Y-127175448D01*
X158995519Y-127377418D01*
X158995537Y-127377429D01*
X159316130Y-127548790D01*
X159316135Y-127548792D01*
X159652002Y-127687913D01*
X159999898Y-127793446D01*
X159999909Y-127793449D01*
X160356443Y-127864367D01*
X160718234Y-127900000D01*
X161081766Y-127900000D01*
X161443556Y-127864367D01*
X161800090Y-127793449D01*
X161800101Y-127793446D01*
X162147997Y-127687913D01*
X162483864Y-127548792D01*
X162483869Y-127548790D01*
X162804462Y-127377429D01*
X162804480Y-127377418D01*
X163106736Y-127175457D01*
X163106750Y-127175447D01*
X163334765Y-126988320D01*
X163334766Y-126988319D01*
X161840698Y-125494251D01*
X161942330Y-125420412D01*
X162120412Y-125242330D01*
X162194251Y-125140698D01*
X163688319Y-126634766D01*
X163688320Y-126634765D01*
X163875447Y-126406750D01*
X163875457Y-126406736D01*
X164077418Y-126104480D01*
X164077429Y-126104462D01*
X164248790Y-125783869D01*
X164248792Y-125783864D01*
X164387913Y-125447997D01*
X164493446Y-125100101D01*
X164493449Y-125100090D01*
X164564367Y-124743556D01*
X164600000Y-124381765D01*
X164600000Y-124018234D01*
X164564367Y-123656443D01*
X164493449Y-123299909D01*
X164493446Y-123299898D01*
X164387913Y-122952002D01*
X164248792Y-122616135D01*
X164248790Y-122616130D01*
X164077429Y-122295537D01*
X164077418Y-122295519D01*
X163875448Y-121993249D01*
X163688320Y-121765233D01*
X163688319Y-121765232D01*
X162194251Y-123259300D01*
X162120412Y-123157670D01*
X161942330Y-122979588D01*
X161840698Y-122905748D01*
X163334766Y-121411679D01*
X163334765Y-121411678D01*
X163106750Y-121224551D01*
X162804480Y-121022581D01*
X162804462Y-121022570D01*
X162483869Y-120851209D01*
X162483864Y-120851207D01*
X162147997Y-120712086D01*
X161800101Y-120606553D01*
X161800090Y-120606550D01*
X161443556Y-120535632D01*
X161081766Y-120500000D01*
X160718234Y-120500000D01*
X160356443Y-120535632D01*
X159999909Y-120606550D01*
X159999898Y-120606553D01*
X159652002Y-120712086D01*
X159316135Y-120851207D01*
X159316130Y-120851209D01*
X158995537Y-121022570D01*
X158995519Y-121022581D01*
X158693258Y-121224545D01*
X158693254Y-121224548D01*
X158465233Y-121411679D01*
X158465233Y-121411680D01*
X159959301Y-122905748D01*
X159857670Y-122979588D01*
X159679588Y-123157670D01*
X159605748Y-123259301D01*
X158111680Y-121765233D01*
X158111679Y-121765233D01*
X157924548Y-121993254D01*
X157924545Y-121993258D01*
X157722581Y-122295519D01*
X157722570Y-122295537D01*
X157551209Y-122616130D01*
X157551207Y-122616135D01*
X157412086Y-122952002D01*
X157306553Y-123299898D01*
X157306550Y-123299909D01*
X157235632Y-123656443D01*
X157200000Y-124018234D01*
X149026615Y-124018234D01*
X152979870Y-120064977D01*
X153041191Y-120031494D01*
X153110883Y-120036478D01*
X153140430Y-120052339D01*
X153187991Y-120086894D01*
X153281438Y-120134507D01*
X153378516Y-120183972D01*
X153378519Y-120183973D01*
X153474890Y-120215285D01*
X153581884Y-120250049D01*
X153793084Y-120283500D01*
X153793085Y-120283500D01*
X154006915Y-120283500D01*
X154006916Y-120283500D01*
X154218116Y-120250049D01*
X154421483Y-120183972D01*
X154612009Y-120086894D01*
X154785004Y-119961206D01*
X154936206Y-119810004D01*
X155061894Y-119637009D01*
X155158972Y-119446483D01*
X155225049Y-119243116D01*
X155258500Y-119031916D01*
X155258500Y-118568084D01*
X155225049Y-118356884D01*
X155158972Y-118153517D01*
X155158972Y-118153516D01*
X155109507Y-118056438D01*
X155061894Y-117962991D01*
X154936206Y-117789996D01*
X154814791Y-117668581D01*
X154781306Y-117607258D01*
X154786290Y-117537566D01*
X154828162Y-117481633D01*
X154893626Y-117457216D01*
X154902472Y-117456900D01*
X157556809Y-117456900D01*
X157556810Y-117456900D01*
X157556811Y-117456900D01*
X157634191Y-117436166D01*
X157711573Y-117415432D01*
X157850327Y-117335322D01*
X162313220Y-112872427D01*
X162374541Y-112838944D01*
X162376580Y-112838519D01*
X162387300Y-112836387D01*
X162552636Y-112767902D01*
X162701435Y-112668478D01*
X162827978Y-112541935D01*
X162927402Y-112393136D01*
X162995887Y-112227800D01*
X163030800Y-112052279D01*
X163030800Y-111873321D01*
X162995887Y-111697800D01*
X162927402Y-111532464D01*
X162927400Y-111532461D01*
X162927398Y-111532457D01*
X162827978Y-111383665D01*
X162827975Y-111383661D01*
X162701438Y-111257124D01*
X162701434Y-111257121D01*
X162552642Y-111157701D01*
X162552632Y-111157696D01*
X162387300Y-111089213D01*
X162387292Y-111089211D01*
X162211783Y-111054300D01*
X162211779Y-111054300D01*
X162032821Y-111054300D01*
X162032816Y-111054300D01*
X161857307Y-111089211D01*
X161857299Y-111089213D01*
X161691967Y-111157696D01*
X161691957Y-111157701D01*
X161543165Y-111257121D01*
X161543161Y-111257124D01*
X161416624Y-111383661D01*
X161416621Y-111383665D01*
X161317201Y-111532457D01*
X161317196Y-111532467D01*
X161248713Y-111697799D01*
X161248711Y-111697807D01*
X161213800Y-111873316D01*
X161213800Y-112052283D01*
X161233797Y-112152816D01*
X161227570Y-112222408D01*
X161199861Y-112264688D01*
X160312363Y-113152187D01*
X160251040Y-113185672D01*
X160181349Y-113180688D01*
X160137001Y-113152187D01*
X160095538Y-113110724D01*
X160095534Y-113110721D01*
X159946742Y-113011301D01*
X159946732Y-113011296D01*
X159781400Y-112942813D01*
X159781392Y-112942811D01*
X159605883Y-112907900D01*
X159605879Y-112907900D01*
X159426921Y-112907900D01*
X159409239Y-112911416D01*
X159350235Y-112923153D01*
X159280643Y-112916924D01*
X159238364Y-112889216D01*
X158546447Y-112197300D01*
X158552661Y-112197300D01*
X158654394Y-112170041D01*
X158745606Y-112117380D01*
X158820080Y-112042906D01*
X158872741Y-111951694D01*
X158900000Y-111849961D01*
X158900000Y-111843747D01*
X159579474Y-112523221D01*
X159611859Y-112478649D01*
X159704755Y-112296331D01*
X159767990Y-112101717D01*
X159800000Y-111899617D01*
X159800000Y-111694982D01*
X159767990Y-111492882D01*
X159704755Y-111298268D01*
X159611859Y-111115950D01*
X159579474Y-111071377D01*
X159579474Y-111071376D01*
X158900000Y-111750851D01*
X158900000Y-111744639D01*
X158872741Y-111642906D01*
X158820080Y-111551694D01*
X158745606Y-111477220D01*
X158654394Y-111424559D01*
X158552661Y-111397300D01*
X158546446Y-111397300D01*
X159225922Y-110717824D01*
X159225921Y-110717823D01*
X159181359Y-110685447D01*
X159181350Y-110685441D01*
X158999031Y-110592544D01*
X158804417Y-110529309D01*
X158602317Y-110497300D01*
X158397683Y-110497300D01*
X158195582Y-110529309D01*
X158000968Y-110592544D01*
X157818644Y-110685443D01*
X157774077Y-110717823D01*
X157774077Y-110717824D01*
X158453554Y-111397300D01*
X158447339Y-111397300D01*
X158345606Y-111424559D01*
X158254394Y-111477220D01*
X158179920Y-111551694D01*
X158127259Y-111642906D01*
X158100000Y-111744639D01*
X158100000Y-111750853D01*
X157420524Y-111071377D01*
X157420523Y-111071377D01*
X157388143Y-111115944D01*
X157295244Y-111298268D01*
X157232009Y-111492882D01*
X157200000Y-111694982D01*
X157200000Y-111899617D01*
X157232009Y-112101717D01*
X157295244Y-112296331D01*
X157388141Y-112478650D01*
X157388147Y-112478659D01*
X157420523Y-112523221D01*
X157420524Y-112523222D01*
X158100000Y-111843746D01*
X158100000Y-111849961D01*
X158127259Y-111951694D01*
X158179920Y-112042906D01*
X158254394Y-112117380D01*
X158345606Y-112170041D01*
X158447339Y-112197300D01*
X158453553Y-112197300D01*
X157774076Y-112876774D01*
X157818131Y-112908782D01*
X157860796Y-112964112D01*
X157866775Y-113033726D01*
X157834169Y-113095521D01*
X157773330Y-113129878D01*
X157745245Y-113133100D01*
X146058289Y-113133100D01*
X145903528Y-113174568D01*
X145903525Y-113174569D01*
X145764776Y-113254675D01*
X145764775Y-113254676D01*
X145438055Y-113581395D01*
X145376732Y-113614879D01*
X145330976Y-113616186D01*
X145175116Y-113591500D01*
X145175111Y-113591500D01*
X144984889Y-113591500D01*
X144984884Y-113591500D01*
X144797008Y-113621256D01*
X144616092Y-113680040D01*
X144510051Y-113734072D01*
X144465295Y-113756876D01*
X144396628Y-113769772D01*
X144331888Y-113743496D01*
X144321321Y-113734072D01*
X143700329Y-113113080D01*
X143700327Y-113113078D01*
X143561573Y-113032968D01*
X143525482Y-113023297D01*
X143465822Y-112986932D01*
X143443016Y-112950975D01*
X143415879Y-112885460D01*
X143415872Y-112885447D01*
X143302772Y-112716182D01*
X143302769Y-112716178D01*
X143158821Y-112572230D01*
X143158817Y-112572227D01*
X142989552Y-112459127D01*
X142989539Y-112459120D01*
X142801465Y-112381218D01*
X142801453Y-112381215D01*
X142601794Y-112341500D01*
X142601791Y-112341500D01*
X142398209Y-112341500D01*
X142398206Y-112341500D01*
X142198546Y-112381215D01*
X142198534Y-112381218D01*
X142010457Y-112459122D01*
X141933890Y-112510282D01*
X141867212Y-112531159D01*
X141799832Y-112512674D01*
X141796110Y-112510282D01*
X141748782Y-112478659D01*
X141719546Y-112459124D01*
X141719543Y-112459122D01*
X141719542Y-112459122D01*
X141531465Y-112381218D01*
X141531453Y-112381215D01*
X141331794Y-112341500D01*
X141331791Y-112341500D01*
X141128209Y-112341500D01*
X141128206Y-112341500D01*
X140928546Y-112381214D01*
X140928542Y-112381216D01*
X140928540Y-112381216D01*
X140928539Y-112381217D01*
X140884754Y-112399353D01*
X140842213Y-112416974D01*
X140772744Y-112424442D01*
X140736170Y-112408509D01*
X140734868Y-112410895D01*
X140727086Y-112406645D01*
X140592379Y-112356403D01*
X140592372Y-112356401D01*
X140532844Y-112350000D01*
X140210000Y-112350000D01*
X140210000Y-113193128D01*
X140207617Y-113217320D01*
X140196500Y-113273206D01*
X140196500Y-113306170D01*
X140190255Y-113299925D01*
X140104745Y-113250556D01*
X140009370Y-113225000D01*
X139910630Y-113225000D01*
X139815255Y-113250556D01*
X139729745Y-113299925D01*
X139710000Y-113319670D01*
X139710000Y-112350000D01*
X139387155Y-112350000D01*
X139327627Y-112356401D01*
X139327620Y-112356403D01*
X139192913Y-112406645D01*
X139192906Y-112406649D01*
X139077812Y-112492809D01*
X139077809Y-112492812D01*
X138991649Y-112607906D01*
X138991645Y-112607913D01*
X138941403Y-112742620D01*
X138941401Y-112742627D01*
X138935000Y-112802155D01*
X138935000Y-113350000D01*
X139679670Y-113350000D01*
X139659925Y-113369745D01*
X139610556Y-113455255D01*
X139585000Y-113550630D01*
X139585000Y-113649370D01*
X139610556Y-113744745D01*
X139659925Y-113830255D01*
X139679670Y-113850000D01*
X138935000Y-113850000D01*
X138935000Y-113955000D01*
X138915315Y-114022039D01*
X138862511Y-114067794D01*
X138811000Y-114079000D01*
X137493379Y-114079000D01*
X137485567Y-114077467D01*
X137480779Y-114078358D01*
X137466388Y-114073705D01*
X137446535Y-114069811D01*
X137438703Y-114066615D01*
X137368473Y-114026068D01*
X137291091Y-114005334D01*
X137283567Y-114003318D01*
X137283560Y-114003315D01*
X137227743Y-113988360D01*
X137213711Y-113984600D01*
X137213710Y-113984600D01*
X135589056Y-113984600D01*
X135522017Y-113964915D01*
X135476262Y-113912111D01*
X135466318Y-113842953D01*
X135488738Y-113787714D01*
X135519957Y-113744745D01*
X135590838Y-113647186D01*
X135673624Y-113484710D01*
X135729974Y-113311283D01*
X135736005Y-113273206D01*
X135758500Y-113131181D01*
X135758500Y-112948819D01*
X135740692Y-112836386D01*
X135729974Y-112768717D01*
X135729709Y-112767902D01*
X135673622Y-112595285D01*
X135604245Y-112459127D01*
X135590838Y-112432814D01*
X135483654Y-112285288D01*
X135354712Y-112156346D01*
X135207186Y-112049162D01*
X135188233Y-112039505D01*
X135044714Y-111966377D01*
X134871283Y-111910025D01*
X134760460Y-111892473D01*
X134697325Y-111862544D01*
X134660394Y-111803232D01*
X134661392Y-111733370D01*
X134700002Y-111675137D01*
X134760460Y-111647527D01*
X134871283Y-111629974D01*
X134886536Y-111625018D01*
X135044710Y-111573624D01*
X135207186Y-111490838D01*
X135354712Y-111383654D01*
X135483654Y-111254712D01*
X135590838Y-111107186D01*
X135673624Y-110944710D01*
X135729974Y-110771283D01*
X135751169Y-110637465D01*
X135758500Y-110591181D01*
X135758500Y-110408818D01*
X135729974Y-110228716D01*
X135712543Y-110175071D01*
X135673624Y-110055290D01*
X135673621Y-110055286D01*
X135673621Y-110055283D01*
X135621210Y-109952423D01*
X135609391Y-109929227D01*
X135604829Y-109904937D01*
X135596192Y-109881779D01*
X135598493Y-109871199D01*
X135596495Y-109860560D01*
X135605789Y-109837658D01*
X135611044Y-109813506D01*
X135620978Y-109800234D01*
X135622771Y-109795819D01*
X135632186Y-109785261D01*
X135735382Y-109682065D01*
X135796703Y-109648582D01*
X135866395Y-109653566D01*
X135922328Y-109695438D01*
X135933546Y-109713454D01*
X135968138Y-109781347D01*
X136088417Y-109946894D01*
X136088417Y-109946895D01*
X136233104Y-110091582D01*
X136398650Y-110211859D01*
X136580968Y-110304755D01*
X136775582Y-110367990D01*
X136977683Y-110400000D01*
X137230000Y-110400000D01*
X137230000Y-109415686D01*
X137234394Y-109420080D01*
X137325606Y-109472741D01*
X137427339Y-109500000D01*
X137532661Y-109500000D01*
X137634394Y-109472741D01*
X137725606Y-109420080D01*
X137730000Y-109415686D01*
X137730000Y-110400000D01*
X137982317Y-110400000D01*
X138184417Y-110367990D01*
X138379031Y-110304755D01*
X138561349Y-110211859D01*
X138726894Y-110091582D01*
X138726895Y-110091582D01*
X138871582Y-109946895D01*
X138871582Y-109946894D01*
X138991859Y-109781349D01*
X139084755Y-109599029D01*
X139147990Y-109404413D01*
X139156609Y-109350000D01*
X137795686Y-109350000D01*
X137800080Y-109345606D01*
X137852741Y-109254394D01*
X137880000Y-109152661D01*
X137880000Y-109047339D01*
X137852741Y-108945606D01*
X137800080Y-108854394D01*
X137795686Y-108850000D01*
X139156609Y-108850000D01*
X139147990Y-108795586D01*
X139147990Y-108795585D01*
X139130683Y-108742318D01*
X139128688Y-108672477D01*
X139164769Y-108612644D01*
X139227470Y-108581816D01*
X139248614Y-108580000D01*
X143322449Y-108580000D01*
X143389488Y-108599685D01*
X143435243Y-108652489D01*
X143445187Y-108721647D01*
X143440380Y-108742319D01*
X143423719Y-108793591D01*
X143391500Y-108997019D01*
X143391500Y-109202980D01*
X143423719Y-109406408D01*
X143487367Y-109602294D01*
X143544007Y-109713454D01*
X143580590Y-109785252D01*
X143580873Y-109785806D01*
X143701926Y-109952423D01*
X143701930Y-109952428D01*
X143847571Y-110098069D01*
X143847576Y-110098073D01*
X143955502Y-110176485D01*
X144014197Y-110219129D01*
X144089249Y-110257370D01*
X144197705Y-110312632D01*
X144197707Y-110312632D01*
X144197710Y-110312634D01*
X144302707Y-110346749D01*
X144393591Y-110376280D01*
X144495305Y-110392390D01*
X144597019Y-110408500D01*
X144597020Y-110408500D01*
X145602980Y-110408500D01*
X145602981Y-110408500D01*
X145806408Y-110376280D01*
X146002290Y-110312634D01*
X146185803Y-110219129D01*
X146352430Y-110098068D01*
X146498068Y-109952430D01*
X146619129Y-109785803D01*
X146712634Y-109602290D01*
X146776280Y-109406408D01*
X146808500Y-109202981D01*
X146808500Y-108997019D01*
X146776280Y-108793592D01*
X146759619Y-108742317D01*
X146757624Y-108672478D01*
X146793704Y-108612645D01*
X146856405Y-108581816D01*
X146877551Y-108580000D01*
X147111109Y-108580000D01*
X147111110Y-108580000D01*
X147111111Y-108580000D01*
X147188491Y-108559266D01*
X147265873Y-108538532D01*
X147404627Y-108458422D01*
X148162232Y-107700816D01*
X148223553Y-107667333D01*
X148293244Y-107672317D01*
X148349178Y-107714189D01*
X148373595Y-107779653D01*
X148367843Y-107826815D01*
X148349950Y-107881884D01*
X148316500Y-108093084D01*
X148316500Y-108306915D01*
X148349951Y-108518117D01*
X148416026Y-108721480D01*
X148416027Y-108721483D01*
X148499984Y-108886256D01*
X148513106Y-108912009D01*
X148638794Y-109085004D01*
X148638796Y-109085006D01*
X148777070Y-109223280D01*
X148810555Y-109284603D01*
X148805571Y-109354295D01*
X148763699Y-109410228D01*
X148754486Y-109416499D01*
X148606659Y-109507680D01*
X148606655Y-109507683D01*
X148482684Y-109631654D01*
X148390643Y-109780875D01*
X148390641Y-109780880D01*
X148335494Y-109947302D01*
X148335493Y-109947309D01*
X148325000Y-110050013D01*
X148325000Y-110450000D01*
X149395854Y-110450000D01*
X149357370Y-110516657D01*
X149325000Y-110637465D01*
X149325000Y-110762535D01*
X149357370Y-110883343D01*
X149395854Y-110950000D01*
X148325001Y-110950000D01*
X148325001Y-111349986D01*
X148335494Y-111452697D01*
X148390641Y-111619119D01*
X148390643Y-111619124D01*
X148482684Y-111768345D01*
X148606654Y-111892315D01*
X148755875Y-111984356D01*
X148755880Y-111984358D01*
X148922302Y-112039505D01*
X148922309Y-112039506D01*
X149025019Y-112049999D01*
X149549999Y-112049999D01*
X149550000Y-112049998D01*
X149550000Y-111104145D01*
X149616657Y-111142630D01*
X149737465Y-111175000D01*
X149862535Y-111175000D01*
X149983343Y-111142630D01*
X150050000Y-111104145D01*
X150050000Y-112049999D01*
X150574972Y-112049999D01*
X150574986Y-112049998D01*
X150677697Y-112039505D01*
X150844119Y-111984358D01*
X150844124Y-111984356D01*
X150993345Y-111892315D01*
X151117315Y-111768345D01*
X151205720Y-111625019D01*
X151205720Y-111625018D01*
X151209355Y-111619126D01*
X151209358Y-111619119D01*
X151264505Y-111452697D01*
X151264506Y-111452690D01*
X151274999Y-111349986D01*
X151275000Y-111349973D01*
X151275000Y-110950000D01*
X150204146Y-110950000D01*
X150242630Y-110883343D01*
X150275000Y-110762535D01*
X150275000Y-110637465D01*
X150242630Y-110516657D01*
X150204146Y-110450000D01*
X151274999Y-110450000D01*
X151274999Y-110050028D01*
X151274998Y-110050013D01*
X151264505Y-109947302D01*
X151209358Y-109780880D01*
X151209356Y-109780875D01*
X151117315Y-109631654D01*
X150993344Y-109507683D01*
X150993340Y-109507680D01*
X150845513Y-109416499D01*
X150829960Y-109399207D01*
X150811342Y-109385270D01*
X150807033Y-109373718D01*
X150798788Y-109364551D01*
X150795052Y-109341595D01*
X150786926Y-109319806D01*
X150789546Y-109307757D01*
X150787567Y-109295589D01*
X150796833Y-109274261D01*
X150801778Y-109251533D01*
X150813528Y-109235836D01*
X150815410Y-109231507D01*
X150822919Y-109223290D01*
X150893549Y-109152661D01*
X150926393Y-109119818D01*
X150987716Y-109086334D01*
X151014073Y-109083500D01*
X155807618Y-109083500D01*
X155807619Y-109083499D01*
X155978308Y-109049548D01*
X156139095Y-108982948D01*
X156283799Y-108886259D01*
X157187994Y-107982062D01*
X157249317Y-107948578D01*
X157319008Y-107953562D01*
X157349983Y-107970475D01*
X157453796Y-108048189D01*
X157590799Y-108099289D01*
X157618050Y-108102218D01*
X157651345Y-108105799D01*
X157651362Y-108105800D01*
X159348638Y-108105800D01*
X159348654Y-108105799D01*
X159375692Y-108102891D01*
X159409201Y-108099289D01*
X159546204Y-108048189D01*
X159663261Y-107960561D01*
X159750889Y-107843504D01*
X159796555Y-107721068D01*
X159801988Y-107706504D01*
X159801988Y-107706503D01*
X159801989Y-107706501D01*
X159806200Y-107667333D01*
X159808499Y-107645954D01*
X159808500Y-107645937D01*
X159808500Y-105948662D01*
X159808499Y-105948645D01*
X159804475Y-105911223D01*
X159801989Y-105888099D01*
X159794627Y-105868362D01*
X159779522Y-105827864D01*
X159750889Y-105751096D01*
X159663261Y-105634039D01*
X159546204Y-105546411D01*
X159409203Y-105495311D01*
X159348654Y-105488800D01*
X159348638Y-105488800D01*
X157651362Y-105488800D01*
X157651345Y-105488800D01*
X157590797Y-105495311D01*
X157590795Y-105495311D01*
X157453795Y-105546411D01*
X157336739Y-105634039D01*
X157249111Y-105751095D01*
X157218511Y-105833135D01*
X157176639Y-105889068D01*
X157111174Y-105913484D01*
X157102330Y-105913800D01*
X157036283Y-105913800D01*
X156899544Y-105940998D01*
X156899543Y-105940998D01*
X156865599Y-105947749D01*
X156865597Y-105947750D01*
X156798992Y-105975337D01*
X156798992Y-105975338D01*
X156770761Y-105987032D01*
X156704803Y-106014353D01*
X156694651Y-106021137D01*
X156694649Y-106021138D01*
X156560101Y-106111040D01*
X156560097Y-106111043D01*
X155390961Y-107280181D01*
X155329638Y-107313666D01*
X155303280Y-107316500D01*
X151163510Y-107316500D01*
X151096471Y-107296815D01*
X151050716Y-107244011D01*
X151040772Y-107174853D01*
X151069797Y-107111297D01*
X151075829Y-107104819D01*
X151211486Y-106969162D01*
X151568121Y-106612528D01*
X151648232Y-106473773D01*
X151689700Y-106319010D01*
X151689700Y-106158790D01*
X151689700Y-105120889D01*
X151648232Y-104966128D01*
X151648231Y-104966127D01*
X151648231Y-104966125D01*
X151629152Y-104933081D01*
X151629151Y-104933078D01*
X151568126Y-104827379D01*
X151568120Y-104827371D01*
X150979093Y-104238344D01*
X150945608Y-104177021D01*
X150950592Y-104107329D01*
X150966453Y-104077780D01*
X151086894Y-103912009D01*
X151183972Y-103721483D01*
X151250049Y-103518116D01*
X151283500Y-103306916D01*
X151283500Y-103093084D01*
X151250049Y-102881884D01*
X151188559Y-102692634D01*
X151183973Y-102678519D01*
X151183972Y-102678516D01*
X151087031Y-102488260D01*
X151087030Y-102488258D01*
X151086895Y-102487993D01*
X151081029Y-102479919D01*
X150961206Y-102314996D01*
X150810004Y-102163794D01*
X150637009Y-102038106D01*
X150588784Y-102013534D01*
X150446483Y-101941027D01*
X150446480Y-101941026D01*
X150243117Y-101874951D01*
X150137516Y-101858225D01*
X150031916Y-101841500D01*
X149568084Y-101841500D01*
X149497684Y-101852650D01*
X149356882Y-101874951D01*
X149153519Y-101941026D01*
X149153516Y-101941027D01*
X148962990Y-102038106D01*
X148789993Y-102163796D01*
X148638796Y-102314993D01*
X148513106Y-102487990D01*
X148416027Y-102678516D01*
X148416026Y-102678519D01*
X148349951Y-102881882D01*
X148327770Y-103021926D01*
X148316500Y-103093084D01*
X148316500Y-103306916D01*
X148326004Y-103366921D01*
X148349951Y-103518117D01*
X148416026Y-103721480D01*
X148416027Y-103721483D01*
X148497018Y-103880434D01*
X148513106Y-103912009D01*
X148638794Y-104085004D01*
X148789996Y-104236206D01*
X148864072Y-104290025D01*
X148946182Y-104349682D01*
X148988847Y-104405012D01*
X148994826Y-104474626D01*
X148962220Y-104536421D01*
X148946182Y-104550318D01*
X148789997Y-104663793D01*
X148656495Y-104797295D01*
X148595172Y-104830779D01*
X148525480Y-104825795D01*
X148493331Y-104807991D01*
X148486930Y-104803080D01*
X148476910Y-104797295D01*
X148348173Y-104722968D01*
X148270791Y-104702234D01*
X148270790Y-104702233D01*
X148214144Y-104687055D01*
X148193411Y-104681500D01*
X148193410Y-104681500D01*
X146831575Y-104681500D01*
X146764536Y-104661815D01*
X146718781Y-104609011D01*
X146708837Y-104539853D01*
X146713644Y-104519182D01*
X146776279Y-104326412D01*
X146776279Y-104326410D01*
X146776280Y-104326408D01*
X146808500Y-104122981D01*
X146808500Y-103917019D01*
X146801185Y-103870837D01*
X146776280Y-103713591D01*
X146712632Y-103517705D01*
X146676621Y-103447030D01*
X146619129Y-103334197D01*
X146560594Y-103253630D01*
X146498073Y-103167576D01*
X146498069Y-103167571D01*
X146352428Y-103021930D01*
X146352423Y-103021926D01*
X146185806Y-102900873D01*
X146185805Y-102900872D01*
X146185803Y-102900871D01*
X146106540Y-102860484D01*
X146055745Y-102812510D01*
X146038950Y-102744689D01*
X146061487Y-102678554D01*
X146106541Y-102639515D01*
X146185803Y-102599129D01*
X146352430Y-102478068D01*
X146498068Y-102332430D01*
X146619129Y-102165803D01*
X146712634Y-101982290D01*
X146776280Y-101786408D01*
X146808500Y-101582981D01*
X146808500Y-101377019D01*
X146776280Y-101173592D01*
X146712634Y-100977710D01*
X146712632Y-100977707D01*
X146712632Y-100977705D01*
X146654948Y-100864495D01*
X146642052Y-100795826D01*
X146668328Y-100731085D01*
X146725435Y-100690828D01*
X146765433Y-100684200D01*
X157376000Y-100684200D01*
X157443039Y-100703885D01*
X157488794Y-100756689D01*
X157500000Y-100808200D01*
X157500000Y-101031094D01*
X157534220Y-101291009D01*
X157534222Y-101291020D01*
X157602075Y-101544255D01*
X157702404Y-101786471D01*
X157702409Y-101786482D01*
X157833488Y-102013516D01*
X157833494Y-102013524D01*
X157920080Y-102126365D01*
X158822421Y-101224024D01*
X158835359Y-101255258D01*
X158917437Y-101378097D01*
X159021903Y-101482563D01*
X159144742Y-101564641D01*
X159175974Y-101577577D01*
X158273633Y-102479917D01*
X158273633Y-102479918D01*
X158386475Y-102566505D01*
X158386483Y-102566511D01*
X158613517Y-102697590D01*
X158613528Y-102697595D01*
X158855744Y-102797924D01*
X159108979Y-102865777D01*
X159108990Y-102865779D01*
X159368905Y-102899999D01*
X159368920Y-102900000D01*
X159631080Y-102900000D01*
X159631094Y-102899999D01*
X159891009Y-102865779D01*
X159891020Y-102865777D01*
X160144255Y-102797924D01*
X160386471Y-102697595D01*
X160386482Y-102697590D01*
X160613516Y-102566511D01*
X160613534Y-102566499D01*
X160726365Y-102479919D01*
X160726365Y-102479917D01*
X159824025Y-101577578D01*
X159855258Y-101564641D01*
X159978097Y-101482563D01*
X160082563Y-101378097D01*
X160164641Y-101255258D01*
X160177578Y-101224025D01*
X161079917Y-102126365D01*
X161079919Y-102126365D01*
X161166499Y-102013534D01*
X161166511Y-102013516D01*
X161297590Y-101786482D01*
X161297595Y-101786471D01*
X161397924Y-101544255D01*
X161465777Y-101291020D01*
X161465779Y-101291009D01*
X161499999Y-101031094D01*
X161500000Y-101031080D01*
X161500000Y-100768919D01*
X161499999Y-100768905D01*
X161465779Y-100508990D01*
X161465777Y-100508979D01*
X161397924Y-100255744D01*
X161297595Y-100013528D01*
X161297590Y-100013517D01*
X161219233Y-99877800D01*
X161202760Y-99809900D01*
X161225612Y-99743873D01*
X161280533Y-99700683D01*
X161326620Y-99691800D01*
X162870942Y-99691800D01*
X162904502Y-99696921D01*
X162950711Y-99691800D01*
X162997211Y-99691800D01*
X163030007Y-99683012D01*
X163063748Y-99679273D01*
X163107057Y-99662366D01*
X163151972Y-99650332D01*
X163181373Y-99633357D01*
X163213001Y-99621011D01*
X163250463Y-99593468D01*
X163290728Y-99570221D01*
X163314735Y-99546213D01*
X163342087Y-99526104D01*
X163371139Y-99489809D01*
X163404021Y-99456928D01*
X163416296Y-99435665D01*
X163426867Y-99420188D01*
X163721095Y-99052620D01*
X163778356Y-99012585D01*
X163793709Y-99008494D01*
X163969200Y-98973587D01*
X164134536Y-98905102D01*
X164283335Y-98805678D01*
X164409878Y-98679135D01*
X164509302Y-98530336D01*
X164577787Y-98365000D01*
X164612700Y-98189479D01*
X164612700Y-98010521D01*
X164577787Y-97835000D01*
X164509302Y-97669664D01*
X164509300Y-97669661D01*
X164509298Y-97669657D01*
X164409878Y-97520865D01*
X164409875Y-97520861D01*
X164283338Y-97394324D01*
X164283334Y-97394321D01*
X164134542Y-97294901D01*
X164134532Y-97294896D01*
X163969200Y-97226413D01*
X163969192Y-97226411D01*
X163793683Y-97191500D01*
X163793679Y-97191500D01*
X163614721Y-97191500D01*
X163614716Y-97191500D01*
X163439207Y-97226411D01*
X163439199Y-97226413D01*
X163273867Y-97294896D01*
X163273857Y-97294901D01*
X163125065Y-97394321D01*
X163125061Y-97394324D01*
X162998524Y-97520861D01*
X162998521Y-97520865D01*
X162899101Y-97669657D01*
X162899096Y-97669667D01*
X162830613Y-97834999D01*
X162830611Y-97835007D01*
X162795700Y-98010516D01*
X162795700Y-98189482D01*
X162795873Y-98190351D01*
X162795831Y-98190814D01*
X162795898Y-98191493D01*
X162796209Y-98192109D01*
X162796080Y-98193342D01*
X162796297Y-98195541D01*
X162795846Y-98195585D01*
X162792679Y-98225978D01*
X162789636Y-98259942D01*
X162789032Y-98260983D01*
X162788968Y-98261603D01*
X162771058Y-98292015D01*
X162661977Y-98428289D01*
X162604716Y-98468325D01*
X162565171Y-98474800D01*
X158215889Y-98474800D01*
X158085774Y-98509664D01*
X158085773Y-98509663D01*
X158061132Y-98516266D01*
X158061125Y-98516269D01*
X157922376Y-98596375D01*
X157922371Y-98596379D01*
X157087870Y-99430881D01*
X157060942Y-99445584D01*
X157035124Y-99462177D01*
X157028923Y-99463068D01*
X157026547Y-99464366D01*
X157000189Y-99467200D01*
X156800624Y-99467200D01*
X156733585Y-99447515D01*
X156687830Y-99394711D01*
X156677886Y-99325553D01*
X156682693Y-99304882D01*
X156690451Y-99281002D01*
X156720000Y-99094447D01*
X156720000Y-98905552D01*
X156690451Y-98718997D01*
X156632085Y-98539362D01*
X156546329Y-98371059D01*
X156527883Y-98345670D01*
X156527882Y-98345669D01*
X155870000Y-99003551D01*
X155870000Y-98953922D01*
X155846148Y-98864905D01*
X155800070Y-98785095D01*
X155734905Y-98719930D01*
X155655095Y-98673852D01*
X155566078Y-98650000D01*
X155473922Y-98650000D01*
X155384905Y-98673852D01*
X155305095Y-98719930D01*
X155239930Y-98785095D01*
X155193852Y-98864905D01*
X155170000Y-98953922D01*
X155170000Y-99003553D01*
X154512116Y-98345669D01*
X154512116Y-98345670D01*
X154493669Y-98371060D01*
X154407914Y-98539362D01*
X154349548Y-98718997D01*
X154320000Y-98905552D01*
X154320000Y-99094447D01*
X154349548Y-99281002D01*
X154357307Y-99304882D01*
X154359302Y-99374723D01*
X154323221Y-99434556D01*
X154260520Y-99465384D01*
X154239376Y-99467200D01*
X149189562Y-99467200D01*
X149122523Y-99447515D01*
X149076768Y-99394711D01*
X149066824Y-99325553D01*
X149071631Y-99304883D01*
X149078741Y-99282999D01*
X149078741Y-99282995D01*
X149078743Y-99282991D01*
X149100282Y-99146997D01*
X149108500Y-99095116D01*
X149108500Y-98904883D01*
X149078743Y-98717008D01*
X149039548Y-98596379D01*
X149019961Y-98536097D01*
X149019959Y-98536094D01*
X149019959Y-98536092D01*
X148960881Y-98420147D01*
X148933602Y-98366608D01*
X148821792Y-98212715D01*
X148687285Y-98078208D01*
X148533392Y-97966398D01*
X148485371Y-97941930D01*
X148363907Y-97880040D01*
X148182998Y-97821259D01*
X148182994Y-97821258D01*
X148182991Y-97821257D01*
X148182987Y-97821256D01*
X148180156Y-97820577D01*
X148179186Y-97820020D01*
X148178357Y-97819751D01*
X148178413Y-97819576D01*
X148119561Y-97785792D01*
X148087391Y-97723768D01*
X148093861Y-97654199D01*
X148136915Y-97599171D01*
X148180156Y-97579423D01*
X148182974Y-97578745D01*
X148182991Y-97578743D01*
X148363903Y-97519961D01*
X148533392Y-97433602D01*
X148568792Y-97407882D01*
X154865669Y-97407882D01*
X154865670Y-97407883D01*
X154891059Y-97426329D01*
X155059362Y-97512085D01*
X155238997Y-97570451D01*
X155283667Y-97577527D01*
X155346801Y-97607457D01*
X155383732Y-97666768D01*
X155382734Y-97736631D01*
X155344124Y-97794863D01*
X155283667Y-97822473D01*
X155238997Y-97829548D01*
X155059362Y-97887914D01*
X154891060Y-97973669D01*
X154865670Y-97992116D01*
X154865669Y-97992116D01*
X155520000Y-98646446D01*
X155520001Y-98646446D01*
X156174328Y-97992116D01*
X156148933Y-97973666D01*
X155980637Y-97887914D01*
X155801002Y-97829548D01*
X155756333Y-97822473D01*
X155693198Y-97792544D01*
X155656267Y-97733232D01*
X155657265Y-97663369D01*
X155695875Y-97605137D01*
X155756333Y-97577527D01*
X155801002Y-97570451D01*
X155980637Y-97512085D01*
X156148937Y-97426331D01*
X156174328Y-97407883D01*
X156174328Y-97407882D01*
X155520001Y-96753554D01*
X155520000Y-96753554D01*
X154865669Y-97407882D01*
X148568792Y-97407882D01*
X148687285Y-97321792D01*
X148821792Y-97187285D01*
X148933602Y-97033392D01*
X149019961Y-96863903D01*
X149078743Y-96682991D01*
X149083577Y-96652473D01*
X149108500Y-96495116D01*
X149108500Y-96305552D01*
X154320000Y-96305552D01*
X154320000Y-96494447D01*
X154349548Y-96681002D01*
X154407914Y-96860637D01*
X154493666Y-97028933D01*
X154512116Y-97054328D01*
X155166446Y-96400000D01*
X155166446Y-96399999D01*
X155120369Y-96353922D01*
X155170000Y-96353922D01*
X155170000Y-96446078D01*
X155193852Y-96535095D01*
X155239930Y-96614905D01*
X155305095Y-96680070D01*
X155384905Y-96726148D01*
X155473922Y-96750000D01*
X155566078Y-96750000D01*
X155655095Y-96726148D01*
X155734905Y-96680070D01*
X155800070Y-96614905D01*
X155846148Y-96535095D01*
X155870000Y-96446078D01*
X155870000Y-96399999D01*
X155873554Y-96399999D01*
X155873554Y-96400000D01*
X156527882Y-97054328D01*
X156527883Y-97054328D01*
X156546331Y-97028937D01*
X156632085Y-96860637D01*
X156690451Y-96681002D01*
X156720000Y-96494447D01*
X156720000Y-96305552D01*
X156690452Y-96118998D01*
X156663795Y-96036956D01*
X156632085Y-95939362D01*
X156546329Y-95771059D01*
X156527883Y-95745670D01*
X156527882Y-95745669D01*
X155873554Y-96399999D01*
X155870000Y-96399999D01*
X155870000Y-96353922D01*
X155846148Y-96264905D01*
X155800070Y-96185095D01*
X155734905Y-96119930D01*
X155655095Y-96073852D01*
X155566078Y-96050000D01*
X155473922Y-96050000D01*
X155384905Y-96073852D01*
X155305095Y-96119930D01*
X155239930Y-96185095D01*
X155193852Y-96264905D01*
X155170000Y-96353922D01*
X155120369Y-96353922D01*
X154512116Y-95745669D01*
X154512116Y-95745670D01*
X154493669Y-95771060D01*
X154407914Y-95939362D01*
X154349548Y-96118997D01*
X154320000Y-96305552D01*
X149108500Y-96305552D01*
X149108500Y-96304883D01*
X149078743Y-96117008D01*
X149035312Y-95983343D01*
X149019961Y-95936097D01*
X149019959Y-95936094D01*
X149019959Y-95936092D01*
X148935870Y-95771060D01*
X148933602Y-95766608D01*
X148821792Y-95612715D01*
X148687285Y-95478208D01*
X148533392Y-95366398D01*
X148503527Y-95351181D01*
X148363907Y-95280040D01*
X148349650Y-95275408D01*
X148326635Y-95267930D01*
X148268962Y-95228493D01*
X148241764Y-95164134D01*
X148253679Y-95095288D01*
X148300923Y-95043812D01*
X148326633Y-95032070D01*
X148363903Y-95019961D01*
X148533392Y-94933602D01*
X148568792Y-94907882D01*
X154865669Y-94907882D01*
X154865670Y-94907883D01*
X154891059Y-94926329D01*
X155059362Y-95012085D01*
X155120866Y-95032069D01*
X155178541Y-95071506D01*
X155205740Y-95135865D01*
X155193826Y-95204711D01*
X155146582Y-95256187D01*
X155120866Y-95267931D01*
X155059362Y-95287914D01*
X154891060Y-95373669D01*
X154865670Y-95392116D01*
X154865669Y-95392116D01*
X155520000Y-96046446D01*
X155520001Y-96046446D01*
X156174328Y-95392116D01*
X156148933Y-95373666D01*
X155980635Y-95287913D01*
X155919134Y-95267931D01*
X155861458Y-95228494D01*
X155834259Y-95164136D01*
X155846173Y-95095289D01*
X155893417Y-95043813D01*
X155919134Y-95032069D01*
X155980635Y-95012086D01*
X156148937Y-94926331D01*
X156174328Y-94907883D01*
X156174328Y-94907882D01*
X155520001Y-94253554D01*
X155520000Y-94253554D01*
X154865669Y-94907882D01*
X148568792Y-94907882D01*
X148687285Y-94821792D01*
X148821792Y-94687285D01*
X148933602Y-94533392D01*
X149019961Y-94363903D01*
X149078743Y-94182991D01*
X149079206Y-94180070D01*
X149108500Y-93995116D01*
X149108500Y-93804883D01*
X149078743Y-93617008D01*
X149064720Y-93573852D01*
X149019961Y-93436097D01*
X149019957Y-93436089D01*
X149019956Y-93436086D01*
X149018094Y-93431588D01*
X149019844Y-93430863D01*
X149008441Y-93370117D01*
X149034722Y-93305378D01*
X149091831Y-93265125D01*
X149131821Y-93258500D01*
X149674609Y-93258500D01*
X149674610Y-93258500D01*
X149674611Y-93258500D01*
X149769185Y-93233159D01*
X149829373Y-93217032D01*
X149968127Y-93136922D01*
X150334430Y-92770619D01*
X150395753Y-92737134D01*
X150422111Y-92734300D01*
X150508180Y-92734300D01*
X150508181Y-92734299D01*
X150683700Y-92699387D01*
X150849036Y-92630902D01*
X150997835Y-92531478D01*
X151124378Y-92404935D01*
X151223802Y-92256136D01*
X151292287Y-92090800D01*
X151327200Y-91915279D01*
X151327200Y-91847111D01*
X151346885Y-91780072D01*
X151399689Y-91734317D01*
X151468847Y-91724373D01*
X151532403Y-91753398D01*
X151538881Y-91759430D01*
X152818481Y-93039030D01*
X152851966Y-93100353D01*
X152854800Y-93126711D01*
X152854800Y-93212783D01*
X152889711Y-93388292D01*
X152889713Y-93388300D01*
X152958196Y-93553632D01*
X152958201Y-93553642D01*
X153057621Y-93702434D01*
X153057624Y-93702438D01*
X153184161Y-93828975D01*
X153184165Y-93828978D01*
X153332957Y-93928398D01*
X153332961Y-93928400D01*
X153332964Y-93928402D01*
X153498300Y-93996887D01*
X153651882Y-94027436D01*
X153673816Y-94031799D01*
X153673820Y-94031800D01*
X153673821Y-94031800D01*
X153852780Y-94031800D01*
X153852781Y-94031799D01*
X154028300Y-93996887D01*
X154157086Y-93943541D01*
X154226552Y-93936073D01*
X154289031Y-93967347D01*
X154324684Y-94027436D01*
X154327009Y-94038704D01*
X154349548Y-94181002D01*
X154407914Y-94360637D01*
X154493666Y-94528933D01*
X154512116Y-94554328D01*
X155170000Y-93896445D01*
X155170000Y-93946078D01*
X155193852Y-94035095D01*
X155239930Y-94114905D01*
X155305095Y-94180070D01*
X155384905Y-94226148D01*
X155473922Y-94250000D01*
X155566078Y-94250000D01*
X155655095Y-94226148D01*
X155734905Y-94180070D01*
X155800070Y-94114905D01*
X155846148Y-94035095D01*
X155870000Y-93946078D01*
X155870000Y-93899999D01*
X155873554Y-93899999D01*
X155873554Y-93900000D01*
X156527882Y-94554328D01*
X156527883Y-94554328D01*
X156546331Y-94528937D01*
X156632085Y-94360637D01*
X156690451Y-94181002D01*
X156720000Y-93994447D01*
X156720000Y-93805552D01*
X156690451Y-93618997D01*
X156632085Y-93439362D01*
X156546329Y-93271059D01*
X156527883Y-93245670D01*
X156527882Y-93245669D01*
X155873554Y-93899999D01*
X155870000Y-93899999D01*
X155870000Y-93853922D01*
X155846148Y-93764905D01*
X155800070Y-93685095D01*
X155734905Y-93619930D01*
X155655095Y-93573852D01*
X155566078Y-93550000D01*
X155516446Y-93550000D01*
X156174328Y-92892116D01*
X156148933Y-92873666D01*
X155980635Y-92787913D01*
X155919134Y-92767931D01*
X155861458Y-92728494D01*
X155834259Y-92664136D01*
X155846173Y-92595289D01*
X155893417Y-92543813D01*
X155919134Y-92532069D01*
X155980635Y-92512086D01*
X156148937Y-92426331D01*
X156174328Y-92407883D01*
X156174328Y-92407882D01*
X155520001Y-91753554D01*
X155520000Y-91753554D01*
X154865669Y-92407882D01*
X154865670Y-92407883D01*
X154891059Y-92426329D01*
X155059362Y-92512085D01*
X155120866Y-92532069D01*
X155178541Y-92571506D01*
X155205740Y-92635865D01*
X155193826Y-92704711D01*
X155146582Y-92756187D01*
X155120866Y-92767931D01*
X155059362Y-92787914D01*
X154891063Y-92873667D01*
X154827574Y-92919795D01*
X154761767Y-92943274D01*
X154693713Y-92927448D01*
X154645019Y-92877342D01*
X154639463Y-92863826D01*
X154639218Y-92863928D01*
X154634693Y-92853003D01*
X154568402Y-92692964D01*
X154568400Y-92692961D01*
X154568398Y-92692957D01*
X154468978Y-92544165D01*
X154468975Y-92544161D01*
X154342438Y-92417624D01*
X154342434Y-92417621D01*
X154193642Y-92318201D01*
X154193632Y-92318196D01*
X154028300Y-92249713D01*
X154028292Y-92249711D01*
X153852783Y-92214800D01*
X153852779Y-92214800D01*
X153766711Y-92214800D01*
X153699672Y-92195115D01*
X153679030Y-92178481D01*
X152806101Y-91305552D01*
X154320000Y-91305552D01*
X154320000Y-91494447D01*
X154349548Y-91681002D01*
X154407914Y-91860637D01*
X154493666Y-92028933D01*
X154512116Y-92054328D01*
X155166446Y-91400000D01*
X155166446Y-91399999D01*
X155120369Y-91353922D01*
X155170000Y-91353922D01*
X155170000Y-91446078D01*
X155193852Y-91535095D01*
X155239930Y-91614905D01*
X155305095Y-91680070D01*
X155384905Y-91726148D01*
X155473922Y-91750000D01*
X155566078Y-91750000D01*
X155655095Y-91726148D01*
X155734905Y-91680070D01*
X155800070Y-91614905D01*
X155846148Y-91535095D01*
X155870000Y-91446078D01*
X155870000Y-91399999D01*
X155873554Y-91399999D01*
X155873554Y-91400000D01*
X156527882Y-92054328D01*
X156527883Y-92054328D01*
X156546331Y-92028937D01*
X156632085Y-91860637D01*
X156690451Y-91681002D01*
X156720000Y-91494447D01*
X156720000Y-91305552D01*
X156690451Y-91118997D01*
X156632085Y-90939362D01*
X156546329Y-90771059D01*
X156527883Y-90745670D01*
X156527882Y-90745669D01*
X155873554Y-91399999D01*
X155870000Y-91399999D01*
X155870000Y-91353922D01*
X155846148Y-91264905D01*
X155800070Y-91185095D01*
X155734905Y-91119930D01*
X155655095Y-91073852D01*
X155566078Y-91050000D01*
X155473922Y-91050000D01*
X155384905Y-91073852D01*
X155305095Y-91119930D01*
X155239930Y-91185095D01*
X155193852Y-91264905D01*
X155170000Y-91353922D01*
X155120369Y-91353922D01*
X154512116Y-90745669D01*
X154512116Y-90745670D01*
X154493669Y-90771060D01*
X154407914Y-90939362D01*
X154349548Y-91118997D01*
X154320000Y-91305552D01*
X152806101Y-91305552D01*
X151408431Y-89907882D01*
X154865669Y-89907882D01*
X154865670Y-89907883D01*
X154891059Y-89926329D01*
X155059362Y-90012085D01*
X155120866Y-90032069D01*
X155178541Y-90071506D01*
X155205740Y-90135865D01*
X155193826Y-90204711D01*
X155146582Y-90256187D01*
X155120866Y-90267931D01*
X155059362Y-90287914D01*
X154891060Y-90373669D01*
X154865670Y-90392116D01*
X154865669Y-90392116D01*
X155520000Y-91046446D01*
X155520001Y-91046446D01*
X156174328Y-90392116D01*
X156148933Y-90373666D01*
X155980635Y-90287913D01*
X155919134Y-90267931D01*
X155861458Y-90228494D01*
X155834259Y-90164136D01*
X155846173Y-90095289D01*
X155893417Y-90043813D01*
X155919134Y-90032069D01*
X155980635Y-90012086D01*
X156148937Y-89926331D01*
X156174328Y-89907883D01*
X156174328Y-89907882D01*
X155520001Y-89253554D01*
X155520000Y-89253554D01*
X154865669Y-89907882D01*
X151408431Y-89907882D01*
X151208829Y-89708280D01*
X151208827Y-89708278D01*
X151070073Y-89628168D01*
X150992691Y-89607434D01*
X150992690Y-89607433D01*
X150936044Y-89592255D01*
X150915311Y-89586700D01*
X150915310Y-89586700D01*
X149108790Y-89586700D01*
X149041751Y-89567015D01*
X148995996Y-89514211D01*
X148986052Y-89445053D01*
X148998305Y-89406405D01*
X149006537Y-89390250D01*
X149019961Y-89363903D01*
X149078743Y-89182991D01*
X149082166Y-89161379D01*
X149108500Y-88995116D01*
X149108500Y-88805552D01*
X154320000Y-88805552D01*
X154320000Y-88994447D01*
X154349548Y-89181002D01*
X154407914Y-89360637D01*
X154493666Y-89528933D01*
X154512116Y-89554328D01*
X155166446Y-88900000D01*
X155166446Y-88899999D01*
X155120369Y-88853922D01*
X155170000Y-88853922D01*
X155170000Y-88946078D01*
X155193852Y-89035095D01*
X155239930Y-89114905D01*
X155305095Y-89180070D01*
X155384905Y-89226148D01*
X155473922Y-89250000D01*
X155566078Y-89250000D01*
X155655095Y-89226148D01*
X155734905Y-89180070D01*
X155800070Y-89114905D01*
X155846148Y-89035095D01*
X155870000Y-88946078D01*
X155870000Y-88899999D01*
X155873554Y-88899999D01*
X155873554Y-88900000D01*
X156527882Y-89554328D01*
X156527883Y-89554328D01*
X156546331Y-89528937D01*
X156632085Y-89360637D01*
X156690451Y-89181002D01*
X156720000Y-88994447D01*
X156720000Y-88805552D01*
X156690451Y-88618997D01*
X156632085Y-88439362D01*
X156546329Y-88271059D01*
X156527883Y-88245670D01*
X156527882Y-88245669D01*
X155873554Y-88899999D01*
X155870000Y-88899999D01*
X155870000Y-88853922D01*
X155846148Y-88764905D01*
X155800070Y-88685095D01*
X155734905Y-88619930D01*
X155655095Y-88573852D01*
X155566078Y-88550000D01*
X155473922Y-88550000D01*
X155384905Y-88573852D01*
X155305095Y-88619930D01*
X155239930Y-88685095D01*
X155193852Y-88764905D01*
X155170000Y-88853922D01*
X155120369Y-88853922D01*
X154512116Y-88245669D01*
X154512116Y-88245670D01*
X154493669Y-88271060D01*
X154407914Y-88439362D01*
X154349548Y-88618997D01*
X154320000Y-88805552D01*
X149108500Y-88805552D01*
X149108500Y-88804883D01*
X149078743Y-88617008D01*
X149032144Y-88473592D01*
X149019961Y-88436097D01*
X149019959Y-88436094D01*
X149019959Y-88436092D01*
X148955072Y-88308745D01*
X148943173Y-88285393D01*
X148930278Y-88216726D01*
X148956554Y-88151986D01*
X149013660Y-88111728D01*
X149053659Y-88105100D01*
X151777609Y-88105100D01*
X151777610Y-88105100D01*
X151777611Y-88105100D01*
X151891842Y-88074492D01*
X151932373Y-88063632D01*
X152071127Y-87983522D01*
X152162533Y-87892116D01*
X154865669Y-87892116D01*
X155520000Y-88546446D01*
X155520001Y-88546446D01*
X156174328Y-87892116D01*
X156148933Y-87873666D01*
X155980637Y-87787914D01*
X155801002Y-87729548D01*
X155614447Y-87700000D01*
X155425553Y-87700000D01*
X155238997Y-87729548D01*
X155059362Y-87787914D01*
X154891060Y-87873669D01*
X154865670Y-87892116D01*
X154865669Y-87892116D01*
X152162533Y-87892116D01*
X152237330Y-87817319D01*
X152298653Y-87783834D01*
X152325011Y-87781000D01*
X152411080Y-87781000D01*
X152411081Y-87780999D01*
X152586600Y-87746087D01*
X152751936Y-87677602D01*
X152900735Y-87578178D01*
X153027278Y-87451635D01*
X153126702Y-87302836D01*
X153195187Y-87137500D01*
X153230100Y-86961979D01*
X153230100Y-86783021D01*
X153195187Y-86607500D01*
X153126702Y-86442164D01*
X153126700Y-86442161D01*
X153126698Y-86442157D01*
X153027278Y-86293365D01*
X153027275Y-86293361D01*
X152900738Y-86166824D01*
X152900734Y-86166821D01*
X152751942Y-86067401D01*
X152751932Y-86067396D01*
X152586600Y-85998913D01*
X152586592Y-85998911D01*
X152411083Y-85964000D01*
X152411079Y-85964000D01*
X152232121Y-85964000D01*
X152232116Y-85964000D01*
X152056607Y-85998911D01*
X152056599Y-85998913D01*
X151891267Y-86067396D01*
X151891257Y-86067401D01*
X151742465Y-86166821D01*
X151742461Y-86166824D01*
X151615924Y-86293361D01*
X151615921Y-86293365D01*
X151516501Y-86442157D01*
X151516496Y-86442167D01*
X151448013Y-86607499D01*
X151448011Y-86607507D01*
X151412051Y-86788291D01*
X151379666Y-86850202D01*
X151318951Y-86884776D01*
X151290434Y-86888100D01*
X149257124Y-86888100D01*
X149190085Y-86868415D01*
X149144330Y-86815611D01*
X149134386Y-86746453D01*
X149146639Y-86707805D01*
X149219959Y-86563907D01*
X149219959Y-86563906D01*
X149219961Y-86563903D01*
X149278743Y-86382991D01*
X149286602Y-86333370D01*
X149308500Y-86195116D01*
X149308500Y-86004883D01*
X149280072Y-85825398D01*
X149289027Y-85756105D01*
X149334023Y-85702653D01*
X149400774Y-85682013D01*
X149402545Y-85682000D01*
X154417455Y-85682000D01*
X154484494Y-85701685D01*
X154530249Y-85754489D01*
X154540193Y-85823647D01*
X154539928Y-85825398D01*
X154511500Y-86004883D01*
X154511500Y-86195116D01*
X154541256Y-86382991D01*
X154600040Y-86563907D01*
X154673361Y-86707805D01*
X154686398Y-86733392D01*
X154798208Y-86887285D01*
X154932715Y-87021792D01*
X155086608Y-87133602D01*
X155163648Y-87172856D01*
X155256092Y-87219959D01*
X155256094Y-87219959D01*
X155256097Y-87219961D01*
X155353070Y-87251469D01*
X155437008Y-87278743D01*
X155624884Y-87308500D01*
X155624889Y-87308500D01*
X155815115Y-87308500D01*
X155893134Y-87296142D01*
X155970978Y-87283813D01*
X156040270Y-87292767D01*
X156078056Y-87318605D01*
X158406439Y-89646988D01*
X158439924Y-89708311D01*
X158434940Y-89778003D01*
X158406440Y-89822350D01*
X158313793Y-89914997D01*
X158188106Y-90087990D01*
X158091027Y-90278516D01*
X158091026Y-90278519D01*
X158024951Y-90481882D01*
X158020735Y-90508500D01*
X157991500Y-90693084D01*
X157991500Y-90906916D01*
X157997406Y-90944207D01*
X158024951Y-91118117D01*
X158091026Y-91321480D01*
X158091027Y-91321483D01*
X158188106Y-91512009D01*
X158313794Y-91685004D01*
X158464996Y-91836206D01*
X158535200Y-91887212D01*
X158621182Y-91949682D01*
X158663847Y-92005012D01*
X158669826Y-92074626D01*
X158637220Y-92136421D01*
X158621182Y-92150318D01*
X158590153Y-92172862D01*
X158464996Y-92263794D01*
X158464994Y-92263796D01*
X158464993Y-92263796D01*
X158313796Y-92414993D01*
X158188106Y-92587990D01*
X158091027Y-92778516D01*
X158091026Y-92778519D01*
X158024951Y-92981882D01*
X157991500Y-93193084D01*
X157991500Y-93406915D01*
X158024951Y-93618117D01*
X158091026Y-93821480D01*
X158091027Y-93821483D01*
X158180400Y-93996886D01*
X158188106Y-94012009D01*
X158313794Y-94185004D01*
X158313796Y-94185006D01*
X158452070Y-94323280D01*
X158485555Y-94384603D01*
X158480571Y-94454295D01*
X158438699Y-94510228D01*
X158429486Y-94516499D01*
X158281659Y-94607680D01*
X158281655Y-94607683D01*
X158157684Y-94731654D01*
X158065643Y-94880875D01*
X158065641Y-94880880D01*
X158010494Y-95047302D01*
X158010493Y-95047309D01*
X158000000Y-95150013D01*
X158000000Y-95550000D01*
X159070854Y-95550000D01*
X159032370Y-95616657D01*
X159000000Y-95737465D01*
X159000000Y-95862535D01*
X159032370Y-95983343D01*
X159070854Y-96050000D01*
X158000001Y-96050000D01*
X158000001Y-96449986D01*
X158010494Y-96552697D01*
X158065641Y-96719119D01*
X158065643Y-96719124D01*
X158157684Y-96868345D01*
X158281654Y-96992315D01*
X158430875Y-97084356D01*
X158430880Y-97084358D01*
X158597302Y-97139505D01*
X158597309Y-97139506D01*
X158700019Y-97149999D01*
X159224999Y-97149999D01*
X159225000Y-97149998D01*
X159225000Y-96204145D01*
X159291657Y-96242630D01*
X159412465Y-96275000D01*
X159537535Y-96275000D01*
X159658343Y-96242630D01*
X159725000Y-96204145D01*
X159725000Y-97149999D01*
X160249972Y-97149999D01*
X160249986Y-97149998D01*
X160352697Y-97139505D01*
X160519119Y-97084358D01*
X160519124Y-97084356D01*
X160668345Y-96992315D01*
X160792315Y-96868345D01*
X160884356Y-96719124D01*
X160884358Y-96719119D01*
X160939505Y-96552697D01*
X160939506Y-96552690D01*
X160949999Y-96449986D01*
X160950000Y-96449973D01*
X160950000Y-96050000D01*
X159879146Y-96050000D01*
X159917630Y-95983343D01*
X159950000Y-95862535D01*
X159950000Y-95737465D01*
X159917630Y-95616657D01*
X159879146Y-95550000D01*
X160949999Y-95550000D01*
X160949999Y-95150028D01*
X160949998Y-95150013D01*
X160939505Y-95047302D01*
X160884358Y-94880880D01*
X160884356Y-94880875D01*
X160792315Y-94731654D01*
X160668344Y-94607683D01*
X160668340Y-94607680D01*
X160520513Y-94516499D01*
X160473788Y-94464551D01*
X160462567Y-94395589D01*
X160490410Y-94331507D01*
X160497907Y-94323302D01*
X160636206Y-94185004D01*
X160761894Y-94012009D01*
X160858972Y-93821483D01*
X160925049Y-93618116D01*
X160958500Y-93406916D01*
X160958500Y-93193084D01*
X160925049Y-92981884D01*
X160869585Y-92811181D01*
X160858973Y-92778519D01*
X160858972Y-92778516D01*
X160800692Y-92664136D01*
X160761894Y-92587991D01*
X160636206Y-92414996D01*
X160485004Y-92263794D01*
X160465623Y-92249713D01*
X160328818Y-92150318D01*
X160286152Y-92094988D01*
X160280173Y-92025375D01*
X160312779Y-91963580D01*
X160328818Y-91949682D01*
X160414800Y-91887212D01*
X160485004Y-91836206D01*
X160636206Y-91685004D01*
X160761894Y-91512009D01*
X160858972Y-91321483D01*
X160925049Y-91118116D01*
X160958500Y-90906916D01*
X160958500Y-90693084D01*
X160925049Y-90481884D01*
X160867653Y-90305234D01*
X160858973Y-90278519D01*
X160858972Y-90278516D01*
X160800692Y-90164136D01*
X160761894Y-90087991D01*
X160636206Y-89914996D01*
X160485004Y-89763794D01*
X160312009Y-89638106D01*
X160121483Y-89541028D01*
X160121479Y-89541026D01*
X160118257Y-89539385D01*
X160067461Y-89491411D01*
X160054777Y-89460994D01*
X160042032Y-89413428D01*
X160037977Y-89406405D01*
X159961923Y-89274675D01*
X159961918Y-89274669D01*
X159848630Y-89161381D01*
X159848624Y-89161376D01*
X159709874Y-89081269D01*
X159709873Y-89081268D01*
X159709872Y-89081268D01*
X159555111Y-89039800D01*
X159555110Y-89039800D01*
X159547261Y-89037697D01*
X159547714Y-89036003D01*
X159492901Y-89011746D01*
X159485314Y-89004765D01*
X156938605Y-86458056D01*
X156905120Y-86396733D01*
X156903813Y-86350979D01*
X156920198Y-86247527D01*
X156928500Y-86195115D01*
X156928500Y-86004883D01*
X156900072Y-85825398D01*
X156902467Y-85806858D01*
X156899807Y-85788353D01*
X156906853Y-85772923D01*
X156909027Y-85756105D01*
X156921064Y-85741805D01*
X156928832Y-85724797D01*
X156943102Y-85715626D01*
X156954023Y-85702653D01*
X156971881Y-85697130D01*
X156987610Y-85687023D01*
X157019313Y-85682464D01*
X157020774Y-85682013D01*
X157022545Y-85682000D01*
X157027856Y-85682000D01*
X157094895Y-85701685D01*
X157140650Y-85754489D01*
X157147629Y-85773903D01*
X157161428Y-85825398D01*
X157194009Y-85946995D01*
X157294761Y-86190234D01*
X157294769Y-86190250D01*
X157426409Y-86418256D01*
X157586687Y-86627136D01*
X157586693Y-86627143D01*
X157772856Y-86813306D01*
X157772863Y-86813312D01*
X157981743Y-86973590D01*
X158209749Y-87105230D01*
X158209765Y-87105238D01*
X158361451Y-87168068D01*
X158453003Y-87205990D01*
X158707320Y-87274134D01*
X158968356Y-87308500D01*
X158968363Y-87308500D01*
X159231637Y-87308500D01*
X159231644Y-87308500D01*
X159492680Y-87274134D01*
X159746997Y-87205990D01*
X159930099Y-87130146D01*
X159990234Y-87105238D01*
X159990237Y-87105236D01*
X159990243Y-87105234D01*
X160218257Y-86973590D01*
X160427138Y-86813311D01*
X160613311Y-86627138D01*
X160773590Y-86418257D01*
X160905234Y-86190243D01*
X160914935Y-86166824D01*
X160982010Y-86004889D01*
X161005990Y-85946997D01*
X161074134Y-85692680D01*
X161108500Y-85431644D01*
X161108500Y-85168356D01*
X161074134Y-84907320D01*
X161005990Y-84653003D01*
X160941679Y-84497742D01*
X160905238Y-84409765D01*
X160905230Y-84409749D01*
X160773590Y-84181743D01*
X160613312Y-83972863D01*
X160613306Y-83972856D01*
X160427143Y-83786693D01*
X160427136Y-83786687D01*
X160218256Y-83626409D01*
X159990250Y-83494769D01*
X159990234Y-83494761D01*
X159746995Y-83394009D01*
X159492678Y-83325865D01*
X159231653Y-83291501D01*
X159231650Y-83291500D01*
X159231644Y-83291500D01*
X158968356Y-83291500D01*
X158968350Y-83291500D01*
X158968346Y-83291501D01*
X158707321Y-83325865D01*
X158453004Y-83394009D01*
X158209765Y-83494761D01*
X158209749Y-83494769D01*
X157981743Y-83626409D01*
X157772864Y-83786686D01*
X157737028Y-83822523D01*
X157680868Y-83878682D01*
X157619548Y-83912166D01*
X157593189Y-83915000D01*
X157065093Y-83915000D01*
X156998054Y-83895315D01*
X156952299Y-83842511D01*
X156942355Y-83773353D01*
X156947162Y-83752682D01*
X156970451Y-83681002D01*
X156975362Y-83650000D01*
X156044975Y-83650000D01*
X156080070Y-83614905D01*
X156126148Y-83535095D01*
X156150000Y-83446078D01*
X156150000Y-83353922D01*
X156126148Y-83264905D01*
X156080070Y-83185095D01*
X156044975Y-83150000D01*
X156975362Y-83150000D01*
X156970451Y-83118997D01*
X156912085Y-82939362D01*
X156826329Y-82771059D01*
X156715314Y-82618258D01*
X156715310Y-82618253D01*
X156581742Y-82484685D01*
X156472849Y-82405571D01*
X156430183Y-82350242D01*
X156424204Y-82280628D01*
X156456809Y-82218833D01*
X156472844Y-82204938D01*
X156587285Y-82121792D01*
X156721792Y-81987285D01*
X156814551Y-81859613D01*
X156818882Y-81856273D01*
X156821155Y-81851297D01*
X156846254Y-81835166D01*
X156869880Y-81816949D01*
X156876551Y-81815696D01*
X156879933Y-81813523D01*
X156914868Y-81808500D01*
X157116299Y-81808500D01*
X157183338Y-81828185D01*
X157217608Y-81864992D01*
X157218796Y-81864104D01*
X157224110Y-81871203D01*
X157224111Y-81871204D01*
X157311739Y-81988261D01*
X157428796Y-82075889D01*
X157565799Y-82126989D01*
X157593050Y-82129918D01*
X157626345Y-82133499D01*
X157626362Y-82133500D01*
X158573638Y-82133500D01*
X158573654Y-82133499D01*
X158600692Y-82130591D01*
X158634201Y-82126989D01*
X158771204Y-82075889D01*
X158888261Y-81988261D01*
X158975889Y-81871204D01*
X159026989Y-81734201D01*
X159033209Y-81676348D01*
X159033499Y-81673654D01*
X159033500Y-81673637D01*
X159033500Y-80726362D01*
X159033499Y-80726345D01*
X159030157Y-80695270D01*
X159026989Y-80665799D01*
X158975889Y-80528796D01*
X158888261Y-80411739D01*
X158771204Y-80324111D01*
X158634203Y-80273011D01*
X158573654Y-80266500D01*
X158573638Y-80266500D01*
X157626362Y-80266500D01*
X157626345Y-80266500D01*
X157565797Y-80273011D01*
X157565795Y-80273011D01*
X157428795Y-80324111D01*
X157311739Y-80411739D01*
X157218796Y-80535896D01*
X157217290Y-80534768D01*
X157215607Y-80536451D01*
X157210012Y-80548703D01*
X157191381Y-80560675D01*
X157175724Y-80576333D01*
X157161283Y-80580018D01*
X157151234Y-80586477D01*
X157116299Y-80591500D01*
X156914868Y-80591500D01*
X156847829Y-80571815D01*
X156814551Y-80540387D01*
X156721792Y-80412715D01*
X156587285Y-80278208D01*
X156480079Y-80200318D01*
X156472848Y-80195064D01*
X156430183Y-80139733D01*
X156424204Y-80070120D01*
X156456810Y-80008325D01*
X156472850Y-79994427D01*
X156581744Y-79915312D01*
X156715310Y-79781746D01*
X156715314Y-79781741D01*
X156826329Y-79628940D01*
X156912085Y-79460637D01*
X156970451Y-79281002D01*
X156975362Y-79250000D01*
X156044975Y-79250000D01*
X156080070Y-79214905D01*
X156126148Y-79135095D01*
X156150000Y-79046078D01*
X156150000Y-78953922D01*
X156126148Y-78864905D01*
X156080070Y-78785095D01*
X156044975Y-78750000D01*
X156975362Y-78750000D01*
X156970451Y-78718997D01*
X156912085Y-78539362D01*
X156826329Y-78371059D01*
X156715314Y-78218258D01*
X156715310Y-78218253D01*
X156581742Y-78084685D01*
X156472849Y-78005571D01*
X156430183Y-77950242D01*
X156424204Y-77880628D01*
X156456809Y-77818833D01*
X156472844Y-77804938D01*
X156587285Y-77721792D01*
X156721792Y-77587285D01*
X156814551Y-77459613D01*
X156818882Y-77456273D01*
X156821155Y-77451297D01*
X156846254Y-77435166D01*
X156869880Y-77416949D01*
X156876551Y-77415696D01*
X156879933Y-77413523D01*
X156914868Y-77408500D01*
X157116299Y-77408500D01*
X157183338Y-77428185D01*
X157217608Y-77464992D01*
X157218796Y-77464104D01*
X157224110Y-77471203D01*
X157224111Y-77471204D01*
X157311739Y-77588261D01*
X157428796Y-77675889D01*
X157565799Y-77726989D01*
X157593050Y-77729918D01*
X157626345Y-77733499D01*
X157626362Y-77733500D01*
X158573638Y-77733500D01*
X158573654Y-77733499D01*
X158600692Y-77730591D01*
X158634201Y-77726989D01*
X158771204Y-77675889D01*
X158888261Y-77588261D01*
X158975889Y-77471204D01*
X159026989Y-77334201D01*
X159032382Y-77284039D01*
X159033499Y-77273654D01*
X159033500Y-77273637D01*
X159033500Y-76326362D01*
X159033499Y-76326345D01*
X159030157Y-76295270D01*
X159026989Y-76265799D01*
X159020727Y-76249011D01*
X158993870Y-76177004D01*
X158975889Y-76128796D01*
X158888261Y-76011739D01*
X158771204Y-75924111D01*
X158634203Y-75873011D01*
X158573654Y-75866500D01*
X158573638Y-75866500D01*
X157626362Y-75866500D01*
X157626345Y-75866500D01*
X157565797Y-75873011D01*
X157565795Y-75873011D01*
X157428795Y-75924111D01*
X157311739Y-76011739D01*
X157218796Y-76135896D01*
X157217290Y-76134768D01*
X157215607Y-76136451D01*
X157210012Y-76148703D01*
X157191381Y-76160675D01*
X157175724Y-76176333D01*
X157161283Y-76180018D01*
X157151234Y-76186477D01*
X157116299Y-76191500D01*
X156914868Y-76191500D01*
X156847829Y-76171815D01*
X156814551Y-76140387D01*
X156721792Y-76012715D01*
X156587285Y-75878208D01*
X156433392Y-75766398D01*
X156263907Y-75680040D01*
X156082991Y-75621256D01*
X155895116Y-75591500D01*
X155895111Y-75591500D01*
X155704889Y-75591500D01*
X155704884Y-75591500D01*
X155517008Y-75621256D01*
X155336092Y-75680040D01*
X155166607Y-75766398D01*
X155078806Y-75830189D01*
X155012715Y-75878208D01*
X155012713Y-75878210D01*
X155012712Y-75878210D01*
X154878210Y-76012712D01*
X154878210Y-76012713D01*
X154878208Y-76012715D01*
X154853280Y-76047026D01*
X154766398Y-76166607D01*
X154680040Y-76336092D01*
X154621256Y-76517008D01*
X154591500Y-76704883D01*
X154591500Y-76895116D01*
X154621256Y-77082991D01*
X154680040Y-77263907D01*
X154752441Y-77406000D01*
X154766398Y-77433392D01*
X154878208Y-77587285D01*
X155012715Y-77721792D01*
X155028830Y-77733500D01*
X155127151Y-77804935D01*
X155169816Y-77860266D01*
X155175795Y-77929879D01*
X155143189Y-77991674D01*
X155127150Y-78005571D01*
X155018258Y-78084685D01*
X155018253Y-78084689D01*
X154884689Y-78218253D01*
X154884685Y-78218258D01*
X154773670Y-78371059D01*
X154687914Y-78539362D01*
X154629548Y-78718997D01*
X154624638Y-78750000D01*
X155555025Y-78750000D01*
X155519930Y-78785095D01*
X155473852Y-78864905D01*
X155450000Y-78953922D01*
X155450000Y-79046078D01*
X155473852Y-79135095D01*
X155519930Y-79214905D01*
X155555025Y-79250000D01*
X154624638Y-79250000D01*
X154629548Y-79281002D01*
X154687914Y-79460637D01*
X154773670Y-79628940D01*
X154884685Y-79781741D01*
X154884689Y-79781746D01*
X155018251Y-79915308D01*
X155127150Y-79994427D01*
X155169816Y-80049757D01*
X155175795Y-80119370D01*
X155143190Y-80181166D01*
X155127152Y-80195063D01*
X155012715Y-80278207D01*
X154878210Y-80412712D01*
X154878210Y-80412713D01*
X154878208Y-80412715D01*
X154830189Y-80478806D01*
X154766398Y-80566607D01*
X154680040Y-80736092D01*
X154621256Y-80917008D01*
X154591500Y-81104883D01*
X154591500Y-81295116D01*
X154621256Y-81482991D01*
X154680040Y-81663907D01*
X154715858Y-81734202D01*
X154766398Y-81833392D01*
X154878208Y-81987285D01*
X155012715Y-82121792D01*
X155083007Y-82172862D01*
X155127151Y-82204935D01*
X155169816Y-82260266D01*
X155175795Y-82329879D01*
X155143189Y-82391674D01*
X155127150Y-82405571D01*
X155018258Y-82484685D01*
X155018253Y-82484689D01*
X154884689Y-82618253D01*
X154884685Y-82618258D01*
X154773670Y-82771059D01*
X154687914Y-82939362D01*
X154629548Y-83118997D01*
X154624638Y-83150000D01*
X155555025Y-83150000D01*
X155519930Y-83185095D01*
X155473852Y-83264905D01*
X155450000Y-83353922D01*
X155450000Y-83446078D01*
X155473852Y-83535095D01*
X155519930Y-83614905D01*
X155555025Y-83650000D01*
X154624638Y-83650000D01*
X154629548Y-83681002D01*
X154652838Y-83752682D01*
X154654833Y-83822523D01*
X154618752Y-83882356D01*
X154556051Y-83913184D01*
X154534907Y-83915000D01*
X149454030Y-83915000D01*
X149386991Y-83895315D01*
X149341236Y-83842511D01*
X149331292Y-83773353D01*
X149336099Y-83752681D01*
X149341800Y-83735137D01*
X149358743Y-83682991D01*
X149366874Y-83631653D01*
X149388500Y-83495116D01*
X149388500Y-83304883D01*
X149358743Y-83117008D01*
X149299959Y-82936092D01*
X149254402Y-82846683D01*
X149213602Y-82766608D01*
X149101792Y-82612715D01*
X148967285Y-82478208D01*
X148860076Y-82400316D01*
X148817413Y-82344988D01*
X148811434Y-82275375D01*
X148844040Y-82213580D01*
X148860073Y-82199685D01*
X148967285Y-82121792D01*
X149101792Y-81987285D01*
X149213602Y-81833392D01*
X149299961Y-81663903D01*
X149358743Y-81482991D01*
X149374285Y-81384863D01*
X149388500Y-81295116D01*
X149388500Y-81104883D01*
X149358743Y-80917008D01*
X149299959Y-80736092D01*
X149226285Y-80591500D01*
X149213602Y-80566608D01*
X149101792Y-80412715D01*
X148967285Y-80278208D01*
X148860076Y-80200316D01*
X148817413Y-80144988D01*
X148811434Y-80075375D01*
X148844040Y-80013580D01*
X148860073Y-79999685D01*
X148967285Y-79921792D01*
X149101792Y-79787285D01*
X149213602Y-79633392D01*
X149299961Y-79463903D01*
X149358743Y-79282991D01*
X149363968Y-79250000D01*
X149388500Y-79095116D01*
X149388500Y-78904883D01*
X149358743Y-78717008D01*
X149299959Y-78536092D01*
X149222048Y-78383185D01*
X149213602Y-78366608D01*
X149101792Y-78212715D01*
X148967285Y-78078208D01*
X148860076Y-78000316D01*
X148817413Y-77944988D01*
X148811434Y-77875375D01*
X148844040Y-77813580D01*
X148860073Y-77799685D01*
X148967285Y-77721792D01*
X149101792Y-77587285D01*
X149213602Y-77433392D01*
X149299961Y-77263903D01*
X149358743Y-77082991D01*
X149366299Y-77035285D01*
X149388500Y-76895116D01*
X149388500Y-76704883D01*
X149358743Y-76517008D01*
X149318345Y-76392678D01*
X149299961Y-76336097D01*
X149299959Y-76336094D01*
X149299959Y-76336092D01*
X149226285Y-76191500D01*
X149213602Y-76166608D01*
X149210084Y-76161766D01*
X149205448Y-76155384D01*
X149181969Y-76089577D01*
X149197795Y-76021524D01*
X149247902Y-75972830D01*
X149305767Y-75958500D01*
X151630109Y-75958500D01*
X151630110Y-75958500D01*
X151630111Y-75958500D01*
X151758453Y-75924111D01*
X151758454Y-75924111D01*
X151784871Y-75917033D01*
X151784871Y-75917032D01*
X151784873Y-75917032D01*
X151923627Y-75836922D01*
X159108476Y-68652071D01*
X159169797Y-68618588D01*
X159239489Y-68623572D01*
X159295422Y-68665444D01*
X159318628Y-68720356D01*
X159349951Y-68918117D01*
X159416026Y-69121480D01*
X159416027Y-69121483D01*
X159482066Y-69251090D01*
X159513106Y-69312009D01*
X159638794Y-69485004D01*
X159638796Y-69485006D01*
X159777070Y-69623280D01*
X159810555Y-69684603D01*
X159805571Y-69754295D01*
X159763699Y-69810228D01*
X159754486Y-69816499D01*
X159606659Y-69907680D01*
X159606655Y-69907683D01*
X159482684Y-70031654D01*
X159390643Y-70180875D01*
X159390641Y-70180880D01*
X159335494Y-70347302D01*
X159335493Y-70347309D01*
X159325000Y-70450013D01*
X159325000Y-70850000D01*
X160395854Y-70850000D01*
X160357370Y-70916657D01*
X160325000Y-71037465D01*
X160325000Y-71162535D01*
X160357370Y-71283343D01*
X160395854Y-71350000D01*
X159325001Y-71350000D01*
X159325001Y-71749986D01*
X159335494Y-71852697D01*
X159390641Y-72019119D01*
X159390643Y-72019124D01*
X159482684Y-72168345D01*
X159606654Y-72292315D01*
X159755875Y-72384356D01*
X159755880Y-72384358D01*
X159922302Y-72439505D01*
X159922309Y-72439506D01*
X160025019Y-72449999D01*
X160549999Y-72449999D01*
X160550000Y-72449998D01*
X160550000Y-71504145D01*
X160616657Y-71542630D01*
X160737465Y-71575000D01*
X160862535Y-71575000D01*
X160983343Y-71542630D01*
X161050000Y-71504145D01*
X161050000Y-72449999D01*
X161574972Y-72449999D01*
X161574986Y-72449998D01*
X161677697Y-72439505D01*
X161844119Y-72384358D01*
X161844124Y-72384356D01*
X161993345Y-72292315D01*
X162117315Y-72168345D01*
X162209356Y-72019124D01*
X162209358Y-72019119D01*
X162264505Y-71852697D01*
X162264506Y-71852690D01*
X162274999Y-71749986D01*
X162275000Y-71749973D01*
X162275000Y-71350000D01*
X161204146Y-71350000D01*
X161242630Y-71283343D01*
X161275000Y-71162535D01*
X161275000Y-71037465D01*
X161242630Y-70916657D01*
X161204146Y-70850000D01*
X162274999Y-70850000D01*
X162274999Y-70450028D01*
X162274998Y-70450013D01*
X162264505Y-70347302D01*
X162209358Y-70180880D01*
X162209356Y-70180875D01*
X162117315Y-70031654D01*
X161993344Y-69907683D01*
X161993340Y-69907680D01*
X161845513Y-69816499D01*
X161798788Y-69764551D01*
X161787567Y-69695589D01*
X161815410Y-69631507D01*
X161822907Y-69623302D01*
X161961206Y-69485004D01*
X162086894Y-69312009D01*
X162183972Y-69121483D01*
X162250049Y-68918116D01*
X162283500Y-68706916D01*
X162283500Y-68493084D01*
X162250049Y-68281884D01*
X162210285Y-68159500D01*
X162183973Y-68078519D01*
X162183972Y-68078516D01*
X162086893Y-67887990D01*
X162038174Y-67820934D01*
X161961206Y-67714996D01*
X161810004Y-67563794D01*
X161810000Y-67563791D01*
X161653818Y-67450318D01*
X161611152Y-67394988D01*
X161605173Y-67325375D01*
X161637779Y-67263580D01*
X161653818Y-67249682D01*
X161759335Y-67173019D01*
X161810004Y-67136206D01*
X161961206Y-66985004D01*
X162086894Y-66812009D01*
X162183972Y-66621483D01*
X162250049Y-66418116D01*
X162283500Y-66206916D01*
X162283500Y-65993084D01*
X162250049Y-65781884D01*
X162183972Y-65578517D01*
X162183972Y-65578516D01*
X162128039Y-65468743D01*
X162086894Y-65387991D01*
X161961206Y-65214996D01*
X161810004Y-65063794D01*
X161780569Y-65042408D01*
X161653818Y-64950318D01*
X161611152Y-64894988D01*
X161605173Y-64825375D01*
X161637779Y-64763580D01*
X161653818Y-64749682D01*
X161704200Y-64713076D01*
X161810004Y-64636206D01*
X161961206Y-64485004D01*
X162086894Y-64312009D01*
X162183972Y-64121483D01*
X162250049Y-63918116D01*
X162283500Y-63706916D01*
X162283500Y-63493084D01*
X162250049Y-63281884D01*
X162183972Y-63078517D01*
X162183972Y-63078516D01*
X162130786Y-62974134D01*
X162086894Y-62887991D01*
X161961206Y-62714996D01*
X161810004Y-62563794D01*
X161790403Y-62549553D01*
X161653818Y-62450318D01*
X161611152Y-62394988D01*
X161605173Y-62325375D01*
X161637779Y-62263580D01*
X161653818Y-62249682D01*
X161727706Y-62195999D01*
X161810004Y-62136206D01*
X161961206Y-61985004D01*
X162086894Y-61812009D01*
X162183972Y-61621483D01*
X162250049Y-61418116D01*
X162283500Y-61206916D01*
X162283500Y-60993084D01*
X162250049Y-60781884D01*
X162183972Y-60578517D01*
X162183972Y-60578516D01*
X162086893Y-60387990D01*
X162081476Y-60380534D01*
X161961206Y-60214996D01*
X161810004Y-60063794D01*
X161810000Y-60063791D01*
X161653818Y-59950318D01*
X161611152Y-59894988D01*
X161605173Y-59825375D01*
X161637779Y-59763580D01*
X161653818Y-59749682D01*
X161704200Y-59713076D01*
X161810004Y-59636206D01*
X161961206Y-59485004D01*
X162086894Y-59312009D01*
X162183972Y-59121483D01*
X162250049Y-58918116D01*
X162283500Y-58706916D01*
X162283500Y-58493084D01*
X162250049Y-58281884D01*
X162195202Y-58113079D01*
X162183973Y-58078519D01*
X162183972Y-58078516D01*
X162086893Y-57887990D01*
X162038174Y-57820934D01*
X161961206Y-57714996D01*
X161810004Y-57563794D01*
X161687868Y-57475057D01*
X161653818Y-57450318D01*
X161611152Y-57394988D01*
X161605173Y-57325375D01*
X161637779Y-57263580D01*
X161653818Y-57249682D01*
X161704200Y-57213076D01*
X161810004Y-57136206D01*
X161961206Y-56985004D01*
X162086894Y-56812009D01*
X162183972Y-56621483D01*
X162250049Y-56418116D01*
X162283500Y-56206916D01*
X162283500Y-55993084D01*
X162250049Y-55781884D01*
X162183972Y-55578517D01*
X162183972Y-55578516D01*
X162086893Y-55387990D01*
X162081476Y-55380534D01*
X161961206Y-55214996D01*
X161810004Y-55063794D01*
X161810000Y-55063791D01*
X161653818Y-54950318D01*
X161611152Y-54894988D01*
X161605173Y-54825375D01*
X161637779Y-54763580D01*
X161653818Y-54749682D01*
X161704200Y-54713076D01*
X161810004Y-54636206D01*
X161961206Y-54485004D01*
X162086894Y-54312009D01*
X162183972Y-54121483D01*
X162250049Y-53918116D01*
X162283500Y-53706916D01*
X162283500Y-53493084D01*
X162250049Y-53281884D01*
X162217010Y-53180200D01*
X162183973Y-53078519D01*
X162183972Y-53078516D01*
X162134507Y-52981438D01*
X162086894Y-52887991D01*
X161961206Y-52714996D01*
X161810004Y-52563794D01*
X161637009Y-52438106D01*
X161446483Y-52341027D01*
X161446480Y-52341026D01*
X161243117Y-52274951D01*
X161137516Y-52258225D01*
X161031916Y-52241500D01*
X160568084Y-52241500D01*
X160497684Y-52252650D01*
X160356882Y-52274951D01*
X160153519Y-52341026D01*
X160153516Y-52341027D01*
X159962990Y-52438106D01*
X159789993Y-52563796D01*
X159638796Y-52714993D01*
X159513106Y-52887990D01*
X159416027Y-53078516D01*
X159416026Y-53078519D01*
X159349951Y-53281882D01*
X159316500Y-53493084D01*
X159316500Y-53706915D01*
X159349951Y-53918117D01*
X159416026Y-54121480D01*
X159416027Y-54121483D01*
X159513106Y-54312009D01*
X159638794Y-54485004D01*
X159789996Y-54636206D01*
X159892344Y-54710566D01*
X159946182Y-54749682D01*
X159988847Y-54805012D01*
X159994826Y-54874626D01*
X159962220Y-54936421D01*
X159946182Y-54950318D01*
X159877297Y-55000365D01*
X159789996Y-55063794D01*
X159789994Y-55063796D01*
X159789993Y-55063796D01*
X159638796Y-55214993D01*
X159513106Y-55387990D01*
X159416027Y-55578516D01*
X159416026Y-55578519D01*
X159349951Y-55781882D01*
X159316500Y-55993084D01*
X159316500Y-56206915D01*
X159349951Y-56418117D01*
X159416026Y-56621480D01*
X159416027Y-56621483D01*
X159513106Y-56812009D01*
X159638794Y-56985004D01*
X159789996Y-57136206D01*
X159892344Y-57210566D01*
X159946182Y-57249682D01*
X159988847Y-57305012D01*
X159994826Y-57374626D01*
X159962220Y-57436421D01*
X159946182Y-57450318D01*
X159912132Y-57475057D01*
X159789996Y-57563794D01*
X159789994Y-57563796D01*
X159789993Y-57563796D01*
X159638796Y-57714993D01*
X159513106Y-57887990D01*
X159494863Y-57923795D01*
X159446888Y-57974591D01*
X159384378Y-57991500D01*
X139111589Y-57991500D01*
X138956828Y-58032968D01*
X138956825Y-58032969D01*
X138818076Y-58113075D01*
X138818071Y-58113079D01*
X110152439Y-86778711D01*
X110091116Y-86812196D01*
X110021424Y-86807212D01*
X109977077Y-86778711D01*
X109954714Y-86756348D01*
X109954712Y-86756346D01*
X109807186Y-86649162D01*
X109644714Y-86566377D01*
X109471283Y-86510025D01*
X109360460Y-86492473D01*
X109297325Y-86462544D01*
X109260394Y-86403232D01*
X109261392Y-86333370D01*
X109300002Y-86275137D01*
X109360460Y-86247527D01*
X109471283Y-86229974D01*
X109644710Y-86173624D01*
X109807186Y-86090838D01*
X109954712Y-85983654D01*
X110083654Y-85854712D01*
X110190838Y-85707186D01*
X110273624Y-85544710D01*
X110329974Y-85371283D01*
X110338068Y-85320181D01*
X110358500Y-85191181D01*
X110358500Y-85008818D01*
X110329974Y-84828716D01*
X110295072Y-84721300D01*
X110273624Y-84655290D01*
X110273622Y-84655287D01*
X110273622Y-84655285D01*
X110229950Y-84569575D01*
X110190838Y-84492814D01*
X110083654Y-84345288D01*
X109954712Y-84216346D01*
X109807186Y-84109162D01*
X109644714Y-84026377D01*
X109471283Y-83970025D01*
X109360460Y-83952473D01*
X109297325Y-83922544D01*
X109260394Y-83863232D01*
X109261392Y-83793370D01*
X109300002Y-83735137D01*
X109360460Y-83707527D01*
X109471283Y-83689974D01*
X109501764Y-83680070D01*
X109644710Y-83633624D01*
X109807186Y-83550838D01*
X109954712Y-83443654D01*
X110083654Y-83314712D01*
X110190838Y-83167186D01*
X110273624Y-83004710D01*
X110329974Y-82831283D01*
X110330319Y-82829102D01*
X110358500Y-82651181D01*
X110358500Y-82468818D01*
X110329974Y-82288716D01*
X110303828Y-82208250D01*
X110273624Y-82115290D01*
X110273622Y-82115287D01*
X110273622Y-82115285D01*
X110208899Y-81988261D01*
X110190838Y-81952814D01*
X110083654Y-81805288D01*
X109954712Y-81676346D01*
X109807186Y-81569162D01*
X109764280Y-81547300D01*
X109644714Y-81486377D01*
X109471283Y-81430025D01*
X109360460Y-81412473D01*
X109297325Y-81382544D01*
X109260394Y-81323232D01*
X109261392Y-81253370D01*
X109300002Y-81195137D01*
X109360460Y-81167527D01*
X109471283Y-81149974D01*
X109644710Y-81093624D01*
X109807186Y-81010838D01*
X109954712Y-80903654D01*
X110083654Y-80774712D01*
X110190838Y-80627186D01*
X110273624Y-80464710D01*
X110329974Y-80291283D01*
X110333899Y-80266500D01*
X110358500Y-80111181D01*
X110358500Y-79928818D01*
X110329974Y-79748716D01*
X110303828Y-79668250D01*
X110273624Y-79575290D01*
X110273622Y-79575287D01*
X110273622Y-79575285D01*
X110190837Y-79412813D01*
X110189858Y-79411465D01*
X110083654Y-79265288D01*
X109954712Y-79136346D01*
X109807186Y-79029162D01*
X109770558Y-79010499D01*
X109644714Y-78946377D01*
X109471283Y-78890025D01*
X109360460Y-78872473D01*
X109297325Y-78842544D01*
X109260394Y-78783232D01*
X109261392Y-78713370D01*
X109300002Y-78655137D01*
X109360460Y-78627527D01*
X109471283Y-78609974D01*
X109644710Y-78553624D01*
X109807186Y-78470838D01*
X109954712Y-78363654D01*
X110083654Y-78234712D01*
X110190838Y-78087186D01*
X110273624Y-77924710D01*
X110329974Y-77751283D01*
X110339798Y-77689255D01*
X110358500Y-77571181D01*
X110358500Y-77388818D01*
X110329974Y-77208716D01*
X110273622Y-77035285D01*
X110199722Y-76890250D01*
X110190838Y-76872814D01*
X110083654Y-76725288D01*
X109954712Y-76596346D01*
X109807186Y-76489162D01*
X109644714Y-76406377D01*
X109471283Y-76350025D01*
X109291181Y-76321500D01*
X109291176Y-76321500D01*
X108527320Y-76321500D01*
X108460281Y-76301815D01*
X108414526Y-76249011D01*
X108404582Y-76179853D01*
X108433607Y-76116297D01*
X108439639Y-76109819D01*
X109810792Y-74738666D01*
X113998986Y-70550470D01*
X114060307Y-70516987D01*
X114118757Y-70518378D01*
X114156198Y-70528411D01*
X114384742Y-70558500D01*
X114384749Y-70558500D01*
X114615251Y-70558500D01*
X114615258Y-70558500D01*
X114843802Y-70528411D01*
X115066464Y-70468749D01*
X115066476Y-70468743D01*
X115066479Y-70468743D01*
X115279423Y-70380539D01*
X115279421Y-70380539D01*
X115279433Y-70380535D01*
X115479066Y-70265276D01*
X115661947Y-70124947D01*
X115824947Y-69961947D01*
X115965276Y-69779066D01*
X116080535Y-69579433D01*
X116119648Y-69485006D01*
X116168743Y-69366479D01*
X116168743Y-69366476D01*
X116168749Y-69366464D01*
X116228411Y-69143802D01*
X116258500Y-68915258D01*
X116258500Y-68684742D01*
X116228411Y-68456198D01*
X116168749Y-68233536D01*
X116168744Y-68233525D01*
X116168743Y-68233520D01*
X116080539Y-68020576D01*
X116080534Y-68020566D01*
X116073568Y-68008500D01*
X115965276Y-67820934D01*
X115883985Y-67714993D01*
X115824948Y-67638054D01*
X115824942Y-67638047D01*
X115661952Y-67475057D01*
X115661945Y-67475051D01*
X115479074Y-67334730D01*
X115479072Y-67334729D01*
X115479066Y-67334724D01*
X115279433Y-67219465D01*
X115279423Y-67219460D01*
X115066479Y-67131256D01*
X115066466Y-67131252D01*
X115066467Y-67131252D01*
X115066464Y-67131251D01*
X114843802Y-67071589D01*
X114843801Y-67071588D01*
X114843798Y-67071588D01*
X114615265Y-67041500D01*
X114615258Y-67041500D01*
X114384742Y-67041500D01*
X114384734Y-67041500D01*
X114156201Y-67071588D01*
X114044867Y-67101420D01*
X113933536Y-67131251D01*
X113933534Y-67131251D01*
X113933533Y-67131252D01*
X113933520Y-67131256D01*
X113720576Y-67219460D01*
X113720566Y-67219465D01*
X113520934Y-67334724D01*
X113520925Y-67334730D01*
X113338054Y-67475051D01*
X113338047Y-67475057D01*
X113175057Y-67638047D01*
X113175051Y-67638054D01*
X113034730Y-67820925D01*
X113034724Y-67820934D01*
X112919465Y-68020566D01*
X112919460Y-68020576D01*
X112831256Y-68233520D01*
X112831252Y-68233533D01*
X112771588Y-68456201D01*
X112741500Y-68684734D01*
X112741500Y-68915265D01*
X112756062Y-69025865D01*
X112771588Y-69143798D01*
X112771589Y-69143800D01*
X112771591Y-69143812D01*
X112781620Y-69181240D01*
X112779957Y-69251090D01*
X112749526Y-69301014D01*
X104950043Y-77100497D01*
X104950040Y-77100501D01*
X104853350Y-77245207D01*
X104853349Y-77245209D01*
X104792141Y-77392982D01*
X104786753Y-77405988D01*
X104786750Y-77406000D01*
X104752800Y-77576678D01*
X104752800Y-84446379D01*
X104733115Y-84513418D01*
X104716481Y-84534060D01*
X102705139Y-86545401D01*
X102643816Y-86578886D01*
X102585365Y-86577495D01*
X102392678Y-86525865D01*
X102131653Y-86491501D01*
X102131650Y-86491500D01*
X102131644Y-86491500D01*
X101868356Y-86491500D01*
X101868350Y-86491500D01*
X101868346Y-86491501D01*
X101607321Y-86525865D01*
X101353004Y-86594009D01*
X101109765Y-86694761D01*
X101109749Y-86694769D01*
X100881743Y-86826409D01*
X100672863Y-86986687D01*
X100672856Y-86986693D01*
X100486693Y-87172856D01*
X100486687Y-87172863D01*
X100326409Y-87381743D01*
X100194769Y-87609749D01*
X100194761Y-87609765D01*
X100094009Y-87853004D01*
X100025865Y-88107321D01*
X99991501Y-88368346D01*
X99991500Y-88368362D01*
X99025500Y-88368362D01*
X99025500Y-83368362D01*
X99991500Y-83368362D01*
X99991500Y-83631637D01*
X99991501Y-83631653D01*
X100025865Y-83892678D01*
X100094009Y-84146995D01*
X100194761Y-84390234D01*
X100194769Y-84390250D01*
X100326409Y-84618256D01*
X100486687Y-84827136D01*
X100486693Y-84827143D01*
X100672856Y-85013306D01*
X100672863Y-85013312D01*
X100881743Y-85173590D01*
X101109749Y-85305230D01*
X101109765Y-85305238D01*
X101226682Y-85353666D01*
X101353003Y-85405990D01*
X101607320Y-85474134D01*
X101868356Y-85508500D01*
X101868363Y-85508500D01*
X102131637Y-85508500D01*
X102131644Y-85508500D01*
X102392680Y-85474134D01*
X102646997Y-85405990D01*
X102854158Y-85320181D01*
X102890234Y-85305238D01*
X102890237Y-85305236D01*
X102890243Y-85305234D01*
X103118257Y-85173590D01*
X103327138Y-85013311D01*
X103513311Y-84827138D01*
X103673590Y-84618257D01*
X103805234Y-84390243D01*
X103810392Y-84377792D01*
X103834090Y-84320579D01*
X103905990Y-84146997D01*
X103974134Y-83892680D01*
X104008500Y-83631644D01*
X104008500Y-83368356D01*
X103974134Y-83107320D01*
X103905990Y-82853003D01*
X103868068Y-82761451D01*
X103805238Y-82609765D01*
X103805230Y-82609749D01*
X103673590Y-82381743D01*
X103513312Y-82172863D01*
X103513306Y-82172856D01*
X103327143Y-81986693D01*
X103327136Y-81986687D01*
X103118256Y-81826409D01*
X102890250Y-81694769D01*
X102890234Y-81694761D01*
X102646995Y-81594009D01*
X102392678Y-81525865D01*
X102131653Y-81491501D01*
X102131650Y-81491500D01*
X102131644Y-81491500D01*
X101868356Y-81491500D01*
X101868350Y-81491500D01*
X101868346Y-81491501D01*
X101607321Y-81525865D01*
X101353004Y-81594009D01*
X101109765Y-81694761D01*
X101109749Y-81694769D01*
X100881743Y-81826409D01*
X100672863Y-81986687D01*
X100672856Y-81986693D01*
X100486693Y-82172856D01*
X100486687Y-82172863D01*
X100326409Y-82381743D01*
X100194769Y-82609749D01*
X100194761Y-82609765D01*
X100094009Y-82853004D01*
X100025865Y-83107321D01*
X99991501Y-83368346D01*
X99991500Y-83368362D01*
X99025500Y-83368362D01*
X99025500Y-75868362D01*
X99991500Y-75868362D01*
X99991500Y-76131637D01*
X99991501Y-76131653D01*
X100025865Y-76392678D01*
X100094009Y-76646995D01*
X100194761Y-76890234D01*
X100194769Y-76890250D01*
X100326409Y-77118256D01*
X100486687Y-77327136D01*
X100486693Y-77327143D01*
X100672856Y-77513306D01*
X100672863Y-77513312D01*
X100881743Y-77673590D01*
X101109749Y-77805230D01*
X101109765Y-77805238D01*
X101194010Y-77840133D01*
X101353003Y-77905990D01*
X101607320Y-77974134D01*
X101868356Y-78008500D01*
X101868363Y-78008500D01*
X102131637Y-78008500D01*
X102131644Y-78008500D01*
X102392680Y-77974134D01*
X102646997Y-77905990D01*
X102874797Y-77811632D01*
X102890234Y-77805238D01*
X102890237Y-77805236D01*
X102890243Y-77805234D01*
X103118257Y-77673590D01*
X103327138Y-77513311D01*
X103513311Y-77327138D01*
X103673590Y-77118257D01*
X103805234Y-76890243D01*
X103812454Y-76872814D01*
X103845206Y-76793743D01*
X103905990Y-76646997D01*
X103974134Y-76392680D01*
X104008500Y-76131644D01*
X104008500Y-75868356D01*
X103974134Y-75607320D01*
X103905990Y-75353003D01*
X103868068Y-75261451D01*
X103805238Y-75109765D01*
X103805230Y-75109749D01*
X103673590Y-74881743D01*
X103513312Y-74672863D01*
X103513306Y-74672856D01*
X103327143Y-74486693D01*
X103327136Y-74486687D01*
X103118256Y-74326409D01*
X102890250Y-74194769D01*
X102890234Y-74194761D01*
X102646995Y-74094009D01*
X102392678Y-74025865D01*
X102131653Y-73991501D01*
X102131650Y-73991500D01*
X102131644Y-73991500D01*
X101868356Y-73991500D01*
X101868350Y-73991500D01*
X101868346Y-73991501D01*
X101607321Y-74025865D01*
X101353004Y-74094009D01*
X101109765Y-74194761D01*
X101109749Y-74194769D01*
X100881743Y-74326409D01*
X100672863Y-74486687D01*
X100672856Y-74486693D01*
X100486693Y-74672856D01*
X100486687Y-74672863D01*
X100326409Y-74881743D01*
X100194769Y-75109749D01*
X100194761Y-75109765D01*
X100094009Y-75353004D01*
X100025865Y-75607321D01*
X99991501Y-75868346D01*
X99991500Y-75868362D01*
X99025500Y-75868362D01*
X99025500Y-70868362D01*
X99991500Y-70868362D01*
X99991500Y-71131637D01*
X99991501Y-71131653D01*
X100025865Y-71392678D01*
X100094009Y-71646995D01*
X100194761Y-71890234D01*
X100194769Y-71890250D01*
X100326409Y-72118256D01*
X100486687Y-72327136D01*
X100486693Y-72327143D01*
X100672856Y-72513306D01*
X100672863Y-72513312D01*
X100881743Y-72673590D01*
X101109749Y-72805230D01*
X101109765Y-72805238D01*
X101261451Y-72868068D01*
X101353003Y-72905990D01*
X101607320Y-72974134D01*
X101868356Y-73008500D01*
X101868363Y-73008500D01*
X102131637Y-73008500D01*
X102131644Y-73008500D01*
X102392680Y-72974134D01*
X102646997Y-72905990D01*
X102830099Y-72830146D01*
X102890234Y-72805238D01*
X102890237Y-72805236D01*
X102890243Y-72805234D01*
X103118257Y-72673590D01*
X103327138Y-72513311D01*
X103513311Y-72327138D01*
X103673590Y-72118257D01*
X103805234Y-71890243D01*
X103905990Y-71646997D01*
X103974134Y-71392680D01*
X104008500Y-71131644D01*
X104008500Y-70868356D01*
X103974134Y-70607320D01*
X103905990Y-70353003D01*
X103868068Y-70261451D01*
X103805238Y-70109765D01*
X103805230Y-70109749D01*
X103673590Y-69881743D01*
X103513312Y-69672863D01*
X103513306Y-69672856D01*
X103327143Y-69486693D01*
X103327136Y-69486687D01*
X103118256Y-69326409D01*
X102890250Y-69194769D01*
X102890234Y-69194761D01*
X102646995Y-69094009D01*
X102392678Y-69025865D01*
X102131653Y-68991501D01*
X102131650Y-68991500D01*
X102131644Y-68991500D01*
X101868356Y-68991500D01*
X101868350Y-68991500D01*
X101868346Y-68991501D01*
X101607321Y-69025865D01*
X101353004Y-69094009D01*
X101109765Y-69194761D01*
X101109749Y-69194769D01*
X100881743Y-69326409D01*
X100672863Y-69486687D01*
X100672856Y-69486693D01*
X100486693Y-69672856D01*
X100486687Y-69672863D01*
X100326409Y-69881743D01*
X100194769Y-70109749D01*
X100194761Y-70109765D01*
X100094009Y-70353004D01*
X100025865Y-70607321D01*
X99991501Y-70868346D01*
X99991500Y-70868362D01*
X99025500Y-70868362D01*
X99025500Y-65868362D01*
X99991500Y-65868362D01*
X99991500Y-66131637D01*
X99991501Y-66131653D01*
X100025865Y-66392678D01*
X100094009Y-66646995D01*
X100194761Y-66890234D01*
X100194769Y-66890250D01*
X100326409Y-67118256D01*
X100486687Y-67327136D01*
X100486693Y-67327143D01*
X100672856Y-67513306D01*
X100672863Y-67513312D01*
X100881743Y-67673590D01*
X101109749Y-67805230D01*
X101109765Y-67805238D01*
X101261451Y-67868068D01*
X101353003Y-67905990D01*
X101607320Y-67974134D01*
X101868356Y-68008500D01*
X101868363Y-68008500D01*
X102131637Y-68008500D01*
X102131644Y-68008500D01*
X102392680Y-67974134D01*
X102646997Y-67905990D01*
X102852362Y-67820925D01*
X102890234Y-67805238D01*
X102890237Y-67805236D01*
X102890243Y-67805234D01*
X103118257Y-67673590D01*
X103327138Y-67513311D01*
X103513311Y-67327138D01*
X103673590Y-67118257D01*
X103805234Y-66890243D01*
X103905990Y-66646997D01*
X103974134Y-66392680D01*
X104008500Y-66131644D01*
X104008500Y-65868356D01*
X103974134Y-65607320D01*
X103905990Y-65353003D01*
X103848824Y-65214993D01*
X103805238Y-65109765D01*
X103805230Y-65109749D01*
X103673590Y-64881743D01*
X103513312Y-64672863D01*
X103513306Y-64672856D01*
X103327143Y-64486693D01*
X103327136Y-64486687D01*
X103118256Y-64326409D01*
X102890250Y-64194769D01*
X102890234Y-64194761D01*
X102646995Y-64094009D01*
X102392678Y-64025865D01*
X102131653Y-63991501D01*
X102131650Y-63991500D01*
X102131644Y-63991500D01*
X101868356Y-63991500D01*
X101868350Y-63991500D01*
X101868346Y-63991501D01*
X101607321Y-64025865D01*
X101353004Y-64094009D01*
X101109765Y-64194761D01*
X101109749Y-64194769D01*
X100881743Y-64326409D01*
X100672863Y-64486687D01*
X100672856Y-64486693D01*
X100486693Y-64672856D01*
X100486687Y-64672863D01*
X100326409Y-64881743D01*
X100194769Y-65109749D01*
X100194761Y-65109765D01*
X100094009Y-65353004D01*
X100025865Y-65607321D01*
X99991501Y-65868346D01*
X99991500Y-65868362D01*
X99025500Y-65868362D01*
X99025500Y-63684734D01*
X112741500Y-63684734D01*
X112741500Y-63915265D01*
X112771588Y-64143798D01*
X112771589Y-64143802D01*
X112820518Y-64326409D01*
X112831252Y-64366466D01*
X112831256Y-64366479D01*
X112919460Y-64579423D01*
X112919465Y-64579433D01*
X113034724Y-64779066D01*
X113034729Y-64779072D01*
X113034730Y-64779074D01*
X113175051Y-64961945D01*
X113175057Y-64961952D01*
X113338047Y-65124942D01*
X113338053Y-65124947D01*
X113520934Y-65265276D01*
X113720567Y-65380535D01*
X113720572Y-65380537D01*
X113720576Y-65380539D01*
X113933520Y-65468743D01*
X113933525Y-65468744D01*
X113933536Y-65468749D01*
X114156198Y-65528411D01*
X114384742Y-65558500D01*
X114384749Y-65558500D01*
X114615251Y-65558500D01*
X114615258Y-65558500D01*
X114843802Y-65528411D01*
X115066464Y-65468749D01*
X115066476Y-65468743D01*
X115066479Y-65468743D01*
X115194245Y-65415820D01*
X115279433Y-65380535D01*
X115479066Y-65265276D01*
X115661947Y-65124947D01*
X115824947Y-64961947D01*
X115965276Y-64779066D01*
X116080535Y-64579433D01*
X116119648Y-64485006D01*
X116168743Y-64366479D01*
X116168743Y-64366476D01*
X116168749Y-64366464D01*
X116228411Y-64143802D01*
X116258500Y-63915258D01*
X116258500Y-63684742D01*
X116257676Y-63678487D01*
X116237254Y-63523366D01*
X116228411Y-63456198D01*
X116168749Y-63233536D01*
X116168744Y-63233525D01*
X116168743Y-63233520D01*
X116080539Y-63020576D01*
X116080534Y-63020566D01*
X116073568Y-63008500D01*
X115965276Y-62820934D01*
X115868668Y-62695031D01*
X115824948Y-62638054D01*
X115824942Y-62638047D01*
X115661952Y-62475057D01*
X115661945Y-62475051D01*
X115479074Y-62334730D01*
X115479072Y-62334729D01*
X115479066Y-62334724D01*
X115279433Y-62219465D01*
X115279423Y-62219460D01*
X115066479Y-62131256D01*
X115066466Y-62131252D01*
X115066467Y-62131252D01*
X115066464Y-62131251D01*
X114843802Y-62071589D01*
X114843801Y-62071588D01*
X114843798Y-62071588D01*
X114615265Y-62041500D01*
X114615258Y-62041500D01*
X114384742Y-62041500D01*
X114384734Y-62041500D01*
X114156201Y-62071588D01*
X114044867Y-62101420D01*
X113933536Y-62131251D01*
X113933534Y-62131251D01*
X113933533Y-62131252D01*
X113933520Y-62131256D01*
X113720576Y-62219460D01*
X113720566Y-62219465D01*
X113520934Y-62334724D01*
X113520925Y-62334730D01*
X113338054Y-62475051D01*
X113338047Y-62475057D01*
X113175057Y-62638047D01*
X113175051Y-62638054D01*
X113034730Y-62820925D01*
X113034724Y-62820934D01*
X112919465Y-63020566D01*
X112919460Y-63020576D01*
X112831256Y-63233520D01*
X112831252Y-63233533D01*
X112831251Y-63233536D01*
X112802849Y-63339535D01*
X112771588Y-63456201D01*
X112741500Y-63684734D01*
X99025500Y-63684734D01*
X99025500Y-60868362D01*
X99991500Y-60868362D01*
X99991500Y-61131637D01*
X99991501Y-61131653D01*
X100025865Y-61392678D01*
X100094009Y-61646995D01*
X100194761Y-61890234D01*
X100194769Y-61890250D01*
X100326409Y-62118256D01*
X100486687Y-62327136D01*
X100486693Y-62327143D01*
X100672856Y-62513306D01*
X100672863Y-62513312D01*
X100881743Y-62673590D01*
X101109749Y-62805230D01*
X101109765Y-62805238D01*
X101261451Y-62868068D01*
X101353003Y-62905990D01*
X101607320Y-62974134D01*
X101868356Y-63008500D01*
X101868363Y-63008500D01*
X102131637Y-63008500D01*
X102131644Y-63008500D01*
X102392680Y-62974134D01*
X102646997Y-62905990D01*
X102852362Y-62820925D01*
X102890234Y-62805238D01*
X102890237Y-62805236D01*
X102890243Y-62805234D01*
X103118257Y-62673590D01*
X103327138Y-62513311D01*
X103513311Y-62327138D01*
X103673590Y-62118257D01*
X103805234Y-61890243D01*
X103905990Y-61646997D01*
X103974134Y-61392680D01*
X104008500Y-61131644D01*
X104008500Y-60868356D01*
X103974134Y-60607320D01*
X103905990Y-60353003D01*
X103848824Y-60214993D01*
X103805238Y-60109765D01*
X103805230Y-60109749D01*
X103673590Y-59881743D01*
X103513312Y-59672863D01*
X103513306Y-59672856D01*
X103327143Y-59486693D01*
X103327136Y-59486687D01*
X103118256Y-59326409D01*
X102890250Y-59194769D01*
X102890234Y-59194761D01*
X102646995Y-59094009D01*
X102392678Y-59025865D01*
X102131653Y-58991501D01*
X102131650Y-58991500D01*
X102131644Y-58991500D01*
X101868356Y-58991500D01*
X101868350Y-58991500D01*
X101868346Y-58991501D01*
X101607321Y-59025865D01*
X101353004Y-59094009D01*
X101109765Y-59194761D01*
X101109749Y-59194769D01*
X100881743Y-59326409D01*
X100672863Y-59486687D01*
X100672856Y-59486693D01*
X100486693Y-59672856D01*
X100486687Y-59672863D01*
X100326409Y-59881743D01*
X100194769Y-60109749D01*
X100194761Y-60109765D01*
X100094009Y-60353004D01*
X100025865Y-60607321D01*
X99991501Y-60868346D01*
X99991500Y-60868362D01*
X99025500Y-60868362D01*
X99025500Y-58684734D01*
X112741500Y-58684734D01*
X112741500Y-58915265D01*
X112771588Y-59143798D01*
X112771589Y-59143802D01*
X112820518Y-59326409D01*
X112831252Y-59366466D01*
X112831256Y-59366479D01*
X112919460Y-59579423D01*
X112919465Y-59579433D01*
X113034724Y-59779066D01*
X113034729Y-59779072D01*
X113034730Y-59779074D01*
X113175051Y-59961945D01*
X113175057Y-59961952D01*
X113338047Y-60124942D01*
X113338053Y-60124947D01*
X113520934Y-60265276D01*
X113720567Y-60380535D01*
X113720572Y-60380537D01*
X113720576Y-60380539D01*
X113933520Y-60468743D01*
X113933525Y-60468744D01*
X113933536Y-60468749D01*
X114156198Y-60528411D01*
X114384742Y-60558500D01*
X114384749Y-60558500D01*
X114615251Y-60558500D01*
X114615258Y-60558500D01*
X114843802Y-60528411D01*
X115066464Y-60468749D01*
X115066476Y-60468743D01*
X115066479Y-60468743D01*
X115279423Y-60380539D01*
X115279421Y-60380539D01*
X115279433Y-60380535D01*
X115479066Y-60265276D01*
X115661947Y-60124947D01*
X115824947Y-59961947D01*
X115965276Y-59779066D01*
X116080535Y-59579433D01*
X116119648Y-59485006D01*
X116168743Y-59366479D01*
X116168743Y-59366476D01*
X116168749Y-59366464D01*
X116228411Y-59143802D01*
X116258500Y-58915258D01*
X116258500Y-58684742D01*
X116228411Y-58456198D01*
X116168749Y-58233536D01*
X116168744Y-58233525D01*
X116168743Y-58233520D01*
X116080539Y-58020576D01*
X116080534Y-58020566D01*
X116063753Y-57991500D01*
X115965276Y-57820934D01*
X115824947Y-57638053D01*
X115824942Y-57638047D01*
X115661952Y-57475057D01*
X115661945Y-57475051D01*
X115479074Y-57334730D01*
X115479072Y-57334729D01*
X115479066Y-57334724D01*
X115279433Y-57219465D01*
X115279423Y-57219460D01*
X115066479Y-57131256D01*
X115066466Y-57131252D01*
X115066467Y-57131252D01*
X115066464Y-57131251D01*
X114843802Y-57071589D01*
X114843801Y-57071588D01*
X114843798Y-57071588D01*
X114615265Y-57041500D01*
X114615258Y-57041500D01*
X114384742Y-57041500D01*
X114384734Y-57041500D01*
X114156201Y-57071588D01*
X114044867Y-57101420D01*
X113933536Y-57131251D01*
X113933534Y-57131251D01*
X113933533Y-57131252D01*
X113933520Y-57131256D01*
X113720576Y-57219460D01*
X113720566Y-57219465D01*
X113520934Y-57334724D01*
X113520925Y-57334730D01*
X113338054Y-57475051D01*
X113338047Y-57475057D01*
X113175057Y-57638047D01*
X113175051Y-57638054D01*
X113034730Y-57820925D01*
X113034724Y-57820934D01*
X112919465Y-58020566D01*
X112919460Y-58020576D01*
X112831256Y-58233520D01*
X112831252Y-58233533D01*
X112771588Y-58456201D01*
X112741500Y-58684734D01*
X99025500Y-58684734D01*
X99025500Y-53368362D01*
X99991500Y-53368362D01*
X99991500Y-53631637D01*
X99991501Y-53631653D01*
X100025865Y-53892678D01*
X100094009Y-54146995D01*
X100194761Y-54390234D01*
X100194769Y-54390250D01*
X100326409Y-54618256D01*
X100486687Y-54827136D01*
X100486693Y-54827143D01*
X100672856Y-55013306D01*
X100672863Y-55013312D01*
X100881743Y-55173590D01*
X101109749Y-55305230D01*
X101109765Y-55305238D01*
X101261451Y-55368068D01*
X101353003Y-55405990D01*
X101607320Y-55474134D01*
X101868356Y-55508500D01*
X101868363Y-55508500D01*
X102131637Y-55508500D01*
X102131644Y-55508500D01*
X102392680Y-55474134D01*
X102646997Y-55405990D01*
X102830099Y-55330146D01*
X102890234Y-55305238D01*
X102890237Y-55305236D01*
X102890243Y-55305234D01*
X103118257Y-55173590D01*
X103327138Y-55013311D01*
X103513311Y-54827138D01*
X103673590Y-54618257D01*
X103805234Y-54390243D01*
X103815078Y-54366479D01*
X103837640Y-54312009D01*
X103905990Y-54146997D01*
X103974134Y-53892680D01*
X103998590Y-53706916D01*
X104001511Y-53684734D01*
X112741500Y-53684734D01*
X112741500Y-53915265D01*
X112771588Y-54143798D01*
X112831252Y-54366466D01*
X112831256Y-54366479D01*
X112919460Y-54579423D01*
X112919465Y-54579433D01*
X113034724Y-54779066D01*
X113034729Y-54779072D01*
X113034730Y-54779074D01*
X113175051Y-54961945D01*
X113175057Y-54961952D01*
X113338047Y-55124942D01*
X113338053Y-55124947D01*
X113520934Y-55265276D01*
X113720567Y-55380535D01*
X113720572Y-55380537D01*
X113720576Y-55380539D01*
X113933520Y-55468743D01*
X113933525Y-55468744D01*
X113933536Y-55468749D01*
X114156198Y-55528411D01*
X114384742Y-55558500D01*
X114384749Y-55558500D01*
X114615251Y-55558500D01*
X114615258Y-55558500D01*
X114843802Y-55528411D01*
X115066464Y-55468749D01*
X115066476Y-55468743D01*
X115066479Y-55468743D01*
X115279423Y-55380539D01*
X115279421Y-55380539D01*
X115279433Y-55380535D01*
X115479066Y-55265276D01*
X115661947Y-55124947D01*
X115824947Y-54961947D01*
X115965276Y-54779066D01*
X116080535Y-54579433D01*
X116119648Y-54485006D01*
X116168743Y-54366479D01*
X116168743Y-54366476D01*
X116168749Y-54366464D01*
X116228411Y-54143802D01*
X116258500Y-53915258D01*
X116258500Y-53684742D01*
X116228411Y-53456198D01*
X116168749Y-53233536D01*
X116168744Y-53233525D01*
X116168743Y-53233520D01*
X116080539Y-53020576D01*
X116080534Y-53020566D01*
X115965276Y-52820934D01*
X115824947Y-52638053D01*
X115824942Y-52638047D01*
X115661952Y-52475057D01*
X115661945Y-52475051D01*
X115479074Y-52334730D01*
X115479072Y-52334729D01*
X115479066Y-52334724D01*
X115279433Y-52219465D01*
X115279423Y-52219460D01*
X115066479Y-52131256D01*
X115066466Y-52131252D01*
X115066467Y-52131252D01*
X115066464Y-52131251D01*
X114843802Y-52071589D01*
X114843801Y-52071588D01*
X114843798Y-52071588D01*
X114615265Y-52041500D01*
X114615258Y-52041500D01*
X114384742Y-52041500D01*
X114384734Y-52041500D01*
X114156201Y-52071588D01*
X114044867Y-52101420D01*
X113933536Y-52131251D01*
X113933534Y-52131251D01*
X113933533Y-52131252D01*
X113933520Y-52131256D01*
X113720576Y-52219460D01*
X113720566Y-52219465D01*
X113520934Y-52334724D01*
X113520925Y-52334730D01*
X113338054Y-52475051D01*
X113338047Y-52475057D01*
X113175057Y-52638047D01*
X113175051Y-52638054D01*
X113034730Y-52820925D01*
X113034724Y-52820934D01*
X112919465Y-53020566D01*
X112919460Y-53020576D01*
X112831256Y-53233520D01*
X112831252Y-53233533D01*
X112771588Y-53456201D01*
X112741500Y-53684734D01*
X104001511Y-53684734D01*
X104004175Y-53664498D01*
X104005511Y-53654341D01*
X104008500Y-53631644D01*
X104008500Y-53368356D01*
X103974134Y-53107320D01*
X103905990Y-52853003D01*
X103847710Y-52712302D01*
X103805238Y-52609765D01*
X103805230Y-52609749D01*
X103673590Y-52381743D01*
X103513312Y-52172863D01*
X103513306Y-52172856D01*
X103327143Y-51986693D01*
X103327136Y-51986687D01*
X103118256Y-51826409D01*
X102890250Y-51694769D01*
X102890234Y-51694761D01*
X102646995Y-51594009D01*
X102392678Y-51525865D01*
X102131653Y-51491501D01*
X102131650Y-51491500D01*
X102131644Y-51491500D01*
X101868356Y-51491500D01*
X101868350Y-51491500D01*
X101868346Y-51491501D01*
X101607321Y-51525865D01*
X101353004Y-51594009D01*
X101109765Y-51694761D01*
X101109749Y-51694769D01*
X100881743Y-51826409D01*
X100672863Y-51986687D01*
X100672856Y-51986693D01*
X100486693Y-52172856D01*
X100486687Y-52172863D01*
X100326409Y-52381743D01*
X100194769Y-52609749D01*
X100194761Y-52609765D01*
X100094009Y-52853004D01*
X100025865Y-53107321D01*
X99991501Y-53368346D01*
X99991500Y-53368362D01*
X99025500Y-53368362D01*
X99025500Y-51010516D01*
X150021700Y-51010516D01*
X150021700Y-51189483D01*
X150056611Y-51364992D01*
X150056613Y-51365000D01*
X150125096Y-51530332D01*
X150125101Y-51530342D01*
X150224521Y-51679134D01*
X150224524Y-51679138D01*
X150351061Y-51805675D01*
X150351065Y-51805678D01*
X150499857Y-51905098D01*
X150499861Y-51905100D01*
X150499864Y-51905102D01*
X150665200Y-51973587D01*
X150840716Y-52008499D01*
X150840720Y-52008500D01*
X150840721Y-52008500D01*
X151019680Y-52008500D01*
X151019681Y-52008499D01*
X151195200Y-51973587D01*
X151360536Y-51905102D01*
X151509335Y-51805678D01*
X151635878Y-51679135D01*
X151735302Y-51530336D01*
X151803787Y-51365000D01*
X151838700Y-51189479D01*
X151838700Y-51062638D01*
X151846691Y-51035421D01*
X151851643Y-51007480D01*
X151857308Y-50999266D01*
X151858385Y-50995599D01*
X151871682Y-50978426D01*
X151953675Y-50889807D01*
X151988388Y-50852287D01*
X152048365Y-50816448D01*
X152079406Y-50812500D01*
X152909496Y-50812500D01*
X152976535Y-50832185D01*
X153019982Y-50880207D01*
X153024873Y-50889807D01*
X153145926Y-51056423D01*
X153145930Y-51056428D01*
X153291571Y-51202069D01*
X153291576Y-51202073D01*
X153436908Y-51307661D01*
X153458197Y-51323129D01*
X153546819Y-51368284D01*
X153597615Y-51416259D01*
X153614410Y-51484080D01*
X153591873Y-51550214D01*
X153546820Y-51589253D01*
X153462648Y-51632141D01*
X153462645Y-51632143D01*
X153418077Y-51664523D01*
X153418077Y-51664524D01*
X154097554Y-52344000D01*
X154091339Y-52344000D01*
X153989606Y-52371259D01*
X153898394Y-52423920D01*
X153823920Y-52498394D01*
X153771259Y-52589606D01*
X153744000Y-52691339D01*
X153744000Y-52697553D01*
X153064524Y-52018077D01*
X153064523Y-52018077D01*
X153032143Y-52062644D01*
X152939244Y-52244968D01*
X152876009Y-52439582D01*
X152844000Y-52641682D01*
X152844000Y-52846317D01*
X152876009Y-53048417D01*
X152939244Y-53243031D01*
X153032141Y-53425350D01*
X153032147Y-53425359D01*
X153064523Y-53469921D01*
X153064524Y-53469922D01*
X153744000Y-52790446D01*
X153744000Y-52796661D01*
X153771259Y-52898394D01*
X153823920Y-52989606D01*
X153898394Y-53064080D01*
X153989606Y-53116741D01*
X154091339Y-53144000D01*
X154097553Y-53144000D01*
X153418076Y-53823474D01*
X153462650Y-53855859D01*
X153644968Y-53948755D01*
X153839582Y-54011990D01*
X154041683Y-54044000D01*
X154246317Y-54044000D01*
X154448417Y-54011990D01*
X154643031Y-53948755D01*
X154825349Y-53855859D01*
X154869921Y-53823474D01*
X154190447Y-53144000D01*
X154196661Y-53144000D01*
X154298394Y-53116741D01*
X154389606Y-53064080D01*
X154464080Y-52989606D01*
X154516741Y-52898394D01*
X154544000Y-52796661D01*
X154544000Y-52790447D01*
X155223474Y-53469921D01*
X155255859Y-53425349D01*
X155348755Y-53243031D01*
X155411990Y-53048417D01*
X155444000Y-52846317D01*
X155444000Y-52641682D01*
X155411990Y-52439582D01*
X155348755Y-52244968D01*
X155255859Y-52062650D01*
X155223474Y-52018077D01*
X155223474Y-52018076D01*
X154544000Y-52697551D01*
X154544000Y-52691339D01*
X154516741Y-52589606D01*
X154464080Y-52498394D01*
X154389606Y-52423920D01*
X154298394Y-52371259D01*
X154196661Y-52344000D01*
X154190446Y-52344000D01*
X154869922Y-51664524D01*
X154869921Y-51664523D01*
X154825359Y-51632147D01*
X154825350Y-51632141D01*
X154741180Y-51589254D01*
X154690384Y-51541279D01*
X154673589Y-51473458D01*
X154696127Y-51407323D01*
X154741179Y-51368284D01*
X154829803Y-51323129D01*
X154996430Y-51202068D01*
X155142068Y-51056430D01*
X155263129Y-50889803D01*
X155356634Y-50706290D01*
X155420280Y-50510408D01*
X155452500Y-50306981D01*
X155452500Y-50101019D01*
X155420280Y-49897591D01*
X155381769Y-49779068D01*
X155356634Y-49701710D01*
X155356632Y-49701707D01*
X155356632Y-49701705D01*
X155322709Y-49635128D01*
X155263129Y-49518197D01*
X155170171Y-49390250D01*
X155142073Y-49351576D01*
X155142069Y-49351571D01*
X154996428Y-49205930D01*
X154996423Y-49205926D01*
X154829806Y-49084873D01*
X154829805Y-49084872D01*
X154829803Y-49084871D01*
X154750540Y-49044484D01*
X154699745Y-48996510D01*
X154682950Y-48928689D01*
X154705487Y-48862554D01*
X154750541Y-48823515D01*
X154829803Y-48783129D01*
X154996430Y-48662068D01*
X155142068Y-48516430D01*
X155263129Y-48349803D01*
X155356634Y-48166290D01*
X155420280Y-47970408D01*
X155452500Y-47766981D01*
X155452500Y-47561019D01*
X155420280Y-47357592D01*
X155356634Y-47161710D01*
X155356632Y-47161707D01*
X155356632Y-47161705D01*
X155310714Y-47071588D01*
X155263129Y-46978197D01*
X155152850Y-46826410D01*
X155142073Y-46811576D01*
X155142069Y-46811571D01*
X154996428Y-46665930D01*
X154996423Y-46665926D01*
X154829806Y-46544873D01*
X154829805Y-46544872D01*
X154829803Y-46544871D01*
X154750540Y-46504484D01*
X154699745Y-46456510D01*
X154682950Y-46388689D01*
X154705487Y-46322554D01*
X154750541Y-46283515D01*
X154829803Y-46243129D01*
X154996430Y-46122068D01*
X155142068Y-45976430D01*
X155263129Y-45809803D01*
X155356634Y-45626290D01*
X155420280Y-45430408D01*
X155452500Y-45226981D01*
X155452500Y-45021019D01*
X155420280Y-44817592D01*
X155356634Y-44621710D01*
X155356632Y-44621707D01*
X155356632Y-44621705D01*
X155322709Y-44555128D01*
X155263129Y-44438197D01*
X155211012Y-44366464D01*
X155142073Y-44271576D01*
X155142069Y-44271571D01*
X154996428Y-44125930D01*
X154996423Y-44125926D01*
X154829806Y-44004873D01*
X154829805Y-44004872D01*
X154829803Y-44004871D01*
X154772496Y-43975671D01*
X154646294Y-43911367D01*
X154450408Y-43847719D01*
X154274794Y-43819905D01*
X154246981Y-43815500D01*
X154041019Y-43815500D01*
X154016550Y-43819375D01*
X153837591Y-43847719D01*
X153641705Y-43911367D01*
X153458193Y-44004873D01*
X153291576Y-44125926D01*
X153291571Y-44125930D01*
X153145930Y-44271571D01*
X153145926Y-44271576D01*
X153024873Y-44438193D01*
X152931367Y-44621705D01*
X152867719Y-44817591D01*
X152835500Y-45021019D01*
X152835500Y-45226980D01*
X152867719Y-45430408D01*
X152931367Y-45626294D01*
X153024873Y-45809806D01*
X153145926Y-45976423D01*
X153145930Y-45976428D01*
X153291571Y-46122069D01*
X153291576Y-46122073D01*
X153458195Y-46243128D01*
X153537459Y-46283516D01*
X153588254Y-46331490D01*
X153605049Y-46399311D01*
X153582511Y-46465446D01*
X153537459Y-46504484D01*
X153458195Y-46544871D01*
X153291576Y-46665926D01*
X153291571Y-46665930D01*
X153145930Y-46811571D01*
X153145926Y-46811576D01*
X153024873Y-46978193D01*
X152931367Y-47161705D01*
X152867719Y-47357591D01*
X152835500Y-47561019D01*
X152835500Y-47766980D01*
X152867719Y-47970408D01*
X152931367Y-48166294D01*
X153024873Y-48349806D01*
X153145926Y-48516423D01*
X153145930Y-48516428D01*
X153291571Y-48662069D01*
X153291576Y-48662073D01*
X153458195Y-48783128D01*
X153537459Y-48823516D01*
X153588254Y-48871490D01*
X153605049Y-48939311D01*
X153582511Y-49005446D01*
X153537459Y-49044484D01*
X153458195Y-49084871D01*
X153291576Y-49205926D01*
X153291571Y-49205930D01*
X153145930Y-49351571D01*
X153145926Y-49351576D01*
X153024873Y-49518192D01*
X153019982Y-49527793D01*
X152972008Y-49578590D01*
X152909496Y-49595500D01*
X151827324Y-49595500D01*
X151815633Y-49592849D01*
X151747386Y-49595500D01*
X151679086Y-49595500D01*
X151667509Y-49598602D01*
X151655533Y-49599068D01*
X151590329Y-49619281D01*
X151587995Y-49619907D01*
X151587992Y-49619908D01*
X151524325Y-49636968D01*
X151516816Y-49640079D01*
X151516796Y-49640031D01*
X151509859Y-49643063D01*
X151509881Y-49643110D01*
X151502500Y-49646508D01*
X151446731Y-49681658D01*
X151446732Y-49681659D01*
X151444690Y-49682945D01*
X151385572Y-49717079D01*
X151377097Y-49725552D01*
X151366958Y-49731944D01*
X151322202Y-49780314D01*
X151320568Y-49782082D01*
X151272279Y-49830372D01*
X151266286Y-49840751D01*
X151256858Y-49850942D01*
X151256855Y-49850943D01*
X150978579Y-50151712D01*
X150918602Y-50187552D01*
X150887561Y-50191500D01*
X150840716Y-50191500D01*
X150665207Y-50226411D01*
X150665199Y-50226413D01*
X150499867Y-50294896D01*
X150499857Y-50294901D01*
X150351065Y-50394321D01*
X150351061Y-50394324D01*
X150224524Y-50520861D01*
X150224521Y-50520865D01*
X150125101Y-50669657D01*
X150125096Y-50669667D01*
X150056613Y-50834999D01*
X150056611Y-50835007D01*
X150021700Y-51010516D01*
X99025500Y-51010516D01*
X99025500Y-48368362D01*
X99991500Y-48368362D01*
X99991500Y-48631637D01*
X99991501Y-48631653D01*
X100025865Y-48892678D01*
X100094009Y-49146995D01*
X100194761Y-49390234D01*
X100194769Y-49390250D01*
X100326409Y-49618256D01*
X100486687Y-49827136D01*
X100486693Y-49827143D01*
X100672856Y-50013306D01*
X100672863Y-50013312D01*
X100881743Y-50173590D01*
X101109749Y-50305230D01*
X101109765Y-50305238D01*
X101261451Y-50368068D01*
X101353003Y-50405990D01*
X101607320Y-50474134D01*
X101868356Y-50508500D01*
X101868363Y-50508500D01*
X102131637Y-50508500D01*
X102131644Y-50508500D01*
X102392680Y-50474134D01*
X102646997Y-50405990D01*
X102830099Y-50330146D01*
X102890234Y-50305238D01*
X102890237Y-50305236D01*
X102890243Y-50305234D01*
X103118257Y-50173590D01*
X103327138Y-50013311D01*
X103513311Y-49827138D01*
X103586302Y-49732013D01*
X103642729Y-49690811D01*
X103684678Y-49683500D01*
X112907957Y-49683500D01*
X112974996Y-49703185D01*
X113015344Y-49745499D01*
X113034725Y-49779068D01*
X113175051Y-49961945D01*
X113175057Y-49961952D01*
X113338047Y-50124942D01*
X113338053Y-50124947D01*
X113520934Y-50265276D01*
X113720567Y-50380535D01*
X113720572Y-50380537D01*
X113720576Y-50380539D01*
X113933520Y-50468743D01*
X113933525Y-50468744D01*
X113933536Y-50468749D01*
X114156198Y-50528411D01*
X114384742Y-50558500D01*
X114384749Y-50558500D01*
X114615251Y-50558500D01*
X114615258Y-50558500D01*
X114843802Y-50528411D01*
X115066464Y-50468749D01*
X115066476Y-50468743D01*
X115066479Y-50468743D01*
X115279423Y-50380539D01*
X115279421Y-50380539D01*
X115279433Y-50380535D01*
X115479066Y-50265276D01*
X115661947Y-50124947D01*
X115824947Y-49961947D01*
X115965276Y-49779066D01*
X116080535Y-49579433D01*
X116158897Y-49390250D01*
X116168743Y-49366479D01*
X116168743Y-49366476D01*
X116168749Y-49366464D01*
X116228411Y-49143802D01*
X116258500Y-48915258D01*
X116258500Y-48684742D01*
X116228411Y-48456198D01*
X116168749Y-48233536D01*
X116168744Y-48233525D01*
X116168743Y-48233520D01*
X116080539Y-48020576D01*
X116080534Y-48020566D01*
X116020451Y-47916500D01*
X115965276Y-47820934D01*
X115824947Y-47638053D01*
X115824942Y-47638047D01*
X115661952Y-47475057D01*
X115661945Y-47475051D01*
X115479074Y-47334730D01*
X115479072Y-47334729D01*
X115479066Y-47334724D01*
X115279433Y-47219465D01*
X115279423Y-47219460D01*
X115066479Y-47131256D01*
X115066466Y-47131252D01*
X115066467Y-47131252D01*
X115066464Y-47131251D01*
X114843802Y-47071589D01*
X114843801Y-47071588D01*
X114843798Y-47071588D01*
X114615265Y-47041500D01*
X114615258Y-47041500D01*
X114384742Y-47041500D01*
X114384734Y-47041500D01*
X114156201Y-47071588D01*
X114044867Y-47101420D01*
X113933536Y-47131251D01*
X113933534Y-47131251D01*
X113933533Y-47131252D01*
X113933520Y-47131256D01*
X113720576Y-47219460D01*
X113720566Y-47219465D01*
X113520934Y-47334724D01*
X113520925Y-47334730D01*
X113338054Y-47475051D01*
X113338047Y-47475057D01*
X113175057Y-47638047D01*
X113175051Y-47638054D01*
X113034725Y-47820931D01*
X113015344Y-47854501D01*
X112964776Y-47902716D01*
X112907957Y-47916500D01*
X104015145Y-47916500D01*
X103948106Y-47896815D01*
X103902351Y-47844011D01*
X103900584Y-47839952D01*
X103892706Y-47820934D01*
X103805237Y-47609765D01*
X103805230Y-47609749D01*
X103673590Y-47381743D01*
X103513312Y-47172863D01*
X103513306Y-47172856D01*
X103327143Y-46986693D01*
X103327136Y-46986687D01*
X103118256Y-46826409D01*
X102890250Y-46694769D01*
X102890234Y-46694761D01*
X102646995Y-46594009D01*
X102392678Y-46525865D01*
X102131653Y-46491501D01*
X102131650Y-46491500D01*
X102131644Y-46491500D01*
X101868356Y-46491500D01*
X101868350Y-46491500D01*
X101868346Y-46491501D01*
X101607321Y-46525865D01*
X101353004Y-46594009D01*
X101109765Y-46694761D01*
X101109749Y-46694769D01*
X100881743Y-46826409D01*
X100672863Y-46986687D01*
X100672856Y-46986693D01*
X100486693Y-47172856D01*
X100486687Y-47172863D01*
X100326409Y-47381743D01*
X100194769Y-47609749D01*
X100194761Y-47609765D01*
X100094009Y-47853004D01*
X100025865Y-48107321D01*
X99991501Y-48368346D01*
X99991500Y-48368362D01*
X99025500Y-48368362D01*
X99025500Y-39818234D01*
X99300000Y-39818234D01*
X99300000Y-40181765D01*
X99335632Y-40543556D01*
X99406550Y-40900090D01*
X99406553Y-40900101D01*
X99512086Y-41247997D01*
X99651207Y-41583864D01*
X99651209Y-41583869D01*
X99822570Y-41904462D01*
X99822581Y-41904480D01*
X100024551Y-42206750D01*
X100211678Y-42434765D01*
X100211679Y-42434766D01*
X101705747Y-40940697D01*
X101779588Y-41042330D01*
X101957670Y-41220412D01*
X102059301Y-41294251D01*
X100565232Y-42788319D01*
X100565233Y-42788320D01*
X100793249Y-42975448D01*
X101095519Y-43177418D01*
X101095537Y-43177429D01*
X101416130Y-43348790D01*
X101416135Y-43348792D01*
X101752002Y-43487913D01*
X102099898Y-43593446D01*
X102099909Y-43593449D01*
X102456443Y-43664367D01*
X102818234Y-43700000D01*
X103181766Y-43700000D01*
X103336765Y-43684734D01*
X112741500Y-43684734D01*
X112741500Y-43915265D01*
X112769236Y-44125930D01*
X112771589Y-44143802D01*
X112805824Y-44271570D01*
X112831252Y-44366466D01*
X112831256Y-44366479D01*
X112919460Y-44579423D01*
X112919465Y-44579433D01*
X113034724Y-44779066D01*
X113034729Y-44779072D01*
X113034730Y-44779074D01*
X113175051Y-44961945D01*
X113175057Y-44961952D01*
X113338047Y-45124942D01*
X113338053Y-45124947D01*
X113520934Y-45265276D01*
X113720567Y-45380535D01*
X113720572Y-45380537D01*
X113720576Y-45380539D01*
X113933520Y-45468743D01*
X113933525Y-45468744D01*
X113933536Y-45468749D01*
X114156198Y-45528411D01*
X114384742Y-45558500D01*
X114384749Y-45558500D01*
X114615251Y-45558500D01*
X114615258Y-45558500D01*
X114843802Y-45528411D01*
X115066464Y-45468749D01*
X115066476Y-45468743D01*
X115066479Y-45468743D01*
X115279423Y-45380539D01*
X115279421Y-45380539D01*
X115279433Y-45380535D01*
X115479066Y-45265276D01*
X115661947Y-45124947D01*
X115824947Y-44961947D01*
X115965276Y-44779066D01*
X116080535Y-44579433D01*
X116115820Y-44494245D01*
X116168743Y-44366479D01*
X116168743Y-44366476D01*
X116168749Y-44366464D01*
X116228411Y-44143802D01*
X116258500Y-43915258D01*
X116258500Y-43684742D01*
X116228411Y-43456198D01*
X116168749Y-43233536D01*
X116168744Y-43233525D01*
X116168743Y-43233520D01*
X116080539Y-43020576D01*
X116080534Y-43020566D01*
X115965276Y-42820934D01*
X115960716Y-42814991D01*
X115824948Y-42638054D01*
X115824942Y-42638047D01*
X115661952Y-42475057D01*
X115661945Y-42475051D01*
X115479074Y-42334730D01*
X115479072Y-42334729D01*
X115479066Y-42334724D01*
X115279433Y-42219465D01*
X115279423Y-42219460D01*
X115066479Y-42131256D01*
X115066466Y-42131252D01*
X115066467Y-42131252D01*
X115066464Y-42131251D01*
X114843802Y-42071589D01*
X114843801Y-42071588D01*
X114843798Y-42071588D01*
X114615265Y-42041500D01*
X114615258Y-42041500D01*
X114384742Y-42041500D01*
X114384734Y-42041500D01*
X114156201Y-42071588D01*
X114044867Y-42101420D01*
X113933536Y-42131251D01*
X113933534Y-42131251D01*
X113933533Y-42131252D01*
X113933520Y-42131256D01*
X113720576Y-42219460D01*
X113720566Y-42219465D01*
X113520934Y-42334724D01*
X113520925Y-42334730D01*
X113338054Y-42475051D01*
X113338047Y-42475057D01*
X113175057Y-42638047D01*
X113175051Y-42638054D01*
X113034730Y-42820925D01*
X113034724Y-42820934D01*
X112919465Y-43020566D01*
X112919460Y-43020576D01*
X112831256Y-43233520D01*
X112831252Y-43233533D01*
X112771588Y-43456201D01*
X112741500Y-43684734D01*
X103336765Y-43684734D01*
X103543556Y-43664367D01*
X103900090Y-43593449D01*
X103900101Y-43593446D01*
X104003693Y-43562022D01*
X104247997Y-43487913D01*
X104583864Y-43348792D01*
X104583869Y-43348790D01*
X104904462Y-43177429D01*
X104904480Y-43177418D01*
X105206736Y-42975457D01*
X105206750Y-42975447D01*
X105434765Y-42788320D01*
X105434766Y-42788319D01*
X103940698Y-41294251D01*
X104042330Y-41220412D01*
X104220412Y-41042330D01*
X104294251Y-40940698D01*
X105788319Y-42434766D01*
X105788320Y-42434765D01*
X105975447Y-42206750D01*
X105975457Y-42206736D01*
X106177418Y-41904480D01*
X106177429Y-41904462D01*
X106348790Y-41583869D01*
X106348792Y-41583864D01*
X106487913Y-41247997D01*
X106593446Y-40900101D01*
X106593449Y-40900090D01*
X106664367Y-40543556D01*
X106700000Y-40181765D01*
X106700000Y-39818234D01*
X157200000Y-39818234D01*
X157200000Y-40181765D01*
X157235632Y-40543556D01*
X157306550Y-40900090D01*
X157306553Y-40900101D01*
X157412086Y-41247997D01*
X157551207Y-41583864D01*
X157551209Y-41583869D01*
X157722570Y-41904462D01*
X157722581Y-41904480D01*
X157924551Y-42206750D01*
X158111678Y-42434765D01*
X158111679Y-42434766D01*
X159605747Y-40940697D01*
X159679588Y-41042330D01*
X159857670Y-41220412D01*
X159959301Y-41294251D01*
X158465232Y-42788319D01*
X158465233Y-42788320D01*
X158693249Y-42975448D01*
X158995519Y-43177418D01*
X158995537Y-43177429D01*
X159316130Y-43348790D01*
X159316135Y-43348792D01*
X159652002Y-43487913D01*
X159999898Y-43593446D01*
X159999909Y-43593449D01*
X160356443Y-43664367D01*
X160718234Y-43700000D01*
X161081766Y-43700000D01*
X161443556Y-43664367D01*
X161800090Y-43593449D01*
X161800101Y-43593446D01*
X162147997Y-43487913D01*
X162483864Y-43348792D01*
X162483869Y-43348790D01*
X162804462Y-43177429D01*
X162804480Y-43177418D01*
X163106736Y-42975457D01*
X163106750Y-42975447D01*
X163334765Y-42788320D01*
X163334766Y-42788319D01*
X161840698Y-41294251D01*
X161942330Y-41220412D01*
X162120412Y-41042330D01*
X162194251Y-40940698D01*
X163688319Y-42434766D01*
X163688320Y-42434765D01*
X163875447Y-42206750D01*
X163875457Y-42206736D01*
X164077418Y-41904480D01*
X164077429Y-41904462D01*
X164248790Y-41583869D01*
X164248792Y-41583864D01*
X164387913Y-41247997D01*
X164493446Y-40900101D01*
X164493449Y-40900090D01*
X164564367Y-40543556D01*
X164600000Y-40181765D01*
X164600000Y-39818234D01*
X164564367Y-39456443D01*
X164493449Y-39099909D01*
X164493446Y-39099898D01*
X164387913Y-38752002D01*
X164248792Y-38416135D01*
X164248790Y-38416130D01*
X164077429Y-38095537D01*
X164077418Y-38095519D01*
X163875448Y-37793249D01*
X163688320Y-37565233D01*
X163688319Y-37565232D01*
X162194251Y-39059300D01*
X162120412Y-38957670D01*
X161942330Y-38779588D01*
X161840698Y-38705748D01*
X163334766Y-37211679D01*
X163334765Y-37211678D01*
X163106750Y-37024551D01*
X162804480Y-36822581D01*
X162804462Y-36822570D01*
X162483869Y-36651209D01*
X162483864Y-36651207D01*
X162147997Y-36512086D01*
X161800101Y-36406553D01*
X161800090Y-36406550D01*
X161443556Y-36335632D01*
X161081766Y-36300000D01*
X160718234Y-36300000D01*
X160356443Y-36335632D01*
X159999909Y-36406550D01*
X159999898Y-36406553D01*
X159652002Y-36512086D01*
X159316135Y-36651207D01*
X159316130Y-36651209D01*
X158995537Y-36822570D01*
X158995519Y-36822581D01*
X158693258Y-37024545D01*
X158693254Y-37024548D01*
X158465233Y-37211679D01*
X158465233Y-37211680D01*
X159959301Y-38705748D01*
X159857670Y-38779588D01*
X159679588Y-38957670D01*
X159605748Y-39059301D01*
X158111680Y-37565233D01*
X158111679Y-37565233D01*
X157924548Y-37793254D01*
X157924545Y-37793258D01*
X157722581Y-38095519D01*
X157722570Y-38095537D01*
X157551209Y-38416130D01*
X157551207Y-38416135D01*
X157412086Y-38752002D01*
X157306553Y-39099898D01*
X157306550Y-39099909D01*
X157235632Y-39456443D01*
X157200000Y-39818234D01*
X106700000Y-39818234D01*
X106664367Y-39456443D01*
X106593449Y-39099909D01*
X106593446Y-39099898D01*
X106487913Y-38752002D01*
X106348792Y-38416135D01*
X106348790Y-38416130D01*
X106177429Y-38095537D01*
X106177418Y-38095519D01*
X105975448Y-37793249D01*
X105788320Y-37565233D01*
X105788319Y-37565232D01*
X104294251Y-39059300D01*
X104220412Y-38957670D01*
X104042330Y-38779588D01*
X103940698Y-38705748D01*
X105434766Y-37211679D01*
X105434765Y-37211678D01*
X105206750Y-37024551D01*
X104904480Y-36822581D01*
X104904462Y-36822570D01*
X104583869Y-36651209D01*
X104583864Y-36651207D01*
X104247997Y-36512086D01*
X103900101Y-36406553D01*
X103900090Y-36406550D01*
X103543556Y-36335632D01*
X103181766Y-36300000D01*
X102818234Y-36300000D01*
X102456443Y-36335632D01*
X102099909Y-36406550D01*
X102099898Y-36406553D01*
X101752002Y-36512086D01*
X101416135Y-36651207D01*
X101416130Y-36651209D01*
X101095537Y-36822570D01*
X101095519Y-36822581D01*
X100793258Y-37024545D01*
X100793254Y-37024548D01*
X100565233Y-37211679D01*
X100565233Y-37211680D01*
X102059301Y-38705748D01*
X101957670Y-38779588D01*
X101779588Y-38957670D01*
X101705748Y-39059301D01*
X100211680Y-37565233D01*
X100211679Y-37565233D01*
X100024548Y-37793254D01*
X100024545Y-37793258D01*
X99822581Y-38095519D01*
X99822570Y-38095537D01*
X99651209Y-38416130D01*
X99651207Y-38416135D01*
X99512086Y-38752002D01*
X99406553Y-39099898D01*
X99406550Y-39099909D01*
X99335632Y-39456443D01*
X99300000Y-39818234D01*
X99025500Y-39818234D01*
X99025500Y-38004066D01*
X99025765Y-37995956D01*
X99039050Y-37793258D01*
X99041861Y-37750365D01*
X99043976Y-37734311D01*
X99091193Y-37496933D01*
X99095391Y-37481268D01*
X99140790Y-37347527D01*
X99173189Y-37252080D01*
X99179384Y-37237122D01*
X99286441Y-37020033D01*
X99294544Y-37005998D01*
X99429016Y-36804746D01*
X99438873Y-36791900D01*
X99598464Y-36609922D01*
X99609922Y-36598464D01*
X99791900Y-36438873D01*
X99804746Y-36429016D01*
X100005998Y-36294544D01*
X100020033Y-36286441D01*
X100237114Y-36179388D01*
X100252080Y-36173189D01*
X100415302Y-36117783D01*
X100481268Y-36095391D01*
X100496935Y-36091193D01*
X100734311Y-36043976D01*
X100750367Y-36041861D01*
X100975757Y-36027088D01*
X100995958Y-36025765D01*
X101004067Y-36025500D01*
X101008285Y-36025500D01*
X162991715Y-36025500D01*
X162995933Y-36025500D01*
X163004043Y-36025765D01*
G37*
G04 #@! TD.AperFunction*
M02*
