M48
; DRILL file {KiCad 9.0.1} date 2025-05-11T23:34:53+0200
; FORMAT={-:-/ absolute / metric / decimal}
; #@! TF.CreationDate,2025-05-11T23:34:53+02:00
; #@! TF.GenerationSoftware,Kicad,Pcbnew,9.0.1
; #@! TF.FileFunction,Plated,1,2,PTH
FMAT,2
METRIC
; #@! TA.AperFunction,Plated,PTH,ViaDrill
T1C0.400
; #@! TA.AperFunction,Plated,PTH,ComponentDrill
T2C0.500
; #@! TA.AperFunction,Plated,PTH,ComponentDrill
T3C0.700
; #@! TA.AperFunction,Plated,PTH,ComponentDrill
T4C0.750
; #@! TA.AperFunction,Plated,PTH,ComponentDrill
T5C0.800
; #@! TA.AperFunction,Plated,PTH,ComponentDrill
T6C0.950
; #@! TA.AperFunction,Plated,PTH,ComponentDrill
T7C1.100
; #@! TA.AperFunction,Plated,PTH,ComponentDrill
T8C1.500
; #@! TA.AperFunction,Plated,PTH,ComponentDrill
T9C3.200
%
G90
G05
T1
X116.424Y-118.775
X140.7Y-93.8
X141.9Y-84.113
X143.1Y-101.5
X150.419Y-91.826
X150.93Y-51.1
X152.322Y-86.873
X153.763Y-93.123
X159.516Y-113.816
X162.122Y-111.963
X163.704Y-98.1
T2
X100.6Y-40.0
X100.6Y-124.3
X101.303Y-38.303
X101.303Y-41.697
X101.303Y-122.603
X101.303Y-125.997
X103.0Y-37.6
X103.0Y-42.4
X103.0Y-121.9
X103.0Y-126.7
X104.697Y-38.303
X104.697Y-41.697
X104.697Y-122.603
X104.697Y-125.997
X105.4Y-40.0
X105.4Y-124.3
X158.1Y-76.8
X158.1Y-81.2
X158.5Y-40.0
X158.5Y-124.2
X159.203Y-38.303
X159.203Y-41.697
X159.203Y-122.503
X159.203Y-125.897
X160.9Y-37.6
X160.9Y-42.4
X160.9Y-121.8
X160.9Y-126.6
X162.597Y-38.303
X162.597Y-41.697
X162.597Y-122.503
X162.597Y-125.897
X163.3Y-40.0
X163.3Y-124.2
T3
X145.08Y-114.8
X147.9Y-88.9
X147.9Y-91.4
X147.9Y-93.9
X147.9Y-96.4
X147.9Y-99.0
X148.1Y-86.1
X148.18Y-76.8
X148.18Y-79.0
X148.18Y-81.2
X148.18Y-83.4
X152.7Y-114.8
X155.52Y-88.9
X155.52Y-91.4
X155.52Y-93.9
X155.52Y-96.4
X155.52Y-99.0
X155.72Y-86.1
X155.8Y-76.8
X155.8Y-79.0
X155.8Y-81.2
X155.8Y-83.4
T4
X139.96Y-113.6
X141.23Y-113.6
X142.5Y-113.6
T5
X108.6Y-77.48
X108.6Y-80.02
X108.6Y-82.56
X108.6Y-85.1
X108.6Y-87.64
X108.6Y-90.18
X108.6Y-92.72
X108.6Y-95.26
X108.6Y-97.8
X108.6Y-100.34
X108.6Y-102.88
X108.6Y-105.42
X108.6Y-107.96
X108.6Y-110.5
X108.6Y-113.04
X108.6Y-115.58
X108.6Y-118.12
X108.6Y-120.66
X108.6Y-123.2
X134.0Y-77.48
X134.0Y-80.02
X134.0Y-82.56
X134.0Y-85.1
X134.0Y-87.64
X134.0Y-90.18
X134.0Y-92.72
X134.0Y-95.26
X134.0Y-97.8
X134.0Y-100.34
X134.0Y-102.88
X134.0Y-105.42
X134.0Y-107.96
X134.0Y-110.5
X134.0Y-113.04
X134.0Y-115.58
X134.0Y-118.12
X134.0Y-120.66
X134.0Y-123.2
X137.48Y-86.24
X137.48Y-88.78
X137.48Y-91.32
X137.48Y-93.86
X137.48Y-96.4
X137.48Y-98.94
X137.48Y-101.48
X137.48Y-104.02
X137.48Y-106.56
X137.48Y-109.1
X140.6Y-78.447
X140.6Y-81.947
X145.1Y-86.24
X145.1Y-88.78
X145.1Y-91.32
X145.1Y-93.86
X145.1Y-96.4
X145.1Y-98.94
X145.1Y-101.48
X145.1Y-104.02
X145.1Y-106.56
X145.1Y-109.1
X154.1Y-64.736
X154.1Y-67.276
X154.144Y-45.124
X154.144Y-47.664
X154.144Y-50.204
X154.144Y-52.744
X154.144Y-62.196
X158.5Y-106.797
X158.5Y-111.797
T6
X138.9Y-118.8
X141.4Y-118.8
X143.9Y-118.8
X146.4Y-118.8
X148.9Y-118.8
X149.8Y-103.2
X149.8Y-105.7
X149.8Y-108.2
X149.8Y-110.7
X151.4Y-118.8
X153.9Y-118.8
X159.475Y-90.8
X159.475Y-93.3
X159.475Y-95.8
X160.8Y-53.6
X160.8Y-56.1
X160.8Y-58.6
X160.8Y-61.1
X160.8Y-63.6
X160.8Y-66.1
X160.8Y-68.6
X160.8Y-71.1
T7
X114.5Y-43.8
X114.5Y-48.8
X114.5Y-53.8
X114.5Y-58.8
X114.5Y-63.8
X114.5Y-68.8
T8
X102.0Y-48.5
X102.0Y-53.5
X102.0Y-61.0
X102.0Y-66.0
X102.0Y-71.0
X102.0Y-76.0
X102.0Y-83.5
X102.0Y-88.5
X102.0Y-93.5
X102.0Y-98.5
X102.0Y-106.0
X102.0Y-111.0
X159.1Y-85.3
X159.5Y-100.9
T9
X103.0Y-40.0
X103.0Y-124.3
X160.9Y-40.0
X160.9Y-124.2
M30
