G04 #@! TF.GenerationSoftware,KiCad,Pcbnew,9.0.1*
G04 #@! TF.CreationDate,2025-05-11T23:34:49+02:00*
G04 #@! TF.ProjectId,Labor Netzteil,4c61626f-7220-44e6-9574-7a7465696c2e,rev?*
G04 #@! TF.SameCoordinates,Original*
G04 #@! TF.FileFunction,Copper,L1,Top*
G04 #@! TF.FilePolarity,Positive*
%FSLAX46Y46*%
G04 Gerber Fmt 4.6, Leading zero omitted, Abs format (unit mm)*
G04 Created by KiCad (PCBNEW 9.0.1) date 2025-05-11 23:34:49*
%MOMM*%
%LPD*%
G01*
G04 APERTURE LIST*
G04 Aperture macros list*
%AMRoundRect*
0 Rectangle with rounded corners*
0 $1 Rounding radius*
0 $2 $3 $4 $5 $6 $7 $8 $9 X,Y pos of 4 corners*
0 Add a 4 corners polygon primitive as box body*
4,1,4,$2,$3,$4,$5,$6,$7,$8,$9,$2,$3,0*
0 Add four circle primitives for the rounded corners*
1,1,$1+$1,$2,$3*
1,1,$1+$1,$4,$5*
1,1,$1+$1,$6,$7*
1,1,$1+$1,$8,$9*
0 Add four rect primitives between the rounded corners*
20,1,$1+$1,$2,$3,$4,$5,0*
20,1,$1+$1,$4,$5,$6,$7,0*
20,1,$1+$1,$6,$7,$8,$9,0*
20,1,$1+$1,$8,$9,$2,$3,0*%
G04 Aperture macros list end*
G04 #@! TA.AperFunction,ComponentPad*
%ADD10C,3.000000*%
G04 #@! TD*
G04 #@! TA.AperFunction,ComponentPad*
%ADD11RoundRect,0.250000X0.725000X-0.600000X0.725000X0.600000X-0.725000X0.600000X-0.725000X-0.600000X0*%
G04 #@! TD*
G04 #@! TA.AperFunction,ComponentPad*
%ADD12O,1.950000X1.700000*%
G04 #@! TD*
G04 #@! TA.AperFunction,ComponentPad*
%ADD13C,2.500000*%
G04 #@! TD*
G04 #@! TA.AperFunction,ComponentPad*
%ADD14C,1.600000*%
G04 #@! TD*
G04 #@! TA.AperFunction,ComponentPad*
%ADD15C,1.400000*%
G04 #@! TD*
G04 #@! TA.AperFunction,ComponentPad*
%ADD16O,1.400000X1.400000*%
G04 #@! TD*
G04 #@! TA.AperFunction,ComponentPad*
%ADD17R,1.050000X1.500000*%
G04 #@! TD*
G04 #@! TA.AperFunction,ComponentPad*
%ADD18O,1.050000X1.500000*%
G04 #@! TD*
G04 #@! TA.AperFunction,ComponentPad*
%ADD19R,0.850000X0.850000*%
G04 #@! TD*
G04 #@! TA.AperFunction,ComponentPad*
%ADD20R,1.600000X1.600000*%
G04 #@! TD*
G04 #@! TA.AperFunction,ComponentPad*
%ADD21C,0.800000*%
G04 #@! TD*
G04 #@! TA.AperFunction,ComponentPad*
%ADD22C,6.400000*%
G04 #@! TD*
G04 #@! TA.AperFunction,ComponentPad*
%ADD23RoundRect,0.250000X-0.600000X-0.725000X0.600000X-0.725000X0.600000X0.725000X-0.600000X0.725000X0*%
G04 #@! TD*
G04 #@! TA.AperFunction,ComponentPad*
%ADD24O,1.700000X1.950000*%
G04 #@! TD*
G04 #@! TA.AperFunction,ComponentPad*
%ADD25O,2.500000X1.300000*%
G04 #@! TD*
G04 #@! TA.AperFunction,ComponentPad*
%ADD26RoundRect,0.250000X-0.950000X-0.550000X0.950000X-0.550000X0.950000X0.550000X-0.950000X0.550000X0*%
G04 #@! TD*
G04 #@! TA.AperFunction,ComponentPad*
%ADD27O,2.400000X1.600000*%
G04 #@! TD*
G04 #@! TA.AperFunction,ViaPad*
%ADD28C,0.800000*%
G04 #@! TD*
G04 #@! TA.AperFunction,Conductor*
%ADD29C,0.200000*%
G04 #@! TD*
G04 #@! TA.AperFunction,Conductor*
%ADD30C,0.750000*%
G04 #@! TD*
G04 APERTURE END LIST*
D10*
X102000000Y-48500000D03*
X102000000Y-53500000D03*
X102000000Y-61000000D03*
X102000000Y-83500000D03*
X102000000Y-88500000D03*
X102000000Y-93500000D03*
X102000000Y-98500000D03*
X102000000Y-106000000D03*
D11*
X159475000Y-95800000D03*
D12*
X159475000Y-93300000D03*
X159475000Y-90800000D03*
D13*
X114500000Y-43800000D03*
X114500000Y-48800000D03*
X114500000Y-53800000D03*
X114500000Y-58800000D03*
X114500000Y-63800000D03*
X114500000Y-68800000D03*
D14*
X154100000Y-67276000D03*
X154100000Y-64736000D03*
X154144000Y-62196000D03*
X154144000Y-52744000D03*
X154144000Y-50204000D03*
X154144000Y-47664000D03*
X154144000Y-45124000D03*
D10*
X102000000Y-76000000D03*
X102000000Y-71000000D03*
D15*
X145080000Y-114800000D03*
D16*
X152700000Y-114800000D03*
D17*
X139960000Y-113600000D03*
D18*
X141230000Y-113600000D03*
X142500000Y-113600000D03*
D15*
X155800000Y-76800000D03*
D16*
X148180000Y-76800000D03*
D15*
X148180000Y-79000000D03*
D16*
X155800000Y-79000000D03*
D15*
X155800000Y-81200000D03*
D16*
X148180000Y-81200000D03*
D15*
X148180000Y-83400000D03*
D16*
X155800000Y-83400000D03*
D19*
X158100000Y-76800000D03*
X158100000Y-81200000D03*
D10*
X102000000Y-111000000D03*
X102000000Y-66000000D03*
D15*
X155720000Y-86100000D03*
D16*
X148100000Y-86100000D03*
D20*
X140600000Y-78447300D03*
D14*
X140600000Y-81947300D03*
D15*
X155520000Y-96400000D03*
D16*
X147900000Y-96400000D03*
D10*
X159100000Y-85300000D03*
X159500000Y-100900000D03*
D15*
X155520000Y-91400000D03*
D16*
X147900000Y-91400000D03*
D15*
X155520000Y-93900000D03*
D16*
X147900000Y-93900000D03*
D11*
X149800000Y-110700000D03*
D12*
X149800000Y-108200000D03*
X149800000Y-105700000D03*
X149800000Y-103200000D03*
D15*
X155520000Y-88900000D03*
D16*
X147900000Y-88900000D03*
D21*
X100600000Y-124300000D03*
X101302944Y-122602944D03*
X101302944Y-125997056D03*
X103000000Y-121900000D03*
D22*
X103000000Y-124300000D03*
D21*
X103000000Y-126700000D03*
X104697056Y-122602944D03*
X104697056Y-125997056D03*
X105400000Y-124300000D03*
D23*
X138900000Y-118800000D03*
D24*
X141400000Y-118800000D03*
X143900000Y-118800000D03*
X146400000Y-118800000D03*
X148900000Y-118800000D03*
X151400000Y-118800000D03*
X153900000Y-118800000D03*
D20*
X158500000Y-106797300D03*
D14*
X158500000Y-111797300D03*
D25*
X134000000Y-123200000D03*
X134000000Y-120660000D03*
X134000000Y-118120000D03*
X134000000Y-115580000D03*
X134000000Y-113040000D03*
X134000000Y-110500000D03*
X134000000Y-107960000D03*
X134000000Y-105420000D03*
X134000000Y-102880000D03*
X134000000Y-100340000D03*
X134000000Y-97800000D03*
X134000000Y-95260000D03*
X134000000Y-92720000D03*
X134000000Y-90180000D03*
X134000000Y-87640000D03*
X134000000Y-85100000D03*
X134000000Y-82560000D03*
X134000000Y-80020000D03*
X134000000Y-77480000D03*
X108600000Y-77480000D03*
X108600000Y-80020000D03*
X108600000Y-82560000D03*
X108600000Y-85100000D03*
X108600000Y-87640000D03*
X108600000Y-90180000D03*
X108600000Y-92720000D03*
X108600000Y-95260000D03*
X108600000Y-97800000D03*
X108600000Y-100340000D03*
X108600000Y-102880000D03*
X108600000Y-105420000D03*
X108600000Y-107960000D03*
X108600000Y-110500000D03*
X108600000Y-113040000D03*
X108600000Y-115580000D03*
X108600000Y-118120000D03*
X108600000Y-120660000D03*
X108600000Y-123200000D03*
D21*
X158500000Y-124200000D03*
X159202944Y-122502944D03*
X159202944Y-125897056D03*
X160900000Y-121800000D03*
D22*
X160900000Y-124200000D03*
D21*
X160900000Y-126600000D03*
X162597056Y-122502944D03*
X162597056Y-125897056D03*
X163300000Y-124200000D03*
D11*
X160800000Y-71100000D03*
D12*
X160800000Y-68600000D03*
X160800000Y-66100000D03*
X160800000Y-63600000D03*
X160800000Y-61100000D03*
X160800000Y-58600000D03*
X160800000Y-56100000D03*
X160800000Y-53600000D03*
D26*
X137480000Y-86240000D03*
D27*
X137480000Y-88780000D03*
X137480000Y-91320000D03*
X137480000Y-93860000D03*
X137480000Y-96400000D03*
X137480000Y-98940000D03*
X137480000Y-101480000D03*
X137480000Y-104020000D03*
X137480000Y-106560000D03*
X137480000Y-109100000D03*
X145100000Y-109100000D03*
X145100000Y-106560000D03*
X145100000Y-104020000D03*
X145100000Y-101480000D03*
X145100000Y-98940000D03*
X145100000Y-96400000D03*
X145100000Y-93860000D03*
X145100000Y-91320000D03*
X145100000Y-88780000D03*
X145100000Y-86240000D03*
D21*
X100600000Y-40000000D03*
X101302944Y-38302944D03*
X101302944Y-41697056D03*
X103000000Y-37600000D03*
D22*
X103000000Y-40000000D03*
D21*
X103000000Y-42400000D03*
X104697056Y-38302944D03*
X104697056Y-41697056D03*
X105400000Y-40000000D03*
X158500000Y-40000000D03*
X159202944Y-38302944D03*
X159202944Y-41697056D03*
X160900000Y-37600000D03*
D22*
X160900000Y-40000000D03*
D21*
X160900000Y-42400000D03*
X162597056Y-38302944D03*
X162597056Y-41697056D03*
X163300000Y-40000000D03*
D15*
X155520000Y-99000000D03*
D16*
X147900000Y-99000000D03*
D28*
X162122300Y-111962800D03*
X150418700Y-91825800D03*
X150930200Y-51100000D03*
X159516400Y-113816400D03*
X141900000Y-84112800D03*
X143100000Y-101500000D03*
X163704200Y-98100000D03*
X116423900Y-118774900D03*
X153763300Y-93123300D03*
X140700000Y-93800000D03*
X152321600Y-86872500D03*
D29*
X154144000Y-62196000D02*
X154144000Y-52744000D01*
X158500000Y-48388000D02*
X158500000Y-40000000D01*
X138981700Y-113448400D02*
X139133300Y-113600000D01*
X155800000Y-80001700D02*
X156050400Y-80001700D01*
X160800000Y-75451900D02*
X156150300Y-80101600D01*
X158500000Y-111797300D02*
X159601700Y-110695600D01*
X156722700Y-82398300D02*
X155800000Y-82398300D01*
X103000000Y-124300000D02*
X103000000Y-126700000D01*
X156150300Y-80101600D02*
X156849800Y-80801100D01*
X141400000Y-118800000D02*
X140248300Y-118800000D01*
X156722700Y-82398300D02*
X156722700Y-87697300D01*
X154144000Y-62196000D02*
X158647100Y-66699100D01*
X139960000Y-113600000D02*
X139960000Y-114651700D01*
X160900000Y-126600000D02*
X160900000Y-124200000D01*
X155520000Y-99000000D02*
X155520000Y-96400000D01*
X155520000Y-93900000D02*
X155520000Y-96400000D01*
X156050400Y-80001700D02*
X156150300Y-80101600D01*
X139960000Y-113600000D02*
X139133300Y-113600000D01*
X103000000Y-40000000D02*
X103000000Y-42400000D01*
X158500000Y-111797300D02*
X158500000Y-121800000D01*
X158647100Y-68947100D02*
X160800000Y-71100000D01*
X160900000Y-40000000D02*
X160900000Y-37600000D01*
X159601700Y-101001700D02*
X159500000Y-100900000D01*
X155520000Y-93900000D02*
X155520000Y-91400000D01*
X156849800Y-80801100D02*
X156849800Y-82271200D01*
X158647100Y-66699100D02*
X158647100Y-68947100D01*
X159601700Y-110695600D02*
X159601700Y-101001700D01*
X160800000Y-71100000D02*
X160800000Y-75451900D01*
X139960000Y-114651700D02*
X140248300Y-114940000D01*
X155800000Y-83400000D02*
X155800000Y-82398300D01*
X160900000Y-42400000D02*
X160900000Y-40000000D01*
X140248300Y-114940000D02*
X140248300Y-118800000D01*
X154144000Y-52744000D02*
X158500000Y-48388000D01*
X155520000Y-91400000D02*
X155520000Y-88900000D01*
X138981700Y-109100000D02*
X138981700Y-113448400D01*
X158500000Y-121800000D02*
X159202900Y-122502900D01*
X160900000Y-121800000D02*
X160900000Y-124200000D01*
X156722700Y-87697300D02*
X155520000Y-88900000D01*
X137480000Y-109100000D02*
X138981700Y-109100000D01*
X155800000Y-79000000D02*
X155800000Y-80001700D01*
X156849800Y-82271200D02*
X156722700Y-82398300D01*
X159500000Y-100900000D02*
X159475000Y-100875000D01*
X103000000Y-121900000D02*
X103000000Y-124300000D01*
X103000000Y-37600000D02*
X103000000Y-40000000D01*
X159475000Y-100875000D02*
X159475000Y-95800000D01*
D30*
X154100000Y-67276000D02*
X154100000Y-64736000D01*
X157897800Y-91722800D02*
X157897800Y-86502200D01*
X159475000Y-93300000D02*
X157897800Y-91722800D01*
X158500000Y-106797300D02*
X158500000Y-105420600D01*
X152713900Y-63349900D02*
X152713900Y-46554100D01*
X157356200Y-104276800D02*
X158500000Y-105420600D01*
X135826700Y-84586700D02*
X137480000Y-86240000D01*
X134000000Y-77480000D02*
X135826700Y-77480000D01*
X159475000Y-93300000D02*
X157356200Y-95418800D01*
X157897800Y-86502200D02*
X159100000Y-85300000D01*
X135826700Y-77480000D02*
X135826700Y-84586700D01*
X152713900Y-46554100D02*
X154144000Y-45124000D01*
X157356200Y-95418800D02*
X157356200Y-104276800D01*
X154100000Y-64736000D02*
X152713900Y-63349900D01*
X99923300Y-55576700D02*
X99923300Y-73923300D01*
X102000000Y-53500000D02*
X99923300Y-55576700D01*
X99923300Y-73923300D02*
X102000000Y-76000000D01*
X105595800Y-52704200D02*
X105595800Y-57404200D01*
X114500000Y-43800000D02*
X105595800Y-52704200D01*
X105595800Y-57404200D02*
X102000000Y-61000000D01*
X102000000Y-66000000D02*
X102000000Y-71000000D01*
X114200000Y-53800000D02*
X114500000Y-53800000D01*
X102000000Y-66000000D02*
X114200000Y-53800000D01*
X99923300Y-85576700D02*
X99923300Y-103923300D01*
X102000000Y-83500000D02*
X99923300Y-85576700D01*
X99923300Y-103923300D02*
X102000000Y-106000000D01*
X102000000Y-88500000D02*
X102000000Y-93500000D01*
D29*
X162123800Y-65643600D02*
X161231900Y-64751700D01*
X161231900Y-64751700D02*
X160800000Y-64751700D01*
X162123800Y-67585400D02*
X162123800Y-65643600D01*
X162531700Y-67993300D02*
X162169900Y-67631500D01*
X162531700Y-111553400D02*
X162531700Y-67993300D01*
X162122300Y-111962800D02*
X162531700Y-111553400D01*
X162169900Y-67631500D02*
X162123800Y-67585400D01*
X160800000Y-63600000D02*
X160800000Y-64751700D01*
X162169900Y-67631500D02*
X162123800Y-67585400D01*
X151631900Y-46065300D02*
X153680100Y-44017100D01*
X151631900Y-85775600D02*
X151631900Y-46065300D01*
X150418700Y-91825800D02*
X150418700Y-86988800D01*
X155279400Y-46528600D02*
X154144000Y-47664000D01*
X153680100Y-44017100D02*
X154609600Y-44017100D01*
X150418700Y-86988800D02*
X151631900Y-85775600D01*
X155279400Y-44686900D02*
X155279400Y-46528600D01*
X154609600Y-44017100D02*
X155279400Y-44686900D01*
X150930200Y-51100000D02*
X150930200Y-77675300D01*
X147921700Y-80012300D02*
X146601700Y-81332300D01*
X150930200Y-77675300D02*
X148593200Y-80012300D01*
X146601700Y-91320000D02*
X145100000Y-91320000D01*
X148593200Y-80012300D02*
X147921700Y-80012300D01*
X146601700Y-81332300D02*
X146601700Y-91320000D01*
D30*
X114500000Y-58800000D02*
X104684600Y-68615400D01*
X104684600Y-95815400D02*
X102000000Y-98500000D01*
X104684600Y-68615400D02*
X104684600Y-95815400D01*
D29*
X134000000Y-102880000D02*
X132448300Y-102880000D01*
X134997700Y-91131700D02*
X135978300Y-90151100D01*
X132448300Y-102880000D02*
X132448300Y-92279700D01*
X137480000Y-88780000D02*
X135978300Y-88780000D01*
X132448300Y-92279700D02*
X133596300Y-91131700D01*
X133596300Y-91131700D02*
X134997700Y-91131700D01*
X135978300Y-90151100D02*
X135978300Y-88780000D01*
D30*
X106773300Y-71526700D02*
X106773300Y-106226700D01*
X114500000Y-63800000D02*
X106773300Y-71526700D01*
X106773300Y-106226700D02*
X102000000Y-111000000D01*
D29*
X135978300Y-91320000D02*
X135551700Y-91746600D01*
X134000000Y-100340000D02*
X135551700Y-100340000D01*
X135551700Y-91746600D02*
X135551700Y-100340000D01*
X137480000Y-91320000D02*
X135978300Y-91320000D01*
X160800000Y-68600000D02*
X160800000Y-68024100D01*
X160800000Y-54751700D02*
X160368100Y-54751700D01*
X160247600Y-113085200D02*
X159516400Y-113816400D01*
X141883900Y-120128800D02*
X142575000Y-119437700D01*
X160800000Y-53600000D02*
X160800000Y-54751700D01*
X138900000Y-118800000D02*
X140228800Y-120128800D01*
X162122300Y-69346400D02*
X162122300Y-109730900D01*
X159507600Y-55612200D02*
X159507600Y-66607600D01*
X160800000Y-68024100D02*
X160800000Y-67448300D01*
X162122300Y-109730900D02*
X160247600Y-111605600D01*
X159507600Y-66607600D02*
X160348300Y-67448300D01*
X142575000Y-119437700D02*
X142575000Y-114726700D01*
X160348300Y-67448300D02*
X160800000Y-67448300D01*
X160247600Y-111605600D02*
X160247600Y-113085200D01*
X160368100Y-54751700D02*
X159507600Y-55612200D01*
X160800000Y-68024100D02*
X162122300Y-69346400D01*
X140228800Y-120128800D02*
X141883900Y-120128800D01*
X142575000Y-114726700D02*
X142500000Y-114651700D01*
X142500000Y-113600000D02*
X142500000Y-114651700D01*
X139383400Y-101538500D02*
X138313500Y-102608400D01*
X134000000Y-107960000D02*
X135551700Y-107960000D01*
X135551700Y-103910800D02*
X135551700Y-107960000D01*
X139383400Y-87796600D02*
X139383400Y-101538500D01*
X136854100Y-102608400D02*
X135551700Y-103910800D01*
X148180000Y-79000000D02*
X148180000Y-76800000D01*
X138313500Y-102608400D02*
X136854100Y-102608400D01*
X148180000Y-79000000D02*
X139383400Y-87796600D01*
X148180000Y-83400000D02*
X148180000Y-81200000D01*
X138210200Y-95130000D02*
X136791200Y-95130000D01*
X138981700Y-94358500D02*
X138210200Y-95130000D01*
X136791200Y-95130000D02*
X135962800Y-95958400D01*
X138981700Y-87019900D02*
X138981700Y-94358500D01*
X135962800Y-95958400D02*
X135962800Y-102897300D01*
X141900000Y-84112800D02*
X140118000Y-85883600D01*
X135962800Y-102897300D02*
X134000000Y-104860100D01*
X134000000Y-104860100D02*
X134000000Y-105420000D01*
X140118000Y-85883600D02*
X138981700Y-87019900D01*
X146898300Y-94025200D02*
X146898300Y-93900000D01*
X146898300Y-93900000D02*
X147900000Y-93900000D01*
X145793500Y-95130000D02*
X146898300Y-94025200D01*
X144402600Y-95130000D02*
X145793500Y-95130000D01*
X143100000Y-101500000D02*
X143600000Y-100800000D01*
X143600000Y-100800000D02*
X143598300Y-95934300D01*
X143598300Y-95934300D02*
X144402600Y-95130000D01*
X145100000Y-96400000D02*
X146601700Y-96400000D01*
X149384300Y-93832800D02*
X148067100Y-95150000D01*
X148100000Y-87101700D02*
X149384300Y-88386000D01*
X148067100Y-95150000D02*
X147623400Y-95150000D01*
X147623400Y-95150000D02*
X146601700Y-96171700D01*
X148100000Y-86100000D02*
X148100000Y-87101700D01*
X146601700Y-96171700D02*
X146601700Y-96400000D01*
X149384300Y-88386000D02*
X149384300Y-93832800D01*
X163704200Y-98100000D02*
X163704200Y-59704200D01*
X160800000Y-57251700D02*
X160800000Y-56100000D01*
X161251700Y-57251700D02*
X160800000Y-57251700D01*
X163704200Y-59704200D02*
X161251700Y-57251700D01*
X116423900Y-118774900D02*
X116423900Y-91372200D01*
X116423900Y-91372200D02*
X110151700Y-85100000D01*
X108600000Y-85100000D02*
X110151700Y-85100000D01*
X153763300Y-116436700D02*
X153763300Y-93123300D01*
X151400000Y-118800000D02*
X152551700Y-118800000D01*
X152551700Y-117648300D02*
X153763300Y-116436700D01*
X152551700Y-118800000D02*
X152551700Y-117648300D01*
X140700000Y-100100000D02*
X138981700Y-104020000D01*
X138981700Y-104020000D02*
X137480000Y-104020000D01*
X140700000Y-93800000D02*
X140700000Y-100100000D01*
X150051700Y-117648300D02*
X151412700Y-116287300D01*
X148900000Y-118800000D02*
X150051700Y-118800000D01*
X151412700Y-87781400D02*
X152321600Y-86872500D01*
X150051700Y-118800000D02*
X150051700Y-117648300D01*
X151412700Y-116287300D02*
X151412700Y-87781400D01*
X147900000Y-89901700D02*
X148940800Y-90942500D01*
X138981700Y-106560000D02*
X137480000Y-106560000D01*
X148940800Y-91778100D02*
X148222300Y-92496600D01*
X142300000Y-102300000D02*
X138981700Y-106560000D01*
X142300000Y-94000000D02*
X142300000Y-102300000D01*
X148222300Y-92496600D02*
X144505300Y-92496600D01*
X144505300Y-92496600D02*
X142300000Y-94000000D01*
X147900000Y-88900000D02*
X147900000Y-89901700D01*
X148940800Y-90942500D02*
X148940800Y-91778100D01*
G04 #@! TA.AperFunction,Conductor*
G36*
X145912534Y-82230528D02*
G01*
X145968467Y-82272400D01*
X145992884Y-82337864D01*
X145993200Y-82346710D01*
X145993200Y-84853740D01*
X145973515Y-84920779D01*
X145920711Y-84966534D01*
X145851553Y-84976478D01*
X145830885Y-84971672D01*
X145806409Y-84963720D01*
X145669988Y-84942113D01*
X145602981Y-84931500D01*
X144597019Y-84931500D01*
X144577920Y-84934525D01*
X144393591Y-84963719D01*
X144197705Y-85027367D01*
X144014193Y-85120873D01*
X143847576Y-85241926D01*
X143847571Y-85241930D01*
X143701930Y-85387571D01*
X143701926Y-85387576D01*
X143580873Y-85554193D01*
X143487367Y-85737705D01*
X143423719Y-85933591D01*
X143391500Y-86137019D01*
X143391500Y-86342980D01*
X143423719Y-86546408D01*
X143487367Y-86742294D01*
X143537429Y-86840544D01*
X143560227Y-86885288D01*
X143580873Y-86925806D01*
X143701926Y-87092423D01*
X143701930Y-87092428D01*
X143847570Y-87238068D01*
X143847576Y-87238073D01*
X143992908Y-87343661D01*
X144014197Y-87359129D01*
X144102819Y-87404284D01*
X144153615Y-87452259D01*
X144170410Y-87520080D01*
X144147873Y-87586214D01*
X144102819Y-87625254D01*
X144018650Y-87668140D01*
X143853105Y-87788417D01*
X143853104Y-87788417D01*
X143708417Y-87933104D01*
X143708417Y-87933105D01*
X143588140Y-88098650D01*
X143495244Y-88280970D01*
X143432009Y-88475586D01*
X143423391Y-88530000D01*
X144784314Y-88530000D01*
X144779920Y-88534394D01*
X144727259Y-88625606D01*
X144700000Y-88727339D01*
X144700000Y-88832661D01*
X144727259Y-88934394D01*
X144779920Y-89025606D01*
X144784314Y-89030000D01*
X143423391Y-89030000D01*
X143432009Y-89084413D01*
X143495244Y-89279029D01*
X143588140Y-89461349D01*
X143708417Y-89626894D01*
X143708417Y-89626895D01*
X143853104Y-89771582D01*
X144018652Y-89891861D01*
X144102818Y-89934745D01*
X144153614Y-89982719D01*
X144170410Y-90050540D01*
X144147873Y-90116675D01*
X144102820Y-90155714D01*
X144014195Y-90200871D01*
X143847576Y-90321926D01*
X143847571Y-90321930D01*
X143701930Y-90467571D01*
X143701926Y-90467576D01*
X143580873Y-90634193D01*
X143487367Y-90817705D01*
X143423719Y-91013591D01*
X143391500Y-91217019D01*
X143391500Y-91422980D01*
X143423719Y-91626408D01*
X143487367Y-91822294D01*
X143530057Y-91906076D01*
X143567982Y-91980508D01*
X143580873Y-92005806D01*
X143692615Y-92159607D01*
X143716095Y-92225413D01*
X143700269Y-92293467D01*
X143662144Y-92334949D01*
X141979867Y-93481793D01*
X141976036Y-93484404D01*
X141926372Y-93513079D01*
X141910086Y-93529363D01*
X141900479Y-93535913D01*
X141900479Y-93535914D01*
X141891051Y-93542342D01*
X141891048Y-93542344D01*
X141856655Y-93582305D01*
X141854556Y-93584682D01*
X141852507Y-93586942D01*
X141813079Y-93626372D01*
X141806587Y-93637614D01*
X141797699Y-93647423D01*
X141778718Y-93659032D01*
X141762616Y-93674381D01*
X141749496Y-93676907D01*
X141738095Y-93683881D01*
X141715849Y-93683386D01*
X141694007Y-93687592D01*
X141681604Y-93682624D01*
X141668243Y-93682327D01*
X141649796Y-93669884D01*
X141629146Y-93661613D01*
X141621397Y-93650728D01*
X141610319Y-93643255D01*
X141601528Y-93622815D01*
X141588628Y-93604692D01*
X141584200Y-93588357D01*
X141573587Y-93535000D01*
X141505102Y-93369664D01*
X141505100Y-93369661D01*
X141505098Y-93369657D01*
X141405678Y-93220865D01*
X141405675Y-93220861D01*
X141279138Y-93094324D01*
X141279134Y-93094321D01*
X141130342Y-92994901D01*
X141130332Y-92994896D01*
X140965000Y-92926413D01*
X140964992Y-92926411D01*
X140789483Y-92891500D01*
X140789479Y-92891500D01*
X140610521Y-92891500D01*
X140610516Y-92891500D01*
X140435007Y-92926411D01*
X140434999Y-92926413D01*
X140269667Y-92994896D01*
X140269659Y-92994900D01*
X140184790Y-93051608D01*
X140118113Y-93072485D01*
X140050733Y-93054000D01*
X140004043Y-93002021D01*
X139991900Y-92948505D01*
X139991900Y-88100010D01*
X140011585Y-88032971D01*
X140028219Y-88012329D01*
X145781519Y-82259029D01*
X145842842Y-82225544D01*
X145912534Y-82230528D01*
G37*
G04 #@! TD.AperFunction*
G04 #@! TA.AperFunction,Conductor*
G36*
X163004043Y-36025765D02*
G01*
X163249632Y-36041861D01*
X163265690Y-36043976D01*
X163469394Y-36084495D01*
X163503064Y-36091193D01*
X163518731Y-36095391D01*
X163687510Y-36152683D01*
X163747913Y-36173188D01*
X163762890Y-36179391D01*
X163970539Y-36281792D01*
X163979960Y-36286438D01*
X163994007Y-36294548D01*
X164033528Y-36320955D01*
X164195245Y-36429011D01*
X164208106Y-36438879D01*
X164291582Y-36512086D01*
X164390071Y-36598459D01*
X164401540Y-36609928D01*
X164561117Y-36791890D01*
X164570991Y-36804758D01*
X164705451Y-37005992D01*
X164713561Y-37020039D01*
X164820605Y-37237102D01*
X164826812Y-37252088D01*
X164904608Y-37481268D01*
X164908806Y-37496935D01*
X164956021Y-37734298D01*
X164958139Y-37750379D01*
X164974235Y-37995955D01*
X164974500Y-38004065D01*
X164974500Y-126195933D01*
X164974235Y-126204043D01*
X164958139Y-126449620D01*
X164956021Y-126465701D01*
X164908806Y-126703064D01*
X164904608Y-126718731D01*
X164826812Y-126947911D01*
X164820605Y-126962897D01*
X164713561Y-127179960D01*
X164705451Y-127194007D01*
X164570991Y-127395241D01*
X164561117Y-127408109D01*
X164401540Y-127590071D01*
X164390071Y-127601540D01*
X164208109Y-127761117D01*
X164195241Y-127770991D01*
X163994007Y-127905451D01*
X163979960Y-127913561D01*
X163762897Y-128020605D01*
X163747911Y-128026812D01*
X163518731Y-128104608D01*
X163503064Y-128108806D01*
X163265701Y-128156021D01*
X163249620Y-128158139D01*
X163004043Y-128174235D01*
X162995933Y-128174500D01*
X103746141Y-128174500D01*
X103679102Y-128154815D01*
X103633347Y-128102011D01*
X103623403Y-128032853D01*
X103652428Y-127969297D01*
X103711206Y-127931523D01*
X103721950Y-127928883D01*
X103900090Y-127893449D01*
X103900101Y-127893446D01*
X104247997Y-127787913D01*
X104583864Y-127648792D01*
X104583869Y-127648790D01*
X104904462Y-127477429D01*
X104904480Y-127477418D01*
X105206736Y-127275457D01*
X105206750Y-127275447D01*
X105434765Y-127088320D01*
X105434766Y-127088319D01*
X105373633Y-127027186D01*
X103940698Y-125594251D01*
X104042330Y-125520412D01*
X104220412Y-125342330D01*
X104294251Y-125240698D01*
X105788319Y-126734766D01*
X105788320Y-126734765D01*
X105975447Y-126506750D01*
X105975457Y-126506736D01*
X106177418Y-126204480D01*
X106177429Y-126204462D01*
X106348790Y-125883869D01*
X106348792Y-125883864D01*
X106487913Y-125547997D01*
X106593446Y-125200101D01*
X106593449Y-125200090D01*
X106664367Y-124843556D01*
X106700000Y-124481765D01*
X106700000Y-124118234D01*
X106664367Y-123756443D01*
X106593449Y-123399909D01*
X106593446Y-123399898D01*
X106487913Y-123052002D01*
X106348792Y-122716135D01*
X106348790Y-122716130D01*
X106177429Y-122395537D01*
X106177418Y-122395519D01*
X105975448Y-122093249D01*
X105788320Y-121865233D01*
X105788319Y-121865232D01*
X104294251Y-123359300D01*
X104220412Y-123257670D01*
X104042330Y-123079588D01*
X103940698Y-123005748D01*
X105434766Y-121511679D01*
X105434765Y-121511678D01*
X105206750Y-121324551D01*
X104904480Y-121122581D01*
X104904462Y-121122570D01*
X104583869Y-120951209D01*
X104583864Y-120951207D01*
X104247997Y-120812086D01*
X103900101Y-120706553D01*
X103900090Y-120706550D01*
X103543556Y-120635632D01*
X103181766Y-120600000D01*
X102818234Y-120600000D01*
X102456443Y-120635632D01*
X102099909Y-120706550D01*
X102099898Y-120706553D01*
X101752002Y-120812086D01*
X101416135Y-120951207D01*
X101416130Y-120951209D01*
X101095537Y-121122570D01*
X101095519Y-121122581D01*
X100793258Y-121324545D01*
X100793254Y-121324548D01*
X100565233Y-121511679D01*
X100565233Y-121511680D01*
X102059301Y-123005748D01*
X101957670Y-123079588D01*
X101779588Y-123257670D01*
X101705748Y-123359301D01*
X100211680Y-121865233D01*
X100211679Y-121865233D01*
X100024548Y-122093254D01*
X100024545Y-122093258D01*
X99822581Y-122395519D01*
X99822570Y-122395537D01*
X99651209Y-122716130D01*
X99651207Y-122716135D01*
X99512086Y-123052002D01*
X99406553Y-123399898D01*
X99406550Y-123399909D01*
X99335632Y-123756443D01*
X99300000Y-124118234D01*
X99300000Y-124481765D01*
X99335632Y-124843556D01*
X99406550Y-125200090D01*
X99406553Y-125200101D01*
X99512086Y-125547997D01*
X99651207Y-125883864D01*
X99651209Y-125883869D01*
X99822570Y-126204462D01*
X99822581Y-126204480D01*
X100024551Y-126506750D01*
X100211678Y-126734765D01*
X100211679Y-126734766D01*
X101705747Y-125240697D01*
X101779588Y-125342330D01*
X101957670Y-125520412D01*
X102059301Y-125594251D01*
X100565232Y-127088319D01*
X100565233Y-127088320D01*
X100793249Y-127275448D01*
X101095519Y-127477418D01*
X101095537Y-127477429D01*
X101416130Y-127648790D01*
X101416135Y-127648792D01*
X101752002Y-127787913D01*
X102099898Y-127893446D01*
X102099909Y-127893449D01*
X102278050Y-127928883D01*
X102339961Y-127961268D01*
X102374535Y-128021983D01*
X102370796Y-128091753D01*
X102329930Y-128148425D01*
X102264912Y-128174006D01*
X102253859Y-128174500D01*
X101004067Y-128174500D01*
X100995957Y-128174235D01*
X100750379Y-128158139D01*
X100734298Y-128156021D01*
X100496935Y-128108806D01*
X100481268Y-128104608D01*
X100252088Y-128026812D01*
X100237102Y-128020605D01*
X100236917Y-128020514D01*
X100133060Y-127969297D01*
X100020039Y-127913561D01*
X100005992Y-127905451D01*
X99804758Y-127770991D01*
X99791890Y-127761117D01*
X99609928Y-127601540D01*
X99598459Y-127590071D01*
X99438882Y-127408109D01*
X99429008Y-127395241D01*
X99417106Y-127377429D01*
X99294548Y-127194007D01*
X99286438Y-127179960D01*
X99211098Y-127027186D01*
X99179391Y-126962890D01*
X99173187Y-126947911D01*
X99095391Y-126718731D01*
X99091193Y-126703064D01*
X99069897Y-126596003D01*
X99043976Y-126465690D01*
X99041861Y-126449632D01*
X99025765Y-126204043D01*
X99025500Y-126195933D01*
X99025500Y-110868362D01*
X99991500Y-110868362D01*
X99991500Y-111131637D01*
X99991501Y-111131653D01*
X100025865Y-111392678D01*
X100094009Y-111646995D01*
X100194761Y-111890234D01*
X100194769Y-111890250D01*
X100326409Y-112118256D01*
X100486687Y-112327136D01*
X100486693Y-112327143D01*
X100672856Y-112513306D01*
X100672863Y-112513312D01*
X100881743Y-112673590D01*
X101109749Y-112805230D01*
X101109765Y-112805238D01*
X101261451Y-112868068D01*
X101353003Y-112905990D01*
X101607320Y-112974134D01*
X101868356Y-113008500D01*
X101868363Y-113008500D01*
X102131637Y-113008500D01*
X102131644Y-113008500D01*
X102392680Y-112974134D01*
X102646997Y-112905990D01*
X102858820Y-112818250D01*
X102890234Y-112805238D01*
X102890237Y-112805236D01*
X102890243Y-112805234D01*
X103118257Y-112673590D01*
X103327138Y-112513311D01*
X103513311Y-112327138D01*
X103673590Y-112118257D01*
X103805234Y-111890243D01*
X103808856Y-111881500D01*
X103865545Y-111744639D01*
X103905990Y-111646997D01*
X103974134Y-111392680D01*
X104008500Y-111131644D01*
X104008500Y-110868356D01*
X103974134Y-110607320D01*
X103922503Y-110414630D01*
X103924166Y-110344784D01*
X103954595Y-110294861D01*
X106658376Y-107591081D01*
X106719699Y-107557596D01*
X106789391Y-107562580D01*
X106845324Y-107604452D01*
X106869741Y-107669916D01*
X106868530Y-107698160D01*
X106841500Y-107868818D01*
X106841500Y-108051181D01*
X106870025Y-108231283D01*
X106926377Y-108404714D01*
X107002392Y-108553900D01*
X107009162Y-108567186D01*
X107116346Y-108714712D01*
X107245288Y-108843654D01*
X107392814Y-108950838D01*
X107469575Y-108989950D01*
X107555285Y-109033622D01*
X107555287Y-109033622D01*
X107555290Y-109033624D01*
X107648250Y-109063828D01*
X107728716Y-109089974D01*
X107839539Y-109107527D01*
X107902674Y-109137456D01*
X107939605Y-109196768D01*
X107938607Y-109266631D01*
X107899997Y-109324863D01*
X107839539Y-109352473D01*
X107728716Y-109370025D01*
X107555285Y-109426377D01*
X107392813Y-109509162D01*
X107370947Y-109525049D01*
X107245288Y-109616346D01*
X107245286Y-109616348D01*
X107245285Y-109616348D01*
X107116348Y-109745285D01*
X107116348Y-109745286D01*
X107116346Y-109745288D01*
X107090491Y-109780875D01*
X107009162Y-109892813D01*
X106926377Y-110055285D01*
X106870025Y-110228716D01*
X106841500Y-110408818D01*
X106841500Y-110591181D01*
X106870025Y-110771283D01*
X106926377Y-110944714D01*
X106990916Y-111071376D01*
X107009162Y-111107186D01*
X107116346Y-111254712D01*
X107245288Y-111383654D01*
X107392814Y-111490838D01*
X107396826Y-111492882D01*
X107555285Y-111573622D01*
X107555287Y-111573622D01*
X107555290Y-111573624D01*
X107648250Y-111603828D01*
X107728716Y-111629974D01*
X107839539Y-111647527D01*
X107902674Y-111677456D01*
X107939605Y-111736768D01*
X107938607Y-111806631D01*
X107899997Y-111864863D01*
X107839539Y-111892473D01*
X107728716Y-111910025D01*
X107555285Y-111966377D01*
X107392813Y-112049162D01*
X107321208Y-112101187D01*
X107245288Y-112156346D01*
X107245286Y-112156348D01*
X107245285Y-112156348D01*
X107116348Y-112285285D01*
X107116348Y-112285286D01*
X107116346Y-112285288D01*
X107108323Y-112296331D01*
X107009162Y-112432813D01*
X106926377Y-112595285D01*
X106870025Y-112768716D01*
X106841500Y-112948818D01*
X106841500Y-113131181D01*
X106870025Y-113311283D01*
X106926377Y-113484714D01*
X106971590Y-113573448D01*
X107009162Y-113647186D01*
X107116346Y-113794712D01*
X107245288Y-113923654D01*
X107392814Y-114030838D01*
X107469575Y-114069950D01*
X107555285Y-114113622D01*
X107555287Y-114113622D01*
X107555290Y-114113624D01*
X107648250Y-114143828D01*
X107728716Y-114169974D01*
X107839539Y-114187527D01*
X107902674Y-114217456D01*
X107939605Y-114276768D01*
X107938607Y-114346631D01*
X107899997Y-114404863D01*
X107839539Y-114432473D01*
X107728716Y-114450025D01*
X107555285Y-114506377D01*
X107392813Y-114589162D01*
X107348300Y-114621503D01*
X107245288Y-114696346D01*
X107245286Y-114696348D01*
X107245285Y-114696348D01*
X107116348Y-114825285D01*
X107116348Y-114825286D01*
X107116346Y-114825288D01*
X107098392Y-114850000D01*
X107009162Y-114972813D01*
X106926377Y-115135285D01*
X106870025Y-115308716D01*
X106841500Y-115488818D01*
X106841500Y-115671181D01*
X106870025Y-115851283D01*
X106926377Y-116024714D01*
X106981700Y-116133289D01*
X107009162Y-116187186D01*
X107116346Y-116334712D01*
X107245288Y-116463654D01*
X107392814Y-116570838D01*
X107438647Y-116594191D01*
X107555285Y-116653622D01*
X107555287Y-116653622D01*
X107555290Y-116653624D01*
X107648250Y-116683828D01*
X107728716Y-116709974D01*
X107839539Y-116727527D01*
X107902674Y-116757456D01*
X107939605Y-116816768D01*
X107938607Y-116886631D01*
X107899997Y-116944863D01*
X107839539Y-116972473D01*
X107728716Y-116990025D01*
X107555285Y-117046377D01*
X107392813Y-117129162D01*
X107351024Y-117159524D01*
X107245288Y-117236346D01*
X107245286Y-117236348D01*
X107245285Y-117236348D01*
X107116348Y-117365285D01*
X107116348Y-117365286D01*
X107116346Y-117365288D01*
X107095370Y-117394159D01*
X107009162Y-117512813D01*
X106926377Y-117675285D01*
X106870025Y-117848716D01*
X106841500Y-118028818D01*
X106841500Y-118211181D01*
X106870025Y-118391283D01*
X106926377Y-118564714D01*
X107009162Y-118727186D01*
X107116346Y-118874712D01*
X107245288Y-119003654D01*
X107392814Y-119110838D01*
X107469575Y-119149950D01*
X107555285Y-119193622D01*
X107555287Y-119193622D01*
X107555290Y-119193624D01*
X107648250Y-119223828D01*
X107728716Y-119249974D01*
X107839539Y-119267527D01*
X107902674Y-119297456D01*
X107939605Y-119356768D01*
X107938607Y-119426631D01*
X107899997Y-119484863D01*
X107839539Y-119512473D01*
X107728716Y-119530025D01*
X107555285Y-119586377D01*
X107392813Y-119669162D01*
X107308644Y-119730314D01*
X107245288Y-119776346D01*
X107245286Y-119776348D01*
X107245285Y-119776348D01*
X107116348Y-119905285D01*
X107116348Y-119905286D01*
X107116346Y-119905288D01*
X107077116Y-119959283D01*
X107009162Y-120052813D01*
X106926377Y-120215285D01*
X106870025Y-120388716D01*
X106841500Y-120568818D01*
X106841500Y-120751181D01*
X106870025Y-120931283D01*
X106926377Y-121104714D01*
X106987438Y-121224551D01*
X107009162Y-121267186D01*
X107116346Y-121414712D01*
X107245288Y-121543654D01*
X107392814Y-121650838D01*
X107469575Y-121689950D01*
X107555285Y-121733622D01*
X107555287Y-121733622D01*
X107555290Y-121733624D01*
X107648250Y-121763828D01*
X107728716Y-121789974D01*
X107839539Y-121807527D01*
X107902674Y-121837456D01*
X107939605Y-121896768D01*
X107938607Y-121966631D01*
X107899997Y-122024863D01*
X107839539Y-122052473D01*
X107728716Y-122070025D01*
X107555285Y-122126377D01*
X107392813Y-122209162D01*
X107308644Y-122270314D01*
X107245288Y-122316346D01*
X107245286Y-122316348D01*
X107245285Y-122316348D01*
X107116348Y-122445285D01*
X107116348Y-122445286D01*
X107116346Y-122445288D01*
X107070314Y-122508644D01*
X107009162Y-122592813D01*
X106926377Y-122755285D01*
X106870025Y-122928716D01*
X106841500Y-123108818D01*
X106841500Y-123291181D01*
X106870025Y-123471283D01*
X106926377Y-123644714D01*
X106983307Y-123756443D01*
X107009162Y-123807186D01*
X107116346Y-123954712D01*
X107245288Y-124083654D01*
X107392814Y-124190838D01*
X107469575Y-124229950D01*
X107555285Y-124273622D01*
X107555287Y-124273622D01*
X107555290Y-124273624D01*
X107636461Y-124299998D01*
X107728716Y-124329974D01*
X107908819Y-124358500D01*
X107908824Y-124358500D01*
X109291181Y-124358500D01*
X109471283Y-124329974D01*
X109483751Y-124325923D01*
X109644710Y-124273624D01*
X109807186Y-124190838D01*
X109954712Y-124083654D01*
X110083654Y-123954712D01*
X110190838Y-123807186D01*
X110273624Y-123644710D01*
X110329974Y-123471283D01*
X110331537Y-123461417D01*
X110358500Y-123291181D01*
X110358500Y-123108818D01*
X110329974Y-122928716D01*
X110273622Y-122755285D01*
X110214573Y-122639397D01*
X110190838Y-122592814D01*
X110083654Y-122445288D01*
X109954712Y-122316346D01*
X109807186Y-122209162D01*
X109644714Y-122126377D01*
X109471283Y-122070025D01*
X109360460Y-122052473D01*
X109297325Y-122022544D01*
X109260394Y-121963232D01*
X109261392Y-121893370D01*
X109300002Y-121835137D01*
X109360460Y-121807527D01*
X109471283Y-121789974D01*
X109644710Y-121733624D01*
X109807186Y-121650838D01*
X109954712Y-121543654D01*
X110083654Y-121414712D01*
X110190838Y-121267186D01*
X110273624Y-121104710D01*
X110329974Y-120931283D01*
X110358500Y-120751181D01*
X110358500Y-120568818D01*
X110329974Y-120388716D01*
X110295787Y-120283500D01*
X110273624Y-120215290D01*
X110273622Y-120215287D01*
X110273622Y-120215285D01*
X110229950Y-120129575D01*
X110190838Y-120052814D01*
X110083654Y-119905288D01*
X109954712Y-119776346D01*
X109807186Y-119669162D01*
X109777072Y-119653818D01*
X109644714Y-119586377D01*
X109471283Y-119530025D01*
X109360460Y-119512473D01*
X109297325Y-119482544D01*
X109260394Y-119423232D01*
X109261392Y-119353370D01*
X109300002Y-119295137D01*
X109360460Y-119267527D01*
X109471283Y-119249974D01*
X109644710Y-119193624D01*
X109807186Y-119110838D01*
X109954712Y-119003654D01*
X110083654Y-118874712D01*
X110190838Y-118727186D01*
X110273624Y-118564710D01*
X110329974Y-118391283D01*
X110340472Y-118325000D01*
X110358500Y-118211181D01*
X110358500Y-118028818D01*
X110329974Y-117848716D01*
X110273622Y-117675285D01*
X110229950Y-117589575D01*
X110190838Y-117512814D01*
X110083654Y-117365288D01*
X109954712Y-117236346D01*
X109807186Y-117129162D01*
X109766582Y-117108473D01*
X109644714Y-117046377D01*
X109471283Y-116990025D01*
X109360460Y-116972473D01*
X109297325Y-116942544D01*
X109260394Y-116883232D01*
X109261392Y-116813370D01*
X109300002Y-116755137D01*
X109360460Y-116727527D01*
X109471283Y-116709974D01*
X109644710Y-116653624D01*
X109807186Y-116570838D01*
X109954712Y-116463654D01*
X110083654Y-116334712D01*
X110190838Y-116187186D01*
X110273624Y-116024710D01*
X110329974Y-115851283D01*
X110338000Y-115800611D01*
X110358500Y-115671181D01*
X110358500Y-115488818D01*
X110329974Y-115308716D01*
X110273622Y-115135285D01*
X110229950Y-115049575D01*
X110190838Y-114972814D01*
X110083654Y-114825288D01*
X109954712Y-114696346D01*
X109807186Y-114589162D01*
X109803753Y-114587413D01*
X109644714Y-114506377D01*
X109471283Y-114450025D01*
X109360460Y-114432473D01*
X109297325Y-114402544D01*
X109260394Y-114343232D01*
X109261392Y-114273370D01*
X109300002Y-114215137D01*
X109360460Y-114187527D01*
X109471283Y-114169974D01*
X109481642Y-114166608D01*
X109644710Y-114113624D01*
X109807186Y-114030838D01*
X109954712Y-113923654D01*
X110083654Y-113794712D01*
X110190838Y-113647186D01*
X110273624Y-113484710D01*
X110329974Y-113311283D01*
X110339592Y-113250556D01*
X110358500Y-113131181D01*
X110358500Y-112948818D01*
X110329974Y-112768716D01*
X110273622Y-112595285D01*
X110204245Y-112459127D01*
X110190838Y-112432814D01*
X110083654Y-112285288D01*
X109954712Y-112156346D01*
X109807186Y-112049162D01*
X109788233Y-112039505D01*
X109644714Y-111966377D01*
X109471283Y-111910025D01*
X109360460Y-111892473D01*
X109297325Y-111862544D01*
X109260394Y-111803232D01*
X109261392Y-111733370D01*
X109300002Y-111675137D01*
X109360460Y-111647527D01*
X109471283Y-111629974D01*
X109644710Y-111573624D01*
X109807186Y-111490838D01*
X109954712Y-111383654D01*
X110083654Y-111254712D01*
X110190838Y-111107186D01*
X110273624Y-110944710D01*
X110329974Y-110771283D01*
X110331360Y-110762535D01*
X110358500Y-110591181D01*
X110358500Y-110408818D01*
X110329974Y-110228716D01*
X110273622Y-110055285D01*
X110190837Y-109892813D01*
X110182794Y-109881743D01*
X110083654Y-109745288D01*
X109954712Y-109616346D01*
X109807186Y-109509162D01*
X109789205Y-109500000D01*
X109644714Y-109426377D01*
X109471283Y-109370025D01*
X109360460Y-109352473D01*
X109297325Y-109322544D01*
X109260394Y-109263232D01*
X109261392Y-109193370D01*
X109300002Y-109135137D01*
X109360460Y-109107527D01*
X109471283Y-109089974D01*
X109509689Y-109077495D01*
X109644710Y-109033624D01*
X109807186Y-108950838D01*
X109954712Y-108843654D01*
X110083654Y-108714712D01*
X110190838Y-108567186D01*
X110273624Y-108404710D01*
X110329974Y-108231283D01*
X110335741Y-108194872D01*
X110358500Y-108051181D01*
X110358500Y-107868818D01*
X110329974Y-107688716D01*
X110273622Y-107515285D01*
X110190837Y-107352813D01*
X110083654Y-107205288D01*
X109954712Y-107076346D01*
X109807186Y-106969162D01*
X109644714Y-106886377D01*
X109471283Y-106830025D01*
X109360460Y-106812473D01*
X109297325Y-106782544D01*
X109260394Y-106723232D01*
X109261392Y-106653370D01*
X109300002Y-106595137D01*
X109360460Y-106567527D01*
X109471283Y-106549974D01*
X109644710Y-106493624D01*
X109807186Y-106410838D01*
X109954712Y-106303654D01*
X110083654Y-106174712D01*
X110190838Y-106027186D01*
X110273624Y-105864710D01*
X110329974Y-105691283D01*
X110341849Y-105616308D01*
X110358500Y-105511181D01*
X110358500Y-105328818D01*
X110329974Y-105148716D01*
X110282338Y-105002110D01*
X110273624Y-104975290D01*
X110273622Y-104975287D01*
X110273622Y-104975285D01*
X110204691Y-104840002D01*
X110190838Y-104812814D01*
X110083654Y-104665288D01*
X109954712Y-104536346D01*
X109807186Y-104429162D01*
X109801922Y-104426480D01*
X109644714Y-104346377D01*
X109471283Y-104290025D01*
X109360460Y-104272473D01*
X109297325Y-104242544D01*
X109260394Y-104183232D01*
X109261392Y-104113370D01*
X109300002Y-104055137D01*
X109360460Y-104027527D01*
X109471283Y-104009974D01*
X109644710Y-103953624D01*
X109807186Y-103870838D01*
X109954712Y-103763654D01*
X110083654Y-103634712D01*
X110190838Y-103487186D01*
X110273624Y-103324710D01*
X110329974Y-103151283D01*
X110358500Y-102971181D01*
X110358500Y-102788818D01*
X110329974Y-102608716D01*
X110294052Y-102498161D01*
X110273624Y-102435290D01*
X110273622Y-102435287D01*
X110273622Y-102435285D01*
X110229950Y-102349575D01*
X110190838Y-102272814D01*
X110083654Y-102125288D01*
X109954712Y-101996346D01*
X109807186Y-101889162D01*
X109798052Y-101884508D01*
X109644714Y-101806377D01*
X109471283Y-101750025D01*
X109360460Y-101732473D01*
X109297325Y-101702544D01*
X109260394Y-101643232D01*
X109261392Y-101573370D01*
X109300002Y-101515137D01*
X109360460Y-101487527D01*
X109471283Y-101469974D01*
X109507430Y-101458229D01*
X109644710Y-101413624D01*
X109807186Y-101330838D01*
X109954712Y-101223654D01*
X110083654Y-101094712D01*
X110190838Y-100947186D01*
X110273624Y-100784710D01*
X110329974Y-100611283D01*
X110343735Y-100524402D01*
X110358500Y-100431181D01*
X110358500Y-100248818D01*
X110329974Y-100068716D01*
X110282234Y-99921789D01*
X110273624Y-99895290D01*
X110273622Y-99895287D01*
X110273622Y-99895285D01*
X110190837Y-99732813D01*
X110147840Y-99673633D01*
X110083654Y-99585288D01*
X109954712Y-99456346D01*
X109807186Y-99349162D01*
X109750110Y-99320080D01*
X109644714Y-99266377D01*
X109471283Y-99210025D01*
X109360460Y-99192473D01*
X109297325Y-99162544D01*
X109260394Y-99103232D01*
X109261392Y-99033370D01*
X109300002Y-98975137D01*
X109360460Y-98947527D01*
X109471283Y-98929974D01*
X109529974Y-98910904D01*
X109644710Y-98873624D01*
X109807186Y-98790838D01*
X109954712Y-98683654D01*
X110083654Y-98554712D01*
X110190838Y-98407186D01*
X110273624Y-98244710D01*
X110329974Y-98071283D01*
X110339598Y-98010520D01*
X110358500Y-97891181D01*
X110358500Y-97708818D01*
X110329974Y-97528716D01*
X110296706Y-97426329D01*
X110273624Y-97355290D01*
X110273622Y-97355287D01*
X110273622Y-97355285D01*
X110190837Y-97192813D01*
X110186822Y-97187287D01*
X110083654Y-97045288D01*
X109954712Y-96916346D01*
X109807186Y-96809162D01*
X109644714Y-96726377D01*
X109471283Y-96670025D01*
X109360460Y-96652473D01*
X109297325Y-96622544D01*
X109260394Y-96563232D01*
X109261392Y-96493370D01*
X109300002Y-96435137D01*
X109360460Y-96407527D01*
X109471283Y-96389974D01*
X109506276Y-96378604D01*
X109644710Y-96333624D01*
X109807186Y-96250838D01*
X109954712Y-96143654D01*
X110083654Y-96014712D01*
X110190838Y-95867186D01*
X110273624Y-95704710D01*
X110329974Y-95531283D01*
X110331450Y-95521966D01*
X110358500Y-95351181D01*
X110358500Y-95168818D01*
X110329974Y-94988716D01*
X110296147Y-94884608D01*
X110273624Y-94815290D01*
X110273622Y-94815287D01*
X110273622Y-94815285D01*
X110221210Y-94712423D01*
X110190838Y-94652814D01*
X110083654Y-94505288D01*
X109954712Y-94376346D01*
X109807186Y-94269162D01*
X109799887Y-94265443D01*
X109644714Y-94186377D01*
X109471283Y-94130025D01*
X109360460Y-94112473D01*
X109297325Y-94082544D01*
X109260394Y-94023232D01*
X109261392Y-93953370D01*
X109300002Y-93895137D01*
X109360460Y-93867527D01*
X109471283Y-93849974D01*
X109644710Y-93793624D01*
X109807186Y-93710838D01*
X109954712Y-93603654D01*
X110083654Y-93474712D01*
X110190838Y-93327186D01*
X110273624Y-93164710D01*
X110329974Y-92991283D01*
X110332045Y-92978208D01*
X110358500Y-92811181D01*
X110358500Y-92628818D01*
X110329974Y-92448716D01*
X110293008Y-92334949D01*
X110273624Y-92275290D01*
X110273622Y-92275287D01*
X110273622Y-92275285D01*
X110190837Y-92112813D01*
X110083654Y-91965288D01*
X109954712Y-91836346D01*
X109807186Y-91729162D01*
X109801271Y-91726148D01*
X109644714Y-91646377D01*
X109471283Y-91590025D01*
X109360460Y-91572473D01*
X109297325Y-91542544D01*
X109260394Y-91483232D01*
X109261392Y-91413370D01*
X109300002Y-91355137D01*
X109360460Y-91327527D01*
X109471283Y-91309974D01*
X109484892Y-91305552D01*
X109644710Y-91253624D01*
X109807186Y-91170838D01*
X109954712Y-91063654D01*
X110083654Y-90934712D01*
X110190838Y-90787186D01*
X110273624Y-90624710D01*
X110329974Y-90451283D01*
X110339345Y-90392116D01*
X110358500Y-90271181D01*
X110358500Y-90088818D01*
X110329974Y-89908716D01*
X110282886Y-89763796D01*
X110273624Y-89735290D01*
X110273622Y-89735287D01*
X110273622Y-89735285D01*
X110190837Y-89572813D01*
X110167743Y-89541027D01*
X110083654Y-89425288D01*
X109954712Y-89296346D01*
X109807186Y-89189162D01*
X109789205Y-89180000D01*
X109644714Y-89106377D01*
X109471283Y-89050025D01*
X109360460Y-89032473D01*
X109297325Y-89002544D01*
X109260394Y-88943232D01*
X109261392Y-88873370D01*
X109300002Y-88815137D01*
X109360460Y-88787527D01*
X109471283Y-88769974D01*
X109486884Y-88764905D01*
X109644710Y-88713624D01*
X109807186Y-88630838D01*
X109954712Y-88523654D01*
X110083654Y-88394712D01*
X110190838Y-88247186D01*
X110273624Y-88084710D01*
X110329974Y-87911283D01*
X110333010Y-87892116D01*
X110358500Y-87731181D01*
X110358500Y-87548818D01*
X110329974Y-87368716D01*
X110300740Y-87278743D01*
X110273624Y-87195290D01*
X110273622Y-87195287D01*
X110273622Y-87195285D01*
X110213800Y-87077880D01*
X110190838Y-87032814D01*
X110083654Y-86885288D01*
X109954712Y-86756346D01*
X109807186Y-86649162D01*
X109771836Y-86631150D01*
X109644714Y-86566377D01*
X109471283Y-86510025D01*
X109360460Y-86492473D01*
X109297325Y-86462544D01*
X109260394Y-86403232D01*
X109261392Y-86333370D01*
X109300002Y-86275137D01*
X109360460Y-86247527D01*
X109471283Y-86229974D01*
X109644710Y-86173624D01*
X109807186Y-86090838D01*
X109954712Y-85983654D01*
X109977076Y-85961288D01*
X110038395Y-85927804D01*
X110108087Y-85932786D01*
X110152439Y-85961288D01*
X115779081Y-91587930D01*
X115812566Y-91649253D01*
X115815400Y-91675611D01*
X115815400Y-118047224D01*
X115795715Y-118114263D01*
X115779081Y-118134905D01*
X115718224Y-118195761D01*
X115718221Y-118195765D01*
X115618801Y-118344557D01*
X115618796Y-118344567D01*
X115550313Y-118509899D01*
X115550311Y-118509907D01*
X115515400Y-118685416D01*
X115515400Y-118864383D01*
X115550311Y-119039892D01*
X115550313Y-119039900D01*
X115618796Y-119205232D01*
X115618801Y-119205242D01*
X115718221Y-119354034D01*
X115718224Y-119354038D01*
X115844761Y-119480575D01*
X115844765Y-119480578D01*
X115993557Y-119579998D01*
X115993561Y-119580000D01*
X115993564Y-119580002D01*
X116158900Y-119648487D01*
X116314442Y-119679426D01*
X116334416Y-119683399D01*
X116334420Y-119683400D01*
X116334421Y-119683400D01*
X116513380Y-119683400D01*
X116513381Y-119683399D01*
X116688900Y-119648487D01*
X116854236Y-119580002D01*
X117003035Y-119480578D01*
X117129578Y-119354035D01*
X117229002Y-119205236D01*
X117297487Y-119039900D01*
X117332400Y-118864379D01*
X117332400Y-118685421D01*
X117297487Y-118509900D01*
X117229002Y-118344564D01*
X117229000Y-118344561D01*
X117228998Y-118344557D01*
X117129578Y-118195765D01*
X117129575Y-118195761D01*
X117068719Y-118134905D01*
X117035234Y-118073582D01*
X117032400Y-118047224D01*
X117032400Y-92199589D01*
X131839800Y-92199589D01*
X131839800Y-102960111D01*
X131856364Y-103021930D01*
X131881269Y-103114874D01*
X131881269Y-103114875D01*
X131961376Y-103253624D01*
X131961378Y-103253626D01*
X131961379Y-103253628D01*
X132074672Y-103366921D01*
X132213428Y-103447032D01*
X132368189Y-103488500D01*
X132368191Y-103488500D01*
X132376039Y-103490603D01*
X132375228Y-103493629D01*
X132425584Y-103515877D01*
X132445864Y-103537702D01*
X132516346Y-103634712D01*
X132645288Y-103763654D01*
X132792814Y-103870838D01*
X132869575Y-103909950D01*
X132955285Y-103953622D01*
X132955287Y-103953622D01*
X132955290Y-103953624D01*
X133048250Y-103983828D01*
X133128716Y-104009974D01*
X133239539Y-104027527D01*
X133302674Y-104057456D01*
X133339605Y-104116768D01*
X133338607Y-104186631D01*
X133299997Y-104244863D01*
X133239539Y-104272473D01*
X133128716Y-104290025D01*
X132955285Y-104346377D01*
X132792813Y-104429162D01*
X132746574Y-104462757D01*
X132645288Y-104536346D01*
X132645286Y-104536348D01*
X132645285Y-104536348D01*
X132516348Y-104665285D01*
X132516348Y-104665286D01*
X132516346Y-104665288D01*
X132494547Y-104695292D01*
X132409162Y-104812813D01*
X132326377Y-104975285D01*
X132270025Y-105148716D01*
X132241500Y-105328818D01*
X132241500Y-105511181D01*
X132270025Y-105691283D01*
X132326377Y-105864714D01*
X132404541Y-106018116D01*
X132409162Y-106027186D01*
X132516346Y-106174712D01*
X132645288Y-106303654D01*
X132792814Y-106410838D01*
X132869575Y-106449950D01*
X132955285Y-106493622D01*
X132955287Y-106493622D01*
X132955290Y-106493624D01*
X133011467Y-106511877D01*
X133128716Y-106549974D01*
X133239539Y-106567527D01*
X133302674Y-106597456D01*
X133339605Y-106656768D01*
X133338607Y-106726631D01*
X133299997Y-106784863D01*
X133239539Y-106812473D01*
X133128716Y-106830025D01*
X132955285Y-106886377D01*
X132792813Y-106969162D01*
X132729898Y-107014873D01*
X132645288Y-107076346D01*
X132645286Y-107076348D01*
X132645285Y-107076348D01*
X132516348Y-107205285D01*
X132516348Y-107205286D01*
X132516346Y-107205288D01*
X132502081Y-107224922D01*
X132409162Y-107352813D01*
X132326377Y-107515285D01*
X132270025Y-107688716D01*
X132241500Y-107868818D01*
X132241500Y-108051181D01*
X132270025Y-108231283D01*
X132326377Y-108404714D01*
X132402392Y-108553900D01*
X132409162Y-108567186D01*
X132516346Y-108714712D01*
X132645288Y-108843654D01*
X132792814Y-108950838D01*
X132869575Y-108989950D01*
X132955285Y-109033622D01*
X132955287Y-109033622D01*
X132955290Y-109033624D01*
X133048250Y-109063828D01*
X133128716Y-109089974D01*
X133239539Y-109107527D01*
X133302674Y-109137456D01*
X133339605Y-109196768D01*
X133338607Y-109266631D01*
X133299997Y-109324863D01*
X133239539Y-109352473D01*
X133128716Y-109370025D01*
X132955285Y-109426377D01*
X132792813Y-109509162D01*
X132770947Y-109525049D01*
X132645288Y-109616346D01*
X132645286Y-109616348D01*
X132645285Y-109616348D01*
X132516348Y-109745285D01*
X132516348Y-109745286D01*
X132516346Y-109745288D01*
X132490491Y-109780875D01*
X132409162Y-109892813D01*
X132326377Y-110055285D01*
X132270025Y-110228716D01*
X132241500Y-110408818D01*
X132241500Y-110591181D01*
X132270025Y-110771283D01*
X132326377Y-110944714D01*
X132390916Y-111071376D01*
X132409162Y-111107186D01*
X132516346Y-111254712D01*
X132645288Y-111383654D01*
X132792814Y-111490838D01*
X132796826Y-111492882D01*
X132955285Y-111573622D01*
X132955287Y-111573622D01*
X132955290Y-111573624D01*
X133048250Y-111603828D01*
X133128716Y-111629974D01*
X133239539Y-111647527D01*
X133302674Y-111677456D01*
X133339605Y-111736768D01*
X133338607Y-111806631D01*
X133299997Y-111864863D01*
X133239539Y-111892473D01*
X133128716Y-111910025D01*
X132955285Y-111966377D01*
X132792813Y-112049162D01*
X132721208Y-112101187D01*
X132645288Y-112156346D01*
X132645286Y-112156348D01*
X132645285Y-112156348D01*
X132516348Y-112285285D01*
X132516348Y-112285286D01*
X132516346Y-112285288D01*
X132508323Y-112296331D01*
X132409162Y-112432813D01*
X132326377Y-112595285D01*
X132270025Y-112768716D01*
X132241500Y-112948818D01*
X132241500Y-113131181D01*
X132270025Y-113311283D01*
X132326377Y-113484714D01*
X132371590Y-113573448D01*
X132409162Y-113647186D01*
X132516346Y-113794712D01*
X132645288Y-113923654D01*
X132792814Y-114030838D01*
X132869575Y-114069950D01*
X132955285Y-114113622D01*
X132955287Y-114113622D01*
X132955290Y-114113624D01*
X133048250Y-114143828D01*
X133128716Y-114169974D01*
X133239539Y-114187527D01*
X133302674Y-114217456D01*
X133339605Y-114276768D01*
X133338607Y-114346631D01*
X133299997Y-114404863D01*
X133239539Y-114432473D01*
X133128716Y-114450025D01*
X132955285Y-114506377D01*
X132792813Y-114589162D01*
X132748300Y-114621503D01*
X132645288Y-114696346D01*
X132645286Y-114696348D01*
X132645285Y-114696348D01*
X132516348Y-114825285D01*
X132516348Y-114825286D01*
X132516346Y-114825288D01*
X132498392Y-114850000D01*
X132409162Y-114972813D01*
X132326377Y-115135285D01*
X132270025Y-115308716D01*
X132241500Y-115488818D01*
X132241500Y-115671181D01*
X132270025Y-115851283D01*
X132326377Y-116024714D01*
X132381700Y-116133289D01*
X132409162Y-116187186D01*
X132516346Y-116334712D01*
X132645288Y-116463654D01*
X132792814Y-116570838D01*
X132838647Y-116594191D01*
X132955285Y-116653622D01*
X132955287Y-116653622D01*
X132955290Y-116653624D01*
X133048250Y-116683828D01*
X133128716Y-116709974D01*
X133239539Y-116727527D01*
X133302674Y-116757456D01*
X133339605Y-116816768D01*
X133338607Y-116886631D01*
X133299997Y-116944863D01*
X133239539Y-116972473D01*
X133128716Y-116990025D01*
X132955285Y-117046377D01*
X132792813Y-117129162D01*
X132751024Y-117159524D01*
X132645288Y-117236346D01*
X132645286Y-117236348D01*
X132645285Y-117236348D01*
X132516348Y-117365285D01*
X132516348Y-117365286D01*
X132516346Y-117365288D01*
X132495370Y-117394159D01*
X132409162Y-117512813D01*
X132326377Y-117675285D01*
X132270025Y-117848716D01*
X132241500Y-118028818D01*
X132241500Y-118211181D01*
X132270025Y-118391283D01*
X132326377Y-118564714D01*
X132409162Y-118727186D01*
X132516346Y-118874712D01*
X132645288Y-119003654D01*
X132792814Y-119110838D01*
X132869575Y-119149950D01*
X132955285Y-119193622D01*
X132955287Y-119193622D01*
X132955290Y-119193624D01*
X133048250Y-119223828D01*
X133128716Y-119249974D01*
X133239539Y-119267527D01*
X133302674Y-119297456D01*
X133339605Y-119356768D01*
X133338607Y-119426631D01*
X133299997Y-119484863D01*
X133239539Y-119512473D01*
X133128716Y-119530025D01*
X132955285Y-119586377D01*
X132792813Y-119669162D01*
X132708644Y-119730314D01*
X132645288Y-119776346D01*
X132645286Y-119776348D01*
X132645285Y-119776348D01*
X132516348Y-119905285D01*
X132516348Y-119905286D01*
X132516346Y-119905288D01*
X132477116Y-119959283D01*
X132409162Y-120052813D01*
X132326377Y-120215285D01*
X132270025Y-120388716D01*
X132241500Y-120568818D01*
X132241500Y-120751181D01*
X132270025Y-120931283D01*
X132326377Y-121104714D01*
X132387438Y-121224551D01*
X132409162Y-121267186D01*
X132516346Y-121414712D01*
X132645288Y-121543654D01*
X132792814Y-121650838D01*
X132869575Y-121689950D01*
X132955285Y-121733622D01*
X132955287Y-121733622D01*
X132955290Y-121733624D01*
X133048250Y-121763828D01*
X133128716Y-121789974D01*
X133239539Y-121807527D01*
X133302674Y-121837456D01*
X133339605Y-121896768D01*
X133338607Y-121966631D01*
X133299997Y-122024863D01*
X133239539Y-122052473D01*
X133128716Y-122070025D01*
X132955285Y-122126377D01*
X132792813Y-122209162D01*
X132708644Y-122270314D01*
X132645288Y-122316346D01*
X132645286Y-122316348D01*
X132645285Y-122316348D01*
X132516348Y-122445285D01*
X132516348Y-122445286D01*
X132516346Y-122445288D01*
X132470314Y-122508644D01*
X132409162Y-122592813D01*
X132326377Y-122755285D01*
X132270025Y-122928716D01*
X132241500Y-123108818D01*
X132241500Y-123291181D01*
X132270025Y-123471283D01*
X132326377Y-123644714D01*
X132383307Y-123756443D01*
X132409162Y-123807186D01*
X132516346Y-123954712D01*
X132645288Y-124083654D01*
X132792814Y-124190838D01*
X132869575Y-124229950D01*
X132955285Y-124273622D01*
X132955287Y-124273622D01*
X132955290Y-124273624D01*
X133036461Y-124299998D01*
X133128716Y-124329974D01*
X133308819Y-124358500D01*
X133308824Y-124358500D01*
X134691181Y-124358500D01*
X134871283Y-124329974D01*
X134883751Y-124325923D01*
X135044710Y-124273624D01*
X135207186Y-124190838D01*
X135354712Y-124083654D01*
X135420132Y-124018234D01*
X157200000Y-124018234D01*
X157200000Y-124381765D01*
X157235632Y-124743556D01*
X157306550Y-125100090D01*
X157306553Y-125100101D01*
X157412086Y-125447997D01*
X157551207Y-125783864D01*
X157551209Y-125783869D01*
X157722570Y-126104462D01*
X157722581Y-126104480D01*
X157924551Y-126406750D01*
X158111678Y-126634765D01*
X158111679Y-126634766D01*
X159605747Y-125140697D01*
X159679588Y-125242330D01*
X159857670Y-125420412D01*
X159959301Y-125494251D01*
X158465232Y-126988319D01*
X158465233Y-126988320D01*
X158693249Y-127175448D01*
X158995519Y-127377418D01*
X158995537Y-127377429D01*
X159316130Y-127548790D01*
X159316135Y-127548792D01*
X159652002Y-127687913D01*
X159999898Y-127793446D01*
X159999909Y-127793449D01*
X160356443Y-127864367D01*
X160718234Y-127900000D01*
X161081766Y-127900000D01*
X161443556Y-127864367D01*
X161800090Y-127793449D01*
X161800101Y-127793446D01*
X162147997Y-127687913D01*
X162483864Y-127548792D01*
X162483869Y-127548790D01*
X162804462Y-127377429D01*
X162804480Y-127377418D01*
X163106736Y-127175457D01*
X163106750Y-127175447D01*
X163334765Y-126988320D01*
X163334766Y-126988319D01*
X161840698Y-125494251D01*
X161942330Y-125420412D01*
X162120412Y-125242330D01*
X162194251Y-125140698D01*
X163688319Y-126634766D01*
X163688320Y-126634765D01*
X163875447Y-126406750D01*
X163875457Y-126406736D01*
X164077418Y-126104480D01*
X164077429Y-126104462D01*
X164248790Y-125783869D01*
X164248792Y-125783864D01*
X164387913Y-125447997D01*
X164493446Y-125100101D01*
X164493449Y-125100090D01*
X164564367Y-124743556D01*
X164600000Y-124381765D01*
X164600000Y-124018234D01*
X164564367Y-123656443D01*
X164493449Y-123299909D01*
X164493446Y-123299898D01*
X164387913Y-122952002D01*
X164248792Y-122616135D01*
X164248790Y-122616130D01*
X164077429Y-122295537D01*
X164077418Y-122295519D01*
X163875448Y-121993249D01*
X163688320Y-121765233D01*
X163688319Y-121765232D01*
X162194251Y-123259300D01*
X162120412Y-123157670D01*
X161942330Y-122979588D01*
X161840698Y-122905748D01*
X163334766Y-121411679D01*
X163334765Y-121411678D01*
X163106750Y-121224551D01*
X162804480Y-121022581D01*
X162804462Y-121022570D01*
X162483869Y-120851209D01*
X162483864Y-120851207D01*
X162147997Y-120712086D01*
X161800101Y-120606553D01*
X161800090Y-120606550D01*
X161443556Y-120535632D01*
X161081766Y-120500000D01*
X160718234Y-120500000D01*
X160356443Y-120535632D01*
X159999909Y-120606550D01*
X159999898Y-120606553D01*
X159652002Y-120712086D01*
X159316135Y-120851207D01*
X159316130Y-120851209D01*
X158995537Y-121022570D01*
X158995519Y-121022581D01*
X158693258Y-121224545D01*
X158693254Y-121224548D01*
X158465233Y-121411679D01*
X158465233Y-121411680D01*
X159959301Y-122905748D01*
X159857670Y-122979588D01*
X159679588Y-123157670D01*
X159605748Y-123259301D01*
X158111680Y-121765233D01*
X158111679Y-121765233D01*
X157924548Y-121993254D01*
X157924545Y-121993258D01*
X157722581Y-122295519D01*
X157722570Y-122295537D01*
X157551209Y-122616130D01*
X157551207Y-122616135D01*
X157412086Y-122952002D01*
X157306553Y-123299898D01*
X157306550Y-123299909D01*
X157235632Y-123656443D01*
X157200000Y-124018234D01*
X135420132Y-124018234D01*
X135483654Y-123954712D01*
X135590838Y-123807186D01*
X135673624Y-123644710D01*
X135729974Y-123471283D01*
X135731537Y-123461417D01*
X135758500Y-123291181D01*
X135758500Y-123108818D01*
X135729974Y-122928716D01*
X135673622Y-122755285D01*
X135614573Y-122639397D01*
X135590838Y-122592814D01*
X135483654Y-122445288D01*
X135354712Y-122316346D01*
X135207186Y-122209162D01*
X135044714Y-122126377D01*
X134871283Y-122070025D01*
X134760460Y-122052473D01*
X134697325Y-122022544D01*
X134660394Y-121963232D01*
X134661392Y-121893370D01*
X134700002Y-121835137D01*
X134760460Y-121807527D01*
X134871283Y-121789974D01*
X135044710Y-121733624D01*
X135207186Y-121650838D01*
X135354712Y-121543654D01*
X135483654Y-121414712D01*
X135590838Y-121267186D01*
X135673624Y-121104710D01*
X135729974Y-120931283D01*
X135758500Y-120751181D01*
X135758500Y-120568818D01*
X135729974Y-120388716D01*
X135695787Y-120283500D01*
X135673624Y-120215290D01*
X135673622Y-120215287D01*
X135673622Y-120215285D01*
X135629950Y-120129575D01*
X135590838Y-120052814D01*
X135483654Y-119905288D01*
X135354712Y-119776346D01*
X135207186Y-119669162D01*
X135177072Y-119653818D01*
X135044714Y-119586377D01*
X134871283Y-119530025D01*
X134760460Y-119512473D01*
X134697325Y-119482544D01*
X134660394Y-119423232D01*
X134661392Y-119353370D01*
X134700002Y-119295137D01*
X134760460Y-119267527D01*
X134871283Y-119249974D01*
X135044710Y-119193624D01*
X135207186Y-119110838D01*
X135354712Y-119003654D01*
X135483654Y-118874712D01*
X135590838Y-118727186D01*
X135673624Y-118564710D01*
X135729974Y-118391283D01*
X135740472Y-118325000D01*
X135758500Y-118211181D01*
X135758500Y-118028818D01*
X135729974Y-117848716D01*
X135673622Y-117675285D01*
X135629950Y-117589575D01*
X135590838Y-117512814D01*
X135483654Y-117365288D01*
X135354712Y-117236346D01*
X135207186Y-117129162D01*
X135166582Y-117108473D01*
X135044714Y-117046377D01*
X134871283Y-116990025D01*
X134760460Y-116972473D01*
X134697325Y-116942544D01*
X134660394Y-116883232D01*
X134661392Y-116813370D01*
X134700002Y-116755137D01*
X134760460Y-116727527D01*
X134871283Y-116709974D01*
X135044710Y-116653624D01*
X135207186Y-116570838D01*
X135354712Y-116463654D01*
X135483654Y-116334712D01*
X135590838Y-116187186D01*
X135673624Y-116024710D01*
X135729974Y-115851283D01*
X135738000Y-115800611D01*
X135758500Y-115671181D01*
X135758500Y-115488818D01*
X135729974Y-115308716D01*
X135673622Y-115135285D01*
X135629950Y-115049575D01*
X135590838Y-114972814D01*
X135483654Y-114825288D01*
X135354712Y-114696346D01*
X135207186Y-114589162D01*
X135203753Y-114587413D01*
X135044714Y-114506377D01*
X134871283Y-114450025D01*
X134760460Y-114432473D01*
X134697325Y-114402544D01*
X134660394Y-114343232D01*
X134661392Y-114273370D01*
X134700002Y-114215137D01*
X134760460Y-114187527D01*
X134871283Y-114169974D01*
X134881642Y-114166608D01*
X135044710Y-114113624D01*
X135207186Y-114030838D01*
X135354712Y-113923654D01*
X135483654Y-113794712D01*
X135590838Y-113647186D01*
X135673624Y-113484710D01*
X135729974Y-113311283D01*
X135739592Y-113250556D01*
X135758500Y-113131181D01*
X135758500Y-112948819D01*
X135737819Y-112818250D01*
X135737819Y-112818248D01*
X135729974Y-112768717D01*
X135729974Y-112768716D01*
X135673622Y-112595285D01*
X135604245Y-112459127D01*
X135590838Y-112432814D01*
X135483654Y-112285288D01*
X135354712Y-112156346D01*
X135207186Y-112049162D01*
X135188233Y-112039505D01*
X135044714Y-111966377D01*
X134871283Y-111910025D01*
X134760460Y-111892473D01*
X134697325Y-111862544D01*
X134660394Y-111803232D01*
X134661392Y-111733370D01*
X134700002Y-111675137D01*
X134760460Y-111647527D01*
X134871283Y-111629974D01*
X135044710Y-111573624D01*
X135207186Y-111490838D01*
X135354712Y-111383654D01*
X135483654Y-111254712D01*
X135590838Y-111107186D01*
X135673624Y-110944710D01*
X135729974Y-110771283D01*
X135731360Y-110762535D01*
X135758500Y-110591181D01*
X135758500Y-110408818D01*
X135729974Y-110228716D01*
X135673622Y-110055285D01*
X135590837Y-109892813D01*
X135582794Y-109881743D01*
X135483654Y-109745288D01*
X135354712Y-109616346D01*
X135207186Y-109509162D01*
X135189205Y-109500000D01*
X135044714Y-109426377D01*
X134871283Y-109370025D01*
X134760460Y-109352473D01*
X134697325Y-109322544D01*
X134660394Y-109263232D01*
X134661392Y-109193370D01*
X134700002Y-109135137D01*
X134760460Y-109107527D01*
X134871283Y-109089974D01*
X134909689Y-109077495D01*
X135044710Y-109033624D01*
X135207186Y-108950838D01*
X135354712Y-108843654D01*
X135483654Y-108714712D01*
X135554137Y-108617699D01*
X135573625Y-108602671D01*
X135590236Y-108584511D01*
X135602968Y-108580044D01*
X135609463Y-108575037D01*
X135622723Y-108570716D01*
X135631095Y-108568500D01*
X135631811Y-108568500D01*
X135689784Y-108552966D01*
X135724583Y-108553900D01*
X135759266Y-108554725D01*
X135759429Y-108554835D01*
X135759626Y-108554841D01*
X135788246Y-108574339D01*
X135817129Y-108593887D01*
X135817206Y-108594068D01*
X135817370Y-108594180D01*
X135830936Y-108626129D01*
X135844634Y-108658115D01*
X135844612Y-108658336D01*
X135844678Y-108658491D01*
X135844489Y-108659591D01*
X135839442Y-108711156D01*
X135812009Y-108795585D01*
X135812009Y-108795586D01*
X135803391Y-108850000D01*
X137164314Y-108850000D01*
X137159920Y-108854394D01*
X137107259Y-108945606D01*
X137080000Y-109047339D01*
X137080000Y-109152661D01*
X137107259Y-109254394D01*
X137159920Y-109345606D01*
X137164314Y-109350000D01*
X135803391Y-109350000D01*
X135812009Y-109404413D01*
X135875244Y-109599029D01*
X135968140Y-109781349D01*
X136088417Y-109946894D01*
X136088417Y-109946895D01*
X136233104Y-110091582D01*
X136398650Y-110211859D01*
X136580968Y-110304755D01*
X136775582Y-110367990D01*
X136977683Y-110400000D01*
X137230000Y-110400000D01*
X137230000Y-109415686D01*
X137234394Y-109420080D01*
X137325606Y-109472741D01*
X137427339Y-109500000D01*
X137532661Y-109500000D01*
X137634394Y-109472741D01*
X137725606Y-109420080D01*
X137730000Y-109415686D01*
X137730000Y-110400000D01*
X137982317Y-110400000D01*
X138184417Y-110367990D01*
X138379031Y-110304755D01*
X138561349Y-110211859D01*
X138726894Y-110091582D01*
X138726895Y-110091582D01*
X138871582Y-109946895D01*
X138871582Y-109946894D01*
X138991859Y-109781349D01*
X139084755Y-109599029D01*
X139147990Y-109404413D01*
X139156609Y-109350000D01*
X137795686Y-109350000D01*
X137800080Y-109345606D01*
X137852741Y-109254394D01*
X137880000Y-109152661D01*
X137880000Y-109047339D01*
X137852741Y-108945606D01*
X137800080Y-108854394D01*
X137795686Y-108850000D01*
X139156609Y-108850000D01*
X139147990Y-108795586D01*
X139084755Y-108600970D01*
X138991859Y-108418650D01*
X138871582Y-108253105D01*
X138871582Y-108253104D01*
X138726895Y-108108417D01*
X138561349Y-107988140D01*
X138477180Y-107945254D01*
X138426384Y-107897280D01*
X138409589Y-107829459D01*
X138432126Y-107763324D01*
X138477179Y-107724284D01*
X138565803Y-107679129D01*
X138732430Y-107558068D01*
X138878068Y-107412430D01*
X138921382Y-107352813D01*
X138999128Y-107245805D01*
X139009768Y-107224922D01*
X139032976Y-107200347D01*
X139055703Y-107175341D01*
X139057197Y-107174700D01*
X139057741Y-107174125D01*
X139088143Y-107161443D01*
X139090228Y-107160885D01*
X139107036Y-107157605D01*
X139121698Y-107155783D01*
X139136231Y-107153978D01*
X139136232Y-107153977D01*
X139136236Y-107153977D01*
X139175569Y-107138018D01*
X139216572Y-107127032D01*
X139249484Y-107108029D01*
X139284703Y-107093741D01*
X139318568Y-107068144D01*
X139355328Y-107046921D01*
X139382199Y-107020049D01*
X139412520Y-106997132D01*
X139438606Y-106963642D01*
X139468621Y-106933628D01*
X139487623Y-106900715D01*
X142752193Y-102709691D01*
X142762332Y-102698216D01*
X142773059Y-102687490D01*
X142786921Y-102673628D01*
X142801630Y-102648147D01*
X142811190Y-102633950D01*
X142829279Y-102610731D01*
X142845807Y-102571633D01*
X142867032Y-102534872D01*
X142876868Y-102498161D01*
X142883061Y-102483510D01*
X142927294Y-102429429D01*
X142993746Y-102407845D01*
X143009433Y-102408393D01*
X143010519Y-102408500D01*
X143010521Y-102408500D01*
X143189480Y-102408500D01*
X143189481Y-102408499D01*
X143365000Y-102373587D01*
X143530336Y-102305102D01*
X143533354Y-102303084D01*
X143535177Y-102302514D01*
X143535703Y-102302233D01*
X143535756Y-102302332D01*
X143600028Y-102282206D01*
X143667409Y-102300688D01*
X143698175Y-102329227D01*
X143698766Y-102328723D01*
X143701933Y-102332431D01*
X143847571Y-102478069D01*
X143847576Y-102478073D01*
X144014195Y-102599128D01*
X144093459Y-102639516D01*
X144144254Y-102687490D01*
X144161049Y-102755311D01*
X144138511Y-102821446D01*
X144093459Y-102860484D01*
X144014195Y-102900871D01*
X143847576Y-103021926D01*
X143847571Y-103021930D01*
X143701930Y-103167571D01*
X143701926Y-103167576D01*
X143580873Y-103334193D01*
X143487367Y-103517705D01*
X143423719Y-103713591D01*
X143391500Y-103917019D01*
X143391500Y-104122980D01*
X143423719Y-104326408D01*
X143487367Y-104522294D01*
X143538169Y-104621996D01*
X143575515Y-104695292D01*
X143580873Y-104705806D01*
X143701926Y-104872423D01*
X143701930Y-104872428D01*
X143847571Y-105018069D01*
X143847576Y-105018073D01*
X144014195Y-105139128D01*
X144093459Y-105179516D01*
X144144254Y-105227490D01*
X144161049Y-105295311D01*
X144138511Y-105361446D01*
X144093459Y-105400484D01*
X144014195Y-105440871D01*
X143847576Y-105561926D01*
X143847571Y-105561930D01*
X143701930Y-105707571D01*
X143701926Y-105707576D01*
X143580873Y-105874193D01*
X143487367Y-106057705D01*
X143423719Y-106253591D01*
X143391500Y-106457019D01*
X143391500Y-106662980D01*
X143423719Y-106866408D01*
X143487367Y-107062294D01*
X143536936Y-107159577D01*
X143560227Y-107205288D01*
X143580873Y-107245806D01*
X143701926Y-107412423D01*
X143701930Y-107412428D01*
X143847571Y-107558069D01*
X143847576Y-107558073D01*
X144014195Y-107679128D01*
X144093459Y-107719516D01*
X144144254Y-107767490D01*
X144161049Y-107835311D01*
X144138511Y-107901446D01*
X144093459Y-107940484D01*
X144014195Y-107980871D01*
X143847576Y-108101926D01*
X143847571Y-108101930D01*
X143701930Y-108247571D01*
X143701926Y-108247576D01*
X143580873Y-108414193D01*
X143487367Y-108597705D01*
X143423719Y-108793591D01*
X143391500Y-108997019D01*
X143391500Y-109202980D01*
X143423719Y-109406408D01*
X143487367Y-109602294D01*
X143551671Y-109728496D01*
X143560227Y-109745288D01*
X143580873Y-109785806D01*
X143701926Y-109952423D01*
X143701930Y-109952428D01*
X143847571Y-110098069D01*
X143847576Y-110098073D01*
X143992908Y-110203661D01*
X144014197Y-110219129D01*
X144089249Y-110257370D01*
X144197705Y-110312632D01*
X144197707Y-110312632D01*
X144197710Y-110312634D01*
X144296657Y-110344784D01*
X144393591Y-110376280D01*
X144495305Y-110392390D01*
X144597019Y-110408500D01*
X144597020Y-110408500D01*
X145602980Y-110408500D01*
X145602981Y-110408500D01*
X145806408Y-110376280D01*
X146002290Y-110312634D01*
X146185803Y-110219129D01*
X146352430Y-110098068D01*
X146498068Y-109952430D01*
X146619129Y-109785803D01*
X146712634Y-109602290D01*
X146776280Y-109406408D01*
X146808500Y-109202981D01*
X146808500Y-108997019D01*
X146776280Y-108793592D01*
X146712634Y-108597710D01*
X146712632Y-108597707D01*
X146712632Y-108597705D01*
X146672079Y-108518116D01*
X146619129Y-108414197D01*
X146603661Y-108392908D01*
X146498073Y-108247576D01*
X146498069Y-108247571D01*
X146352428Y-108101930D01*
X146352423Y-108101926D01*
X146185806Y-107980873D01*
X146185805Y-107980872D01*
X146185803Y-107980871D01*
X146106540Y-107940484D01*
X146055745Y-107892510D01*
X146038950Y-107824689D01*
X146061487Y-107758554D01*
X146106541Y-107719515D01*
X146185803Y-107679129D01*
X146352430Y-107558068D01*
X146498068Y-107412430D01*
X146619129Y-107245803D01*
X146712634Y-107062290D01*
X146776280Y-106866408D01*
X146808500Y-106662981D01*
X146808500Y-106457019D01*
X146776280Y-106253592D01*
X146712634Y-106057710D01*
X146712632Y-106057707D01*
X146712632Y-106057705D01*
X146626210Y-105888095D01*
X146619129Y-105874197D01*
X146570246Y-105806915D01*
X146498073Y-105707576D01*
X146498069Y-105707571D01*
X146352428Y-105561930D01*
X146352423Y-105561926D01*
X146185806Y-105440873D01*
X146185805Y-105440872D01*
X146185803Y-105440871D01*
X146106540Y-105400484D01*
X146055745Y-105352510D01*
X146038950Y-105284689D01*
X146061487Y-105218554D01*
X146106541Y-105179515D01*
X146108502Y-105178516D01*
X146185803Y-105139129D01*
X146352430Y-105018068D01*
X146498068Y-104872430D01*
X146619129Y-104705803D01*
X146712634Y-104522290D01*
X146776280Y-104326408D01*
X146808500Y-104122981D01*
X146808500Y-103917019D01*
X146801185Y-103870837D01*
X146776280Y-103713591D01*
X146712632Y-103517705D01*
X146676621Y-103447030D01*
X146619129Y-103334197D01*
X146560594Y-103253630D01*
X146498073Y-103167576D01*
X146498069Y-103167571D01*
X146352428Y-103021930D01*
X146352423Y-103021926D01*
X146185806Y-102900873D01*
X146185805Y-102900872D01*
X146185803Y-102900871D01*
X146106540Y-102860484D01*
X146055745Y-102812510D01*
X146038950Y-102744689D01*
X146061487Y-102678554D01*
X146106541Y-102639515D01*
X146185803Y-102599129D01*
X146352430Y-102478068D01*
X146498068Y-102332430D01*
X146619129Y-102165803D01*
X146712634Y-101982290D01*
X146776280Y-101786408D01*
X146808500Y-101582981D01*
X146808500Y-101377019D01*
X146789215Y-101255258D01*
X146776280Y-101173591D01*
X146712632Y-100977705D01*
X146673038Y-100899999D01*
X146619129Y-100794197D01*
X146586714Y-100749581D01*
X146498073Y-100627576D01*
X146498069Y-100627571D01*
X146352428Y-100481930D01*
X146352423Y-100481926D01*
X146185806Y-100360873D01*
X146185805Y-100360872D01*
X146185803Y-100360871D01*
X146106540Y-100320484D01*
X146055745Y-100272510D01*
X146038950Y-100204689D01*
X146061487Y-100138554D01*
X146106541Y-100099515D01*
X146185803Y-100059129D01*
X146352430Y-99938068D01*
X146498068Y-99792430D01*
X146619129Y-99625803D01*
X146630345Y-99603789D01*
X146678319Y-99552994D01*
X146746140Y-99536199D01*
X146812275Y-99558736D01*
X146851315Y-99603790D01*
X146866398Y-99633392D01*
X146978208Y-99787285D01*
X147112715Y-99921792D01*
X147266608Y-100033602D01*
X147316702Y-100059126D01*
X147436092Y-100119959D01*
X147436094Y-100119959D01*
X147436097Y-100119961D01*
X147526599Y-100149367D01*
X147617008Y-100178743D01*
X147804884Y-100208500D01*
X147804889Y-100208500D01*
X147995116Y-100208500D01*
X148182991Y-100178743D01*
X148254445Y-100155526D01*
X148363903Y-100119961D01*
X148533392Y-100033602D01*
X148687285Y-99921792D01*
X148821792Y-99787285D01*
X148933602Y-99633392D01*
X149019961Y-99463903D01*
X149078743Y-99282991D01*
X149081375Y-99266376D01*
X149108500Y-99095116D01*
X149108500Y-98904883D01*
X149078743Y-98717008D01*
X149026010Y-98554714D01*
X149019961Y-98536097D01*
X149019959Y-98536094D01*
X149019959Y-98536092D01*
X148969830Y-98437710D01*
X148933602Y-98366608D01*
X148821792Y-98212715D01*
X148687285Y-98078208D01*
X148533392Y-97966398D01*
X148485371Y-97941930D01*
X148363907Y-97880040D01*
X148182998Y-97821259D01*
X148182994Y-97821258D01*
X148182991Y-97821257D01*
X148182987Y-97821256D01*
X148180156Y-97820577D01*
X148179186Y-97820020D01*
X148178357Y-97819751D01*
X148178413Y-97819576D01*
X148119561Y-97785792D01*
X148087391Y-97723768D01*
X148093861Y-97654199D01*
X148136915Y-97599171D01*
X148180156Y-97579423D01*
X148182974Y-97578745D01*
X148182991Y-97578743D01*
X148363903Y-97519961D01*
X148533392Y-97433602D01*
X148687285Y-97321792D01*
X148821792Y-97187285D01*
X148933602Y-97033392D01*
X149019961Y-96863903D01*
X149078743Y-96682991D01*
X149080797Y-96670025D01*
X149108500Y-96495116D01*
X149108500Y-96304883D01*
X149078743Y-96117008D01*
X149019959Y-95936092D01*
X148933601Y-95766607D01*
X148918766Y-95746188D01*
X148821792Y-95612715D01*
X148731043Y-95521966D01*
X148697558Y-95460643D01*
X148702542Y-95390951D01*
X148731041Y-95346607D01*
X149871221Y-94206428D01*
X149951332Y-94067673D01*
X149972066Y-93990291D01*
X149992800Y-93912911D01*
X149992800Y-92817773D01*
X150012485Y-92750734D01*
X150065289Y-92704979D01*
X150134447Y-92695035D01*
X150152800Y-92699114D01*
X150153698Y-92699386D01*
X150153700Y-92699387D01*
X150153702Y-92699387D01*
X150153704Y-92699388D01*
X150329216Y-92734299D01*
X150329220Y-92734300D01*
X150329221Y-92734300D01*
X150508180Y-92734300D01*
X150508180Y-92734299D01*
X150656009Y-92704895D01*
X150725600Y-92711122D01*
X150780778Y-92753985D01*
X150804022Y-92819875D01*
X150804200Y-92826512D01*
X150804200Y-101920944D01*
X150784515Y-101987983D01*
X150731711Y-102033738D01*
X150662553Y-102043682D01*
X150623905Y-102031429D01*
X150446483Y-101941027D01*
X150446480Y-101941026D01*
X150243117Y-101874951D01*
X150137516Y-101858225D01*
X150031916Y-101841500D01*
X149568084Y-101841500D01*
X149497684Y-101852650D01*
X149356882Y-101874951D01*
X149153519Y-101941026D01*
X149153516Y-101941027D01*
X148962990Y-102038106D01*
X148789993Y-102163796D01*
X148638796Y-102314993D01*
X148513106Y-102487990D01*
X148416027Y-102678516D01*
X148416026Y-102678519D01*
X148349951Y-102881882D01*
X148327770Y-103021926D01*
X148316500Y-103093084D01*
X148316500Y-103306916D01*
X148326004Y-103366921D01*
X148349951Y-103518117D01*
X148416026Y-103721480D01*
X148416027Y-103721483D01*
X148492128Y-103870837D01*
X148513106Y-103912009D01*
X148638794Y-104085004D01*
X148789996Y-104236206D01*
X148892344Y-104310566D01*
X148946182Y-104349682D01*
X148988847Y-104405012D01*
X148994826Y-104474626D01*
X148962220Y-104536421D01*
X148946182Y-104550318D01*
X148895650Y-104587032D01*
X148789996Y-104663794D01*
X148789994Y-104663796D01*
X148789993Y-104663796D01*
X148638796Y-104814993D01*
X148513106Y-104987990D01*
X148416027Y-105178516D01*
X148416026Y-105178519D01*
X148349951Y-105381882D01*
X148331986Y-105495311D01*
X148316500Y-105593084D01*
X148316500Y-105806916D01*
X148333225Y-105912516D01*
X148349951Y-106018117D01*
X148416026Y-106221480D01*
X148416027Y-106221483D01*
X148457896Y-106303654D01*
X148513106Y-106412009D01*
X148638794Y-106585004D01*
X148789996Y-106736206D01*
X148853775Y-106782544D01*
X148946182Y-106849682D01*
X148988847Y-106905012D01*
X148994826Y-106974626D01*
X148962220Y-107036421D01*
X148946182Y-107050318D01*
X148929699Y-107062294D01*
X148789996Y-107163794D01*
X148789994Y-107163796D01*
X148789993Y-107163796D01*
X148638796Y-107314993D01*
X148513106Y-107487990D01*
X148416027Y-107678516D01*
X148416026Y-107678519D01*
X148349951Y-107881882D01*
X148316500Y-108093084D01*
X148316500Y-108306915D01*
X148349951Y-108518117D01*
X148416026Y-108721480D01*
X148416027Y-108721483D01*
X148513106Y-108912009D01*
X148638794Y-109085004D01*
X148638796Y-109085006D01*
X148777070Y-109223280D01*
X148810555Y-109284603D01*
X148805571Y-109354295D01*
X148763699Y-109410228D01*
X148754486Y-109416499D01*
X148606659Y-109507680D01*
X148606655Y-109507683D01*
X148482684Y-109631654D01*
X148390643Y-109780875D01*
X148390641Y-109780880D01*
X148335494Y-109947302D01*
X148335493Y-109947309D01*
X148325000Y-110050013D01*
X148325000Y-110450000D01*
X149395854Y-110450000D01*
X149357370Y-110516657D01*
X149325000Y-110637465D01*
X149325000Y-110762535D01*
X149357370Y-110883343D01*
X149395854Y-110950000D01*
X148325001Y-110950000D01*
X148325001Y-111349986D01*
X148335494Y-111452697D01*
X148390641Y-111619119D01*
X148390643Y-111619124D01*
X148482684Y-111768345D01*
X148606654Y-111892315D01*
X148755875Y-111984356D01*
X148755880Y-111984358D01*
X148922302Y-112039505D01*
X148922309Y-112039506D01*
X149025019Y-112049999D01*
X149549999Y-112049999D01*
X149550000Y-112049998D01*
X149550000Y-111104145D01*
X149616657Y-111142630D01*
X149737465Y-111175000D01*
X149862535Y-111175000D01*
X149983343Y-111142630D01*
X150050000Y-111104145D01*
X150050000Y-112049999D01*
X150574972Y-112049999D01*
X150574986Y-112049998D01*
X150667598Y-112040537D01*
X150736291Y-112053306D01*
X150787175Y-112101187D01*
X150804200Y-112163895D01*
X150804200Y-115983889D01*
X150784515Y-116050928D01*
X150767881Y-116071570D01*
X149564780Y-117274670D01*
X149564773Y-117274679D01*
X149523628Y-117345944D01*
X149473061Y-117394159D01*
X149404454Y-117407381D01*
X149377925Y-117401874D01*
X149218118Y-117349951D01*
X149218119Y-117349951D01*
X149059716Y-117324862D01*
X149006916Y-117316500D01*
X148793084Y-117316500D01*
X148734821Y-117325728D01*
X148581882Y-117349951D01*
X148378519Y-117416026D01*
X148378516Y-117416027D01*
X148187990Y-117513106D01*
X148014993Y-117638796D01*
X147863796Y-117789993D01*
X147863796Y-117789994D01*
X147863794Y-117789996D01*
X147821131Y-117848717D01*
X147750318Y-117946182D01*
X147694988Y-117988847D01*
X147625374Y-117994826D01*
X147563579Y-117962220D01*
X147549682Y-117946182D01*
X147524930Y-117912115D01*
X147436206Y-117789996D01*
X147285004Y-117638794D01*
X147112009Y-117513106D01*
X147039126Y-117475970D01*
X146921483Y-117416027D01*
X146921480Y-117416026D01*
X146718117Y-117349951D01*
X146573923Y-117327113D01*
X146506916Y-117316500D01*
X146293084Y-117316500D01*
X146234821Y-117325728D01*
X146081882Y-117349951D01*
X145878519Y-117416026D01*
X145878516Y-117416027D01*
X145687990Y-117513106D01*
X145514993Y-117638796D01*
X145363796Y-117789993D01*
X145363796Y-117789994D01*
X145363794Y-117789996D01*
X145321131Y-117848717D01*
X145250318Y-117946182D01*
X145194988Y-117988847D01*
X145125374Y-117994826D01*
X145063579Y-117962220D01*
X145049682Y-117946182D01*
X145024930Y-117912115D01*
X144936206Y-117789996D01*
X144785004Y-117638794D01*
X144612009Y-117513106D01*
X144539126Y-117475970D01*
X144421483Y-117416027D01*
X144421480Y-117416026D01*
X144218117Y-117349951D01*
X144073923Y-117327113D01*
X144006916Y-117316500D01*
X143793084Y-117316500D01*
X143734821Y-117325728D01*
X143581882Y-117349951D01*
X143378519Y-117416026D01*
X143378511Y-117416030D01*
X143363794Y-117423529D01*
X143295125Y-117436425D01*
X143230385Y-117410148D01*
X143190128Y-117353042D01*
X143183500Y-117313044D01*
X143183500Y-114704883D01*
X143871500Y-114704883D01*
X143871500Y-114895116D01*
X143901256Y-115082991D01*
X143960040Y-115263907D01*
X144046398Y-115433392D01*
X144158208Y-115587285D01*
X144292715Y-115721792D01*
X144446608Y-115833602D01*
X144481309Y-115851283D01*
X144616092Y-115919959D01*
X144616094Y-115919959D01*
X144616097Y-115919961D01*
X144695547Y-115945776D01*
X144797008Y-115978743D01*
X144984884Y-116008500D01*
X144984889Y-116008500D01*
X145175116Y-116008500D01*
X145362991Y-115978743D01*
X145374957Y-115974855D01*
X145543903Y-115919961D01*
X145713392Y-115833602D01*
X145867285Y-115721792D01*
X146001792Y-115587285D01*
X146113602Y-115433392D01*
X146199961Y-115263903D01*
X146258743Y-115082991D01*
X146288500Y-114895116D01*
X146288500Y-114704883D01*
X146258743Y-114517008D01*
X146220024Y-114397844D01*
X146199961Y-114336097D01*
X146199959Y-114336094D01*
X146199959Y-114336092D01*
X146138329Y-114215137D01*
X146113602Y-114166608D01*
X146001792Y-114012715D01*
X145867285Y-113878208D01*
X145713392Y-113766398D01*
X145543907Y-113680040D01*
X145362991Y-113621256D01*
X145175116Y-113591500D01*
X145175111Y-113591500D01*
X144984889Y-113591500D01*
X144984884Y-113591500D01*
X144797008Y-113621256D01*
X144616092Y-113680040D01*
X144446607Y-113766398D01*
X144407634Y-113794714D01*
X144292715Y-113878208D01*
X144292713Y-113878210D01*
X144292712Y-113878210D01*
X144158210Y-114012712D01*
X144158210Y-114012713D01*
X144158208Y-114012715D01*
X144145042Y-114030837D01*
X144046398Y-114166607D01*
X143960040Y-114336092D01*
X143901256Y-114517008D01*
X143871500Y-114704883D01*
X143183500Y-114704883D01*
X143183500Y-114654452D01*
X143203185Y-114587413D01*
X143219819Y-114566771D01*
X143252366Y-114534223D01*
X143302772Y-114483818D01*
X143415876Y-114314546D01*
X143493783Y-114126461D01*
X143533500Y-113926791D01*
X143533500Y-113273209D01*
X143533500Y-113273206D01*
X143533499Y-113273204D01*
X143526350Y-113237265D01*
X143493783Y-113073539D01*
X143466842Y-113008498D01*
X143415879Y-112885460D01*
X143415872Y-112885447D01*
X143302772Y-112716182D01*
X143302769Y-112716178D01*
X143158821Y-112572230D01*
X143158817Y-112572227D01*
X142989552Y-112459127D01*
X142989539Y-112459120D01*
X142801465Y-112381218D01*
X142801453Y-112381215D01*
X142601794Y-112341500D01*
X142601791Y-112341500D01*
X142398209Y-112341500D01*
X142398206Y-112341500D01*
X142198546Y-112381215D01*
X142198534Y-112381218D01*
X142010457Y-112459122D01*
X141933890Y-112510282D01*
X141867212Y-112531159D01*
X141799832Y-112512674D01*
X141796110Y-112510282D01*
X141748782Y-112478659D01*
X141719546Y-112459124D01*
X141719543Y-112459122D01*
X141719542Y-112459122D01*
X141531465Y-112381218D01*
X141531453Y-112381215D01*
X141331794Y-112341500D01*
X141331791Y-112341500D01*
X141128209Y-112341500D01*
X141128206Y-112341500D01*
X140928546Y-112381214D01*
X140928542Y-112381216D01*
X140928540Y-112381216D01*
X140928539Y-112381217D01*
X140884754Y-112399353D01*
X140842213Y-112416974D01*
X140772744Y-112424442D01*
X140736170Y-112408509D01*
X140734868Y-112410895D01*
X140727086Y-112406645D01*
X140592379Y-112356403D01*
X140592372Y-112356401D01*
X140532844Y-112350000D01*
X140210000Y-112350000D01*
X140210000Y-113193128D01*
X140207617Y-113217320D01*
X140196500Y-113273206D01*
X140196500Y-113306170D01*
X140190255Y-113299925D01*
X140104745Y-113250556D01*
X140009370Y-113225000D01*
X139910630Y-113225000D01*
X139815255Y-113250556D01*
X139729745Y-113299925D01*
X139710000Y-113319670D01*
X139710000Y-112350000D01*
X139387155Y-112350000D01*
X139327627Y-112356401D01*
X139327620Y-112356403D01*
X139192913Y-112406645D01*
X139192906Y-112406649D01*
X139077812Y-112492809D01*
X139077809Y-112492812D01*
X138991649Y-112607906D01*
X138991645Y-112607913D01*
X138941403Y-112742620D01*
X138941401Y-112742627D01*
X138935000Y-112802155D01*
X138935000Y-113350000D01*
X139679670Y-113350000D01*
X139659925Y-113369745D01*
X139610556Y-113455255D01*
X139585000Y-113550630D01*
X139585000Y-113649370D01*
X139610556Y-113744745D01*
X139659925Y-113830255D01*
X139679670Y-113850000D01*
X138935000Y-113850000D01*
X138935000Y-114397844D01*
X138941401Y-114457372D01*
X138941403Y-114457379D01*
X138991645Y-114592086D01*
X138991649Y-114592093D01*
X139077809Y-114707187D01*
X139077812Y-114707190D01*
X139192906Y-114793350D01*
X139192913Y-114793354D01*
X139327620Y-114843596D01*
X139327627Y-114843598D01*
X139387155Y-114849999D01*
X139387172Y-114850000D01*
X139710000Y-114850000D01*
X139710000Y-113880330D01*
X139729745Y-113900075D01*
X139815255Y-113949444D01*
X139910630Y-113975000D01*
X140009370Y-113975000D01*
X140104745Y-113949444D01*
X140190255Y-113900075D01*
X140196500Y-113893830D01*
X140196500Y-113926793D01*
X140207617Y-113982679D01*
X140210000Y-114006871D01*
X140210000Y-114850000D01*
X140532828Y-114850000D01*
X140532844Y-114849999D01*
X140592372Y-114843598D01*
X140592376Y-114843597D01*
X140727088Y-114793352D01*
X140734872Y-114789102D01*
X140736627Y-114792316D01*
X140785719Y-114773917D01*
X140842212Y-114783025D01*
X140928539Y-114818783D01*
X141085472Y-114849999D01*
X141128204Y-114858499D01*
X141128207Y-114858500D01*
X141128209Y-114858500D01*
X141331793Y-114858500D01*
X141331794Y-114858499D01*
X141531461Y-114818783D01*
X141719546Y-114740876D01*
X141723566Y-114738189D01*
X141746053Y-114731147D01*
X141766808Y-114719971D01*
X141778781Y-114720897D01*
X141790241Y-114717309D01*
X141812970Y-114723543D01*
X141836470Y-114725362D01*
X141846041Y-114732614D01*
X141857622Y-114735791D01*
X141873373Y-114753324D01*
X141892158Y-114767558D01*
X141899107Y-114781970D01*
X141904315Y-114787767D01*
X141908892Y-114798633D01*
X141910801Y-114803844D01*
X141932968Y-114886573D01*
X141955245Y-114925157D01*
X141958932Y-114935221D01*
X141960185Y-114954313D01*
X141966500Y-114977877D01*
X141966500Y-117268921D01*
X141946815Y-117335960D01*
X141894011Y-117381715D01*
X141824853Y-117391659D01*
X141804184Y-117386853D01*
X141716121Y-117358241D01*
X141650000Y-117347768D01*
X141650000Y-118395854D01*
X141583343Y-118357370D01*
X141462535Y-118325000D01*
X141337465Y-118325000D01*
X141216657Y-118357370D01*
X141150000Y-118395854D01*
X141150000Y-117347768D01*
X141149999Y-117347768D01*
X141083875Y-117358241D01*
X140881784Y-117423903D01*
X140692442Y-117520379D01*
X140520541Y-117645271D01*
X140387482Y-117778330D01*
X140326159Y-117811814D01*
X140256467Y-117806830D01*
X140200534Y-117764958D01*
X140194262Y-117755745D01*
X140192116Y-117752266D01*
X140192115Y-117752262D01*
X140099030Y-117601348D01*
X139973652Y-117475970D01*
X139822738Y-117382885D01*
X139748366Y-117358241D01*
X139654427Y-117327113D01*
X139550545Y-117316500D01*
X138249462Y-117316500D01*
X138249446Y-117316501D01*
X138145572Y-117327113D01*
X137977264Y-117382884D01*
X137977259Y-117382886D01*
X137826346Y-117475971D01*
X137700971Y-117601346D01*
X137607886Y-117752259D01*
X137607884Y-117752264D01*
X137552113Y-117920572D01*
X137541500Y-118024447D01*
X137541500Y-119575537D01*
X137541501Y-119575553D01*
X137549497Y-119653818D01*
X137552113Y-119679426D01*
X137607885Y-119847738D01*
X137700970Y-119998652D01*
X137826348Y-120124030D01*
X137977262Y-120217115D01*
X138145574Y-120272887D01*
X138249455Y-120283500D01*
X139471588Y-120283499D01*
X139538627Y-120303184D01*
X139559269Y-120319818D01*
X139855173Y-120615722D01*
X139993927Y-120695832D01*
X140071308Y-120716566D01*
X140148689Y-120737300D01*
X140148690Y-120737300D01*
X140148691Y-120737300D01*
X141964009Y-120737300D01*
X141964010Y-120737300D01*
X141964011Y-120737300D01*
X142041391Y-120716566D01*
X142118773Y-120695832D01*
X142257527Y-120615722D01*
X142880481Y-119992766D01*
X142941802Y-119959283D01*
X143011493Y-119964267D01*
X143041038Y-119980127D01*
X143187991Y-120086894D01*
X143281438Y-120134507D01*
X143378516Y-120183972D01*
X143378519Y-120183973D01*
X143474890Y-120215285D01*
X143581884Y-120250049D01*
X143793084Y-120283500D01*
X143793085Y-120283500D01*
X144006915Y-120283500D01*
X144006916Y-120283500D01*
X144218116Y-120250049D01*
X144421483Y-120183972D01*
X144612009Y-120086894D01*
X144785004Y-119961206D01*
X144936206Y-119810004D01*
X145031076Y-119679427D01*
X145049682Y-119653818D01*
X145105012Y-119611152D01*
X145174625Y-119605173D01*
X145236420Y-119637779D01*
X145250318Y-119653818D01*
X145363791Y-119810000D01*
X145363794Y-119810004D01*
X145514996Y-119961206D01*
X145687991Y-120086894D01*
X145781438Y-120134507D01*
X145878516Y-120183972D01*
X145878519Y-120183973D01*
X145974890Y-120215285D01*
X146081884Y-120250049D01*
X146293084Y-120283500D01*
X146293085Y-120283500D01*
X146506915Y-120283500D01*
X146506916Y-120283500D01*
X146718116Y-120250049D01*
X146921483Y-120183972D01*
X147112009Y-120086894D01*
X147285004Y-119961206D01*
X147436206Y-119810004D01*
X147531076Y-119679427D01*
X147549682Y-119653818D01*
X147605012Y-119611152D01*
X147674625Y-119605173D01*
X147736420Y-119637779D01*
X147750318Y-119653818D01*
X147863791Y-119810000D01*
X147863794Y-119810004D01*
X148014996Y-119961206D01*
X148187991Y-120086894D01*
X148281438Y-120134507D01*
X148378516Y-120183972D01*
X148378519Y-120183973D01*
X148474890Y-120215285D01*
X148581884Y-120250049D01*
X148793084Y-120283500D01*
X148793085Y-120283500D01*
X149006915Y-120283500D01*
X149006916Y-120283500D01*
X149218116Y-120250049D01*
X149421483Y-120183972D01*
X149612009Y-120086894D01*
X149785004Y-119961206D01*
X149936206Y-119810004D01*
X150031076Y-119679427D01*
X150049682Y-119653818D01*
X150105012Y-119611152D01*
X150174625Y-119605173D01*
X150236420Y-119637779D01*
X150250318Y-119653818D01*
X150363791Y-119810000D01*
X150363794Y-119810004D01*
X150514996Y-119961206D01*
X150687991Y-120086894D01*
X150781438Y-120134507D01*
X150878516Y-120183972D01*
X150878519Y-120183973D01*
X150974890Y-120215285D01*
X151081884Y-120250049D01*
X151293084Y-120283500D01*
X151293085Y-120283500D01*
X151506915Y-120283500D01*
X151506916Y-120283500D01*
X151718116Y-120250049D01*
X151921483Y-120183972D01*
X152112009Y-120086894D01*
X152285004Y-119961206D01*
X152436206Y-119810004D01*
X152531076Y-119679427D01*
X152549682Y-119653818D01*
X152605012Y-119611152D01*
X152674625Y-119605173D01*
X152736420Y-119637779D01*
X152750318Y-119653818D01*
X152863791Y-119810000D01*
X152863794Y-119810004D01*
X153014996Y-119961206D01*
X153187991Y-120086894D01*
X153281438Y-120134507D01*
X153378516Y-120183972D01*
X153378519Y-120183973D01*
X153474890Y-120215285D01*
X153581884Y-120250049D01*
X153793084Y-120283500D01*
X153793085Y-120283500D01*
X154006915Y-120283500D01*
X154006916Y-120283500D01*
X154218116Y-120250049D01*
X154421483Y-120183972D01*
X154612009Y-120086894D01*
X154785004Y-119961206D01*
X154936206Y-119810004D01*
X155061894Y-119637009D01*
X155158972Y-119446483D01*
X155225049Y-119243116D01*
X155258500Y-119031916D01*
X155258500Y-118568084D01*
X155225049Y-118356884D01*
X155158972Y-118153517D01*
X155158972Y-118153516D01*
X155104813Y-118047224D01*
X155061894Y-117962991D01*
X154936206Y-117789996D01*
X154785004Y-117638794D01*
X154612009Y-117513106D01*
X154539126Y-117475970D01*
X154421483Y-117416027D01*
X154421480Y-117416026D01*
X154218117Y-117349951D01*
X154020356Y-117318628D01*
X153957221Y-117288699D01*
X153920290Y-117229387D01*
X153921288Y-117159524D01*
X153952069Y-117108479D01*
X154250221Y-116810328D01*
X154330332Y-116671573D01*
X154351066Y-116594191D01*
X154371800Y-116516811D01*
X154371800Y-99777428D01*
X154391485Y-99710389D01*
X154444289Y-99664634D01*
X154505530Y-99653810D01*
X154512116Y-99654328D01*
X155166446Y-99000000D01*
X155166446Y-98999999D01*
X154512116Y-98345669D01*
X154505530Y-98346188D01*
X154437153Y-98331824D01*
X154387395Y-98282773D01*
X154371800Y-98222570D01*
X154371800Y-97177428D01*
X154391485Y-97110389D01*
X154444289Y-97064634D01*
X154505530Y-97053810D01*
X154512116Y-97054328D01*
X155166446Y-96400000D01*
X155166446Y-96399999D01*
X154512116Y-95745669D01*
X154505530Y-95746188D01*
X154437153Y-95731824D01*
X154387395Y-95682773D01*
X154371800Y-95622570D01*
X154371800Y-94677428D01*
X154391485Y-94610389D01*
X154444289Y-94564634D01*
X154505530Y-94553810D01*
X154512116Y-94554328D01*
X155170000Y-93896445D01*
X155170000Y-93946078D01*
X155193852Y-94035095D01*
X155239930Y-94114905D01*
X155305095Y-94180070D01*
X155384905Y-94226148D01*
X155473922Y-94250000D01*
X155566078Y-94250000D01*
X155655095Y-94226148D01*
X155734905Y-94180070D01*
X155800070Y-94114905D01*
X155846148Y-94035095D01*
X155870000Y-93946078D01*
X155870000Y-93899999D01*
X155873554Y-93899999D01*
X155873554Y-93900000D01*
X156527882Y-94554328D01*
X156527883Y-94554328D01*
X156546331Y-94528937D01*
X156632085Y-94360637D01*
X156690451Y-94181002D01*
X156720000Y-93994447D01*
X156720000Y-93805552D01*
X156690451Y-93618997D01*
X156632085Y-93439362D01*
X156546329Y-93271059D01*
X156527883Y-93245670D01*
X156527882Y-93245669D01*
X155873554Y-93899999D01*
X155870000Y-93899999D01*
X155870000Y-93853922D01*
X155846148Y-93764905D01*
X155800070Y-93685095D01*
X155734905Y-93619930D01*
X155655095Y-93573852D01*
X155566078Y-93550000D01*
X155516446Y-93550000D01*
X156174328Y-92892116D01*
X156148933Y-92873666D01*
X155980635Y-92787913D01*
X155919134Y-92767931D01*
X155861458Y-92728494D01*
X155834259Y-92664136D01*
X155846173Y-92595289D01*
X155893417Y-92543813D01*
X155919134Y-92532069D01*
X155980635Y-92512086D01*
X156148937Y-92426331D01*
X156174328Y-92407883D01*
X156174328Y-92407882D01*
X155520001Y-91753554D01*
X155520000Y-91753554D01*
X154865669Y-92407882D01*
X154865670Y-92407883D01*
X154891059Y-92426329D01*
X155059362Y-92512085D01*
X155120866Y-92532069D01*
X155178541Y-92571506D01*
X155205740Y-92635865D01*
X155193826Y-92704711D01*
X155146582Y-92756187D01*
X155120866Y-92767931D01*
X155059362Y-92787914D01*
X154891063Y-92873667D01*
X154827574Y-92919795D01*
X154761767Y-92943274D01*
X154693713Y-92927448D01*
X154645019Y-92877342D01*
X154639463Y-92863826D01*
X154639218Y-92863928D01*
X154636887Y-92858300D01*
X154568402Y-92692964D01*
X154568400Y-92692961D01*
X154568398Y-92692957D01*
X154468978Y-92544165D01*
X154468975Y-92544161D01*
X154342438Y-92417624D01*
X154342434Y-92417621D01*
X154193642Y-92318201D01*
X154193632Y-92318196D01*
X154028300Y-92249713D01*
X154028292Y-92249711D01*
X153852783Y-92214800D01*
X153852779Y-92214800D01*
X153673821Y-92214800D01*
X153673816Y-92214800D01*
X153498307Y-92249711D01*
X153498299Y-92249713D01*
X153332967Y-92318196D01*
X153332957Y-92318201D01*
X153184165Y-92417621D01*
X153184161Y-92417624D01*
X153057624Y-92544161D01*
X153057621Y-92544165D01*
X152958201Y-92692957D01*
X152958196Y-92692967D01*
X152889713Y-92858299D01*
X152889713Y-92858300D01*
X152854800Y-93033816D01*
X152854800Y-93212783D01*
X152889711Y-93388292D01*
X152889713Y-93388300D01*
X152958196Y-93553632D01*
X152958201Y-93553642D01*
X153057620Y-93702433D01*
X153057621Y-93702434D01*
X153057622Y-93702435D01*
X153118482Y-93763295D01*
X153151966Y-93824616D01*
X153154800Y-93850975D01*
X153154800Y-113506409D01*
X153135115Y-113573448D01*
X153082311Y-113619203D01*
X153013153Y-113629147D01*
X152992486Y-113624341D01*
X152982994Y-113621257D01*
X152795116Y-113591500D01*
X152795111Y-113591500D01*
X152604889Y-113591500D01*
X152604884Y-113591500D01*
X152417008Y-113621256D01*
X152236089Y-113680041D01*
X152201494Y-113697669D01*
X152132824Y-113710565D01*
X152068084Y-113684288D01*
X152027828Y-113627181D01*
X152021200Y-113587184D01*
X152021200Y-91305552D01*
X154320000Y-91305552D01*
X154320000Y-91494447D01*
X154349548Y-91681002D01*
X154407914Y-91860637D01*
X154493666Y-92028933D01*
X154512116Y-92054328D01*
X155166446Y-91400000D01*
X155166446Y-91399999D01*
X155120369Y-91353922D01*
X155170000Y-91353922D01*
X155170000Y-91446078D01*
X155193852Y-91535095D01*
X155239930Y-91614905D01*
X155305095Y-91680070D01*
X155384905Y-91726148D01*
X155473922Y-91750000D01*
X155566078Y-91750000D01*
X155655095Y-91726148D01*
X155734905Y-91680070D01*
X155800070Y-91614905D01*
X155846148Y-91535095D01*
X155870000Y-91446078D01*
X155870000Y-91399999D01*
X155873554Y-91399999D01*
X155873554Y-91400000D01*
X156527882Y-92054328D01*
X156527883Y-92054328D01*
X156546331Y-92028937D01*
X156632085Y-91860637D01*
X156690451Y-91681002D01*
X156720000Y-91494447D01*
X156720000Y-91305552D01*
X156690451Y-91118997D01*
X156632085Y-90939362D01*
X156546329Y-90771059D01*
X156527883Y-90745670D01*
X156527882Y-90745669D01*
X155873554Y-91399999D01*
X155870000Y-91399999D01*
X155870000Y-91353922D01*
X155846148Y-91264905D01*
X155800070Y-91185095D01*
X155734905Y-91119930D01*
X155655095Y-91073852D01*
X155566078Y-91050000D01*
X155473922Y-91050000D01*
X155384905Y-91073852D01*
X155305095Y-91119930D01*
X155239930Y-91185095D01*
X155193852Y-91264905D01*
X155170000Y-91353922D01*
X155120369Y-91353922D01*
X154512116Y-90745669D01*
X154512116Y-90745670D01*
X154493669Y-90771060D01*
X154407914Y-90939362D01*
X154349548Y-91118997D01*
X154320000Y-91305552D01*
X152021200Y-91305552D01*
X152021200Y-89907882D01*
X154865669Y-89907882D01*
X154865670Y-89907883D01*
X154891059Y-89926329D01*
X155059362Y-90012085D01*
X155120866Y-90032069D01*
X155178541Y-90071506D01*
X155205740Y-90135865D01*
X155193826Y-90204711D01*
X155146582Y-90256187D01*
X155120866Y-90267931D01*
X155059362Y-90287914D01*
X154891060Y-90373669D01*
X154865670Y-90392116D01*
X154865669Y-90392116D01*
X155520000Y-91046446D01*
X155520001Y-91046446D01*
X156174328Y-90392116D01*
X156148933Y-90373666D01*
X155980635Y-90287913D01*
X155919134Y-90267931D01*
X155861458Y-90228494D01*
X155834259Y-90164136D01*
X155846173Y-90095289D01*
X155893417Y-90043813D01*
X155919134Y-90032069D01*
X155980635Y-90012086D01*
X156148937Y-89926331D01*
X156174328Y-89907883D01*
X156174328Y-89907882D01*
X155520001Y-89253554D01*
X155520000Y-89253554D01*
X154865669Y-89907882D01*
X152021200Y-89907882D01*
X152021200Y-88805552D01*
X154320000Y-88805552D01*
X154320000Y-88994447D01*
X154349548Y-89181002D01*
X154407914Y-89360637D01*
X154493666Y-89528933D01*
X154512116Y-89554328D01*
X155166446Y-88900000D01*
X155166446Y-88899999D01*
X155120369Y-88853922D01*
X155170000Y-88853922D01*
X155170000Y-88946078D01*
X155193852Y-89035095D01*
X155239930Y-89114905D01*
X155305095Y-89180070D01*
X155384905Y-89226148D01*
X155473922Y-89250000D01*
X155566078Y-89250000D01*
X155655095Y-89226148D01*
X155734905Y-89180070D01*
X155800070Y-89114905D01*
X155846148Y-89035095D01*
X155870000Y-88946078D01*
X155870000Y-88899999D01*
X155873554Y-88899999D01*
X155873554Y-88900000D01*
X156527882Y-89554328D01*
X156527883Y-89554328D01*
X156546331Y-89528937D01*
X156632085Y-89360637D01*
X156690451Y-89181002D01*
X156720000Y-88994447D01*
X156720000Y-88805552D01*
X156690451Y-88618997D01*
X156632085Y-88439362D01*
X156546329Y-88271059D01*
X156527883Y-88245670D01*
X156527882Y-88245669D01*
X155873554Y-88899999D01*
X155870000Y-88899999D01*
X155870000Y-88853922D01*
X155846148Y-88764905D01*
X155800070Y-88685095D01*
X155734905Y-88619930D01*
X155655095Y-88573852D01*
X155566078Y-88550000D01*
X155473922Y-88550000D01*
X155384905Y-88573852D01*
X155305095Y-88619930D01*
X155239930Y-88685095D01*
X155193852Y-88764905D01*
X155170000Y-88853922D01*
X155120369Y-88853922D01*
X154512116Y-88245669D01*
X154512116Y-88245670D01*
X154493669Y-88271060D01*
X154407914Y-88439362D01*
X154349548Y-88618997D01*
X154320000Y-88805552D01*
X152021200Y-88805552D01*
X152021200Y-88084811D01*
X152029844Y-88055370D01*
X152036368Y-88025384D01*
X152040122Y-88020368D01*
X152040885Y-88017772D01*
X152057519Y-87997130D01*
X152162533Y-87892116D01*
X154865669Y-87892116D01*
X155520000Y-88546446D01*
X155520001Y-88546446D01*
X156174328Y-87892116D01*
X156148933Y-87873666D01*
X155980637Y-87787914D01*
X155801002Y-87729548D01*
X155614447Y-87700000D01*
X155425553Y-87700000D01*
X155238997Y-87729548D01*
X155059362Y-87787914D01*
X154891060Y-87873669D01*
X154865670Y-87892116D01*
X154865669Y-87892116D01*
X152162533Y-87892116D01*
X152237330Y-87817319D01*
X152298653Y-87783834D01*
X152325011Y-87781000D01*
X152411080Y-87781000D01*
X152411081Y-87780999D01*
X152586600Y-87746087D01*
X152751936Y-87677602D01*
X152900735Y-87578178D01*
X153027278Y-87451635D01*
X153126702Y-87302836D01*
X153195187Y-87137500D01*
X153230100Y-86961979D01*
X153230100Y-86783021D01*
X153195187Y-86607500D01*
X153126702Y-86442164D01*
X153126700Y-86442161D01*
X153126698Y-86442157D01*
X153027278Y-86293365D01*
X153027275Y-86293361D01*
X152900735Y-86166821D01*
X152805397Y-86103119D01*
X152751942Y-86067401D01*
X152751932Y-86067396D01*
X152601013Y-86004883D01*
X154511500Y-86004883D01*
X154511500Y-86195116D01*
X154541256Y-86382991D01*
X154600040Y-86563907D01*
X154669888Y-86700989D01*
X154686398Y-86733392D01*
X154798208Y-86887285D01*
X154932715Y-87021792D01*
X155086608Y-87133602D01*
X155111500Y-87146285D01*
X155256092Y-87219959D01*
X155256094Y-87219959D01*
X155256097Y-87219961D01*
X155320384Y-87240849D01*
X155437008Y-87278743D01*
X155624884Y-87308500D01*
X155624889Y-87308500D01*
X155815116Y-87308500D01*
X156002991Y-87278743D01*
X156010399Y-87276336D01*
X156183903Y-87219961D01*
X156353392Y-87133602D01*
X156507285Y-87021792D01*
X156641792Y-86887285D01*
X156753602Y-86733392D01*
X156779815Y-86681945D01*
X156827790Y-86631150D01*
X156895611Y-86614355D01*
X156961746Y-86636892D01*
X157005197Y-86691608D01*
X157014300Y-86738241D01*
X157014300Y-91809821D01*
X157048250Y-91980500D01*
X157048253Y-91980512D01*
X157114849Y-92141290D01*
X157114850Y-92141292D01*
X157211540Y-92285998D01*
X157211543Y-92286002D01*
X157964205Y-93038663D01*
X157997690Y-93099986D01*
X157998998Y-93145741D01*
X157991500Y-93193084D01*
X157991500Y-93406921D01*
X157998997Y-93454257D01*
X157990042Y-93523550D01*
X157964205Y-93561335D01*
X156669943Y-94855597D01*
X156669940Y-94855601D01*
X156573250Y-95000307D01*
X156573249Y-95000309D01*
X156506653Y-95161088D01*
X156506650Y-95161100D01*
X156489313Y-95248255D01*
X156489309Y-95248283D01*
X156488530Y-95252201D01*
X156472700Y-95331783D01*
X156472700Y-95373707D01*
X156471627Y-95381810D01*
X156460646Y-95406579D01*
X156453015Y-95432569D01*
X156446698Y-95438042D01*
X156443311Y-95445684D01*
X156420682Y-95460584D01*
X156400211Y-95478324D01*
X156391938Y-95479513D01*
X156384957Y-95484111D01*
X156357865Y-95484412D01*
X156331053Y-95488268D01*
X156322523Y-95484806D01*
X156315092Y-95484889D01*
X156301081Y-95476103D01*
X156275815Y-95465849D01*
X156148936Y-95373667D01*
X155980635Y-95287913D01*
X155919134Y-95267931D01*
X155861458Y-95228494D01*
X155834259Y-95164136D01*
X155846173Y-95095289D01*
X155893417Y-95043813D01*
X155919134Y-95032069D01*
X155980635Y-95012086D01*
X156148937Y-94926331D01*
X156174328Y-94907883D01*
X156174328Y-94907882D01*
X155520001Y-94253554D01*
X155520000Y-94253554D01*
X154865669Y-94907882D01*
X154865670Y-94907883D01*
X154891059Y-94926329D01*
X155059362Y-95012085D01*
X155120866Y-95032069D01*
X155178541Y-95071506D01*
X155205740Y-95135865D01*
X155193826Y-95204711D01*
X155146582Y-95256187D01*
X155120866Y-95267931D01*
X155059362Y-95287914D01*
X154891060Y-95373669D01*
X154865670Y-95392116D01*
X154865669Y-95392116D01*
X155523553Y-96050000D01*
X155473922Y-96050000D01*
X155384905Y-96073852D01*
X155305095Y-96119930D01*
X155239930Y-96185095D01*
X155193852Y-96264905D01*
X155170000Y-96353922D01*
X155170000Y-96446078D01*
X155193852Y-96535095D01*
X155239930Y-96614905D01*
X155305095Y-96680070D01*
X155384905Y-96726148D01*
X155473922Y-96750000D01*
X155523552Y-96750000D01*
X154865669Y-97407882D01*
X154865670Y-97407883D01*
X154891059Y-97426329D01*
X155059362Y-97512085D01*
X155238997Y-97570451D01*
X155283667Y-97577527D01*
X155346801Y-97607457D01*
X155383732Y-97666768D01*
X155382734Y-97736631D01*
X155344124Y-97794863D01*
X155283667Y-97822473D01*
X155238997Y-97829548D01*
X155059362Y-97887914D01*
X154891060Y-97973669D01*
X154865670Y-97992116D01*
X154865669Y-97992116D01*
X155523553Y-98650000D01*
X155473922Y-98650000D01*
X155384905Y-98673852D01*
X155305095Y-98719930D01*
X155239930Y-98785095D01*
X155193852Y-98864905D01*
X155170000Y-98953922D01*
X155170000Y-99046078D01*
X155193852Y-99135095D01*
X155239930Y-99214905D01*
X155305095Y-99280070D01*
X155384905Y-99326148D01*
X155473922Y-99350000D01*
X155523552Y-99350000D01*
X154865669Y-100007882D01*
X154865670Y-100007883D01*
X154891059Y-100026329D01*
X155059362Y-100112085D01*
X155238997Y-100170451D01*
X155425553Y-100200000D01*
X155614447Y-100200000D01*
X155801002Y-100170451D01*
X155980637Y-100112085D01*
X156148940Y-100026329D01*
X156275815Y-99934151D01*
X156341621Y-99910671D01*
X156409675Y-99926497D01*
X156458370Y-99976603D01*
X156472700Y-100034469D01*
X156472700Y-104363821D01*
X156506650Y-104534500D01*
X156506653Y-104534512D01*
X156573249Y-104695290D01*
X156573250Y-104695292D01*
X156669940Y-104839998D01*
X156669943Y-104840002D01*
X157315236Y-105485294D01*
X157348721Y-105546617D01*
X157343737Y-105616308D01*
X157326822Y-105647285D01*
X157249112Y-105751093D01*
X157249111Y-105751093D01*
X157198011Y-105888095D01*
X157198011Y-105888097D01*
X157191500Y-105948645D01*
X157191500Y-107645954D01*
X157198011Y-107706502D01*
X157198011Y-107706504D01*
X157234835Y-107805230D01*
X157249111Y-107843504D01*
X157336739Y-107960561D01*
X157453796Y-108048189D01*
X157590799Y-108099289D01*
X157618050Y-108102218D01*
X157651345Y-108105799D01*
X157651362Y-108105800D01*
X159348638Y-108105800D01*
X159348654Y-108105799D01*
X159375692Y-108102891D01*
X159409201Y-108099289D01*
X159546204Y-108048189D01*
X159663261Y-107960561D01*
X159750889Y-107843504D01*
X159801989Y-107706501D01*
X159805922Y-107669916D01*
X159808499Y-107645954D01*
X159808500Y-107645937D01*
X159808500Y-105948662D01*
X159808499Y-105948645D01*
X159802952Y-105897060D01*
X159801989Y-105888099D01*
X159797632Y-105876418D01*
X159771709Y-105806916D01*
X159750889Y-105751096D01*
X159663261Y-105634039D01*
X159546204Y-105546411D01*
X159464165Y-105515811D01*
X159408232Y-105473939D01*
X159383816Y-105408474D01*
X159383500Y-105399630D01*
X159383500Y-105333582D01*
X159383499Y-105333578D01*
X159362397Y-105227490D01*
X159349548Y-105162893D01*
X159339704Y-105139128D01*
X159282950Y-105002110D01*
X159282949Y-105002108D01*
X159273516Y-104987991D01*
X159241590Y-104940210D01*
X159186259Y-104857401D01*
X159186257Y-104857398D01*
X158276019Y-103947160D01*
X158242534Y-103885837D01*
X158239700Y-103859479D01*
X158239700Y-102696540D01*
X158259385Y-102629501D01*
X158312189Y-102583746D01*
X158381347Y-102573802D01*
X158425700Y-102589153D01*
X158613517Y-102697590D01*
X158613528Y-102697595D01*
X158855744Y-102797924D01*
X159108979Y-102865777D01*
X159108990Y-102865779D01*
X159368905Y-102899999D01*
X159368920Y-102900000D01*
X159631080Y-102900000D01*
X159631094Y-102899999D01*
X159891009Y-102865779D01*
X159891020Y-102865777D01*
X160144255Y-102797924D01*
X160386471Y-102697595D01*
X160386482Y-102697590D01*
X160613516Y-102566511D01*
X160613534Y-102566499D01*
X160726365Y-102479919D01*
X160726365Y-102479917D01*
X159824025Y-101577578D01*
X159855258Y-101564641D01*
X159978097Y-101482563D01*
X160082563Y-101378097D01*
X160164641Y-101255258D01*
X160177577Y-101224025D01*
X161079917Y-102126365D01*
X161079919Y-102126365D01*
X161166499Y-102013534D01*
X161166511Y-102013516D01*
X161282413Y-101812770D01*
X161332980Y-101764554D01*
X161401587Y-101751332D01*
X161466452Y-101777300D01*
X161506980Y-101834214D01*
X161513800Y-101874770D01*
X161513800Y-109427489D01*
X161494115Y-109494528D01*
X161477481Y-109515170D01*
X159821936Y-111170714D01*
X159760613Y-111204199D01*
X159690921Y-111199215D01*
X159634988Y-111157343D01*
X159623769Y-111139325D01*
X159611860Y-111115952D01*
X159579474Y-111071377D01*
X159579474Y-111071376D01*
X158900000Y-111750853D01*
X158900000Y-111744639D01*
X158872741Y-111642906D01*
X158820080Y-111551694D01*
X158745606Y-111477220D01*
X158654394Y-111424559D01*
X158552661Y-111397300D01*
X158546446Y-111397300D01*
X159225922Y-110717824D01*
X159225921Y-110717823D01*
X159181359Y-110685447D01*
X159181350Y-110685441D01*
X158999031Y-110592544D01*
X158804417Y-110529309D01*
X158602317Y-110497300D01*
X158397683Y-110497300D01*
X158195582Y-110529309D01*
X158000968Y-110592544D01*
X157818644Y-110685443D01*
X157774077Y-110717823D01*
X157774077Y-110717824D01*
X158453554Y-111397300D01*
X158447339Y-111397300D01*
X158345606Y-111424559D01*
X158254394Y-111477220D01*
X158179920Y-111551694D01*
X158127259Y-111642906D01*
X158100000Y-111744639D01*
X158100000Y-111750853D01*
X157420524Y-111071377D01*
X157420523Y-111071377D01*
X157388143Y-111115944D01*
X157295244Y-111298268D01*
X157232009Y-111492882D01*
X157200000Y-111694982D01*
X157200000Y-111899617D01*
X157232009Y-112101717D01*
X157295244Y-112296331D01*
X157388141Y-112478650D01*
X157388147Y-112478659D01*
X157420523Y-112523221D01*
X157420524Y-112523222D01*
X158100000Y-111843746D01*
X158100000Y-111849961D01*
X158127259Y-111951694D01*
X158179920Y-112042906D01*
X158254394Y-112117380D01*
X158345606Y-112170041D01*
X158447339Y-112197300D01*
X158453553Y-112197300D01*
X157774076Y-112876774D01*
X157818650Y-112909159D01*
X158000968Y-113002055D01*
X158195582Y-113065290D01*
X158397683Y-113097300D01*
X158602315Y-113097300D01*
X158659978Y-113088166D01*
X158729272Y-113097120D01*
X158782724Y-113142115D01*
X158803365Y-113208866D01*
X158784641Y-113276180D01*
X158782481Y-113279529D01*
X158711300Y-113386059D01*
X158711296Y-113386067D01*
X158642813Y-113551399D01*
X158642811Y-113551407D01*
X158607900Y-113726916D01*
X158607900Y-113905883D01*
X158642811Y-114081392D01*
X158642813Y-114081400D01*
X158711296Y-114246732D01*
X158711301Y-114246742D01*
X158810721Y-114395534D01*
X158810724Y-114395538D01*
X158937261Y-114522075D01*
X158937265Y-114522078D01*
X159086057Y-114621498D01*
X159086061Y-114621500D01*
X159086064Y-114621502D01*
X159251400Y-114689987D01*
X159420099Y-114723543D01*
X159426916Y-114724899D01*
X159426920Y-114724900D01*
X159426921Y-114724900D01*
X159605880Y-114724900D01*
X159605881Y-114724899D01*
X159781400Y-114689987D01*
X159946736Y-114621502D01*
X160095535Y-114522078D01*
X160222078Y-114395535D01*
X160321502Y-114246736D01*
X160389987Y-114081400D01*
X160424900Y-113905879D01*
X160424900Y-113819811D01*
X160444585Y-113752772D01*
X160461219Y-113732130D01*
X160574146Y-113619203D01*
X160734522Y-113458827D01*
X160814632Y-113320073D01*
X160849877Y-113188536D01*
X160856100Y-113165311D01*
X160856100Y-111909011D01*
X160875785Y-111841972D01*
X160892413Y-111821335D01*
X161017466Y-111696282D01*
X161078785Y-111662800D01*
X161148477Y-111667784D01*
X161204411Y-111709655D01*
X161228828Y-111775119D01*
X161226761Y-111808156D01*
X161215483Y-111864863D01*
X161213800Y-111873322D01*
X161213800Y-112052283D01*
X161248711Y-112227792D01*
X161248713Y-112227800D01*
X161317196Y-112393132D01*
X161317201Y-112393142D01*
X161416621Y-112541934D01*
X161416624Y-112541938D01*
X161543161Y-112668475D01*
X161543165Y-112668478D01*
X161691957Y-112767898D01*
X161691961Y-112767900D01*
X161691964Y-112767902D01*
X161857300Y-112836387D01*
X162032816Y-112871299D01*
X162032820Y-112871300D01*
X162032821Y-112871300D01*
X162211780Y-112871300D01*
X162211781Y-112871299D01*
X162387300Y-112836387D01*
X162552636Y-112767902D01*
X162701435Y-112668478D01*
X162827978Y-112541935D01*
X162927402Y-112393136D01*
X162995887Y-112227800D01*
X163030800Y-112052279D01*
X163030800Y-111939159D01*
X163047414Y-111877158D01*
X163080496Y-111819858D01*
X163090095Y-111803232D01*
X163098732Y-111788273D01*
X163140200Y-111633510D01*
X163140200Y-111473290D01*
X163140200Y-99035315D01*
X163159885Y-98968276D01*
X163212689Y-98922521D01*
X163281847Y-98912577D01*
X163311644Y-98920751D01*
X163439200Y-98973587D01*
X163582420Y-99002075D01*
X163614716Y-99008499D01*
X163614720Y-99008500D01*
X163614721Y-99008500D01*
X163793680Y-99008500D01*
X163793681Y-99008499D01*
X163969200Y-98973587D01*
X164134536Y-98905102D01*
X164283335Y-98805678D01*
X164409878Y-98679135D01*
X164509302Y-98530336D01*
X164577787Y-98365000D01*
X164612700Y-98189479D01*
X164612700Y-98010521D01*
X164577787Y-97835000D01*
X164509302Y-97669664D01*
X164509300Y-97669661D01*
X164509298Y-97669657D01*
X164409878Y-97520865D01*
X164409875Y-97520861D01*
X164349019Y-97460005D01*
X164315534Y-97398682D01*
X164312700Y-97372324D01*
X164312700Y-59624091D01*
X164312700Y-59624089D01*
X164271232Y-59469328D01*
X164191122Y-59330573D01*
X161987425Y-57126876D01*
X161953940Y-57065553D01*
X161958924Y-56995861D01*
X161974786Y-56966312D01*
X162086894Y-56812009D01*
X162183972Y-56621483D01*
X162250049Y-56418116D01*
X162283500Y-56206916D01*
X162283500Y-55993084D01*
X162250049Y-55781884D01*
X162183972Y-55578517D01*
X162183972Y-55578516D01*
X162121390Y-55455694D01*
X162086894Y-55387991D01*
X161961206Y-55214996D01*
X161810004Y-55063794D01*
X161740782Y-55013501D01*
X161653818Y-54950318D01*
X161611152Y-54894988D01*
X161605173Y-54825375D01*
X161637779Y-54763580D01*
X161653818Y-54749682D01*
X161704200Y-54713076D01*
X161810004Y-54636206D01*
X161961206Y-54485004D01*
X162086894Y-54312009D01*
X162183972Y-54121483D01*
X162250049Y-53918116D01*
X162283500Y-53706916D01*
X162283500Y-53493084D01*
X162250049Y-53281884D01*
X162217010Y-53180200D01*
X162183973Y-53078519D01*
X162183972Y-53078516D01*
X162117029Y-52947134D01*
X162086894Y-52887991D01*
X161961206Y-52714996D01*
X161810004Y-52563794D01*
X161637009Y-52438106D01*
X161446483Y-52341027D01*
X161446480Y-52341026D01*
X161243117Y-52274951D01*
X161137516Y-52258225D01*
X161031916Y-52241500D01*
X160568084Y-52241500D01*
X160497684Y-52252650D01*
X160356882Y-52274951D01*
X160153519Y-52341026D01*
X160153516Y-52341027D01*
X159962990Y-52438106D01*
X159789993Y-52563796D01*
X159638796Y-52714993D01*
X159513106Y-52887990D01*
X159416027Y-53078516D01*
X159416026Y-53078519D01*
X159349951Y-53281882D01*
X159316500Y-53493084D01*
X159316500Y-53706915D01*
X159349951Y-53918117D01*
X159416026Y-54121480D01*
X159416027Y-54121483D01*
X159513108Y-54312012D01*
X159633543Y-54477777D01*
X159657023Y-54543583D01*
X159641198Y-54611637D01*
X159620906Y-54638343D01*
X159020680Y-55238570D01*
X159020676Y-55238576D01*
X158940568Y-55377325D01*
X158937711Y-55387991D01*
X158899100Y-55532089D01*
X158899100Y-66687709D01*
X158940568Y-66842474D01*
X158968143Y-66890234D01*
X159020678Y-66981227D01*
X159020680Y-66981229D01*
X159612574Y-67573123D01*
X159646059Y-67634446D01*
X159641075Y-67704138D01*
X159625211Y-67733689D01*
X159513108Y-67887987D01*
X159416027Y-68078516D01*
X159416026Y-68078519D01*
X159349951Y-68281882D01*
X159316500Y-68493084D01*
X159316500Y-68706915D01*
X159349951Y-68918117D01*
X159416026Y-69121480D01*
X159416027Y-69121483D01*
X159469623Y-69226669D01*
X159513106Y-69312009D01*
X159638794Y-69485004D01*
X159638796Y-69485006D01*
X159777070Y-69623280D01*
X159810555Y-69684603D01*
X159805571Y-69754295D01*
X159763699Y-69810228D01*
X159754486Y-69816499D01*
X159606659Y-69907680D01*
X159606655Y-69907683D01*
X159482684Y-70031654D01*
X159390643Y-70180875D01*
X159390641Y-70180880D01*
X159335494Y-70347302D01*
X159335493Y-70347309D01*
X159325000Y-70450013D01*
X159325000Y-70850000D01*
X160395854Y-70850000D01*
X160357370Y-70916657D01*
X160325000Y-71037465D01*
X160325000Y-71162535D01*
X160357370Y-71283343D01*
X160395854Y-71350000D01*
X159325001Y-71350000D01*
X159325001Y-71749986D01*
X159335494Y-71852697D01*
X159390641Y-72019119D01*
X159390643Y-72019124D01*
X159482684Y-72168345D01*
X159606654Y-72292315D01*
X159755875Y-72384356D01*
X159755880Y-72384358D01*
X159922302Y-72439505D01*
X159922309Y-72439506D01*
X160025019Y-72449999D01*
X160549999Y-72449999D01*
X160550000Y-72449998D01*
X160550000Y-71504145D01*
X160616657Y-71542630D01*
X160737465Y-71575000D01*
X160862535Y-71575000D01*
X160983343Y-71542630D01*
X161050000Y-71504145D01*
X161050000Y-72449999D01*
X161389800Y-72449999D01*
X161456839Y-72469684D01*
X161502594Y-72522488D01*
X161513800Y-72573999D01*
X161513800Y-99925229D01*
X161494115Y-99992268D01*
X161441311Y-100038023D01*
X161372153Y-100047967D01*
X161308597Y-100018942D01*
X161282413Y-99987229D01*
X161166511Y-99786483D01*
X161166505Y-99786475D01*
X161079918Y-99673633D01*
X161079917Y-99673633D01*
X160177577Y-100575973D01*
X160164641Y-100544742D01*
X160082563Y-100421903D01*
X159978097Y-100317437D01*
X159855258Y-100235359D01*
X159824024Y-100222421D01*
X160726365Y-99320080D01*
X160613524Y-99233494D01*
X160613516Y-99233488D01*
X160386482Y-99102409D01*
X160386471Y-99102404D01*
X160144255Y-99002075D01*
X159891020Y-98934222D01*
X159891009Y-98934220D01*
X159631094Y-98900000D01*
X159368905Y-98900000D01*
X159108990Y-98934220D01*
X159108979Y-98934222D01*
X158855744Y-99002075D01*
X158613528Y-99102404D01*
X158613517Y-99102409D01*
X158425700Y-99210846D01*
X158357800Y-99227319D01*
X158291773Y-99204466D01*
X158248582Y-99149545D01*
X158239700Y-99103459D01*
X158239700Y-97188612D01*
X158259385Y-97121573D01*
X158312189Y-97075818D01*
X158381347Y-97065874D01*
X158424269Y-97081434D01*
X158424330Y-97081304D01*
X158425801Y-97081990D01*
X158428805Y-97083079D01*
X158430873Y-97084354D01*
X158430880Y-97084358D01*
X158597302Y-97139505D01*
X158597309Y-97139506D01*
X158700019Y-97149999D01*
X159224999Y-97149999D01*
X159225000Y-97149998D01*
X159225000Y-96204145D01*
X159291657Y-96242630D01*
X159412465Y-96275000D01*
X159537535Y-96275000D01*
X159658343Y-96242630D01*
X159725000Y-96204145D01*
X159725000Y-97149999D01*
X160249972Y-97149999D01*
X160249986Y-97149998D01*
X160352697Y-97139505D01*
X160519119Y-97084358D01*
X160519124Y-97084356D01*
X160668345Y-96992315D01*
X160792315Y-96868345D01*
X160884356Y-96719124D01*
X160884358Y-96719119D01*
X160939505Y-96552697D01*
X160939506Y-96552690D01*
X160949999Y-96449986D01*
X160950000Y-96449973D01*
X160950000Y-96050000D01*
X159879146Y-96050000D01*
X159917630Y-95983343D01*
X159950000Y-95862535D01*
X159950000Y-95737465D01*
X159917630Y-95616657D01*
X159879146Y-95550000D01*
X160949999Y-95550000D01*
X160949999Y-95150028D01*
X160949998Y-95150013D01*
X160939505Y-95047302D01*
X160884358Y-94880880D01*
X160884356Y-94880875D01*
X160792315Y-94731654D01*
X160668344Y-94607683D01*
X160668340Y-94607680D01*
X160520513Y-94516499D01*
X160473788Y-94464551D01*
X160462567Y-94395589D01*
X160490410Y-94331507D01*
X160497907Y-94323302D01*
X160636206Y-94185004D01*
X160761894Y-94012009D01*
X160858972Y-93821483D01*
X160925049Y-93618116D01*
X160958500Y-93406916D01*
X160958500Y-93193084D01*
X160925049Y-92981884D01*
X160869585Y-92811181D01*
X160858973Y-92778519D01*
X160858972Y-92778516D01*
X160782696Y-92628818D01*
X160761894Y-92587991D01*
X160636206Y-92414996D01*
X160485004Y-92263794D01*
X160465623Y-92249713D01*
X160328818Y-92150318D01*
X160286152Y-92094988D01*
X160280173Y-92025375D01*
X160312779Y-91963580D01*
X160328818Y-91949682D01*
X160419338Y-91883915D01*
X160485004Y-91836206D01*
X160636206Y-91685004D01*
X160761894Y-91512009D01*
X160858972Y-91321483D01*
X160925049Y-91118116D01*
X160958500Y-90906916D01*
X160958500Y-90693084D01*
X160925049Y-90481884D01*
X160867653Y-90305234D01*
X160858973Y-90278519D01*
X160858972Y-90278516D01*
X160770261Y-90104412D01*
X160761894Y-90087991D01*
X160636206Y-89914996D01*
X160485004Y-89763794D01*
X160312009Y-89638106D01*
X160290004Y-89626894D01*
X160121483Y-89541027D01*
X160121480Y-89541026D01*
X159918117Y-89474951D01*
X159812516Y-89458225D01*
X159706916Y-89441500D01*
X159243084Y-89441500D01*
X159200844Y-89448190D01*
X159031880Y-89474951D01*
X158943617Y-89503629D01*
X158873776Y-89505624D01*
X158813943Y-89469543D01*
X158783116Y-89406842D01*
X158781300Y-89385698D01*
X158781300Y-87425268D01*
X158800985Y-87358229D01*
X158853789Y-87312474D01*
X158921485Y-87302329D01*
X158968356Y-87308500D01*
X158968363Y-87308500D01*
X159231637Y-87308500D01*
X159231644Y-87308500D01*
X159492680Y-87274134D01*
X159746997Y-87205990D01*
X159957987Y-87118595D01*
X159990234Y-87105238D01*
X159990237Y-87105236D01*
X159990243Y-87105234D01*
X160218257Y-86973590D01*
X160427138Y-86813311D01*
X160613311Y-86627138D01*
X160773590Y-86418257D01*
X160905234Y-86190243D01*
X161005990Y-85946997D01*
X161074134Y-85692680D01*
X161108500Y-85431644D01*
X161108500Y-85168356D01*
X161074134Y-84907320D01*
X161005990Y-84653003D01*
X160947620Y-84512085D01*
X160905238Y-84409765D01*
X160905230Y-84409749D01*
X160773590Y-84181743D01*
X160613312Y-83972863D01*
X160613306Y-83972856D01*
X160427143Y-83786693D01*
X160427136Y-83786687D01*
X160218256Y-83626409D01*
X159990250Y-83494769D01*
X159990234Y-83494761D01*
X159746995Y-83394009D01*
X159492678Y-83325865D01*
X159231653Y-83291501D01*
X159231650Y-83291500D01*
X159231644Y-83291500D01*
X158968356Y-83291500D01*
X158968350Y-83291500D01*
X158968346Y-83291501D01*
X158707321Y-83325865D01*
X158453004Y-83394009D01*
X158209765Y-83494761D01*
X158209749Y-83494769D01*
X157981743Y-83626409D01*
X157772863Y-83786687D01*
X157772856Y-83786693D01*
X157586693Y-83972856D01*
X157586687Y-83972863D01*
X157426409Y-84181743D01*
X157294769Y-84409749D01*
X157294761Y-84409765D01*
X157194009Y-84653004D01*
X157125865Y-84907321D01*
X157091501Y-85168346D01*
X157091500Y-85168362D01*
X157091500Y-85431637D01*
X157091501Y-85431653D01*
X157125865Y-85692678D01*
X157182957Y-85905746D01*
X157181294Y-85975595D01*
X157166285Y-86006729D01*
X157150315Y-86030630D01*
X157096702Y-86075436D01*
X157027378Y-86084143D01*
X156964350Y-86053989D01*
X156927630Y-85994546D01*
X156924739Y-85981138D01*
X156898743Y-85817008D01*
X156848389Y-85662035D01*
X156839961Y-85636097D01*
X156839959Y-85636094D01*
X156839959Y-85636092D01*
X156782616Y-85523551D01*
X156753602Y-85466608D01*
X156641792Y-85312715D01*
X156507285Y-85178208D01*
X156353392Y-85066398D01*
X156183907Y-84980040D01*
X156002991Y-84921256D01*
X155815116Y-84891500D01*
X155815111Y-84891500D01*
X155624889Y-84891500D01*
X155624884Y-84891500D01*
X155437008Y-84921256D01*
X155256092Y-84980040D01*
X155086607Y-85066398D01*
X155011632Y-85120871D01*
X154932715Y-85178208D01*
X154932713Y-85178210D01*
X154932712Y-85178210D01*
X154798210Y-85312712D01*
X154798210Y-85312713D01*
X154798208Y-85312715D01*
X154758579Y-85367259D01*
X154686398Y-85466607D01*
X154600040Y-85636092D01*
X154541256Y-85817008D01*
X154511500Y-86004883D01*
X152601013Y-86004883D01*
X152586600Y-85998913D01*
X152586592Y-85998911D01*
X152411083Y-85964000D01*
X152411079Y-85964000D01*
X152364400Y-85964000D01*
X152297361Y-85944315D01*
X152251606Y-85891511D01*
X152240400Y-85840000D01*
X152240400Y-83650000D01*
X154624638Y-83650000D01*
X154629548Y-83681002D01*
X154687914Y-83860637D01*
X154773670Y-84028940D01*
X154884685Y-84181741D01*
X154884689Y-84181746D01*
X155018253Y-84315310D01*
X155018258Y-84315314D01*
X155171059Y-84426329D01*
X155339362Y-84512085D01*
X155518997Y-84570451D01*
X155550000Y-84575362D01*
X155550000Y-84575361D01*
X156050000Y-84575361D01*
X156081002Y-84570451D01*
X156260637Y-84512085D01*
X156428940Y-84426329D01*
X156581741Y-84315314D01*
X156581746Y-84315310D01*
X156715310Y-84181746D01*
X156715314Y-84181741D01*
X156826329Y-84028940D01*
X156912085Y-83860637D01*
X156970451Y-83681002D01*
X156975362Y-83650000D01*
X156050000Y-83650000D01*
X156050000Y-84575361D01*
X155550000Y-84575361D01*
X155550000Y-83650000D01*
X154624638Y-83650000D01*
X152240400Y-83650000D01*
X152240400Y-76704883D01*
X154591500Y-76704883D01*
X154591500Y-76895116D01*
X154621256Y-77082991D01*
X154680040Y-77263907D01*
X154749942Y-77401095D01*
X154766398Y-77433392D01*
X154878208Y-77587285D01*
X155012715Y-77721792D01*
X155028830Y-77733500D01*
X155127151Y-77804935D01*
X155169816Y-77860266D01*
X155175795Y-77929879D01*
X155143189Y-77991674D01*
X155127150Y-78005571D01*
X155018258Y-78084685D01*
X155018253Y-78084689D01*
X154884689Y-78218253D01*
X154884685Y-78218258D01*
X154773670Y-78371059D01*
X154687914Y-78539362D01*
X154629548Y-78718997D01*
X154624638Y-78750000D01*
X155555025Y-78750000D01*
X155519930Y-78785095D01*
X155473852Y-78864905D01*
X155450000Y-78953922D01*
X155450000Y-79046078D01*
X155473852Y-79135095D01*
X155519930Y-79214905D01*
X155555025Y-79250000D01*
X154624638Y-79250000D01*
X154629548Y-79281002D01*
X154687914Y-79460637D01*
X154773670Y-79628940D01*
X154884685Y-79781741D01*
X154884689Y-79781746D01*
X155018251Y-79915308D01*
X155127150Y-79994427D01*
X155169816Y-80049757D01*
X155175795Y-80119370D01*
X155143190Y-80181166D01*
X155127152Y-80195063D01*
X155012715Y-80278207D01*
X154878210Y-80412712D01*
X154878210Y-80412713D01*
X154878208Y-80412715D01*
X154836350Y-80470328D01*
X154766398Y-80566607D01*
X154680040Y-80736092D01*
X154621256Y-80917008D01*
X154591500Y-81104883D01*
X154591500Y-81295116D01*
X154621256Y-81482991D01*
X154680040Y-81663907D01*
X154715858Y-81734202D01*
X154766398Y-81833392D01*
X154878208Y-81987285D01*
X155012715Y-82121792D01*
X155083007Y-82172862D01*
X155127151Y-82204935D01*
X155169816Y-82260266D01*
X155175795Y-82329879D01*
X155143189Y-82391674D01*
X155127150Y-82405571D01*
X155018258Y-82484685D01*
X155018253Y-82484689D01*
X154884689Y-82618253D01*
X154884685Y-82618258D01*
X154773670Y-82771059D01*
X154687914Y-82939362D01*
X154629548Y-83118997D01*
X154624638Y-83150000D01*
X155555025Y-83150000D01*
X155519930Y-83185095D01*
X155473852Y-83264905D01*
X155450000Y-83353922D01*
X155450000Y-83446078D01*
X155473852Y-83535095D01*
X155519930Y-83614905D01*
X155585095Y-83680070D01*
X155664905Y-83726148D01*
X155753922Y-83750000D01*
X155846078Y-83750000D01*
X155935095Y-83726148D01*
X156014905Y-83680070D01*
X156080070Y-83614905D01*
X156126148Y-83535095D01*
X156150000Y-83446078D01*
X156150000Y-83353922D01*
X156126148Y-83264905D01*
X156080070Y-83185095D01*
X156044975Y-83150000D01*
X156975362Y-83150000D01*
X156970451Y-83118997D01*
X156912085Y-82939362D01*
X156826329Y-82771059D01*
X156715314Y-82618258D01*
X156715310Y-82618253D01*
X156581742Y-82484685D01*
X156472849Y-82405571D01*
X156430183Y-82350242D01*
X156424204Y-82280628D01*
X156456809Y-82218833D01*
X156472844Y-82204938D01*
X156587285Y-82121792D01*
X156721792Y-81987285D01*
X156833602Y-81833392D01*
X156919961Y-81663903D01*
X156925195Y-81647793D01*
X156964632Y-81590118D01*
X157028990Y-81562919D01*
X157097837Y-81574833D01*
X157149313Y-81622077D01*
X157166415Y-81672855D01*
X157173011Y-81734202D01*
X157173011Y-81734204D01*
X157224111Y-81871204D01*
X157311739Y-81988261D01*
X157428796Y-82075889D01*
X157565799Y-82126989D01*
X157593050Y-82129918D01*
X157626345Y-82133499D01*
X157626362Y-82133500D01*
X158573638Y-82133500D01*
X158573654Y-82133499D01*
X158600692Y-82130591D01*
X158634201Y-82126989D01*
X158771204Y-82075889D01*
X158888261Y-81988261D01*
X158975889Y-81871204D01*
X159026989Y-81734201D01*
X159033209Y-81676348D01*
X159033499Y-81673654D01*
X159033500Y-81673637D01*
X159033500Y-80726362D01*
X159033499Y-80726345D01*
X159028441Y-80679309D01*
X159026989Y-80665799D01*
X159020089Y-80647300D01*
X158989992Y-80566607D01*
X158975889Y-80528796D01*
X158888261Y-80411739D01*
X158771204Y-80324111D01*
X158732731Y-80309761D01*
X158634203Y-80273011D01*
X158573654Y-80266500D01*
X158573638Y-80266500D01*
X157626362Y-80266500D01*
X157626345Y-80266500D01*
X157565797Y-80273011D01*
X157565795Y-80273011D01*
X157428795Y-80324111D01*
X157311739Y-80411739D01*
X157224111Y-80528795D01*
X157173011Y-80665795D01*
X157173011Y-80665797D01*
X157166415Y-80727144D01*
X157139677Y-80791695D01*
X157082284Y-80831543D01*
X157012459Y-80834036D01*
X156952370Y-80798383D01*
X156925195Y-80752207D01*
X156922055Y-80742544D01*
X156919961Y-80736097D01*
X156919959Y-80736094D01*
X156919959Y-80736092D01*
X156833601Y-80566607D01*
X156721792Y-80412715D01*
X156587285Y-80278208D01*
X156547387Y-80249221D01*
X156472848Y-80195064D01*
X156430183Y-80139733D01*
X156424204Y-80070120D01*
X156456810Y-80008325D01*
X156472850Y-79994427D01*
X156581744Y-79915312D01*
X156715310Y-79781746D01*
X156715314Y-79781741D01*
X156826329Y-79628940D01*
X156912085Y-79460637D01*
X156970451Y-79281002D01*
X156975362Y-79250000D01*
X156044975Y-79250000D01*
X156080070Y-79214905D01*
X156126148Y-79135095D01*
X156150000Y-79046078D01*
X156150000Y-78953922D01*
X156126148Y-78864905D01*
X156080070Y-78785095D01*
X156044975Y-78750000D01*
X156975362Y-78750000D01*
X156970451Y-78718997D01*
X156912085Y-78539362D01*
X156826329Y-78371059D01*
X156715314Y-78218258D01*
X156715310Y-78218253D01*
X156581742Y-78084685D01*
X156472849Y-78005571D01*
X156430183Y-77950242D01*
X156424204Y-77880628D01*
X156456809Y-77818833D01*
X156472844Y-77804938D01*
X156587285Y-77721792D01*
X156721792Y-77587285D01*
X156833602Y-77433392D01*
X156919961Y-77263903D01*
X156925195Y-77247793D01*
X156964632Y-77190118D01*
X157028990Y-77162919D01*
X157097837Y-77174833D01*
X157149313Y-77222077D01*
X157166415Y-77272855D01*
X157173011Y-77334202D01*
X157173011Y-77334204D01*
X157212072Y-77438927D01*
X157224111Y-77471204D01*
X157311739Y-77588261D01*
X157428796Y-77675889D01*
X157565799Y-77726989D01*
X157593050Y-77729918D01*
X157626345Y-77733499D01*
X157626362Y-77733500D01*
X158573638Y-77733500D01*
X158573654Y-77733499D01*
X158600692Y-77730591D01*
X158634201Y-77726989D01*
X158771204Y-77675889D01*
X158888261Y-77588261D01*
X158975889Y-77471204D01*
X159026989Y-77334201D01*
X159030591Y-77300692D01*
X159033499Y-77273654D01*
X159033500Y-77273637D01*
X159033500Y-76326362D01*
X159033499Y-76326345D01*
X159030157Y-76295270D01*
X159026989Y-76265799D01*
X159009161Y-76218002D01*
X158989992Y-76166607D01*
X158975889Y-76128796D01*
X158888261Y-76011739D01*
X158771204Y-75924111D01*
X158634203Y-75873011D01*
X158573654Y-75866500D01*
X158573638Y-75866500D01*
X157626362Y-75866500D01*
X157626345Y-75866500D01*
X157565797Y-75873011D01*
X157565795Y-75873011D01*
X157428795Y-75924111D01*
X157311739Y-76011739D01*
X157224111Y-76128795D01*
X157173011Y-76265795D01*
X157173011Y-76265797D01*
X157166415Y-76327144D01*
X157139677Y-76391695D01*
X157082284Y-76431543D01*
X157012459Y-76434036D01*
X156952370Y-76398383D01*
X156925195Y-76352207D01*
X156924486Y-76350026D01*
X156919961Y-76336097D01*
X156919959Y-76336094D01*
X156919959Y-76336092D01*
X156874402Y-76246683D01*
X156833602Y-76166608D01*
X156721792Y-76012715D01*
X156587285Y-75878208D01*
X156433392Y-75766398D01*
X156263907Y-75680040D01*
X156082991Y-75621256D01*
X155895116Y-75591500D01*
X155895111Y-75591500D01*
X155704889Y-75591500D01*
X155704884Y-75591500D01*
X155517008Y-75621256D01*
X155336092Y-75680040D01*
X155166607Y-75766398D01*
X155078806Y-75830189D01*
X155012715Y-75878208D01*
X155012713Y-75878210D01*
X155012712Y-75878210D01*
X154878210Y-76012712D01*
X154878210Y-76012713D01*
X154878208Y-76012715D01*
X154830189Y-76078806D01*
X154766398Y-76166607D01*
X154680040Y-76336092D01*
X154621256Y-76517008D01*
X154591500Y-76704883D01*
X152240400Y-76704883D01*
X152240400Y-64425220D01*
X152260085Y-64358181D01*
X152312889Y-64312426D01*
X152382047Y-64302482D01*
X152445603Y-64331507D01*
X152452081Y-64337539D01*
X152755181Y-64640639D01*
X152788666Y-64701962D01*
X152791500Y-64728320D01*
X152791500Y-64838980D01*
X152823719Y-65042408D01*
X152887367Y-65238294D01*
X152937185Y-65336065D01*
X152977218Y-65414634D01*
X152980873Y-65421806D01*
X153101926Y-65588423D01*
X153101930Y-65588428D01*
X153180181Y-65666679D01*
X153213666Y-65728002D01*
X153216500Y-65754360D01*
X153216500Y-66257640D01*
X153196815Y-66324679D01*
X153180181Y-66345321D01*
X153101930Y-66423571D01*
X153101926Y-66423576D01*
X152980873Y-66590193D01*
X152887367Y-66773705D01*
X152823719Y-66969591D01*
X152791500Y-67173019D01*
X152791500Y-67378980D01*
X152823719Y-67582408D01*
X152887367Y-67778294D01*
X152980873Y-67961806D01*
X153101926Y-68128423D01*
X153101930Y-68128428D01*
X153247571Y-68274069D01*
X153247576Y-68274073D01*
X153362662Y-68357687D01*
X153414197Y-68395129D01*
X153531128Y-68454709D01*
X153597705Y-68488632D01*
X153597707Y-68488632D01*
X153597710Y-68488634D01*
X153702707Y-68522749D01*
X153793591Y-68552280D01*
X153895305Y-68568390D01*
X153997019Y-68584500D01*
X153997020Y-68584500D01*
X154202980Y-68584500D01*
X154202981Y-68584500D01*
X154406408Y-68552280D01*
X154602290Y-68488634D01*
X154785803Y-68395129D01*
X154952430Y-68274068D01*
X155098068Y-68128430D01*
X155219129Y-67961803D01*
X155312634Y-67778290D01*
X155376280Y-67582408D01*
X155408500Y-67378981D01*
X155408500Y-67173019D01*
X155401885Y-67131251D01*
X155376280Y-66969591D01*
X155312632Y-66773705D01*
X155278709Y-66707128D01*
X155219129Y-66590197D01*
X155173570Y-66527490D01*
X155098073Y-66423576D01*
X155098069Y-66423571D01*
X155019819Y-66345321D01*
X154986334Y-66283998D01*
X154983500Y-66257640D01*
X154983500Y-65754360D01*
X155003185Y-65687321D01*
X155019819Y-65666679D01*
X155098068Y-65588430D01*
X155219129Y-65421803D01*
X155312634Y-65238290D01*
X155376280Y-65042408D01*
X155408500Y-64838981D01*
X155408500Y-64633019D01*
X155395783Y-64552730D01*
X155376280Y-64429591D01*
X155334502Y-64301014D01*
X155312634Y-64233710D01*
X155312632Y-64233707D01*
X155312632Y-64233705D01*
X155255451Y-64121483D01*
X155219129Y-64050197D01*
X155176484Y-63991501D01*
X155098073Y-63883576D01*
X155098069Y-63883571D01*
X154952428Y-63737930D01*
X154952423Y-63737926D01*
X154785806Y-63616873D01*
X154785805Y-63616872D01*
X154785803Y-63616871D01*
X154719179Y-63582924D01*
X154668384Y-63534950D01*
X154651589Y-63467129D01*
X154674126Y-63400995D01*
X154719181Y-63361955D01*
X154825346Y-63307861D01*
X154825347Y-63307861D01*
X154869921Y-63275474D01*
X154190447Y-62596000D01*
X154196661Y-62596000D01*
X154298394Y-62568741D01*
X154389606Y-62516080D01*
X154464080Y-62441606D01*
X154516741Y-62350394D01*
X154544000Y-62248661D01*
X154544000Y-62242447D01*
X155223474Y-62921921D01*
X155255859Y-62877349D01*
X155348755Y-62695031D01*
X155411990Y-62500417D01*
X155444000Y-62298317D01*
X155444000Y-62093682D01*
X155411990Y-61891582D01*
X155348755Y-61696968D01*
X155255859Y-61514650D01*
X155223474Y-61470077D01*
X155223474Y-61470076D01*
X154544000Y-62149551D01*
X154544000Y-62143339D01*
X154516741Y-62041606D01*
X154464080Y-61950394D01*
X154389606Y-61875920D01*
X154298394Y-61823259D01*
X154196661Y-61796000D01*
X154190446Y-61796000D01*
X154869922Y-61116524D01*
X154869921Y-61116523D01*
X154825359Y-61084147D01*
X154825350Y-61084141D01*
X154643031Y-60991244D01*
X154448417Y-60928009D01*
X154246317Y-60896000D01*
X154041683Y-60896000D01*
X153839581Y-60928010D01*
X153839578Y-60928010D01*
X153759718Y-60953959D01*
X153689877Y-60955954D01*
X153630044Y-60919874D01*
X153599216Y-60857173D01*
X153597400Y-60836028D01*
X153597400Y-54103971D01*
X153617085Y-54036932D01*
X153669889Y-53991177D01*
X153739047Y-53981233D01*
X153759719Y-53986040D01*
X153839582Y-54011990D01*
X154041683Y-54044000D01*
X154246317Y-54044000D01*
X154448417Y-54011990D01*
X154643031Y-53948755D01*
X154825349Y-53855859D01*
X154869921Y-53823474D01*
X154190447Y-53144000D01*
X154196661Y-53144000D01*
X154298394Y-53116741D01*
X154389606Y-53064080D01*
X154464080Y-52989606D01*
X154516741Y-52898394D01*
X154544000Y-52796661D01*
X154544000Y-52790447D01*
X155223474Y-53469921D01*
X155255859Y-53425349D01*
X155348755Y-53243031D01*
X155411990Y-53048417D01*
X155444000Y-52846317D01*
X155444000Y-52641682D01*
X155411990Y-52439582D01*
X155348755Y-52244968D01*
X155255859Y-52062650D01*
X155223474Y-52018077D01*
X155223474Y-52018076D01*
X154544000Y-52697551D01*
X154544000Y-52691339D01*
X154516741Y-52589606D01*
X154464080Y-52498394D01*
X154389606Y-52423920D01*
X154298394Y-52371259D01*
X154196661Y-52344000D01*
X154190446Y-52344000D01*
X154869922Y-51664524D01*
X154869921Y-51664523D01*
X154825359Y-51632147D01*
X154825350Y-51632141D01*
X154741180Y-51589254D01*
X154690384Y-51541279D01*
X154673589Y-51473458D01*
X154696127Y-51407323D01*
X154741179Y-51368284D01*
X154829803Y-51323129D01*
X154996430Y-51202068D01*
X155142068Y-51056430D01*
X155263129Y-50889803D01*
X155356634Y-50706290D01*
X155420280Y-50510408D01*
X155452500Y-50306981D01*
X155452500Y-50101019D01*
X155447191Y-50067500D01*
X155420280Y-49897591D01*
X155381771Y-49779074D01*
X155356634Y-49701710D01*
X155356632Y-49701707D01*
X155356632Y-49701705D01*
X155294325Y-49579423D01*
X155263129Y-49518197D01*
X155170171Y-49390250D01*
X155142073Y-49351576D01*
X155142069Y-49351571D01*
X154996428Y-49205930D01*
X154996423Y-49205926D01*
X154829806Y-49084873D01*
X154829805Y-49084872D01*
X154829803Y-49084871D01*
X154750540Y-49044484D01*
X154699745Y-48996510D01*
X154682950Y-48928689D01*
X154705487Y-48862554D01*
X154750541Y-48823515D01*
X154829803Y-48783129D01*
X154996430Y-48662068D01*
X155142068Y-48516430D01*
X155263129Y-48349803D01*
X155356634Y-48166290D01*
X155420280Y-47970408D01*
X155452500Y-47766981D01*
X155452500Y-47561019D01*
X155420280Y-47357592D01*
X155416951Y-47347349D01*
X155414953Y-47277511D01*
X155447197Y-47221351D01*
X155766321Y-46902228D01*
X155846432Y-46763473D01*
X155887900Y-46608710D01*
X155887900Y-46448490D01*
X155887900Y-44606789D01*
X155867166Y-44529408D01*
X155846432Y-44452027D01*
X155766321Y-44313272D01*
X154983227Y-43530178D01*
X154855096Y-43456201D01*
X154844475Y-43450069D01*
X154844474Y-43450068D01*
X154844473Y-43450068D01*
X154767091Y-43429334D01*
X154767090Y-43429333D01*
X154710444Y-43414155D01*
X154689711Y-43408600D01*
X153599989Y-43408600D01*
X153522608Y-43429333D01*
X153522608Y-43429334D01*
X153445227Y-43450068D01*
X153445225Y-43450068D01*
X153445225Y-43450069D01*
X153306472Y-43530179D01*
X153306469Y-43530181D01*
X151144980Y-45691670D01*
X151144976Y-45691676D01*
X151064867Y-45830426D01*
X151064868Y-45830426D01*
X151064868Y-45830427D01*
X151023400Y-45985189D01*
X151023400Y-50067500D01*
X151003715Y-50134539D01*
X150950911Y-50180294D01*
X150899400Y-50191500D01*
X150840716Y-50191500D01*
X150665207Y-50226411D01*
X150665199Y-50226413D01*
X150499867Y-50294896D01*
X150499857Y-50294901D01*
X150351065Y-50394321D01*
X150351061Y-50394324D01*
X150224524Y-50520861D01*
X150224521Y-50520865D01*
X150125101Y-50669657D01*
X150125096Y-50669667D01*
X150056613Y-50834999D01*
X150056611Y-50835007D01*
X150021700Y-51010516D01*
X150021700Y-51189483D01*
X150056611Y-51364992D01*
X150056613Y-51365000D01*
X150125096Y-51530332D01*
X150125101Y-51530342D01*
X150224520Y-51679133D01*
X150224521Y-51679134D01*
X150224522Y-51679135D01*
X150285382Y-51739995D01*
X150318866Y-51801316D01*
X150321700Y-51827675D01*
X150321700Y-77371888D01*
X150302015Y-77438927D01*
X150285381Y-77459569D01*
X149385587Y-78359362D01*
X149324264Y-78392847D01*
X149254572Y-78387863D01*
X149198639Y-78345991D01*
X149197588Y-78344567D01*
X149101792Y-78212715D01*
X148967285Y-78078208D01*
X148860076Y-78000316D01*
X148817413Y-77944988D01*
X148811434Y-77875375D01*
X148844040Y-77813580D01*
X148860073Y-77799685D01*
X148967285Y-77721792D01*
X149101792Y-77587285D01*
X149213602Y-77433392D01*
X149299961Y-77263903D01*
X149358743Y-77082991D01*
X149385065Y-76916802D01*
X149388500Y-76895116D01*
X149388500Y-76704883D01*
X149358743Y-76517008D01*
X149305195Y-76352207D01*
X149299961Y-76336097D01*
X149299959Y-76336094D01*
X149299959Y-76336092D01*
X149254402Y-76246683D01*
X149213602Y-76166608D01*
X149101792Y-76012715D01*
X148967285Y-75878208D01*
X148813392Y-75766398D01*
X148643907Y-75680040D01*
X148462991Y-75621256D01*
X148275116Y-75591500D01*
X148275111Y-75591500D01*
X148084889Y-75591500D01*
X148084884Y-75591500D01*
X147897008Y-75621256D01*
X147716092Y-75680040D01*
X147546607Y-75766398D01*
X147458806Y-75830189D01*
X147392715Y-75878208D01*
X147392713Y-75878210D01*
X147392712Y-75878210D01*
X147258210Y-76012712D01*
X147258210Y-76012713D01*
X147258208Y-76012715D01*
X147210189Y-76078806D01*
X147146398Y-76166607D01*
X147060040Y-76336092D01*
X147001256Y-76517008D01*
X146971500Y-76704883D01*
X146971500Y-76895116D01*
X147001256Y-77082991D01*
X147060040Y-77263907D01*
X147129942Y-77401095D01*
X147146398Y-77433392D01*
X147258208Y-77587285D01*
X147392715Y-77721792D01*
X147408830Y-77733500D01*
X147499921Y-77799682D01*
X147542586Y-77855013D01*
X147548565Y-77924626D01*
X147515959Y-77986421D01*
X147499921Y-78000318D01*
X147392713Y-78078209D01*
X147258210Y-78212712D01*
X147258210Y-78212713D01*
X147258208Y-78212715D01*
X147242225Y-78234714D01*
X147146398Y-78366607D01*
X147060040Y-78536092D01*
X147001256Y-78717008D01*
X146971500Y-78904883D01*
X146971500Y-79095116D01*
X146996186Y-79250977D01*
X146987231Y-79320270D01*
X146961394Y-79358056D01*
X142783413Y-83536037D01*
X142722090Y-83569522D01*
X142652398Y-83564538D01*
X142608051Y-83536037D01*
X142479138Y-83407124D01*
X142479134Y-83407121D01*
X142330342Y-83307701D01*
X142330332Y-83307696D01*
X142165000Y-83239213D01*
X142164992Y-83239211D01*
X141989483Y-83204300D01*
X141989479Y-83204300D01*
X141810521Y-83204300D01*
X141810516Y-83204300D01*
X141635007Y-83239211D01*
X141634999Y-83239213D01*
X141469667Y-83307696D01*
X141469657Y-83307701D01*
X141320865Y-83407121D01*
X141320861Y-83407124D01*
X141194324Y-83533661D01*
X141194321Y-83533665D01*
X141094901Y-83682457D01*
X141094896Y-83682467D01*
X141026413Y-83847799D01*
X141026411Y-83847807D01*
X140991500Y-84023316D01*
X140991500Y-84106148D01*
X140971815Y-84173187D01*
X140954904Y-84194105D01*
X139751542Y-85389904D01*
X139745214Y-85396191D01*
X139744373Y-85396678D01*
X139688741Y-85452308D01*
X139688582Y-85452467D01*
X139688541Y-85452509D01*
X139688266Y-85452783D01*
X139628229Y-85512444D01*
X139625467Y-85515582D01*
X139400180Y-85740870D01*
X139338857Y-85774355D01*
X139269166Y-85769371D01*
X139213232Y-85727500D01*
X139188815Y-85662035D01*
X139188499Y-85653189D01*
X139188499Y-85639462D01*
X139188498Y-85639446D01*
X139188155Y-85636092D01*
X139177887Y-85535574D01*
X139122115Y-85367262D01*
X139029030Y-85216348D01*
X138903652Y-85090970D01*
X138795745Y-85024412D01*
X138752740Y-84997886D01*
X138752735Y-84997884D01*
X138584427Y-84942113D01*
X138480552Y-84931500D01*
X138480545Y-84931500D01*
X137472320Y-84931500D01*
X137405281Y-84911815D01*
X137384639Y-84895181D01*
X136746519Y-84257061D01*
X136713034Y-84195738D01*
X136710200Y-84169380D01*
X136710200Y-81844982D01*
X139300000Y-81844982D01*
X139300000Y-82049617D01*
X139332009Y-82251717D01*
X139395244Y-82446331D01*
X139488141Y-82628650D01*
X139488147Y-82628659D01*
X139520523Y-82673221D01*
X139520524Y-82673222D01*
X140200000Y-81993746D01*
X140200000Y-81999961D01*
X140227259Y-82101694D01*
X140279920Y-82192906D01*
X140354394Y-82267380D01*
X140445606Y-82320041D01*
X140547339Y-82347300D01*
X140553553Y-82347300D01*
X139874076Y-83026774D01*
X139918650Y-83059159D01*
X140100968Y-83152055D01*
X140295582Y-83215290D01*
X140497683Y-83247300D01*
X140702317Y-83247300D01*
X140904417Y-83215290D01*
X141099031Y-83152055D01*
X141281349Y-83059159D01*
X141325921Y-83026774D01*
X140646447Y-82347300D01*
X140652661Y-82347300D01*
X140754394Y-82320041D01*
X140845606Y-82267380D01*
X140920080Y-82192906D01*
X140972741Y-82101694D01*
X141000000Y-81999961D01*
X141000000Y-81993748D01*
X141679474Y-82673222D01*
X141679474Y-82673221D01*
X141711859Y-82628649D01*
X141804755Y-82446331D01*
X141867990Y-82251717D01*
X141900000Y-82049617D01*
X141900000Y-81844982D01*
X141867990Y-81642882D01*
X141804755Y-81448268D01*
X141711859Y-81265950D01*
X141679474Y-81221377D01*
X141679474Y-81221376D01*
X141000000Y-81900851D01*
X141000000Y-81894639D01*
X140972741Y-81792906D01*
X140920080Y-81701694D01*
X140845606Y-81627220D01*
X140754394Y-81574559D01*
X140652661Y-81547300D01*
X140646446Y-81547300D01*
X141325922Y-80867824D01*
X141325921Y-80867823D01*
X141281359Y-80835447D01*
X141281350Y-80835441D01*
X141099031Y-80742544D01*
X140904417Y-80679309D01*
X140702317Y-80647300D01*
X140497683Y-80647300D01*
X140295582Y-80679309D01*
X140100968Y-80742544D01*
X139918644Y-80835443D01*
X139874077Y-80867823D01*
X139874077Y-80867824D01*
X140553554Y-81547300D01*
X140547339Y-81547300D01*
X140445606Y-81574559D01*
X140354394Y-81627220D01*
X140279920Y-81701694D01*
X140227259Y-81792906D01*
X140200000Y-81894639D01*
X140200000Y-81900853D01*
X139520524Y-81221377D01*
X139520523Y-81221377D01*
X139488143Y-81265944D01*
X139395244Y-81448268D01*
X139332009Y-81642882D01*
X139300000Y-81844982D01*
X136710200Y-81844982D01*
X136710200Y-77598645D01*
X139291500Y-77598645D01*
X139291500Y-79295954D01*
X139298011Y-79356502D01*
X139298011Y-79356504D01*
X139336852Y-79460637D01*
X139349111Y-79493504D01*
X139436739Y-79610561D01*
X139553796Y-79698189D01*
X139668949Y-79741139D01*
X139689262Y-79748716D01*
X139690799Y-79749289D01*
X139718050Y-79752218D01*
X139751345Y-79755799D01*
X139751362Y-79755800D01*
X141448638Y-79755800D01*
X141448654Y-79755799D01*
X141475692Y-79752891D01*
X141509201Y-79749289D01*
X141510738Y-79748716D01*
X141523768Y-79743855D01*
X141646204Y-79698189D01*
X141763261Y-79610561D01*
X141850889Y-79493504D01*
X141901989Y-79356501D01*
X141905884Y-79320270D01*
X141908499Y-79295954D01*
X141908500Y-79295937D01*
X141908500Y-77598662D01*
X141908499Y-77598645D01*
X141905157Y-77567570D01*
X141901989Y-77538099D01*
X141892743Y-77513311D01*
X141877038Y-77471204D01*
X141850889Y-77401096D01*
X141763261Y-77284039D01*
X141646204Y-77196411D01*
X141629332Y-77190118D01*
X141509203Y-77145311D01*
X141448654Y-77138800D01*
X141448638Y-77138800D01*
X139751362Y-77138800D01*
X139751345Y-77138800D01*
X139690797Y-77145311D01*
X139690795Y-77145311D01*
X139553795Y-77196411D01*
X139436739Y-77284039D01*
X139349111Y-77401095D01*
X139298011Y-77538095D01*
X139298011Y-77538097D01*
X139291500Y-77598645D01*
X136710200Y-77598645D01*
X136710200Y-77392982D01*
X136710199Y-77392978D01*
X136684525Y-77263907D01*
X136676248Y-77222293D01*
X136667299Y-77200687D01*
X136609650Y-77061510D01*
X136609649Y-77061508D01*
X136592127Y-77035285D01*
X136512959Y-76916802D01*
X136512956Y-76916798D01*
X136389901Y-76793743D01*
X136389897Y-76793740D01*
X136245191Y-76697050D01*
X136245189Y-76697049D01*
X136084411Y-76630453D01*
X136084399Y-76630450D01*
X135913721Y-76596500D01*
X135913717Y-76596500D01*
X135395214Y-76596500D01*
X135328175Y-76576815D01*
X135322336Y-76572823D01*
X135207186Y-76489162D01*
X135044714Y-76406377D01*
X134871283Y-76350025D01*
X134691181Y-76321500D01*
X134691176Y-76321500D01*
X133308824Y-76321500D01*
X133308819Y-76321500D01*
X133128716Y-76350025D01*
X132955285Y-76406377D01*
X132792813Y-76489162D01*
X132708644Y-76550314D01*
X132645288Y-76596346D01*
X132645286Y-76596348D01*
X132645285Y-76596348D01*
X132516348Y-76725285D01*
X132516348Y-76725286D01*
X132516346Y-76725288D01*
X132470314Y-76788644D01*
X132409162Y-76872813D01*
X132326377Y-77035285D01*
X132270025Y-77208716D01*
X132241500Y-77388818D01*
X132241500Y-77571181D01*
X132270025Y-77751283D01*
X132326377Y-77924714D01*
X132369068Y-78008498D01*
X132409162Y-78087186D01*
X132516346Y-78234712D01*
X132645288Y-78363654D01*
X132792814Y-78470838D01*
X132802439Y-78475742D01*
X132955285Y-78553622D01*
X132955287Y-78553622D01*
X132955290Y-78553624D01*
X133048250Y-78583828D01*
X133128716Y-78609974D01*
X133239539Y-78627527D01*
X133302674Y-78657456D01*
X133339605Y-78716768D01*
X133338607Y-78786631D01*
X133299997Y-78844863D01*
X133239539Y-78872473D01*
X133128716Y-78890025D01*
X132955285Y-78946377D01*
X132792813Y-79029162D01*
X132708644Y-79090314D01*
X132645288Y-79136346D01*
X132645286Y-79136348D01*
X132645285Y-79136348D01*
X132516348Y-79265285D01*
X132516348Y-79265286D01*
X132516346Y-79265288D01*
X132494066Y-79295954D01*
X132409162Y-79412813D01*
X132326377Y-79575285D01*
X132270025Y-79748716D01*
X132241500Y-79928818D01*
X132241500Y-80111181D01*
X132270025Y-80291283D01*
X132326377Y-80464714D01*
X132409162Y-80627186D01*
X132516346Y-80774712D01*
X132645288Y-80903654D01*
X132792814Y-81010838D01*
X132869575Y-81049950D01*
X132955285Y-81093622D01*
X132955287Y-81093622D01*
X132955290Y-81093624D01*
X133048250Y-81123828D01*
X133128716Y-81149974D01*
X133239539Y-81167527D01*
X133302674Y-81197456D01*
X133339605Y-81256768D01*
X133338607Y-81326631D01*
X133299997Y-81384863D01*
X133239539Y-81412473D01*
X133128716Y-81430025D01*
X132955285Y-81486377D01*
X132792813Y-81569162D01*
X132719983Y-81622077D01*
X132645288Y-81676346D01*
X132645286Y-81676348D01*
X132645285Y-81676348D01*
X132516348Y-81805285D01*
X132516348Y-81805286D01*
X132516346Y-81805288D01*
X132487507Y-81844982D01*
X132409162Y-81952813D01*
X132326377Y-82115285D01*
X132270025Y-82288716D01*
X132241500Y-82468818D01*
X132241500Y-82651181D01*
X132270025Y-82831283D01*
X132326377Y-83004714D01*
X132400405Y-83150000D01*
X132409162Y-83167186D01*
X132516346Y-83314712D01*
X132645288Y-83443654D01*
X132792814Y-83550838D01*
X132869575Y-83589950D01*
X132955285Y-83633622D01*
X132955287Y-83633622D01*
X132955290Y-83633624D01*
X133048250Y-83663828D01*
X133128716Y-83689974D01*
X133239539Y-83707527D01*
X133302674Y-83737456D01*
X133339605Y-83796768D01*
X133338607Y-83866631D01*
X133299997Y-83924863D01*
X133239539Y-83952473D01*
X133128716Y-83970025D01*
X132955285Y-84026377D01*
X132792813Y-84109162D01*
X132725952Y-84157740D01*
X132645288Y-84216346D01*
X132645286Y-84216348D01*
X132645285Y-84216348D01*
X132516348Y-84345285D01*
X132516348Y-84345286D01*
X132516346Y-84345288D01*
X132516344Y-84345291D01*
X132409162Y-84492813D01*
X132326377Y-84655285D01*
X132270025Y-84828716D01*
X132241500Y-85008818D01*
X132241500Y-85191181D01*
X132270025Y-85371283D01*
X132326377Y-85544714D01*
X132381649Y-85653189D01*
X132409162Y-85707186D01*
X132516346Y-85854712D01*
X132645288Y-85983654D01*
X132792814Y-86090838D01*
X132816917Y-86103119D01*
X132955285Y-86173622D01*
X132955287Y-86173622D01*
X132955290Y-86173624D01*
X133048250Y-86203828D01*
X133128716Y-86229974D01*
X133239539Y-86247527D01*
X133302674Y-86277456D01*
X133339605Y-86336768D01*
X133338607Y-86406631D01*
X133299997Y-86464863D01*
X133239539Y-86492473D01*
X133128716Y-86510025D01*
X132955285Y-86566377D01*
X132792813Y-86649162D01*
X132730041Y-86694769D01*
X132645288Y-86756346D01*
X132645286Y-86756348D01*
X132645285Y-86756348D01*
X132516348Y-86885285D01*
X132516348Y-86885286D01*
X132516346Y-86885288D01*
X132473380Y-86944426D01*
X132409162Y-87032813D01*
X132326377Y-87195285D01*
X132270025Y-87368716D01*
X132241500Y-87548818D01*
X132241500Y-87731181D01*
X132270025Y-87911283D01*
X132326377Y-88084714D01*
X132391727Y-88212968D01*
X132409162Y-88247186D01*
X132516346Y-88394712D01*
X132645288Y-88523654D01*
X132792814Y-88630838D01*
X132836753Y-88653226D01*
X132955285Y-88713622D01*
X132955287Y-88713622D01*
X132955290Y-88713624D01*
X133048250Y-88743828D01*
X133128716Y-88769974D01*
X133239539Y-88787527D01*
X133302674Y-88817456D01*
X133339605Y-88876768D01*
X133338607Y-88946631D01*
X133299997Y-89004863D01*
X133239539Y-89032473D01*
X133128716Y-89050025D01*
X132955285Y-89106377D01*
X132792813Y-89189162D01*
X132741907Y-89226148D01*
X132645288Y-89296346D01*
X132645286Y-89296348D01*
X132645285Y-89296348D01*
X132516348Y-89425285D01*
X132516348Y-89425286D01*
X132516346Y-89425288D01*
X132490146Y-89461349D01*
X132409162Y-89572813D01*
X132326377Y-89735285D01*
X132270025Y-89908716D01*
X132241500Y-90088818D01*
X132241500Y-90271181D01*
X132270025Y-90451283D01*
X132326377Y-90624714D01*
X132361214Y-90693084D01*
X132409162Y-90787186D01*
X132516346Y-90934712D01*
X132516348Y-90934714D01*
X132636861Y-91055227D01*
X132670346Y-91116550D01*
X132665362Y-91186242D01*
X132636861Y-91230589D01*
X131961380Y-91906070D01*
X131961376Y-91906076D01*
X131881267Y-92044828D01*
X131881266Y-92044829D01*
X131870038Y-92086734D01*
X131870015Y-92086822D01*
X131869794Y-92087650D01*
X131839800Y-92199589D01*
X117032400Y-92199589D01*
X117032400Y-91292091D01*
X117032400Y-91292089D01*
X116990932Y-91137328D01*
X116990932Y-91137327D01*
X116910821Y-90998572D01*
X110525327Y-84613078D01*
X110451495Y-84570451D01*
X110386574Y-84532968D01*
X110262646Y-84499762D01*
X110262588Y-84499747D01*
X110262350Y-84499683D01*
X110231811Y-84491500D01*
X110231169Y-84491500D01*
X110222970Y-84489348D01*
X110199461Y-84475182D01*
X110174365Y-84464079D01*
X110165890Y-84454954D01*
X110163125Y-84453288D01*
X110161752Y-84450498D01*
X110154134Y-84442296D01*
X110147817Y-84433602D01*
X110083654Y-84345288D01*
X109954712Y-84216346D01*
X109807186Y-84109162D01*
X109801271Y-84106148D01*
X109644714Y-84026377D01*
X109471283Y-83970025D01*
X109360460Y-83952473D01*
X109297325Y-83922544D01*
X109260394Y-83863232D01*
X109261392Y-83793370D01*
X109300002Y-83735137D01*
X109360460Y-83707527D01*
X109471283Y-83689974D01*
X109501764Y-83680070D01*
X109644710Y-83633624D01*
X109807186Y-83550838D01*
X109954712Y-83443654D01*
X110083654Y-83314712D01*
X110190838Y-83167186D01*
X110273624Y-83004710D01*
X110329974Y-82831283D01*
X110358500Y-82651181D01*
X110358500Y-82468818D01*
X110329974Y-82288716D01*
X110303828Y-82208250D01*
X110273624Y-82115290D01*
X110273622Y-82115287D01*
X110273622Y-82115285D01*
X110208899Y-81988261D01*
X110190838Y-81952814D01*
X110083654Y-81805288D01*
X109954712Y-81676346D01*
X109807186Y-81569162D01*
X109644714Y-81486377D01*
X109471283Y-81430025D01*
X109360460Y-81412473D01*
X109297325Y-81382544D01*
X109260394Y-81323232D01*
X109261392Y-81253370D01*
X109300002Y-81195137D01*
X109360460Y-81167527D01*
X109471283Y-81149974D01*
X109644710Y-81093624D01*
X109807186Y-81010838D01*
X109954712Y-80903654D01*
X110083654Y-80774712D01*
X110190838Y-80627186D01*
X110273624Y-80464710D01*
X110329974Y-80291283D01*
X110349754Y-80166398D01*
X110358500Y-80111181D01*
X110358500Y-79928818D01*
X110329974Y-79748716D01*
X110273622Y-79575285D01*
X110190837Y-79412813D01*
X110083654Y-79265288D01*
X109954712Y-79136346D01*
X109807186Y-79029162D01*
X109644714Y-78946377D01*
X109471283Y-78890025D01*
X109360460Y-78872473D01*
X109297325Y-78842544D01*
X109260394Y-78783232D01*
X109261392Y-78713370D01*
X109300002Y-78655137D01*
X109360460Y-78627527D01*
X109471283Y-78609974D01*
X109644710Y-78553624D01*
X109807186Y-78470838D01*
X109954712Y-78363654D01*
X110083654Y-78234712D01*
X110190838Y-78087186D01*
X110273624Y-77924710D01*
X110329974Y-77751283D01*
X110334645Y-77721789D01*
X110358500Y-77571181D01*
X110358500Y-77388818D01*
X110329974Y-77208716D01*
X110282143Y-77061510D01*
X110273624Y-77035290D01*
X110273622Y-77035287D01*
X110273622Y-77035285D01*
X110213249Y-76916798D01*
X110190838Y-76872814D01*
X110083654Y-76725288D01*
X109954712Y-76596346D01*
X109807186Y-76489162D01*
X109644714Y-76406377D01*
X109471283Y-76350025D01*
X109291181Y-76321500D01*
X109291176Y-76321500D01*
X107908824Y-76321500D01*
X107908819Y-76321500D01*
X107800198Y-76338704D01*
X107730905Y-76329750D01*
X107677453Y-76284753D01*
X107656813Y-76218002D01*
X107656800Y-76216231D01*
X107656800Y-71944019D01*
X107676485Y-71876980D01*
X107693119Y-71856338D01*
X109284188Y-70265269D01*
X110864723Y-68684734D01*
X112741500Y-68684734D01*
X112741500Y-68915265D01*
X112771450Y-69142749D01*
X112771589Y-69143802D01*
X112820518Y-69326409D01*
X112831252Y-69366466D01*
X112831256Y-69366479D01*
X112919460Y-69579423D01*
X112919465Y-69579433D01*
X113034724Y-69779066D01*
X113034729Y-69779072D01*
X113034730Y-69779074D01*
X113175051Y-69961945D01*
X113175057Y-69961952D01*
X113338047Y-70124942D01*
X113338054Y-70124948D01*
X113468271Y-70224866D01*
X113520934Y-70265276D01*
X113720567Y-70380535D01*
X113720572Y-70380537D01*
X113720576Y-70380539D01*
X113933520Y-70468743D01*
X113933525Y-70468744D01*
X113933536Y-70468749D01*
X114156198Y-70528411D01*
X114384742Y-70558500D01*
X114384749Y-70558500D01*
X114615251Y-70558500D01*
X114615258Y-70558500D01*
X114843802Y-70528411D01*
X115066464Y-70468749D01*
X115066476Y-70468743D01*
X115066479Y-70468743D01*
X115279423Y-70380539D01*
X115279421Y-70380539D01*
X115279433Y-70380535D01*
X115479066Y-70265276D01*
X115661947Y-70124947D01*
X115824947Y-69961947D01*
X115965276Y-69779066D01*
X116080535Y-69579433D01*
X116119648Y-69485006D01*
X116168743Y-69366479D01*
X116168743Y-69366476D01*
X116168749Y-69366464D01*
X116228411Y-69143802D01*
X116258500Y-68915258D01*
X116258500Y-68684742D01*
X116228411Y-68456198D01*
X116168749Y-68233536D01*
X116168744Y-68233525D01*
X116168743Y-68233520D01*
X116080539Y-68020576D01*
X116080534Y-68020566D01*
X115965276Y-67820934D01*
X115897266Y-67732301D01*
X115824948Y-67638054D01*
X115824942Y-67638047D01*
X115661952Y-67475057D01*
X115661945Y-67475051D01*
X115479074Y-67334730D01*
X115479072Y-67334729D01*
X115479066Y-67334724D01*
X115279433Y-67219465D01*
X115279423Y-67219460D01*
X115066479Y-67131256D01*
X115066466Y-67131252D01*
X115066467Y-67131252D01*
X115066464Y-67131251D01*
X114843802Y-67071589D01*
X114843801Y-67071588D01*
X114843798Y-67071588D01*
X114615265Y-67041500D01*
X114615258Y-67041500D01*
X114384742Y-67041500D01*
X114384734Y-67041500D01*
X114156201Y-67071588D01*
X114044867Y-67101420D01*
X113933536Y-67131251D01*
X113933534Y-67131251D01*
X113933533Y-67131252D01*
X113933520Y-67131256D01*
X113720576Y-67219460D01*
X113720566Y-67219465D01*
X113520934Y-67334724D01*
X113520925Y-67334730D01*
X113338054Y-67475051D01*
X113338047Y-67475057D01*
X113175057Y-67638047D01*
X113175051Y-67638054D01*
X113034730Y-67820925D01*
X113034724Y-67820934D01*
X112919465Y-68020566D01*
X112919460Y-68020576D01*
X112831256Y-68233520D01*
X112831252Y-68233533D01*
X112771588Y-68456201D01*
X112741500Y-68684734D01*
X110864723Y-68684734D01*
X113998986Y-65550470D01*
X114060307Y-65516987D01*
X114118757Y-65518378D01*
X114156198Y-65528411D01*
X114384742Y-65558500D01*
X114384749Y-65558500D01*
X114615251Y-65558500D01*
X114615258Y-65558500D01*
X114843802Y-65528411D01*
X115066464Y-65468749D01*
X115066476Y-65468743D01*
X115066479Y-65468743D01*
X115279423Y-65380539D01*
X115279421Y-65380539D01*
X115279433Y-65380535D01*
X115479066Y-65265276D01*
X115661947Y-65124947D01*
X115824947Y-64961947D01*
X115965276Y-64779066D01*
X116080535Y-64579433D01*
X116115820Y-64494245D01*
X116168743Y-64366479D01*
X116168743Y-64366476D01*
X116168749Y-64366464D01*
X116228411Y-64143802D01*
X116258500Y-63915258D01*
X116258500Y-63684742D01*
X116228411Y-63456198D01*
X116168749Y-63233536D01*
X116168744Y-63233525D01*
X116168743Y-63233520D01*
X116080539Y-63020576D01*
X116080534Y-63020566D01*
X116073568Y-63008500D01*
X115965276Y-62820934D01*
X115924866Y-62768271D01*
X115824948Y-62638054D01*
X115824942Y-62638047D01*
X115661952Y-62475057D01*
X115661945Y-62475051D01*
X115479074Y-62334730D01*
X115479072Y-62334729D01*
X115479066Y-62334724D01*
X115279433Y-62219465D01*
X115279423Y-62219460D01*
X115066479Y-62131256D01*
X115066466Y-62131252D01*
X115066467Y-62131252D01*
X115066464Y-62131251D01*
X114843802Y-62071589D01*
X114843801Y-62071588D01*
X114843798Y-62071588D01*
X114615265Y-62041500D01*
X114615258Y-62041500D01*
X114384742Y-62041500D01*
X114384734Y-62041500D01*
X114156201Y-62071588D01*
X114044867Y-62101420D01*
X113933536Y-62131251D01*
X113933534Y-62131251D01*
X113933533Y-62131252D01*
X113933520Y-62131256D01*
X113720576Y-62219460D01*
X113720566Y-62219465D01*
X113520934Y-62334724D01*
X113520925Y-62334730D01*
X113338054Y-62475051D01*
X113338047Y-62475057D01*
X113175057Y-62638047D01*
X113175051Y-62638054D01*
X113034730Y-62820925D01*
X113034724Y-62820934D01*
X112919465Y-63020566D01*
X112919460Y-63020576D01*
X112831256Y-63233520D01*
X112831252Y-63233533D01*
X112771588Y-63456201D01*
X112741500Y-63684734D01*
X112741500Y-63915265D01*
X112756062Y-64025865D01*
X112771588Y-64143798D01*
X112771589Y-64143800D01*
X112771591Y-64143812D01*
X112781620Y-64181240D01*
X112779957Y-64251090D01*
X112749526Y-64301014D01*
X106087043Y-70963497D01*
X106087040Y-70963501D01*
X105990350Y-71108207D01*
X105990349Y-71108209D01*
X105923753Y-71268987D01*
X105923750Y-71268999D01*
X105899149Y-71392680D01*
X105889800Y-71439679D01*
X105889800Y-105809379D01*
X105870115Y-105876418D01*
X105853481Y-105897060D01*
X102705139Y-109045401D01*
X102643816Y-109078886D01*
X102585365Y-109077495D01*
X102392678Y-109025865D01*
X102131653Y-108991501D01*
X102131650Y-108991500D01*
X102131644Y-108991500D01*
X101868356Y-108991500D01*
X101868350Y-108991500D01*
X101868346Y-108991501D01*
X101607321Y-109025865D01*
X101353004Y-109094009D01*
X101109765Y-109194761D01*
X101109749Y-109194769D01*
X100881743Y-109326409D01*
X100672863Y-109486687D01*
X100672856Y-109486693D01*
X100486693Y-109672856D01*
X100486687Y-109672863D01*
X100326409Y-109881743D01*
X100194769Y-110109749D01*
X100194761Y-110109765D01*
X100094009Y-110353004D01*
X100025865Y-110607321D01*
X99991501Y-110868346D01*
X99991500Y-110868362D01*
X99025500Y-110868362D01*
X99025500Y-104574320D01*
X99045185Y-104507281D01*
X99097989Y-104461526D01*
X99167147Y-104451582D01*
X99230703Y-104480607D01*
X99237181Y-104486639D01*
X100045402Y-105294860D01*
X100078887Y-105356183D01*
X100077496Y-105414634D01*
X100025865Y-105607321D01*
X99991501Y-105868346D01*
X99991500Y-105868362D01*
X99991500Y-106131637D01*
X99991501Y-106131653D01*
X100025865Y-106392678D01*
X100094009Y-106646995D01*
X100194761Y-106890234D01*
X100194769Y-106890250D01*
X100326409Y-107118256D01*
X100486687Y-107327136D01*
X100486693Y-107327143D01*
X100672856Y-107513306D01*
X100672863Y-107513312D01*
X100881743Y-107673590D01*
X101109749Y-107805230D01*
X101109765Y-107805238D01*
X101261451Y-107868068D01*
X101353003Y-107905990D01*
X101607320Y-107974134D01*
X101868356Y-108008500D01*
X101868363Y-108008500D01*
X102131637Y-108008500D01*
X102131644Y-108008500D01*
X102392680Y-107974134D01*
X102646997Y-107905990D01*
X102843275Y-107824689D01*
X102890234Y-107805238D01*
X102890237Y-107805236D01*
X102890243Y-107805234D01*
X103118257Y-107673590D01*
X103327138Y-107513311D01*
X103513311Y-107327138D01*
X103673590Y-107118257D01*
X103805234Y-106890243D01*
X103806836Y-106886377D01*
X103869038Y-106736206D01*
X103905990Y-106646997D01*
X103974134Y-106392680D01*
X104008500Y-106131644D01*
X104008500Y-105868356D01*
X103974134Y-105607320D01*
X103905990Y-105353003D01*
X103868068Y-105261451D01*
X103805238Y-105109765D01*
X103805230Y-105109749D01*
X103673590Y-104881743D01*
X103513312Y-104672863D01*
X103513306Y-104672856D01*
X103327143Y-104486693D01*
X103327136Y-104486687D01*
X103118256Y-104326409D01*
X102890250Y-104194769D01*
X102890234Y-104194761D01*
X102646995Y-104094009D01*
X102392678Y-104025865D01*
X102131653Y-103991501D01*
X102131650Y-103991500D01*
X102131644Y-103991500D01*
X101868356Y-103991500D01*
X101868350Y-103991500D01*
X101868346Y-103991501D01*
X101607321Y-104025865D01*
X101414634Y-104077496D01*
X101344784Y-104075833D01*
X101294860Y-104045402D01*
X100843119Y-103593661D01*
X100809634Y-103532338D01*
X100806800Y-103505980D01*
X100806800Y-100345096D01*
X100826485Y-100278057D01*
X100879289Y-100232302D01*
X100948447Y-100222358D01*
X100992800Y-100237709D01*
X101109749Y-100305230D01*
X101109765Y-100305238D01*
X101205992Y-100345096D01*
X101353003Y-100405990D01*
X101607320Y-100474134D01*
X101868356Y-100508500D01*
X101868363Y-100508500D01*
X102131637Y-100508500D01*
X102131644Y-100508500D01*
X102392680Y-100474134D01*
X102646997Y-100405990D01*
X102853424Y-100320485D01*
X102890234Y-100305238D01*
X102890237Y-100305236D01*
X102890243Y-100305234D01*
X103118257Y-100173590D01*
X103327138Y-100013311D01*
X103513311Y-99827138D01*
X103673590Y-99618257D01*
X103805234Y-99390243D01*
X103905990Y-99146997D01*
X103974134Y-98892680D01*
X104008500Y-98631644D01*
X104008500Y-98368356D01*
X103974134Y-98107320D01*
X103922503Y-97914630D01*
X103924166Y-97844784D01*
X103954595Y-97794861D01*
X105370859Y-96378598D01*
X105467548Y-96233895D01*
X105534148Y-96073108D01*
X105568100Y-95902417D01*
X105568100Y-95728383D01*
X105568100Y-69032719D01*
X105587785Y-68965680D01*
X105604419Y-68945038D01*
X109770392Y-64779065D01*
X113998986Y-60550470D01*
X114060307Y-60516987D01*
X114118757Y-60518378D01*
X114156198Y-60528411D01*
X114384742Y-60558500D01*
X114384749Y-60558500D01*
X114615251Y-60558500D01*
X114615258Y-60558500D01*
X114843802Y-60528411D01*
X115066464Y-60468749D01*
X115066476Y-60468743D01*
X115066479Y-60468743D01*
X115279423Y-60380539D01*
X115279421Y-60380539D01*
X115279433Y-60380535D01*
X115479066Y-60265276D01*
X115661947Y-60124947D01*
X115824947Y-59961947D01*
X115965276Y-59779066D01*
X116080535Y-59579433D01*
X116119648Y-59485006D01*
X116168743Y-59366479D01*
X116168743Y-59366476D01*
X116168749Y-59366464D01*
X116228411Y-59143802D01*
X116258500Y-58915258D01*
X116258500Y-58684742D01*
X116228411Y-58456198D01*
X116168749Y-58233536D01*
X116168744Y-58233525D01*
X116168743Y-58233520D01*
X116080539Y-58020576D01*
X116080534Y-58020566D01*
X115965276Y-57820934D01*
X115824947Y-57638053D01*
X115824942Y-57638047D01*
X115661952Y-57475057D01*
X115661945Y-57475051D01*
X115479074Y-57334730D01*
X115479072Y-57334729D01*
X115479066Y-57334724D01*
X115279433Y-57219465D01*
X115279423Y-57219460D01*
X115066479Y-57131256D01*
X115066466Y-57131252D01*
X115066467Y-57131252D01*
X115066464Y-57131251D01*
X114843802Y-57071589D01*
X114843801Y-57071588D01*
X114843798Y-57071588D01*
X114615265Y-57041500D01*
X114615258Y-57041500D01*
X114384742Y-57041500D01*
X114384734Y-57041500D01*
X114156201Y-57071588D01*
X114044867Y-57101420D01*
X113933536Y-57131251D01*
X113933534Y-57131251D01*
X113933533Y-57131252D01*
X113933520Y-57131256D01*
X113720576Y-57219460D01*
X113720566Y-57219465D01*
X113520934Y-57334724D01*
X113520925Y-57334730D01*
X113338054Y-57475051D01*
X113338047Y-57475057D01*
X113175057Y-57638047D01*
X113175051Y-57638054D01*
X113034730Y-57820925D01*
X113034724Y-57820934D01*
X112919465Y-58020566D01*
X112919460Y-58020576D01*
X112831256Y-58233520D01*
X112831252Y-58233533D01*
X112771588Y-58456201D01*
X112741500Y-58684734D01*
X112741500Y-58915265D01*
X112756062Y-59025865D01*
X112771588Y-59143798D01*
X112771589Y-59143800D01*
X112771591Y-59143812D01*
X112781620Y-59181240D01*
X112779957Y-59251090D01*
X112749526Y-59301014D01*
X103998343Y-68052197D01*
X103998340Y-68052201D01*
X103901650Y-68196907D01*
X103901649Y-68196909D01*
X103835053Y-68357687D01*
X103835053Y-68357689D01*
X103835052Y-68357692D01*
X103815458Y-68456198D01*
X103801100Y-68528379D01*
X103801100Y-69682623D01*
X103781415Y-69749662D01*
X103728611Y-69795417D01*
X103659453Y-69805361D01*
X103595897Y-69776336D01*
X103578724Y-69758109D01*
X103513312Y-69672863D01*
X103513306Y-69672856D01*
X103327143Y-69486693D01*
X103327136Y-69486687D01*
X103118256Y-69326409D01*
X102945500Y-69226668D01*
X102897284Y-69176101D01*
X102883500Y-69119281D01*
X102883500Y-67880718D01*
X102903185Y-67813679D01*
X102945499Y-67773331D01*
X103118257Y-67673590D01*
X103327138Y-67513311D01*
X103513311Y-67327138D01*
X103673590Y-67118257D01*
X103805234Y-66890243D01*
X103905990Y-66646997D01*
X103974134Y-66392680D01*
X104008500Y-66131644D01*
X104008500Y-65868356D01*
X103974134Y-65607320D01*
X103922503Y-65414630D01*
X103924166Y-65344784D01*
X103954595Y-65294861D01*
X113766885Y-55482571D01*
X113828206Y-55449088D01*
X113897898Y-55454072D01*
X113902002Y-55455687D01*
X113933536Y-55468749D01*
X114156198Y-55528411D01*
X114384742Y-55558500D01*
X114384749Y-55558500D01*
X114615251Y-55558500D01*
X114615258Y-55558500D01*
X114843802Y-55528411D01*
X115066464Y-55468749D01*
X115066476Y-55468743D01*
X115066479Y-55468743D01*
X115279423Y-55380539D01*
X115279421Y-55380539D01*
X115279433Y-55380535D01*
X115479066Y-55265276D01*
X115661947Y-55124947D01*
X115824947Y-54961947D01*
X115965276Y-54779066D01*
X116080535Y-54579433D01*
X116119648Y-54485006D01*
X116168743Y-54366479D01*
X116168743Y-54366476D01*
X116168749Y-54366464D01*
X116228411Y-54143802D01*
X116258500Y-53915258D01*
X116258500Y-53684742D01*
X116228411Y-53456198D01*
X116168749Y-53233536D01*
X116168744Y-53233525D01*
X116168743Y-53233520D01*
X116080539Y-53020576D01*
X116080534Y-53020566D01*
X116073543Y-53008457D01*
X115965276Y-52820934D01*
X115824947Y-52638053D01*
X115824942Y-52638047D01*
X115661952Y-52475057D01*
X115661945Y-52475051D01*
X115479074Y-52334730D01*
X115479072Y-52334729D01*
X115479066Y-52334724D01*
X115279433Y-52219465D01*
X115279423Y-52219460D01*
X115066479Y-52131256D01*
X115066466Y-52131252D01*
X115066467Y-52131252D01*
X115066464Y-52131251D01*
X114843802Y-52071589D01*
X114843801Y-52071588D01*
X114843798Y-52071588D01*
X114615265Y-52041500D01*
X114615258Y-52041500D01*
X114384742Y-52041500D01*
X114384734Y-52041500D01*
X114156201Y-52071588D01*
X114044867Y-52101420D01*
X113933536Y-52131251D01*
X113933534Y-52131251D01*
X113933533Y-52131252D01*
X113933520Y-52131256D01*
X113720576Y-52219460D01*
X113720566Y-52219465D01*
X113520934Y-52334724D01*
X113520925Y-52334730D01*
X113338054Y-52475051D01*
X113338047Y-52475057D01*
X113175057Y-52638047D01*
X113175051Y-52638054D01*
X113034730Y-52820925D01*
X113034724Y-52820934D01*
X112919465Y-53020566D01*
X112919460Y-53020576D01*
X112831256Y-53233520D01*
X112831252Y-53233533D01*
X112771588Y-53456201D01*
X112741500Y-53684734D01*
X112741500Y-53684742D01*
X112741500Y-53915258D01*
X112744327Y-53936732D01*
X112744429Y-53937507D01*
X112733661Y-54006542D01*
X112709170Y-54041370D01*
X102705139Y-64045401D01*
X102643816Y-64078886D01*
X102585365Y-64077495D01*
X102392678Y-64025865D01*
X102131653Y-63991501D01*
X102131650Y-63991500D01*
X102131644Y-63991500D01*
X101868356Y-63991500D01*
X101868350Y-63991500D01*
X101868346Y-63991501D01*
X101607321Y-64025865D01*
X101353004Y-64094009D01*
X101109765Y-64194761D01*
X101109749Y-64194769D01*
X100992800Y-64262290D01*
X100924899Y-64278763D01*
X100858873Y-64255910D01*
X100815682Y-64200989D01*
X100806800Y-64154903D01*
X100806800Y-62845096D01*
X100826485Y-62778057D01*
X100879289Y-62732302D01*
X100948447Y-62722358D01*
X100992800Y-62737709D01*
X101109749Y-62805230D01*
X101109765Y-62805238D01*
X101205992Y-62845096D01*
X101353003Y-62905990D01*
X101607320Y-62974134D01*
X101868356Y-63008500D01*
X101868363Y-63008500D01*
X102131637Y-63008500D01*
X102131644Y-63008500D01*
X102392680Y-62974134D01*
X102646997Y-62905990D01*
X102852362Y-62820925D01*
X102890234Y-62805238D01*
X102890237Y-62805236D01*
X102890243Y-62805234D01*
X103118257Y-62673590D01*
X103327138Y-62513311D01*
X103513311Y-62327138D01*
X103673590Y-62118257D01*
X103805234Y-61890243D01*
X103905990Y-61646997D01*
X103974134Y-61392680D01*
X104008500Y-61131644D01*
X104008500Y-60868356D01*
X103974134Y-60607320D01*
X103922503Y-60414630D01*
X103924166Y-60344784D01*
X103954595Y-60294861D01*
X106282059Y-57967399D01*
X106306258Y-57931181D01*
X106353687Y-57860201D01*
X106353687Y-57860200D01*
X106378748Y-57822694D01*
X106445348Y-57661907D01*
X106479300Y-57491217D01*
X106479300Y-53121519D01*
X106498985Y-53054480D01*
X106515614Y-53033843D01*
X110864722Y-48684734D01*
X112741500Y-48684734D01*
X112741500Y-48915265D01*
X112771588Y-49143798D01*
X112771589Y-49143802D01*
X112827260Y-49351571D01*
X112831252Y-49366466D01*
X112831256Y-49366479D01*
X112919460Y-49579423D01*
X112919465Y-49579433D01*
X113034724Y-49779066D01*
X113034729Y-49779072D01*
X113034730Y-49779074D01*
X113175051Y-49961945D01*
X113175057Y-49961952D01*
X113338047Y-50124942D01*
X113338054Y-50124948D01*
X113401446Y-50173590D01*
X113520934Y-50265276D01*
X113720567Y-50380535D01*
X113720572Y-50380537D01*
X113720576Y-50380539D01*
X113933520Y-50468743D01*
X113933525Y-50468744D01*
X113933536Y-50468749D01*
X114156198Y-50528411D01*
X114384742Y-50558500D01*
X114384749Y-50558500D01*
X114615251Y-50558500D01*
X114615258Y-50558500D01*
X114843802Y-50528411D01*
X115066464Y-50468749D01*
X115066476Y-50468743D01*
X115066479Y-50468743D01*
X115279423Y-50380539D01*
X115279421Y-50380539D01*
X115279433Y-50380535D01*
X115479066Y-50265276D01*
X115661947Y-50124947D01*
X115824947Y-49961947D01*
X115965276Y-49779066D01*
X116080535Y-49579433D01*
X116158897Y-49390250D01*
X116168743Y-49366479D01*
X116168743Y-49366476D01*
X116168749Y-49366464D01*
X116228411Y-49143802D01*
X116258500Y-48915258D01*
X116258500Y-48684742D01*
X116228411Y-48456198D01*
X116168749Y-48233536D01*
X116168744Y-48233525D01*
X116168743Y-48233520D01*
X116080539Y-48020576D01*
X116080534Y-48020566D01*
X116051575Y-47970408D01*
X115965276Y-47820934D01*
X115824947Y-47638053D01*
X115824942Y-47638047D01*
X115661952Y-47475057D01*
X115661945Y-47475051D01*
X115479074Y-47334730D01*
X115479072Y-47334729D01*
X115479066Y-47334724D01*
X115279433Y-47219465D01*
X115279423Y-47219460D01*
X115066479Y-47131256D01*
X115066466Y-47131252D01*
X115066467Y-47131252D01*
X115066464Y-47131251D01*
X114843802Y-47071589D01*
X114843801Y-47071588D01*
X114843798Y-47071588D01*
X114615265Y-47041500D01*
X114615258Y-47041500D01*
X114384742Y-47041500D01*
X114384734Y-47041500D01*
X114156201Y-47071588D01*
X114044867Y-47101420D01*
X113933536Y-47131251D01*
X113933534Y-47131251D01*
X113933533Y-47131252D01*
X113933520Y-47131256D01*
X113720576Y-47219460D01*
X113720566Y-47219465D01*
X113520934Y-47334724D01*
X113520925Y-47334730D01*
X113338054Y-47475051D01*
X113338047Y-47475057D01*
X113175057Y-47638047D01*
X113175051Y-47638054D01*
X113034730Y-47820925D01*
X113034724Y-47820934D01*
X112919465Y-48020566D01*
X112919460Y-48020576D01*
X112831256Y-48233520D01*
X112831252Y-48233533D01*
X112771588Y-48456201D01*
X112741500Y-48684734D01*
X110864722Y-48684734D01*
X113998986Y-45550470D01*
X114060307Y-45516987D01*
X114118757Y-45518378D01*
X114156198Y-45528411D01*
X114384742Y-45558500D01*
X114384749Y-45558500D01*
X114615251Y-45558500D01*
X114615258Y-45558500D01*
X114843802Y-45528411D01*
X115066464Y-45468749D01*
X115066476Y-45468743D01*
X115066479Y-45468743D01*
X115279423Y-45380539D01*
X115279421Y-45380539D01*
X115279433Y-45380535D01*
X115479066Y-45265276D01*
X115661947Y-45124947D01*
X115824947Y-44961947D01*
X115965276Y-44779066D01*
X116080535Y-44579433D01*
X116168749Y-44366464D01*
X116228411Y-44143802D01*
X116258500Y-43915258D01*
X116258500Y-43684742D01*
X116228411Y-43456198D01*
X116168749Y-43233536D01*
X116168744Y-43233525D01*
X116168743Y-43233520D01*
X116080539Y-43020576D01*
X116080534Y-43020566D01*
X115965276Y-42820934D01*
X115960716Y-42814991D01*
X115824948Y-42638054D01*
X115824942Y-42638047D01*
X115661952Y-42475057D01*
X115661945Y-42475051D01*
X115479074Y-42334730D01*
X115479072Y-42334729D01*
X115479066Y-42334724D01*
X115279433Y-42219465D01*
X115279423Y-42219460D01*
X115066479Y-42131256D01*
X115066466Y-42131252D01*
X115066467Y-42131252D01*
X115066464Y-42131251D01*
X114843802Y-42071589D01*
X114843801Y-42071588D01*
X114843798Y-42071588D01*
X114615265Y-42041500D01*
X114615258Y-42041500D01*
X114384742Y-42041500D01*
X114384734Y-42041500D01*
X114156201Y-42071588D01*
X114044867Y-42101420D01*
X113933536Y-42131251D01*
X113933534Y-42131251D01*
X113933533Y-42131252D01*
X113933520Y-42131256D01*
X113720576Y-42219460D01*
X113720566Y-42219465D01*
X113520934Y-42334724D01*
X113520925Y-42334730D01*
X113338054Y-42475051D01*
X113338047Y-42475057D01*
X113175057Y-42638047D01*
X113175051Y-42638054D01*
X113034730Y-42820925D01*
X113034724Y-42820934D01*
X112919465Y-43020566D01*
X112919460Y-43020576D01*
X112831256Y-43233520D01*
X112831252Y-43233533D01*
X112771588Y-43456201D01*
X112741500Y-43684734D01*
X112741500Y-43915265D01*
X112764902Y-44093014D01*
X112771588Y-44143798D01*
X112771589Y-44143800D01*
X112771591Y-44143812D01*
X112781620Y-44181240D01*
X112779957Y-44251090D01*
X112749526Y-44301014D01*
X104909543Y-52140997D01*
X104909540Y-52141001D01*
X104812850Y-52285707D01*
X104812849Y-52285709D01*
X104746253Y-52446488D01*
X104746250Y-52446500D01*
X104722919Y-52563795D01*
X104722919Y-52563796D01*
X104712300Y-52617180D01*
X104712300Y-56986879D01*
X104692615Y-57053918D01*
X104675981Y-57074560D01*
X102705139Y-59045401D01*
X102643816Y-59078886D01*
X102585365Y-59077495D01*
X102392678Y-59025865D01*
X102131653Y-58991501D01*
X102131650Y-58991500D01*
X102131644Y-58991500D01*
X101868356Y-58991500D01*
X101868350Y-58991500D01*
X101868346Y-58991501D01*
X101607321Y-59025865D01*
X101353004Y-59094009D01*
X101109765Y-59194761D01*
X101109749Y-59194769D01*
X100992800Y-59262290D01*
X100924899Y-59278763D01*
X100858873Y-59255910D01*
X100815682Y-59200989D01*
X100806800Y-59154903D01*
X100806800Y-55994019D01*
X100826485Y-55926980D01*
X100843115Y-55906342D01*
X101294861Y-55454595D01*
X101356182Y-55421112D01*
X101414630Y-55422502D01*
X101607320Y-55474134D01*
X101868356Y-55508500D01*
X101868363Y-55508500D01*
X102131637Y-55508500D01*
X102131644Y-55508500D01*
X102392680Y-55474134D01*
X102646997Y-55405990D01*
X102830099Y-55330146D01*
X102890234Y-55305238D01*
X102890237Y-55305236D01*
X102890243Y-55305234D01*
X103118257Y-55173590D01*
X103327138Y-55013311D01*
X103513311Y-54827138D01*
X103673590Y-54618257D01*
X103805234Y-54390243D01*
X103815078Y-54366479D01*
X103837640Y-54312009D01*
X103905990Y-54146997D01*
X103974134Y-53892680D01*
X104008500Y-53631644D01*
X104008500Y-53368356D01*
X103974134Y-53107320D01*
X103905990Y-52853003D01*
X103848824Y-52714993D01*
X103805238Y-52609765D01*
X103805230Y-52609749D01*
X103673590Y-52381743D01*
X103513312Y-52172863D01*
X103513306Y-52172856D01*
X103327143Y-51986693D01*
X103327136Y-51986687D01*
X103118256Y-51826409D01*
X102890250Y-51694769D01*
X102890234Y-51694761D01*
X102646995Y-51594009D01*
X102392678Y-51525865D01*
X102131653Y-51491501D01*
X102131650Y-51491500D01*
X102131644Y-51491500D01*
X101868356Y-51491500D01*
X101868350Y-51491500D01*
X101868346Y-51491501D01*
X101607321Y-51525865D01*
X101353004Y-51594009D01*
X101109765Y-51694761D01*
X101109749Y-51694769D01*
X100881743Y-51826409D01*
X100672863Y-51986687D01*
X100672856Y-51986693D01*
X100486693Y-52172856D01*
X100486687Y-52172863D01*
X100326409Y-52381743D01*
X100194769Y-52609749D01*
X100194761Y-52609765D01*
X100094009Y-52853004D01*
X100025865Y-53107321D01*
X99991501Y-53368346D01*
X99991500Y-53368362D01*
X99991500Y-53631637D01*
X99991501Y-53631653D01*
X100025865Y-53892678D01*
X100077495Y-54085365D01*
X100075832Y-54155215D01*
X100045401Y-54205139D01*
X99237181Y-55013360D01*
X99175858Y-55046845D01*
X99106167Y-55041861D01*
X99050233Y-54999989D01*
X99025816Y-54934525D01*
X99025500Y-54925679D01*
X99025500Y-48368362D01*
X99991500Y-48368362D01*
X99991500Y-48631637D01*
X99991501Y-48631653D01*
X100025865Y-48892678D01*
X100094009Y-49146995D01*
X100194761Y-49390234D01*
X100194769Y-49390250D01*
X100326409Y-49618256D01*
X100486687Y-49827136D01*
X100486693Y-49827143D01*
X100672856Y-50013306D01*
X100672863Y-50013312D01*
X100881743Y-50173590D01*
X101109749Y-50305230D01*
X101109765Y-50305238D01*
X101261451Y-50368068D01*
X101353003Y-50405990D01*
X101607320Y-50474134D01*
X101868356Y-50508500D01*
X101868363Y-50508500D01*
X102131637Y-50508500D01*
X102131644Y-50508500D01*
X102392680Y-50474134D01*
X102646997Y-50405990D01*
X102830099Y-50330146D01*
X102890234Y-50305238D01*
X102890237Y-50305236D01*
X102890243Y-50305234D01*
X103118257Y-50173590D01*
X103327138Y-50013311D01*
X103513311Y-49827138D01*
X103673590Y-49618257D01*
X103805234Y-49390243D01*
X103815078Y-49366479D01*
X103881579Y-49205930D01*
X103905990Y-49146997D01*
X103974134Y-48892680D01*
X104008500Y-48631644D01*
X104008500Y-48368356D01*
X103974134Y-48107320D01*
X103905990Y-47853003D01*
X103868068Y-47761451D01*
X103805238Y-47609765D01*
X103805230Y-47609749D01*
X103673590Y-47381743D01*
X103513312Y-47172863D01*
X103513306Y-47172856D01*
X103327143Y-46986693D01*
X103327136Y-46986687D01*
X103118256Y-46826409D01*
X102890250Y-46694769D01*
X102890234Y-46694761D01*
X102646995Y-46594009D01*
X102392678Y-46525865D01*
X102131653Y-46491501D01*
X102131650Y-46491500D01*
X102131644Y-46491500D01*
X101868356Y-46491500D01*
X101868350Y-46491500D01*
X101868346Y-46491501D01*
X101607321Y-46525865D01*
X101353004Y-46594009D01*
X101109765Y-46694761D01*
X101109749Y-46694769D01*
X100881743Y-46826409D01*
X100672863Y-46986687D01*
X100672856Y-46986693D01*
X100486693Y-47172856D01*
X100486687Y-47172863D01*
X100326409Y-47381743D01*
X100194769Y-47609749D01*
X100194761Y-47609765D01*
X100094009Y-47853004D01*
X100025865Y-48107321D01*
X99991501Y-48368346D01*
X99991500Y-48368362D01*
X99025500Y-48368362D01*
X99025500Y-39818234D01*
X99300000Y-39818234D01*
X99300000Y-40181765D01*
X99335632Y-40543556D01*
X99406550Y-40900090D01*
X99406553Y-40900101D01*
X99512086Y-41247997D01*
X99651207Y-41583864D01*
X99651209Y-41583869D01*
X99822570Y-41904462D01*
X99822581Y-41904480D01*
X100024551Y-42206750D01*
X100211678Y-42434765D01*
X100211679Y-42434766D01*
X101705747Y-40940697D01*
X101779588Y-41042330D01*
X101957670Y-41220412D01*
X102059301Y-41294251D01*
X100565232Y-42788319D01*
X100565233Y-42788320D01*
X100793249Y-42975448D01*
X101095519Y-43177418D01*
X101095537Y-43177429D01*
X101416130Y-43348790D01*
X101416135Y-43348792D01*
X101752002Y-43487913D01*
X102099898Y-43593446D01*
X102099909Y-43593449D01*
X102456443Y-43664367D01*
X102818234Y-43700000D01*
X103181766Y-43700000D01*
X103543556Y-43664367D01*
X103900090Y-43593449D01*
X103900101Y-43593446D01*
X104247997Y-43487913D01*
X104583864Y-43348792D01*
X104583869Y-43348790D01*
X104904462Y-43177429D01*
X104904480Y-43177418D01*
X105206736Y-42975457D01*
X105206750Y-42975447D01*
X105434765Y-42788320D01*
X105434766Y-42788319D01*
X103940698Y-41294251D01*
X104042330Y-41220412D01*
X104220412Y-41042330D01*
X104294251Y-40940698D01*
X105788319Y-42434766D01*
X105788320Y-42434765D01*
X105975447Y-42206750D01*
X105975457Y-42206736D01*
X106177418Y-41904480D01*
X106177429Y-41904462D01*
X106348790Y-41583869D01*
X106348792Y-41583864D01*
X106487913Y-41247997D01*
X106593446Y-40900101D01*
X106593449Y-40900090D01*
X106664367Y-40543556D01*
X106700000Y-40181765D01*
X106700000Y-39818234D01*
X157200000Y-39818234D01*
X157200000Y-40181765D01*
X157235632Y-40543556D01*
X157306550Y-40900090D01*
X157306553Y-40900101D01*
X157412086Y-41247997D01*
X157551207Y-41583864D01*
X157551209Y-41583869D01*
X157722570Y-41904462D01*
X157722581Y-41904480D01*
X157924551Y-42206750D01*
X158111678Y-42434765D01*
X158111679Y-42434766D01*
X159605747Y-40940697D01*
X159679588Y-41042330D01*
X159857670Y-41220412D01*
X159959301Y-41294251D01*
X158465232Y-42788319D01*
X158465233Y-42788320D01*
X158693249Y-42975448D01*
X158995519Y-43177418D01*
X158995537Y-43177429D01*
X159316130Y-43348790D01*
X159316135Y-43348792D01*
X159652002Y-43487913D01*
X159999898Y-43593446D01*
X159999909Y-43593449D01*
X160356443Y-43664367D01*
X160718234Y-43700000D01*
X161081766Y-43700000D01*
X161443556Y-43664367D01*
X161800090Y-43593449D01*
X161800101Y-43593446D01*
X162147997Y-43487913D01*
X162483864Y-43348792D01*
X162483869Y-43348790D01*
X162804462Y-43177429D01*
X162804480Y-43177418D01*
X163106736Y-42975457D01*
X163106750Y-42975447D01*
X163334765Y-42788320D01*
X163334766Y-42788319D01*
X161840698Y-41294251D01*
X161942330Y-41220412D01*
X162120412Y-41042330D01*
X162194251Y-40940698D01*
X163688319Y-42434766D01*
X163688320Y-42434765D01*
X163875447Y-42206750D01*
X163875457Y-42206736D01*
X164077418Y-41904480D01*
X164077429Y-41904462D01*
X164248790Y-41583869D01*
X164248792Y-41583864D01*
X164387913Y-41247997D01*
X164493446Y-40900101D01*
X164493449Y-40900090D01*
X164564367Y-40543556D01*
X164600000Y-40181765D01*
X164600000Y-39818234D01*
X164564367Y-39456443D01*
X164493449Y-39099909D01*
X164493446Y-39099898D01*
X164387913Y-38752002D01*
X164248792Y-38416135D01*
X164248790Y-38416130D01*
X164077429Y-38095537D01*
X164077418Y-38095519D01*
X163875448Y-37793249D01*
X163688320Y-37565233D01*
X163688319Y-37565232D01*
X162194251Y-39059300D01*
X162120412Y-38957670D01*
X161942330Y-38779588D01*
X161840698Y-38705748D01*
X163334766Y-37211679D01*
X163334765Y-37211678D01*
X163106750Y-37024551D01*
X162804480Y-36822581D01*
X162804462Y-36822570D01*
X162483869Y-36651209D01*
X162483864Y-36651207D01*
X162147997Y-36512086D01*
X161800101Y-36406553D01*
X161800090Y-36406550D01*
X161443556Y-36335632D01*
X161081766Y-36300000D01*
X160718234Y-36300000D01*
X160356443Y-36335632D01*
X159999909Y-36406550D01*
X159999898Y-36406553D01*
X159652002Y-36512086D01*
X159316135Y-36651207D01*
X159316130Y-36651209D01*
X158995537Y-36822570D01*
X158995519Y-36822581D01*
X158693258Y-37024545D01*
X158693254Y-37024548D01*
X158465233Y-37211679D01*
X158465233Y-37211680D01*
X159959301Y-38705748D01*
X159857670Y-38779588D01*
X159679588Y-38957670D01*
X159605748Y-39059301D01*
X158111680Y-37565233D01*
X158111679Y-37565233D01*
X157924548Y-37793254D01*
X157924545Y-37793258D01*
X157722581Y-38095519D01*
X157722570Y-38095537D01*
X157551209Y-38416130D01*
X157551207Y-38416135D01*
X157412086Y-38752002D01*
X157306553Y-39099898D01*
X157306550Y-39099909D01*
X157235632Y-39456443D01*
X157200000Y-39818234D01*
X106700000Y-39818234D01*
X106664367Y-39456443D01*
X106593449Y-39099909D01*
X106593446Y-39099898D01*
X106487913Y-38752002D01*
X106348792Y-38416135D01*
X106348790Y-38416130D01*
X106177429Y-38095537D01*
X106177418Y-38095519D01*
X105975448Y-37793249D01*
X105788320Y-37565233D01*
X105788319Y-37565232D01*
X104294251Y-39059300D01*
X104220412Y-38957670D01*
X104042330Y-38779588D01*
X103940698Y-38705748D01*
X105434766Y-37211679D01*
X105434765Y-37211678D01*
X105206750Y-37024551D01*
X104904480Y-36822581D01*
X104904462Y-36822570D01*
X104583869Y-36651209D01*
X104583864Y-36651207D01*
X104247997Y-36512086D01*
X103900101Y-36406553D01*
X103900090Y-36406550D01*
X103543556Y-36335632D01*
X103181766Y-36300000D01*
X102818234Y-36300000D01*
X102456443Y-36335632D01*
X102099909Y-36406550D01*
X102099898Y-36406553D01*
X101752002Y-36512086D01*
X101416135Y-36651207D01*
X101416130Y-36651209D01*
X101095537Y-36822570D01*
X101095519Y-36822581D01*
X100793258Y-37024545D01*
X100793254Y-37024548D01*
X100565233Y-37211679D01*
X100565233Y-37211680D01*
X102059301Y-38705748D01*
X101957670Y-38779588D01*
X101779588Y-38957670D01*
X101705748Y-39059301D01*
X100211680Y-37565233D01*
X100211679Y-37565233D01*
X100024548Y-37793254D01*
X100024545Y-37793258D01*
X99822581Y-38095519D01*
X99822570Y-38095537D01*
X99651209Y-38416130D01*
X99651207Y-38416135D01*
X99512086Y-38752002D01*
X99406553Y-39099898D01*
X99406550Y-39099909D01*
X99335632Y-39456443D01*
X99300000Y-39818234D01*
X99025500Y-39818234D01*
X99025500Y-38004066D01*
X99025765Y-37995956D01*
X99039050Y-37793258D01*
X99041861Y-37750365D01*
X99043976Y-37734311D01*
X99091193Y-37496933D01*
X99095391Y-37481268D01*
X99140790Y-37347527D01*
X99173189Y-37252080D01*
X99179384Y-37237122D01*
X99286441Y-37020033D01*
X99294544Y-37005998D01*
X99429016Y-36804746D01*
X99438873Y-36791900D01*
X99598464Y-36609922D01*
X99609922Y-36598464D01*
X99791900Y-36438873D01*
X99804746Y-36429016D01*
X100005998Y-36294544D01*
X100020033Y-36286441D01*
X100237114Y-36179388D01*
X100252080Y-36173189D01*
X100415302Y-36117783D01*
X100481268Y-36095391D01*
X100496935Y-36091193D01*
X100734311Y-36043976D01*
X100750367Y-36041861D01*
X100975757Y-36027088D01*
X100995958Y-36025765D01*
X101004067Y-36025500D01*
X101008285Y-36025500D01*
X162991715Y-36025500D01*
X162995933Y-36025500D01*
X163004043Y-36025765D01*
G37*
G04 #@! TD.AperFunction*
M02*
