M48
; DRILL file {KiCad 7.0.9} date 
; FORMAT={-:-/ absolute / inch / decimal}
; #@! TF.CreationDate,2024-01-28T19:38:42+01:00
; #@! TF.GenerationSoftware,Kicad,Pcbnew,7.0.9
; #@! TF.FileFunction,Plated,1,2,PTH
FMAT,2
INCH
; #@! TA.AperFunction,Plated,PTH,ComponentDrill
T1C0.0295
; #@! TA.AperFunction,Plated,PTH,ComponentDrill
T2C0.0300
; #@! TA.AperFunction,Plated,PTH,ComponentDrill
T3C0.0315
; #@! TA.AperFunction,Plated,PTH,ComponentDrill
T4C0.0374
; #@! TA.AperFunction,Plated,PTH,ComponentDrill
T5C0.0394
; #@! TA.AperFunction,Plated,PTH,ComponentDrill
T6C0.0433
; #@! TA.AperFunction,Plated,PTH,ComponentDrill
T7C0.0472
; #@! TA.AperFunction,Plated,PTH,ComponentDrill
T8C0.0551
; #@! TA.AperFunction,Plated,PTH,ComponentDrill
T9C0.0591
; #@! TA.AperFunction,Plated,PTH,ComponentDrill
T10C0.1260
%
G90
G05
T1
X7.35Y-1.925
X7.35Y-1.975
X7.35Y-2.025
T2
X6.45Y-2.8
X6.45Y-2.9
X6.45Y-3.0
X6.45Y-3.1
X6.45Y-3.2
X6.45Y-3.3
X6.45Y-3.4
X6.45Y-3.5
X6.45Y-3.6
X6.45Y-3.7
X6.45Y-3.8
X6.45Y-3.9
X6.45Y-4.0
X6.45Y-4.1
X6.45Y-4.2
X6.45Y-4.3
X6.45Y-4.4
X6.45Y-4.5
X6.45Y-4.6
X7.45Y-2.8
X7.45Y-2.9
X7.45Y-3.0
X7.45Y-3.1
X7.45Y-3.2
X7.45Y-3.3
X7.45Y-3.4
X7.45Y-3.5
X7.45Y-3.6
X7.45Y-3.7
X7.45Y-3.8
X7.45Y-3.9
X7.45Y-4.0
X7.45Y-4.1
X7.45Y-4.2
X7.45Y-4.3
X7.45Y-4.4
X7.45Y-4.5
X7.45Y-4.6
T3
X4.525Y-4.85
X4.925Y-4.85
X5.1Y-3.4031
X5.1Y-3.6
X5.675Y-4.1531
X5.675Y-4.35
X6.1583Y-2.5571
X6.1583Y-2.6571
X6.16Y-1.785
X6.16Y-1.885
X6.16Y-1.985
X6.16Y-2.085
X6.16Y-2.4571
X6.175Y-3.125
X6.175Y-3.2746
X6.2Y-3.45
X6.2Y-3.6469
X6.2Y-4.15
X6.2Y-4.3469
X6.425Y-1.6
X6.425Y-1.7
X6.425Y-1.8
X6.425Y-1.9
X6.425Y-2.0
X6.425Y-2.1
X6.425Y-2.2
X6.425Y-2.3
X6.425Y-2.4
X6.425Y-2.5
X6.725Y-1.6
X6.725Y-1.7
X6.725Y-1.8
X6.725Y-1.9
X6.725Y-2.0
X6.725Y-2.1
X6.725Y-2.2
X6.725Y-2.3
X6.725Y-2.4
X6.725Y-2.5
X6.9Y-1.75
X6.9Y-2.15
X6.9Y-2.25
X6.9Y-2.65
X7.1Y-1.75
X7.1Y-2.15
X7.1Y-2.25
X7.1Y-2.65
X7.55Y-1.9
X7.55Y-2.3
T4
X4.975Y-5.05
X5.0734Y-5.05
X5.1719Y-5.05
X5.45Y-5.05
X5.5484Y-5.05
X5.6469Y-5.05
X5.7453Y-5.05
X6.025Y-5.05
X6.1234Y-5.05
X6.2219Y-5.05
X6.3203Y-5.05
T5
X6.9Y-1.6
X7.1Y-1.6
T6
X4.5992Y-1.7329
X4.5992Y-1.9297
X4.5992Y-2.1266
X4.5992Y-2.3234
X4.5992Y-2.5203
X4.5992Y-2.7171
X5.85Y-3.5
X5.85Y-3.6
X5.85Y-3.7
X5.95Y-4.15
X5.95Y-4.25
X5.95Y-4.35
T7
X4.65Y-3.8
X4.65Y-3.9969
X5.225Y-4.575
X5.4219Y-4.575
T8
X4.4Y-3.25
X4.4Y-3.5
X4.4Y-4.4
X4.4Y-4.6
X4.9Y-3.25
X4.9Y-3.5
X4.9Y-4.4
X4.9Y-4.6
T9
X4.05Y-1.95
X4.05Y-2.2
X4.05Y-2.45
X4.05Y-2.7
X4.05Y-2.95
X4.05Y-3.2
X4.05Y-3.5
X4.05Y-3.75
X4.05Y-4.0
X4.05Y-4.25
X4.05Y-4.55
X4.05Y-4.8
T10
X4.0591Y-1.6102
X4.063Y-5.1378
X7.4882Y-1.6102
X7.4882Y-5.1378
T0
M30
