G04 #@! TF.GenerationSoftware,KiCad,Pcbnew,9.0.1*
G04 #@! TF.CreationDate,2025-05-11T23:34:49+02:00*
G04 #@! TF.ProjectId,Labor Netzteil,4c61626f-7220-44e6-9574-7a7465696c2e,rev?*
G04 #@! TF.SameCoordinates,Original*
G04 #@! TF.FileFunction,Legend,Top*
G04 #@! TF.FilePolarity,Positive*
%FSLAX46Y46*%
G04 Gerber Fmt 4.6, Leading zero omitted, Abs format (unit mm)*
G04 Created by KiCad (PCBNEW 9.0.1) date 2025-05-11 23:34:49*
%MOMM*%
%LPD*%
G01*
G04 APERTURE LIST*
%ADD10C,0.150000*%
%ADD11C,0.108000*%
%ADD12C,0.120000*%
%ADD13C,0.500000*%
%ADD14C,1.000000*%
G04 APERTURE END LIST*
D10*
X149669819Y-126463220D02*
X148669819Y-126463220D01*
X148669819Y-126463220D02*
X148669819Y-126225125D01*
X148669819Y-126225125D02*
X148717438Y-126082268D01*
X148717438Y-126082268D02*
X148812676Y-125987030D01*
X148812676Y-125987030D02*
X148907914Y-125939411D01*
X148907914Y-125939411D02*
X149098390Y-125891792D01*
X149098390Y-125891792D02*
X149241247Y-125891792D01*
X149241247Y-125891792D02*
X149431723Y-125939411D01*
X149431723Y-125939411D02*
X149526961Y-125987030D01*
X149526961Y-125987030D02*
X149622200Y-126082268D01*
X149622200Y-126082268D02*
X149669819Y-126225125D01*
X149669819Y-126225125D02*
X149669819Y-126463220D01*
X148669819Y-125272744D02*
X148669819Y-125082268D01*
X148669819Y-125082268D02*
X148717438Y-124987030D01*
X148717438Y-124987030D02*
X148812676Y-124891792D01*
X148812676Y-124891792D02*
X149003152Y-124844173D01*
X149003152Y-124844173D02*
X149336485Y-124844173D01*
X149336485Y-124844173D02*
X149526961Y-124891792D01*
X149526961Y-124891792D02*
X149622200Y-124987030D01*
X149622200Y-124987030D02*
X149669819Y-125082268D01*
X149669819Y-125082268D02*
X149669819Y-125272744D01*
X149669819Y-125272744D02*
X149622200Y-125367982D01*
X149622200Y-125367982D02*
X149526961Y-125463220D01*
X149526961Y-125463220D02*
X149336485Y-125510839D01*
X149336485Y-125510839D02*
X149003152Y-125510839D01*
X149003152Y-125510839D02*
X148812676Y-125463220D01*
X148812676Y-125463220D02*
X148717438Y-125367982D01*
X148717438Y-125367982D02*
X148669819Y-125272744D01*
X148669819Y-124415601D02*
X149479342Y-124415601D01*
X149479342Y-124415601D02*
X149574580Y-124367982D01*
X149574580Y-124367982D02*
X149622200Y-124320363D01*
X149622200Y-124320363D02*
X149669819Y-124225125D01*
X149669819Y-124225125D02*
X149669819Y-124034649D01*
X149669819Y-124034649D02*
X149622200Y-123939411D01*
X149622200Y-123939411D02*
X149574580Y-123891792D01*
X149574580Y-123891792D02*
X149479342Y-123844173D01*
X149479342Y-123844173D02*
X148669819Y-123844173D01*
X148669819Y-123510839D02*
X148669819Y-122939411D01*
X149669819Y-123225125D02*
X148669819Y-123225125D01*
X151446009Y-126029887D02*
X151493628Y-125887030D01*
X151493628Y-125887030D02*
X151541247Y-125839411D01*
X151541247Y-125839411D02*
X151636485Y-125791792D01*
X151636485Y-125791792D02*
X151779342Y-125791792D01*
X151779342Y-125791792D02*
X151874580Y-125839411D01*
X151874580Y-125839411D02*
X151922200Y-125887030D01*
X151922200Y-125887030D02*
X151969819Y-125982268D01*
X151969819Y-125982268D02*
X151969819Y-126363220D01*
X151969819Y-126363220D02*
X150969819Y-126363220D01*
X150969819Y-126363220D02*
X150969819Y-126029887D01*
X150969819Y-126029887D02*
X151017438Y-125934649D01*
X151017438Y-125934649D02*
X151065057Y-125887030D01*
X151065057Y-125887030D02*
X151160295Y-125839411D01*
X151160295Y-125839411D02*
X151255533Y-125839411D01*
X151255533Y-125839411D02*
X151350771Y-125887030D01*
X151350771Y-125887030D02*
X151398390Y-125934649D01*
X151398390Y-125934649D02*
X151446009Y-126029887D01*
X151446009Y-126029887D02*
X151446009Y-126363220D01*
X151874580Y-124791792D02*
X151922200Y-124839411D01*
X151922200Y-124839411D02*
X151969819Y-124982268D01*
X151969819Y-124982268D02*
X151969819Y-125077506D01*
X151969819Y-125077506D02*
X151922200Y-125220363D01*
X151922200Y-125220363D02*
X151826961Y-125315601D01*
X151826961Y-125315601D02*
X151731723Y-125363220D01*
X151731723Y-125363220D02*
X151541247Y-125410839D01*
X151541247Y-125410839D02*
X151398390Y-125410839D01*
X151398390Y-125410839D02*
X151207914Y-125363220D01*
X151207914Y-125363220D02*
X151112676Y-125315601D01*
X151112676Y-125315601D02*
X151017438Y-125220363D01*
X151017438Y-125220363D02*
X150969819Y-125077506D01*
X150969819Y-125077506D02*
X150969819Y-124982268D01*
X150969819Y-124982268D02*
X151017438Y-124839411D01*
X151017438Y-124839411D02*
X151065057Y-124791792D01*
X151969819Y-123887030D02*
X151969819Y-124363220D01*
X151969819Y-124363220D02*
X150969819Y-124363220D01*
X151969819Y-123553696D02*
X150969819Y-123553696D01*
X151969819Y-122982268D02*
X151398390Y-123410839D01*
X150969819Y-122982268D02*
X151541247Y-123553696D01*
X154469819Y-124887030D02*
X154469819Y-125363220D01*
X154469819Y-125363220D02*
X153469819Y-125363220D01*
X154469819Y-123982268D02*
X153993628Y-124315601D01*
X154469819Y-124553696D02*
X153469819Y-124553696D01*
X153469819Y-124553696D02*
X153469819Y-124172744D01*
X153469819Y-124172744D02*
X153517438Y-124077506D01*
X153517438Y-124077506D02*
X153565057Y-124029887D01*
X153565057Y-124029887D02*
X153660295Y-123982268D01*
X153660295Y-123982268D02*
X153803152Y-123982268D01*
X153803152Y-123982268D02*
X153898390Y-124029887D01*
X153898390Y-124029887D02*
X153946009Y-124077506D01*
X153946009Y-124077506D02*
X153993628Y-124172744D01*
X153993628Y-124172744D02*
X153993628Y-124553696D01*
X154374580Y-122982268D02*
X154422200Y-123029887D01*
X154422200Y-123029887D02*
X154469819Y-123172744D01*
X154469819Y-123172744D02*
X154469819Y-123267982D01*
X154469819Y-123267982D02*
X154422200Y-123410839D01*
X154422200Y-123410839D02*
X154326961Y-123506077D01*
X154326961Y-123506077D02*
X154231723Y-123553696D01*
X154231723Y-123553696D02*
X154041247Y-123601315D01*
X154041247Y-123601315D02*
X153898390Y-123601315D01*
X153898390Y-123601315D02*
X153707914Y-123553696D01*
X153707914Y-123553696D02*
X153612676Y-123506077D01*
X153612676Y-123506077D02*
X153517438Y-123410839D01*
X153517438Y-123410839D02*
X153469819Y-123267982D01*
X153469819Y-123267982D02*
X153469819Y-123172744D01*
X153469819Y-123172744D02*
X153517438Y-123029887D01*
X153517438Y-123029887D02*
X153565057Y-122982268D01*
X140817438Y-124939411D02*
X140769819Y-125034649D01*
X140769819Y-125034649D02*
X140769819Y-125177506D01*
X140769819Y-125177506D02*
X140817438Y-125320363D01*
X140817438Y-125320363D02*
X140912676Y-125415601D01*
X140912676Y-125415601D02*
X141007914Y-125463220D01*
X141007914Y-125463220D02*
X141198390Y-125510839D01*
X141198390Y-125510839D02*
X141341247Y-125510839D01*
X141341247Y-125510839D02*
X141531723Y-125463220D01*
X141531723Y-125463220D02*
X141626961Y-125415601D01*
X141626961Y-125415601D02*
X141722200Y-125320363D01*
X141722200Y-125320363D02*
X141769819Y-125177506D01*
X141769819Y-125177506D02*
X141769819Y-125082268D01*
X141769819Y-125082268D02*
X141722200Y-124939411D01*
X141722200Y-124939411D02*
X141674580Y-124891792D01*
X141674580Y-124891792D02*
X141341247Y-124891792D01*
X141341247Y-124891792D02*
X141341247Y-125082268D01*
X141769819Y-124463220D02*
X140769819Y-124463220D01*
X140769819Y-124463220D02*
X141769819Y-123891792D01*
X141769819Y-123891792D02*
X140769819Y-123891792D01*
X141769819Y-123415601D02*
X140769819Y-123415601D01*
X140769819Y-123415601D02*
X140769819Y-123177506D01*
X140769819Y-123177506D02*
X140817438Y-123034649D01*
X140817438Y-123034649D02*
X140912676Y-122939411D01*
X140912676Y-122939411D02*
X141007914Y-122891792D01*
X141007914Y-122891792D02*
X141198390Y-122844173D01*
X141198390Y-122844173D02*
X141341247Y-122844173D01*
X141341247Y-122844173D02*
X141531723Y-122891792D01*
X141531723Y-122891792D02*
X141626961Y-122939411D01*
X141626961Y-122939411D02*
X141722200Y-123034649D01*
X141722200Y-123034649D02*
X141769819Y-123177506D01*
X141769819Y-123177506D02*
X141769819Y-123415601D01*
X138169819Y-125858458D02*
X138169819Y-125239411D01*
X138169819Y-125239411D02*
X138550771Y-125572744D01*
X138550771Y-125572744D02*
X138550771Y-125429887D01*
X138550771Y-125429887D02*
X138598390Y-125334649D01*
X138598390Y-125334649D02*
X138646009Y-125287030D01*
X138646009Y-125287030D02*
X138741247Y-125239411D01*
X138741247Y-125239411D02*
X138979342Y-125239411D01*
X138979342Y-125239411D02*
X139074580Y-125287030D01*
X139074580Y-125287030D02*
X139122200Y-125334649D01*
X139122200Y-125334649D02*
X139169819Y-125429887D01*
X139169819Y-125429887D02*
X139169819Y-125715601D01*
X139169819Y-125715601D02*
X139122200Y-125810839D01*
X139122200Y-125810839D02*
X139074580Y-125858458D01*
X139074580Y-124810839D02*
X139122200Y-124763220D01*
X139122200Y-124763220D02*
X139169819Y-124810839D01*
X139169819Y-124810839D02*
X139122200Y-124858458D01*
X139122200Y-124858458D02*
X139074580Y-124810839D01*
X139074580Y-124810839D02*
X139169819Y-124810839D01*
X138169819Y-124429887D02*
X138169819Y-123810840D01*
X138169819Y-123810840D02*
X138550771Y-124144173D01*
X138550771Y-124144173D02*
X138550771Y-124001316D01*
X138550771Y-124001316D02*
X138598390Y-123906078D01*
X138598390Y-123906078D02*
X138646009Y-123858459D01*
X138646009Y-123858459D02*
X138741247Y-123810840D01*
X138741247Y-123810840D02*
X138979342Y-123810840D01*
X138979342Y-123810840D02*
X139074580Y-123858459D01*
X139074580Y-123858459D02*
X139122200Y-123906078D01*
X139122200Y-123906078D02*
X139169819Y-124001316D01*
X139169819Y-124001316D02*
X139169819Y-124287030D01*
X139169819Y-124287030D02*
X139122200Y-124382268D01*
X139122200Y-124382268D02*
X139074580Y-124429887D01*
X138169819Y-123525125D02*
X139169819Y-123191792D01*
X139169819Y-123191792D02*
X138169819Y-122858459D01*
X104290476Y-47954819D02*
X104290476Y-48669104D01*
X104290476Y-48669104D02*
X104242857Y-48811961D01*
X104242857Y-48811961D02*
X104147619Y-48907200D01*
X104147619Y-48907200D02*
X104004762Y-48954819D01*
X104004762Y-48954819D02*
X103909524Y-48954819D01*
X105290476Y-48954819D02*
X104719048Y-48954819D01*
X105004762Y-48954819D02*
X105004762Y-47954819D01*
X105004762Y-47954819D02*
X104909524Y-48097676D01*
X104909524Y-48097676D02*
X104814286Y-48192914D01*
X104814286Y-48192914D02*
X104719048Y-48240533D01*
X106195238Y-47954819D02*
X105719048Y-47954819D01*
X105719048Y-47954819D02*
X105671429Y-48431009D01*
X105671429Y-48431009D02*
X105719048Y-48383390D01*
X105719048Y-48383390D02*
X105814286Y-48335771D01*
X105814286Y-48335771D02*
X106052381Y-48335771D01*
X106052381Y-48335771D02*
X106147619Y-48383390D01*
X106147619Y-48383390D02*
X106195238Y-48431009D01*
X106195238Y-48431009D02*
X106242857Y-48526247D01*
X106242857Y-48526247D02*
X106242857Y-48764342D01*
X106242857Y-48764342D02*
X106195238Y-48859580D01*
X106195238Y-48859580D02*
X106147619Y-48907200D01*
X106147619Y-48907200D02*
X106052381Y-48954819D01*
X106052381Y-48954819D02*
X105814286Y-48954819D01*
X105814286Y-48954819D02*
X105719048Y-48907200D01*
X105719048Y-48907200D02*
X105671429Y-48859580D01*
X104390476Y-52954819D02*
X104390476Y-53669104D01*
X104390476Y-53669104D02*
X104342857Y-53811961D01*
X104342857Y-53811961D02*
X104247619Y-53907200D01*
X104247619Y-53907200D02*
X104104762Y-53954819D01*
X104104762Y-53954819D02*
X104009524Y-53954819D01*
X105390476Y-53954819D02*
X104819048Y-53954819D01*
X105104762Y-53954819D02*
X105104762Y-52954819D01*
X105104762Y-52954819D02*
X105009524Y-53097676D01*
X105009524Y-53097676D02*
X104914286Y-53192914D01*
X104914286Y-53192914D02*
X104819048Y-53240533D01*
X106247619Y-52954819D02*
X106057143Y-52954819D01*
X106057143Y-52954819D02*
X105961905Y-53002438D01*
X105961905Y-53002438D02*
X105914286Y-53050057D01*
X105914286Y-53050057D02*
X105819048Y-53192914D01*
X105819048Y-53192914D02*
X105771429Y-53383390D01*
X105771429Y-53383390D02*
X105771429Y-53764342D01*
X105771429Y-53764342D02*
X105819048Y-53859580D01*
X105819048Y-53859580D02*
X105866667Y-53907200D01*
X105866667Y-53907200D02*
X105961905Y-53954819D01*
X105961905Y-53954819D02*
X106152381Y-53954819D01*
X106152381Y-53954819D02*
X106247619Y-53907200D01*
X106247619Y-53907200D02*
X106295238Y-53859580D01*
X106295238Y-53859580D02*
X106342857Y-53764342D01*
X106342857Y-53764342D02*
X106342857Y-53526247D01*
X106342857Y-53526247D02*
X106295238Y-53431009D01*
X106295238Y-53431009D02*
X106247619Y-53383390D01*
X106247619Y-53383390D02*
X106152381Y-53335771D01*
X106152381Y-53335771D02*
X105961905Y-53335771D01*
X105961905Y-53335771D02*
X105866667Y-53383390D01*
X105866667Y-53383390D02*
X105819048Y-53431009D01*
X105819048Y-53431009D02*
X105771429Y-53526247D01*
X104366666Y-60454819D02*
X104366666Y-61169104D01*
X104366666Y-61169104D02*
X104319047Y-61311961D01*
X104319047Y-61311961D02*
X104223809Y-61407200D01*
X104223809Y-61407200D02*
X104080952Y-61454819D01*
X104080952Y-61454819D02*
X103985714Y-61454819D01*
X104747619Y-60454819D02*
X105414285Y-60454819D01*
X105414285Y-60454819D02*
X104985714Y-61454819D01*
X104390476Y-82954819D02*
X104390476Y-83669104D01*
X104390476Y-83669104D02*
X104342857Y-83811961D01*
X104342857Y-83811961D02*
X104247619Y-83907200D01*
X104247619Y-83907200D02*
X104104762Y-83954819D01*
X104104762Y-83954819D02*
X104009524Y-83954819D01*
X105390476Y-83954819D02*
X104819048Y-83954819D01*
X105104762Y-83954819D02*
X105104762Y-82954819D01*
X105104762Y-82954819D02*
X105009524Y-83097676D01*
X105009524Y-83097676D02*
X104914286Y-83192914D01*
X104914286Y-83192914D02*
X104819048Y-83240533D01*
X106342857Y-83954819D02*
X105771429Y-83954819D01*
X106057143Y-83954819D02*
X106057143Y-82954819D01*
X106057143Y-82954819D02*
X105961905Y-83097676D01*
X105961905Y-83097676D02*
X105866667Y-83192914D01*
X105866667Y-83192914D02*
X105771429Y-83240533D01*
X104390476Y-87954819D02*
X104390476Y-88669104D01*
X104390476Y-88669104D02*
X104342857Y-88811961D01*
X104342857Y-88811961D02*
X104247619Y-88907200D01*
X104247619Y-88907200D02*
X104104762Y-88954819D01*
X104104762Y-88954819D02*
X104009524Y-88954819D01*
X105390476Y-88954819D02*
X104819048Y-88954819D01*
X105104762Y-88954819D02*
X105104762Y-87954819D01*
X105104762Y-87954819D02*
X105009524Y-88097676D01*
X105009524Y-88097676D02*
X104914286Y-88192914D01*
X104914286Y-88192914D02*
X104819048Y-88240533D01*
X105771429Y-88050057D02*
X105819048Y-88002438D01*
X105819048Y-88002438D02*
X105914286Y-87954819D01*
X105914286Y-87954819D02*
X106152381Y-87954819D01*
X106152381Y-87954819D02*
X106247619Y-88002438D01*
X106247619Y-88002438D02*
X106295238Y-88050057D01*
X106295238Y-88050057D02*
X106342857Y-88145295D01*
X106342857Y-88145295D02*
X106342857Y-88240533D01*
X106342857Y-88240533D02*
X106295238Y-88383390D01*
X106295238Y-88383390D02*
X105723810Y-88954819D01*
X105723810Y-88954819D02*
X106342857Y-88954819D01*
X104390476Y-92954819D02*
X104390476Y-93669104D01*
X104390476Y-93669104D02*
X104342857Y-93811961D01*
X104342857Y-93811961D02*
X104247619Y-93907200D01*
X104247619Y-93907200D02*
X104104762Y-93954819D01*
X104104762Y-93954819D02*
X104009524Y-93954819D01*
X105390476Y-93954819D02*
X104819048Y-93954819D01*
X105104762Y-93954819D02*
X105104762Y-92954819D01*
X105104762Y-92954819D02*
X105009524Y-93097676D01*
X105009524Y-93097676D02*
X104914286Y-93192914D01*
X104914286Y-93192914D02*
X104819048Y-93240533D01*
X105723810Y-92954819D02*
X106342857Y-92954819D01*
X106342857Y-92954819D02*
X106009524Y-93335771D01*
X106009524Y-93335771D02*
X106152381Y-93335771D01*
X106152381Y-93335771D02*
X106247619Y-93383390D01*
X106247619Y-93383390D02*
X106295238Y-93431009D01*
X106295238Y-93431009D02*
X106342857Y-93526247D01*
X106342857Y-93526247D02*
X106342857Y-93764342D01*
X106342857Y-93764342D02*
X106295238Y-93859580D01*
X106295238Y-93859580D02*
X106247619Y-93907200D01*
X106247619Y-93907200D02*
X106152381Y-93954819D01*
X106152381Y-93954819D02*
X105866667Y-93954819D01*
X105866667Y-93954819D02*
X105771429Y-93907200D01*
X105771429Y-93907200D02*
X105723810Y-93859580D01*
X104390476Y-97954819D02*
X104390476Y-98669104D01*
X104390476Y-98669104D02*
X104342857Y-98811961D01*
X104342857Y-98811961D02*
X104247619Y-98907200D01*
X104247619Y-98907200D02*
X104104762Y-98954819D01*
X104104762Y-98954819D02*
X104009524Y-98954819D01*
X105390476Y-98954819D02*
X104819048Y-98954819D01*
X105104762Y-98954819D02*
X105104762Y-97954819D01*
X105104762Y-97954819D02*
X105009524Y-98097676D01*
X105009524Y-98097676D02*
X104914286Y-98192914D01*
X104914286Y-98192914D02*
X104819048Y-98240533D01*
X106247619Y-98288152D02*
X106247619Y-98954819D01*
X106009524Y-97907200D02*
X105771429Y-98621485D01*
X105771429Y-98621485D02*
X106390476Y-98621485D01*
X104390476Y-105454819D02*
X104390476Y-106169104D01*
X104390476Y-106169104D02*
X104342857Y-106311961D01*
X104342857Y-106311961D02*
X104247619Y-106407200D01*
X104247619Y-106407200D02*
X104104762Y-106454819D01*
X104104762Y-106454819D02*
X104009524Y-106454819D01*
X105390476Y-106454819D02*
X104819048Y-106454819D01*
X105104762Y-106454819D02*
X105104762Y-105454819D01*
X105104762Y-105454819D02*
X105009524Y-105597676D01*
X105009524Y-105597676D02*
X104914286Y-105692914D01*
X104914286Y-105692914D02*
X104819048Y-105740533D01*
X105961905Y-105883390D02*
X105866667Y-105835771D01*
X105866667Y-105835771D02*
X105819048Y-105788152D01*
X105819048Y-105788152D02*
X105771429Y-105692914D01*
X105771429Y-105692914D02*
X105771429Y-105645295D01*
X105771429Y-105645295D02*
X105819048Y-105550057D01*
X105819048Y-105550057D02*
X105866667Y-105502438D01*
X105866667Y-105502438D02*
X105961905Y-105454819D01*
X105961905Y-105454819D02*
X106152381Y-105454819D01*
X106152381Y-105454819D02*
X106247619Y-105502438D01*
X106247619Y-105502438D02*
X106295238Y-105550057D01*
X106295238Y-105550057D02*
X106342857Y-105645295D01*
X106342857Y-105645295D02*
X106342857Y-105692914D01*
X106342857Y-105692914D02*
X106295238Y-105788152D01*
X106295238Y-105788152D02*
X106247619Y-105835771D01*
X106247619Y-105835771D02*
X106152381Y-105883390D01*
X106152381Y-105883390D02*
X105961905Y-105883390D01*
X105961905Y-105883390D02*
X105866667Y-105931009D01*
X105866667Y-105931009D02*
X105819048Y-105978628D01*
X105819048Y-105978628D02*
X105771429Y-106073866D01*
X105771429Y-106073866D02*
X105771429Y-106264342D01*
X105771429Y-106264342D02*
X105819048Y-106359580D01*
X105819048Y-106359580D02*
X105866667Y-106407200D01*
X105866667Y-106407200D02*
X105961905Y-106454819D01*
X105961905Y-106454819D02*
X106152381Y-106454819D01*
X106152381Y-106454819D02*
X106247619Y-106407200D01*
X106247619Y-106407200D02*
X106295238Y-106359580D01*
X106295238Y-106359580D02*
X106342857Y-106264342D01*
X106342857Y-106264342D02*
X106342857Y-106073866D01*
X106342857Y-106073866D02*
X106295238Y-105978628D01*
X106295238Y-105978628D02*
X106247619Y-105931009D01*
X106247619Y-105931009D02*
X106152381Y-105883390D01*
X160829819Y-96633333D02*
X161544104Y-96633333D01*
X161544104Y-96633333D02*
X161686961Y-96680952D01*
X161686961Y-96680952D02*
X161782200Y-96776190D01*
X161782200Y-96776190D02*
X161829819Y-96919047D01*
X161829819Y-96919047D02*
X161829819Y-97014285D01*
X160829819Y-96252380D02*
X160829819Y-95633333D01*
X160829819Y-95633333D02*
X161210771Y-95966666D01*
X161210771Y-95966666D02*
X161210771Y-95823809D01*
X161210771Y-95823809D02*
X161258390Y-95728571D01*
X161258390Y-95728571D02*
X161306009Y-95680952D01*
X161306009Y-95680952D02*
X161401247Y-95633333D01*
X161401247Y-95633333D02*
X161639342Y-95633333D01*
X161639342Y-95633333D02*
X161734580Y-95680952D01*
X161734580Y-95680952D02*
X161782200Y-95728571D01*
X161782200Y-95728571D02*
X161829819Y-95823809D01*
X161829819Y-95823809D02*
X161829819Y-96109523D01*
X161829819Y-96109523D02*
X161782200Y-96204761D01*
X161782200Y-96204761D02*
X161734580Y-96252380D01*
X164654819Y-95799999D02*
X163654819Y-95799999D01*
X163654819Y-95799999D02*
X164654819Y-95228571D01*
X164654819Y-95228571D02*
X163654819Y-95228571D01*
X164607200Y-94371428D02*
X164654819Y-94466666D01*
X164654819Y-94466666D02*
X164654819Y-94657142D01*
X164654819Y-94657142D02*
X164607200Y-94752380D01*
X164607200Y-94752380D02*
X164511961Y-94799999D01*
X164511961Y-94799999D02*
X164131009Y-94799999D01*
X164131009Y-94799999D02*
X164035771Y-94752380D01*
X164035771Y-94752380D02*
X163988152Y-94657142D01*
X163988152Y-94657142D02*
X163988152Y-94466666D01*
X163988152Y-94466666D02*
X164035771Y-94371428D01*
X164035771Y-94371428D02*
X164131009Y-94323809D01*
X164131009Y-94323809D02*
X164226247Y-94323809D01*
X164226247Y-94323809D02*
X164321485Y-94799999D01*
X164654819Y-93752380D02*
X164607200Y-93847618D01*
X164607200Y-93847618D02*
X164559580Y-93895237D01*
X164559580Y-93895237D02*
X164464342Y-93942856D01*
X164464342Y-93942856D02*
X164178628Y-93942856D01*
X164178628Y-93942856D02*
X164083390Y-93895237D01*
X164083390Y-93895237D02*
X164035771Y-93847618D01*
X164035771Y-93847618D02*
X163988152Y-93752380D01*
X163988152Y-93752380D02*
X163988152Y-93609523D01*
X163988152Y-93609523D02*
X164035771Y-93514285D01*
X164035771Y-93514285D02*
X164083390Y-93466666D01*
X164083390Y-93466666D02*
X164178628Y-93419047D01*
X164178628Y-93419047D02*
X164464342Y-93419047D01*
X164464342Y-93419047D02*
X164559580Y-93466666D01*
X164559580Y-93466666D02*
X164607200Y-93514285D01*
X164607200Y-93514285D02*
X164654819Y-93609523D01*
X164654819Y-93609523D02*
X164654819Y-93752380D01*
X164654819Y-92990475D02*
X163654819Y-92990475D01*
X163654819Y-92990475D02*
X163654819Y-92609523D01*
X163654819Y-92609523D02*
X163702438Y-92514285D01*
X163702438Y-92514285D02*
X163750057Y-92466666D01*
X163750057Y-92466666D02*
X163845295Y-92419047D01*
X163845295Y-92419047D02*
X163988152Y-92419047D01*
X163988152Y-92419047D02*
X164083390Y-92466666D01*
X164083390Y-92466666D02*
X164131009Y-92514285D01*
X164131009Y-92514285D02*
X164178628Y-92609523D01*
X164178628Y-92609523D02*
X164178628Y-92990475D01*
X164654819Y-91990475D02*
X163988152Y-91990475D01*
X163654819Y-91990475D02*
X163702438Y-92038094D01*
X163702438Y-92038094D02*
X163750057Y-91990475D01*
X163750057Y-91990475D02*
X163702438Y-91942856D01*
X163702438Y-91942856D02*
X163654819Y-91990475D01*
X163654819Y-91990475D02*
X163750057Y-91990475D01*
X164654819Y-91609523D02*
X163988152Y-91085714D01*
X163988152Y-91609523D02*
X164654819Y-91085714D01*
X164607200Y-90323809D02*
X164654819Y-90419047D01*
X164654819Y-90419047D02*
X164654819Y-90609523D01*
X164654819Y-90609523D02*
X164607200Y-90704761D01*
X164607200Y-90704761D02*
X164511961Y-90752380D01*
X164511961Y-90752380D02*
X164131009Y-90752380D01*
X164131009Y-90752380D02*
X164035771Y-90704761D01*
X164035771Y-90704761D02*
X163988152Y-90609523D01*
X163988152Y-90609523D02*
X163988152Y-90419047D01*
X163988152Y-90419047D02*
X164035771Y-90323809D01*
X164035771Y-90323809D02*
X164131009Y-90276190D01*
X164131009Y-90276190D02*
X164226247Y-90276190D01*
X164226247Y-90276190D02*
X164321485Y-90752380D01*
X164654819Y-89704761D02*
X164607200Y-89799999D01*
X164607200Y-89799999D02*
X164511961Y-89847618D01*
X164511961Y-89847618D02*
X163654819Y-89847618D01*
X131538095Y-56254819D02*
X131538095Y-57064342D01*
X131538095Y-57064342D02*
X131585714Y-57159580D01*
X131585714Y-57159580D02*
X131633333Y-57207200D01*
X131633333Y-57207200D02*
X131728571Y-57254819D01*
X131728571Y-57254819D02*
X131919047Y-57254819D01*
X131919047Y-57254819D02*
X132014285Y-57207200D01*
X132014285Y-57207200D02*
X132061904Y-57159580D01*
X132061904Y-57159580D02*
X132109523Y-57064342D01*
X132109523Y-57064342D02*
X132109523Y-56254819D01*
X133109523Y-57254819D02*
X132538095Y-57254819D01*
X132823809Y-57254819D02*
X132823809Y-56254819D01*
X132823809Y-56254819D02*
X132728571Y-56397676D01*
X132728571Y-56397676D02*
X132633333Y-56492914D01*
X132633333Y-56492914D02*
X132538095Y-56540533D01*
X104390476Y-75454819D02*
X104390476Y-76169104D01*
X104390476Y-76169104D02*
X104342857Y-76311961D01*
X104342857Y-76311961D02*
X104247619Y-76407200D01*
X104247619Y-76407200D02*
X104104762Y-76454819D01*
X104104762Y-76454819D02*
X104009524Y-76454819D01*
X105390476Y-76454819D02*
X104819048Y-76454819D01*
X105104762Y-76454819D02*
X105104762Y-75454819D01*
X105104762Y-75454819D02*
X105009524Y-75597676D01*
X105009524Y-75597676D02*
X104914286Y-75692914D01*
X104914286Y-75692914D02*
X104819048Y-75740533D01*
X106009524Y-75454819D02*
X106104762Y-75454819D01*
X106104762Y-75454819D02*
X106200000Y-75502438D01*
X106200000Y-75502438D02*
X106247619Y-75550057D01*
X106247619Y-75550057D02*
X106295238Y-75645295D01*
X106295238Y-75645295D02*
X106342857Y-75835771D01*
X106342857Y-75835771D02*
X106342857Y-76073866D01*
X106342857Y-76073866D02*
X106295238Y-76264342D01*
X106295238Y-76264342D02*
X106247619Y-76359580D01*
X106247619Y-76359580D02*
X106200000Y-76407200D01*
X106200000Y-76407200D02*
X106104762Y-76454819D01*
X106104762Y-76454819D02*
X106009524Y-76454819D01*
X106009524Y-76454819D02*
X105914286Y-76407200D01*
X105914286Y-76407200D02*
X105866667Y-76359580D01*
X105866667Y-76359580D02*
X105819048Y-76264342D01*
X105819048Y-76264342D02*
X105771429Y-76073866D01*
X105771429Y-76073866D02*
X105771429Y-75835771D01*
X105771429Y-75835771D02*
X105819048Y-75645295D01*
X105819048Y-75645295D02*
X105866667Y-75550057D01*
X105866667Y-75550057D02*
X105914286Y-75502438D01*
X105914286Y-75502438D02*
X106009524Y-75454819D01*
X104366666Y-70454819D02*
X104366666Y-71169104D01*
X104366666Y-71169104D02*
X104319047Y-71311961D01*
X104319047Y-71311961D02*
X104223809Y-71407200D01*
X104223809Y-71407200D02*
X104080952Y-71454819D01*
X104080952Y-71454819D02*
X103985714Y-71454819D01*
X104890476Y-71454819D02*
X105080952Y-71454819D01*
X105080952Y-71454819D02*
X105176190Y-71407200D01*
X105176190Y-71407200D02*
X105223809Y-71359580D01*
X105223809Y-71359580D02*
X105319047Y-71216723D01*
X105319047Y-71216723D02*
X105366666Y-71026247D01*
X105366666Y-71026247D02*
X105366666Y-70645295D01*
X105366666Y-70645295D02*
X105319047Y-70550057D01*
X105319047Y-70550057D02*
X105271428Y-70502438D01*
X105271428Y-70502438D02*
X105176190Y-70454819D01*
X105176190Y-70454819D02*
X104985714Y-70454819D01*
X104985714Y-70454819D02*
X104890476Y-70502438D01*
X104890476Y-70502438D02*
X104842857Y-70550057D01*
X104842857Y-70550057D02*
X104795238Y-70645295D01*
X104795238Y-70645295D02*
X104795238Y-70883390D01*
X104795238Y-70883390D02*
X104842857Y-70978628D01*
X104842857Y-70978628D02*
X104890476Y-71026247D01*
X104890476Y-71026247D02*
X104985714Y-71073866D01*
X104985714Y-71073866D02*
X105176190Y-71073866D01*
X105176190Y-71073866D02*
X105271428Y-71026247D01*
X105271428Y-71026247D02*
X105319047Y-70978628D01*
X105319047Y-70978628D02*
X105366666Y-70883390D01*
D11*
X147417143Y-115127469D02*
X147177143Y-114784612D01*
X147005714Y-115127469D02*
X147005714Y-114407469D01*
X147005714Y-114407469D02*
X147280000Y-114407469D01*
X147280000Y-114407469D02*
X147348571Y-114441755D01*
X147348571Y-114441755D02*
X147382857Y-114476041D01*
X147382857Y-114476041D02*
X147417143Y-114544612D01*
X147417143Y-114544612D02*
X147417143Y-114647469D01*
X147417143Y-114647469D02*
X147382857Y-114716041D01*
X147382857Y-114716041D02*
X147348571Y-114750326D01*
X147348571Y-114750326D02*
X147280000Y-114784612D01*
X147280000Y-114784612D02*
X147005714Y-114784612D01*
X148102857Y-115127469D02*
X147691428Y-115127469D01*
X147897143Y-115127469D02*
X147897143Y-114407469D01*
X147897143Y-114407469D02*
X147828571Y-114510326D01*
X147828571Y-114510326D02*
X147760000Y-114578898D01*
X147760000Y-114578898D02*
X147691428Y-114613184D01*
X148788571Y-115127469D02*
X148377142Y-115127469D01*
X148582857Y-115127469D02*
X148582857Y-114407469D01*
X148582857Y-114407469D02*
X148514285Y-114510326D01*
X148514285Y-114510326D02*
X148445714Y-114578898D01*
X148445714Y-114578898D02*
X148377142Y-114613184D01*
D10*
X140438095Y-111554819D02*
X140438095Y-112364342D01*
X140438095Y-112364342D02*
X140485714Y-112459580D01*
X140485714Y-112459580D02*
X140533333Y-112507200D01*
X140533333Y-112507200D02*
X140628571Y-112554819D01*
X140628571Y-112554819D02*
X140819047Y-112554819D01*
X140819047Y-112554819D02*
X140914285Y-112507200D01*
X140914285Y-112507200D02*
X140961904Y-112459580D01*
X140961904Y-112459580D02*
X141009523Y-112364342D01*
X141009523Y-112364342D02*
X141009523Y-111554819D01*
X141914285Y-111888152D02*
X141914285Y-112554819D01*
X141676190Y-111507200D02*
X141438095Y-112221485D01*
X141438095Y-112221485D02*
X142057142Y-112221485D01*
D11*
X138967143Y-116327469D02*
X138967143Y-115607469D01*
X138967143Y-115607469D02*
X139138572Y-115607469D01*
X139138572Y-115607469D02*
X139241429Y-115641755D01*
X139241429Y-115641755D02*
X139310000Y-115710326D01*
X139310000Y-115710326D02*
X139344286Y-115778898D01*
X139344286Y-115778898D02*
X139378572Y-115916041D01*
X139378572Y-115916041D02*
X139378572Y-116018898D01*
X139378572Y-116018898D02*
X139344286Y-116156041D01*
X139344286Y-116156041D02*
X139310000Y-116224612D01*
X139310000Y-116224612D02*
X139241429Y-116293184D01*
X139241429Y-116293184D02*
X139138572Y-116327469D01*
X139138572Y-116327469D02*
X138967143Y-116327469D01*
X139652857Y-116293184D02*
X139755715Y-116327469D01*
X139755715Y-116327469D02*
X139927143Y-116327469D01*
X139927143Y-116327469D02*
X139995715Y-116293184D01*
X139995715Y-116293184D02*
X140030000Y-116258898D01*
X140030000Y-116258898D02*
X140064286Y-116190326D01*
X140064286Y-116190326D02*
X140064286Y-116121755D01*
X140064286Y-116121755D02*
X140030000Y-116053184D01*
X140030000Y-116053184D02*
X139995715Y-116018898D01*
X139995715Y-116018898D02*
X139927143Y-115984612D01*
X139927143Y-115984612D02*
X139790000Y-115950326D01*
X139790000Y-115950326D02*
X139721429Y-115916041D01*
X139721429Y-115916041D02*
X139687143Y-115881755D01*
X139687143Y-115881755D02*
X139652857Y-115813184D01*
X139652857Y-115813184D02*
X139652857Y-115744612D01*
X139652857Y-115744612D02*
X139687143Y-115676041D01*
X139687143Y-115676041D02*
X139721429Y-115641755D01*
X139721429Y-115641755D02*
X139790000Y-115607469D01*
X139790000Y-115607469D02*
X139961429Y-115607469D01*
X139961429Y-115607469D02*
X140064286Y-115641755D01*
X140750000Y-116327469D02*
X140338571Y-116327469D01*
X140544286Y-116327469D02*
X140544286Y-115607469D01*
X140544286Y-115607469D02*
X140475714Y-115710326D01*
X140475714Y-115710326D02*
X140407143Y-115778898D01*
X140407143Y-115778898D02*
X140338571Y-115813184D01*
X141161428Y-115916041D02*
X141092857Y-115881755D01*
X141092857Y-115881755D02*
X141058571Y-115847469D01*
X141058571Y-115847469D02*
X141024285Y-115778898D01*
X141024285Y-115778898D02*
X141024285Y-115744612D01*
X141024285Y-115744612D02*
X141058571Y-115676041D01*
X141058571Y-115676041D02*
X141092857Y-115641755D01*
X141092857Y-115641755D02*
X141161428Y-115607469D01*
X141161428Y-115607469D02*
X141298571Y-115607469D01*
X141298571Y-115607469D02*
X141367143Y-115641755D01*
X141367143Y-115641755D02*
X141401428Y-115676041D01*
X141401428Y-115676041D02*
X141435714Y-115744612D01*
X141435714Y-115744612D02*
X141435714Y-115778898D01*
X141435714Y-115778898D02*
X141401428Y-115847469D01*
X141401428Y-115847469D02*
X141367143Y-115881755D01*
X141367143Y-115881755D02*
X141298571Y-115916041D01*
X141298571Y-115916041D02*
X141161428Y-115916041D01*
X141161428Y-115916041D02*
X141092857Y-115950326D01*
X141092857Y-115950326D02*
X141058571Y-115984612D01*
X141058571Y-115984612D02*
X141024285Y-116053184D01*
X141024285Y-116053184D02*
X141024285Y-116190326D01*
X141024285Y-116190326D02*
X141058571Y-116258898D01*
X141058571Y-116258898D02*
X141092857Y-116293184D01*
X141092857Y-116293184D02*
X141161428Y-116327469D01*
X141161428Y-116327469D02*
X141298571Y-116327469D01*
X141298571Y-116327469D02*
X141367143Y-116293184D01*
X141367143Y-116293184D02*
X141401428Y-116258898D01*
X141401428Y-116258898D02*
X141435714Y-116190326D01*
X141435714Y-116190326D02*
X141435714Y-116053184D01*
X141435714Y-116053184D02*
X141401428Y-115984612D01*
X141401428Y-115984612D02*
X141367143Y-115950326D01*
X141367143Y-115950326D02*
X141298571Y-115916041D01*
X141984285Y-115950326D02*
X142087142Y-115984612D01*
X142087142Y-115984612D02*
X142121428Y-116018898D01*
X142121428Y-116018898D02*
X142155714Y-116087469D01*
X142155714Y-116087469D02*
X142155714Y-116190326D01*
X142155714Y-116190326D02*
X142121428Y-116258898D01*
X142121428Y-116258898D02*
X142087142Y-116293184D01*
X142087142Y-116293184D02*
X142018571Y-116327469D01*
X142018571Y-116327469D02*
X141744285Y-116327469D01*
X141744285Y-116327469D02*
X141744285Y-115607469D01*
X141744285Y-115607469D02*
X141984285Y-115607469D01*
X141984285Y-115607469D02*
X142052857Y-115641755D01*
X142052857Y-115641755D02*
X142087142Y-115676041D01*
X142087142Y-115676041D02*
X142121428Y-115744612D01*
X142121428Y-115744612D02*
X142121428Y-115813184D01*
X142121428Y-115813184D02*
X142087142Y-115881755D01*
X142087142Y-115881755D02*
X142052857Y-115916041D01*
X142052857Y-115916041D02*
X141984285Y-115950326D01*
X141984285Y-115950326D02*
X141744285Y-115950326D01*
X142429999Y-115676041D02*
X142464285Y-115641755D01*
X142464285Y-115641755D02*
X142532857Y-115607469D01*
X142532857Y-115607469D02*
X142704285Y-115607469D01*
X142704285Y-115607469D02*
X142772857Y-115641755D01*
X142772857Y-115641755D02*
X142807142Y-115676041D01*
X142807142Y-115676041D02*
X142841428Y-115744612D01*
X142841428Y-115744612D02*
X142841428Y-115813184D01*
X142841428Y-115813184D02*
X142807142Y-115916041D01*
X142807142Y-115916041D02*
X142395714Y-116327469D01*
X142395714Y-116327469D02*
X142841428Y-116327469D01*
X143287142Y-115607469D02*
X143355713Y-115607469D01*
X143355713Y-115607469D02*
X143424285Y-115641755D01*
X143424285Y-115641755D02*
X143458571Y-115676041D01*
X143458571Y-115676041D02*
X143492856Y-115744612D01*
X143492856Y-115744612D02*
X143527142Y-115881755D01*
X143527142Y-115881755D02*
X143527142Y-116053184D01*
X143527142Y-116053184D02*
X143492856Y-116190326D01*
X143492856Y-116190326D02*
X143458571Y-116258898D01*
X143458571Y-116258898D02*
X143424285Y-116293184D01*
X143424285Y-116293184D02*
X143355713Y-116327469D01*
X143355713Y-116327469D02*
X143287142Y-116327469D01*
X143287142Y-116327469D02*
X143218571Y-116293184D01*
X143218571Y-116293184D02*
X143184285Y-116258898D01*
X143184285Y-116258898D02*
X143149999Y-116190326D01*
X143149999Y-116190326D02*
X143115713Y-116053184D01*
X143115713Y-116053184D02*
X143115713Y-115881755D01*
X143115713Y-115881755D02*
X143149999Y-115744612D01*
X143149999Y-115744612D02*
X143184285Y-115676041D01*
X143184285Y-115676041D02*
X143218571Y-115641755D01*
X143218571Y-115641755D02*
X143287142Y-115607469D01*
X150780000Y-77127469D02*
X150540000Y-76784612D01*
X150368571Y-77127469D02*
X150368571Y-76407469D01*
X150368571Y-76407469D02*
X150642857Y-76407469D01*
X150642857Y-76407469D02*
X150711428Y-76441755D01*
X150711428Y-76441755D02*
X150745714Y-76476041D01*
X150745714Y-76476041D02*
X150780000Y-76544612D01*
X150780000Y-76544612D02*
X150780000Y-76647469D01*
X150780000Y-76647469D02*
X150745714Y-76716041D01*
X150745714Y-76716041D02*
X150711428Y-76750326D01*
X150711428Y-76750326D02*
X150642857Y-76784612D01*
X150642857Y-76784612D02*
X150368571Y-76784612D01*
X151020000Y-76407469D02*
X151500000Y-76407469D01*
X151500000Y-76407469D02*
X151191428Y-77127469D01*
X150860000Y-79327469D02*
X150620000Y-78984612D01*
X150448571Y-79327469D02*
X150448571Y-78607469D01*
X150448571Y-78607469D02*
X150722857Y-78607469D01*
X150722857Y-78607469D02*
X150791428Y-78641755D01*
X150791428Y-78641755D02*
X150825714Y-78676041D01*
X150825714Y-78676041D02*
X150860000Y-78744612D01*
X150860000Y-78744612D02*
X150860000Y-78847469D01*
X150860000Y-78847469D02*
X150825714Y-78916041D01*
X150825714Y-78916041D02*
X150791428Y-78950326D01*
X150791428Y-78950326D02*
X150722857Y-78984612D01*
X150722857Y-78984612D02*
X150448571Y-78984612D01*
X151271428Y-78916041D02*
X151202857Y-78881755D01*
X151202857Y-78881755D02*
X151168571Y-78847469D01*
X151168571Y-78847469D02*
X151134285Y-78778898D01*
X151134285Y-78778898D02*
X151134285Y-78744612D01*
X151134285Y-78744612D02*
X151168571Y-78676041D01*
X151168571Y-78676041D02*
X151202857Y-78641755D01*
X151202857Y-78641755D02*
X151271428Y-78607469D01*
X151271428Y-78607469D02*
X151408571Y-78607469D01*
X151408571Y-78607469D02*
X151477143Y-78641755D01*
X151477143Y-78641755D02*
X151511428Y-78676041D01*
X151511428Y-78676041D02*
X151545714Y-78744612D01*
X151545714Y-78744612D02*
X151545714Y-78778898D01*
X151545714Y-78778898D02*
X151511428Y-78847469D01*
X151511428Y-78847469D02*
X151477143Y-78881755D01*
X151477143Y-78881755D02*
X151408571Y-78916041D01*
X151408571Y-78916041D02*
X151271428Y-78916041D01*
X151271428Y-78916041D02*
X151202857Y-78950326D01*
X151202857Y-78950326D02*
X151168571Y-78984612D01*
X151168571Y-78984612D02*
X151134285Y-79053184D01*
X151134285Y-79053184D02*
X151134285Y-79190326D01*
X151134285Y-79190326D02*
X151168571Y-79258898D01*
X151168571Y-79258898D02*
X151202857Y-79293184D01*
X151202857Y-79293184D02*
X151271428Y-79327469D01*
X151271428Y-79327469D02*
X151408571Y-79327469D01*
X151408571Y-79327469D02*
X151477143Y-79293184D01*
X151477143Y-79293184D02*
X151511428Y-79258898D01*
X151511428Y-79258898D02*
X151545714Y-79190326D01*
X151545714Y-79190326D02*
X151545714Y-79053184D01*
X151545714Y-79053184D02*
X151511428Y-78984612D01*
X151511428Y-78984612D02*
X151477143Y-78950326D01*
X151477143Y-78950326D02*
X151408571Y-78916041D01*
X150680000Y-81527469D02*
X150440000Y-81184612D01*
X150268571Y-81527469D02*
X150268571Y-80807469D01*
X150268571Y-80807469D02*
X150542857Y-80807469D01*
X150542857Y-80807469D02*
X150611428Y-80841755D01*
X150611428Y-80841755D02*
X150645714Y-80876041D01*
X150645714Y-80876041D02*
X150680000Y-80944612D01*
X150680000Y-80944612D02*
X150680000Y-81047469D01*
X150680000Y-81047469D02*
X150645714Y-81116041D01*
X150645714Y-81116041D02*
X150611428Y-81150326D01*
X150611428Y-81150326D02*
X150542857Y-81184612D01*
X150542857Y-81184612D02*
X150268571Y-81184612D01*
X151022857Y-81527469D02*
X151160000Y-81527469D01*
X151160000Y-81527469D02*
X151228571Y-81493184D01*
X151228571Y-81493184D02*
X151262857Y-81458898D01*
X151262857Y-81458898D02*
X151331428Y-81356041D01*
X151331428Y-81356041D02*
X151365714Y-81218898D01*
X151365714Y-81218898D02*
X151365714Y-80944612D01*
X151365714Y-80944612D02*
X151331428Y-80876041D01*
X151331428Y-80876041D02*
X151297143Y-80841755D01*
X151297143Y-80841755D02*
X151228571Y-80807469D01*
X151228571Y-80807469D02*
X151091428Y-80807469D01*
X151091428Y-80807469D02*
X151022857Y-80841755D01*
X151022857Y-80841755D02*
X150988571Y-80876041D01*
X150988571Y-80876041D02*
X150954285Y-80944612D01*
X150954285Y-80944612D02*
X150954285Y-81116041D01*
X150954285Y-81116041D02*
X150988571Y-81184612D01*
X150988571Y-81184612D02*
X151022857Y-81218898D01*
X151022857Y-81218898D02*
X151091428Y-81253184D01*
X151091428Y-81253184D02*
X151228571Y-81253184D01*
X151228571Y-81253184D02*
X151297143Y-81218898D01*
X151297143Y-81218898D02*
X151331428Y-81184612D01*
X151331428Y-81184612D02*
X151365714Y-81116041D01*
X152637143Y-83727469D02*
X152397143Y-83384612D01*
X152225714Y-83727469D02*
X152225714Y-83007469D01*
X152225714Y-83007469D02*
X152500000Y-83007469D01*
X152500000Y-83007469D02*
X152568571Y-83041755D01*
X152568571Y-83041755D02*
X152602857Y-83076041D01*
X152602857Y-83076041D02*
X152637143Y-83144612D01*
X152637143Y-83144612D02*
X152637143Y-83247469D01*
X152637143Y-83247469D02*
X152602857Y-83316041D01*
X152602857Y-83316041D02*
X152568571Y-83350326D01*
X152568571Y-83350326D02*
X152500000Y-83384612D01*
X152500000Y-83384612D02*
X152225714Y-83384612D01*
X153322857Y-83727469D02*
X152911428Y-83727469D01*
X153117143Y-83727469D02*
X153117143Y-83007469D01*
X153117143Y-83007469D02*
X153048571Y-83110326D01*
X153048571Y-83110326D02*
X152980000Y-83178898D01*
X152980000Y-83178898D02*
X152911428Y-83213184D01*
X153768571Y-83007469D02*
X153837142Y-83007469D01*
X153837142Y-83007469D02*
X153905714Y-83041755D01*
X153905714Y-83041755D02*
X153940000Y-83076041D01*
X153940000Y-83076041D02*
X153974285Y-83144612D01*
X153974285Y-83144612D02*
X154008571Y-83281755D01*
X154008571Y-83281755D02*
X154008571Y-83453184D01*
X154008571Y-83453184D02*
X153974285Y-83590326D01*
X153974285Y-83590326D02*
X153940000Y-83658898D01*
X153940000Y-83658898D02*
X153905714Y-83693184D01*
X153905714Y-83693184D02*
X153837142Y-83727469D01*
X153837142Y-83727469D02*
X153768571Y-83727469D01*
X153768571Y-83727469D02*
X153700000Y-83693184D01*
X153700000Y-83693184D02*
X153665714Y-83658898D01*
X153665714Y-83658898D02*
X153631428Y-83590326D01*
X153631428Y-83590326D02*
X153597142Y-83453184D01*
X153597142Y-83453184D02*
X153597142Y-83281755D01*
X153597142Y-83281755D02*
X153631428Y-83144612D01*
X153631428Y-83144612D02*
X153665714Y-83076041D01*
X153665714Y-83076041D02*
X153700000Y-83041755D01*
X153700000Y-83041755D02*
X153768571Y-83007469D01*
D10*
X157290476Y-74644819D02*
X157290476Y-75359104D01*
X157290476Y-75359104D02*
X157242857Y-75501961D01*
X157242857Y-75501961D02*
X157147619Y-75597200D01*
X157147619Y-75597200D02*
X157004762Y-75644819D01*
X157004762Y-75644819D02*
X156909524Y-75644819D01*
X158290476Y-75644819D02*
X157719048Y-75644819D01*
X158004762Y-75644819D02*
X158004762Y-74644819D01*
X158004762Y-74644819D02*
X157909524Y-74787676D01*
X157909524Y-74787676D02*
X157814286Y-74882914D01*
X157814286Y-74882914D02*
X157719048Y-74930533D01*
X158766667Y-75644819D02*
X158957143Y-75644819D01*
X158957143Y-75644819D02*
X159052381Y-75597200D01*
X159052381Y-75597200D02*
X159100000Y-75549580D01*
X159100000Y-75549580D02*
X159195238Y-75406723D01*
X159195238Y-75406723D02*
X159242857Y-75216247D01*
X159242857Y-75216247D02*
X159242857Y-74835295D01*
X159242857Y-74835295D02*
X159195238Y-74740057D01*
X159195238Y-74740057D02*
X159147619Y-74692438D01*
X159147619Y-74692438D02*
X159052381Y-74644819D01*
X159052381Y-74644819D02*
X158861905Y-74644819D01*
X158861905Y-74644819D02*
X158766667Y-74692438D01*
X158766667Y-74692438D02*
X158719048Y-74740057D01*
X158719048Y-74740057D02*
X158671429Y-74835295D01*
X158671429Y-74835295D02*
X158671429Y-75073390D01*
X158671429Y-75073390D02*
X158719048Y-75168628D01*
X158719048Y-75168628D02*
X158766667Y-75216247D01*
X158766667Y-75216247D02*
X158861905Y-75263866D01*
X158861905Y-75263866D02*
X159052381Y-75263866D01*
X159052381Y-75263866D02*
X159147619Y-75216247D01*
X159147619Y-75216247D02*
X159195238Y-75168628D01*
X159195238Y-75168628D02*
X159242857Y-75073390D01*
X159854819Y-79466666D02*
X160854819Y-79133333D01*
X160854819Y-79133333D02*
X159854819Y-78800000D01*
X160854819Y-78466666D02*
X159854819Y-78466666D01*
X159854819Y-78466666D02*
X160569104Y-78133333D01*
X160569104Y-78133333D02*
X159854819Y-77800000D01*
X159854819Y-77800000D02*
X160854819Y-77800000D01*
X160854819Y-77180952D02*
X160807200Y-77276190D01*
X160807200Y-77276190D02*
X160759580Y-77323809D01*
X160759580Y-77323809D02*
X160664342Y-77371428D01*
X160664342Y-77371428D02*
X160378628Y-77371428D01*
X160378628Y-77371428D02*
X160283390Y-77323809D01*
X160283390Y-77323809D02*
X160235771Y-77276190D01*
X160235771Y-77276190D02*
X160188152Y-77180952D01*
X160188152Y-77180952D02*
X160188152Y-77038095D01*
X160188152Y-77038095D02*
X160235771Y-76942857D01*
X160235771Y-76942857D02*
X160283390Y-76895238D01*
X160283390Y-76895238D02*
X160378628Y-76847619D01*
X160378628Y-76847619D02*
X160664342Y-76847619D01*
X160664342Y-76847619D02*
X160759580Y-76895238D01*
X160759580Y-76895238D02*
X160807200Y-76942857D01*
X160807200Y-76942857D02*
X160854819Y-77038095D01*
X160854819Y-77038095D02*
X160854819Y-77180952D01*
X160188152Y-76419047D02*
X160854819Y-76419047D01*
X160283390Y-76419047D02*
X160235771Y-76371428D01*
X160235771Y-76371428D02*
X160188152Y-76276190D01*
X160188152Y-76276190D02*
X160188152Y-76133333D01*
X160188152Y-76133333D02*
X160235771Y-76038095D01*
X160235771Y-76038095D02*
X160331009Y-75990476D01*
X160331009Y-75990476D02*
X160854819Y-75990476D01*
X160950057Y-75752381D02*
X160950057Y-74990476D01*
X160854819Y-74228571D02*
X160854819Y-74799999D01*
X160854819Y-74514285D02*
X159854819Y-74514285D01*
X159854819Y-74514285D02*
X159997676Y-74609523D01*
X159997676Y-74609523D02*
X160092914Y-74704761D01*
X160092914Y-74704761D02*
X160140533Y-74799999D01*
X157290476Y-79044819D02*
X157290476Y-79759104D01*
X157290476Y-79759104D02*
X157242857Y-79901961D01*
X157242857Y-79901961D02*
X157147619Y-79997200D01*
X157147619Y-79997200D02*
X157004762Y-80044819D01*
X157004762Y-80044819D02*
X156909524Y-80044819D01*
X157719048Y-79140057D02*
X157766667Y-79092438D01*
X157766667Y-79092438D02*
X157861905Y-79044819D01*
X157861905Y-79044819D02*
X158100000Y-79044819D01*
X158100000Y-79044819D02*
X158195238Y-79092438D01*
X158195238Y-79092438D02*
X158242857Y-79140057D01*
X158242857Y-79140057D02*
X158290476Y-79235295D01*
X158290476Y-79235295D02*
X158290476Y-79330533D01*
X158290476Y-79330533D02*
X158242857Y-79473390D01*
X158242857Y-79473390D02*
X157671429Y-80044819D01*
X157671429Y-80044819D02*
X158290476Y-80044819D01*
X158909524Y-79044819D02*
X159004762Y-79044819D01*
X159004762Y-79044819D02*
X159100000Y-79092438D01*
X159100000Y-79092438D02*
X159147619Y-79140057D01*
X159147619Y-79140057D02*
X159195238Y-79235295D01*
X159195238Y-79235295D02*
X159242857Y-79425771D01*
X159242857Y-79425771D02*
X159242857Y-79663866D01*
X159242857Y-79663866D02*
X159195238Y-79854342D01*
X159195238Y-79854342D02*
X159147619Y-79949580D01*
X159147619Y-79949580D02*
X159100000Y-79997200D01*
X159100000Y-79997200D02*
X159004762Y-80044819D01*
X159004762Y-80044819D02*
X158909524Y-80044819D01*
X158909524Y-80044819D02*
X158814286Y-79997200D01*
X158814286Y-79997200D02*
X158766667Y-79949580D01*
X158766667Y-79949580D02*
X158719048Y-79854342D01*
X158719048Y-79854342D02*
X158671429Y-79663866D01*
X158671429Y-79663866D02*
X158671429Y-79425771D01*
X158671429Y-79425771D02*
X158719048Y-79235295D01*
X158719048Y-79235295D02*
X158766667Y-79140057D01*
X158766667Y-79140057D02*
X158814286Y-79092438D01*
X158814286Y-79092438D02*
X158909524Y-79044819D01*
X161154819Y-83266666D02*
X162154819Y-82933333D01*
X162154819Y-82933333D02*
X161154819Y-82600000D01*
X162154819Y-82266666D02*
X161154819Y-82266666D01*
X161154819Y-82266666D02*
X161869104Y-81933333D01*
X161869104Y-81933333D02*
X161154819Y-81600000D01*
X161154819Y-81600000D02*
X162154819Y-81600000D01*
X162154819Y-80980952D02*
X162107200Y-81076190D01*
X162107200Y-81076190D02*
X162059580Y-81123809D01*
X162059580Y-81123809D02*
X161964342Y-81171428D01*
X161964342Y-81171428D02*
X161678628Y-81171428D01*
X161678628Y-81171428D02*
X161583390Y-81123809D01*
X161583390Y-81123809D02*
X161535771Y-81076190D01*
X161535771Y-81076190D02*
X161488152Y-80980952D01*
X161488152Y-80980952D02*
X161488152Y-80838095D01*
X161488152Y-80838095D02*
X161535771Y-80742857D01*
X161535771Y-80742857D02*
X161583390Y-80695238D01*
X161583390Y-80695238D02*
X161678628Y-80647619D01*
X161678628Y-80647619D02*
X161964342Y-80647619D01*
X161964342Y-80647619D02*
X162059580Y-80695238D01*
X162059580Y-80695238D02*
X162107200Y-80742857D01*
X162107200Y-80742857D02*
X162154819Y-80838095D01*
X162154819Y-80838095D02*
X162154819Y-80980952D01*
X161488152Y-80219047D02*
X162154819Y-80219047D01*
X161583390Y-80219047D02*
X161535771Y-80171428D01*
X161535771Y-80171428D02*
X161488152Y-80076190D01*
X161488152Y-80076190D02*
X161488152Y-79933333D01*
X161488152Y-79933333D02*
X161535771Y-79838095D01*
X161535771Y-79838095D02*
X161631009Y-79790476D01*
X161631009Y-79790476D02*
X162154819Y-79790476D01*
X162250057Y-79552381D02*
X162250057Y-78790476D01*
X161250057Y-78599999D02*
X161202438Y-78552380D01*
X161202438Y-78552380D02*
X161154819Y-78457142D01*
X161154819Y-78457142D02*
X161154819Y-78219047D01*
X161154819Y-78219047D02*
X161202438Y-78123809D01*
X161202438Y-78123809D02*
X161250057Y-78076190D01*
X161250057Y-78076190D02*
X161345295Y-78028571D01*
X161345295Y-78028571D02*
X161440533Y-78028571D01*
X161440533Y-78028571D02*
X161583390Y-78076190D01*
X161583390Y-78076190D02*
X162154819Y-78647618D01*
X162154819Y-78647618D02*
X162154819Y-78028571D01*
X104390476Y-110454819D02*
X104390476Y-111169104D01*
X104390476Y-111169104D02*
X104342857Y-111311961D01*
X104342857Y-111311961D02*
X104247619Y-111407200D01*
X104247619Y-111407200D02*
X104104762Y-111454819D01*
X104104762Y-111454819D02*
X104009524Y-111454819D01*
X105390476Y-111454819D02*
X104819048Y-111454819D01*
X105104762Y-111454819D02*
X105104762Y-110454819D01*
X105104762Y-110454819D02*
X105009524Y-110597676D01*
X105009524Y-110597676D02*
X104914286Y-110692914D01*
X104914286Y-110692914D02*
X104819048Y-110740533D01*
X105723810Y-110454819D02*
X106390476Y-110454819D01*
X106390476Y-110454819D02*
X105961905Y-111454819D01*
X104366666Y-65454819D02*
X104366666Y-66169104D01*
X104366666Y-66169104D02*
X104319047Y-66311961D01*
X104319047Y-66311961D02*
X104223809Y-66407200D01*
X104223809Y-66407200D02*
X104080952Y-66454819D01*
X104080952Y-66454819D02*
X103985714Y-66454819D01*
X104985714Y-65883390D02*
X104890476Y-65835771D01*
X104890476Y-65835771D02*
X104842857Y-65788152D01*
X104842857Y-65788152D02*
X104795238Y-65692914D01*
X104795238Y-65692914D02*
X104795238Y-65645295D01*
X104795238Y-65645295D02*
X104842857Y-65550057D01*
X104842857Y-65550057D02*
X104890476Y-65502438D01*
X104890476Y-65502438D02*
X104985714Y-65454819D01*
X104985714Y-65454819D02*
X105176190Y-65454819D01*
X105176190Y-65454819D02*
X105271428Y-65502438D01*
X105271428Y-65502438D02*
X105319047Y-65550057D01*
X105319047Y-65550057D02*
X105366666Y-65645295D01*
X105366666Y-65645295D02*
X105366666Y-65692914D01*
X105366666Y-65692914D02*
X105319047Y-65788152D01*
X105319047Y-65788152D02*
X105271428Y-65835771D01*
X105271428Y-65835771D02*
X105176190Y-65883390D01*
X105176190Y-65883390D02*
X104985714Y-65883390D01*
X104985714Y-65883390D02*
X104890476Y-65931009D01*
X104890476Y-65931009D02*
X104842857Y-65978628D01*
X104842857Y-65978628D02*
X104795238Y-66073866D01*
X104795238Y-66073866D02*
X104795238Y-66264342D01*
X104795238Y-66264342D02*
X104842857Y-66359580D01*
X104842857Y-66359580D02*
X104890476Y-66407200D01*
X104890476Y-66407200D02*
X104985714Y-66454819D01*
X104985714Y-66454819D02*
X105176190Y-66454819D01*
X105176190Y-66454819D02*
X105271428Y-66407200D01*
X105271428Y-66407200D02*
X105319047Y-66359580D01*
X105319047Y-66359580D02*
X105366666Y-66264342D01*
X105366666Y-66264342D02*
X105366666Y-66073866D01*
X105366666Y-66073866D02*
X105319047Y-65978628D01*
X105319047Y-65978628D02*
X105271428Y-65931009D01*
X105271428Y-65931009D02*
X105176190Y-65883390D01*
D11*
X150620000Y-86427469D02*
X150380000Y-86084612D01*
X150208571Y-86427469D02*
X150208571Y-85707469D01*
X150208571Y-85707469D02*
X150482857Y-85707469D01*
X150482857Y-85707469D02*
X150551428Y-85741755D01*
X150551428Y-85741755D02*
X150585714Y-85776041D01*
X150585714Y-85776041D02*
X150620000Y-85844612D01*
X150620000Y-85844612D02*
X150620000Y-85947469D01*
X150620000Y-85947469D02*
X150585714Y-86016041D01*
X150585714Y-86016041D02*
X150551428Y-86050326D01*
X150551428Y-86050326D02*
X150482857Y-86084612D01*
X150482857Y-86084612D02*
X150208571Y-86084612D01*
X151305714Y-86427469D02*
X150894285Y-86427469D01*
X151100000Y-86427469D02*
X151100000Y-85707469D01*
X151100000Y-85707469D02*
X151031428Y-85810326D01*
X151031428Y-85810326D02*
X150962857Y-85878898D01*
X150962857Y-85878898D02*
X150894285Y-85913184D01*
D10*
X146209580Y-80363966D02*
X146257200Y-80411585D01*
X146257200Y-80411585D02*
X146304819Y-80554442D01*
X146304819Y-80554442D02*
X146304819Y-80649680D01*
X146304819Y-80649680D02*
X146257200Y-80792537D01*
X146257200Y-80792537D02*
X146161961Y-80887775D01*
X146161961Y-80887775D02*
X146066723Y-80935394D01*
X146066723Y-80935394D02*
X145876247Y-80983013D01*
X145876247Y-80983013D02*
X145733390Y-80983013D01*
X145733390Y-80983013D02*
X145542914Y-80935394D01*
X145542914Y-80935394D02*
X145447676Y-80887775D01*
X145447676Y-80887775D02*
X145352438Y-80792537D01*
X145352438Y-80792537D02*
X145304819Y-80649680D01*
X145304819Y-80649680D02*
X145304819Y-80554442D01*
X145304819Y-80554442D02*
X145352438Y-80411585D01*
X145352438Y-80411585D02*
X145400057Y-80363966D01*
X145400057Y-79983013D02*
X145352438Y-79935394D01*
X145352438Y-79935394D02*
X145304819Y-79840156D01*
X145304819Y-79840156D02*
X145304819Y-79602061D01*
X145304819Y-79602061D02*
X145352438Y-79506823D01*
X145352438Y-79506823D02*
X145400057Y-79459204D01*
X145400057Y-79459204D02*
X145495295Y-79411585D01*
X145495295Y-79411585D02*
X145590533Y-79411585D01*
X145590533Y-79411585D02*
X145733390Y-79459204D01*
X145733390Y-79459204D02*
X146304819Y-80030632D01*
X146304819Y-80030632D02*
X146304819Y-79411585D01*
D11*
X152780000Y-96727469D02*
X152540000Y-96384612D01*
X152368571Y-96727469D02*
X152368571Y-96007469D01*
X152368571Y-96007469D02*
X152642857Y-96007469D01*
X152642857Y-96007469D02*
X152711428Y-96041755D01*
X152711428Y-96041755D02*
X152745714Y-96076041D01*
X152745714Y-96076041D02*
X152780000Y-96144612D01*
X152780000Y-96144612D02*
X152780000Y-96247469D01*
X152780000Y-96247469D02*
X152745714Y-96316041D01*
X152745714Y-96316041D02*
X152711428Y-96350326D01*
X152711428Y-96350326D02*
X152642857Y-96384612D01*
X152642857Y-96384612D02*
X152368571Y-96384612D01*
X153020000Y-96007469D02*
X153465714Y-96007469D01*
X153465714Y-96007469D02*
X153225714Y-96281755D01*
X153225714Y-96281755D02*
X153328571Y-96281755D01*
X153328571Y-96281755D02*
X153397143Y-96316041D01*
X153397143Y-96316041D02*
X153431428Y-96350326D01*
X153431428Y-96350326D02*
X153465714Y-96418898D01*
X153465714Y-96418898D02*
X153465714Y-96590326D01*
X153465714Y-96590326D02*
X153431428Y-96658898D01*
X153431428Y-96658898D02*
X153397143Y-96693184D01*
X153397143Y-96693184D02*
X153328571Y-96727469D01*
X153328571Y-96727469D02*
X153122857Y-96727469D01*
X153122857Y-96727469D02*
X153054285Y-96693184D01*
X153054285Y-96693184D02*
X153020000Y-96658898D01*
D10*
X158766666Y-87304819D02*
X158766666Y-88019104D01*
X158766666Y-88019104D02*
X158719047Y-88161961D01*
X158719047Y-88161961D02*
X158623809Y-88257200D01*
X158623809Y-88257200D02*
X158480952Y-88304819D01*
X158480952Y-88304819D02*
X158385714Y-88304819D01*
X159766666Y-88304819D02*
X159195238Y-88304819D01*
X159480952Y-88304819D02*
X159480952Y-87304819D01*
X159480952Y-87304819D02*
X159385714Y-87447676D01*
X159385714Y-87447676D02*
X159290476Y-87542914D01*
X159290476Y-87542914D02*
X159195238Y-87590533D01*
X162754819Y-87000000D02*
X162754819Y-87476190D01*
X162754819Y-87476190D02*
X163231009Y-87523809D01*
X163231009Y-87523809D02*
X163183390Y-87476190D01*
X163183390Y-87476190D02*
X163135771Y-87380952D01*
X163135771Y-87380952D02*
X163135771Y-87142857D01*
X163135771Y-87142857D02*
X163183390Y-87047619D01*
X163183390Y-87047619D02*
X163231009Y-87000000D01*
X163231009Y-87000000D02*
X163326247Y-86952381D01*
X163326247Y-86952381D02*
X163564342Y-86952381D01*
X163564342Y-86952381D02*
X163659580Y-87000000D01*
X163659580Y-87000000D02*
X163707200Y-87047619D01*
X163707200Y-87047619D02*
X163754819Y-87142857D01*
X163754819Y-87142857D02*
X163754819Y-87380952D01*
X163754819Y-87380952D02*
X163707200Y-87476190D01*
X163707200Y-87476190D02*
X163659580Y-87523809D01*
X162754819Y-86666666D02*
X163754819Y-86333333D01*
X163754819Y-86333333D02*
X162754819Y-86000000D01*
X163850057Y-85904762D02*
X163850057Y-85142857D01*
X162754819Y-85047618D02*
X163754819Y-84714285D01*
X163754819Y-84714285D02*
X162754819Y-84380952D01*
X163659580Y-83476190D02*
X163707200Y-83523809D01*
X163707200Y-83523809D02*
X163754819Y-83666666D01*
X163754819Y-83666666D02*
X163754819Y-83761904D01*
X163754819Y-83761904D02*
X163707200Y-83904761D01*
X163707200Y-83904761D02*
X163611961Y-83999999D01*
X163611961Y-83999999D02*
X163516723Y-84047618D01*
X163516723Y-84047618D02*
X163326247Y-84095237D01*
X163326247Y-84095237D02*
X163183390Y-84095237D01*
X163183390Y-84095237D02*
X162992914Y-84047618D01*
X162992914Y-84047618D02*
X162897676Y-83999999D01*
X162897676Y-83999999D02*
X162802438Y-83904761D01*
X162802438Y-83904761D02*
X162754819Y-83761904D01*
X162754819Y-83761904D02*
X162754819Y-83666666D01*
X162754819Y-83666666D02*
X162802438Y-83523809D01*
X162802438Y-83523809D02*
X162850057Y-83476190D01*
X163659580Y-82476190D02*
X163707200Y-82523809D01*
X163707200Y-82523809D02*
X163754819Y-82666666D01*
X163754819Y-82666666D02*
X163754819Y-82761904D01*
X163754819Y-82761904D02*
X163707200Y-82904761D01*
X163707200Y-82904761D02*
X163611961Y-82999999D01*
X163611961Y-82999999D02*
X163516723Y-83047618D01*
X163516723Y-83047618D02*
X163326247Y-83095237D01*
X163326247Y-83095237D02*
X163183390Y-83095237D01*
X163183390Y-83095237D02*
X162992914Y-83047618D01*
X162992914Y-83047618D02*
X162897676Y-82999999D01*
X162897676Y-82999999D02*
X162802438Y-82904761D01*
X162802438Y-82904761D02*
X162754819Y-82761904D01*
X162754819Y-82761904D02*
X162754819Y-82666666D01*
X162754819Y-82666666D02*
X162802438Y-82523809D01*
X162802438Y-82523809D02*
X162850057Y-82476190D01*
X159166666Y-102904819D02*
X159166666Y-103619104D01*
X159166666Y-103619104D02*
X159119047Y-103761961D01*
X159119047Y-103761961D02*
X159023809Y-103857200D01*
X159023809Y-103857200D02*
X158880952Y-103904819D01*
X158880952Y-103904819D02*
X158785714Y-103904819D01*
X159595238Y-103000057D02*
X159642857Y-102952438D01*
X159642857Y-102952438D02*
X159738095Y-102904819D01*
X159738095Y-102904819D02*
X159976190Y-102904819D01*
X159976190Y-102904819D02*
X160071428Y-102952438D01*
X160071428Y-102952438D02*
X160119047Y-103000057D01*
X160119047Y-103000057D02*
X160166666Y-103095295D01*
X160166666Y-103095295D02*
X160166666Y-103190533D01*
X160166666Y-103190533D02*
X160119047Y-103333390D01*
X160119047Y-103333390D02*
X159547619Y-103904819D01*
X159547619Y-103904819D02*
X160166666Y-103904819D01*
X161954819Y-103795238D02*
X161954819Y-104271428D01*
X161954819Y-104271428D02*
X162431009Y-104319047D01*
X162431009Y-104319047D02*
X162383390Y-104271428D01*
X162383390Y-104271428D02*
X162335771Y-104176190D01*
X162335771Y-104176190D02*
X162335771Y-103938095D01*
X162335771Y-103938095D02*
X162383390Y-103842857D01*
X162383390Y-103842857D02*
X162431009Y-103795238D01*
X162431009Y-103795238D02*
X162526247Y-103747619D01*
X162526247Y-103747619D02*
X162764342Y-103747619D01*
X162764342Y-103747619D02*
X162859580Y-103795238D01*
X162859580Y-103795238D02*
X162907200Y-103842857D01*
X162907200Y-103842857D02*
X162954819Y-103938095D01*
X162954819Y-103938095D02*
X162954819Y-104176190D01*
X162954819Y-104176190D02*
X162907200Y-104271428D01*
X162907200Y-104271428D02*
X162859580Y-104319047D01*
X161954819Y-103461904D02*
X162954819Y-103128571D01*
X162954819Y-103128571D02*
X161954819Y-102795238D01*
X163050057Y-102700000D02*
X163050057Y-101938095D01*
X162002438Y-101176190D02*
X161954819Y-101271428D01*
X161954819Y-101271428D02*
X161954819Y-101414285D01*
X161954819Y-101414285D02*
X162002438Y-101557142D01*
X162002438Y-101557142D02*
X162097676Y-101652380D01*
X162097676Y-101652380D02*
X162192914Y-101699999D01*
X162192914Y-101699999D02*
X162383390Y-101747618D01*
X162383390Y-101747618D02*
X162526247Y-101747618D01*
X162526247Y-101747618D02*
X162716723Y-101699999D01*
X162716723Y-101699999D02*
X162811961Y-101652380D01*
X162811961Y-101652380D02*
X162907200Y-101557142D01*
X162907200Y-101557142D02*
X162954819Y-101414285D01*
X162954819Y-101414285D02*
X162954819Y-101319047D01*
X162954819Y-101319047D02*
X162907200Y-101176190D01*
X162907200Y-101176190D02*
X162859580Y-101128571D01*
X162859580Y-101128571D02*
X162526247Y-101128571D01*
X162526247Y-101128571D02*
X162526247Y-101319047D01*
X162954819Y-100699999D02*
X161954819Y-100699999D01*
X161954819Y-100699999D02*
X162954819Y-100128571D01*
X162954819Y-100128571D02*
X161954819Y-100128571D01*
X162954819Y-99652380D02*
X161954819Y-99652380D01*
X161954819Y-99652380D02*
X161954819Y-99414285D01*
X161954819Y-99414285D02*
X162002438Y-99271428D01*
X162002438Y-99271428D02*
X162097676Y-99176190D01*
X162097676Y-99176190D02*
X162192914Y-99128571D01*
X162192914Y-99128571D02*
X162383390Y-99080952D01*
X162383390Y-99080952D02*
X162526247Y-99080952D01*
X162526247Y-99080952D02*
X162716723Y-99128571D01*
X162716723Y-99128571D02*
X162811961Y-99176190D01*
X162811961Y-99176190D02*
X162907200Y-99271428D01*
X162907200Y-99271428D02*
X162954819Y-99414285D01*
X162954819Y-99414285D02*
X162954819Y-99652380D01*
D11*
X152780000Y-91827469D02*
X152540000Y-91484612D01*
X152368571Y-91827469D02*
X152368571Y-91107469D01*
X152368571Y-91107469D02*
X152642857Y-91107469D01*
X152642857Y-91107469D02*
X152711428Y-91141755D01*
X152711428Y-91141755D02*
X152745714Y-91176041D01*
X152745714Y-91176041D02*
X152780000Y-91244612D01*
X152780000Y-91244612D02*
X152780000Y-91347469D01*
X152780000Y-91347469D02*
X152745714Y-91416041D01*
X152745714Y-91416041D02*
X152711428Y-91450326D01*
X152711428Y-91450326D02*
X152642857Y-91484612D01*
X152642857Y-91484612D02*
X152368571Y-91484612D01*
X153431428Y-91107469D02*
X153088571Y-91107469D01*
X153088571Y-91107469D02*
X153054285Y-91450326D01*
X153054285Y-91450326D02*
X153088571Y-91416041D01*
X153088571Y-91416041D02*
X153157143Y-91381755D01*
X153157143Y-91381755D02*
X153328571Y-91381755D01*
X153328571Y-91381755D02*
X153397143Y-91416041D01*
X153397143Y-91416041D02*
X153431428Y-91450326D01*
X153431428Y-91450326D02*
X153465714Y-91518898D01*
X153465714Y-91518898D02*
X153465714Y-91690326D01*
X153465714Y-91690326D02*
X153431428Y-91758898D01*
X153431428Y-91758898D02*
X153397143Y-91793184D01*
X153397143Y-91793184D02*
X153328571Y-91827469D01*
X153328571Y-91827469D02*
X153157143Y-91827469D01*
X153157143Y-91827469D02*
X153088571Y-91793184D01*
X153088571Y-91793184D02*
X153054285Y-91758898D01*
X152780000Y-94227469D02*
X152540000Y-93884612D01*
X152368571Y-94227469D02*
X152368571Y-93507469D01*
X152368571Y-93507469D02*
X152642857Y-93507469D01*
X152642857Y-93507469D02*
X152711428Y-93541755D01*
X152711428Y-93541755D02*
X152745714Y-93576041D01*
X152745714Y-93576041D02*
X152780000Y-93644612D01*
X152780000Y-93644612D02*
X152780000Y-93747469D01*
X152780000Y-93747469D02*
X152745714Y-93816041D01*
X152745714Y-93816041D02*
X152711428Y-93850326D01*
X152711428Y-93850326D02*
X152642857Y-93884612D01*
X152642857Y-93884612D02*
X152368571Y-93884612D01*
X153397143Y-93747469D02*
X153397143Y-94227469D01*
X153225714Y-93473184D02*
X153054285Y-93987469D01*
X153054285Y-93987469D02*
X153500000Y-93987469D01*
D10*
X151179819Y-110983333D02*
X151894104Y-110983333D01*
X151894104Y-110983333D02*
X152036961Y-111030952D01*
X152036961Y-111030952D02*
X152132200Y-111126190D01*
X152132200Y-111126190D02*
X152179819Y-111269047D01*
X152179819Y-111269047D02*
X152179819Y-111364285D01*
X151513152Y-110078571D02*
X152179819Y-110078571D01*
X151132200Y-110316666D02*
X151846485Y-110554761D01*
X151846485Y-110554761D02*
X151846485Y-109935714D01*
D11*
X153080000Y-89227469D02*
X152840000Y-88884612D01*
X152668571Y-89227469D02*
X152668571Y-88507469D01*
X152668571Y-88507469D02*
X152942857Y-88507469D01*
X152942857Y-88507469D02*
X153011428Y-88541755D01*
X153011428Y-88541755D02*
X153045714Y-88576041D01*
X153045714Y-88576041D02*
X153080000Y-88644612D01*
X153080000Y-88644612D02*
X153080000Y-88747469D01*
X153080000Y-88747469D02*
X153045714Y-88816041D01*
X153045714Y-88816041D02*
X153011428Y-88850326D01*
X153011428Y-88850326D02*
X152942857Y-88884612D01*
X152942857Y-88884612D02*
X152668571Y-88884612D01*
X153697143Y-88507469D02*
X153560000Y-88507469D01*
X153560000Y-88507469D02*
X153491428Y-88541755D01*
X153491428Y-88541755D02*
X153457143Y-88576041D01*
X153457143Y-88576041D02*
X153388571Y-88678898D01*
X153388571Y-88678898D02*
X153354285Y-88816041D01*
X153354285Y-88816041D02*
X153354285Y-89090326D01*
X153354285Y-89090326D02*
X153388571Y-89158898D01*
X153388571Y-89158898D02*
X153422857Y-89193184D01*
X153422857Y-89193184D02*
X153491428Y-89227469D01*
X153491428Y-89227469D02*
X153628571Y-89227469D01*
X153628571Y-89227469D02*
X153697143Y-89193184D01*
X153697143Y-89193184D02*
X153731428Y-89158898D01*
X153731428Y-89158898D02*
X153765714Y-89090326D01*
X153765714Y-89090326D02*
X153765714Y-88918898D01*
X153765714Y-88918898D02*
X153731428Y-88850326D01*
X153731428Y-88850326D02*
X153697143Y-88816041D01*
X153697143Y-88816041D02*
X153628571Y-88781755D01*
X153628571Y-88781755D02*
X153491428Y-88781755D01*
X153491428Y-88781755D02*
X153422857Y-88816041D01*
X153422857Y-88816041D02*
X153388571Y-88850326D01*
X153388571Y-88850326D02*
X153354285Y-88918898D01*
D10*
X105038095Y-121554819D02*
X105038095Y-120554819D01*
X105038095Y-121031009D02*
X105609523Y-121031009D01*
X105609523Y-121554819D02*
X105609523Y-120554819D01*
X106609523Y-121554819D02*
X106038095Y-121554819D01*
X106323809Y-121554819D02*
X106323809Y-120554819D01*
X106323809Y-120554819D02*
X106228571Y-120697676D01*
X106228571Y-120697676D02*
X106133333Y-120792914D01*
X106133333Y-120792914D02*
X106038095Y-120840533D01*
X138591666Y-120054819D02*
X138591666Y-120769104D01*
X138591666Y-120769104D02*
X138544047Y-120911961D01*
X138544047Y-120911961D02*
X138448809Y-121007200D01*
X138448809Y-121007200D02*
X138305952Y-121054819D01*
X138305952Y-121054819D02*
X138210714Y-121054819D01*
X139496428Y-120054819D02*
X139305952Y-120054819D01*
X139305952Y-120054819D02*
X139210714Y-120102438D01*
X139210714Y-120102438D02*
X139163095Y-120150057D01*
X139163095Y-120150057D02*
X139067857Y-120292914D01*
X139067857Y-120292914D02*
X139020238Y-120483390D01*
X139020238Y-120483390D02*
X139020238Y-120864342D01*
X139020238Y-120864342D02*
X139067857Y-120959580D01*
X139067857Y-120959580D02*
X139115476Y-121007200D01*
X139115476Y-121007200D02*
X139210714Y-121054819D01*
X139210714Y-121054819D02*
X139401190Y-121054819D01*
X139401190Y-121054819D02*
X139496428Y-121007200D01*
X139496428Y-121007200D02*
X139544047Y-120959580D01*
X139544047Y-120959580D02*
X139591666Y-120864342D01*
X139591666Y-120864342D02*
X139591666Y-120626247D01*
X139591666Y-120626247D02*
X139544047Y-120531009D01*
X139544047Y-120531009D02*
X139496428Y-120483390D01*
X139496428Y-120483390D02*
X139401190Y-120435771D01*
X139401190Y-120435771D02*
X139210714Y-120435771D01*
X139210714Y-120435771D02*
X139115476Y-120483390D01*
X139115476Y-120483390D02*
X139067857Y-120531009D01*
X139067857Y-120531009D02*
X139020238Y-120626247D01*
X142780952Y-121054819D02*
X142780952Y-120054819D01*
X142780952Y-120054819D02*
X143114285Y-120769104D01*
X143114285Y-120769104D02*
X143447618Y-120054819D01*
X143447618Y-120054819D02*
X143447618Y-121054819D01*
X143876190Y-120769104D02*
X144352380Y-120769104D01*
X143780952Y-121054819D02*
X144114285Y-120054819D01*
X144114285Y-120054819D02*
X144447618Y-121054819D01*
X144685714Y-120054819D02*
X145352380Y-121054819D01*
X145352380Y-120054819D02*
X144685714Y-121054819D01*
X145780952Y-121054819D02*
X145971428Y-121054819D01*
X145971428Y-121054819D02*
X146066666Y-121007200D01*
X146066666Y-121007200D02*
X146114285Y-120959580D01*
X146114285Y-120959580D02*
X146209523Y-120816723D01*
X146209523Y-120816723D02*
X146257142Y-120626247D01*
X146257142Y-120626247D02*
X146257142Y-120245295D01*
X146257142Y-120245295D02*
X146209523Y-120150057D01*
X146209523Y-120150057D02*
X146161904Y-120102438D01*
X146161904Y-120102438D02*
X146066666Y-120054819D01*
X146066666Y-120054819D02*
X145876190Y-120054819D01*
X145876190Y-120054819D02*
X145780952Y-120102438D01*
X145780952Y-120102438D02*
X145733333Y-120150057D01*
X145733333Y-120150057D02*
X145685714Y-120245295D01*
X145685714Y-120245295D02*
X145685714Y-120483390D01*
X145685714Y-120483390D02*
X145733333Y-120578628D01*
X145733333Y-120578628D02*
X145780952Y-120626247D01*
X145780952Y-120626247D02*
X145876190Y-120673866D01*
X145876190Y-120673866D02*
X146066666Y-120673866D01*
X146066666Y-120673866D02*
X146161904Y-120626247D01*
X146161904Y-120626247D02*
X146209523Y-120578628D01*
X146209523Y-120578628D02*
X146257142Y-120483390D01*
X146828571Y-120483390D02*
X146733333Y-120435771D01*
X146733333Y-120435771D02*
X146685714Y-120388152D01*
X146685714Y-120388152D02*
X146638095Y-120292914D01*
X146638095Y-120292914D02*
X146638095Y-120245295D01*
X146638095Y-120245295D02*
X146685714Y-120150057D01*
X146685714Y-120150057D02*
X146733333Y-120102438D01*
X146733333Y-120102438D02*
X146828571Y-120054819D01*
X146828571Y-120054819D02*
X147019047Y-120054819D01*
X147019047Y-120054819D02*
X147114285Y-120102438D01*
X147114285Y-120102438D02*
X147161904Y-120150057D01*
X147161904Y-120150057D02*
X147209523Y-120245295D01*
X147209523Y-120245295D02*
X147209523Y-120292914D01*
X147209523Y-120292914D02*
X147161904Y-120388152D01*
X147161904Y-120388152D02*
X147114285Y-120435771D01*
X147114285Y-120435771D02*
X147019047Y-120483390D01*
X147019047Y-120483390D02*
X146828571Y-120483390D01*
X146828571Y-120483390D02*
X146733333Y-120531009D01*
X146733333Y-120531009D02*
X146685714Y-120578628D01*
X146685714Y-120578628D02*
X146638095Y-120673866D01*
X146638095Y-120673866D02*
X146638095Y-120864342D01*
X146638095Y-120864342D02*
X146685714Y-120959580D01*
X146685714Y-120959580D02*
X146733333Y-121007200D01*
X146733333Y-121007200D02*
X146828571Y-121054819D01*
X146828571Y-121054819D02*
X147019047Y-121054819D01*
X147019047Y-121054819D02*
X147114285Y-121007200D01*
X147114285Y-121007200D02*
X147161904Y-120959580D01*
X147161904Y-120959580D02*
X147209523Y-120864342D01*
X147209523Y-120864342D02*
X147209523Y-120673866D01*
X147209523Y-120673866D02*
X147161904Y-120578628D01*
X147161904Y-120578628D02*
X147114285Y-120531009D01*
X147114285Y-120531009D02*
X147019047Y-120483390D01*
X147542857Y-120054819D02*
X148161904Y-120054819D01*
X148161904Y-120054819D02*
X147828571Y-120435771D01*
X147828571Y-120435771D02*
X147971428Y-120435771D01*
X147971428Y-120435771D02*
X148066666Y-120483390D01*
X148066666Y-120483390D02*
X148114285Y-120531009D01*
X148114285Y-120531009D02*
X148161904Y-120626247D01*
X148161904Y-120626247D02*
X148161904Y-120864342D01*
X148161904Y-120864342D02*
X148114285Y-120959580D01*
X148114285Y-120959580D02*
X148066666Y-121007200D01*
X148066666Y-121007200D02*
X147971428Y-121054819D01*
X147971428Y-121054819D02*
X147685714Y-121054819D01*
X147685714Y-121054819D02*
X147590476Y-121007200D01*
X147590476Y-121007200D02*
X147542857Y-120959580D01*
X148495238Y-120054819D02*
X149161904Y-120054819D01*
X149161904Y-120054819D02*
X148733333Y-121054819D01*
X150019047Y-120054819D02*
X149542857Y-120054819D01*
X149542857Y-120054819D02*
X149495238Y-120531009D01*
X149495238Y-120531009D02*
X149542857Y-120483390D01*
X149542857Y-120483390D02*
X149638095Y-120435771D01*
X149638095Y-120435771D02*
X149876190Y-120435771D01*
X149876190Y-120435771D02*
X149971428Y-120483390D01*
X149971428Y-120483390D02*
X150019047Y-120531009D01*
X150019047Y-120531009D02*
X150066666Y-120626247D01*
X150066666Y-120626247D02*
X150066666Y-120864342D01*
X150066666Y-120864342D02*
X150019047Y-120959580D01*
X150019047Y-120959580D02*
X149971428Y-121007200D01*
X149971428Y-121007200D02*
X149876190Y-121054819D01*
X149876190Y-121054819D02*
X149638095Y-121054819D01*
X149638095Y-121054819D02*
X149542857Y-121007200D01*
X149542857Y-121007200D02*
X149495238Y-120959580D01*
X164109580Y-109463966D02*
X164157200Y-109511585D01*
X164157200Y-109511585D02*
X164204819Y-109654442D01*
X164204819Y-109654442D02*
X164204819Y-109749680D01*
X164204819Y-109749680D02*
X164157200Y-109892537D01*
X164157200Y-109892537D02*
X164061961Y-109987775D01*
X164061961Y-109987775D02*
X163966723Y-110035394D01*
X163966723Y-110035394D02*
X163776247Y-110083013D01*
X163776247Y-110083013D02*
X163633390Y-110083013D01*
X163633390Y-110083013D02*
X163442914Y-110035394D01*
X163442914Y-110035394D02*
X163347676Y-109987775D01*
X163347676Y-109987775D02*
X163252438Y-109892537D01*
X163252438Y-109892537D02*
X163204819Y-109749680D01*
X163204819Y-109749680D02*
X163204819Y-109654442D01*
X163204819Y-109654442D02*
X163252438Y-109511585D01*
X163252438Y-109511585D02*
X163300057Y-109463966D01*
X164204819Y-108511585D02*
X164204819Y-109083013D01*
X164204819Y-108797299D02*
X163204819Y-108797299D01*
X163204819Y-108797299D02*
X163347676Y-108892537D01*
X163347676Y-108892537D02*
X163442914Y-108987775D01*
X163442914Y-108987775D02*
X163490533Y-109083013D01*
X120538095Y-124804819D02*
X120538095Y-125614342D01*
X120538095Y-125614342D02*
X120585714Y-125709580D01*
X120585714Y-125709580D02*
X120633333Y-125757200D01*
X120633333Y-125757200D02*
X120728571Y-125804819D01*
X120728571Y-125804819D02*
X120919047Y-125804819D01*
X120919047Y-125804819D02*
X121014285Y-125757200D01*
X121014285Y-125757200D02*
X121061904Y-125709580D01*
X121061904Y-125709580D02*
X121109523Y-125614342D01*
X121109523Y-125614342D02*
X121109523Y-124804819D01*
X121490476Y-124804819D02*
X122109523Y-124804819D01*
X122109523Y-124804819D02*
X121776190Y-125185771D01*
X121776190Y-125185771D02*
X121919047Y-125185771D01*
X121919047Y-125185771D02*
X122014285Y-125233390D01*
X122014285Y-125233390D02*
X122061904Y-125281009D01*
X122061904Y-125281009D02*
X122109523Y-125376247D01*
X122109523Y-125376247D02*
X122109523Y-125614342D01*
X122109523Y-125614342D02*
X122061904Y-125709580D01*
X122061904Y-125709580D02*
X122014285Y-125757200D01*
X122014285Y-125757200D02*
X121919047Y-125804819D01*
X121919047Y-125804819D02*
X121633333Y-125804819D01*
X121633333Y-125804819D02*
X121538095Y-125757200D01*
X121538095Y-125757200D02*
X121490476Y-125709580D01*
X157938095Y-121054819D02*
X157938095Y-120054819D01*
X157938095Y-120531009D02*
X158509523Y-120531009D01*
X158509523Y-121054819D02*
X158509523Y-120054819D01*
X159414285Y-120388152D02*
X159414285Y-121054819D01*
X159176190Y-120007200D02*
X158938095Y-120721485D01*
X158938095Y-120721485D02*
X159557142Y-120721485D01*
X156704819Y-62683333D02*
X157419104Y-62683333D01*
X157419104Y-62683333D02*
X157561961Y-62730952D01*
X157561961Y-62730952D02*
X157657200Y-62826190D01*
X157657200Y-62826190D02*
X157704819Y-62969047D01*
X157704819Y-62969047D02*
X157704819Y-63064285D01*
X156704819Y-61730952D02*
X156704819Y-62207142D01*
X156704819Y-62207142D02*
X157181009Y-62254761D01*
X157181009Y-62254761D02*
X157133390Y-62207142D01*
X157133390Y-62207142D02*
X157085771Y-62111904D01*
X157085771Y-62111904D02*
X157085771Y-61873809D01*
X157085771Y-61873809D02*
X157133390Y-61778571D01*
X157133390Y-61778571D02*
X157181009Y-61730952D01*
X157181009Y-61730952D02*
X157276247Y-61683333D01*
X157276247Y-61683333D02*
X157514342Y-61683333D01*
X157514342Y-61683333D02*
X157609580Y-61730952D01*
X157609580Y-61730952D02*
X157657200Y-61778571D01*
X157657200Y-61778571D02*
X157704819Y-61873809D01*
X157704819Y-61873809D02*
X157704819Y-62111904D01*
X157704819Y-62111904D02*
X157657200Y-62207142D01*
X157657200Y-62207142D02*
X157609580Y-62254761D01*
X163107200Y-63328571D02*
X163154819Y-63185714D01*
X163154819Y-63185714D02*
X163154819Y-62947619D01*
X163154819Y-62947619D02*
X163107200Y-62852381D01*
X163107200Y-62852381D02*
X163059580Y-62804762D01*
X163059580Y-62804762D02*
X162964342Y-62757143D01*
X162964342Y-62757143D02*
X162869104Y-62757143D01*
X162869104Y-62757143D02*
X162773866Y-62804762D01*
X162773866Y-62804762D02*
X162726247Y-62852381D01*
X162726247Y-62852381D02*
X162678628Y-62947619D01*
X162678628Y-62947619D02*
X162631009Y-63138095D01*
X162631009Y-63138095D02*
X162583390Y-63233333D01*
X162583390Y-63233333D02*
X162535771Y-63280952D01*
X162535771Y-63280952D02*
X162440533Y-63328571D01*
X162440533Y-63328571D02*
X162345295Y-63328571D01*
X162345295Y-63328571D02*
X162250057Y-63280952D01*
X162250057Y-63280952D02*
X162202438Y-63233333D01*
X162202438Y-63233333D02*
X162154819Y-63138095D01*
X162154819Y-63138095D02*
X162154819Y-62900000D01*
X162154819Y-62900000D02*
X162202438Y-62757143D01*
X162154819Y-62471428D02*
X162154819Y-61900000D01*
X163154819Y-62185714D02*
X162154819Y-62185714D01*
X162154819Y-61661904D02*
X162154819Y-60995238D01*
X162154819Y-60995238D02*
X163154819Y-61423809D01*
X162154819Y-60709523D02*
X162154819Y-60042857D01*
X162154819Y-60042857D02*
X163154819Y-60471428D01*
X162583390Y-59519047D02*
X162535771Y-59614285D01*
X162535771Y-59614285D02*
X162488152Y-59661904D01*
X162488152Y-59661904D02*
X162392914Y-59709523D01*
X162392914Y-59709523D02*
X162345295Y-59709523D01*
X162345295Y-59709523D02*
X162250057Y-59661904D01*
X162250057Y-59661904D02*
X162202438Y-59614285D01*
X162202438Y-59614285D02*
X162154819Y-59519047D01*
X162154819Y-59519047D02*
X162154819Y-59328571D01*
X162154819Y-59328571D02*
X162202438Y-59233333D01*
X162202438Y-59233333D02*
X162250057Y-59185714D01*
X162250057Y-59185714D02*
X162345295Y-59138095D01*
X162345295Y-59138095D02*
X162392914Y-59138095D01*
X162392914Y-59138095D02*
X162488152Y-59185714D01*
X162488152Y-59185714D02*
X162535771Y-59233333D01*
X162535771Y-59233333D02*
X162583390Y-59328571D01*
X162583390Y-59328571D02*
X162583390Y-59519047D01*
X162583390Y-59519047D02*
X162631009Y-59614285D01*
X162631009Y-59614285D02*
X162678628Y-59661904D01*
X162678628Y-59661904D02*
X162773866Y-59709523D01*
X162773866Y-59709523D02*
X162964342Y-59709523D01*
X162964342Y-59709523D02*
X163059580Y-59661904D01*
X163059580Y-59661904D02*
X163107200Y-59614285D01*
X163107200Y-59614285D02*
X163154819Y-59519047D01*
X163154819Y-59519047D02*
X163154819Y-59328571D01*
X163154819Y-59328571D02*
X163107200Y-59233333D01*
X163107200Y-59233333D02*
X163059580Y-59185714D01*
X163059580Y-59185714D02*
X162964342Y-59138095D01*
X162964342Y-59138095D02*
X162773866Y-59138095D01*
X162773866Y-59138095D02*
X162678628Y-59185714D01*
X162678628Y-59185714D02*
X162631009Y-59233333D01*
X162631009Y-59233333D02*
X162583390Y-59328571D01*
X163154819Y-58661904D02*
X163154819Y-58471428D01*
X163154819Y-58471428D02*
X163107200Y-58376190D01*
X163107200Y-58376190D02*
X163059580Y-58328571D01*
X163059580Y-58328571D02*
X162916723Y-58233333D01*
X162916723Y-58233333D02*
X162726247Y-58185714D01*
X162726247Y-58185714D02*
X162345295Y-58185714D01*
X162345295Y-58185714D02*
X162250057Y-58233333D01*
X162250057Y-58233333D02*
X162202438Y-58280952D01*
X162202438Y-58280952D02*
X162154819Y-58376190D01*
X162154819Y-58376190D02*
X162154819Y-58566666D01*
X162154819Y-58566666D02*
X162202438Y-58661904D01*
X162202438Y-58661904D02*
X162250057Y-58709523D01*
X162250057Y-58709523D02*
X162345295Y-58757142D01*
X162345295Y-58757142D02*
X162583390Y-58757142D01*
X162583390Y-58757142D02*
X162678628Y-58709523D01*
X162678628Y-58709523D02*
X162726247Y-58661904D01*
X162726247Y-58661904D02*
X162773866Y-58566666D01*
X162773866Y-58566666D02*
X162773866Y-58376190D01*
X162773866Y-58376190D02*
X162726247Y-58280952D01*
X162726247Y-58280952D02*
X162678628Y-58233333D01*
X162678628Y-58233333D02*
X162583390Y-58185714D01*
X162488152Y-57852380D02*
X163154819Y-57614285D01*
X163154819Y-57614285D02*
X162488152Y-57376190D01*
X162250057Y-57042856D02*
X162202438Y-56995237D01*
X162202438Y-56995237D02*
X162154819Y-56899999D01*
X162154819Y-56899999D02*
X162154819Y-56661904D01*
X162154819Y-56661904D02*
X162202438Y-56566666D01*
X162202438Y-56566666D02*
X162250057Y-56519047D01*
X162250057Y-56519047D02*
X162345295Y-56471428D01*
X162345295Y-56471428D02*
X162440533Y-56471428D01*
X162440533Y-56471428D02*
X162583390Y-56519047D01*
X162583390Y-56519047D02*
X163154819Y-57090475D01*
X163154819Y-57090475D02*
X163154819Y-56471428D01*
X140854819Y-96861904D02*
X141664342Y-96861904D01*
X141664342Y-96861904D02*
X141759580Y-96814285D01*
X141759580Y-96814285D02*
X141807200Y-96766666D01*
X141807200Y-96766666D02*
X141854819Y-96671428D01*
X141854819Y-96671428D02*
X141854819Y-96480952D01*
X141854819Y-96480952D02*
X141807200Y-96385714D01*
X141807200Y-96385714D02*
X141759580Y-96338095D01*
X141759580Y-96338095D02*
X141664342Y-96290476D01*
X141664342Y-96290476D02*
X140854819Y-96290476D01*
X140950057Y-95861904D02*
X140902438Y-95814285D01*
X140902438Y-95814285D02*
X140854819Y-95719047D01*
X140854819Y-95719047D02*
X140854819Y-95480952D01*
X140854819Y-95480952D02*
X140902438Y-95385714D01*
X140902438Y-95385714D02*
X140950057Y-95338095D01*
X140950057Y-95338095D02*
X141045295Y-95290476D01*
X141045295Y-95290476D02*
X141140533Y-95290476D01*
X141140533Y-95290476D02*
X141283390Y-95338095D01*
X141283390Y-95338095D02*
X141854819Y-95909523D01*
X141854819Y-95909523D02*
X141854819Y-95290476D01*
X105138095Y-43654819D02*
X105138095Y-42654819D01*
X105138095Y-43131009D02*
X105709523Y-43131009D01*
X105709523Y-43654819D02*
X105709523Y-42654819D01*
X106138095Y-42750057D02*
X106185714Y-42702438D01*
X106185714Y-42702438D02*
X106280952Y-42654819D01*
X106280952Y-42654819D02*
X106519047Y-42654819D01*
X106519047Y-42654819D02*
X106614285Y-42702438D01*
X106614285Y-42702438D02*
X106661904Y-42750057D01*
X106661904Y-42750057D02*
X106709523Y-42845295D01*
X106709523Y-42845295D02*
X106709523Y-42940533D01*
X106709523Y-42940533D02*
X106661904Y-43083390D01*
X106661904Y-43083390D02*
X106090476Y-43654819D01*
X106090476Y-43654819D02*
X106709523Y-43654819D01*
X160138095Y-44654819D02*
X160138095Y-43654819D01*
X160138095Y-44131009D02*
X160709523Y-44131009D01*
X160709523Y-44654819D02*
X160709523Y-43654819D01*
X161090476Y-43654819D02*
X161709523Y-43654819D01*
X161709523Y-43654819D02*
X161376190Y-44035771D01*
X161376190Y-44035771D02*
X161519047Y-44035771D01*
X161519047Y-44035771D02*
X161614285Y-44083390D01*
X161614285Y-44083390D02*
X161661904Y-44131009D01*
X161661904Y-44131009D02*
X161709523Y-44226247D01*
X161709523Y-44226247D02*
X161709523Y-44464342D01*
X161709523Y-44464342D02*
X161661904Y-44559580D01*
X161661904Y-44559580D02*
X161614285Y-44607200D01*
X161614285Y-44607200D02*
X161519047Y-44654819D01*
X161519047Y-44654819D02*
X161233333Y-44654819D01*
X161233333Y-44654819D02*
X161138095Y-44607200D01*
X161138095Y-44607200D02*
X161090476Y-44559580D01*
D11*
X153080000Y-99327469D02*
X152840000Y-98984612D01*
X152668571Y-99327469D02*
X152668571Y-98607469D01*
X152668571Y-98607469D02*
X152942857Y-98607469D01*
X152942857Y-98607469D02*
X153011428Y-98641755D01*
X153011428Y-98641755D02*
X153045714Y-98676041D01*
X153045714Y-98676041D02*
X153080000Y-98744612D01*
X153080000Y-98744612D02*
X153080000Y-98847469D01*
X153080000Y-98847469D02*
X153045714Y-98916041D01*
X153045714Y-98916041D02*
X153011428Y-98950326D01*
X153011428Y-98950326D02*
X152942857Y-98984612D01*
X152942857Y-98984612D02*
X152668571Y-98984612D01*
X153354285Y-98676041D02*
X153388571Y-98641755D01*
X153388571Y-98641755D02*
X153457143Y-98607469D01*
X153457143Y-98607469D02*
X153628571Y-98607469D01*
X153628571Y-98607469D02*
X153697143Y-98641755D01*
X153697143Y-98641755D02*
X153731428Y-98676041D01*
X153731428Y-98676041D02*
X153765714Y-98744612D01*
X153765714Y-98744612D02*
X153765714Y-98813184D01*
X153765714Y-98813184D02*
X153731428Y-98916041D01*
X153731428Y-98916041D02*
X153320000Y-99327469D01*
X153320000Y-99327469D02*
X153765714Y-99327469D01*
D12*
X103800694Y-48500000D02*
G75*
G02*
X100199306Y-48500000I-1800694J0D01*
G01*
X100199306Y-48500000D02*
G75*
G02*
X103800694Y-48500000I1800694J0D01*
G01*
X103800694Y-53500000D02*
G75*
G02*
X100199306Y-53500000I-1800694J0D01*
G01*
X100199306Y-53500000D02*
G75*
G02*
X103800694Y-53500000I1800694J0D01*
G01*
X103800694Y-61000000D02*
G75*
G02*
X100199306Y-61000000I-1800694J0D01*
G01*
X100199306Y-61000000D02*
G75*
G02*
X103800694Y-61000000I1800694J0D01*
G01*
X103800694Y-83500000D02*
G75*
G02*
X100199306Y-83500000I-1800694J0D01*
G01*
X100199306Y-83500000D02*
G75*
G02*
X103800694Y-83500000I1800694J0D01*
G01*
X103800694Y-88500000D02*
G75*
G02*
X100199306Y-88500000I-1800694J0D01*
G01*
X100199306Y-88500000D02*
G75*
G02*
X103800694Y-88500000I1800694J0D01*
G01*
X103800694Y-93500000D02*
G75*
G02*
X100199306Y-93500000I-1800694J0D01*
G01*
X100199306Y-93500000D02*
G75*
G02*
X103800694Y-93500000I1800694J0D01*
G01*
X103800694Y-98500000D02*
G75*
G02*
X100199306Y-98500000I-1800694J0D01*
G01*
X100199306Y-98500000D02*
G75*
G02*
X103800694Y-98500000I1800694J0D01*
G01*
X103800694Y-106000000D02*
G75*
G02*
X100199306Y-106000000I-1800694J0D01*
G01*
X100199306Y-106000000D02*
G75*
G02*
X103800694Y-106000000I1800694J0D01*
G01*
X156725000Y-97400000D02*
X156725000Y-98650000D01*
X156725000Y-98650000D02*
X157975000Y-98650000D01*
X157015000Y-88240000D02*
X157015000Y-98360000D01*
X157015000Y-98360000D02*
X162985000Y-98360000D01*
X157025000Y-88250000D02*
X157025000Y-90050000D01*
X157025000Y-90050000D02*
X157775000Y-90050000D01*
X157025000Y-91550000D02*
X157025000Y-95050000D01*
X157025000Y-95050000D02*
X157775000Y-95050000D01*
X157025000Y-96550000D02*
X157025000Y-98350000D01*
X157025000Y-98350000D02*
X157775000Y-98350000D01*
X157775000Y-88250000D02*
X157025000Y-88250000D01*
X157775000Y-90050000D02*
X157775000Y-88250000D01*
X157775000Y-91550000D02*
X157025000Y-91550000D01*
X157775000Y-95050000D02*
X157775000Y-91550000D01*
X157775000Y-96550000D02*
X157025000Y-96550000D01*
X157775000Y-98350000D02*
X157775000Y-96550000D01*
X159275000Y-88250000D02*
X159275000Y-89000000D01*
X159275000Y-89000000D02*
X162225000Y-89000000D01*
X159275000Y-97600000D02*
X162225000Y-97600000D01*
X159275000Y-98350000D02*
X159275000Y-97600000D01*
X162225000Y-89000000D02*
X162225000Y-93300000D01*
X162225000Y-97600000D02*
X162225000Y-93300000D01*
X162985000Y-88240000D02*
X157015000Y-88240000D01*
X162985000Y-98360000D02*
X162985000Y-88240000D01*
X107000000Y-37000000D02*
X107000000Y-75600000D01*
X107000000Y-75600000D02*
X157600000Y-75600000D01*
D13*
X110900000Y-41300000D02*
X110900000Y-71300000D01*
X110900000Y-71300000D02*
X117900000Y-71300000D01*
X117900000Y-41300000D02*
X110900000Y-41300000D01*
X117900000Y-71300000D02*
X117900000Y-41300000D01*
D14*
X119700000Y-40300000D02*
X138500000Y-40300000D01*
X119700000Y-55400000D02*
X119700000Y-40300000D01*
X119700000Y-57200000D02*
X138500000Y-57200000D01*
X119700000Y-72300000D02*
X119700000Y-57200000D01*
D12*
X132300000Y-37000000D02*
X107000000Y-37000000D01*
D14*
X138500000Y-40300000D02*
X138500000Y-55400000D01*
X138500000Y-55400000D02*
X119700000Y-55400000D01*
X138500000Y-57200000D02*
X138500000Y-72300000D01*
X138500000Y-72300000D02*
X119700000Y-72300000D01*
D12*
X157600000Y-37000000D02*
X132300000Y-37000000D01*
X157600000Y-75600000D02*
X157600000Y-37000000D01*
X111300000Y-40500000D02*
G75*
G02*
X108700000Y-40500000I-1300000J0D01*
G01*
X108700000Y-40500000D02*
G75*
G02*
X111300000Y-40500000I1300000J0D01*
G01*
X111800000Y-72100000D02*
G75*
G02*
X109200000Y-72100000I-1300000J0D01*
G01*
X109200000Y-72100000D02*
G75*
G02*
X111800000Y-72100000I1300000J0D01*
G01*
X155400000Y-40500000D02*
G75*
G02*
X152800000Y-40500000I-1300000J0D01*
G01*
X152800000Y-40500000D02*
G75*
G02*
X155400000Y-40500000I1300000J0D01*
G01*
X155400000Y-72100000D02*
G75*
G02*
X152800000Y-72100000I-1300000J0D01*
G01*
X152800000Y-72100000D02*
G75*
G02*
X155400000Y-72100000I1300000J0D01*
G01*
X103800694Y-76000000D02*
G75*
G02*
X100199306Y-76000000I-1800694J0D01*
G01*
X100199306Y-76000000D02*
G75*
G02*
X103800694Y-76000000I1800694J0D01*
G01*
X103800694Y-71000000D02*
G75*
G02*
X100199306Y-71000000I-1800694J0D01*
G01*
X100199306Y-71000000D02*
G75*
G02*
X103800694Y-71000000I1800694J0D01*
G01*
X146020000Y-114800000D02*
X146970000Y-114800000D01*
X146970000Y-113880000D02*
X146970000Y-115720000D01*
X146970000Y-115720000D02*
X150810000Y-115720000D01*
X150810000Y-113880000D02*
X146970000Y-113880000D01*
X150810000Y-115720000D02*
X150810000Y-113880000D01*
X151760000Y-114800000D02*
X150810000Y-114800000D01*
X139430000Y-115450000D02*
X143030000Y-115450000D01*
X139391522Y-115438478D02*
G75*
G02*
X141230000Y-110999999I1838478J1838478D01*
G01*
X141230000Y-111000000D02*
G75*
G02*
X143068478Y-115438478I0J-2600000D01*
G01*
X149120000Y-76800000D02*
X150070000Y-76800000D01*
X150070000Y-75880000D02*
X150070000Y-77720000D01*
X150070000Y-77720000D02*
X153910000Y-77720000D01*
X153910000Y-75880000D02*
X150070000Y-75880000D01*
X153910000Y-77720000D02*
X153910000Y-75880000D01*
X154860000Y-76800000D02*
X153910000Y-76800000D01*
X149120000Y-79000000D02*
X150070000Y-79000000D01*
X150070000Y-78080000D02*
X150070000Y-79920000D01*
X150070000Y-79920000D02*
X153910000Y-79920000D01*
X153910000Y-78080000D02*
X150070000Y-78080000D01*
X153910000Y-79920000D02*
X153910000Y-78080000D01*
X154860000Y-79000000D02*
X153910000Y-79000000D01*
X149120000Y-81200000D02*
X150070000Y-81200000D01*
X150070000Y-80280000D02*
X150070000Y-82120000D01*
X150070000Y-82120000D02*
X153910000Y-82120000D01*
X153910000Y-80280000D02*
X150070000Y-80280000D01*
X153910000Y-82120000D02*
X153910000Y-80280000D01*
X154860000Y-81200000D02*
X153910000Y-81200000D01*
X149120000Y-83400000D02*
X150070000Y-83400000D01*
X150070000Y-82480000D02*
X150070000Y-84320000D01*
X150070000Y-84320000D02*
X153910000Y-84320000D01*
X153910000Y-82480000D02*
X150070000Y-82480000D01*
X153910000Y-84320000D02*
X153910000Y-82480000D01*
X154860000Y-83400000D02*
X153910000Y-83400000D01*
X157355000Y-76065000D02*
X158100000Y-76065000D01*
X157355000Y-76800000D02*
X157355000Y-76065000D01*
X157355000Y-77535000D02*
X157355000Y-77410000D01*
X157355000Y-77535000D02*
X157414435Y-77535000D01*
X157355000Y-77535000D02*
X158845000Y-77535000D01*
X158785565Y-77535000D02*
X158845000Y-77535000D01*
X158845000Y-77535000D02*
X158845000Y-77410000D01*
X157355000Y-80465000D02*
X158100000Y-80465000D01*
X157355000Y-81200000D02*
X157355000Y-80465000D01*
X157355000Y-81935000D02*
X157355000Y-81810000D01*
X157355000Y-81935000D02*
X157414435Y-81935000D01*
X157355000Y-81935000D02*
X158845000Y-81935000D01*
X158785565Y-81935000D02*
X158845000Y-81935000D01*
X158845000Y-81935000D02*
X158845000Y-81810000D01*
X103800694Y-111000000D02*
G75*
G02*
X100199306Y-111000000I-1800694J0D01*
G01*
X100199306Y-111000000D02*
G75*
G02*
X103800694Y-111000000I1800694J0D01*
G01*
X103800694Y-66000000D02*
G75*
G02*
X100199306Y-66000000I-1800694J0D01*
G01*
X100199306Y-66000000D02*
G75*
G02*
X103800694Y-66000000I1800694J0D01*
G01*
X149040000Y-86100000D02*
X149990000Y-86100000D01*
X149990000Y-85180000D02*
X149990000Y-87020000D01*
X149990000Y-87020000D02*
X153830000Y-87020000D01*
X153830000Y-85180000D02*
X149990000Y-85180000D01*
X153830000Y-87020000D02*
X153830000Y-85180000D01*
X154780000Y-86100000D02*
X153830000Y-86100000D01*
X139560000Y-80917300D02*
X136583000Y-80917300D01*
X139560000Y-80957300D02*
X136591000Y-80957300D01*
X139560000Y-80997300D02*
X136598000Y-80997300D01*
X139560000Y-81037300D02*
X136607000Y-81037300D01*
X139560000Y-81077300D02*
X136615000Y-81077300D01*
X139560000Y-81117300D02*
X136624000Y-81117300D01*
X139560000Y-81157300D02*
X136633000Y-81157300D01*
X139560000Y-81197300D02*
X136643000Y-81197300D01*
X139560000Y-81237300D02*
X136653000Y-81237300D01*
X139560000Y-81277300D02*
X136664000Y-81277300D01*
X139560000Y-81317300D02*
X136675000Y-81317300D01*
X139560000Y-81357300D02*
X136687000Y-81357300D01*
X139560000Y-81397300D02*
X136699000Y-81397300D01*
X139560000Y-81437300D02*
X136711000Y-81437300D01*
X139560000Y-81477300D02*
X136724000Y-81477300D01*
X139560000Y-81517300D02*
X136737000Y-81517300D01*
X139560000Y-81557300D02*
X136751000Y-81557300D01*
X139560000Y-81597300D02*
X136765000Y-81597300D01*
X139560000Y-81637300D02*
X136780000Y-81637300D01*
X139560000Y-81677300D02*
X136795000Y-81677300D01*
X139560000Y-81717300D02*
X136811000Y-81717300D01*
X139560000Y-81757300D02*
X136827000Y-81757300D01*
X139560000Y-81797300D02*
X136843000Y-81797300D01*
X139560000Y-81837300D02*
X136860000Y-81837300D01*
X139560000Y-81877300D02*
X136878000Y-81877300D01*
X139560000Y-81917300D02*
X136896000Y-81917300D01*
X139560000Y-81957300D02*
X136915000Y-81957300D01*
X139560000Y-81997300D02*
X136934000Y-81997300D01*
X139560000Y-82037300D02*
X136954000Y-82037300D01*
X139560000Y-82077300D02*
X136974000Y-82077300D01*
X139560000Y-82117300D02*
X136995000Y-82117300D01*
X139560000Y-82157300D02*
X137016000Y-82157300D01*
X139560000Y-82197300D02*
X137038000Y-82197300D01*
X139560000Y-82237300D02*
X137061000Y-82237300D01*
X139560000Y-82277300D02*
X137084000Y-82277300D01*
X139560000Y-82317300D02*
X137107000Y-82317300D01*
X139560000Y-82357300D02*
X137132000Y-82357300D01*
X139560000Y-82397300D02*
X137157000Y-82397300D01*
X139560000Y-82437300D02*
X137182000Y-82437300D01*
X139560000Y-82477300D02*
X137208000Y-82477300D01*
X139560000Y-82517300D02*
X137235000Y-82517300D01*
X139560000Y-82557300D02*
X137263000Y-82557300D01*
X139560000Y-82597300D02*
X137291000Y-82597300D01*
X139560000Y-82637300D02*
X137320000Y-82637300D01*
X139560000Y-82677300D02*
X137350000Y-82677300D01*
X139560000Y-82717300D02*
X137381000Y-82717300D01*
X139560000Y-82757300D02*
X137412000Y-82757300D01*
X139560000Y-82797300D02*
X137444000Y-82797300D01*
X139560000Y-82837300D02*
X137477000Y-82837300D01*
X139560000Y-82877300D02*
X137511000Y-82877300D01*
X139560000Y-82917300D02*
X137545000Y-82917300D01*
X139560000Y-82957300D02*
X137581000Y-82957300D01*
X141133000Y-84277300D02*
X140067000Y-84277300D01*
X141368000Y-84237300D02*
X139832000Y-84237300D01*
X141547000Y-84197300D02*
X139653000Y-84197300D01*
X141697000Y-84157300D02*
X139503000Y-84157300D01*
X141828000Y-84117300D02*
X139372000Y-84117300D01*
X141946000Y-84077300D02*
X139254000Y-84077300D01*
X142053000Y-84037300D02*
X139147000Y-84037300D01*
X142152000Y-83997300D02*
X139048000Y-83997300D01*
X142244000Y-83957300D02*
X138956000Y-83957300D01*
X142331000Y-83917300D02*
X138869000Y-83917300D01*
X142413000Y-83877300D02*
X138787000Y-83877300D01*
X142490000Y-83837300D02*
X138710000Y-83837300D01*
X142564000Y-83797300D02*
X138636000Y-83797300D01*
X142634000Y-83757300D02*
X138566000Y-83757300D01*
X142701000Y-83717300D02*
X138499000Y-83717300D01*
X142765000Y-83677300D02*
X138435000Y-83677300D01*
X142827000Y-83637300D02*
X138373000Y-83637300D01*
X142887000Y-83597300D02*
X138313000Y-83597300D01*
X142915000Y-75787602D02*
X142915000Y-76587602D01*
X142944000Y-83557300D02*
X138256000Y-83557300D01*
X143000000Y-83517300D02*
X138200000Y-83517300D01*
X143053000Y-83477300D02*
X138147000Y-83477300D01*
X143105000Y-83437300D02*
X138095000Y-83437300D01*
X143155000Y-83397300D02*
X138045000Y-83397300D01*
X143204000Y-83357300D02*
X137996000Y-83357300D01*
X143251000Y-83317300D02*
X137949000Y-83317300D01*
X143296000Y-83277300D02*
X137904000Y-83277300D01*
X143315000Y-76187602D02*
X142515000Y-76187602D01*
X143341000Y-83237300D02*
X137859000Y-83237300D01*
X143384000Y-83197300D02*
X137816000Y-83197300D01*
X143426000Y-83157300D02*
X137774000Y-83157300D01*
X143467000Y-83117300D02*
X137733000Y-83117300D01*
X143506000Y-83077300D02*
X137694000Y-83077300D01*
X143545000Y-83037300D02*
X137655000Y-83037300D01*
X143582000Y-82997300D02*
X137618000Y-82997300D01*
X143619000Y-82957300D02*
X141640000Y-82957300D01*
X143655000Y-82917300D02*
X141640000Y-82917300D01*
X143689000Y-82877300D02*
X141640000Y-82877300D01*
X143723000Y-82837300D02*
X141640000Y-82837300D01*
X143756000Y-82797300D02*
X141640000Y-82797300D01*
X143788000Y-82757300D02*
X141640000Y-82757300D01*
X143819000Y-82717300D02*
X141640000Y-82717300D01*
X143850000Y-82677300D02*
X141640000Y-82677300D01*
X143880000Y-82637300D02*
X141640000Y-82637300D01*
X143909000Y-82597300D02*
X141640000Y-82597300D01*
X143937000Y-82557300D02*
X141640000Y-82557300D01*
X143965000Y-82517300D02*
X141640000Y-82517300D01*
X143992000Y-82477300D02*
X141640000Y-82477300D01*
X144018000Y-82437300D02*
X141640000Y-82437300D01*
X144043000Y-82397300D02*
X141640000Y-82397300D01*
X144068000Y-82357300D02*
X141640000Y-82357300D01*
X144093000Y-82317300D02*
X141640000Y-82317300D01*
X144116000Y-82277300D02*
X141640000Y-82277300D01*
X144139000Y-82237300D02*
X141640000Y-82237300D01*
X144162000Y-82197300D02*
X141640000Y-82197300D01*
X144184000Y-82157300D02*
X141640000Y-82157300D01*
X144205000Y-82117300D02*
X141640000Y-82117300D01*
X144226000Y-82077300D02*
X141640000Y-82077300D01*
X144246000Y-82037300D02*
X141640000Y-82037300D01*
X144266000Y-81997300D02*
X141640000Y-81997300D01*
X144285000Y-81957300D02*
X141640000Y-81957300D01*
X144304000Y-81917300D02*
X141640000Y-81917300D01*
X144322000Y-81877300D02*
X141640000Y-81877300D01*
X144340000Y-81837300D02*
X141640000Y-81837300D01*
X144357000Y-81797300D02*
X141640000Y-81797300D01*
X144373000Y-81757300D02*
X141640000Y-81757300D01*
X144389000Y-81717300D02*
X141640000Y-81717300D01*
X144405000Y-81677300D02*
X141640000Y-81677300D01*
X144420000Y-81637300D02*
X141640000Y-81637300D01*
X144435000Y-81597300D02*
X141640000Y-81597300D01*
X144449000Y-81557300D02*
X141640000Y-81557300D01*
X144463000Y-81517300D02*
X141640000Y-81517300D01*
X144476000Y-81477300D02*
X141640000Y-81477300D01*
X144489000Y-81437300D02*
X141640000Y-81437300D01*
X144501000Y-81397300D02*
X141640000Y-81397300D01*
X144513000Y-81357300D02*
X141640000Y-81357300D01*
X144525000Y-81317300D02*
X141640000Y-81317300D01*
X144536000Y-81277300D02*
X141640000Y-81277300D01*
X144547000Y-81237300D02*
X141640000Y-81237300D01*
X144557000Y-81197300D02*
X141640000Y-81197300D01*
X144567000Y-81157300D02*
X141640000Y-81157300D01*
X144576000Y-81117300D02*
X141640000Y-81117300D01*
X144585000Y-81077300D02*
X141640000Y-81077300D01*
X144593000Y-81037300D02*
X141640000Y-81037300D01*
X144602000Y-80997300D02*
X141640000Y-80997300D01*
X144609000Y-80957300D02*
X141640000Y-80957300D01*
X144617000Y-80917300D02*
X141640000Y-80917300D01*
X144623000Y-80877300D02*
X136577000Y-80877300D01*
X144630000Y-80837300D02*
X136570000Y-80837300D01*
X144636000Y-80797300D02*
X136564000Y-80797300D01*
X144642000Y-80757300D02*
X136558000Y-80757300D01*
X144647000Y-80717300D02*
X136553000Y-80717300D01*
X144652000Y-80677300D02*
X136548000Y-80677300D01*
X144656000Y-80637300D02*
X136544000Y-80637300D01*
X144661000Y-80597300D02*
X136539000Y-80597300D01*
X144664000Y-80557300D02*
X136536000Y-80557300D01*
X144668000Y-80517300D02*
X136532000Y-80517300D01*
X144670000Y-80477300D02*
X136530000Y-80477300D01*
X144673000Y-80437300D02*
X136527000Y-80437300D01*
X144675000Y-80397300D02*
X136525000Y-80397300D01*
X144677000Y-80357300D02*
X136523000Y-80357300D01*
X144678000Y-80317300D02*
X136522000Y-80317300D01*
X144679000Y-80277300D02*
X136521000Y-80277300D01*
X144680000Y-80197300D02*
X136520000Y-80197300D01*
X144680000Y-80237300D02*
X136520000Y-80237300D01*
X144720000Y-80197300D02*
G75*
G02*
X136480000Y-80197300I-4120000J0D01*
G01*
X136480000Y-80197300D02*
G75*
G02*
X144720000Y-80197300I4120000J0D01*
G01*
X148840000Y-96400000D02*
X149790000Y-96400000D01*
X149790000Y-95480000D02*
X149790000Y-97320000D01*
X149790000Y-97320000D02*
X153630000Y-97320000D01*
X153630000Y-95480000D02*
X149790000Y-95480000D01*
X153630000Y-97320000D02*
X153630000Y-95480000D01*
X154580000Y-96400000D02*
X153630000Y-96400000D01*
X160900694Y-85300000D02*
G75*
G02*
X157299306Y-85300000I-1800694J0D01*
G01*
X157299306Y-85300000D02*
G75*
G02*
X160900694Y-85300000I1800694J0D01*
G01*
X161300694Y-100900000D02*
G75*
G02*
X157699306Y-100900000I-1800694J0D01*
G01*
X157699306Y-100900000D02*
G75*
G02*
X161300694Y-100900000I1800694J0D01*
G01*
X148840000Y-91400000D02*
X149790000Y-91400000D01*
X149790000Y-90480000D02*
X149790000Y-92320000D01*
X149790000Y-92320000D02*
X153630000Y-92320000D01*
X153630000Y-90480000D02*
X149790000Y-90480000D01*
X153630000Y-92320000D02*
X153630000Y-90480000D01*
X154580000Y-91400000D02*
X153630000Y-91400000D01*
X148840000Y-93900000D02*
X149790000Y-93900000D01*
X149790000Y-92980000D02*
X149790000Y-94820000D01*
X149790000Y-94820000D02*
X153630000Y-94820000D01*
X153630000Y-92980000D02*
X149790000Y-92980000D01*
X153630000Y-94820000D02*
X153630000Y-92980000D01*
X154580000Y-93900000D02*
X153630000Y-93900000D01*
X147050000Y-112300000D02*
X147050000Y-113550000D01*
X147050000Y-113550000D02*
X148300000Y-113550000D01*
X147340000Y-100640000D02*
X147340000Y-113260000D01*
X147340000Y-113260000D02*
X153310000Y-113260000D01*
X147350000Y-100650000D02*
X147350000Y-102450000D01*
X147350000Y-102450000D02*
X148100000Y-102450000D01*
X147350000Y-103950000D02*
X147350000Y-109950000D01*
X147350000Y-109950000D02*
X148100000Y-109950000D01*
X147350000Y-111450000D02*
X147350000Y-113250000D01*
X147350000Y-113250000D02*
X148100000Y-113250000D01*
X148100000Y-100650000D02*
X147350000Y-100650000D01*
X148100000Y-102450000D02*
X148100000Y-100650000D01*
X148100000Y-103950000D02*
X147350000Y-103950000D01*
X148100000Y-109950000D02*
X148100000Y-103950000D01*
X148100000Y-111450000D02*
X147350000Y-111450000D01*
X148100000Y-113250000D02*
X148100000Y-111450000D01*
X149600000Y-100650000D02*
X149600000Y-101400000D01*
X149600000Y-101400000D02*
X152550000Y-101400000D01*
X149600000Y-112500000D02*
X152550000Y-112500000D01*
X149600000Y-113250000D02*
X149600000Y-112500000D01*
X152550000Y-101400000D02*
X152550000Y-106950000D01*
X152550000Y-112500000D02*
X152550000Y-106950000D01*
X153310000Y-100640000D02*
X147340000Y-100640000D01*
X153310000Y-113260000D02*
X153310000Y-100640000D01*
X148840000Y-88900000D02*
X149790000Y-88900000D01*
X149790000Y-87980000D02*
X149790000Y-89820000D01*
X149790000Y-89820000D02*
X153630000Y-89820000D01*
X153630000Y-87980000D02*
X149790000Y-87980000D01*
X153630000Y-89820000D02*
X153630000Y-87980000D01*
X154580000Y-88900000D02*
X153630000Y-88900000D01*
X136050000Y-116050000D02*
X136050000Y-117300000D01*
X136340000Y-116340000D02*
X136340000Y-122310000D01*
X136340000Y-122310000D02*
X156460000Y-122310000D01*
X136350000Y-116350000D02*
X136350000Y-117100000D01*
X136350000Y-117100000D02*
X138150000Y-117100000D01*
X136350000Y-118600000D02*
X137100000Y-118600000D01*
X137100000Y-118600000D02*
X137100000Y-121550000D01*
X137100000Y-121550000D02*
X146400000Y-121550000D01*
X137300000Y-116050000D02*
X136050000Y-116050000D01*
X138150000Y-116350000D02*
X136350000Y-116350000D01*
X138150000Y-117100000D02*
X138150000Y-116350000D01*
X139650000Y-116350000D02*
X139650000Y-117100000D01*
X139650000Y-117100000D02*
X153150000Y-117100000D01*
X153150000Y-116350000D02*
X139650000Y-116350000D01*
X153150000Y-117100000D02*
X153150000Y-116350000D01*
X154650000Y-116350000D02*
X154650000Y-117100000D01*
X154650000Y-117100000D02*
X156450000Y-117100000D01*
X155700000Y-118600000D02*
X155700000Y-121550000D01*
X155700000Y-121550000D02*
X146400000Y-121550000D01*
X156450000Y-116350000D02*
X154650000Y-116350000D01*
X156450000Y-117100000D02*
X156450000Y-116350000D01*
X156450000Y-118600000D02*
X155700000Y-118600000D01*
X156460000Y-116340000D02*
X136340000Y-116340000D01*
X156460000Y-122310000D02*
X156460000Y-116340000D01*
X157460000Y-110777300D02*
X154695000Y-110777300D01*
X157460000Y-110817300D02*
X154711000Y-110817300D01*
X157460000Y-110857300D02*
X154727000Y-110857300D01*
X157460000Y-110897300D02*
X154743000Y-110897300D01*
X157460000Y-110937300D02*
X154760000Y-110937300D01*
X157460000Y-110977300D02*
X154778000Y-110977300D01*
X157460000Y-111017300D02*
X154796000Y-111017300D01*
X157460000Y-111057300D02*
X154815000Y-111057300D01*
X157460000Y-111097300D02*
X154834000Y-111097300D01*
X157460000Y-111137300D02*
X154854000Y-111137300D01*
X157460000Y-111177300D02*
X154874000Y-111177300D01*
X157460000Y-111217300D02*
X154895000Y-111217300D01*
X157460000Y-111257300D02*
X154916000Y-111257300D01*
X157460000Y-111297300D02*
X154938000Y-111297300D01*
X157460000Y-111337300D02*
X154961000Y-111337300D01*
X157460000Y-111377300D02*
X154984000Y-111377300D01*
X157460000Y-111417300D02*
X155007000Y-111417300D01*
X157460000Y-111457300D02*
X155032000Y-111457300D01*
X157460000Y-111497300D02*
X155057000Y-111497300D01*
X157460000Y-111537300D02*
X155082000Y-111537300D01*
X157460000Y-111577300D02*
X155108000Y-111577300D01*
X157460000Y-111617300D02*
X155135000Y-111617300D01*
X157460000Y-111657300D02*
X155163000Y-111657300D01*
X157460000Y-111697300D02*
X155191000Y-111697300D01*
X157460000Y-111737300D02*
X155220000Y-111737300D01*
X157460000Y-111777300D02*
X155250000Y-111777300D01*
X157460000Y-111817300D02*
X155281000Y-111817300D01*
X157460000Y-111857300D02*
X155312000Y-111857300D01*
X157460000Y-111897300D02*
X155344000Y-111897300D01*
X157460000Y-111937300D02*
X155377000Y-111937300D01*
X157460000Y-111977300D02*
X155411000Y-111977300D01*
X157460000Y-112017300D02*
X155445000Y-112017300D01*
X157460000Y-112057300D02*
X155481000Y-112057300D01*
X157460000Y-112097300D02*
X155518000Y-112097300D01*
X157460000Y-112137300D02*
X155555000Y-112137300D01*
X157460000Y-112177300D02*
X155594000Y-112177300D01*
X157460000Y-112217300D02*
X155633000Y-112217300D01*
X157460000Y-112257300D02*
X155674000Y-112257300D01*
X157460000Y-112297300D02*
X155716000Y-112297300D01*
X157460000Y-112337300D02*
X155759000Y-112337300D01*
X157460000Y-112377300D02*
X155804000Y-112377300D01*
X157460000Y-112417300D02*
X155849000Y-112417300D01*
X157460000Y-112457300D02*
X155896000Y-112457300D01*
X157460000Y-112497300D02*
X155945000Y-112497300D01*
X157460000Y-112537300D02*
X155995000Y-112537300D01*
X157460000Y-112577300D02*
X156047000Y-112577300D01*
X157460000Y-112617300D02*
X156100000Y-112617300D01*
X157460000Y-112657300D02*
X156156000Y-112657300D01*
X157460000Y-112697300D02*
X156213000Y-112697300D01*
X157460000Y-112737300D02*
X156273000Y-112737300D01*
X157460000Y-112777300D02*
X156335000Y-112777300D01*
X157460000Y-112817300D02*
X156399000Y-112817300D01*
X159033000Y-113377300D02*
X157967000Y-113377300D01*
X159268000Y-113337300D02*
X157732000Y-113337300D01*
X159447000Y-113297300D02*
X157553000Y-113297300D01*
X159597000Y-113257300D02*
X157403000Y-113257300D01*
X159728000Y-113217300D02*
X157272000Y-113217300D01*
X159846000Y-113177300D02*
X157154000Y-113177300D01*
X159953000Y-113137300D02*
X157047000Y-113137300D01*
X160052000Y-113097300D02*
X156948000Y-113097300D01*
X160144000Y-113057300D02*
X156856000Y-113057300D01*
X160231000Y-113017300D02*
X156769000Y-113017300D01*
X160313000Y-112977300D02*
X156687000Y-112977300D01*
X160390000Y-112937300D02*
X156610000Y-112937300D01*
X160464000Y-112897300D02*
X156536000Y-112897300D01*
X160534000Y-112857300D02*
X156466000Y-112857300D01*
X160601000Y-112817300D02*
X159540000Y-112817300D01*
X160665000Y-112777300D02*
X159540000Y-112777300D01*
X160727000Y-112737300D02*
X159540000Y-112737300D01*
X160787000Y-112697300D02*
X159540000Y-112697300D01*
X160815000Y-104887602D02*
X160815000Y-105687602D01*
X160844000Y-112657300D02*
X159540000Y-112657300D01*
X160900000Y-112617300D02*
X159540000Y-112617300D01*
X160953000Y-112577300D02*
X159540000Y-112577300D01*
X161005000Y-112537300D02*
X159540000Y-112537300D01*
X161055000Y-112497300D02*
X159540000Y-112497300D01*
X161104000Y-112457300D02*
X159540000Y-112457300D01*
X161151000Y-112417300D02*
X159540000Y-112417300D01*
X161196000Y-112377300D02*
X159540000Y-112377300D01*
X161215000Y-105287602D02*
X160415000Y-105287602D01*
X161241000Y-112337300D02*
X159540000Y-112337300D01*
X161284000Y-112297300D02*
X159540000Y-112297300D01*
X161326000Y-112257300D02*
X159540000Y-112257300D01*
X161367000Y-112217300D02*
X159540000Y-112217300D01*
X161406000Y-112177300D02*
X159540000Y-112177300D01*
X161445000Y-112137300D02*
X159540000Y-112137300D01*
X161482000Y-112097300D02*
X159540000Y-112097300D01*
X161519000Y-112057300D02*
X159540000Y-112057300D01*
X161555000Y-112017300D02*
X159540000Y-112017300D01*
X161589000Y-111977300D02*
X159540000Y-111977300D01*
X161623000Y-111937300D02*
X159540000Y-111937300D01*
X161656000Y-111897300D02*
X159540000Y-111897300D01*
X161688000Y-111857300D02*
X159540000Y-111857300D01*
X161719000Y-111817300D02*
X159540000Y-111817300D01*
X161750000Y-111777300D02*
X159540000Y-111777300D01*
X161780000Y-111737300D02*
X159540000Y-111737300D01*
X161809000Y-111697300D02*
X159540000Y-111697300D01*
X161837000Y-111657300D02*
X159540000Y-111657300D01*
X161865000Y-111617300D02*
X159540000Y-111617300D01*
X161892000Y-111577300D02*
X159540000Y-111577300D01*
X161918000Y-111537300D02*
X159540000Y-111537300D01*
X161943000Y-111497300D02*
X159540000Y-111497300D01*
X161968000Y-111457300D02*
X159540000Y-111457300D01*
X161993000Y-111417300D02*
X159540000Y-111417300D01*
X162016000Y-111377300D02*
X159540000Y-111377300D01*
X162039000Y-111337300D02*
X159540000Y-111337300D01*
X162062000Y-111297300D02*
X159540000Y-111297300D01*
X162084000Y-111257300D02*
X159540000Y-111257300D01*
X162105000Y-111217300D02*
X159540000Y-111217300D01*
X162126000Y-111177300D02*
X159540000Y-111177300D01*
X162146000Y-111137300D02*
X159540000Y-111137300D01*
X162166000Y-111097300D02*
X159540000Y-111097300D01*
X162185000Y-111057300D02*
X159540000Y-111057300D01*
X162204000Y-111017300D02*
X159540000Y-111017300D01*
X162222000Y-110977300D02*
X159540000Y-110977300D01*
X162240000Y-110937300D02*
X159540000Y-110937300D01*
X162257000Y-110897300D02*
X159540000Y-110897300D01*
X162273000Y-110857300D02*
X159540000Y-110857300D01*
X162289000Y-110817300D02*
X159540000Y-110817300D01*
X162305000Y-110777300D02*
X159540000Y-110777300D01*
X162320000Y-110737300D02*
X154680000Y-110737300D01*
X162335000Y-110697300D02*
X154665000Y-110697300D01*
X162349000Y-110657300D02*
X154651000Y-110657300D01*
X162363000Y-110617300D02*
X154637000Y-110617300D01*
X162376000Y-110577300D02*
X154624000Y-110577300D01*
X162389000Y-110537300D02*
X154611000Y-110537300D01*
X162401000Y-110497300D02*
X154599000Y-110497300D01*
X162413000Y-110457300D02*
X154587000Y-110457300D01*
X162425000Y-110417300D02*
X154575000Y-110417300D01*
X162436000Y-110377300D02*
X154564000Y-110377300D01*
X162447000Y-110337300D02*
X154553000Y-110337300D01*
X162457000Y-110297300D02*
X154543000Y-110297300D01*
X162467000Y-110257300D02*
X154533000Y-110257300D01*
X162476000Y-110217300D02*
X154524000Y-110217300D01*
X162485000Y-110177300D02*
X154515000Y-110177300D01*
X162493000Y-110137300D02*
X154507000Y-110137300D01*
X162502000Y-110097300D02*
X154498000Y-110097300D01*
X162509000Y-110057300D02*
X154491000Y-110057300D01*
X162517000Y-110017300D02*
X154483000Y-110017300D01*
X162523000Y-109977300D02*
X154477000Y-109977300D01*
X162530000Y-109937300D02*
X154470000Y-109937300D01*
X162536000Y-109897300D02*
X154464000Y-109897300D01*
X162542000Y-109857300D02*
X154458000Y-109857300D01*
X162547000Y-109817300D02*
X154453000Y-109817300D01*
X162552000Y-109777300D02*
X154448000Y-109777300D01*
X162556000Y-109737300D02*
X154444000Y-109737300D01*
X162561000Y-109697300D02*
X154439000Y-109697300D01*
X162564000Y-109657300D02*
X154436000Y-109657300D01*
X162568000Y-109617300D02*
X154432000Y-109617300D01*
X162570000Y-109577300D02*
X154430000Y-109577300D01*
X162573000Y-109537300D02*
X154427000Y-109537300D01*
X162575000Y-109497300D02*
X154425000Y-109497300D01*
X162577000Y-109457300D02*
X154423000Y-109457300D01*
X162578000Y-109417300D02*
X154422000Y-109417300D01*
X162579000Y-109377300D02*
X154421000Y-109377300D01*
X162580000Y-109297300D02*
X154420000Y-109297300D01*
X162580000Y-109337300D02*
X154420000Y-109337300D01*
X162620000Y-109297300D02*
G75*
G02*
X154380000Y-109297300I-4120000J0D01*
G01*
X154380000Y-109297300D02*
G75*
G02*
X162620000Y-109297300I4120000J0D01*
G01*
X106850000Y-124350000D02*
X116483334Y-124350000D01*
X106850001Y-76330000D02*
X106850000Y-124350000D01*
X116483334Y-123990000D02*
X126116666Y-123990000D01*
X116483334Y-124350000D02*
X116483334Y-123990000D01*
X126116666Y-123990000D02*
X126116666Y-124350000D01*
X126116666Y-124350000D02*
X135749999Y-124350000D01*
X135749999Y-124350000D02*
X135750000Y-76330000D01*
X135750000Y-76330000D02*
X106850001Y-76330000D01*
X158050000Y-72700000D02*
X158050000Y-73950000D01*
X158050000Y-73950000D02*
X159300000Y-73950000D01*
X158340000Y-51040000D02*
X158340000Y-73660000D01*
X158340000Y-73660000D02*
X164310000Y-73660000D01*
X158350000Y-51050000D02*
X158350000Y-52850000D01*
X158350000Y-52850000D02*
X159100000Y-52850000D01*
X158350000Y-54350000D02*
X158350000Y-70350000D01*
X158350000Y-70350000D02*
X159100000Y-70350000D01*
X158350000Y-71850000D02*
X158350000Y-73650000D01*
X158350000Y-73650000D02*
X159100000Y-73650000D01*
X159100000Y-51050000D02*
X158350000Y-51050000D01*
X159100000Y-52850000D02*
X159100000Y-51050000D01*
X159100000Y-54350000D02*
X158350000Y-54350000D01*
X159100000Y-70350000D02*
X159100000Y-54350000D01*
X159100000Y-71850000D02*
X158350000Y-71850000D01*
X159100000Y-73650000D02*
X159100000Y-71850000D01*
X160600000Y-51050000D02*
X160600000Y-51800000D01*
X160600000Y-51800000D02*
X163550000Y-51800000D01*
X160600000Y-72900000D02*
X163550000Y-72900000D01*
X160600000Y-73650000D02*
X160600000Y-72900000D01*
X163550000Y-51800000D02*
X163550000Y-62350000D01*
X163550000Y-72900000D02*
X163550000Y-62350000D01*
X164310000Y-51040000D02*
X158340000Y-51040000D01*
X164310000Y-73660000D02*
X164310000Y-51040000D01*
X139040000Y-84910000D02*
X139040000Y-110430000D01*
X139040000Y-110430000D02*
X143540000Y-110430000D01*
X140290000Y-84910000D02*
X139040000Y-84910000D01*
X143540000Y-84910000D02*
X142290000Y-84910000D01*
X143540000Y-110430000D02*
X143540000Y-84910000D01*
X142290000Y-84910000D02*
G75*
G02*
X140290000Y-84910000I-1000000J0D01*
G01*
X148840000Y-99000000D02*
X149790000Y-99000000D01*
X149790000Y-98080000D02*
X149790000Y-99920000D01*
X149790000Y-99920000D02*
X153630000Y-99920000D01*
X153630000Y-98080000D02*
X149790000Y-98080000D01*
X153630000Y-99920000D02*
X153630000Y-98080000D01*
X154580000Y-99000000D02*
X153630000Y-99000000D01*
M02*
