G04 #@! TF.GenerationSoftware,KiCad,Pcbnew,7.0.9*
G04 #@! TF.CreationDate,2024-01-28T19:38:39+01:00*
G04 #@! TF.ProjectId,Labor Netzteil,4c61626f-7220-44e6-9574-7a7465696c2e,rev?*
G04 #@! TF.SameCoordinates,Original*
G04 #@! TF.FileFunction,Legend,Top*
G04 #@! TF.FilePolarity,Positive*
%FSLAX46Y46*%
G04 Gerber Fmt 4.6, Leading zero omitted, Abs format (unit mm)*
G04 Created by KiCad (PCBNEW 7.0.9) date 2024-01-28 19:38:39*
%MOMM*%
%LPD*%
G01*
G04 APERTURE LIST*
%ADD10C,0.800000*%
%ADD11C,0.700000*%
%ADD12C,0.150000*%
%ADD13C,0.120000*%
%ADD14C,0.100000*%
%ADD15C,0.500000*%
%ADD16C,1.000000*%
G04 APERTURE END LIST*
D10*
X106680000Y-66675000D02*
G75*
G03*
X106680000Y-64135000I0J1270000D01*
G01*
X105410000Y-69215000D02*
X106680000Y-69215000D01*
X106680000Y-69215000D02*
G75*
G03*
X106680000Y-66675000I0J1270000D01*
G01*
X105410000Y-74295000D02*
X106680000Y-74295000D01*
X105410000Y-81915000D02*
X106680000Y-81915000D01*
X106680000Y-79375000D02*
G75*
G03*
X106680000Y-76835000I0J1270000D01*
G01*
X106680000Y-81915000D02*
G75*
G03*
X106680000Y-79375000I0J1270000D01*
G01*
X106680000Y-76835000D02*
G75*
G03*
X106680000Y-74295000I0J1270000D01*
G01*
X105410000Y-74295000D02*
X105410000Y-69215000D01*
X105410000Y-100965000D02*
X105410000Y-95885000D01*
X105410000Y-88265000D02*
X106680000Y-88265000D01*
X105410000Y-95885000D02*
X106680000Y-95885000D01*
X105410000Y-100965000D02*
X106680000Y-100965000D01*
X106680000Y-103505000D02*
G75*
G03*
X106680000Y-100965000I0J1270000D01*
G01*
X106680000Y-93345000D02*
G75*
G03*
X106680000Y-90805000I0J1270000D01*
G01*
X106680000Y-95885000D02*
G75*
G03*
X106680000Y-93345000I0J1270000D01*
G01*
X106680000Y-108585000D02*
G75*
G03*
X106680000Y-106045000I0J1270000D01*
G01*
X106680000Y-90805000D02*
G75*
G03*
X106680000Y-88265000I0J1270000D01*
G01*
X105410000Y-108585000D02*
X106680000Y-108585000D01*
X106680000Y-106045000D02*
G75*
G03*
X106680000Y-103505000I0J1270000D01*
G01*
D11*
X109220000Y-121920000D02*
X105410000Y-121920000D01*
X105410000Y-121920000D02*
X106680000Y-123190000D01*
X105410000Y-121920000D02*
X106680000Y-120650000D01*
X105283000Y-49530000D02*
X106553000Y-50800000D01*
X109093000Y-49530000D02*
X105283000Y-49530000D01*
X105283000Y-49530000D02*
X106553000Y-48260000D01*
X109093000Y-55880000D02*
X105283000Y-55880000D01*
X105283000Y-55880000D02*
X106553000Y-54610000D01*
X105283000Y-55880000D02*
X106553000Y-57150000D01*
X105410000Y-115570000D02*
X106680000Y-116840000D01*
X109220000Y-115570000D02*
X105410000Y-115570000D01*
D10*
X105410000Y-61595000D02*
X106680000Y-61595000D01*
X106680000Y-64135000D02*
G75*
G03*
X106680000Y-61595000I0J1270000D01*
G01*
D11*
X105410000Y-115570000D02*
X106680000Y-114300000D01*
D12*
X101766666Y-37504819D02*
X101433333Y-37028628D01*
X101195238Y-37504819D02*
X101195238Y-36504819D01*
X101195238Y-36504819D02*
X101576190Y-36504819D01*
X101576190Y-36504819D02*
X101671428Y-36552438D01*
X101671428Y-36552438D02*
X101719047Y-36600057D01*
X101719047Y-36600057D02*
X101766666Y-36695295D01*
X101766666Y-36695295D02*
X101766666Y-36838152D01*
X101766666Y-36838152D02*
X101719047Y-36933390D01*
X101719047Y-36933390D02*
X101671428Y-36981009D01*
X101671428Y-36981009D02*
X101576190Y-37028628D01*
X101576190Y-37028628D02*
X101195238Y-37028628D01*
X102195238Y-36981009D02*
X102528571Y-36981009D01*
X102671428Y-37504819D02*
X102195238Y-37504819D01*
X102195238Y-37504819D02*
X102195238Y-36504819D01*
X102195238Y-36504819D02*
X102671428Y-36504819D01*
X103433333Y-36981009D02*
X103100000Y-36981009D01*
X103100000Y-37504819D02*
X103100000Y-36504819D01*
X103100000Y-36504819D02*
X103576190Y-36504819D01*
X104100000Y-36504819D02*
X104100000Y-36742914D01*
X103861905Y-36647676D02*
X104100000Y-36742914D01*
X104100000Y-36742914D02*
X104338095Y-36647676D01*
X103957143Y-36933390D02*
X104100000Y-36742914D01*
X104100000Y-36742914D02*
X104242857Y-36933390D01*
X104861905Y-36504819D02*
X104861905Y-36742914D01*
X104623810Y-36647676D02*
X104861905Y-36742914D01*
X104861905Y-36742914D02*
X105100000Y-36647676D01*
X104719048Y-36933390D02*
X104861905Y-36742914D01*
X104861905Y-36742914D02*
X105004762Y-36933390D01*
X188866666Y-37504819D02*
X188533333Y-37028628D01*
X188295238Y-37504819D02*
X188295238Y-36504819D01*
X188295238Y-36504819D02*
X188676190Y-36504819D01*
X188676190Y-36504819D02*
X188771428Y-36552438D01*
X188771428Y-36552438D02*
X188819047Y-36600057D01*
X188819047Y-36600057D02*
X188866666Y-36695295D01*
X188866666Y-36695295D02*
X188866666Y-36838152D01*
X188866666Y-36838152D02*
X188819047Y-36933390D01*
X188819047Y-36933390D02*
X188771428Y-36981009D01*
X188771428Y-36981009D02*
X188676190Y-37028628D01*
X188676190Y-37028628D02*
X188295238Y-37028628D01*
X189295238Y-36981009D02*
X189628571Y-36981009D01*
X189771428Y-37504819D02*
X189295238Y-37504819D01*
X189295238Y-37504819D02*
X189295238Y-36504819D01*
X189295238Y-36504819D02*
X189771428Y-36504819D01*
X190533333Y-36981009D02*
X190200000Y-36981009D01*
X190200000Y-37504819D02*
X190200000Y-36504819D01*
X190200000Y-36504819D02*
X190676190Y-36504819D01*
X191200000Y-36504819D02*
X191200000Y-36742914D01*
X190961905Y-36647676D02*
X191200000Y-36742914D01*
X191200000Y-36742914D02*
X191438095Y-36647676D01*
X191057143Y-36933390D02*
X191200000Y-36742914D01*
X191200000Y-36742914D02*
X191342857Y-36933390D01*
X191961905Y-36504819D02*
X191961905Y-36742914D01*
X191723810Y-36647676D02*
X191961905Y-36742914D01*
X191961905Y-36742914D02*
X192200000Y-36647676D01*
X191819048Y-36933390D02*
X191961905Y-36742914D01*
X191961905Y-36742914D02*
X192104762Y-36933390D01*
X188866666Y-127104819D02*
X188533333Y-126628628D01*
X188295238Y-127104819D02*
X188295238Y-126104819D01*
X188295238Y-126104819D02*
X188676190Y-126104819D01*
X188676190Y-126104819D02*
X188771428Y-126152438D01*
X188771428Y-126152438D02*
X188819047Y-126200057D01*
X188819047Y-126200057D02*
X188866666Y-126295295D01*
X188866666Y-126295295D02*
X188866666Y-126438152D01*
X188866666Y-126438152D02*
X188819047Y-126533390D01*
X188819047Y-126533390D02*
X188771428Y-126581009D01*
X188771428Y-126581009D02*
X188676190Y-126628628D01*
X188676190Y-126628628D02*
X188295238Y-126628628D01*
X189295238Y-126581009D02*
X189628571Y-126581009D01*
X189771428Y-127104819D02*
X189295238Y-127104819D01*
X189295238Y-127104819D02*
X189295238Y-126104819D01*
X189295238Y-126104819D02*
X189771428Y-126104819D01*
X190533333Y-126581009D02*
X190200000Y-126581009D01*
X190200000Y-127104819D02*
X190200000Y-126104819D01*
X190200000Y-126104819D02*
X190676190Y-126104819D01*
X191200000Y-126104819D02*
X191200000Y-126342914D01*
X190961905Y-126247676D02*
X191200000Y-126342914D01*
X191200000Y-126342914D02*
X191438095Y-126247676D01*
X191057143Y-126533390D02*
X191200000Y-126342914D01*
X191200000Y-126342914D02*
X191342857Y-126533390D01*
X191961905Y-126104819D02*
X191961905Y-126342914D01*
X191723810Y-126247676D02*
X191961905Y-126342914D01*
X191961905Y-126342914D02*
X192200000Y-126247676D01*
X191819048Y-126533390D02*
X191961905Y-126342914D01*
X191961905Y-126342914D02*
X192104762Y-126533390D01*
X101866666Y-127104819D02*
X101533333Y-126628628D01*
X101295238Y-127104819D02*
X101295238Y-126104819D01*
X101295238Y-126104819D02*
X101676190Y-126104819D01*
X101676190Y-126104819D02*
X101771428Y-126152438D01*
X101771428Y-126152438D02*
X101819047Y-126200057D01*
X101819047Y-126200057D02*
X101866666Y-126295295D01*
X101866666Y-126295295D02*
X101866666Y-126438152D01*
X101866666Y-126438152D02*
X101819047Y-126533390D01*
X101819047Y-126533390D02*
X101771428Y-126581009D01*
X101771428Y-126581009D02*
X101676190Y-126628628D01*
X101676190Y-126628628D02*
X101295238Y-126628628D01*
X102295238Y-126581009D02*
X102628571Y-126581009D01*
X102771428Y-127104819D02*
X102295238Y-127104819D01*
X102295238Y-127104819D02*
X102295238Y-126104819D01*
X102295238Y-126104819D02*
X102771428Y-126104819D01*
X103533333Y-126581009D02*
X103200000Y-126581009D01*
X103200000Y-127104819D02*
X103200000Y-126104819D01*
X103200000Y-126104819D02*
X103676190Y-126104819D01*
X104200000Y-126104819D02*
X104200000Y-126342914D01*
X103961905Y-126247676D02*
X104200000Y-126342914D01*
X104200000Y-126342914D02*
X104438095Y-126247676D01*
X104057143Y-126533390D02*
X104200000Y-126342914D01*
X104200000Y-126342914D02*
X104342857Y-126533390D01*
X104961905Y-126104819D02*
X104961905Y-126342914D01*
X104723810Y-126247676D02*
X104961905Y-126342914D01*
X104961905Y-126342914D02*
X105200000Y-126247676D01*
X104819048Y-126533390D02*
X104961905Y-126342914D01*
X104961905Y-126342914D02*
X105104762Y-126533390D01*
X175768095Y-94704819D02*
X175768095Y-95514342D01*
X175768095Y-95514342D02*
X175815714Y-95609580D01*
X175815714Y-95609580D02*
X175863333Y-95657200D01*
X175863333Y-95657200D02*
X175958571Y-95704819D01*
X175958571Y-95704819D02*
X176149047Y-95704819D01*
X176149047Y-95704819D02*
X176244285Y-95657200D01*
X176244285Y-95657200D02*
X176291904Y-95609580D01*
X176291904Y-95609580D02*
X176339523Y-95514342D01*
X176339523Y-95514342D02*
X176339523Y-94704819D01*
X177244285Y-95038152D02*
X177244285Y-95704819D01*
X177006190Y-94657200D02*
X176768095Y-95371485D01*
X176768095Y-95371485D02*
X177387142Y-95371485D01*
X171887143Y-92641009D02*
X172220476Y-92641009D01*
X172363333Y-93164819D02*
X171887143Y-93164819D01*
X171887143Y-93164819D02*
X171887143Y-92164819D01*
X171887143Y-92164819D02*
X172363333Y-92164819D01*
X172744286Y-93117200D02*
X172887143Y-93164819D01*
X172887143Y-93164819D02*
X173125238Y-93164819D01*
X173125238Y-93164819D02*
X173220476Y-93117200D01*
X173220476Y-93117200D02*
X173268095Y-93069580D01*
X173268095Y-93069580D02*
X173315714Y-92974342D01*
X173315714Y-92974342D02*
X173315714Y-92879104D01*
X173315714Y-92879104D02*
X173268095Y-92783866D01*
X173268095Y-92783866D02*
X173220476Y-92736247D01*
X173220476Y-92736247D02*
X173125238Y-92688628D01*
X173125238Y-92688628D02*
X172934762Y-92641009D01*
X172934762Y-92641009D02*
X172839524Y-92593390D01*
X172839524Y-92593390D02*
X172791905Y-92545771D01*
X172791905Y-92545771D02*
X172744286Y-92450533D01*
X172744286Y-92450533D02*
X172744286Y-92355295D01*
X172744286Y-92355295D02*
X172791905Y-92260057D01*
X172791905Y-92260057D02*
X172839524Y-92212438D01*
X172839524Y-92212438D02*
X172934762Y-92164819D01*
X172934762Y-92164819D02*
X173172857Y-92164819D01*
X173172857Y-92164819D02*
X173315714Y-92212438D01*
X173744286Y-93164819D02*
X173744286Y-92164819D01*
X173744286Y-92164819D02*
X174125238Y-92164819D01*
X174125238Y-92164819D02*
X174220476Y-92212438D01*
X174220476Y-92212438D02*
X174268095Y-92260057D01*
X174268095Y-92260057D02*
X174315714Y-92355295D01*
X174315714Y-92355295D02*
X174315714Y-92498152D01*
X174315714Y-92498152D02*
X174268095Y-92593390D01*
X174268095Y-92593390D02*
X174220476Y-92641009D01*
X174220476Y-92641009D02*
X174125238Y-92688628D01*
X174125238Y-92688628D02*
X173744286Y-92688628D01*
X174744286Y-92783866D02*
X175506191Y-92783866D01*
X175982381Y-93164819D02*
X175982381Y-92164819D01*
X175982381Y-92164819D02*
X176220476Y-92164819D01*
X176220476Y-92164819D02*
X176363333Y-92212438D01*
X176363333Y-92212438D02*
X176458571Y-92307676D01*
X176458571Y-92307676D02*
X176506190Y-92402914D01*
X176506190Y-92402914D02*
X176553809Y-92593390D01*
X176553809Y-92593390D02*
X176553809Y-92736247D01*
X176553809Y-92736247D02*
X176506190Y-92926723D01*
X176506190Y-92926723D02*
X176458571Y-93021961D01*
X176458571Y-93021961D02*
X176363333Y-93117200D01*
X176363333Y-93117200D02*
X176220476Y-93164819D01*
X176220476Y-93164819D02*
X175982381Y-93164819D01*
X177363333Y-93117200D02*
X177268095Y-93164819D01*
X177268095Y-93164819D02*
X177077619Y-93164819D01*
X177077619Y-93164819D02*
X176982381Y-93117200D01*
X176982381Y-93117200D02*
X176934762Y-93021961D01*
X176934762Y-93021961D02*
X176934762Y-92641009D01*
X176934762Y-92641009D02*
X176982381Y-92545771D01*
X176982381Y-92545771D02*
X177077619Y-92498152D01*
X177077619Y-92498152D02*
X177268095Y-92498152D01*
X177268095Y-92498152D02*
X177363333Y-92545771D01*
X177363333Y-92545771D02*
X177410952Y-92641009D01*
X177410952Y-92641009D02*
X177410952Y-92736247D01*
X177410952Y-92736247D02*
X176934762Y-92831485D01*
X177744286Y-92498152D02*
X177982381Y-93164819D01*
X177982381Y-93164819D02*
X178220476Y-92498152D01*
X178601429Y-93164819D02*
X178601429Y-92164819D01*
X179172857Y-93164819D02*
X178744286Y-92593390D01*
X179172857Y-92164819D02*
X178601429Y-92736247D01*
X179601429Y-93164819D02*
X179601429Y-92498152D01*
X179601429Y-92164819D02*
X179553810Y-92212438D01*
X179553810Y-92212438D02*
X179601429Y-92260057D01*
X179601429Y-92260057D02*
X179649048Y-92212438D01*
X179649048Y-92212438D02*
X179601429Y-92164819D01*
X179601429Y-92164819D02*
X179601429Y-92260057D01*
X179934762Y-92498152D02*
X180315714Y-92498152D01*
X180077619Y-92164819D02*
X180077619Y-93021961D01*
X180077619Y-93021961D02*
X180125238Y-93117200D01*
X180125238Y-93117200D02*
X180220476Y-93164819D01*
X180220476Y-93164819D02*
X180315714Y-93164819D01*
X181220476Y-93069580D02*
X181172857Y-93117200D01*
X181172857Y-93117200D02*
X181030000Y-93164819D01*
X181030000Y-93164819D02*
X180934762Y-93164819D01*
X180934762Y-93164819D02*
X180791905Y-93117200D01*
X180791905Y-93117200D02*
X180696667Y-93021961D01*
X180696667Y-93021961D02*
X180649048Y-92926723D01*
X180649048Y-92926723D02*
X180601429Y-92736247D01*
X180601429Y-92736247D02*
X180601429Y-92593390D01*
X180601429Y-92593390D02*
X180649048Y-92402914D01*
X180649048Y-92402914D02*
X180696667Y-92307676D01*
X180696667Y-92307676D02*
X180791905Y-92212438D01*
X180791905Y-92212438D02*
X180934762Y-92164819D01*
X180934762Y-92164819D02*
X181030000Y-92164819D01*
X181030000Y-92164819D02*
X181172857Y-92212438D01*
X181172857Y-92212438D02*
X181220476Y-92260057D01*
X117371905Y-83004819D02*
X117371905Y-82004819D01*
X117371905Y-82004819D02*
X117610000Y-82004819D01*
X117610000Y-82004819D02*
X117752857Y-82052438D01*
X117752857Y-82052438D02*
X117848095Y-82147676D01*
X117848095Y-82147676D02*
X117895714Y-82242914D01*
X117895714Y-82242914D02*
X117943333Y-82433390D01*
X117943333Y-82433390D02*
X117943333Y-82576247D01*
X117943333Y-82576247D02*
X117895714Y-82766723D01*
X117895714Y-82766723D02*
X117848095Y-82861961D01*
X117848095Y-82861961D02*
X117752857Y-82957200D01*
X117752857Y-82957200D02*
X117610000Y-83004819D01*
X117610000Y-83004819D02*
X117371905Y-83004819D01*
X118895714Y-83004819D02*
X118324286Y-83004819D01*
X118610000Y-83004819D02*
X118610000Y-82004819D01*
X118610000Y-82004819D02*
X118514762Y-82147676D01*
X118514762Y-82147676D02*
X118419524Y-82242914D01*
X118419524Y-82242914D02*
X118324286Y-82290533D01*
X115967142Y-80034819D02*
X115395714Y-80034819D01*
X115681428Y-80034819D02*
X115681428Y-79034819D01*
X115681428Y-79034819D02*
X115586190Y-79177676D01*
X115586190Y-79177676D02*
X115490952Y-79272914D01*
X115490952Y-79272914D02*
X115395714Y-79320533D01*
X116395714Y-80034819D02*
X116395714Y-79034819D01*
X116395714Y-79034819D02*
X116967142Y-80034819D01*
X116967142Y-80034819D02*
X116967142Y-79034819D01*
X117919523Y-79034819D02*
X117443333Y-79034819D01*
X117443333Y-79034819D02*
X117395714Y-79511009D01*
X117395714Y-79511009D02*
X117443333Y-79463390D01*
X117443333Y-79463390D02*
X117538571Y-79415771D01*
X117538571Y-79415771D02*
X117776666Y-79415771D01*
X117776666Y-79415771D02*
X117871904Y-79463390D01*
X117871904Y-79463390D02*
X117919523Y-79511009D01*
X117919523Y-79511009D02*
X117967142Y-79606247D01*
X117967142Y-79606247D02*
X117967142Y-79844342D01*
X117967142Y-79844342D02*
X117919523Y-79939580D01*
X117919523Y-79939580D02*
X117871904Y-79987200D01*
X117871904Y-79987200D02*
X117776666Y-80034819D01*
X117776666Y-80034819D02*
X117538571Y-80034819D01*
X117538571Y-80034819D02*
X117443333Y-79987200D01*
X117443333Y-79987200D02*
X117395714Y-79939580D01*
X118824285Y-79368152D02*
X118824285Y-80034819D01*
X118586190Y-78987200D02*
X118348095Y-79701485D01*
X118348095Y-79701485D02*
X118967142Y-79701485D01*
X119538571Y-79034819D02*
X119633809Y-79034819D01*
X119633809Y-79034819D02*
X119729047Y-79082438D01*
X119729047Y-79082438D02*
X119776666Y-79130057D01*
X119776666Y-79130057D02*
X119824285Y-79225295D01*
X119824285Y-79225295D02*
X119871904Y-79415771D01*
X119871904Y-79415771D02*
X119871904Y-79653866D01*
X119871904Y-79653866D02*
X119824285Y-79844342D01*
X119824285Y-79844342D02*
X119776666Y-79939580D01*
X119776666Y-79939580D02*
X119729047Y-79987200D01*
X119729047Y-79987200D02*
X119633809Y-80034819D01*
X119633809Y-80034819D02*
X119538571Y-80034819D01*
X119538571Y-80034819D02*
X119443333Y-79987200D01*
X119443333Y-79987200D02*
X119395714Y-79939580D01*
X119395714Y-79939580D02*
X119348095Y-79844342D01*
X119348095Y-79844342D02*
X119300476Y-79653866D01*
X119300476Y-79653866D02*
X119300476Y-79415771D01*
X119300476Y-79415771D02*
X119348095Y-79225295D01*
X119348095Y-79225295D02*
X119395714Y-79130057D01*
X119395714Y-79130057D02*
X119443333Y-79082438D01*
X119443333Y-79082438D02*
X119538571Y-79034819D01*
X120490952Y-79034819D02*
X120586190Y-79034819D01*
X120586190Y-79034819D02*
X120681428Y-79082438D01*
X120681428Y-79082438D02*
X120729047Y-79130057D01*
X120729047Y-79130057D02*
X120776666Y-79225295D01*
X120776666Y-79225295D02*
X120824285Y-79415771D01*
X120824285Y-79415771D02*
X120824285Y-79653866D01*
X120824285Y-79653866D02*
X120776666Y-79844342D01*
X120776666Y-79844342D02*
X120729047Y-79939580D01*
X120729047Y-79939580D02*
X120681428Y-79987200D01*
X120681428Y-79987200D02*
X120586190Y-80034819D01*
X120586190Y-80034819D02*
X120490952Y-80034819D01*
X120490952Y-80034819D02*
X120395714Y-79987200D01*
X120395714Y-79987200D02*
X120348095Y-79939580D01*
X120348095Y-79939580D02*
X120300476Y-79844342D01*
X120300476Y-79844342D02*
X120252857Y-79653866D01*
X120252857Y-79653866D02*
X120252857Y-79415771D01*
X120252857Y-79415771D02*
X120300476Y-79225295D01*
X120300476Y-79225295D02*
X120348095Y-79130057D01*
X120348095Y-79130057D02*
X120395714Y-79082438D01*
X120395714Y-79082438D02*
X120490952Y-79034819D01*
X126738095Y-83004819D02*
X126738095Y-82004819D01*
X127309523Y-83004819D02*
X126880952Y-82433390D01*
X127309523Y-82004819D02*
X126738095Y-82576247D01*
X117371905Y-117294819D02*
X117371905Y-116294819D01*
X117371905Y-116294819D02*
X117610000Y-116294819D01*
X117610000Y-116294819D02*
X117752857Y-116342438D01*
X117752857Y-116342438D02*
X117848095Y-116437676D01*
X117848095Y-116437676D02*
X117895714Y-116532914D01*
X117895714Y-116532914D02*
X117943333Y-116723390D01*
X117943333Y-116723390D02*
X117943333Y-116866247D01*
X117943333Y-116866247D02*
X117895714Y-117056723D01*
X117895714Y-117056723D02*
X117848095Y-117151961D01*
X117848095Y-117151961D02*
X117752857Y-117247200D01*
X117752857Y-117247200D02*
X117610000Y-117294819D01*
X117610000Y-117294819D02*
X117371905Y-117294819D01*
X118800476Y-116628152D02*
X118800476Y-117294819D01*
X118562381Y-116247200D02*
X118324286Y-116961485D01*
X118324286Y-116961485D02*
X118943333Y-116961485D01*
X115967142Y-120264819D02*
X115395714Y-120264819D01*
X115681428Y-120264819D02*
X115681428Y-119264819D01*
X115681428Y-119264819D02*
X115586190Y-119407676D01*
X115586190Y-119407676D02*
X115490952Y-119502914D01*
X115490952Y-119502914D02*
X115395714Y-119550533D01*
X116395714Y-120264819D02*
X116395714Y-119264819D01*
X116395714Y-119264819D02*
X116967142Y-120264819D01*
X116967142Y-120264819D02*
X116967142Y-119264819D01*
X117919523Y-119264819D02*
X117443333Y-119264819D01*
X117443333Y-119264819D02*
X117395714Y-119741009D01*
X117395714Y-119741009D02*
X117443333Y-119693390D01*
X117443333Y-119693390D02*
X117538571Y-119645771D01*
X117538571Y-119645771D02*
X117776666Y-119645771D01*
X117776666Y-119645771D02*
X117871904Y-119693390D01*
X117871904Y-119693390D02*
X117919523Y-119741009D01*
X117919523Y-119741009D02*
X117967142Y-119836247D01*
X117967142Y-119836247D02*
X117967142Y-120074342D01*
X117967142Y-120074342D02*
X117919523Y-120169580D01*
X117919523Y-120169580D02*
X117871904Y-120217200D01*
X117871904Y-120217200D02*
X117776666Y-120264819D01*
X117776666Y-120264819D02*
X117538571Y-120264819D01*
X117538571Y-120264819D02*
X117443333Y-120217200D01*
X117443333Y-120217200D02*
X117395714Y-120169580D01*
X118824285Y-119598152D02*
X118824285Y-120264819D01*
X118586190Y-119217200D02*
X118348095Y-119931485D01*
X118348095Y-119931485D02*
X118967142Y-119931485D01*
X119538571Y-119264819D02*
X119633809Y-119264819D01*
X119633809Y-119264819D02*
X119729047Y-119312438D01*
X119729047Y-119312438D02*
X119776666Y-119360057D01*
X119776666Y-119360057D02*
X119824285Y-119455295D01*
X119824285Y-119455295D02*
X119871904Y-119645771D01*
X119871904Y-119645771D02*
X119871904Y-119883866D01*
X119871904Y-119883866D02*
X119824285Y-120074342D01*
X119824285Y-120074342D02*
X119776666Y-120169580D01*
X119776666Y-120169580D02*
X119729047Y-120217200D01*
X119729047Y-120217200D02*
X119633809Y-120264819D01*
X119633809Y-120264819D02*
X119538571Y-120264819D01*
X119538571Y-120264819D02*
X119443333Y-120217200D01*
X119443333Y-120217200D02*
X119395714Y-120169580D01*
X119395714Y-120169580D02*
X119348095Y-120074342D01*
X119348095Y-120074342D02*
X119300476Y-119883866D01*
X119300476Y-119883866D02*
X119300476Y-119645771D01*
X119300476Y-119645771D02*
X119348095Y-119455295D01*
X119348095Y-119455295D02*
X119395714Y-119360057D01*
X119395714Y-119360057D02*
X119443333Y-119312438D01*
X119443333Y-119312438D02*
X119538571Y-119264819D01*
X120490952Y-119264819D02*
X120586190Y-119264819D01*
X120586190Y-119264819D02*
X120681428Y-119312438D01*
X120681428Y-119312438D02*
X120729047Y-119360057D01*
X120729047Y-119360057D02*
X120776666Y-119455295D01*
X120776666Y-119455295D02*
X120824285Y-119645771D01*
X120824285Y-119645771D02*
X120824285Y-119883866D01*
X120824285Y-119883866D02*
X120776666Y-120074342D01*
X120776666Y-120074342D02*
X120729047Y-120169580D01*
X120729047Y-120169580D02*
X120681428Y-120217200D01*
X120681428Y-120217200D02*
X120586190Y-120264819D01*
X120586190Y-120264819D02*
X120490952Y-120264819D01*
X120490952Y-120264819D02*
X120395714Y-120217200D01*
X120395714Y-120217200D02*
X120348095Y-120169580D01*
X120348095Y-120169580D02*
X120300476Y-120074342D01*
X120300476Y-120074342D02*
X120252857Y-119883866D01*
X120252857Y-119883866D02*
X120252857Y-119645771D01*
X120252857Y-119645771D02*
X120300476Y-119455295D01*
X120300476Y-119455295D02*
X120348095Y-119360057D01*
X120348095Y-119360057D02*
X120395714Y-119312438D01*
X120395714Y-119312438D02*
X120490952Y-119264819D01*
X108958095Y-117294819D02*
X108958095Y-116294819D01*
X109529523Y-117294819D02*
X109100952Y-116723390D01*
X109529523Y-116294819D02*
X108958095Y-116866247D01*
X100631666Y-46444819D02*
X100631666Y-47159104D01*
X100631666Y-47159104D02*
X100584047Y-47301961D01*
X100584047Y-47301961D02*
X100488809Y-47397200D01*
X100488809Y-47397200D02*
X100345952Y-47444819D01*
X100345952Y-47444819D02*
X100250714Y-47444819D01*
X101631666Y-47444819D02*
X101060238Y-47444819D01*
X101345952Y-47444819D02*
X101345952Y-46444819D01*
X101345952Y-46444819D02*
X101250714Y-46587676D01*
X101250714Y-46587676D02*
X101155476Y-46682914D01*
X101155476Y-46682914D02*
X101060238Y-46730533D01*
X100631666Y-52794819D02*
X100631666Y-53509104D01*
X100631666Y-53509104D02*
X100584047Y-53651961D01*
X100584047Y-53651961D02*
X100488809Y-53747200D01*
X100488809Y-53747200D02*
X100345952Y-53794819D01*
X100345952Y-53794819D02*
X100250714Y-53794819D01*
X101060238Y-52890057D02*
X101107857Y-52842438D01*
X101107857Y-52842438D02*
X101203095Y-52794819D01*
X101203095Y-52794819D02*
X101441190Y-52794819D01*
X101441190Y-52794819D02*
X101536428Y-52842438D01*
X101536428Y-52842438D02*
X101584047Y-52890057D01*
X101584047Y-52890057D02*
X101631666Y-52985295D01*
X101631666Y-52985295D02*
X101631666Y-53080533D01*
X101631666Y-53080533D02*
X101584047Y-53223390D01*
X101584047Y-53223390D02*
X101012619Y-53794819D01*
X101012619Y-53794819D02*
X101631666Y-53794819D01*
X100631666Y-59144819D02*
X100631666Y-59859104D01*
X100631666Y-59859104D02*
X100584047Y-60001961D01*
X100584047Y-60001961D02*
X100488809Y-60097200D01*
X100488809Y-60097200D02*
X100345952Y-60144819D01*
X100345952Y-60144819D02*
X100250714Y-60144819D01*
X101012619Y-59144819D02*
X101631666Y-59144819D01*
X101631666Y-59144819D02*
X101298333Y-59525771D01*
X101298333Y-59525771D02*
X101441190Y-59525771D01*
X101441190Y-59525771D02*
X101536428Y-59573390D01*
X101536428Y-59573390D02*
X101584047Y-59621009D01*
X101584047Y-59621009D02*
X101631666Y-59716247D01*
X101631666Y-59716247D02*
X101631666Y-59954342D01*
X101631666Y-59954342D02*
X101584047Y-60049580D01*
X101584047Y-60049580D02*
X101536428Y-60097200D01*
X101536428Y-60097200D02*
X101441190Y-60144819D01*
X101441190Y-60144819D02*
X101155476Y-60144819D01*
X101155476Y-60144819D02*
X101060238Y-60097200D01*
X101060238Y-60097200D02*
X101012619Y-60049580D01*
X100631666Y-90894819D02*
X100631666Y-91609104D01*
X100631666Y-91609104D02*
X100584047Y-91751961D01*
X100584047Y-91751961D02*
X100488809Y-91847200D01*
X100488809Y-91847200D02*
X100345952Y-91894819D01*
X100345952Y-91894819D02*
X100250714Y-91894819D01*
X101012619Y-90894819D02*
X101679285Y-90894819D01*
X101679285Y-90894819D02*
X101250714Y-91894819D01*
X100631666Y-97254819D02*
X100631666Y-97969104D01*
X100631666Y-97969104D02*
X100584047Y-98111961D01*
X100584047Y-98111961D02*
X100488809Y-98207200D01*
X100488809Y-98207200D02*
X100345952Y-98254819D01*
X100345952Y-98254819D02*
X100250714Y-98254819D01*
X101250714Y-97683390D02*
X101155476Y-97635771D01*
X101155476Y-97635771D02*
X101107857Y-97588152D01*
X101107857Y-97588152D02*
X101060238Y-97492914D01*
X101060238Y-97492914D02*
X101060238Y-97445295D01*
X101060238Y-97445295D02*
X101107857Y-97350057D01*
X101107857Y-97350057D02*
X101155476Y-97302438D01*
X101155476Y-97302438D02*
X101250714Y-97254819D01*
X101250714Y-97254819D02*
X101441190Y-97254819D01*
X101441190Y-97254819D02*
X101536428Y-97302438D01*
X101536428Y-97302438D02*
X101584047Y-97350057D01*
X101584047Y-97350057D02*
X101631666Y-97445295D01*
X101631666Y-97445295D02*
X101631666Y-97492914D01*
X101631666Y-97492914D02*
X101584047Y-97588152D01*
X101584047Y-97588152D02*
X101536428Y-97635771D01*
X101536428Y-97635771D02*
X101441190Y-97683390D01*
X101441190Y-97683390D02*
X101250714Y-97683390D01*
X101250714Y-97683390D02*
X101155476Y-97731009D01*
X101155476Y-97731009D02*
X101107857Y-97778628D01*
X101107857Y-97778628D02*
X101060238Y-97873866D01*
X101060238Y-97873866D02*
X101060238Y-98064342D01*
X101060238Y-98064342D02*
X101107857Y-98159580D01*
X101107857Y-98159580D02*
X101155476Y-98207200D01*
X101155476Y-98207200D02*
X101250714Y-98254819D01*
X101250714Y-98254819D02*
X101441190Y-98254819D01*
X101441190Y-98254819D02*
X101536428Y-98207200D01*
X101536428Y-98207200D02*
X101584047Y-98159580D01*
X101584047Y-98159580D02*
X101631666Y-98064342D01*
X101631666Y-98064342D02*
X101631666Y-97873866D01*
X101631666Y-97873866D02*
X101584047Y-97778628D01*
X101584047Y-97778628D02*
X101536428Y-97731009D01*
X101536428Y-97731009D02*
X101441190Y-97683390D01*
X100631666Y-103604819D02*
X100631666Y-104319104D01*
X100631666Y-104319104D02*
X100584047Y-104461961D01*
X100584047Y-104461961D02*
X100488809Y-104557200D01*
X100488809Y-104557200D02*
X100345952Y-104604819D01*
X100345952Y-104604819D02*
X100250714Y-104604819D01*
X101155476Y-104604819D02*
X101345952Y-104604819D01*
X101345952Y-104604819D02*
X101441190Y-104557200D01*
X101441190Y-104557200D02*
X101488809Y-104509580D01*
X101488809Y-104509580D02*
X101584047Y-104366723D01*
X101584047Y-104366723D02*
X101631666Y-104176247D01*
X101631666Y-104176247D02*
X101631666Y-103795295D01*
X101631666Y-103795295D02*
X101584047Y-103700057D01*
X101584047Y-103700057D02*
X101536428Y-103652438D01*
X101536428Y-103652438D02*
X101441190Y-103604819D01*
X101441190Y-103604819D02*
X101250714Y-103604819D01*
X101250714Y-103604819D02*
X101155476Y-103652438D01*
X101155476Y-103652438D02*
X101107857Y-103700057D01*
X101107857Y-103700057D02*
X101060238Y-103795295D01*
X101060238Y-103795295D02*
X101060238Y-104033390D01*
X101060238Y-104033390D02*
X101107857Y-104128628D01*
X101107857Y-104128628D02*
X101155476Y-104176247D01*
X101155476Y-104176247D02*
X101250714Y-104223866D01*
X101250714Y-104223866D02*
X101441190Y-104223866D01*
X101441190Y-104223866D02*
X101536428Y-104176247D01*
X101536428Y-104176247D02*
X101584047Y-104128628D01*
X101584047Y-104128628D02*
X101631666Y-104033390D01*
X100155476Y-109944819D02*
X100155476Y-110659104D01*
X100155476Y-110659104D02*
X100107857Y-110801961D01*
X100107857Y-110801961D02*
X100012619Y-110897200D01*
X100012619Y-110897200D02*
X99869762Y-110944819D01*
X99869762Y-110944819D02*
X99774524Y-110944819D01*
X101155476Y-110944819D02*
X100584048Y-110944819D01*
X100869762Y-110944819D02*
X100869762Y-109944819D01*
X100869762Y-109944819D02*
X100774524Y-110087676D01*
X100774524Y-110087676D02*
X100679286Y-110182914D01*
X100679286Y-110182914D02*
X100584048Y-110230533D01*
X101774524Y-109944819D02*
X101869762Y-109944819D01*
X101869762Y-109944819D02*
X101965000Y-109992438D01*
X101965000Y-109992438D02*
X102012619Y-110040057D01*
X102012619Y-110040057D02*
X102060238Y-110135295D01*
X102060238Y-110135295D02*
X102107857Y-110325771D01*
X102107857Y-110325771D02*
X102107857Y-110563866D01*
X102107857Y-110563866D02*
X102060238Y-110754342D01*
X102060238Y-110754342D02*
X102012619Y-110849580D01*
X102012619Y-110849580D02*
X101965000Y-110897200D01*
X101965000Y-110897200D02*
X101869762Y-110944819D01*
X101869762Y-110944819D02*
X101774524Y-110944819D01*
X101774524Y-110944819D02*
X101679286Y-110897200D01*
X101679286Y-110897200D02*
X101631667Y-110849580D01*
X101631667Y-110849580D02*
X101584048Y-110754342D01*
X101584048Y-110754342D02*
X101536429Y-110563866D01*
X101536429Y-110563866D02*
X101536429Y-110325771D01*
X101536429Y-110325771D02*
X101584048Y-110135295D01*
X101584048Y-110135295D02*
X101631667Y-110040057D01*
X101631667Y-110040057D02*
X101679286Y-109992438D01*
X101679286Y-109992438D02*
X101774524Y-109944819D01*
X100155476Y-117564819D02*
X100155476Y-118279104D01*
X100155476Y-118279104D02*
X100107857Y-118421961D01*
X100107857Y-118421961D02*
X100012619Y-118517200D01*
X100012619Y-118517200D02*
X99869762Y-118564819D01*
X99869762Y-118564819D02*
X99774524Y-118564819D01*
X101155476Y-118564819D02*
X100584048Y-118564819D01*
X100869762Y-118564819D02*
X100869762Y-117564819D01*
X100869762Y-117564819D02*
X100774524Y-117707676D01*
X100774524Y-117707676D02*
X100679286Y-117802914D01*
X100679286Y-117802914D02*
X100584048Y-117850533D01*
X102107857Y-118564819D02*
X101536429Y-118564819D01*
X101822143Y-118564819D02*
X101822143Y-117564819D01*
X101822143Y-117564819D02*
X101726905Y-117707676D01*
X101726905Y-117707676D02*
X101631667Y-117802914D01*
X101631667Y-117802914D02*
X101536429Y-117850533D01*
X141370476Y-124174819D02*
X141370476Y-124889104D01*
X141370476Y-124889104D02*
X141322857Y-125031961D01*
X141322857Y-125031961D02*
X141227619Y-125127200D01*
X141227619Y-125127200D02*
X141084762Y-125174819D01*
X141084762Y-125174819D02*
X140989524Y-125174819D01*
X142370476Y-125174819D02*
X141799048Y-125174819D01*
X142084762Y-125174819D02*
X142084762Y-124174819D01*
X142084762Y-124174819D02*
X141989524Y-124317676D01*
X141989524Y-124317676D02*
X141894286Y-124412914D01*
X141894286Y-124412914D02*
X141799048Y-124460533D01*
X142703810Y-124174819D02*
X143322857Y-124174819D01*
X143322857Y-124174819D02*
X142989524Y-124555771D01*
X142989524Y-124555771D02*
X143132381Y-124555771D01*
X143132381Y-124555771D02*
X143227619Y-124603390D01*
X143227619Y-124603390D02*
X143275238Y-124651009D01*
X143275238Y-124651009D02*
X143322857Y-124746247D01*
X143322857Y-124746247D02*
X143322857Y-124984342D01*
X143322857Y-124984342D02*
X143275238Y-125079580D01*
X143275238Y-125079580D02*
X143227619Y-125127200D01*
X143227619Y-125127200D02*
X143132381Y-125174819D01*
X143132381Y-125174819D02*
X142846667Y-125174819D01*
X142846667Y-125174819D02*
X142751429Y-125127200D01*
X142751429Y-125127200D02*
X142703810Y-125079580D01*
X140727619Y-132324819D02*
X140918095Y-132324819D01*
X140918095Y-132324819D02*
X141013333Y-132372438D01*
X141013333Y-132372438D02*
X141108571Y-132467676D01*
X141108571Y-132467676D02*
X141156190Y-132658152D01*
X141156190Y-132658152D02*
X141156190Y-132991485D01*
X141156190Y-132991485D02*
X141108571Y-133181961D01*
X141108571Y-133181961D02*
X141013333Y-133277200D01*
X141013333Y-133277200D02*
X140918095Y-133324819D01*
X140918095Y-133324819D02*
X140727619Y-133324819D01*
X140727619Y-133324819D02*
X140632381Y-133277200D01*
X140632381Y-133277200D02*
X140537143Y-133181961D01*
X140537143Y-133181961D02*
X140489524Y-132991485D01*
X140489524Y-132991485D02*
X140489524Y-132658152D01*
X140489524Y-132658152D02*
X140537143Y-132467676D01*
X140537143Y-132467676D02*
X140632381Y-132372438D01*
X140632381Y-132372438D02*
X140727619Y-132324819D01*
X142060952Y-133324819D02*
X141584762Y-133324819D01*
X141584762Y-133324819D02*
X141584762Y-132324819D01*
X142394286Y-132801009D02*
X142727619Y-132801009D01*
X142870476Y-133324819D02*
X142394286Y-133324819D01*
X142394286Y-133324819D02*
X142394286Y-132324819D01*
X142394286Y-132324819D02*
X142870476Y-132324819D01*
X143299048Y-133324819D02*
X143299048Y-132324819D01*
X143299048Y-132324819D02*
X143537143Y-132324819D01*
X143537143Y-132324819D02*
X143680000Y-132372438D01*
X143680000Y-132372438D02*
X143775238Y-132467676D01*
X143775238Y-132467676D02*
X143822857Y-132562914D01*
X143822857Y-132562914D02*
X143870476Y-132753390D01*
X143870476Y-132753390D02*
X143870476Y-132896247D01*
X143870476Y-132896247D02*
X143822857Y-133086723D01*
X143822857Y-133086723D02*
X143775238Y-133181961D01*
X143775238Y-133181961D02*
X143680000Y-133277200D01*
X143680000Y-133277200D02*
X143537143Y-133324819D01*
X143537143Y-133324819D02*
X143299048Y-133324819D01*
X155975476Y-124174819D02*
X155975476Y-124889104D01*
X155975476Y-124889104D02*
X155927857Y-125031961D01*
X155927857Y-125031961D02*
X155832619Y-125127200D01*
X155832619Y-125127200D02*
X155689762Y-125174819D01*
X155689762Y-125174819D02*
X155594524Y-125174819D01*
X156975476Y-125174819D02*
X156404048Y-125174819D01*
X156689762Y-125174819D02*
X156689762Y-124174819D01*
X156689762Y-124174819D02*
X156594524Y-124317676D01*
X156594524Y-124317676D02*
X156499286Y-124412914D01*
X156499286Y-124412914D02*
X156404048Y-124460533D01*
X157832619Y-124508152D02*
X157832619Y-125174819D01*
X157594524Y-124127200D02*
X157356429Y-124841485D01*
X157356429Y-124841485D02*
X157975476Y-124841485D01*
X156023095Y-132801009D02*
X155689762Y-132801009D01*
X155689762Y-133324819D02*
X155689762Y-132324819D01*
X155689762Y-132324819D02*
X156165952Y-132324819D01*
X156975476Y-133324819D02*
X156975476Y-132801009D01*
X156975476Y-132801009D02*
X156927857Y-132705771D01*
X156927857Y-132705771D02*
X156832619Y-132658152D01*
X156832619Y-132658152D02*
X156642143Y-132658152D01*
X156642143Y-132658152D02*
X156546905Y-132705771D01*
X156975476Y-133277200D02*
X156880238Y-133324819D01*
X156880238Y-133324819D02*
X156642143Y-133324819D01*
X156642143Y-133324819D02*
X156546905Y-133277200D01*
X156546905Y-133277200D02*
X156499286Y-133181961D01*
X156499286Y-133181961D02*
X156499286Y-133086723D01*
X156499286Y-133086723D02*
X156546905Y-132991485D01*
X156546905Y-132991485D02*
X156642143Y-132943866D01*
X156642143Y-132943866D02*
X156880238Y-132943866D01*
X156880238Y-132943866D02*
X156975476Y-132896247D01*
X157451667Y-132658152D02*
X157451667Y-133324819D01*
X157451667Y-132753390D02*
X157499286Y-132705771D01*
X157499286Y-132705771D02*
X157594524Y-132658152D01*
X157594524Y-132658152D02*
X157737381Y-132658152D01*
X157737381Y-132658152D02*
X157832619Y-132705771D01*
X157832619Y-132705771D02*
X157880238Y-132801009D01*
X157880238Y-132801009D02*
X157880238Y-133324819D01*
X128055476Y-124174819D02*
X128055476Y-124889104D01*
X128055476Y-124889104D02*
X128007857Y-125031961D01*
X128007857Y-125031961D02*
X127912619Y-125127200D01*
X127912619Y-125127200D02*
X127769762Y-125174819D01*
X127769762Y-125174819D02*
X127674524Y-125174819D01*
X129055476Y-125174819D02*
X128484048Y-125174819D01*
X128769762Y-125174819D02*
X128769762Y-124174819D01*
X128769762Y-124174819D02*
X128674524Y-124317676D01*
X128674524Y-124317676D02*
X128579286Y-124412914D01*
X128579286Y-124412914D02*
X128484048Y-124460533D01*
X129912619Y-124174819D02*
X129722143Y-124174819D01*
X129722143Y-124174819D02*
X129626905Y-124222438D01*
X129626905Y-124222438D02*
X129579286Y-124270057D01*
X129579286Y-124270057D02*
X129484048Y-124412914D01*
X129484048Y-124412914D02*
X129436429Y-124603390D01*
X129436429Y-124603390D02*
X129436429Y-124984342D01*
X129436429Y-124984342D02*
X129484048Y-125079580D01*
X129484048Y-125079580D02*
X129531667Y-125127200D01*
X129531667Y-125127200D02*
X129626905Y-125174819D01*
X129626905Y-125174819D02*
X129817381Y-125174819D01*
X129817381Y-125174819D02*
X129912619Y-125127200D01*
X129912619Y-125127200D02*
X129960238Y-125079580D01*
X129960238Y-125079580D02*
X130007857Y-124984342D01*
X130007857Y-124984342D02*
X130007857Y-124746247D01*
X130007857Y-124746247D02*
X129960238Y-124651009D01*
X129960238Y-124651009D02*
X129912619Y-124603390D01*
X129912619Y-124603390D02*
X129817381Y-124555771D01*
X129817381Y-124555771D02*
X129626905Y-124555771D01*
X129626905Y-124555771D02*
X129531667Y-124603390D01*
X129531667Y-124603390D02*
X129484048Y-124651009D01*
X129484048Y-124651009D02*
X129436429Y-124746247D01*
X125865000Y-133324819D02*
X125865000Y-132324819D01*
X125865000Y-132324819D02*
X126436428Y-133324819D01*
X126436428Y-133324819D02*
X126436428Y-132324819D01*
X127293571Y-133277200D02*
X127198333Y-133324819D01*
X127198333Y-133324819D02*
X127007857Y-133324819D01*
X127007857Y-133324819D02*
X126912619Y-133277200D01*
X126912619Y-133277200D02*
X126865000Y-133181961D01*
X126865000Y-133181961D02*
X126865000Y-132801009D01*
X126865000Y-132801009D02*
X126912619Y-132705771D01*
X126912619Y-132705771D02*
X127007857Y-132658152D01*
X127007857Y-132658152D02*
X127198333Y-132658152D01*
X127198333Y-132658152D02*
X127293571Y-132705771D01*
X127293571Y-132705771D02*
X127341190Y-132801009D01*
X127341190Y-132801009D02*
X127341190Y-132896247D01*
X127341190Y-132896247D02*
X126865000Y-132991485D01*
X127912619Y-133324819D02*
X127817381Y-133277200D01*
X127817381Y-133277200D02*
X127769762Y-133229580D01*
X127769762Y-133229580D02*
X127722143Y-133134342D01*
X127722143Y-133134342D02*
X127722143Y-132848628D01*
X127722143Y-132848628D02*
X127769762Y-132753390D01*
X127769762Y-132753390D02*
X127817381Y-132705771D01*
X127817381Y-132705771D02*
X127912619Y-132658152D01*
X127912619Y-132658152D02*
X128055476Y-132658152D01*
X128055476Y-132658152D02*
X128150714Y-132705771D01*
X128150714Y-132705771D02*
X128198333Y-132753390D01*
X128198333Y-132753390D02*
X128245952Y-132848628D01*
X128245952Y-132848628D02*
X128245952Y-133134342D01*
X128245952Y-133134342D02*
X128198333Y-133229580D01*
X128198333Y-133229580D02*
X128150714Y-133277200D01*
X128150714Y-133277200D02*
X128055476Y-133324819D01*
X128055476Y-133324819D02*
X127912619Y-133324819D01*
X128674524Y-133324819D02*
X128674524Y-132324819D01*
X128674524Y-132324819D02*
X129055476Y-132324819D01*
X129055476Y-132324819D02*
X129150714Y-132372438D01*
X129150714Y-132372438D02*
X129198333Y-132420057D01*
X129198333Y-132420057D02*
X129245952Y-132515295D01*
X129245952Y-132515295D02*
X129245952Y-132658152D01*
X129245952Y-132658152D02*
X129198333Y-132753390D01*
X129198333Y-132753390D02*
X129150714Y-132801009D01*
X129150714Y-132801009D02*
X129055476Y-132848628D01*
X129055476Y-132848628D02*
X128674524Y-132848628D01*
X129674524Y-133324819D02*
X129674524Y-132658152D01*
X129674524Y-132324819D02*
X129626905Y-132372438D01*
X129626905Y-132372438D02*
X129674524Y-132420057D01*
X129674524Y-132420057D02*
X129722143Y-132372438D01*
X129722143Y-132372438D02*
X129674524Y-132324819D01*
X129674524Y-132324819D02*
X129674524Y-132420057D01*
X130055476Y-133324819D02*
X130579285Y-132658152D01*
X130055476Y-132658152D02*
X130579285Y-133324819D01*
X131341190Y-133277200D02*
X131245952Y-133324819D01*
X131245952Y-133324819D02*
X131055476Y-133324819D01*
X131055476Y-133324819D02*
X130960238Y-133277200D01*
X130960238Y-133277200D02*
X130912619Y-133181961D01*
X130912619Y-133181961D02*
X130912619Y-132801009D01*
X130912619Y-132801009D02*
X130960238Y-132705771D01*
X130960238Y-132705771D02*
X131055476Y-132658152D01*
X131055476Y-132658152D02*
X131245952Y-132658152D01*
X131245952Y-132658152D02*
X131341190Y-132705771D01*
X131341190Y-132705771D02*
X131388809Y-132801009D01*
X131388809Y-132801009D02*
X131388809Y-132896247D01*
X131388809Y-132896247D02*
X130912619Y-132991485D01*
X131960238Y-133324819D02*
X131865000Y-133277200D01*
X131865000Y-133277200D02*
X131817381Y-133181961D01*
X131817381Y-133181961D02*
X131817381Y-132324819D01*
X133858095Y-56469819D02*
X133858095Y-57279342D01*
X133858095Y-57279342D02*
X133905714Y-57374580D01*
X133905714Y-57374580D02*
X133953333Y-57422200D01*
X133953333Y-57422200D02*
X134048571Y-57469819D01*
X134048571Y-57469819D02*
X134239047Y-57469819D01*
X134239047Y-57469819D02*
X134334285Y-57422200D01*
X134334285Y-57422200D02*
X134381904Y-57374580D01*
X134381904Y-57374580D02*
X134429523Y-57279342D01*
X134429523Y-57279342D02*
X134429523Y-56469819D01*
X135429523Y-57469819D02*
X134858095Y-57469819D01*
X135143809Y-57469819D02*
X135143809Y-56469819D01*
X135143809Y-56469819D02*
X135048571Y-56612676D01*
X135048571Y-56612676D02*
X134953333Y-56707914D01*
X134953333Y-56707914D02*
X134858095Y-56755533D01*
X143774819Y-92201904D02*
X144584342Y-92201904D01*
X144584342Y-92201904D02*
X144679580Y-92154285D01*
X144679580Y-92154285D02*
X144727200Y-92106666D01*
X144727200Y-92106666D02*
X144774819Y-92011428D01*
X144774819Y-92011428D02*
X144774819Y-91820952D01*
X144774819Y-91820952D02*
X144727200Y-91725714D01*
X144727200Y-91725714D02*
X144679580Y-91678095D01*
X144679580Y-91678095D02*
X144584342Y-91630476D01*
X144584342Y-91630476D02*
X143774819Y-91630476D01*
X143870057Y-91201904D02*
X143822438Y-91154285D01*
X143822438Y-91154285D02*
X143774819Y-91059047D01*
X143774819Y-91059047D02*
X143774819Y-90820952D01*
X143774819Y-90820952D02*
X143822438Y-90725714D01*
X143822438Y-90725714D02*
X143870057Y-90678095D01*
X143870057Y-90678095D02*
X143965295Y-90630476D01*
X143965295Y-90630476D02*
X144060533Y-90630476D01*
X144060533Y-90630476D02*
X144203390Y-90678095D01*
X144203390Y-90678095D02*
X144774819Y-91249523D01*
X144774819Y-91249523D02*
X144774819Y-90630476D01*
X151544819Y-96320952D02*
X151544819Y-96797142D01*
X151544819Y-96797142D02*
X150544819Y-96797142D01*
X151544819Y-95987618D02*
X150544819Y-95987618D01*
X150544819Y-95987618D02*
X151259104Y-95654285D01*
X151259104Y-95654285D02*
X150544819Y-95320952D01*
X150544819Y-95320952D02*
X151544819Y-95320952D01*
X150544819Y-94939999D02*
X150544819Y-94273333D01*
X150544819Y-94273333D02*
X151544819Y-94701904D01*
X150973390Y-93749523D02*
X150925771Y-93844761D01*
X150925771Y-93844761D02*
X150878152Y-93892380D01*
X150878152Y-93892380D02*
X150782914Y-93939999D01*
X150782914Y-93939999D02*
X150735295Y-93939999D01*
X150735295Y-93939999D02*
X150640057Y-93892380D01*
X150640057Y-93892380D02*
X150592438Y-93844761D01*
X150592438Y-93844761D02*
X150544819Y-93749523D01*
X150544819Y-93749523D02*
X150544819Y-93559047D01*
X150544819Y-93559047D02*
X150592438Y-93463809D01*
X150592438Y-93463809D02*
X150640057Y-93416190D01*
X150640057Y-93416190D02*
X150735295Y-93368571D01*
X150735295Y-93368571D02*
X150782914Y-93368571D01*
X150782914Y-93368571D02*
X150878152Y-93416190D01*
X150878152Y-93416190D02*
X150925771Y-93463809D01*
X150925771Y-93463809D02*
X150973390Y-93559047D01*
X150973390Y-93559047D02*
X150973390Y-93749523D01*
X150973390Y-93749523D02*
X151021009Y-93844761D01*
X151021009Y-93844761D02*
X151068628Y-93892380D01*
X151068628Y-93892380D02*
X151163866Y-93939999D01*
X151163866Y-93939999D02*
X151354342Y-93939999D01*
X151354342Y-93939999D02*
X151449580Y-93892380D01*
X151449580Y-93892380D02*
X151497200Y-93844761D01*
X151497200Y-93844761D02*
X151544819Y-93749523D01*
X151544819Y-93749523D02*
X151544819Y-93559047D01*
X151544819Y-93559047D02*
X151497200Y-93463809D01*
X151497200Y-93463809D02*
X151449580Y-93416190D01*
X151449580Y-93416190D02*
X151354342Y-93368571D01*
X151354342Y-93368571D02*
X151163866Y-93368571D01*
X151163866Y-93368571D02*
X151068628Y-93416190D01*
X151068628Y-93416190D02*
X151021009Y-93463809D01*
X151021009Y-93463809D02*
X150973390Y-93559047D01*
X150544819Y-92749523D02*
X150544819Y-92654285D01*
X150544819Y-92654285D02*
X150592438Y-92559047D01*
X150592438Y-92559047D02*
X150640057Y-92511428D01*
X150640057Y-92511428D02*
X150735295Y-92463809D01*
X150735295Y-92463809D02*
X150925771Y-92416190D01*
X150925771Y-92416190D02*
X151163866Y-92416190D01*
X151163866Y-92416190D02*
X151354342Y-92463809D01*
X151354342Y-92463809D02*
X151449580Y-92511428D01*
X151449580Y-92511428D02*
X151497200Y-92559047D01*
X151497200Y-92559047D02*
X151544819Y-92654285D01*
X151544819Y-92654285D02*
X151544819Y-92749523D01*
X151544819Y-92749523D02*
X151497200Y-92844761D01*
X151497200Y-92844761D02*
X151449580Y-92892380D01*
X151449580Y-92892380D02*
X151354342Y-92939999D01*
X151354342Y-92939999D02*
X151163866Y-92987618D01*
X151163866Y-92987618D02*
X150925771Y-92987618D01*
X150925771Y-92987618D02*
X150735295Y-92939999D01*
X150735295Y-92939999D02*
X150640057Y-92892380D01*
X150640057Y-92892380D02*
X150592438Y-92844761D01*
X150592438Y-92844761D02*
X150544819Y-92749523D01*
X150544819Y-91511428D02*
X150544819Y-91987618D01*
X150544819Y-91987618D02*
X151021009Y-92035237D01*
X151021009Y-92035237D02*
X150973390Y-91987618D01*
X150973390Y-91987618D02*
X150925771Y-91892380D01*
X150925771Y-91892380D02*
X150925771Y-91654285D01*
X150925771Y-91654285D02*
X150973390Y-91559047D01*
X150973390Y-91559047D02*
X151021009Y-91511428D01*
X151021009Y-91511428D02*
X151116247Y-91463809D01*
X151116247Y-91463809D02*
X151354342Y-91463809D01*
X151354342Y-91463809D02*
X151449580Y-91511428D01*
X151449580Y-91511428D02*
X151497200Y-91559047D01*
X151497200Y-91559047D02*
X151544819Y-91654285D01*
X151544819Y-91654285D02*
X151544819Y-91892380D01*
X151544819Y-91892380D02*
X151497200Y-91987618D01*
X151497200Y-91987618D02*
X151449580Y-92035237D01*
X151640057Y-91273333D02*
X151640057Y-90511428D01*
X150544819Y-90416189D02*
X150544819Y-89844761D01*
X151544819Y-90130475D02*
X150544819Y-90130475D01*
X150544819Y-89320951D02*
X150544819Y-89130475D01*
X150544819Y-89130475D02*
X150592438Y-89035237D01*
X150592438Y-89035237D02*
X150687676Y-88939999D01*
X150687676Y-88939999D02*
X150878152Y-88892380D01*
X150878152Y-88892380D02*
X151211485Y-88892380D01*
X151211485Y-88892380D02*
X151401961Y-88939999D01*
X151401961Y-88939999D02*
X151497200Y-89035237D01*
X151497200Y-89035237D02*
X151544819Y-89130475D01*
X151544819Y-89130475D02*
X151544819Y-89320951D01*
X151544819Y-89320951D02*
X151497200Y-89416189D01*
X151497200Y-89416189D02*
X151401961Y-89511427D01*
X151401961Y-89511427D02*
X151211485Y-89559046D01*
X151211485Y-89559046D02*
X150878152Y-89559046D01*
X150878152Y-89559046D02*
X150687676Y-89511427D01*
X150687676Y-89511427D02*
X150592438Y-89416189D01*
X150592438Y-89416189D02*
X150544819Y-89320951D01*
X150640057Y-88511427D02*
X150592438Y-88463808D01*
X150592438Y-88463808D02*
X150544819Y-88368570D01*
X150544819Y-88368570D02*
X150544819Y-88130475D01*
X150544819Y-88130475D02*
X150592438Y-88035237D01*
X150592438Y-88035237D02*
X150640057Y-87987618D01*
X150640057Y-87987618D02*
X150735295Y-87939999D01*
X150735295Y-87939999D02*
X150830533Y-87939999D01*
X150830533Y-87939999D02*
X150973390Y-87987618D01*
X150973390Y-87987618D02*
X151544819Y-88559046D01*
X151544819Y-88559046D02*
X151544819Y-87939999D01*
X150640057Y-87559046D02*
X150592438Y-87511427D01*
X150592438Y-87511427D02*
X150544819Y-87416189D01*
X150544819Y-87416189D02*
X150544819Y-87178094D01*
X150544819Y-87178094D02*
X150592438Y-87082856D01*
X150592438Y-87082856D02*
X150640057Y-87035237D01*
X150640057Y-87035237D02*
X150735295Y-86987618D01*
X150735295Y-86987618D02*
X150830533Y-86987618D01*
X150830533Y-86987618D02*
X150973390Y-87035237D01*
X150973390Y-87035237D02*
X151544819Y-87606665D01*
X151544819Y-87606665D02*
X151544819Y-86987618D01*
X150544819Y-86368570D02*
X150544819Y-86273332D01*
X150544819Y-86273332D02*
X150592438Y-86178094D01*
X150592438Y-86178094D02*
X150640057Y-86130475D01*
X150640057Y-86130475D02*
X150735295Y-86082856D01*
X150735295Y-86082856D02*
X150925771Y-86035237D01*
X150925771Y-86035237D02*
X151163866Y-86035237D01*
X151163866Y-86035237D02*
X151354342Y-86082856D01*
X151354342Y-86082856D02*
X151449580Y-86130475D01*
X151449580Y-86130475D02*
X151497200Y-86178094D01*
X151497200Y-86178094D02*
X151544819Y-86273332D01*
X151544819Y-86273332D02*
X151544819Y-86368570D01*
X151544819Y-86368570D02*
X151497200Y-86463808D01*
X151497200Y-86463808D02*
X151449580Y-86511427D01*
X151449580Y-86511427D02*
X151354342Y-86559046D01*
X151354342Y-86559046D02*
X151163866Y-86606665D01*
X151163866Y-86606665D02*
X150925771Y-86606665D01*
X150925771Y-86606665D02*
X150735295Y-86559046D01*
X150735295Y-86559046D02*
X150640057Y-86511427D01*
X150640057Y-86511427D02*
X150592438Y-86463808D01*
X150592438Y-86463808D02*
X150544819Y-86368570D01*
X166243095Y-65284819D02*
X166243095Y-66094342D01*
X166243095Y-66094342D02*
X166290714Y-66189580D01*
X166290714Y-66189580D02*
X166338333Y-66237200D01*
X166338333Y-66237200D02*
X166433571Y-66284819D01*
X166433571Y-66284819D02*
X166624047Y-66284819D01*
X166624047Y-66284819D02*
X166719285Y-66237200D01*
X166719285Y-66237200D02*
X166766904Y-66189580D01*
X166766904Y-66189580D02*
X166814523Y-66094342D01*
X166814523Y-66094342D02*
X166814523Y-65284819D01*
X167766904Y-65284819D02*
X167290714Y-65284819D01*
X167290714Y-65284819D02*
X167243095Y-65761009D01*
X167243095Y-65761009D02*
X167290714Y-65713390D01*
X167290714Y-65713390D02*
X167385952Y-65665771D01*
X167385952Y-65665771D02*
X167624047Y-65665771D01*
X167624047Y-65665771D02*
X167719285Y-65713390D01*
X167719285Y-65713390D02*
X167766904Y-65761009D01*
X167766904Y-65761009D02*
X167814523Y-65856247D01*
X167814523Y-65856247D02*
X167814523Y-66094342D01*
X167814523Y-66094342D02*
X167766904Y-66189580D01*
X167766904Y-66189580D02*
X167719285Y-66237200D01*
X167719285Y-66237200D02*
X167624047Y-66284819D01*
X167624047Y-66284819D02*
X167385952Y-66284819D01*
X167385952Y-66284819D02*
X167290714Y-66237200D01*
X167290714Y-66237200D02*
X167243095Y-66189580D01*
X163743095Y-37764819D02*
X164409761Y-37764819D01*
X164409761Y-37764819D02*
X163981190Y-38764819D01*
X165219285Y-38098152D02*
X165219285Y-38764819D01*
X164981190Y-37717200D02*
X164743095Y-38431485D01*
X164743095Y-38431485D02*
X165362142Y-38431485D01*
X165743095Y-38764819D02*
X165743095Y-37764819D01*
X165743095Y-38241009D02*
X166314523Y-38241009D01*
X166314523Y-38764819D02*
X166314523Y-37764819D01*
X167362142Y-38669580D02*
X167314523Y-38717200D01*
X167314523Y-38717200D02*
X167171666Y-38764819D01*
X167171666Y-38764819D02*
X167076428Y-38764819D01*
X167076428Y-38764819D02*
X166933571Y-38717200D01*
X166933571Y-38717200D02*
X166838333Y-38621961D01*
X166838333Y-38621961D02*
X166790714Y-38526723D01*
X166790714Y-38526723D02*
X166743095Y-38336247D01*
X166743095Y-38336247D02*
X166743095Y-38193390D01*
X166743095Y-38193390D02*
X166790714Y-38002914D01*
X166790714Y-38002914D02*
X166838333Y-37907676D01*
X166838333Y-37907676D02*
X166933571Y-37812438D01*
X166933571Y-37812438D02*
X167076428Y-37764819D01*
X167076428Y-37764819D02*
X167171666Y-37764819D01*
X167171666Y-37764819D02*
X167314523Y-37812438D01*
X167314523Y-37812438D02*
X167362142Y-37860057D01*
X167743095Y-37860057D02*
X167790714Y-37812438D01*
X167790714Y-37812438D02*
X167885952Y-37764819D01*
X167885952Y-37764819D02*
X168124047Y-37764819D01*
X168124047Y-37764819D02*
X168219285Y-37812438D01*
X168219285Y-37812438D02*
X168266904Y-37860057D01*
X168266904Y-37860057D02*
X168314523Y-37955295D01*
X168314523Y-37955295D02*
X168314523Y-38050533D01*
X168314523Y-38050533D02*
X168266904Y-38193390D01*
X168266904Y-38193390D02*
X167695476Y-38764819D01*
X167695476Y-38764819D02*
X168314523Y-38764819D01*
X169171666Y-38098152D02*
X169171666Y-38764819D01*
X168933571Y-37717200D02*
X168695476Y-38431485D01*
X168695476Y-38431485D02*
X169314523Y-38431485D01*
X170171666Y-37764819D02*
X169695476Y-37764819D01*
X169695476Y-37764819D02*
X169647857Y-38241009D01*
X169647857Y-38241009D02*
X169695476Y-38193390D01*
X169695476Y-38193390D02*
X169790714Y-38145771D01*
X169790714Y-38145771D02*
X170028809Y-38145771D01*
X170028809Y-38145771D02*
X170124047Y-38193390D01*
X170124047Y-38193390D02*
X170171666Y-38241009D01*
X170171666Y-38241009D02*
X170219285Y-38336247D01*
X170219285Y-38336247D02*
X170219285Y-38574342D01*
X170219285Y-38574342D02*
X170171666Y-38669580D01*
X170171666Y-38669580D02*
X170124047Y-38717200D01*
X170124047Y-38717200D02*
X170028809Y-38764819D01*
X170028809Y-38764819D02*
X169790714Y-38764819D01*
X169790714Y-38764819D02*
X169695476Y-38717200D01*
X169695476Y-38717200D02*
X169647857Y-38669580D01*
X117371905Y-112214819D02*
X117371905Y-111214819D01*
X117371905Y-111214819D02*
X117610000Y-111214819D01*
X117610000Y-111214819D02*
X117752857Y-111262438D01*
X117752857Y-111262438D02*
X117848095Y-111357676D01*
X117848095Y-111357676D02*
X117895714Y-111452914D01*
X117895714Y-111452914D02*
X117943333Y-111643390D01*
X117943333Y-111643390D02*
X117943333Y-111786247D01*
X117943333Y-111786247D02*
X117895714Y-111976723D01*
X117895714Y-111976723D02*
X117848095Y-112071961D01*
X117848095Y-112071961D02*
X117752857Y-112167200D01*
X117752857Y-112167200D02*
X117610000Y-112214819D01*
X117610000Y-112214819D02*
X117371905Y-112214819D01*
X118276667Y-111214819D02*
X118895714Y-111214819D01*
X118895714Y-111214819D02*
X118562381Y-111595771D01*
X118562381Y-111595771D02*
X118705238Y-111595771D01*
X118705238Y-111595771D02*
X118800476Y-111643390D01*
X118800476Y-111643390D02*
X118848095Y-111691009D01*
X118848095Y-111691009D02*
X118895714Y-111786247D01*
X118895714Y-111786247D02*
X118895714Y-112024342D01*
X118895714Y-112024342D02*
X118848095Y-112119580D01*
X118848095Y-112119580D02*
X118800476Y-112167200D01*
X118800476Y-112167200D02*
X118705238Y-112214819D01*
X118705238Y-112214819D02*
X118419524Y-112214819D01*
X118419524Y-112214819D02*
X118324286Y-112167200D01*
X118324286Y-112167200D02*
X118276667Y-112119580D01*
X115967142Y-109039819D02*
X115395714Y-109039819D01*
X115681428Y-109039819D02*
X115681428Y-108039819D01*
X115681428Y-108039819D02*
X115586190Y-108182676D01*
X115586190Y-108182676D02*
X115490952Y-108277914D01*
X115490952Y-108277914D02*
X115395714Y-108325533D01*
X116395714Y-109039819D02*
X116395714Y-108039819D01*
X116395714Y-108039819D02*
X116967142Y-109039819D01*
X116967142Y-109039819D02*
X116967142Y-108039819D01*
X117919523Y-108039819D02*
X117443333Y-108039819D01*
X117443333Y-108039819D02*
X117395714Y-108516009D01*
X117395714Y-108516009D02*
X117443333Y-108468390D01*
X117443333Y-108468390D02*
X117538571Y-108420771D01*
X117538571Y-108420771D02*
X117776666Y-108420771D01*
X117776666Y-108420771D02*
X117871904Y-108468390D01*
X117871904Y-108468390D02*
X117919523Y-108516009D01*
X117919523Y-108516009D02*
X117967142Y-108611247D01*
X117967142Y-108611247D02*
X117967142Y-108849342D01*
X117967142Y-108849342D02*
X117919523Y-108944580D01*
X117919523Y-108944580D02*
X117871904Y-108992200D01*
X117871904Y-108992200D02*
X117776666Y-109039819D01*
X117776666Y-109039819D02*
X117538571Y-109039819D01*
X117538571Y-109039819D02*
X117443333Y-108992200D01*
X117443333Y-108992200D02*
X117395714Y-108944580D01*
X118824285Y-108373152D02*
X118824285Y-109039819D01*
X118586190Y-107992200D02*
X118348095Y-108706485D01*
X118348095Y-108706485D02*
X118967142Y-108706485D01*
X119538571Y-108039819D02*
X119633809Y-108039819D01*
X119633809Y-108039819D02*
X119729047Y-108087438D01*
X119729047Y-108087438D02*
X119776666Y-108135057D01*
X119776666Y-108135057D02*
X119824285Y-108230295D01*
X119824285Y-108230295D02*
X119871904Y-108420771D01*
X119871904Y-108420771D02*
X119871904Y-108658866D01*
X119871904Y-108658866D02*
X119824285Y-108849342D01*
X119824285Y-108849342D02*
X119776666Y-108944580D01*
X119776666Y-108944580D02*
X119729047Y-108992200D01*
X119729047Y-108992200D02*
X119633809Y-109039819D01*
X119633809Y-109039819D02*
X119538571Y-109039819D01*
X119538571Y-109039819D02*
X119443333Y-108992200D01*
X119443333Y-108992200D02*
X119395714Y-108944580D01*
X119395714Y-108944580D02*
X119348095Y-108849342D01*
X119348095Y-108849342D02*
X119300476Y-108658866D01*
X119300476Y-108658866D02*
X119300476Y-108420771D01*
X119300476Y-108420771D02*
X119348095Y-108230295D01*
X119348095Y-108230295D02*
X119395714Y-108135057D01*
X119395714Y-108135057D02*
X119443333Y-108087438D01*
X119443333Y-108087438D02*
X119538571Y-108039819D01*
X120490952Y-108039819D02*
X120586190Y-108039819D01*
X120586190Y-108039819D02*
X120681428Y-108087438D01*
X120681428Y-108087438D02*
X120729047Y-108135057D01*
X120729047Y-108135057D02*
X120776666Y-108230295D01*
X120776666Y-108230295D02*
X120824285Y-108420771D01*
X120824285Y-108420771D02*
X120824285Y-108658866D01*
X120824285Y-108658866D02*
X120776666Y-108849342D01*
X120776666Y-108849342D02*
X120729047Y-108944580D01*
X120729047Y-108944580D02*
X120681428Y-108992200D01*
X120681428Y-108992200D02*
X120586190Y-109039819D01*
X120586190Y-109039819D02*
X120490952Y-109039819D01*
X120490952Y-109039819D02*
X120395714Y-108992200D01*
X120395714Y-108992200D02*
X120348095Y-108944580D01*
X120348095Y-108944580D02*
X120300476Y-108849342D01*
X120300476Y-108849342D02*
X120252857Y-108658866D01*
X120252857Y-108658866D02*
X120252857Y-108420771D01*
X120252857Y-108420771D02*
X120300476Y-108230295D01*
X120300476Y-108230295D02*
X120348095Y-108135057D01*
X120348095Y-108135057D02*
X120395714Y-108087438D01*
X120395714Y-108087438D02*
X120490952Y-108039819D01*
X108958095Y-112214819D02*
X108958095Y-111214819D01*
X109529523Y-112214819D02*
X109100952Y-111643390D01*
X109529523Y-111214819D02*
X108958095Y-111786247D01*
X129899580Y-89066666D02*
X129947200Y-89114285D01*
X129947200Y-89114285D02*
X129994819Y-89257142D01*
X129994819Y-89257142D02*
X129994819Y-89352380D01*
X129994819Y-89352380D02*
X129947200Y-89495237D01*
X129947200Y-89495237D02*
X129851961Y-89590475D01*
X129851961Y-89590475D02*
X129756723Y-89638094D01*
X129756723Y-89638094D02*
X129566247Y-89685713D01*
X129566247Y-89685713D02*
X129423390Y-89685713D01*
X129423390Y-89685713D02*
X129232914Y-89638094D01*
X129232914Y-89638094D02*
X129137676Y-89590475D01*
X129137676Y-89590475D02*
X129042438Y-89495237D01*
X129042438Y-89495237D02*
X128994819Y-89352380D01*
X128994819Y-89352380D02*
X128994819Y-89257142D01*
X128994819Y-89257142D02*
X129042438Y-89114285D01*
X129042438Y-89114285D02*
X129090057Y-89066666D01*
X129090057Y-88685713D02*
X129042438Y-88638094D01*
X129042438Y-88638094D02*
X128994819Y-88542856D01*
X128994819Y-88542856D02*
X128994819Y-88304761D01*
X128994819Y-88304761D02*
X129042438Y-88209523D01*
X129042438Y-88209523D02*
X129090057Y-88161904D01*
X129090057Y-88161904D02*
X129185295Y-88114285D01*
X129185295Y-88114285D02*
X129280533Y-88114285D01*
X129280533Y-88114285D02*
X129423390Y-88161904D01*
X129423390Y-88161904D02*
X129994819Y-88733332D01*
X129994819Y-88733332D02*
X129994819Y-88114285D01*
X131494819Y-91059047D02*
X131494819Y-90963809D01*
X131494819Y-90963809D02*
X131542438Y-90868571D01*
X131542438Y-90868571D02*
X131590057Y-90820952D01*
X131590057Y-90820952D02*
X131685295Y-90773333D01*
X131685295Y-90773333D02*
X131875771Y-90725714D01*
X131875771Y-90725714D02*
X132113866Y-90725714D01*
X132113866Y-90725714D02*
X132304342Y-90773333D01*
X132304342Y-90773333D02*
X132399580Y-90820952D01*
X132399580Y-90820952D02*
X132447200Y-90868571D01*
X132447200Y-90868571D02*
X132494819Y-90963809D01*
X132494819Y-90963809D02*
X132494819Y-91059047D01*
X132494819Y-91059047D02*
X132447200Y-91154285D01*
X132447200Y-91154285D02*
X132399580Y-91201904D01*
X132399580Y-91201904D02*
X132304342Y-91249523D01*
X132304342Y-91249523D02*
X132113866Y-91297142D01*
X132113866Y-91297142D02*
X131875771Y-91297142D01*
X131875771Y-91297142D02*
X131685295Y-91249523D01*
X131685295Y-91249523D02*
X131590057Y-91201904D01*
X131590057Y-91201904D02*
X131542438Y-91154285D01*
X131542438Y-91154285D02*
X131494819Y-91059047D01*
X132447200Y-90249523D02*
X132494819Y-90249523D01*
X132494819Y-90249523D02*
X132590057Y-90297142D01*
X132590057Y-90297142D02*
X132637676Y-90344761D01*
X131494819Y-89916190D02*
X131494819Y-89297143D01*
X131494819Y-89297143D02*
X131875771Y-89630476D01*
X131875771Y-89630476D02*
X131875771Y-89487619D01*
X131875771Y-89487619D02*
X131923390Y-89392381D01*
X131923390Y-89392381D02*
X131971009Y-89344762D01*
X131971009Y-89344762D02*
X132066247Y-89297143D01*
X132066247Y-89297143D02*
X132304342Y-89297143D01*
X132304342Y-89297143D02*
X132399580Y-89344762D01*
X132399580Y-89344762D02*
X132447200Y-89392381D01*
X132447200Y-89392381D02*
X132494819Y-89487619D01*
X132494819Y-89487619D02*
X132494819Y-89773333D01*
X132494819Y-89773333D02*
X132447200Y-89868571D01*
X132447200Y-89868571D02*
X132399580Y-89916190D01*
X131494819Y-88963809D02*
X131494819Y-88344762D01*
X131494819Y-88344762D02*
X131875771Y-88678095D01*
X131875771Y-88678095D02*
X131875771Y-88535238D01*
X131875771Y-88535238D02*
X131923390Y-88440000D01*
X131923390Y-88440000D02*
X131971009Y-88392381D01*
X131971009Y-88392381D02*
X132066247Y-88344762D01*
X132066247Y-88344762D02*
X132304342Y-88344762D01*
X132304342Y-88344762D02*
X132399580Y-88392381D01*
X132399580Y-88392381D02*
X132447200Y-88440000D01*
X132447200Y-88440000D02*
X132494819Y-88535238D01*
X132494819Y-88535238D02*
X132494819Y-88820952D01*
X132494819Y-88820952D02*
X132447200Y-88916190D01*
X132447200Y-88916190D02*
X132399580Y-88963809D01*
X131828152Y-87487619D02*
X132494819Y-87487619D01*
X131828152Y-87916190D02*
X132351961Y-87916190D01*
X132351961Y-87916190D02*
X132447200Y-87868571D01*
X132447200Y-87868571D02*
X132494819Y-87773333D01*
X132494819Y-87773333D02*
X132494819Y-87630476D01*
X132494819Y-87630476D02*
X132447200Y-87535238D01*
X132447200Y-87535238D02*
X132399580Y-87487619D01*
X131971009Y-86678095D02*
X131971009Y-87011428D01*
X132494819Y-87011428D02*
X131494819Y-87011428D01*
X131494819Y-87011428D02*
X131494819Y-86535238D01*
X117371905Y-89354819D02*
X117371905Y-88354819D01*
X117371905Y-88354819D02*
X117610000Y-88354819D01*
X117610000Y-88354819D02*
X117752857Y-88402438D01*
X117752857Y-88402438D02*
X117848095Y-88497676D01*
X117848095Y-88497676D02*
X117895714Y-88592914D01*
X117895714Y-88592914D02*
X117943333Y-88783390D01*
X117943333Y-88783390D02*
X117943333Y-88926247D01*
X117943333Y-88926247D02*
X117895714Y-89116723D01*
X117895714Y-89116723D02*
X117848095Y-89211961D01*
X117848095Y-89211961D02*
X117752857Y-89307200D01*
X117752857Y-89307200D02*
X117610000Y-89354819D01*
X117610000Y-89354819D02*
X117371905Y-89354819D01*
X118324286Y-88450057D02*
X118371905Y-88402438D01*
X118371905Y-88402438D02*
X118467143Y-88354819D01*
X118467143Y-88354819D02*
X118705238Y-88354819D01*
X118705238Y-88354819D02*
X118800476Y-88402438D01*
X118800476Y-88402438D02*
X118848095Y-88450057D01*
X118848095Y-88450057D02*
X118895714Y-88545295D01*
X118895714Y-88545295D02*
X118895714Y-88640533D01*
X118895714Y-88640533D02*
X118848095Y-88783390D01*
X118848095Y-88783390D02*
X118276667Y-89354819D01*
X118276667Y-89354819D02*
X118895714Y-89354819D01*
X115967142Y-86814819D02*
X115395714Y-86814819D01*
X115681428Y-86814819D02*
X115681428Y-85814819D01*
X115681428Y-85814819D02*
X115586190Y-85957676D01*
X115586190Y-85957676D02*
X115490952Y-86052914D01*
X115490952Y-86052914D02*
X115395714Y-86100533D01*
X116395714Y-86814819D02*
X116395714Y-85814819D01*
X116395714Y-85814819D02*
X116967142Y-86814819D01*
X116967142Y-86814819D02*
X116967142Y-85814819D01*
X117919523Y-85814819D02*
X117443333Y-85814819D01*
X117443333Y-85814819D02*
X117395714Y-86291009D01*
X117395714Y-86291009D02*
X117443333Y-86243390D01*
X117443333Y-86243390D02*
X117538571Y-86195771D01*
X117538571Y-86195771D02*
X117776666Y-86195771D01*
X117776666Y-86195771D02*
X117871904Y-86243390D01*
X117871904Y-86243390D02*
X117919523Y-86291009D01*
X117919523Y-86291009D02*
X117967142Y-86386247D01*
X117967142Y-86386247D02*
X117967142Y-86624342D01*
X117967142Y-86624342D02*
X117919523Y-86719580D01*
X117919523Y-86719580D02*
X117871904Y-86767200D01*
X117871904Y-86767200D02*
X117776666Y-86814819D01*
X117776666Y-86814819D02*
X117538571Y-86814819D01*
X117538571Y-86814819D02*
X117443333Y-86767200D01*
X117443333Y-86767200D02*
X117395714Y-86719580D01*
X118824285Y-86148152D02*
X118824285Y-86814819D01*
X118586190Y-85767200D02*
X118348095Y-86481485D01*
X118348095Y-86481485D02*
X118967142Y-86481485D01*
X119538571Y-85814819D02*
X119633809Y-85814819D01*
X119633809Y-85814819D02*
X119729047Y-85862438D01*
X119729047Y-85862438D02*
X119776666Y-85910057D01*
X119776666Y-85910057D02*
X119824285Y-86005295D01*
X119824285Y-86005295D02*
X119871904Y-86195771D01*
X119871904Y-86195771D02*
X119871904Y-86433866D01*
X119871904Y-86433866D02*
X119824285Y-86624342D01*
X119824285Y-86624342D02*
X119776666Y-86719580D01*
X119776666Y-86719580D02*
X119729047Y-86767200D01*
X119729047Y-86767200D02*
X119633809Y-86814819D01*
X119633809Y-86814819D02*
X119538571Y-86814819D01*
X119538571Y-86814819D02*
X119443333Y-86767200D01*
X119443333Y-86767200D02*
X119395714Y-86719580D01*
X119395714Y-86719580D02*
X119348095Y-86624342D01*
X119348095Y-86624342D02*
X119300476Y-86433866D01*
X119300476Y-86433866D02*
X119300476Y-86195771D01*
X119300476Y-86195771D02*
X119348095Y-86005295D01*
X119348095Y-86005295D02*
X119395714Y-85910057D01*
X119395714Y-85910057D02*
X119443333Y-85862438D01*
X119443333Y-85862438D02*
X119538571Y-85814819D01*
X120490952Y-85814819D02*
X120586190Y-85814819D01*
X120586190Y-85814819D02*
X120681428Y-85862438D01*
X120681428Y-85862438D02*
X120729047Y-85910057D01*
X120729047Y-85910057D02*
X120776666Y-86005295D01*
X120776666Y-86005295D02*
X120824285Y-86195771D01*
X120824285Y-86195771D02*
X120824285Y-86433866D01*
X120824285Y-86433866D02*
X120776666Y-86624342D01*
X120776666Y-86624342D02*
X120729047Y-86719580D01*
X120729047Y-86719580D02*
X120681428Y-86767200D01*
X120681428Y-86767200D02*
X120586190Y-86814819D01*
X120586190Y-86814819D02*
X120490952Y-86814819D01*
X120490952Y-86814819D02*
X120395714Y-86767200D01*
X120395714Y-86767200D02*
X120348095Y-86719580D01*
X120348095Y-86719580D02*
X120300476Y-86624342D01*
X120300476Y-86624342D02*
X120252857Y-86433866D01*
X120252857Y-86433866D02*
X120252857Y-86195771D01*
X120252857Y-86195771D02*
X120300476Y-86005295D01*
X120300476Y-86005295D02*
X120348095Y-85910057D01*
X120348095Y-85910057D02*
X120395714Y-85862438D01*
X120395714Y-85862438D02*
X120490952Y-85814819D01*
X126738095Y-89354819D02*
X126738095Y-88354819D01*
X127309523Y-89354819D02*
X126880952Y-88783390D01*
X127309523Y-88354819D02*
X126738095Y-88926247D01*
X144504580Y-108156666D02*
X144552200Y-108204285D01*
X144552200Y-108204285D02*
X144599819Y-108347142D01*
X144599819Y-108347142D02*
X144599819Y-108442380D01*
X144599819Y-108442380D02*
X144552200Y-108585237D01*
X144552200Y-108585237D02*
X144456961Y-108680475D01*
X144456961Y-108680475D02*
X144361723Y-108728094D01*
X144361723Y-108728094D02*
X144171247Y-108775713D01*
X144171247Y-108775713D02*
X144028390Y-108775713D01*
X144028390Y-108775713D02*
X143837914Y-108728094D01*
X143837914Y-108728094D02*
X143742676Y-108680475D01*
X143742676Y-108680475D02*
X143647438Y-108585237D01*
X143647438Y-108585237D02*
X143599819Y-108442380D01*
X143599819Y-108442380D02*
X143599819Y-108347142D01*
X143599819Y-108347142D02*
X143647438Y-108204285D01*
X143647438Y-108204285D02*
X143695057Y-108156666D01*
X143599819Y-107823332D02*
X143599819Y-107204285D01*
X143599819Y-107204285D02*
X143980771Y-107537618D01*
X143980771Y-107537618D02*
X143980771Y-107394761D01*
X143980771Y-107394761D02*
X144028390Y-107299523D01*
X144028390Y-107299523D02*
X144076009Y-107251904D01*
X144076009Y-107251904D02*
X144171247Y-107204285D01*
X144171247Y-107204285D02*
X144409342Y-107204285D01*
X144409342Y-107204285D02*
X144504580Y-107251904D01*
X144504580Y-107251904D02*
X144552200Y-107299523D01*
X144552200Y-107299523D02*
X144599819Y-107394761D01*
X144599819Y-107394761D02*
X144599819Y-107680475D01*
X144599819Y-107680475D02*
X144552200Y-107775713D01*
X144552200Y-107775713D02*
X144504580Y-107823332D01*
X140954819Y-109219047D02*
X140954819Y-109123809D01*
X140954819Y-109123809D02*
X141002438Y-109028571D01*
X141002438Y-109028571D02*
X141050057Y-108980952D01*
X141050057Y-108980952D02*
X141145295Y-108933333D01*
X141145295Y-108933333D02*
X141335771Y-108885714D01*
X141335771Y-108885714D02*
X141573866Y-108885714D01*
X141573866Y-108885714D02*
X141764342Y-108933333D01*
X141764342Y-108933333D02*
X141859580Y-108980952D01*
X141859580Y-108980952D02*
X141907200Y-109028571D01*
X141907200Y-109028571D02*
X141954819Y-109123809D01*
X141954819Y-109123809D02*
X141954819Y-109219047D01*
X141954819Y-109219047D02*
X141907200Y-109314285D01*
X141907200Y-109314285D02*
X141859580Y-109361904D01*
X141859580Y-109361904D02*
X141764342Y-109409523D01*
X141764342Y-109409523D02*
X141573866Y-109457142D01*
X141573866Y-109457142D02*
X141335771Y-109457142D01*
X141335771Y-109457142D02*
X141145295Y-109409523D01*
X141145295Y-109409523D02*
X141050057Y-109361904D01*
X141050057Y-109361904D02*
X141002438Y-109314285D01*
X141002438Y-109314285D02*
X140954819Y-109219047D01*
X141907200Y-108409523D02*
X141954819Y-108409523D01*
X141954819Y-108409523D02*
X142050057Y-108457142D01*
X142050057Y-108457142D02*
X142097676Y-108504761D01*
X140954819Y-108076190D02*
X140954819Y-107457143D01*
X140954819Y-107457143D02*
X141335771Y-107790476D01*
X141335771Y-107790476D02*
X141335771Y-107647619D01*
X141335771Y-107647619D02*
X141383390Y-107552381D01*
X141383390Y-107552381D02*
X141431009Y-107504762D01*
X141431009Y-107504762D02*
X141526247Y-107457143D01*
X141526247Y-107457143D02*
X141764342Y-107457143D01*
X141764342Y-107457143D02*
X141859580Y-107504762D01*
X141859580Y-107504762D02*
X141907200Y-107552381D01*
X141907200Y-107552381D02*
X141954819Y-107647619D01*
X141954819Y-107647619D02*
X141954819Y-107933333D01*
X141954819Y-107933333D02*
X141907200Y-108028571D01*
X141907200Y-108028571D02*
X141859580Y-108076190D01*
X140954819Y-107123809D02*
X140954819Y-106504762D01*
X140954819Y-106504762D02*
X141335771Y-106838095D01*
X141335771Y-106838095D02*
X141335771Y-106695238D01*
X141335771Y-106695238D02*
X141383390Y-106600000D01*
X141383390Y-106600000D02*
X141431009Y-106552381D01*
X141431009Y-106552381D02*
X141526247Y-106504762D01*
X141526247Y-106504762D02*
X141764342Y-106504762D01*
X141764342Y-106504762D02*
X141859580Y-106552381D01*
X141859580Y-106552381D02*
X141907200Y-106600000D01*
X141907200Y-106600000D02*
X141954819Y-106695238D01*
X141954819Y-106695238D02*
X141954819Y-106980952D01*
X141954819Y-106980952D02*
X141907200Y-107076190D01*
X141907200Y-107076190D02*
X141859580Y-107123809D01*
X141288152Y-105647619D02*
X141954819Y-105647619D01*
X141288152Y-106076190D02*
X141811961Y-106076190D01*
X141811961Y-106076190D02*
X141907200Y-106028571D01*
X141907200Y-106028571D02*
X141954819Y-105933333D01*
X141954819Y-105933333D02*
X141954819Y-105790476D01*
X141954819Y-105790476D02*
X141907200Y-105695238D01*
X141907200Y-105695238D02*
X141859580Y-105647619D01*
X141431009Y-104838095D02*
X141431009Y-105171428D01*
X141954819Y-105171428D02*
X140954819Y-105171428D01*
X140954819Y-105171428D02*
X140954819Y-104695238D01*
X160339580Y-108076666D02*
X160387200Y-108124285D01*
X160387200Y-108124285D02*
X160434819Y-108267142D01*
X160434819Y-108267142D02*
X160434819Y-108362380D01*
X160434819Y-108362380D02*
X160387200Y-108505237D01*
X160387200Y-108505237D02*
X160291961Y-108600475D01*
X160291961Y-108600475D02*
X160196723Y-108648094D01*
X160196723Y-108648094D02*
X160006247Y-108695713D01*
X160006247Y-108695713D02*
X159863390Y-108695713D01*
X159863390Y-108695713D02*
X159672914Y-108648094D01*
X159672914Y-108648094D02*
X159577676Y-108600475D01*
X159577676Y-108600475D02*
X159482438Y-108505237D01*
X159482438Y-108505237D02*
X159434819Y-108362380D01*
X159434819Y-108362380D02*
X159434819Y-108267142D01*
X159434819Y-108267142D02*
X159482438Y-108124285D01*
X159482438Y-108124285D02*
X159530057Y-108076666D01*
X159434819Y-107171904D02*
X159434819Y-107648094D01*
X159434819Y-107648094D02*
X159911009Y-107695713D01*
X159911009Y-107695713D02*
X159863390Y-107648094D01*
X159863390Y-107648094D02*
X159815771Y-107552856D01*
X159815771Y-107552856D02*
X159815771Y-107314761D01*
X159815771Y-107314761D02*
X159863390Y-107219523D01*
X159863390Y-107219523D02*
X159911009Y-107171904D01*
X159911009Y-107171904D02*
X160006247Y-107124285D01*
X160006247Y-107124285D02*
X160244342Y-107124285D01*
X160244342Y-107124285D02*
X160339580Y-107171904D01*
X160339580Y-107171904D02*
X160387200Y-107219523D01*
X160387200Y-107219523D02*
X160434819Y-107314761D01*
X160434819Y-107314761D02*
X160434819Y-107552856D01*
X160434819Y-107552856D02*
X160387200Y-107648094D01*
X160387200Y-107648094D02*
X160339580Y-107695713D01*
X154434819Y-109552856D02*
X154434819Y-109457618D01*
X154434819Y-109457618D02*
X154482438Y-109362380D01*
X154482438Y-109362380D02*
X154530057Y-109314761D01*
X154530057Y-109314761D02*
X154625295Y-109267142D01*
X154625295Y-109267142D02*
X154815771Y-109219523D01*
X154815771Y-109219523D02*
X155053866Y-109219523D01*
X155053866Y-109219523D02*
X155244342Y-109267142D01*
X155244342Y-109267142D02*
X155339580Y-109314761D01*
X155339580Y-109314761D02*
X155387200Y-109362380D01*
X155387200Y-109362380D02*
X155434819Y-109457618D01*
X155434819Y-109457618D02*
X155434819Y-109552856D01*
X155434819Y-109552856D02*
X155387200Y-109648094D01*
X155387200Y-109648094D02*
X155339580Y-109695713D01*
X155339580Y-109695713D02*
X155244342Y-109743332D01*
X155244342Y-109743332D02*
X155053866Y-109790951D01*
X155053866Y-109790951D02*
X154815771Y-109790951D01*
X154815771Y-109790951D02*
X154625295Y-109743332D01*
X154625295Y-109743332D02*
X154530057Y-109695713D01*
X154530057Y-109695713D02*
X154482438Y-109648094D01*
X154482438Y-109648094D02*
X154434819Y-109552856D01*
X155387200Y-108743332D02*
X155434819Y-108743332D01*
X155434819Y-108743332D02*
X155530057Y-108790951D01*
X155530057Y-108790951D02*
X155577676Y-108838570D01*
X155434819Y-107790952D02*
X155434819Y-108362380D01*
X155434819Y-108076666D02*
X154434819Y-108076666D01*
X154434819Y-108076666D02*
X154577676Y-108171904D01*
X154577676Y-108171904D02*
X154672914Y-108267142D01*
X154672914Y-108267142D02*
X154720533Y-108362380D01*
X154768152Y-106933809D02*
X155434819Y-106933809D01*
X154768152Y-107362380D02*
X155291961Y-107362380D01*
X155291961Y-107362380D02*
X155387200Y-107314761D01*
X155387200Y-107314761D02*
X155434819Y-107219523D01*
X155434819Y-107219523D02*
X155434819Y-107076666D01*
X155434819Y-107076666D02*
X155387200Y-106981428D01*
X155387200Y-106981428D02*
X155339580Y-106933809D01*
X154911009Y-106124285D02*
X154911009Y-106457618D01*
X155434819Y-106457618D02*
X154434819Y-106457618D01*
X154434819Y-106457618D02*
X154434819Y-105981428D01*
X160339580Y-90296666D02*
X160387200Y-90344285D01*
X160387200Y-90344285D02*
X160434819Y-90487142D01*
X160434819Y-90487142D02*
X160434819Y-90582380D01*
X160434819Y-90582380D02*
X160387200Y-90725237D01*
X160387200Y-90725237D02*
X160291961Y-90820475D01*
X160291961Y-90820475D02*
X160196723Y-90868094D01*
X160196723Y-90868094D02*
X160006247Y-90915713D01*
X160006247Y-90915713D02*
X159863390Y-90915713D01*
X159863390Y-90915713D02*
X159672914Y-90868094D01*
X159672914Y-90868094D02*
X159577676Y-90820475D01*
X159577676Y-90820475D02*
X159482438Y-90725237D01*
X159482438Y-90725237D02*
X159434819Y-90582380D01*
X159434819Y-90582380D02*
X159434819Y-90487142D01*
X159434819Y-90487142D02*
X159482438Y-90344285D01*
X159482438Y-90344285D02*
X159530057Y-90296666D01*
X159768152Y-89439523D02*
X160434819Y-89439523D01*
X159387200Y-89677618D02*
X160101485Y-89915713D01*
X160101485Y-89915713D02*
X160101485Y-89296666D01*
X154434819Y-91772856D02*
X154434819Y-91677618D01*
X154434819Y-91677618D02*
X154482438Y-91582380D01*
X154482438Y-91582380D02*
X154530057Y-91534761D01*
X154530057Y-91534761D02*
X154625295Y-91487142D01*
X154625295Y-91487142D02*
X154815771Y-91439523D01*
X154815771Y-91439523D02*
X155053866Y-91439523D01*
X155053866Y-91439523D02*
X155244342Y-91487142D01*
X155244342Y-91487142D02*
X155339580Y-91534761D01*
X155339580Y-91534761D02*
X155387200Y-91582380D01*
X155387200Y-91582380D02*
X155434819Y-91677618D01*
X155434819Y-91677618D02*
X155434819Y-91772856D01*
X155434819Y-91772856D02*
X155387200Y-91868094D01*
X155387200Y-91868094D02*
X155339580Y-91915713D01*
X155339580Y-91915713D02*
X155244342Y-91963332D01*
X155244342Y-91963332D02*
X155053866Y-92010951D01*
X155053866Y-92010951D02*
X154815771Y-92010951D01*
X154815771Y-92010951D02*
X154625295Y-91963332D01*
X154625295Y-91963332D02*
X154530057Y-91915713D01*
X154530057Y-91915713D02*
X154482438Y-91868094D01*
X154482438Y-91868094D02*
X154434819Y-91772856D01*
X155387200Y-90963332D02*
X155434819Y-90963332D01*
X155434819Y-90963332D02*
X155530057Y-91010951D01*
X155530057Y-91010951D02*
X155577676Y-91058570D01*
X155434819Y-90010952D02*
X155434819Y-90582380D01*
X155434819Y-90296666D02*
X154434819Y-90296666D01*
X154434819Y-90296666D02*
X154577676Y-90391904D01*
X154577676Y-90391904D02*
X154672914Y-90487142D01*
X154672914Y-90487142D02*
X154720533Y-90582380D01*
X154768152Y-89153809D02*
X155434819Y-89153809D01*
X154768152Y-89582380D02*
X155291961Y-89582380D01*
X155291961Y-89582380D02*
X155387200Y-89534761D01*
X155387200Y-89534761D02*
X155434819Y-89439523D01*
X155434819Y-89439523D02*
X155434819Y-89296666D01*
X155434819Y-89296666D02*
X155387200Y-89201428D01*
X155387200Y-89201428D02*
X155339580Y-89153809D01*
X154911009Y-88344285D02*
X154911009Y-88677618D01*
X155434819Y-88677618D02*
X154434819Y-88677618D01*
X154434819Y-88677618D02*
X154434819Y-88201428D01*
X100631666Y-78194819D02*
X100631666Y-78909104D01*
X100631666Y-78909104D02*
X100584047Y-79051961D01*
X100584047Y-79051961D02*
X100488809Y-79147200D01*
X100488809Y-79147200D02*
X100345952Y-79194819D01*
X100345952Y-79194819D02*
X100250714Y-79194819D01*
X101536428Y-78194819D02*
X101345952Y-78194819D01*
X101345952Y-78194819D02*
X101250714Y-78242438D01*
X101250714Y-78242438D02*
X101203095Y-78290057D01*
X101203095Y-78290057D02*
X101107857Y-78432914D01*
X101107857Y-78432914D02*
X101060238Y-78623390D01*
X101060238Y-78623390D02*
X101060238Y-79004342D01*
X101060238Y-79004342D02*
X101107857Y-79099580D01*
X101107857Y-79099580D02*
X101155476Y-79147200D01*
X101155476Y-79147200D02*
X101250714Y-79194819D01*
X101250714Y-79194819D02*
X101441190Y-79194819D01*
X101441190Y-79194819D02*
X101536428Y-79147200D01*
X101536428Y-79147200D02*
X101584047Y-79099580D01*
X101584047Y-79099580D02*
X101631666Y-79004342D01*
X101631666Y-79004342D02*
X101631666Y-78766247D01*
X101631666Y-78766247D02*
X101584047Y-78671009D01*
X101584047Y-78671009D02*
X101536428Y-78623390D01*
X101536428Y-78623390D02*
X101441190Y-78575771D01*
X101441190Y-78575771D02*
X101250714Y-78575771D01*
X101250714Y-78575771D02*
X101155476Y-78623390D01*
X101155476Y-78623390D02*
X101107857Y-78671009D01*
X101107857Y-78671009D02*
X101060238Y-78766247D01*
X100631666Y-71844819D02*
X100631666Y-72559104D01*
X100631666Y-72559104D02*
X100584047Y-72701961D01*
X100584047Y-72701961D02*
X100488809Y-72797200D01*
X100488809Y-72797200D02*
X100345952Y-72844819D01*
X100345952Y-72844819D02*
X100250714Y-72844819D01*
X101584047Y-71844819D02*
X101107857Y-71844819D01*
X101107857Y-71844819D02*
X101060238Y-72321009D01*
X101060238Y-72321009D02*
X101107857Y-72273390D01*
X101107857Y-72273390D02*
X101203095Y-72225771D01*
X101203095Y-72225771D02*
X101441190Y-72225771D01*
X101441190Y-72225771D02*
X101536428Y-72273390D01*
X101536428Y-72273390D02*
X101584047Y-72321009D01*
X101584047Y-72321009D02*
X101631666Y-72416247D01*
X101631666Y-72416247D02*
X101631666Y-72654342D01*
X101631666Y-72654342D02*
X101584047Y-72749580D01*
X101584047Y-72749580D02*
X101536428Y-72797200D01*
X101536428Y-72797200D02*
X101441190Y-72844819D01*
X101441190Y-72844819D02*
X101203095Y-72844819D01*
X101203095Y-72844819D02*
X101107857Y-72797200D01*
X101107857Y-72797200D02*
X101060238Y-72749580D01*
X192224819Y-53506666D02*
X191748628Y-53839999D01*
X192224819Y-54078094D02*
X191224819Y-54078094D01*
X191224819Y-54078094D02*
X191224819Y-53697142D01*
X191224819Y-53697142D02*
X191272438Y-53601904D01*
X191272438Y-53601904D02*
X191320057Y-53554285D01*
X191320057Y-53554285D02*
X191415295Y-53506666D01*
X191415295Y-53506666D02*
X191558152Y-53506666D01*
X191558152Y-53506666D02*
X191653390Y-53554285D01*
X191653390Y-53554285D02*
X191701009Y-53601904D01*
X191701009Y-53601904D02*
X191748628Y-53697142D01*
X191748628Y-53697142D02*
X191748628Y-54078094D01*
X191224819Y-53173332D02*
X191224819Y-52554285D01*
X191224819Y-52554285D02*
X191605771Y-52887618D01*
X191605771Y-52887618D02*
X191605771Y-52744761D01*
X191605771Y-52744761D02*
X191653390Y-52649523D01*
X191653390Y-52649523D02*
X191701009Y-52601904D01*
X191701009Y-52601904D02*
X191796247Y-52554285D01*
X191796247Y-52554285D02*
X192034342Y-52554285D01*
X192034342Y-52554285D02*
X192129580Y-52601904D01*
X192129580Y-52601904D02*
X192177200Y-52649523D01*
X192177200Y-52649523D02*
X192224819Y-52744761D01*
X192224819Y-52744761D02*
X192224819Y-53030475D01*
X192224819Y-53030475D02*
X192177200Y-53125713D01*
X192177200Y-53125713D02*
X192129580Y-53173332D01*
X189954819Y-53819047D02*
X189954819Y-54390475D01*
X189954819Y-54104761D02*
X188954819Y-54104761D01*
X188954819Y-54104761D02*
X189097676Y-54199999D01*
X189097676Y-54199999D02*
X189192914Y-54295237D01*
X189192914Y-54295237D02*
X189240533Y-54390475D01*
X189954819Y-53390475D02*
X188954819Y-53390475D01*
X189573866Y-53295237D02*
X189954819Y-53009523D01*
X189288152Y-53009523D02*
X189669104Y-53390475D01*
X186054819Y-47161904D02*
X186864342Y-47161904D01*
X186864342Y-47161904D02*
X186959580Y-47114285D01*
X186959580Y-47114285D02*
X187007200Y-47066666D01*
X187007200Y-47066666D02*
X187054819Y-46971428D01*
X187054819Y-46971428D02*
X187054819Y-46780952D01*
X187054819Y-46780952D02*
X187007200Y-46685714D01*
X187007200Y-46685714D02*
X186959580Y-46638095D01*
X186959580Y-46638095D02*
X186864342Y-46590476D01*
X186864342Y-46590476D02*
X186054819Y-46590476D01*
X186054819Y-45685714D02*
X186054819Y-45876190D01*
X186054819Y-45876190D02*
X186102438Y-45971428D01*
X186102438Y-45971428D02*
X186150057Y-46019047D01*
X186150057Y-46019047D02*
X186292914Y-46114285D01*
X186292914Y-46114285D02*
X186483390Y-46161904D01*
X186483390Y-46161904D02*
X186864342Y-46161904D01*
X186864342Y-46161904D02*
X186959580Y-46114285D01*
X186959580Y-46114285D02*
X187007200Y-46066666D01*
X187007200Y-46066666D02*
X187054819Y-45971428D01*
X187054819Y-45971428D02*
X187054819Y-45780952D01*
X187054819Y-45780952D02*
X187007200Y-45685714D01*
X187007200Y-45685714D02*
X186959580Y-45638095D01*
X186959580Y-45638095D02*
X186864342Y-45590476D01*
X186864342Y-45590476D02*
X186626247Y-45590476D01*
X186626247Y-45590476D02*
X186531009Y-45638095D01*
X186531009Y-45638095D02*
X186483390Y-45685714D01*
X186483390Y-45685714D02*
X186435771Y-45780952D01*
X186435771Y-45780952D02*
X186435771Y-45971428D01*
X186435771Y-45971428D02*
X186483390Y-46066666D01*
X186483390Y-46066666D02*
X186531009Y-46114285D01*
X186531009Y-46114285D02*
X186626247Y-46161904D01*
X184354819Y-53307856D02*
X183354819Y-53307856D01*
X183354819Y-53307856D02*
X183354819Y-53069761D01*
X183354819Y-53069761D02*
X183402438Y-52926904D01*
X183402438Y-52926904D02*
X183497676Y-52831666D01*
X183497676Y-52831666D02*
X183592914Y-52784047D01*
X183592914Y-52784047D02*
X183783390Y-52736428D01*
X183783390Y-52736428D02*
X183926247Y-52736428D01*
X183926247Y-52736428D02*
X184116723Y-52784047D01*
X184116723Y-52784047D02*
X184211961Y-52831666D01*
X184211961Y-52831666D02*
X184307200Y-52926904D01*
X184307200Y-52926904D02*
X184354819Y-53069761D01*
X184354819Y-53069761D02*
X184354819Y-53307856D01*
X184307200Y-52355475D02*
X184354819Y-52212618D01*
X184354819Y-52212618D02*
X184354819Y-51974523D01*
X184354819Y-51974523D02*
X184307200Y-51879285D01*
X184307200Y-51879285D02*
X184259580Y-51831666D01*
X184259580Y-51831666D02*
X184164342Y-51784047D01*
X184164342Y-51784047D02*
X184069104Y-51784047D01*
X184069104Y-51784047D02*
X183973866Y-51831666D01*
X183973866Y-51831666D02*
X183926247Y-51879285D01*
X183926247Y-51879285D02*
X183878628Y-51974523D01*
X183878628Y-51974523D02*
X183831009Y-52164999D01*
X183831009Y-52164999D02*
X183783390Y-52260237D01*
X183783390Y-52260237D02*
X183735771Y-52307856D01*
X183735771Y-52307856D02*
X183640533Y-52355475D01*
X183640533Y-52355475D02*
X183545295Y-52355475D01*
X183545295Y-52355475D02*
X183450057Y-52307856D01*
X183450057Y-52307856D02*
X183402438Y-52260237D01*
X183402438Y-52260237D02*
X183354819Y-52164999D01*
X183354819Y-52164999D02*
X183354819Y-51926904D01*
X183354819Y-51926904D02*
X183402438Y-51784047D01*
X184354819Y-50831666D02*
X184354819Y-51403094D01*
X184354819Y-51117380D02*
X183354819Y-51117380D01*
X183354819Y-51117380D02*
X183497676Y-51212618D01*
X183497676Y-51212618D02*
X183592914Y-51307856D01*
X183592914Y-51307856D02*
X183640533Y-51403094D01*
X183783390Y-50260237D02*
X183735771Y-50355475D01*
X183735771Y-50355475D02*
X183688152Y-50403094D01*
X183688152Y-50403094D02*
X183592914Y-50450713D01*
X183592914Y-50450713D02*
X183545295Y-50450713D01*
X183545295Y-50450713D02*
X183450057Y-50403094D01*
X183450057Y-50403094D02*
X183402438Y-50355475D01*
X183402438Y-50355475D02*
X183354819Y-50260237D01*
X183354819Y-50260237D02*
X183354819Y-50069761D01*
X183354819Y-50069761D02*
X183402438Y-49974523D01*
X183402438Y-49974523D02*
X183450057Y-49926904D01*
X183450057Y-49926904D02*
X183545295Y-49879285D01*
X183545295Y-49879285D02*
X183592914Y-49879285D01*
X183592914Y-49879285D02*
X183688152Y-49926904D01*
X183688152Y-49926904D02*
X183735771Y-49974523D01*
X183735771Y-49974523D02*
X183783390Y-50069761D01*
X183783390Y-50069761D02*
X183783390Y-50260237D01*
X183783390Y-50260237D02*
X183831009Y-50355475D01*
X183831009Y-50355475D02*
X183878628Y-50403094D01*
X183878628Y-50403094D02*
X183973866Y-50450713D01*
X183973866Y-50450713D02*
X184164342Y-50450713D01*
X184164342Y-50450713D02*
X184259580Y-50403094D01*
X184259580Y-50403094D02*
X184307200Y-50355475D01*
X184307200Y-50355475D02*
X184354819Y-50260237D01*
X184354819Y-50260237D02*
X184354819Y-50069761D01*
X184354819Y-50069761D02*
X184307200Y-49974523D01*
X184307200Y-49974523D02*
X184259580Y-49926904D01*
X184259580Y-49926904D02*
X184164342Y-49879285D01*
X184164342Y-49879285D02*
X183973866Y-49879285D01*
X183973866Y-49879285D02*
X183878628Y-49926904D01*
X183878628Y-49926904D02*
X183831009Y-49974523D01*
X183831009Y-49974523D02*
X183783390Y-50069761D01*
X183831009Y-49117380D02*
X183878628Y-48974523D01*
X183878628Y-48974523D02*
X183926247Y-48926904D01*
X183926247Y-48926904D02*
X184021485Y-48879285D01*
X184021485Y-48879285D02*
X184164342Y-48879285D01*
X184164342Y-48879285D02*
X184259580Y-48926904D01*
X184259580Y-48926904D02*
X184307200Y-48974523D01*
X184307200Y-48974523D02*
X184354819Y-49069761D01*
X184354819Y-49069761D02*
X184354819Y-49450713D01*
X184354819Y-49450713D02*
X183354819Y-49450713D01*
X183354819Y-49450713D02*
X183354819Y-49117380D01*
X183354819Y-49117380D02*
X183402438Y-49022142D01*
X183402438Y-49022142D02*
X183450057Y-48974523D01*
X183450057Y-48974523D02*
X183545295Y-48926904D01*
X183545295Y-48926904D02*
X183640533Y-48926904D01*
X183640533Y-48926904D02*
X183735771Y-48974523D01*
X183735771Y-48974523D02*
X183783390Y-49022142D01*
X183783390Y-49022142D02*
X183831009Y-49117380D01*
X183831009Y-49117380D02*
X183831009Y-49450713D01*
X183450057Y-48498332D02*
X183402438Y-48450713D01*
X183402438Y-48450713D02*
X183354819Y-48355475D01*
X183354819Y-48355475D02*
X183354819Y-48117380D01*
X183354819Y-48117380D02*
X183402438Y-48022142D01*
X183402438Y-48022142D02*
X183450057Y-47974523D01*
X183450057Y-47974523D02*
X183545295Y-47926904D01*
X183545295Y-47926904D02*
X183640533Y-47926904D01*
X183640533Y-47926904D02*
X183783390Y-47974523D01*
X183783390Y-47974523D02*
X184354819Y-48545951D01*
X184354819Y-48545951D02*
X184354819Y-47926904D01*
X183354819Y-47307856D02*
X183354819Y-47212618D01*
X183354819Y-47212618D02*
X183402438Y-47117380D01*
X183402438Y-47117380D02*
X183450057Y-47069761D01*
X183450057Y-47069761D02*
X183545295Y-47022142D01*
X183545295Y-47022142D02*
X183735771Y-46974523D01*
X183735771Y-46974523D02*
X183973866Y-46974523D01*
X183973866Y-46974523D02*
X184164342Y-47022142D01*
X184164342Y-47022142D02*
X184259580Y-47069761D01*
X184259580Y-47069761D02*
X184307200Y-47117380D01*
X184307200Y-47117380D02*
X184354819Y-47212618D01*
X184354819Y-47212618D02*
X184354819Y-47307856D01*
X184354819Y-47307856D02*
X184307200Y-47403094D01*
X184307200Y-47403094D02*
X184259580Y-47450713D01*
X184259580Y-47450713D02*
X184164342Y-47498332D01*
X184164342Y-47498332D02*
X183973866Y-47545951D01*
X183973866Y-47545951D02*
X183735771Y-47545951D01*
X183735771Y-47545951D02*
X183545295Y-47498332D01*
X183545295Y-47498332D02*
X183450057Y-47450713D01*
X183450057Y-47450713D02*
X183402438Y-47403094D01*
X183402438Y-47403094D02*
X183354819Y-47307856D01*
X175714819Y-49696666D02*
X175238628Y-50029999D01*
X175714819Y-50268094D02*
X174714819Y-50268094D01*
X174714819Y-50268094D02*
X174714819Y-49887142D01*
X174714819Y-49887142D02*
X174762438Y-49791904D01*
X174762438Y-49791904D02*
X174810057Y-49744285D01*
X174810057Y-49744285D02*
X174905295Y-49696666D01*
X174905295Y-49696666D02*
X175048152Y-49696666D01*
X175048152Y-49696666D02*
X175143390Y-49744285D01*
X175143390Y-49744285D02*
X175191009Y-49791904D01*
X175191009Y-49791904D02*
X175238628Y-49887142D01*
X175238628Y-49887142D02*
X175238628Y-50268094D01*
X175714819Y-48744285D02*
X175714819Y-49315713D01*
X175714819Y-49029999D02*
X174714819Y-49029999D01*
X174714819Y-49029999D02*
X174857676Y-49125237D01*
X174857676Y-49125237D02*
X174952914Y-49220475D01*
X174952914Y-49220475D02*
X175000533Y-49315713D01*
X173344819Y-50125238D02*
X173344819Y-50696666D01*
X173344819Y-50410952D02*
X172344819Y-50410952D01*
X172344819Y-50410952D02*
X172487676Y-50506190D01*
X172487676Y-50506190D02*
X172582914Y-50601428D01*
X172582914Y-50601428D02*
X172630533Y-50696666D01*
X172344819Y-49506190D02*
X172344819Y-49410952D01*
X172344819Y-49410952D02*
X172392438Y-49315714D01*
X172392438Y-49315714D02*
X172440057Y-49268095D01*
X172440057Y-49268095D02*
X172535295Y-49220476D01*
X172535295Y-49220476D02*
X172725771Y-49172857D01*
X172725771Y-49172857D02*
X172963866Y-49172857D01*
X172963866Y-49172857D02*
X173154342Y-49220476D01*
X173154342Y-49220476D02*
X173249580Y-49268095D01*
X173249580Y-49268095D02*
X173297200Y-49315714D01*
X173297200Y-49315714D02*
X173344819Y-49410952D01*
X173344819Y-49410952D02*
X173344819Y-49506190D01*
X173344819Y-49506190D02*
X173297200Y-49601428D01*
X173297200Y-49601428D02*
X173249580Y-49649047D01*
X173249580Y-49649047D02*
X173154342Y-49696666D01*
X173154342Y-49696666D02*
X172963866Y-49744285D01*
X172963866Y-49744285D02*
X172725771Y-49744285D01*
X172725771Y-49744285D02*
X172535295Y-49696666D01*
X172535295Y-49696666D02*
X172440057Y-49649047D01*
X172440057Y-49649047D02*
X172392438Y-49601428D01*
X172392438Y-49601428D02*
X172344819Y-49506190D01*
X173344819Y-48744285D02*
X172344819Y-48744285D01*
X172963866Y-48649047D02*
X173344819Y-48363333D01*
X172678152Y-48363333D02*
X173059104Y-48744285D01*
X175714819Y-62396666D02*
X175238628Y-62729999D01*
X175714819Y-62968094D02*
X174714819Y-62968094D01*
X174714819Y-62968094D02*
X174714819Y-62587142D01*
X174714819Y-62587142D02*
X174762438Y-62491904D01*
X174762438Y-62491904D02*
X174810057Y-62444285D01*
X174810057Y-62444285D02*
X174905295Y-62396666D01*
X174905295Y-62396666D02*
X175048152Y-62396666D01*
X175048152Y-62396666D02*
X175143390Y-62444285D01*
X175143390Y-62444285D02*
X175191009Y-62491904D01*
X175191009Y-62491904D02*
X175238628Y-62587142D01*
X175238628Y-62587142D02*
X175238628Y-62968094D01*
X174810057Y-62015713D02*
X174762438Y-61968094D01*
X174762438Y-61968094D02*
X174714819Y-61872856D01*
X174714819Y-61872856D02*
X174714819Y-61634761D01*
X174714819Y-61634761D02*
X174762438Y-61539523D01*
X174762438Y-61539523D02*
X174810057Y-61491904D01*
X174810057Y-61491904D02*
X174905295Y-61444285D01*
X174905295Y-61444285D02*
X175000533Y-61444285D01*
X175000533Y-61444285D02*
X175143390Y-61491904D01*
X175143390Y-61491904D02*
X175714819Y-62063332D01*
X175714819Y-62063332D02*
X175714819Y-61444285D01*
X173344819Y-62349047D02*
X173344819Y-62920475D01*
X173344819Y-62634761D02*
X172344819Y-62634761D01*
X172344819Y-62634761D02*
X172487676Y-62729999D01*
X172487676Y-62729999D02*
X172582914Y-62825237D01*
X172582914Y-62825237D02*
X172630533Y-62920475D01*
X173344819Y-61920475D02*
X172344819Y-61920475D01*
X172963866Y-61825237D02*
X173344819Y-61539523D01*
X172678152Y-61539523D02*
X173059104Y-61920475D01*
X180794819Y-49696666D02*
X180318628Y-50029999D01*
X180794819Y-50268094D02*
X179794819Y-50268094D01*
X179794819Y-50268094D02*
X179794819Y-49887142D01*
X179794819Y-49887142D02*
X179842438Y-49791904D01*
X179842438Y-49791904D02*
X179890057Y-49744285D01*
X179890057Y-49744285D02*
X179985295Y-49696666D01*
X179985295Y-49696666D02*
X180128152Y-49696666D01*
X180128152Y-49696666D02*
X180223390Y-49744285D01*
X180223390Y-49744285D02*
X180271009Y-49791904D01*
X180271009Y-49791904D02*
X180318628Y-49887142D01*
X180318628Y-49887142D02*
X180318628Y-50268094D01*
X180128152Y-48839523D02*
X180794819Y-48839523D01*
X179747200Y-49077618D02*
X180461485Y-49315713D01*
X180461485Y-49315713D02*
X180461485Y-48696666D01*
X178424819Y-50125238D02*
X178424819Y-50696666D01*
X178424819Y-50410952D02*
X177424819Y-50410952D01*
X177424819Y-50410952D02*
X177567676Y-50506190D01*
X177567676Y-50506190D02*
X177662914Y-50601428D01*
X177662914Y-50601428D02*
X177710533Y-50696666D01*
X177424819Y-49506190D02*
X177424819Y-49410952D01*
X177424819Y-49410952D02*
X177472438Y-49315714D01*
X177472438Y-49315714D02*
X177520057Y-49268095D01*
X177520057Y-49268095D02*
X177615295Y-49220476D01*
X177615295Y-49220476D02*
X177805771Y-49172857D01*
X177805771Y-49172857D02*
X178043866Y-49172857D01*
X178043866Y-49172857D02*
X178234342Y-49220476D01*
X178234342Y-49220476D02*
X178329580Y-49268095D01*
X178329580Y-49268095D02*
X178377200Y-49315714D01*
X178377200Y-49315714D02*
X178424819Y-49410952D01*
X178424819Y-49410952D02*
X178424819Y-49506190D01*
X178424819Y-49506190D02*
X178377200Y-49601428D01*
X178377200Y-49601428D02*
X178329580Y-49649047D01*
X178329580Y-49649047D02*
X178234342Y-49696666D01*
X178234342Y-49696666D02*
X178043866Y-49744285D01*
X178043866Y-49744285D02*
X177805771Y-49744285D01*
X177805771Y-49744285D02*
X177615295Y-49696666D01*
X177615295Y-49696666D02*
X177520057Y-49649047D01*
X177520057Y-49649047D02*
X177472438Y-49601428D01*
X177472438Y-49601428D02*
X177424819Y-49506190D01*
X178424819Y-48744285D02*
X177424819Y-48744285D01*
X178043866Y-48649047D02*
X178424819Y-48363333D01*
X177758152Y-48363333D02*
X178139104Y-48744285D01*
X180794819Y-62396666D02*
X180318628Y-62729999D01*
X180794819Y-62968094D02*
X179794819Y-62968094D01*
X179794819Y-62968094D02*
X179794819Y-62587142D01*
X179794819Y-62587142D02*
X179842438Y-62491904D01*
X179842438Y-62491904D02*
X179890057Y-62444285D01*
X179890057Y-62444285D02*
X179985295Y-62396666D01*
X179985295Y-62396666D02*
X180128152Y-62396666D01*
X180128152Y-62396666D02*
X180223390Y-62444285D01*
X180223390Y-62444285D02*
X180271009Y-62491904D01*
X180271009Y-62491904D02*
X180318628Y-62587142D01*
X180318628Y-62587142D02*
X180318628Y-62968094D01*
X179794819Y-61491904D02*
X179794819Y-61968094D01*
X179794819Y-61968094D02*
X180271009Y-62015713D01*
X180271009Y-62015713D02*
X180223390Y-61968094D01*
X180223390Y-61968094D02*
X180175771Y-61872856D01*
X180175771Y-61872856D02*
X180175771Y-61634761D01*
X180175771Y-61634761D02*
X180223390Y-61539523D01*
X180223390Y-61539523D02*
X180271009Y-61491904D01*
X180271009Y-61491904D02*
X180366247Y-61444285D01*
X180366247Y-61444285D02*
X180604342Y-61444285D01*
X180604342Y-61444285D02*
X180699580Y-61491904D01*
X180699580Y-61491904D02*
X180747200Y-61539523D01*
X180747200Y-61539523D02*
X180794819Y-61634761D01*
X180794819Y-61634761D02*
X180794819Y-61872856D01*
X180794819Y-61872856D02*
X180747200Y-61968094D01*
X180747200Y-61968094D02*
X180699580Y-62015713D01*
X178424819Y-62349047D02*
X178424819Y-62920475D01*
X178424819Y-62634761D02*
X177424819Y-62634761D01*
X177424819Y-62634761D02*
X177567676Y-62729999D01*
X177567676Y-62729999D02*
X177662914Y-62825237D01*
X177662914Y-62825237D02*
X177710533Y-62920475D01*
X178424819Y-61920475D02*
X177424819Y-61920475D01*
X178043866Y-61825237D02*
X178424819Y-61539523D01*
X177758152Y-61539523D02*
X178139104Y-61920475D01*
X174450476Y-42344819D02*
X174450476Y-43059104D01*
X174450476Y-43059104D02*
X174402857Y-43201961D01*
X174402857Y-43201961D02*
X174307619Y-43297200D01*
X174307619Y-43297200D02*
X174164762Y-43344819D01*
X174164762Y-43344819D02*
X174069524Y-43344819D01*
X175450476Y-43344819D02*
X174879048Y-43344819D01*
X175164762Y-43344819D02*
X175164762Y-42344819D01*
X175164762Y-42344819D02*
X175069524Y-42487676D01*
X175069524Y-42487676D02*
X174974286Y-42582914D01*
X174974286Y-42582914D02*
X174879048Y-42630533D01*
X176355238Y-42344819D02*
X175879048Y-42344819D01*
X175879048Y-42344819D02*
X175831429Y-42821009D01*
X175831429Y-42821009D02*
X175879048Y-42773390D01*
X175879048Y-42773390D02*
X175974286Y-42725771D01*
X175974286Y-42725771D02*
X176212381Y-42725771D01*
X176212381Y-42725771D02*
X176307619Y-42773390D01*
X176307619Y-42773390D02*
X176355238Y-42821009D01*
X176355238Y-42821009D02*
X176402857Y-42916247D01*
X176402857Y-42916247D02*
X176402857Y-43154342D01*
X176402857Y-43154342D02*
X176355238Y-43249580D01*
X176355238Y-43249580D02*
X176307619Y-43297200D01*
X176307619Y-43297200D02*
X176212381Y-43344819D01*
X176212381Y-43344819D02*
X175974286Y-43344819D01*
X175974286Y-43344819D02*
X175879048Y-43297200D01*
X175879048Y-43297200D02*
X175831429Y-43249580D01*
X179530476Y-42344819D02*
X179530476Y-43059104D01*
X179530476Y-43059104D02*
X179482857Y-43201961D01*
X179482857Y-43201961D02*
X179387619Y-43297200D01*
X179387619Y-43297200D02*
X179244762Y-43344819D01*
X179244762Y-43344819D02*
X179149524Y-43344819D01*
X180530476Y-43344819D02*
X179959048Y-43344819D01*
X180244762Y-43344819D02*
X180244762Y-42344819D01*
X180244762Y-42344819D02*
X180149524Y-42487676D01*
X180149524Y-42487676D02*
X180054286Y-42582914D01*
X180054286Y-42582914D02*
X179959048Y-42630533D01*
X180863810Y-42344819D02*
X181530476Y-42344819D01*
X181530476Y-42344819D02*
X181101905Y-43344819D01*
X126719580Y-99186666D02*
X126767200Y-99234285D01*
X126767200Y-99234285D02*
X126814819Y-99377142D01*
X126814819Y-99377142D02*
X126814819Y-99472380D01*
X126814819Y-99472380D02*
X126767200Y-99615237D01*
X126767200Y-99615237D02*
X126671961Y-99710475D01*
X126671961Y-99710475D02*
X126576723Y-99758094D01*
X126576723Y-99758094D02*
X126386247Y-99805713D01*
X126386247Y-99805713D02*
X126243390Y-99805713D01*
X126243390Y-99805713D02*
X126052914Y-99758094D01*
X126052914Y-99758094D02*
X125957676Y-99710475D01*
X125957676Y-99710475D02*
X125862438Y-99615237D01*
X125862438Y-99615237D02*
X125814819Y-99472380D01*
X125814819Y-99472380D02*
X125814819Y-99377142D01*
X125814819Y-99377142D02*
X125862438Y-99234285D01*
X125862438Y-99234285D02*
X125910057Y-99186666D01*
X126814819Y-98234285D02*
X126814819Y-98805713D01*
X126814819Y-98519999D02*
X125814819Y-98519999D01*
X125814819Y-98519999D02*
X125957676Y-98615237D01*
X125957676Y-98615237D02*
X126052914Y-98710475D01*
X126052914Y-98710475D02*
X126100533Y-98805713D01*
X110314819Y-102520000D02*
X110314819Y-103091428D01*
X110314819Y-102805714D02*
X109314819Y-102805714D01*
X109314819Y-102805714D02*
X109457676Y-102900952D01*
X109457676Y-102900952D02*
X109552914Y-102996190D01*
X109552914Y-102996190D02*
X109600533Y-103091428D01*
X109314819Y-101900952D02*
X109314819Y-101805714D01*
X109314819Y-101805714D02*
X109362438Y-101710476D01*
X109362438Y-101710476D02*
X109410057Y-101662857D01*
X109410057Y-101662857D02*
X109505295Y-101615238D01*
X109505295Y-101615238D02*
X109695771Y-101567619D01*
X109695771Y-101567619D02*
X109933866Y-101567619D01*
X109933866Y-101567619D02*
X110124342Y-101615238D01*
X110124342Y-101615238D02*
X110219580Y-101662857D01*
X110219580Y-101662857D02*
X110267200Y-101710476D01*
X110267200Y-101710476D02*
X110314819Y-101805714D01*
X110314819Y-101805714D02*
X110314819Y-101900952D01*
X110314819Y-101900952D02*
X110267200Y-101996190D01*
X110267200Y-101996190D02*
X110219580Y-102043809D01*
X110219580Y-102043809D02*
X110124342Y-102091428D01*
X110124342Y-102091428D02*
X109933866Y-102139047D01*
X109933866Y-102139047D02*
X109695771Y-102139047D01*
X109695771Y-102139047D02*
X109505295Y-102091428D01*
X109505295Y-102091428D02*
X109410057Y-102043809D01*
X109410057Y-102043809D02*
X109362438Y-101996190D01*
X109362438Y-101996190D02*
X109314819Y-101900952D01*
X109314819Y-100948571D02*
X109314819Y-100853333D01*
X109314819Y-100853333D02*
X109362438Y-100758095D01*
X109362438Y-100758095D02*
X109410057Y-100710476D01*
X109410057Y-100710476D02*
X109505295Y-100662857D01*
X109505295Y-100662857D02*
X109695771Y-100615238D01*
X109695771Y-100615238D02*
X109933866Y-100615238D01*
X109933866Y-100615238D02*
X110124342Y-100662857D01*
X110124342Y-100662857D02*
X110219580Y-100710476D01*
X110219580Y-100710476D02*
X110267200Y-100758095D01*
X110267200Y-100758095D02*
X110314819Y-100853333D01*
X110314819Y-100853333D02*
X110314819Y-100948571D01*
X110314819Y-100948571D02*
X110267200Y-101043809D01*
X110267200Y-101043809D02*
X110219580Y-101091428D01*
X110219580Y-101091428D02*
X110124342Y-101139047D01*
X110124342Y-101139047D02*
X109933866Y-101186666D01*
X109933866Y-101186666D02*
X109695771Y-101186666D01*
X109695771Y-101186666D02*
X109505295Y-101139047D01*
X109505295Y-101139047D02*
X109410057Y-101091428D01*
X109410057Y-101091428D02*
X109362438Y-101043809D01*
X109362438Y-101043809D02*
X109314819Y-100948571D01*
X109314819Y-99996190D02*
X109314819Y-99900952D01*
X109314819Y-99900952D02*
X109362438Y-99805714D01*
X109362438Y-99805714D02*
X109410057Y-99758095D01*
X109410057Y-99758095D02*
X109505295Y-99710476D01*
X109505295Y-99710476D02*
X109695771Y-99662857D01*
X109695771Y-99662857D02*
X109933866Y-99662857D01*
X109933866Y-99662857D02*
X110124342Y-99710476D01*
X110124342Y-99710476D02*
X110219580Y-99758095D01*
X110219580Y-99758095D02*
X110267200Y-99805714D01*
X110267200Y-99805714D02*
X110314819Y-99900952D01*
X110314819Y-99900952D02*
X110314819Y-99996190D01*
X110314819Y-99996190D02*
X110267200Y-100091428D01*
X110267200Y-100091428D02*
X110219580Y-100139047D01*
X110219580Y-100139047D02*
X110124342Y-100186666D01*
X110124342Y-100186666D02*
X109933866Y-100234285D01*
X109933866Y-100234285D02*
X109695771Y-100234285D01*
X109695771Y-100234285D02*
X109505295Y-100186666D01*
X109505295Y-100186666D02*
X109410057Y-100139047D01*
X109410057Y-100139047D02*
X109362438Y-100091428D01*
X109362438Y-100091428D02*
X109314819Y-99996190D01*
X109648152Y-98805714D02*
X110314819Y-98805714D01*
X109648152Y-99234285D02*
X110171961Y-99234285D01*
X110171961Y-99234285D02*
X110267200Y-99186666D01*
X110267200Y-99186666D02*
X110314819Y-99091428D01*
X110314819Y-99091428D02*
X110314819Y-98948571D01*
X110314819Y-98948571D02*
X110267200Y-98853333D01*
X110267200Y-98853333D02*
X110219580Y-98805714D01*
X109267200Y-97615238D02*
X110552914Y-98472380D01*
X109314819Y-96805714D02*
X109314819Y-97281904D01*
X109314819Y-97281904D02*
X109791009Y-97329523D01*
X109791009Y-97329523D02*
X109743390Y-97281904D01*
X109743390Y-97281904D02*
X109695771Y-97186666D01*
X109695771Y-97186666D02*
X109695771Y-96948571D01*
X109695771Y-96948571D02*
X109743390Y-96853333D01*
X109743390Y-96853333D02*
X109791009Y-96805714D01*
X109791009Y-96805714D02*
X109886247Y-96758095D01*
X109886247Y-96758095D02*
X110124342Y-96758095D01*
X110124342Y-96758095D02*
X110219580Y-96805714D01*
X110219580Y-96805714D02*
X110267200Y-96853333D01*
X110267200Y-96853333D02*
X110314819Y-96948571D01*
X110314819Y-96948571D02*
X110314819Y-97186666D01*
X110314819Y-97186666D02*
X110267200Y-97281904D01*
X110267200Y-97281904D02*
X110219580Y-97329523D01*
X109314819Y-96139047D02*
X109314819Y-96043809D01*
X109314819Y-96043809D02*
X109362438Y-95948571D01*
X109362438Y-95948571D02*
X109410057Y-95900952D01*
X109410057Y-95900952D02*
X109505295Y-95853333D01*
X109505295Y-95853333D02*
X109695771Y-95805714D01*
X109695771Y-95805714D02*
X109933866Y-95805714D01*
X109933866Y-95805714D02*
X110124342Y-95853333D01*
X110124342Y-95853333D02*
X110219580Y-95900952D01*
X110219580Y-95900952D02*
X110267200Y-95948571D01*
X110267200Y-95948571D02*
X110314819Y-96043809D01*
X110314819Y-96043809D02*
X110314819Y-96139047D01*
X110314819Y-96139047D02*
X110267200Y-96234285D01*
X110267200Y-96234285D02*
X110219580Y-96281904D01*
X110219580Y-96281904D02*
X110124342Y-96329523D01*
X110124342Y-96329523D02*
X109933866Y-96377142D01*
X109933866Y-96377142D02*
X109695771Y-96377142D01*
X109695771Y-96377142D02*
X109505295Y-96329523D01*
X109505295Y-96329523D02*
X109410057Y-96281904D01*
X109410057Y-96281904D02*
X109362438Y-96234285D01*
X109362438Y-96234285D02*
X109314819Y-96139047D01*
X109314819Y-95519999D02*
X110314819Y-95186666D01*
X110314819Y-95186666D02*
X109314819Y-94853333D01*
X100155476Y-123924819D02*
X100155476Y-124639104D01*
X100155476Y-124639104D02*
X100107857Y-124781961D01*
X100107857Y-124781961D02*
X100012619Y-124877200D01*
X100012619Y-124877200D02*
X99869762Y-124924819D01*
X99869762Y-124924819D02*
X99774524Y-124924819D01*
X101155476Y-124924819D02*
X100584048Y-124924819D01*
X100869762Y-124924819D02*
X100869762Y-123924819D01*
X100869762Y-123924819D02*
X100774524Y-124067676D01*
X100774524Y-124067676D02*
X100679286Y-124162914D01*
X100679286Y-124162914D02*
X100584048Y-124210533D01*
X101536429Y-124020057D02*
X101584048Y-123972438D01*
X101584048Y-123972438D02*
X101679286Y-123924819D01*
X101679286Y-123924819D02*
X101917381Y-123924819D01*
X101917381Y-123924819D02*
X102012619Y-123972438D01*
X102012619Y-123972438D02*
X102060238Y-124020057D01*
X102060238Y-124020057D02*
X102107857Y-124115295D01*
X102107857Y-124115295D02*
X102107857Y-124210533D01*
X102107857Y-124210533D02*
X102060238Y-124353390D01*
X102060238Y-124353390D02*
X101488810Y-124924819D01*
X101488810Y-124924819D02*
X102107857Y-124924819D01*
X100631666Y-65494819D02*
X100631666Y-66209104D01*
X100631666Y-66209104D02*
X100584047Y-66351961D01*
X100584047Y-66351961D02*
X100488809Y-66447200D01*
X100488809Y-66447200D02*
X100345952Y-66494819D01*
X100345952Y-66494819D02*
X100250714Y-66494819D01*
X101536428Y-65828152D02*
X101536428Y-66494819D01*
X101298333Y-65447200D02*
X101060238Y-66161485D01*
X101060238Y-66161485D02*
X101679285Y-66161485D01*
X135048333Y-108314580D02*
X135000714Y-108362200D01*
X135000714Y-108362200D02*
X134857857Y-108409819D01*
X134857857Y-108409819D02*
X134762619Y-108409819D01*
X134762619Y-108409819D02*
X134619762Y-108362200D01*
X134619762Y-108362200D02*
X134524524Y-108266961D01*
X134524524Y-108266961D02*
X134476905Y-108171723D01*
X134476905Y-108171723D02*
X134429286Y-107981247D01*
X134429286Y-107981247D02*
X134429286Y-107838390D01*
X134429286Y-107838390D02*
X134476905Y-107647914D01*
X134476905Y-107647914D02*
X134524524Y-107552676D01*
X134524524Y-107552676D02*
X134619762Y-107457438D01*
X134619762Y-107457438D02*
X134762619Y-107409819D01*
X134762619Y-107409819D02*
X134857857Y-107409819D01*
X134857857Y-107409819D02*
X135000714Y-107457438D01*
X135000714Y-107457438D02*
X135048333Y-107505057D01*
X135905476Y-107409819D02*
X135715000Y-107409819D01*
X135715000Y-107409819D02*
X135619762Y-107457438D01*
X135619762Y-107457438D02*
X135572143Y-107505057D01*
X135572143Y-107505057D02*
X135476905Y-107647914D01*
X135476905Y-107647914D02*
X135429286Y-107838390D01*
X135429286Y-107838390D02*
X135429286Y-108219342D01*
X135429286Y-108219342D02*
X135476905Y-108314580D01*
X135476905Y-108314580D02*
X135524524Y-108362200D01*
X135524524Y-108362200D02*
X135619762Y-108409819D01*
X135619762Y-108409819D02*
X135810238Y-108409819D01*
X135810238Y-108409819D02*
X135905476Y-108362200D01*
X135905476Y-108362200D02*
X135953095Y-108314580D01*
X135953095Y-108314580D02*
X136000714Y-108219342D01*
X136000714Y-108219342D02*
X136000714Y-107981247D01*
X136000714Y-107981247D02*
X135953095Y-107886009D01*
X135953095Y-107886009D02*
X135905476Y-107838390D01*
X135905476Y-107838390D02*
X135810238Y-107790771D01*
X135810238Y-107790771D02*
X135619762Y-107790771D01*
X135619762Y-107790771D02*
X135524524Y-107838390D01*
X135524524Y-107838390D02*
X135476905Y-107886009D01*
X135476905Y-107886009D02*
X135429286Y-107981247D01*
X119833333Y-123654819D02*
X119500000Y-123178628D01*
X119261905Y-123654819D02*
X119261905Y-122654819D01*
X119261905Y-122654819D02*
X119642857Y-122654819D01*
X119642857Y-122654819D02*
X119738095Y-122702438D01*
X119738095Y-122702438D02*
X119785714Y-122750057D01*
X119785714Y-122750057D02*
X119833333Y-122845295D01*
X119833333Y-122845295D02*
X119833333Y-122988152D01*
X119833333Y-122988152D02*
X119785714Y-123083390D01*
X119785714Y-123083390D02*
X119738095Y-123131009D01*
X119738095Y-123131009D02*
X119642857Y-123178628D01*
X119642857Y-123178628D02*
X119261905Y-123178628D01*
X120690476Y-122654819D02*
X120500000Y-122654819D01*
X120500000Y-122654819D02*
X120404762Y-122702438D01*
X120404762Y-122702438D02*
X120357143Y-122750057D01*
X120357143Y-122750057D02*
X120261905Y-122892914D01*
X120261905Y-122892914D02*
X120214286Y-123083390D01*
X120214286Y-123083390D02*
X120214286Y-123464342D01*
X120214286Y-123464342D02*
X120261905Y-123559580D01*
X120261905Y-123559580D02*
X120309524Y-123607200D01*
X120309524Y-123607200D02*
X120404762Y-123654819D01*
X120404762Y-123654819D02*
X120595238Y-123654819D01*
X120595238Y-123654819D02*
X120690476Y-123607200D01*
X120690476Y-123607200D02*
X120738095Y-123559580D01*
X120738095Y-123559580D02*
X120785714Y-123464342D01*
X120785714Y-123464342D02*
X120785714Y-123226247D01*
X120785714Y-123226247D02*
X120738095Y-123131009D01*
X120738095Y-123131009D02*
X120690476Y-123083390D01*
X120690476Y-123083390D02*
X120595238Y-123035771D01*
X120595238Y-123035771D02*
X120404762Y-123035771D01*
X120404762Y-123035771D02*
X120309524Y-123083390D01*
X120309524Y-123083390D02*
X120261905Y-123131009D01*
X120261905Y-123131009D02*
X120214286Y-123226247D01*
X119253095Y-125348152D02*
X119253095Y-126014819D01*
X119015000Y-124967200D02*
X118776905Y-125681485D01*
X118776905Y-125681485D02*
X119395952Y-125681485D01*
X119681667Y-125014819D02*
X120348333Y-125014819D01*
X120348333Y-125014819D02*
X119919762Y-126014819D01*
X120919762Y-125014819D02*
X121015000Y-125014819D01*
X121015000Y-125014819D02*
X121110238Y-125062438D01*
X121110238Y-125062438D02*
X121157857Y-125110057D01*
X121157857Y-125110057D02*
X121205476Y-125205295D01*
X121205476Y-125205295D02*
X121253095Y-125395771D01*
X121253095Y-125395771D02*
X121253095Y-125633866D01*
X121253095Y-125633866D02*
X121205476Y-125824342D01*
X121205476Y-125824342D02*
X121157857Y-125919580D01*
X121157857Y-125919580D02*
X121110238Y-125967200D01*
X121110238Y-125967200D02*
X121015000Y-126014819D01*
X121015000Y-126014819D02*
X120919762Y-126014819D01*
X120919762Y-126014819D02*
X120824524Y-125967200D01*
X120824524Y-125967200D02*
X120776905Y-125919580D01*
X120776905Y-125919580D02*
X120729286Y-125824342D01*
X120729286Y-125824342D02*
X120681667Y-125633866D01*
X120681667Y-125633866D02*
X120681667Y-125395771D01*
X120681667Y-125395771D02*
X120729286Y-125205295D01*
X120729286Y-125205295D02*
X120776905Y-125110057D01*
X120776905Y-125110057D02*
X120824524Y-125062438D01*
X120824524Y-125062438D02*
X120919762Y-125014819D01*
X146554819Y-107261904D02*
X147364342Y-107261904D01*
X147364342Y-107261904D02*
X147459580Y-107214285D01*
X147459580Y-107214285D02*
X147507200Y-107166666D01*
X147507200Y-107166666D02*
X147554819Y-107071428D01*
X147554819Y-107071428D02*
X147554819Y-106880952D01*
X147554819Y-106880952D02*
X147507200Y-106785714D01*
X147507200Y-106785714D02*
X147459580Y-106738095D01*
X147459580Y-106738095D02*
X147364342Y-106690476D01*
X147364342Y-106690476D02*
X146554819Y-106690476D01*
X146554819Y-106309523D02*
X146554819Y-105690476D01*
X146554819Y-105690476D02*
X146935771Y-106023809D01*
X146935771Y-106023809D02*
X146935771Y-105880952D01*
X146935771Y-105880952D02*
X146983390Y-105785714D01*
X146983390Y-105785714D02*
X147031009Y-105738095D01*
X147031009Y-105738095D02*
X147126247Y-105690476D01*
X147126247Y-105690476D02*
X147364342Y-105690476D01*
X147364342Y-105690476D02*
X147459580Y-105738095D01*
X147459580Y-105738095D02*
X147507200Y-105785714D01*
X147507200Y-105785714D02*
X147554819Y-105880952D01*
X147554819Y-105880952D02*
X147554819Y-106166666D01*
X147554819Y-106166666D02*
X147507200Y-106261904D01*
X147507200Y-106261904D02*
X147459580Y-106309523D01*
X162454580Y-81441666D02*
X162502200Y-81489285D01*
X162502200Y-81489285D02*
X162549819Y-81632142D01*
X162549819Y-81632142D02*
X162549819Y-81727380D01*
X162549819Y-81727380D02*
X162502200Y-81870237D01*
X162502200Y-81870237D02*
X162406961Y-81965475D01*
X162406961Y-81965475D02*
X162311723Y-82013094D01*
X162311723Y-82013094D02*
X162121247Y-82060713D01*
X162121247Y-82060713D02*
X161978390Y-82060713D01*
X161978390Y-82060713D02*
X161787914Y-82013094D01*
X161787914Y-82013094D02*
X161692676Y-81965475D01*
X161692676Y-81965475D02*
X161597438Y-81870237D01*
X161597438Y-81870237D02*
X161549819Y-81727380D01*
X161549819Y-81727380D02*
X161549819Y-81632142D01*
X161549819Y-81632142D02*
X161597438Y-81489285D01*
X161597438Y-81489285D02*
X161645057Y-81441666D01*
X161549819Y-81108332D02*
X161549819Y-80441666D01*
X161549819Y-80441666D02*
X162549819Y-80870237D01*
D13*
X190530000Y-118080000D02*
X190530000Y-69880000D01*
X190530000Y-69880000D02*
X162530000Y-69880000D01*
X186690000Y-124460000D02*
X166370000Y-124460000D01*
X186690000Y-116840000D02*
X186690000Y-124460000D01*
X186690000Y-99060000D02*
X186690000Y-116840000D01*
X176530000Y-118080000D02*
X190530000Y-118080000D01*
X166370000Y-124460000D02*
X166370000Y-99060000D01*
X166370000Y-99060000D02*
X186690000Y-99060000D01*
X162530000Y-118080000D02*
X176530000Y-118080000D01*
X162530000Y-69880000D02*
X162530000Y-118080000D01*
D14*
X184150000Y-116840000D02*
X168910000Y-116840000D01*
X168910000Y-101600000D01*
X184150000Y-101600000D01*
X184150000Y-116840000D01*
G36*
X184150000Y-116840000D02*
G01*
X168910000Y-116840000D01*
X168910000Y-101600000D01*
X184150000Y-101600000D01*
X184150000Y-116840000D01*
G37*
D13*
X122820000Y-82550000D02*
X122680000Y-82550000D01*
X122680000Y-84520000D02*
X122680000Y-80580000D01*
X122680000Y-80580000D02*
X113540000Y-80580000D01*
X121345000Y-84520000D02*
X121345000Y-80580000D01*
X121225000Y-84520000D02*
X121225000Y-80580000D01*
X121105000Y-84520000D02*
X121105000Y-80580000D01*
X113540000Y-84520000D02*
X122680000Y-84520000D01*
X113540000Y-80580000D02*
X113540000Y-84520000D01*
X113400000Y-82550000D02*
X113540000Y-82550000D01*
X113400000Y-116840000D02*
X113540000Y-116840000D01*
X113540000Y-114870000D02*
X113540000Y-118810000D01*
X113540000Y-118810000D02*
X122680000Y-118810000D01*
X114875000Y-114870000D02*
X114875000Y-118810000D01*
X114995000Y-114870000D02*
X114995000Y-118810000D01*
X115115000Y-114870000D02*
X115115000Y-118810000D01*
X122680000Y-114870000D02*
X113540000Y-114870000D01*
X122680000Y-118810000D02*
X122680000Y-114870000D01*
X122820000Y-116840000D02*
X122680000Y-116840000D01*
X104670694Y-49530000D02*
G75*
G03*
X104670694Y-49530000I-1800694J0D01*
G01*
X104670694Y-55880000D02*
G75*
G03*
X104670694Y-55880000I-1800694J0D01*
G01*
X104670694Y-62230000D02*
G75*
G03*
X104670694Y-62230000I-1800694J0D01*
G01*
X104670694Y-88900000D02*
G75*
G03*
X104670694Y-88900000I-1800694J0D01*
G01*
X104670694Y-95250000D02*
G75*
G03*
X104670694Y-95250000I-1800694J0D01*
G01*
X104670694Y-101600000D02*
G75*
G03*
X104670694Y-101600000I-1800694J0D01*
G01*
X104670694Y-107950000D02*
G75*
G03*
X104670694Y-107950000I-1800694J0D01*
G01*
X104670694Y-115570000D02*
G75*
G03*
X104670694Y-115570000I-1800694J0D01*
G01*
X135580000Y-125520000D02*
X135580000Y-126770000D01*
X135870000Y-125810000D02*
X135870000Y-131780000D01*
X135870000Y-131780000D02*
X148490000Y-131780000D01*
X135880000Y-125820000D02*
X135880000Y-126570000D01*
X135880000Y-126570000D02*
X137680000Y-126570000D01*
X135880000Y-128070000D02*
X136630000Y-128070000D01*
X136630000Y-128070000D02*
X136630000Y-131020000D01*
X136630000Y-131020000D02*
X142180000Y-131020000D01*
X136830000Y-125520000D02*
X135580000Y-125520000D01*
X137680000Y-125820000D02*
X135880000Y-125820000D01*
X137680000Y-126570000D02*
X137680000Y-125820000D01*
X139180000Y-125820000D02*
X139180000Y-126570000D01*
X139180000Y-126570000D02*
X145180000Y-126570000D01*
X145180000Y-125820000D02*
X139180000Y-125820000D01*
X145180000Y-126570000D02*
X145180000Y-125820000D01*
X146680000Y-125820000D02*
X146680000Y-126570000D01*
X146680000Y-126570000D02*
X148480000Y-126570000D01*
X147730000Y-128070000D02*
X147730000Y-131020000D01*
X147730000Y-131020000D02*
X142180000Y-131020000D01*
X148480000Y-125820000D02*
X146680000Y-125820000D01*
X148480000Y-126570000D02*
X148480000Y-125820000D01*
X148480000Y-128070000D02*
X147730000Y-128070000D01*
X148490000Y-125810000D02*
X135870000Y-125810000D01*
X148490000Y-131780000D02*
X148490000Y-125810000D01*
X150185000Y-125520000D02*
X150185000Y-126770000D01*
X150475000Y-125810000D02*
X150475000Y-131780000D01*
X150475000Y-131780000D02*
X163095000Y-131780000D01*
X150485000Y-125820000D02*
X150485000Y-126570000D01*
X150485000Y-126570000D02*
X152285000Y-126570000D01*
X150485000Y-128070000D02*
X151235000Y-128070000D01*
X151235000Y-128070000D02*
X151235000Y-131020000D01*
X151235000Y-131020000D02*
X156785000Y-131020000D01*
X151435000Y-125520000D02*
X150185000Y-125520000D01*
X152285000Y-125820000D02*
X150485000Y-125820000D01*
X152285000Y-126570000D02*
X152285000Y-125820000D01*
X153785000Y-125820000D02*
X153785000Y-126570000D01*
X153785000Y-126570000D02*
X159785000Y-126570000D01*
X159785000Y-125820000D02*
X153785000Y-125820000D01*
X159785000Y-126570000D02*
X159785000Y-125820000D01*
X161285000Y-125820000D02*
X161285000Y-126570000D01*
X161285000Y-126570000D02*
X163085000Y-126570000D01*
X162335000Y-128070000D02*
X162335000Y-131020000D01*
X162335000Y-131020000D02*
X156785000Y-131020000D01*
X163085000Y-125820000D02*
X161285000Y-125820000D01*
X163085000Y-126570000D02*
X163085000Y-125820000D01*
X163085000Y-128070000D02*
X162335000Y-128070000D01*
X163095000Y-125810000D02*
X150475000Y-125810000D01*
X163095000Y-131780000D02*
X163095000Y-125810000D01*
X123515000Y-125520000D02*
X123515000Y-126770000D01*
X123805000Y-125810000D02*
X123805000Y-131780000D01*
X123805000Y-131780000D02*
X133925000Y-131780000D01*
X123815000Y-125820000D02*
X123815000Y-126570000D01*
X123815000Y-126570000D02*
X125615000Y-126570000D01*
X123815000Y-128070000D02*
X124565000Y-128070000D01*
X124565000Y-128070000D02*
X124565000Y-131020000D01*
X124565000Y-131020000D02*
X128865000Y-131020000D01*
X124765000Y-125520000D02*
X123515000Y-125520000D01*
X125615000Y-125820000D02*
X123815000Y-125820000D01*
X125615000Y-126570000D02*
X125615000Y-125820000D01*
X127115000Y-125820000D02*
X127115000Y-126570000D01*
X127115000Y-126570000D02*
X130615000Y-126570000D01*
X130615000Y-125820000D02*
X127115000Y-125820000D01*
X130615000Y-126570000D02*
X130615000Y-125820000D01*
X132115000Y-125820000D02*
X132115000Y-126570000D01*
X132115000Y-126570000D02*
X133915000Y-126570000D01*
X133165000Y-128070000D02*
X133165000Y-131020000D01*
X133165000Y-131020000D02*
X128865000Y-131020000D01*
X133915000Y-125820000D02*
X132115000Y-125820000D01*
X133915000Y-126570000D02*
X133915000Y-125820000D01*
X133915000Y-128070000D02*
X133165000Y-128070000D01*
X133925000Y-125810000D02*
X123805000Y-125810000D01*
X133925000Y-131780000D02*
X133925000Y-125810000D01*
X109320000Y-37215000D02*
X109320000Y-75815000D01*
X109320000Y-75815000D02*
X159920000Y-75815000D01*
D15*
X113220000Y-41515000D02*
X113220000Y-71515000D01*
X113220000Y-71515000D02*
X120220000Y-71515000D01*
X120220000Y-41515000D02*
X113220000Y-41515000D01*
X120220000Y-71515000D02*
X120220000Y-41515000D01*
D16*
X122020000Y-40515000D02*
X140820000Y-40515000D01*
X122020000Y-55615000D02*
X122020000Y-40515000D01*
X122020000Y-57415000D02*
X140820000Y-57415000D01*
X122020000Y-72515000D02*
X122020000Y-57415000D01*
D13*
X134620000Y-37215000D02*
X109320000Y-37215000D01*
D16*
X140820000Y-40515000D02*
X140820000Y-55615000D01*
X140820000Y-55615000D02*
X122020000Y-55615000D01*
X140820000Y-57415000D02*
X140820000Y-72515000D01*
X140820000Y-72515000D02*
X122020000Y-72515000D01*
D13*
X159920000Y-37215000D02*
X134620000Y-37215000D01*
X159920000Y-75815000D02*
X159920000Y-37215000D01*
X113620000Y-40715000D02*
G75*
G03*
X113620000Y-40715000I-1300000J0D01*
G01*
X114120000Y-72315000D02*
G75*
G03*
X114120000Y-72315000I-1300000J0D01*
G01*
X157720000Y-40715000D02*
G75*
G03*
X157720000Y-40715000I-1300000J0D01*
G01*
X157720000Y-72315000D02*
G75*
G03*
X157720000Y-72315000I-1300000J0D01*
G01*
X145320000Y-96560000D02*
X149961000Y-96560000D01*
X145320000Y-96560000D02*
X145320000Y-86320000D01*
X146830000Y-96560000D02*
X146830000Y-86320000D01*
X149961000Y-96560000D02*
X149961000Y-86320000D01*
X145320000Y-93290000D02*
X146830000Y-93290000D01*
X145320000Y-89589000D02*
X146830000Y-89589000D01*
X145320000Y-86320000D02*
X149961000Y-86320000D01*
X169255000Y-64830000D02*
X169255000Y-39310000D01*
X169255000Y-39310000D02*
X164755000Y-39310000D01*
X168005000Y-64830000D02*
X169255000Y-64830000D01*
X164755000Y-64830000D02*
X166005000Y-64830000D01*
X164755000Y-39310000D02*
X164755000Y-64830000D01*
X168005000Y-64830000D02*
G75*
G03*
X166005000Y-64830000I-1000000J0D01*
G01*
X113400000Y-111760000D02*
X113540000Y-111760000D01*
X113540000Y-109790000D02*
X113540000Y-113730000D01*
X113540000Y-113730000D02*
X122680000Y-113730000D01*
X114875000Y-109790000D02*
X114875000Y-113730000D01*
X114995000Y-109790000D02*
X114995000Y-113730000D01*
X115115000Y-109790000D02*
X115115000Y-113730000D01*
X122680000Y-109790000D02*
X113540000Y-109790000D01*
X122680000Y-113730000D02*
X122680000Y-109790000D01*
X122820000Y-111760000D02*
X122680000Y-111760000D01*
X128170000Y-91410000D02*
X128485000Y-91410000D01*
X128170000Y-91410000D02*
X128170000Y-86470000D01*
X130595000Y-91410000D02*
X130910000Y-91410000D01*
X130910000Y-91410000D02*
X130910000Y-86470000D01*
X128170000Y-86470000D02*
X128485000Y-86470000D01*
X130595000Y-86470000D02*
X130910000Y-86470000D01*
X122820000Y-88900000D02*
X122680000Y-88900000D01*
X122680000Y-90870000D02*
X122680000Y-86930000D01*
X122680000Y-86930000D02*
X113540000Y-86930000D01*
X121345000Y-90870000D02*
X121345000Y-86930000D01*
X121225000Y-90870000D02*
X121225000Y-86930000D01*
X121105000Y-90870000D02*
X121105000Y-86930000D01*
X113540000Y-90870000D02*
X122680000Y-90870000D01*
X113540000Y-86930000D02*
X113540000Y-90870000D01*
X113400000Y-88900000D02*
X113540000Y-88900000D01*
X142775000Y-110460000D02*
X143090000Y-110460000D01*
X142775000Y-110460000D02*
X142775000Y-105520000D01*
X145200000Y-110460000D02*
X145515000Y-110460000D01*
X145515000Y-110460000D02*
X145515000Y-105520000D01*
X142775000Y-105520000D02*
X143090000Y-105520000D01*
X145200000Y-105520000D02*
X145515000Y-105520000D01*
X158850000Y-105440000D02*
X158535000Y-105440000D01*
X158850000Y-105440000D02*
X158850000Y-110380000D01*
X156425000Y-105440000D02*
X156110000Y-105440000D01*
X156110000Y-105440000D02*
X156110000Y-110380000D01*
X158850000Y-110380000D02*
X158535000Y-110380000D01*
X156425000Y-110380000D02*
X156110000Y-110380000D01*
X158850000Y-87660000D02*
X158535000Y-87660000D01*
X158850000Y-87660000D02*
X158850000Y-92600000D01*
X156425000Y-87660000D02*
X156110000Y-87660000D01*
X156110000Y-87660000D02*
X156110000Y-92600000D01*
X158850000Y-92600000D02*
X158535000Y-92600000D01*
X156425000Y-92600000D02*
X156110000Y-92600000D01*
X104670694Y-81280000D02*
G75*
G03*
X104670694Y-81280000I-1800694J0D01*
G01*
X104670694Y-74930000D02*
G75*
G03*
X104670694Y-74930000I-1800694J0D01*
G01*
X191770000Y-57380000D02*
X191770000Y-56610000D01*
X190400000Y-56610000D02*
X193140000Y-56610000D01*
X193140000Y-56610000D02*
X193140000Y-50070000D01*
X190400000Y-50070000D02*
X190400000Y-56610000D01*
X193140000Y-50070000D02*
X190400000Y-50070000D01*
X191770000Y-49300000D02*
X191770000Y-50070000D01*
X184840000Y-48365000D02*
X184840000Y-51965000D01*
X189290000Y-50165000D02*
G75*
G03*
X184851522Y-48326522I-2600000J0D01*
G01*
X184851522Y-52003478D02*
G75*
G03*
X189290000Y-50165000I1838478J1838478D01*
G01*
X175260000Y-45490000D02*
X175260000Y-46260000D01*
X176630000Y-46260000D02*
X173890000Y-46260000D01*
X173890000Y-46260000D02*
X173890000Y-52800000D01*
X176630000Y-52800000D02*
X176630000Y-46260000D01*
X173890000Y-52800000D02*
X176630000Y-52800000D01*
X175260000Y-53570000D02*
X175260000Y-52800000D01*
X175260000Y-58190000D02*
X175260000Y-58960000D01*
X176630000Y-58960000D02*
X173890000Y-58960000D01*
X173890000Y-58960000D02*
X173890000Y-65500000D01*
X176630000Y-65500000D02*
X176630000Y-58960000D01*
X173890000Y-65500000D02*
X176630000Y-65500000D01*
X175260000Y-66270000D02*
X175260000Y-65500000D01*
X180340000Y-45490000D02*
X180340000Y-46260000D01*
X181710000Y-46260000D02*
X178970000Y-46260000D01*
X178970000Y-46260000D02*
X178970000Y-52800000D01*
X181710000Y-52800000D02*
X181710000Y-46260000D01*
X178970000Y-52800000D02*
X181710000Y-52800000D01*
X180340000Y-53570000D02*
X180340000Y-52800000D01*
X180340000Y-58190000D02*
X180340000Y-58960000D01*
X181710000Y-58960000D02*
X178970000Y-58960000D01*
X178970000Y-58960000D02*
X178970000Y-65500000D01*
X181710000Y-65500000D02*
X181710000Y-58960000D01*
X178970000Y-65500000D02*
X181710000Y-65500000D01*
X180340000Y-66270000D02*
X180340000Y-65500000D01*
X176511000Y-40640000D02*
G75*
G03*
X176511000Y-40640000I-1251000J0D01*
G01*
X181591000Y-40640000D02*
G75*
G03*
X181591000Y-40640000I-1251000J0D01*
G01*
X122105000Y-91400457D02*
X122105000Y-92800457D01*
X122805000Y-92100457D02*
X121405000Y-92100457D01*
X125190000Y-99020000D02*
X111030000Y-99020000D01*
X125190000Y-99060000D02*
X111030000Y-99060000D01*
X125190000Y-99100000D02*
X111030000Y-99100000D01*
X125189000Y-99140000D02*
X111031000Y-99140000D01*
X125189000Y-99180000D02*
X111031000Y-99180000D01*
X125188000Y-99220000D02*
X111032000Y-99220000D01*
X125186000Y-99260000D02*
X111034000Y-99260000D01*
X125185000Y-99300000D02*
X111035000Y-99300000D01*
X125183000Y-99340000D02*
X111037000Y-99340000D01*
X125181000Y-99380000D02*
X111039000Y-99380000D01*
X125179000Y-99420000D02*
X111041000Y-99420000D01*
X125177000Y-99460000D02*
X111043000Y-99460000D01*
X125174000Y-99500000D02*
X111046000Y-99500000D01*
X125171000Y-99540000D02*
X111049000Y-99540000D01*
X125168000Y-99580000D02*
X111052000Y-99580000D01*
X125165000Y-99620000D02*
X111055000Y-99620000D01*
X125162000Y-99660000D02*
X111058000Y-99660000D01*
X125158000Y-99700000D02*
X111062000Y-99700000D01*
X125154000Y-99741000D02*
X111066000Y-99741000D01*
X125150000Y-99781000D02*
X111070000Y-99781000D01*
X125145000Y-99821000D02*
X111075000Y-99821000D01*
X125141000Y-99861000D02*
X111079000Y-99861000D01*
X125136000Y-99901000D02*
X111084000Y-99901000D01*
X125131000Y-99941000D02*
X111089000Y-99941000D01*
X125125000Y-99981000D02*
X111095000Y-99981000D01*
X125120000Y-100021000D02*
X111100000Y-100021000D01*
X125114000Y-100061000D02*
X111106000Y-100061000D01*
X125108000Y-100101000D02*
X119550000Y-100101000D01*
X116670000Y-100101000D02*
X111112000Y-100101000D01*
X125102000Y-100141000D02*
X119550000Y-100141000D01*
X116670000Y-100141000D02*
X111118000Y-100141000D01*
X125095000Y-100181000D02*
X119550000Y-100181000D01*
X116670000Y-100181000D02*
X111125000Y-100181000D01*
X125089000Y-100221000D02*
X119550000Y-100221000D01*
X116670000Y-100221000D02*
X111131000Y-100221000D01*
X125082000Y-100261000D02*
X119550000Y-100261000D01*
X116670000Y-100261000D02*
X111138000Y-100261000D01*
X125074000Y-100301000D02*
X119550000Y-100301000D01*
X116670000Y-100301000D02*
X111146000Y-100301000D01*
X125067000Y-100341000D02*
X119550000Y-100341000D01*
X116670000Y-100341000D02*
X111153000Y-100341000D01*
X125059000Y-100381000D02*
X119550000Y-100381000D01*
X116670000Y-100381000D02*
X111161000Y-100381000D01*
X125052000Y-100421000D02*
X119550000Y-100421000D01*
X116670000Y-100421000D02*
X111168000Y-100421000D01*
X125043000Y-100461000D02*
X119550000Y-100461000D01*
X116670000Y-100461000D02*
X111177000Y-100461000D01*
X125035000Y-100501000D02*
X119550000Y-100501000D01*
X116670000Y-100501000D02*
X111185000Y-100501000D01*
X125026000Y-100541000D02*
X119550000Y-100541000D01*
X116670000Y-100541000D02*
X111194000Y-100541000D01*
X125017000Y-100581000D02*
X119550000Y-100581000D01*
X116670000Y-100581000D02*
X111203000Y-100581000D01*
X125008000Y-100621000D02*
X119550000Y-100621000D01*
X116670000Y-100621000D02*
X111212000Y-100621000D01*
X124999000Y-100661000D02*
X119550000Y-100661000D01*
X116670000Y-100661000D02*
X111221000Y-100661000D01*
X124989000Y-100701000D02*
X119550000Y-100701000D01*
X116670000Y-100701000D02*
X111231000Y-100701000D01*
X124980000Y-100741000D02*
X119550000Y-100741000D01*
X116670000Y-100741000D02*
X111240000Y-100741000D01*
X124970000Y-100781000D02*
X119550000Y-100781000D01*
X116670000Y-100781000D02*
X111250000Y-100781000D01*
X124959000Y-100821000D02*
X119550000Y-100821000D01*
X116670000Y-100821000D02*
X111261000Y-100821000D01*
X124949000Y-100861000D02*
X119550000Y-100861000D01*
X116670000Y-100861000D02*
X111271000Y-100861000D01*
X124938000Y-100901000D02*
X119550000Y-100901000D01*
X116670000Y-100901000D02*
X111282000Y-100901000D01*
X124927000Y-100941000D02*
X119550000Y-100941000D01*
X116670000Y-100941000D02*
X111293000Y-100941000D01*
X124915000Y-100981000D02*
X119550000Y-100981000D01*
X116670000Y-100981000D02*
X111305000Y-100981000D01*
X124904000Y-101021000D02*
X119550000Y-101021000D01*
X116670000Y-101021000D02*
X111316000Y-101021000D01*
X124892000Y-101061000D02*
X119550000Y-101061000D01*
X116670000Y-101061000D02*
X111328000Y-101061000D01*
X124880000Y-101101000D02*
X119550000Y-101101000D01*
X116670000Y-101101000D02*
X111340000Y-101101000D01*
X124868000Y-101141000D02*
X119550000Y-101141000D01*
X116670000Y-101141000D02*
X111352000Y-101141000D01*
X124855000Y-101181000D02*
X119550000Y-101181000D01*
X116670000Y-101181000D02*
X111365000Y-101181000D01*
X124842000Y-101221000D02*
X119550000Y-101221000D01*
X116670000Y-101221000D02*
X111378000Y-101221000D01*
X124829000Y-101261000D02*
X119550000Y-101261000D01*
X116670000Y-101261000D02*
X111391000Y-101261000D01*
X124816000Y-101301000D02*
X119550000Y-101301000D01*
X116670000Y-101301000D02*
X111404000Y-101301000D01*
X124802000Y-101341000D02*
X119550000Y-101341000D01*
X116670000Y-101341000D02*
X111418000Y-101341000D01*
X124788000Y-101381000D02*
X119550000Y-101381000D01*
X116670000Y-101381000D02*
X111432000Y-101381000D01*
X124774000Y-101421000D02*
X119550000Y-101421000D01*
X116670000Y-101421000D02*
X111446000Y-101421000D01*
X124759000Y-101461000D02*
X119550000Y-101461000D01*
X116670000Y-101461000D02*
X111461000Y-101461000D01*
X124745000Y-101501000D02*
X119550000Y-101501000D01*
X116670000Y-101501000D02*
X111475000Y-101501000D01*
X124730000Y-101541000D02*
X119550000Y-101541000D01*
X116670000Y-101541000D02*
X111490000Y-101541000D01*
X124714000Y-101581000D02*
X119550000Y-101581000D01*
X116670000Y-101581000D02*
X111506000Y-101581000D01*
X124699000Y-101621000D02*
X119550000Y-101621000D01*
X116670000Y-101621000D02*
X111521000Y-101621000D01*
X124683000Y-101661000D02*
X119550000Y-101661000D01*
X116670000Y-101661000D02*
X111537000Y-101661000D01*
X124667000Y-101701000D02*
X119550000Y-101701000D01*
X116670000Y-101701000D02*
X111553000Y-101701000D01*
X124650000Y-101741000D02*
X119550000Y-101741000D01*
X116670000Y-101741000D02*
X111570000Y-101741000D01*
X124634000Y-101781000D02*
X119550000Y-101781000D01*
X116670000Y-101781000D02*
X111586000Y-101781000D01*
X124617000Y-101821000D02*
X119550000Y-101821000D01*
X116670000Y-101821000D02*
X111603000Y-101821000D01*
X124600000Y-101861000D02*
X119550000Y-101861000D01*
X116670000Y-101861000D02*
X111620000Y-101861000D01*
X124582000Y-101901000D02*
X119550000Y-101901000D01*
X116670000Y-101901000D02*
X111638000Y-101901000D01*
X124564000Y-101941000D02*
X119550000Y-101941000D01*
X116670000Y-101941000D02*
X111656000Y-101941000D01*
X124546000Y-101981000D02*
X119550000Y-101981000D01*
X116670000Y-101981000D02*
X111674000Y-101981000D01*
X124528000Y-102021000D02*
X119550000Y-102021000D01*
X116670000Y-102021000D02*
X111692000Y-102021000D01*
X124509000Y-102061000D02*
X119550000Y-102061000D01*
X116670000Y-102061000D02*
X111711000Y-102061000D01*
X124490000Y-102101000D02*
X119550000Y-102101000D01*
X116670000Y-102101000D02*
X111730000Y-102101000D01*
X124470000Y-102141000D02*
X119550000Y-102141000D01*
X116670000Y-102141000D02*
X111750000Y-102141000D01*
X124451000Y-102181000D02*
X119550000Y-102181000D01*
X116670000Y-102181000D02*
X111769000Y-102181000D01*
X124431000Y-102221000D02*
X119550000Y-102221000D01*
X116670000Y-102221000D02*
X111789000Y-102221000D01*
X124411000Y-102261000D02*
X119550000Y-102261000D01*
X116670000Y-102261000D02*
X111809000Y-102261000D01*
X124390000Y-102301000D02*
X119550000Y-102301000D01*
X116670000Y-102301000D02*
X111830000Y-102301000D01*
X124369000Y-102341000D02*
X119550000Y-102341000D01*
X116670000Y-102341000D02*
X111851000Y-102341000D01*
X124348000Y-102381000D02*
X119550000Y-102381000D01*
X116670000Y-102381000D02*
X111872000Y-102381000D01*
X124326000Y-102421000D02*
X119550000Y-102421000D01*
X116670000Y-102421000D02*
X111894000Y-102421000D01*
X124304000Y-102461000D02*
X119550000Y-102461000D01*
X116670000Y-102461000D02*
X111916000Y-102461000D01*
X124282000Y-102501000D02*
X119550000Y-102501000D01*
X116670000Y-102501000D02*
X111938000Y-102501000D01*
X124260000Y-102541000D02*
X119550000Y-102541000D01*
X116670000Y-102541000D02*
X111960000Y-102541000D01*
X124237000Y-102581000D02*
X119550000Y-102581000D01*
X116670000Y-102581000D02*
X111983000Y-102581000D01*
X124213000Y-102621000D02*
X119550000Y-102621000D01*
X116670000Y-102621000D02*
X112007000Y-102621000D01*
X124190000Y-102661000D02*
X119550000Y-102661000D01*
X116670000Y-102661000D02*
X112030000Y-102661000D01*
X124166000Y-102701000D02*
X119550000Y-102701000D01*
X116670000Y-102701000D02*
X112054000Y-102701000D01*
X124141000Y-102741000D02*
X119550000Y-102741000D01*
X116670000Y-102741000D02*
X112079000Y-102741000D01*
X124117000Y-102781000D02*
X119550000Y-102781000D01*
X116670000Y-102781000D02*
X112103000Y-102781000D01*
X124092000Y-102821000D02*
X119550000Y-102821000D01*
X116670000Y-102821000D02*
X112128000Y-102821000D01*
X124066000Y-102861000D02*
X119550000Y-102861000D01*
X116670000Y-102861000D02*
X112154000Y-102861000D01*
X124040000Y-102901000D02*
X119550000Y-102901000D01*
X116670000Y-102901000D02*
X112180000Y-102901000D01*
X124014000Y-102941000D02*
X119550000Y-102941000D01*
X116670000Y-102941000D02*
X112206000Y-102941000D01*
X123988000Y-102981000D02*
X112232000Y-102981000D01*
X123961000Y-103021000D02*
X112259000Y-103021000D01*
X123933000Y-103061000D02*
X112287000Y-103061000D01*
X123906000Y-103101000D02*
X112314000Y-103101000D01*
X123877000Y-103141000D02*
X112343000Y-103141000D01*
X123849000Y-103181000D02*
X112371000Y-103181000D01*
X123820000Y-103221000D02*
X112400000Y-103221000D01*
X123790000Y-103261000D02*
X112430000Y-103261000D01*
X123760000Y-103301000D02*
X112460000Y-103301000D01*
X123730000Y-103341000D02*
X112490000Y-103341000D01*
X123699000Y-103381000D02*
X112521000Y-103381000D01*
X123668000Y-103421000D02*
X112552000Y-103421000D01*
X123637000Y-103461000D02*
X112583000Y-103461000D01*
X123604000Y-103501000D02*
X112616000Y-103501000D01*
X123572000Y-103541000D02*
X112648000Y-103541000D01*
X123539000Y-103581000D02*
X112681000Y-103581000D01*
X123505000Y-103621000D02*
X112715000Y-103621000D01*
X123471000Y-103661000D02*
X112749000Y-103661000D01*
X123436000Y-103701000D02*
X112784000Y-103701000D01*
X123401000Y-103741000D02*
X112819000Y-103741000D01*
X123365000Y-103781000D02*
X112855000Y-103781000D01*
X123329000Y-103821000D02*
X112891000Y-103821000D01*
X123292000Y-103861000D02*
X112928000Y-103861000D01*
X123255000Y-103901000D02*
X112965000Y-103901000D01*
X123217000Y-103941000D02*
X113003000Y-103941000D01*
X123179000Y-103981000D02*
X113041000Y-103981000D01*
X123139000Y-104021000D02*
X113081000Y-104021000D01*
X123100000Y-104061000D02*
X113120000Y-104061000D01*
X123059000Y-104101000D02*
X113161000Y-104101000D01*
X123018000Y-104141000D02*
X113202000Y-104141000D01*
X122976000Y-104181000D02*
X113244000Y-104181000D01*
X122934000Y-104221000D02*
X113286000Y-104221000D01*
X122891000Y-104261000D02*
X113329000Y-104261000D01*
X122847000Y-104301000D02*
X113373000Y-104301000D01*
X122803000Y-104341000D02*
X113417000Y-104341000D01*
X122757000Y-104381000D02*
X113463000Y-104381000D01*
X122711000Y-104421000D02*
X113509000Y-104421000D01*
X122664000Y-104461000D02*
X113556000Y-104461000D01*
X122616000Y-104501000D02*
X113604000Y-104501000D01*
X122568000Y-104541000D02*
X113652000Y-104541000D01*
X122518000Y-104581000D02*
X113702000Y-104581000D01*
X122468000Y-104621000D02*
X113752000Y-104621000D01*
X122416000Y-104661000D02*
X113804000Y-104661000D01*
X122364000Y-104701000D02*
X113856000Y-104701000D01*
X122310000Y-104741000D02*
X113910000Y-104741000D01*
X122256000Y-104781000D02*
X113964000Y-104781000D01*
X122200000Y-104821000D02*
X114020000Y-104821000D01*
X122143000Y-104861000D02*
X114077000Y-104861000D01*
X122085000Y-104901000D02*
X114135000Y-104901000D01*
X122026000Y-104941000D02*
X114194000Y-104941000D01*
X121966000Y-104981000D02*
X114254000Y-104981000D01*
X121904000Y-105021000D02*
X114316000Y-105021000D01*
X121840000Y-105061000D02*
X114380000Y-105061000D01*
X121776000Y-105101000D02*
X114444000Y-105101000D01*
X121709000Y-105141000D02*
X114511000Y-105141000D01*
X121641000Y-105181000D02*
X114579000Y-105181000D01*
X121571000Y-105221000D02*
X114649000Y-105221000D01*
X121499000Y-105261000D02*
X114721000Y-105261000D01*
X121425000Y-105301000D02*
X114795000Y-105301000D01*
X121350000Y-105341000D02*
X114870000Y-105341000D01*
X121271000Y-105381000D02*
X114949000Y-105381000D01*
X121190000Y-105421000D02*
X115030000Y-105421000D01*
X121107000Y-105461000D02*
X115113000Y-105461000D01*
X121021000Y-105501000D02*
X115199000Y-105501000D01*
X120931000Y-105541000D02*
X115289000Y-105541000D01*
X120838000Y-105581000D02*
X115382000Y-105581000D01*
X120742000Y-105621000D02*
X115478000Y-105621000D01*
X120640000Y-105661000D02*
X115580000Y-105661000D01*
X120535000Y-105701000D02*
X115685000Y-105701000D01*
X120423000Y-105741000D02*
X115797000Y-105741000D01*
X120306000Y-105781000D02*
X115914000Y-105781000D01*
X120181000Y-105821000D02*
X116039000Y-105821000D01*
X120048000Y-105861000D02*
X116172000Y-105861000D01*
X119904000Y-105901000D02*
X116316000Y-105901000D01*
X119746000Y-105941000D02*
X116474000Y-105941000D01*
X119571000Y-105981000D02*
X116649000Y-105981000D01*
X119372000Y-106021000D02*
X116848000Y-106021000D01*
X119135000Y-106061000D02*
X117085000Y-106061000D01*
X118824000Y-106101000D02*
X117396000Y-106101000D01*
X125230000Y-99020000D02*
G75*
G03*
X125230000Y-99020000I-7120000J0D01*
G01*
X104670694Y-121920000D02*
G75*
G03*
X104670694Y-121920000I-1800694J0D01*
G01*
X104670694Y-68580000D02*
G75*
G03*
X104670694Y-68580000I-1800694J0D01*
G01*
X127595457Y-112210000D02*
X128995457Y-112210000D01*
X128295457Y-111510000D02*
X128295457Y-112910000D01*
X135215000Y-109125000D02*
X135215000Y-123285000D01*
X135255000Y-109125000D02*
X135255000Y-123285000D01*
X135295000Y-109125000D02*
X135295000Y-123285000D01*
X135335000Y-109126000D02*
X135335000Y-123284000D01*
X135375000Y-109126000D02*
X135375000Y-123284000D01*
X135415000Y-109127000D02*
X135415000Y-123283000D01*
X135455000Y-109129000D02*
X135455000Y-123281000D01*
X135495000Y-109130000D02*
X135495000Y-123280000D01*
X135535000Y-109132000D02*
X135535000Y-123278000D01*
X135575000Y-109134000D02*
X135575000Y-123276000D01*
X135615000Y-109136000D02*
X135615000Y-123274000D01*
X135655000Y-109138000D02*
X135655000Y-123272000D01*
X135695000Y-109141000D02*
X135695000Y-123269000D01*
X135735000Y-109144000D02*
X135735000Y-123266000D01*
X135775000Y-109147000D02*
X135775000Y-123263000D01*
X135815000Y-109150000D02*
X135815000Y-123260000D01*
X135855000Y-109153000D02*
X135855000Y-123257000D01*
X135895000Y-109157000D02*
X135895000Y-123253000D01*
X135936000Y-109161000D02*
X135936000Y-123249000D01*
X135976000Y-109165000D02*
X135976000Y-123245000D01*
X136016000Y-109170000D02*
X136016000Y-123240000D01*
X136056000Y-109174000D02*
X136056000Y-123236000D01*
X136096000Y-109179000D02*
X136096000Y-123231000D01*
X136136000Y-109184000D02*
X136136000Y-123226000D01*
X136176000Y-109190000D02*
X136176000Y-123220000D01*
X136216000Y-109195000D02*
X136216000Y-123215000D01*
X136256000Y-109201000D02*
X136256000Y-123209000D01*
X136296000Y-109207000D02*
X136296000Y-114765000D01*
X136296000Y-117645000D02*
X136296000Y-123203000D01*
X136336000Y-109213000D02*
X136336000Y-114765000D01*
X136336000Y-117645000D02*
X136336000Y-123197000D01*
X136376000Y-109220000D02*
X136376000Y-114765000D01*
X136376000Y-117645000D02*
X136376000Y-123190000D01*
X136416000Y-109226000D02*
X136416000Y-114765000D01*
X136416000Y-117645000D02*
X136416000Y-123184000D01*
X136456000Y-109233000D02*
X136456000Y-114765000D01*
X136456000Y-117645000D02*
X136456000Y-123177000D01*
X136496000Y-109241000D02*
X136496000Y-114765000D01*
X136496000Y-117645000D02*
X136496000Y-123169000D01*
X136536000Y-109248000D02*
X136536000Y-114765000D01*
X136536000Y-117645000D02*
X136536000Y-123162000D01*
X136576000Y-109256000D02*
X136576000Y-114765000D01*
X136576000Y-117645000D02*
X136576000Y-123154000D01*
X136616000Y-109263000D02*
X136616000Y-114765000D01*
X136616000Y-117645000D02*
X136616000Y-123147000D01*
X136656000Y-109272000D02*
X136656000Y-114765000D01*
X136656000Y-117645000D02*
X136656000Y-123138000D01*
X136696000Y-109280000D02*
X136696000Y-114765000D01*
X136696000Y-117645000D02*
X136696000Y-123130000D01*
X136736000Y-109289000D02*
X136736000Y-114765000D01*
X136736000Y-117645000D02*
X136736000Y-123121000D01*
X136776000Y-109298000D02*
X136776000Y-114765000D01*
X136776000Y-117645000D02*
X136776000Y-123112000D01*
X136816000Y-109307000D02*
X136816000Y-114765000D01*
X136816000Y-117645000D02*
X136816000Y-123103000D01*
X136856000Y-109316000D02*
X136856000Y-114765000D01*
X136856000Y-117645000D02*
X136856000Y-123094000D01*
X136896000Y-109326000D02*
X136896000Y-114765000D01*
X136896000Y-117645000D02*
X136896000Y-123084000D01*
X136936000Y-109335000D02*
X136936000Y-114765000D01*
X136936000Y-117645000D02*
X136936000Y-123075000D01*
X136976000Y-109345000D02*
X136976000Y-114765000D01*
X136976000Y-117645000D02*
X136976000Y-123065000D01*
X137016000Y-109356000D02*
X137016000Y-114765000D01*
X137016000Y-117645000D02*
X137016000Y-123054000D01*
X137056000Y-109366000D02*
X137056000Y-114765000D01*
X137056000Y-117645000D02*
X137056000Y-123044000D01*
X137096000Y-109377000D02*
X137096000Y-114765000D01*
X137096000Y-117645000D02*
X137096000Y-123033000D01*
X137136000Y-109388000D02*
X137136000Y-114765000D01*
X137136000Y-117645000D02*
X137136000Y-123022000D01*
X137176000Y-109400000D02*
X137176000Y-114765000D01*
X137176000Y-117645000D02*
X137176000Y-123010000D01*
X137216000Y-109411000D02*
X137216000Y-114765000D01*
X137216000Y-117645000D02*
X137216000Y-122999000D01*
X137256000Y-109423000D02*
X137256000Y-114765000D01*
X137256000Y-117645000D02*
X137256000Y-122987000D01*
X137296000Y-109435000D02*
X137296000Y-114765000D01*
X137296000Y-117645000D02*
X137296000Y-122975000D01*
X137336000Y-109447000D02*
X137336000Y-114765000D01*
X137336000Y-117645000D02*
X137336000Y-122963000D01*
X137376000Y-109460000D02*
X137376000Y-114765000D01*
X137376000Y-117645000D02*
X137376000Y-122950000D01*
X137416000Y-109473000D02*
X137416000Y-114765000D01*
X137416000Y-117645000D02*
X137416000Y-122937000D01*
X137456000Y-109486000D02*
X137456000Y-114765000D01*
X137456000Y-117645000D02*
X137456000Y-122924000D01*
X137496000Y-109499000D02*
X137496000Y-114765000D01*
X137496000Y-117645000D02*
X137496000Y-122911000D01*
X137536000Y-109513000D02*
X137536000Y-114765000D01*
X137536000Y-117645000D02*
X137536000Y-122897000D01*
X137576000Y-109527000D02*
X137576000Y-114765000D01*
X137576000Y-117645000D02*
X137576000Y-122883000D01*
X137616000Y-109541000D02*
X137616000Y-114765000D01*
X137616000Y-117645000D02*
X137616000Y-122869000D01*
X137656000Y-109556000D02*
X137656000Y-114765000D01*
X137656000Y-117645000D02*
X137656000Y-122854000D01*
X137696000Y-109570000D02*
X137696000Y-114765000D01*
X137696000Y-117645000D02*
X137696000Y-122840000D01*
X137736000Y-109585000D02*
X137736000Y-114765000D01*
X137736000Y-117645000D02*
X137736000Y-122825000D01*
X137776000Y-109601000D02*
X137776000Y-114765000D01*
X137776000Y-117645000D02*
X137776000Y-122809000D01*
X137816000Y-109616000D02*
X137816000Y-114765000D01*
X137816000Y-117645000D02*
X137816000Y-122794000D01*
X137856000Y-109632000D02*
X137856000Y-114765000D01*
X137856000Y-117645000D02*
X137856000Y-122778000D01*
X137896000Y-109648000D02*
X137896000Y-114765000D01*
X137896000Y-117645000D02*
X137896000Y-122762000D01*
X137936000Y-109665000D02*
X137936000Y-114765000D01*
X137936000Y-117645000D02*
X137936000Y-122745000D01*
X137976000Y-109681000D02*
X137976000Y-114765000D01*
X137976000Y-117645000D02*
X137976000Y-122729000D01*
X138016000Y-109698000D02*
X138016000Y-114765000D01*
X138016000Y-117645000D02*
X138016000Y-122712000D01*
X138056000Y-109715000D02*
X138056000Y-114765000D01*
X138056000Y-117645000D02*
X138056000Y-122695000D01*
X138096000Y-109733000D02*
X138096000Y-114765000D01*
X138096000Y-117645000D02*
X138096000Y-122677000D01*
X138136000Y-109751000D02*
X138136000Y-114765000D01*
X138136000Y-117645000D02*
X138136000Y-122659000D01*
X138176000Y-109769000D02*
X138176000Y-114765000D01*
X138176000Y-117645000D02*
X138176000Y-122641000D01*
X138216000Y-109787000D02*
X138216000Y-114765000D01*
X138216000Y-117645000D02*
X138216000Y-122623000D01*
X138256000Y-109806000D02*
X138256000Y-114765000D01*
X138256000Y-117645000D02*
X138256000Y-122604000D01*
X138296000Y-109825000D02*
X138296000Y-114765000D01*
X138296000Y-117645000D02*
X138296000Y-122585000D01*
X138336000Y-109845000D02*
X138336000Y-114765000D01*
X138336000Y-117645000D02*
X138336000Y-122565000D01*
X138376000Y-109864000D02*
X138376000Y-114765000D01*
X138376000Y-117645000D02*
X138376000Y-122546000D01*
X138416000Y-109884000D02*
X138416000Y-114765000D01*
X138416000Y-117645000D02*
X138416000Y-122526000D01*
X138456000Y-109904000D02*
X138456000Y-114765000D01*
X138456000Y-117645000D02*
X138456000Y-122506000D01*
X138496000Y-109925000D02*
X138496000Y-114765000D01*
X138496000Y-117645000D02*
X138496000Y-122485000D01*
X138536000Y-109946000D02*
X138536000Y-114765000D01*
X138536000Y-117645000D02*
X138536000Y-122464000D01*
X138576000Y-109967000D02*
X138576000Y-114765000D01*
X138576000Y-117645000D02*
X138576000Y-122443000D01*
X138616000Y-109989000D02*
X138616000Y-114765000D01*
X138616000Y-117645000D02*
X138616000Y-122421000D01*
X138656000Y-110011000D02*
X138656000Y-114765000D01*
X138656000Y-117645000D02*
X138656000Y-122399000D01*
X138696000Y-110033000D02*
X138696000Y-114765000D01*
X138696000Y-117645000D02*
X138696000Y-122377000D01*
X138736000Y-110055000D02*
X138736000Y-114765000D01*
X138736000Y-117645000D02*
X138736000Y-122355000D01*
X138776000Y-110078000D02*
X138776000Y-114765000D01*
X138776000Y-117645000D02*
X138776000Y-122332000D01*
X138816000Y-110102000D02*
X138816000Y-114765000D01*
X138816000Y-117645000D02*
X138816000Y-122308000D01*
X138856000Y-110125000D02*
X138856000Y-114765000D01*
X138856000Y-117645000D02*
X138856000Y-122285000D01*
X138896000Y-110149000D02*
X138896000Y-114765000D01*
X138896000Y-117645000D02*
X138896000Y-122261000D01*
X138936000Y-110174000D02*
X138936000Y-114765000D01*
X138936000Y-117645000D02*
X138936000Y-122236000D01*
X138976000Y-110198000D02*
X138976000Y-114765000D01*
X138976000Y-117645000D02*
X138976000Y-122212000D01*
X139016000Y-110223000D02*
X139016000Y-114765000D01*
X139016000Y-117645000D02*
X139016000Y-122187000D01*
X139056000Y-110249000D02*
X139056000Y-114765000D01*
X139056000Y-117645000D02*
X139056000Y-122161000D01*
X139096000Y-110275000D02*
X139096000Y-114765000D01*
X139096000Y-117645000D02*
X139096000Y-122135000D01*
X139136000Y-110301000D02*
X139136000Y-114765000D01*
X139136000Y-117645000D02*
X139136000Y-122109000D01*
X139176000Y-110327000D02*
X139176000Y-122083000D01*
X139216000Y-110354000D02*
X139216000Y-122056000D01*
X139256000Y-110382000D02*
X139256000Y-122028000D01*
X139296000Y-110409000D02*
X139296000Y-122001000D01*
X139336000Y-110438000D02*
X139336000Y-121972000D01*
X139376000Y-110466000D02*
X139376000Y-121944000D01*
X139416000Y-110495000D02*
X139416000Y-121915000D01*
X139456000Y-110525000D02*
X139456000Y-121885000D01*
X139496000Y-110555000D02*
X139496000Y-121855000D01*
X139536000Y-110585000D02*
X139536000Y-121825000D01*
X139576000Y-110616000D02*
X139576000Y-121794000D01*
X139616000Y-110647000D02*
X139616000Y-121763000D01*
X139656000Y-110678000D02*
X139656000Y-121732000D01*
X139696000Y-110711000D02*
X139696000Y-121699000D01*
X139736000Y-110743000D02*
X139736000Y-121667000D01*
X139776000Y-110776000D02*
X139776000Y-121634000D01*
X139816000Y-110810000D02*
X139816000Y-121600000D01*
X139856000Y-110844000D02*
X139856000Y-121566000D01*
X139896000Y-110879000D02*
X139896000Y-121531000D01*
X139936000Y-110914000D02*
X139936000Y-121496000D01*
X139976000Y-110950000D02*
X139976000Y-121460000D01*
X140016000Y-110986000D02*
X140016000Y-121424000D01*
X140056000Y-111023000D02*
X140056000Y-121387000D01*
X140096000Y-111060000D02*
X140096000Y-121350000D01*
X140136000Y-111098000D02*
X140136000Y-121312000D01*
X140176000Y-111136000D02*
X140176000Y-121274000D01*
X140216000Y-111176000D02*
X140216000Y-121234000D01*
X140256000Y-111215000D02*
X140256000Y-121195000D01*
X140296000Y-111256000D02*
X140296000Y-121154000D01*
X140336000Y-111297000D02*
X140336000Y-121113000D01*
X140376000Y-111339000D02*
X140376000Y-121071000D01*
X140416000Y-111381000D02*
X140416000Y-121029000D01*
X140456000Y-111424000D02*
X140456000Y-120986000D01*
X140496000Y-111468000D02*
X140496000Y-120942000D01*
X140536000Y-111512000D02*
X140536000Y-120898000D01*
X140576000Y-111558000D02*
X140576000Y-120852000D01*
X140616000Y-111604000D02*
X140616000Y-120806000D01*
X140656000Y-111651000D02*
X140656000Y-120759000D01*
X140696000Y-111699000D02*
X140696000Y-120711000D01*
X140736000Y-111747000D02*
X140736000Y-120663000D01*
X140776000Y-111797000D02*
X140776000Y-120613000D01*
X140816000Y-111847000D02*
X140816000Y-120563000D01*
X140856000Y-111899000D02*
X140856000Y-120511000D01*
X140896000Y-111951000D02*
X140896000Y-120459000D01*
X140936000Y-112005000D02*
X140936000Y-120405000D01*
X140976000Y-112059000D02*
X140976000Y-120351000D01*
X141016000Y-112115000D02*
X141016000Y-120295000D01*
X141056000Y-112172000D02*
X141056000Y-120238000D01*
X141096000Y-112230000D02*
X141096000Y-120180000D01*
X141136000Y-112289000D02*
X141136000Y-120121000D01*
X141176000Y-112349000D02*
X141176000Y-120061000D01*
X141216000Y-112411000D02*
X141216000Y-119999000D01*
X141256000Y-112475000D02*
X141256000Y-119935000D01*
X141296000Y-112539000D02*
X141296000Y-119871000D01*
X141336000Y-112606000D02*
X141336000Y-119804000D01*
X141376000Y-112674000D02*
X141376000Y-119736000D01*
X141416000Y-112744000D02*
X141416000Y-119666000D01*
X141456000Y-112816000D02*
X141456000Y-119594000D01*
X141496000Y-112890000D02*
X141496000Y-119520000D01*
X141536000Y-112965000D02*
X141536000Y-119445000D01*
X141576000Y-113044000D02*
X141576000Y-119366000D01*
X141616000Y-113125000D02*
X141616000Y-119285000D01*
X141656000Y-113208000D02*
X141656000Y-119202000D01*
X141696000Y-113294000D02*
X141696000Y-119116000D01*
X141736000Y-113384000D02*
X141736000Y-119026000D01*
X141776000Y-113477000D02*
X141776000Y-118933000D01*
X141816000Y-113573000D02*
X141816000Y-118837000D01*
X141856000Y-113675000D02*
X141856000Y-118735000D01*
X141896000Y-113780000D02*
X141896000Y-118630000D01*
X141936000Y-113892000D02*
X141936000Y-118518000D01*
X141976000Y-114009000D02*
X141976000Y-118401000D01*
X142016000Y-114134000D02*
X142016000Y-118276000D01*
X142056000Y-114267000D02*
X142056000Y-118143000D01*
X142096000Y-114411000D02*
X142096000Y-117999000D01*
X142136000Y-114569000D02*
X142136000Y-117841000D01*
X142176000Y-114744000D02*
X142176000Y-117666000D01*
X142216000Y-114943000D02*
X142216000Y-117467000D01*
X142256000Y-115180000D02*
X142256000Y-117230000D01*
X142296000Y-115491000D02*
X142296000Y-116919000D01*
X142335000Y-116205000D02*
G75*
G03*
X142335000Y-116205000I-7120000J0D01*
G01*
X115975000Y-123190000D02*
X116745000Y-123190000D01*
X116745000Y-121820000D02*
X116745000Y-124560000D01*
X116745000Y-124560000D02*
X123285000Y-124560000D01*
X123285000Y-121820000D02*
X116745000Y-121820000D01*
X123285000Y-124560000D02*
X123285000Y-121820000D01*
X124055000Y-123190000D02*
X123285000Y-123190000D01*
X147860000Y-113070000D02*
X152501000Y-113070000D01*
X147860000Y-113070000D02*
X147860000Y-102830000D01*
X149370000Y-113070000D02*
X149370000Y-102830000D01*
X152501000Y-113070000D02*
X152501000Y-102830000D01*
X147860000Y-109800000D02*
X149370000Y-109800000D01*
X147860000Y-106099000D02*
X149370000Y-106099000D01*
X147860000Y-102830000D02*
X152501000Y-102830000D01*
X159160000Y-76865302D02*
X159160000Y-77665302D01*
X159560000Y-77265302D02*
X158760000Y-77265302D01*
X160925000Y-81275000D02*
X152765000Y-81275000D01*
X160925000Y-81315000D02*
X152765000Y-81315000D01*
X160925000Y-81355000D02*
X152765000Y-81355000D01*
X160924000Y-81395000D02*
X152766000Y-81395000D01*
X160922000Y-81435000D02*
X152768000Y-81435000D01*
X160921000Y-81475000D02*
X152769000Y-81475000D01*
X160919000Y-81515000D02*
X152771000Y-81515000D01*
X160916000Y-81555000D02*
X152774000Y-81555000D01*
X160913000Y-81595000D02*
X152777000Y-81595000D01*
X160910000Y-81635000D02*
X152780000Y-81635000D01*
X160906000Y-81675000D02*
X152784000Y-81675000D01*
X160902000Y-81715000D02*
X152788000Y-81715000D01*
X160897000Y-81755000D02*
X152793000Y-81755000D01*
X160893000Y-81795000D02*
X152797000Y-81795000D01*
X160887000Y-81835000D02*
X152803000Y-81835000D01*
X160882000Y-81875000D02*
X152808000Y-81875000D01*
X160875000Y-81915000D02*
X152815000Y-81915000D01*
X160869000Y-81955000D02*
X152821000Y-81955000D01*
X160862000Y-81996000D02*
X152828000Y-81996000D01*
X160855000Y-82036000D02*
X152835000Y-82036000D01*
X160847000Y-82076000D02*
X152843000Y-82076000D01*
X160839000Y-82116000D02*
X152851000Y-82116000D01*
X160830000Y-82156000D02*
X157885000Y-82156000D01*
X155805000Y-82156000D02*
X152860000Y-82156000D01*
X160821000Y-82196000D02*
X157885000Y-82196000D01*
X155805000Y-82196000D02*
X152869000Y-82196000D01*
X160812000Y-82236000D02*
X157885000Y-82236000D01*
X155805000Y-82236000D02*
X152878000Y-82236000D01*
X160802000Y-82276000D02*
X157885000Y-82276000D01*
X155805000Y-82276000D02*
X152888000Y-82276000D01*
X160792000Y-82316000D02*
X157885000Y-82316000D01*
X155805000Y-82316000D02*
X152898000Y-82316000D01*
X160781000Y-82356000D02*
X157885000Y-82356000D01*
X155805000Y-82356000D02*
X152909000Y-82356000D01*
X160770000Y-82396000D02*
X157885000Y-82396000D01*
X155805000Y-82396000D02*
X152920000Y-82396000D01*
X160759000Y-82436000D02*
X157885000Y-82436000D01*
X155805000Y-82436000D02*
X152931000Y-82436000D01*
X160747000Y-82476000D02*
X157885000Y-82476000D01*
X155805000Y-82476000D02*
X152943000Y-82476000D01*
X160734000Y-82516000D02*
X157885000Y-82516000D01*
X155805000Y-82516000D02*
X152956000Y-82516000D01*
X160722000Y-82556000D02*
X157885000Y-82556000D01*
X155805000Y-82556000D02*
X152968000Y-82556000D01*
X160708000Y-82596000D02*
X157885000Y-82596000D01*
X155805000Y-82596000D02*
X152982000Y-82596000D01*
X160695000Y-82636000D02*
X157885000Y-82636000D01*
X155805000Y-82636000D02*
X152995000Y-82636000D01*
X160680000Y-82676000D02*
X157885000Y-82676000D01*
X155805000Y-82676000D02*
X153010000Y-82676000D01*
X160666000Y-82716000D02*
X157885000Y-82716000D01*
X155805000Y-82716000D02*
X153024000Y-82716000D01*
X160650000Y-82756000D02*
X157885000Y-82756000D01*
X155805000Y-82756000D02*
X153040000Y-82756000D01*
X160635000Y-82796000D02*
X157885000Y-82796000D01*
X155805000Y-82796000D02*
X153055000Y-82796000D01*
X160619000Y-82836000D02*
X157885000Y-82836000D01*
X155805000Y-82836000D02*
X153071000Y-82836000D01*
X160602000Y-82876000D02*
X157885000Y-82876000D01*
X155805000Y-82876000D02*
X153088000Y-82876000D01*
X160585000Y-82916000D02*
X157885000Y-82916000D01*
X155805000Y-82916000D02*
X153105000Y-82916000D01*
X160567000Y-82956000D02*
X157885000Y-82956000D01*
X155805000Y-82956000D02*
X153123000Y-82956000D01*
X160549000Y-82996000D02*
X157885000Y-82996000D01*
X155805000Y-82996000D02*
X153141000Y-82996000D01*
X160531000Y-83036000D02*
X157885000Y-83036000D01*
X155805000Y-83036000D02*
X153159000Y-83036000D01*
X160511000Y-83076000D02*
X157885000Y-83076000D01*
X155805000Y-83076000D02*
X153179000Y-83076000D01*
X160492000Y-83116000D02*
X157885000Y-83116000D01*
X155805000Y-83116000D02*
X153198000Y-83116000D01*
X160472000Y-83156000D02*
X157885000Y-83156000D01*
X155805000Y-83156000D02*
X153218000Y-83156000D01*
X160451000Y-83196000D02*
X157885000Y-83196000D01*
X155805000Y-83196000D02*
X153239000Y-83196000D01*
X160429000Y-83236000D02*
X157885000Y-83236000D01*
X155805000Y-83236000D02*
X153261000Y-83236000D01*
X160407000Y-83276000D02*
X157885000Y-83276000D01*
X155805000Y-83276000D02*
X153283000Y-83276000D01*
X160385000Y-83316000D02*
X157885000Y-83316000D01*
X155805000Y-83316000D02*
X153305000Y-83316000D01*
X160362000Y-83356000D02*
X157885000Y-83356000D01*
X155805000Y-83356000D02*
X153328000Y-83356000D01*
X160338000Y-83396000D02*
X157885000Y-83396000D01*
X155805000Y-83396000D02*
X153352000Y-83396000D01*
X160314000Y-83436000D02*
X157885000Y-83436000D01*
X155805000Y-83436000D02*
X153376000Y-83436000D01*
X160289000Y-83476000D02*
X157885000Y-83476000D01*
X155805000Y-83476000D02*
X153401000Y-83476000D01*
X160263000Y-83516000D02*
X157885000Y-83516000D01*
X155805000Y-83516000D02*
X153427000Y-83516000D01*
X160237000Y-83556000D02*
X157885000Y-83556000D01*
X155805000Y-83556000D02*
X153453000Y-83556000D01*
X160210000Y-83596000D02*
X157885000Y-83596000D01*
X155805000Y-83596000D02*
X153480000Y-83596000D01*
X160183000Y-83636000D02*
X157885000Y-83636000D01*
X155805000Y-83636000D02*
X153507000Y-83636000D01*
X160154000Y-83676000D02*
X157885000Y-83676000D01*
X155805000Y-83676000D02*
X153536000Y-83676000D01*
X160125000Y-83716000D02*
X157885000Y-83716000D01*
X155805000Y-83716000D02*
X153565000Y-83716000D01*
X160095000Y-83756000D02*
X157885000Y-83756000D01*
X155805000Y-83756000D02*
X153595000Y-83756000D01*
X160065000Y-83796000D02*
X157885000Y-83796000D01*
X155805000Y-83796000D02*
X153625000Y-83796000D01*
X160034000Y-83836000D02*
X157885000Y-83836000D01*
X155805000Y-83836000D02*
X153656000Y-83836000D01*
X160001000Y-83876000D02*
X157885000Y-83876000D01*
X155805000Y-83876000D02*
X153689000Y-83876000D01*
X159969000Y-83916000D02*
X157885000Y-83916000D01*
X155805000Y-83916000D02*
X153721000Y-83916000D01*
X159935000Y-83956000D02*
X157885000Y-83956000D01*
X155805000Y-83956000D02*
X153755000Y-83956000D01*
X159900000Y-83996000D02*
X157885000Y-83996000D01*
X155805000Y-83996000D02*
X153790000Y-83996000D01*
X159864000Y-84036000D02*
X157885000Y-84036000D01*
X155805000Y-84036000D02*
X153826000Y-84036000D01*
X159828000Y-84076000D02*
X157885000Y-84076000D01*
X155805000Y-84076000D02*
X153862000Y-84076000D01*
X159790000Y-84116000D02*
X157885000Y-84116000D01*
X155805000Y-84116000D02*
X153900000Y-84116000D01*
X159752000Y-84156000D02*
X157885000Y-84156000D01*
X155805000Y-84156000D02*
X153938000Y-84156000D01*
X159712000Y-84196000D02*
X157885000Y-84196000D01*
X155805000Y-84196000D02*
X153978000Y-84196000D01*
X159671000Y-84236000D02*
X154019000Y-84236000D01*
X159629000Y-84276000D02*
X154061000Y-84276000D01*
X159586000Y-84316000D02*
X154104000Y-84316000D01*
X159542000Y-84356000D02*
X154148000Y-84356000D01*
X159496000Y-84396000D02*
X154194000Y-84396000D01*
X159449000Y-84436000D02*
X154241000Y-84436000D01*
X159401000Y-84476000D02*
X154289000Y-84476000D01*
X159350000Y-84516000D02*
X154340000Y-84516000D01*
X159299000Y-84556000D02*
X154391000Y-84556000D01*
X159245000Y-84596000D02*
X154445000Y-84596000D01*
X159190000Y-84636000D02*
X154500000Y-84636000D01*
X159132000Y-84676000D02*
X154558000Y-84676000D01*
X159073000Y-84716000D02*
X154617000Y-84716000D01*
X159011000Y-84756000D02*
X154679000Y-84756000D01*
X158947000Y-84796000D02*
X154743000Y-84796000D01*
X158879000Y-84836000D02*
X154811000Y-84836000D01*
X158809000Y-84876000D02*
X154881000Y-84876000D01*
X158735000Y-84916000D02*
X154955000Y-84916000D01*
X158658000Y-84956000D02*
X155032000Y-84956000D01*
X158576000Y-84996000D02*
X155114000Y-84996000D01*
X158490000Y-85036000D02*
X155200000Y-85036000D01*
X158397000Y-85076000D02*
X155293000Y-85076000D01*
X158298000Y-85116000D02*
X155392000Y-85116000D01*
X158191000Y-85156000D02*
X155499000Y-85156000D01*
X158074000Y-85196000D02*
X155616000Y-85196000D01*
X157943000Y-85236000D02*
X155747000Y-85236000D01*
X157793000Y-85276000D02*
X155897000Y-85276000D01*
X157613000Y-85316000D02*
X156077000Y-85316000D01*
X157378000Y-85356000D02*
X156312000Y-85356000D01*
X160965000Y-81275000D02*
G75*
G03*
X160965000Y-81275000I-4120000J0D01*
G01*
M02*
